<svg width="949" height="198" viewBox="0 0 949 198" fill="none" xmlns="http://www.w3.org/2000/svg">
<g id="09">
<g id="Component 26">
<path id="Union" d="M499.512 13.3008L499.041 14.1829C499.516 14.437 500.108 14.2679 500.378 13.8008L499.512 13.3008ZM472.022 60.9135L472.888 61.4135C473.158 60.9464 473.009 60.3496 472.551 60.0645L472.022 60.9135ZM472.015 60.9269L471.149 60.4269C471.016 60.6566 470.98 60.9295 471.049 61.1857C471.117 61.4419 471.285 61.6603 471.515 61.7929L472.015 60.9269ZM686.392 184.698L685.892 185.564C686.37 185.84 686.982 185.676 687.258 185.198L686.392 184.698ZM686.416 184.657L686.864 183.763C686.391 183.526 685.814 183.698 685.55 184.157L686.416 184.657ZM713.873 137.099L713.007 136.599C712.742 137.058 712.881 137.644 713.324 137.935L713.873 137.099ZM713.897 137.058L714.763 137.558C715.039 137.08 714.875 136.468 714.397 136.192L713.897 137.058ZM499.519 13.2874L500.019 12.4214C499.541 12.1453 498.929 12.3091 498.653 12.7874L499.519 13.2874ZM499.982 12.4186C486.481 5.21003 469.597 9.96519 461.886 23.3197L463.618 24.3197C470.787 11.9025 486.487 7.48068 499.041 14.1829L499.982 12.4186ZM461.886 23.3197C454.176 36.6741 458.5 53.6738 471.494 61.7624L472.551 60.0645C460.47 52.5441 456.449 36.7368 463.618 24.3197L461.886 23.3197ZM471.156 60.4135L471.149 60.4269L472.881 61.4269L472.888 61.4135L471.156 60.4135ZM471.515 61.7929L685.892 185.564L686.892 183.832L472.515 60.0609L471.515 61.7929ZM687.258 185.198L687.282 185.157L685.55 184.157L685.526 184.198L687.258 185.198ZM721.694 173.32C714.637 185.542 699.315 190.018 686.864 183.763L685.967 185.551C699.359 192.278 715.836 187.465 723.426 174.32L721.694 173.32ZM713.324 137.935C724.966 145.59 728.751 161.097 721.694 173.32L723.426 174.32C731.015 161.174 726.945 144.497 714.423 136.264L713.324 137.935ZM714.739 137.599L714.763 137.558L713.031 136.558L713.007 136.599L714.739 137.599ZM714.397 136.192L712.993 135.382L711.993 137.114L713.397 137.924L714.397 136.192ZM712.993 135.382L500.824 12.8863L499.824 14.6183L711.993 137.114L712.993 135.382ZM500.824 12.8863L500.019 12.4214L499.019 14.1535L499.824 14.6183L500.824 12.8863ZM498.653 12.7874L498.645 12.8008L500.378 13.8008L500.385 13.7874L498.653 12.7874Z" fill="white"/>
</g>
<g id="Component 27">
<path id="Union_2" d="M500.29 60.9137L499.762 60.0648C499.304 60.3498 499.154 60.9466 499.424 61.4137L500.29 60.9137ZM472.801 13.301L471.935 13.801C472.204 14.2681 472.796 14.4372 473.272 14.1832L472.801 13.301ZM472.793 13.2876L473.659 12.7876C473.526 12.558 473.308 12.3904 473.052 12.3217C472.796 12.2531 472.523 12.289 472.293 12.4216L472.793 13.2876ZM258.416 137.059L257.916 136.193C257.437 136.469 257.273 137.08 257.55 137.559L258.416 137.059ZM258.439 137.099L258.989 137.935C259.431 137.644 259.57 137.058 259.305 136.599L258.439 137.099ZM285.897 184.657L286.763 184.157C286.498 183.699 285.921 183.526 285.448 183.764L285.897 184.657ZM285.92 184.698L285.054 185.198C285.33 185.676 285.942 185.84 286.42 185.564L285.92 184.698ZM499.493 61.3919L499.993 62.258L499.493 61.3919ZM500.298 60.9271L500.798 61.7931C501.276 61.517 501.44 60.9054 501.164 60.4271L500.298 60.9271ZM500.818 61.7627C513.812 53.6741 518.136 36.6744 510.426 23.3199L508.694 24.3199C515.863 36.7371 511.843 52.5443 499.762 60.0648L500.818 61.7627ZM510.426 23.3199C502.716 9.96545 485.832 5.21028 472.33 12.4189L473.272 14.1832C485.825 7.48093 501.525 11.9028 508.694 24.3199L510.426 23.3199ZM473.667 12.801L473.659 12.7876L471.927 13.7876L471.935 13.801L473.667 12.801ZM472.293 12.4216L257.916 136.193L258.916 137.925L473.293 14.1537L472.293 12.4216ZM257.55 137.559L257.573 137.599L259.305 136.599L259.282 136.559L257.55 137.559ZM250.618 173.32C243.562 161.098 247.346 145.59 258.989 137.935L257.89 136.264C245.368 144.498 241.297 161.175 248.886 174.32L250.618 173.32ZM285.448 183.764C272.997 190.018 257.675 185.542 250.618 173.32L248.886 174.32C256.476 187.465 272.954 192.278 286.346 185.551L285.448 183.764ZM285.031 185.157L285.054 185.198L286.786 184.198L286.763 184.157L285.031 185.157ZM286.42 185.564L287.824 184.753L286.824 183.021L285.42 183.832L286.42 185.564ZM287.824 184.753L499.993 62.258L498.993 60.5259L286.824 183.021L287.824 184.753ZM499.993 62.258L500.798 61.7931L499.798 60.0611L498.993 60.5259L499.993 62.258ZM501.164 60.4271L501.156 60.4137L499.424 61.4137L499.432 61.4271L501.164 60.4271Z" fill="white"/>
</g>
<g id="Component 16">
<path id="Union_3" d="M268.698 186.592L268.77 185.595C268.804 185.597 268.838 185.601 268.871 185.607L268.698 186.592ZM274.275 186.998L274.247 185.999C274.281 185.998 274.315 185.999 274.348 186.001L274.275 186.998ZM274.425 187.009L275.425 187.009C275.425 187.287 275.31 187.552 275.106 187.742C274.903 187.931 274.63 188.027 274.353 188.007L274.425 187.009ZM274.425 186.994L273.425 186.994C273.425 186.454 273.853 186.012 274.392 185.994L274.425 186.994ZM274.425 132.015L274.392 133.015C273.853 132.997 273.425 132.555 273.425 132.015L274.425 132.015ZM274.425 132L274.351 131.003C274.628 130.982 274.901 131.078 275.105 131.267C275.309 131.456 275.425 131.722 275.425 132L274.425 132ZM274.279 132.011L274.353 133.008C274.319 133.011 274.285 133.011 274.251 133.011L274.279 132.011ZM268.592 132.436L268.769 133.42C268.735 133.426 268.701 133.43 268.666 133.433L268.592 132.436ZM8.54682 151.864L7.54682 151.864C7.54682 151.341 7.95038 150.906 8.47232 150.867L8.54682 151.864ZM8.54682 151.872L9.54682 151.872C9.54682 152.407 9.12491 152.848 8.58988 152.871L8.54682 151.872ZM8.54682 167.642L8.58988 166.643C9.12491 166.666 9.54682 167.107 9.54682 167.642L8.54682 167.642ZM8.54682 167.648L8.47419 168.645C7.95148 168.607 7.54682 168.172 7.54682 167.648L8.54682 167.648ZM273.495 188.009C271.8 188.009 270.139 187.861 268.524 187.577L268.871 185.607C270.372 185.871 271.917 186.009 273.495 186.009L273.495 188.009ZM274.303 187.998C274.035 188.005 273.766 188.009 273.495 188.009L273.495 186.009C273.747 186.009 273.998 186.006 274.247 185.999L274.303 187.998ZM274.353 188.007L274.203 187.996L274.348 186.001L274.498 186.012L274.353 188.007ZM275.425 186.994L275.425 187.009L273.425 187.009L273.425 186.994L275.425 186.994ZM302 159.505C302 174.925 289.756 187.485 274.458 187.993L274.392 185.994C288.615 185.522 300 173.843 300 159.505L302 159.505ZM274.458 131.016C289.756 131.524 302 144.084 302 159.505L300 159.505C300 145.167 288.615 133.487 274.392 133.015L274.458 131.016ZM275.425 132L275.425 132.015L273.425 132.015L273.425 132L275.425 132ZM274.204 131.014L274.351 131.003L274.5 132.997L274.353 133.008L274.204 131.014ZM273.495 131C273.767 131 274.037 131.004 274.307 131.011L274.251 133.011C274 133.004 273.748 133 273.495 133L273.495 131ZM268.415 131.452C270.064 131.155 271.762 131 273.495 131L273.495 133C271.881 133 270.302 133.144 268.769 133.42L268.415 131.452ZM8.47232 150.867L268.517 131.439L268.666 133.433L8.62131 152.862L8.47232 150.867ZM7.54682 151.872L7.54682 151.864L9.54682 151.864L9.54682 151.872L7.54682 151.872ZM2.4266e-06 159.757C2.00863e-06 154.976 3.77249 151.077 8.50376 150.873L8.58988 152.871C4.92404 153.029 2 156.052 2 159.757L2.4266e-06 159.757ZM8.50376 168.641C3.77249 168.437 2.84456e-06 164.538 2.4266e-06 159.757L2 159.757C2 163.462 4.92404 166.485 8.58988 166.643L8.50376 168.641ZM7.54682 167.648L7.54682 167.642L9.54682 167.642L9.54682 167.648L7.54682 167.648ZM268.625 187.59L8.47419 168.645L8.61945 166.651L268.77 185.595L268.625 187.59Z" fill="white"/>
</g>
<path id="&#224;&#184;&#162;&#224;&#184;&#177;&#224;&#184;&#135;&#224;&#185;&#132;&#224;&#184;&#161;&#224;&#185;&#136;&#224;&#184;&#163;&#224;&#184;&#177;&#224;&#184;&#154;&#224;&#184;&#163;&#224;&#184;&#173;&#224;&#184;&#135;" d="M522.571 65.5694C524.691 66.7934 526.637 66.4828 527.699 64.6433L529.967 60.715C530.291 60.1539 530.434 60.0496 530.882 60.2458L531.283 60.415L531.733 59.6356L528.74 57.9076L528.29 58.687L528.637 58.9498C529.031 59.2396 529.013 59.4159 528.689 59.977L526.421 63.9053C525.71 65.1368 524.526 65.2432 523.201 64.4782C521.876 63.7132 521.126 62.6359 521.837 61.4045C522.368 60.4847 523.278 60.241 524.182 60.763L525.164 61.33L525.734 60.7029L525.932 60.3599L524.731 59.6669C523.765 59.1089 523.667 58.4499 524.099 57.7016L524.648 56.7507L526.332 57.7227L526.854 56.8186L523.939 55.1356L522.904 56.9283C522.229 58.0974 522.625 58.8873 523.2 59.5105L523.191 59.5261C522.317 59.3124 521.225 59.5129 520.532 60.7132C519.524 62.4591 520.451 64.3454 522.571 65.5694ZM533.154 58.7101L533.817 58.2821L534.078 57.8301L530.056 55.5081C529.791 55.3551 529.747 55.1428 529.9 54.8778L530.206 54.3478L529.427 53.8978L528.838 53.7656L528.577 54.2177C528.136 54.9815 528.213 55.8571 529.054 56.3431L533.154 58.7101ZM532.132 70.882C533.442 71.638 534.83 71.3584 535.631 69.971L539.132 63.9071L536.606 62.4491L536.084 63.3532L536.848 63.7942C537.269 64.0372 537.241 64.2291 536.917 64.7903L534.424 69.1083C533.911 69.9968 533.129 70.1273 532.381 69.6953L531.726 69.3173L533.056 62.4779L531.684 61.6859L531.252 62.4342C531.461 62.7209 531.461 63.1161 531.404 63.3949L530.153 69.739L532.132 70.882ZM547.398 62.0286L542.799 59.3736L542.592 59.7321L542.37 60.4768L545.301 62.1688C544.129 62.0743 543.261 62.4254 542.307 64.0778L537.531 72.3151C537.045 73.1569 537.356 74.0223 538.182 74.4993C538.478 74.6703 538.708 74.7405 538.922 74.8018L539.435 74.3084L539.597 74.0278L539.036 73.7038C538.755 73.5418 538.68 73.3115 538.887 72.953L543.545 64.9585C544.775 62.8631 545.638 62.7374 546.786 63.0886L547.398 62.0286ZM544.801 78.4042C546.376 79.3132 548.356 79.2304 549.382 77.4533L551.776 73.3068C552.1 72.7456 552.244 72.6413 552.692 72.8376L553.093 73.0068L553.543 72.2274L550.55 70.4994L550.1 71.2788L550.447 71.5416C550.841 71.8313 550.822 72.0076 550.498 72.5688L548.14 76.653C547.438 77.8689 546.382 77.862 545.338 77.259C543.748 76.341 543.601 74.7596 543.601 74.7596L547.183 68.5554L545.063 67.3314L544.604 68.1264L544.966 68.3982C545.345 68.6789 545.328 68.815 545.004 69.3762L542.097 74.4113C541.746 75.0193 541.596 75.099 541.251 74.9411L540.875 74.7653L540.371 75.6383L542.163 76.6733C542.394 76.4533 542.673 76.1151 542.884 75.8214C542.884 75.8214 543.024 77.3782 544.801 78.4042ZM553.398 70.4602L554.658 68.2778L553.411 67.5578L552.151 69.7402L553.398 70.4602ZM552.735 82.9846C554.652 84.0916 556.427 84.0772 557.435 82.3313C558.2 81.0062 557.48 79.6969 556.324 78.6759C554.34 76.9279 554.472 76.339 554.886 75.622C555.318 74.8737 556.122 74.7768 557.26 75.4338C557.962 75.8388 558.453 76.3925 558.653 77.09L559.588 77.63C559.588 77.63 559.864 77.332 560.323 76.537C559.888 75.9948 558.847 75.0613 557.85 74.4853C556.135 73.4953 554.453 73.5638 553.616 75.0135C552.869 76.3073 553.357 77.5866 554.68 78.7869C556.593 80.5146 556.47 80.9427 555.984 81.7845C555.561 82.5172 554.669 82.7298 553.422 82.0098C552.565 81.5147 552.034 80.9587 551.912 80.1611L550.961 79.6121C550.615 80.1397 550.546 80.2242 550.197 80.792C550.515 81.1417 551.082 82.0306 552.735 82.9846ZM563.098 75.9982L563.761 75.5702L564.022 75.1182L560 72.7962C559.735 72.6432 559.691 72.4309 559.844 72.1659L560.15 71.6358L559.371 71.1858L558.782 71.0537L558.521 71.5058C558.08 72.2696 558.156 73.1452 558.998 73.6312L563.098 75.9982ZM561.433 88.0066C563.709 89.3206 565.683 88.8181 566.745 86.9787L568.932 83.1907C569.256 82.6295 569.399 82.5252 569.847 82.7214L570.248 82.8907L570.689 82.1268L567.696 80.3988L567.255 81.1627L567.602 81.4254C567.996 81.7152 567.977 81.8915 567.653 82.4527L565.466 86.2407C564.8 87.3942 563.544 87.7704 562.063 86.9154C560.582 86.0604 560.28 84.7842 560.946 83.6307L564.033 78.2838L561.913 77.0598L561.454 77.8548L561.816 78.1266C562.195 78.4074 562.179 78.5435 561.855 79.1047L559.668 82.8927C558.606 84.7321 559.157 86.6926 561.433 88.0066ZM569.876 92.8811C571.793 93.9881 573.568 93.9736 574.576 92.2277C575.341 90.9027 574.622 89.5934 573.465 88.5724C571.481 86.8244 571.614 86.2355 572.028 85.5185C572.46 84.7702 573.264 84.6733 574.402 85.3303C575.103 85.7353 575.594 86.289 575.794 86.9864L576.729 87.5264C576.729 87.5264 577.005 87.2285 577.464 86.4335C577.029 85.8912 575.988 84.9578 574.991 84.3818C573.276 83.3918 571.595 83.4603 570.758 84.91C570.011 86.2038 570.498 87.4831 571.821 88.6834C573.734 90.4111 573.611 90.8392 573.125 91.681C572.702 92.4136 571.811 92.6262 570.563 91.9062C569.706 91.4112 569.175 90.8552 569.054 90.0576L568.103 89.5086C567.756 90.0362 567.687 90.1207 567.338 90.6885C567.656 91.0382 568.224 91.9271 569.876 92.8811ZM583.157 89.138C581.629 88.256 580.044 88.1931 579.154 88.5107C579.001 88.7757 578.825 89.1522 578.645 89.6091L579.674 90.2031C580.534 89.5773 581.404 89.5812 582.527 90.2292C584.101 91.1382 584.416 92.2135 583.552 93.71L582.391 95.7209C581.518 97.233 580.429 97.4983 578.839 96.5803C577.982 96.0853 577.436 95.3751 577.385 94.743L578.24 93.2621L579.3 93.8741L579.885 92.8609L577.547 91.5109L575.684 94.7377L575.918 94.8727C576.243 95.8922 576.804 96.9017 578.191 97.7027C580.296 98.9177 582.382 98.6881 583.651 96.4901L584.812 94.4792C586.126 92.2033 585.37 90.416 583.157 89.138ZM587.423 102.804C588.732 103.56 590.12 103.28 590.921 101.893L594.422 95.829L591.897 94.371L591.375 95.2751L592.138 95.7161C592.559 95.9591 592.532 96.151 592.208 96.7122L589.715 101.03C589.202 101.919 588.42 102.049 587.671 101.617L587.017 101.239L588.346 94.3998L586.975 93.6078L586.543 94.3561C586.751 94.6428 586.752 95.0379 586.695 95.3168L585.443 101.661L587.423 102.804Z" fill="#FF8058"/>
<path id="&#224;&#184;&#163;&#224;&#184;&#177;&#224;&#184;&#154;&#224;&#184;&#163;&#224;&#184;&#173;&#224;&#184;&#135;" d="M419.085 82.7663C421.002 81.6593 421.877 80.1148 420.869 78.3689C420.104 77.0439 418.61 77.0126 417.148 77.5036C414.642 78.3475 414.198 77.9387 413.784 77.2216C413.352 76.4734 413.67 75.7285 414.808 75.0715C415.51 74.6665 416.235 74.5182 416.939 74.6936L417.874 74.1536C417.874 74.1536 417.754 73.7657 417.295 72.9707C416.608 73.0764 415.279 73.511 414.282 74.087C412.567 75.077 411.785 76.5674 412.622 78.0172C413.369 79.311 414.721 79.5283 416.422 78.9826C418.875 78.1903 419.184 78.5104 419.67 79.3522C420.093 80.0848 419.831 80.9634 418.584 81.6834C417.727 82.1784 416.98 82.3604 416.228 82.0668L415.277 82.6158C415.561 83.1794 415.6 83.2819 415.917 83.8677C416.379 83.7674 417.432 83.7203 419.085 82.7663ZM418.216 70.2983L418.177 69.5103L417.916 69.0583L413.894 71.3803C413.629 71.5333 413.423 71.465 413.27 71.2L412.964 70.67L412.185 71.12L411.776 71.5638L412.037 72.0159C412.478 72.7797 413.274 73.1513 414.116 72.6653L418.216 70.2983ZM427.783 77.7443C430.059 76.4303 430.611 74.4698 429.549 72.6303L427.362 68.8423C427.038 68.2812 427.019 68.1049 427.413 67.8151L427.76 67.5523L427.319 66.7885L424.326 68.5165L424.767 69.2803L425.168 69.1111C425.616 68.9149 425.759 69.0192 426.083 69.5803L428.27 73.3683C428.936 74.5219 428.634 75.7981 427.153 76.6531C425.672 77.5081 424.416 77.1319 423.75 75.9783L420.663 70.6315L418.543 71.8555L419.002 72.6505L419.418 72.4723C419.851 72.285 419.961 72.3672 420.285 72.9283L422.472 76.7163C423.534 78.5558 425.507 79.0583 427.783 77.7443ZM436.226 72.8698C438.143 71.7628 439.018 70.2184 438.01 68.4724C437.245 67.1474 435.752 67.1161 434.289 67.6071C431.783 68.4511 431.34 68.0422 430.926 67.3252C430.494 66.5769 430.812 65.832 431.95 65.175C432.651 64.77 433.376 64.6217 434.08 64.7971L435.015 64.2571C435.015 64.2571 434.895 63.8692 434.436 63.0742C433.749 63.18 432.42 63.6145 431.423 64.1905C429.708 65.1805 428.927 66.671 429.764 68.1207C430.511 69.4145 431.862 69.6318 433.563 69.0861C436.016 68.2938 436.325 68.6139 436.811 69.4557C437.234 70.1883 436.973 71.0669 435.725 71.7869C434.868 72.2819 434.121 72.4639 433.37 72.1703L432.419 72.7193C432.702 73.2829 432.741 73.3854 433.058 73.9712C433.52 73.8709 434.574 73.8238 436.226 72.8698ZM439.625 59.4967C438.097 60.3787 437.25 61.7198 437.08 62.6494C437.233 62.9144 437.471 63.2549 437.777 63.6398L438.806 63.0458C438.694 61.988 439.132 61.2359 440.255 60.5879C441.829 59.6789 442.918 59.9442 443.782 61.4407L444.943 63.4516C445.816 64.9637 445.501 66.039 443.911 66.957C443.054 67.452 442.166 67.5698 441.593 67.2978L440.738 65.8168L441.798 65.2048L441.213 64.1916L438.875 65.5416L440.738 68.7684L440.972 68.6334C442.017 68.8609 443.172 68.8804 444.559 68.0794C446.664 66.8644 447.508 64.9428 446.239 62.7448L445.078 60.7339C443.764 58.458 441.838 58.2187 439.625 59.4967ZM453.593 62.6352C454.902 61.8792 455.354 60.5376 454.553 59.1503L451.052 53.0863L448.527 54.5443L449.049 55.4485L449.812 55.0075C450.233 54.7645 450.386 54.8844 450.71 55.4455L453.203 59.7635C453.716 60.6521 453.438 61.3946 452.689 61.8266L452.035 62.2046L446.776 57.6332L445.405 58.4252L445.837 59.1734C446.189 59.1361 446.532 59.3333 446.745 59.5222L451.613 63.7782L453.593 62.6352Z" fill="white"/>
<g id="Component 64">
<g id="Frame 756">
<rect x="472" y="23.0001" width="30" height="30" rx="15" fill="white"/>
<path id="1" d="M483.421 44.5001H487.147C489.289 43.0421 491.647 40.2341 491.647 36.7061C491.647 33.6821 489.919 31.7201 486.931 31.7201C484.069 31.7201 482.215 33.5561 482.215 36.1301C482.215 38.5061 483.817 40.0361 485.887 40.0361C487.489 40.0361 488.227 39.1001 488.659 38.1461L488.821 38.2001C488.317 40.5941 486.481 42.3041 483.421 44.5001ZM486.931 37.9661C485.743 37.9661 485.023 37.2821 485.023 36.0581V35.7341C485.023 34.5101 485.743 33.8261 486.931 33.8261C488.119 33.8261 488.839 34.5101 488.839 35.7341V36.0581C488.839 37.2821 488.119 37.9661 486.931 37.9661Z" fill="black"/>
</g>
</g>
<g id="Component 65">
<path id="Union_4" d="M684.022 136.726L684.551 137.575C685.008 137.29 685.158 136.693 684.888 136.226L684.022 136.726ZM711.511 184.339L712.377 183.839C712.108 183.372 711.516 183.202 711.04 183.456L711.511 184.339ZM711.519 184.352L710.653 184.852C710.786 185.082 711.004 185.249 711.26 185.318C711.516 185.387 711.789 185.351 712.019 185.218L711.519 184.352ZM925.897 60.5811L926.397 61.4472C926.626 61.3146 926.794 61.0961 926.862 60.84C926.931 60.5838 926.895 60.3108 926.763 60.0811L925.897 60.5811ZM925.873 60.5404L925.324 59.7048C924.881 59.9959 924.742 60.5816 925.007 61.0404L925.873 60.5404ZM898.415 12.9824L897.549 13.4824C897.814 13.9412 898.391 14.1138 898.864 13.876L898.415 12.9824ZM898.392 12.9417L899.258 12.4417C899.125 12.212 898.907 12.0444 898.651 11.9758C898.395 11.9071 898.122 11.943 897.892 12.0757L898.392 12.9417ZM896.988 13.7524L897.488 14.6184L896.988 13.7524ZM684.014 136.713L683.514 135.847C683.036 136.123 682.872 136.734 683.148 137.213L684.014 136.713ZM683.494 135.877C670.5 143.966 666.176 160.965 673.886 174.32L675.618 173.32C668.449 160.903 672.47 145.095 684.551 137.575L683.494 135.877ZM673.886 174.32C681.596 187.674 698.48 192.429 711.982 185.221L711.04 183.456C698.487 190.159 682.787 185.737 675.618 173.32L673.886 174.32ZM710.645 184.839L710.653 184.852L712.385 183.852L712.377 183.839L710.645 184.839ZM712.019 185.218L926.397 61.4472L925.397 59.7151L711.019 183.486L712.019 185.218ZM926.763 60.0811L926.739 60.0404L925.007 61.0404L925.031 61.0811L926.763 60.0811ZM933.694 24.3198C940.75 36.5422 936.966 52.0496 925.324 59.7048L926.422 61.3759C938.945 53.142 943.015 36.4651 935.426 23.3198L933.694 24.3198ZM898.864 13.876C911.315 7.62128 926.637 12.0973 933.694 24.3198L935.426 23.3198C927.836 10.1744 911.358 5.36132 897.967 12.0888L898.864 13.876ZM899.281 12.4824L899.258 12.4417L897.526 13.4417L897.549 13.4824L899.281 12.4824ZM897.892 12.0757L896.488 12.8863L897.488 14.6184L898.892 13.8077L897.892 12.0757ZM896.488 12.8863L684.32 135.382L685.32 137.114L897.488 14.6184L896.488 12.8863ZM684.32 135.382L683.514 135.847L684.514 137.579L685.32 137.114L684.32 135.382ZM683.148 137.213L683.156 137.226L684.888 136.226L684.88 136.213L683.148 137.213Z" fill="white"/>
</g>
</g>
</svg>
