<svg width="738" height="198" viewBox="0 0 738 198" fill="none" xmlns="http://www.w3.org/2000/svg">
<g id="08">
<g id="Component 25">
<path id="Union" d="M232.041 16.5128L232.603 17.3402C232.631 17.3212 232.658 17.3008 232.684 17.2791L232.041 16.5128ZM236.669 13.3721L237.145 14.2517C237.174 14.2358 237.203 14.2184 237.23 14.1995L236.669 13.3721ZM236.793 13.2878L237.659 12.7878C237.52 12.5472 237.287 12.3752 237.017 12.3131C236.746 12.251 236.461 12.3043 236.232 12.4603L236.793 13.2878ZM236.801 13.3012L235.935 13.8012C236.205 14.2683 236.796 14.4374 237.272 14.1833L236.801 13.3012ZM264.29 60.9139L263.762 60.0649C263.304 60.35 263.154 60.9468 263.424 61.4139L264.29 60.9139ZM264.298 60.9272L264.732 61.8281C264.982 61.7073 265.171 61.4877 265.253 61.2219C265.335 60.9561 265.303 60.6681 265.164 60.4272L264.298 60.9272ZM264.166 60.991L263.731 60.0901C263.701 60.1049 263.671 60.1213 263.642 60.1392L264.166 60.991ZM259.028 63.4664L258.689 62.5255C258.657 62.5372 258.625 62.5505 258.594 62.5655L259.028 63.4664ZM24.1082 176.663L23.2422 177.163C23.5039 177.617 24.0708 177.791 24.5423 177.564L24.1082 176.663ZM24.1045 176.657L24.9705 176.157C24.7028 175.693 24.1171 175.523 23.6423 175.77L24.1045 176.657ZM16.2193 162.999L16.7561 163.843C17.208 163.556 17.3531 162.963 17.0853 162.499L16.2193 162.999ZM16.2165 162.994L15.6549 162.167C15.2213 162.461 15.0884 163.041 15.3505 163.494L16.2165 162.994ZM235.488 12.8867C234.02 13.7341 232.656 14.6929 231.399 15.7465L232.684 17.2791C233.852 16.2998 235.121 15.4078 236.488 14.6187L235.488 12.8867ZM236.193 12.4925C235.957 12.6202 235.722 12.7516 235.488 12.8867L236.488 14.6187C236.706 14.4929 236.925 14.3706 237.145 14.2517L236.193 12.4925ZM236.232 12.4603L236.107 12.5447L237.23 14.1995L237.355 14.1152L236.232 12.4603ZM237.667 12.8012L237.659 12.7878L235.927 13.7878L235.935 13.8012L237.667 12.8012ZM274.426 23.3201C266.716 9.9656 249.832 5.21044 236.33 12.419L237.272 14.1833C249.825 7.48109 265.525 11.9029 272.694 24.3201L274.426 23.3201ZM264.819 61.7628C277.812 53.6742 282.136 36.6745 274.426 23.3201L272.694 24.3201C279.863 36.7372 275.843 52.5445 263.762 60.0649L264.819 61.7628ZM265.164 60.4272L265.156 60.4139L263.424 61.4139L263.432 61.4272L265.164 60.4272ZM264.6 61.8918L264.732 61.8281L263.864 60.0264L263.731 60.0901L264.6 61.8918ZM263.993 62.2581C264.228 62.1225 264.46 61.984 264.69 61.8427L263.642 60.1392C263.428 60.2708 263.211 60.3997 262.993 60.5261L263.993 62.2581ZM259.367 64.4073C260.944 63.8397 262.492 63.1247 263.993 62.2581L262.993 60.5261C261.595 61.333 260.155 61.9979 258.689 62.5255L259.367 64.4073ZM24.5423 177.564L259.462 64.3673L258.594 62.5655L23.6741 175.762L24.5423 177.564ZM23.2385 177.157L23.2422 177.163L24.9742 176.163L24.9705 176.157L23.2385 177.157ZM12.7602 174.102C15.1506 178.242 20.3674 179.733 24.5668 177.544L23.6423 175.77C20.3885 177.466 16.3448 176.31 14.4922 173.102L12.7602 174.102ZM15.6825 162.156C11.6871 164.698 10.3697 169.961 12.7602 174.102L14.4922 173.102C12.6396 169.893 13.6605 165.813 16.7561 163.843L15.6825 162.156ZM15.3505 163.494L15.3533 163.499L17.0853 162.499L17.0825 162.494L15.3505 163.494ZM231.48 15.6853L15.6549 162.167L16.7781 163.822L232.603 17.3402L231.48 15.6853Z" fill="white"/>
</g>
<path id="&#224;&#184;&#156;&#224;&#185;&#136;&#224;&#184;&#178;&#224;&#184;&#153; (&#224;&#185;&#132;&#224;&#184;&#161;&#224;&#185;&#136;&#224;&#185;&#128;&#224;&#184;&#155;&#224;&#185;&#135;&#224;&#184;&#153;)" d="M142.715 105.866L142.851 101.423L146.768 103.526L148.436 102.563L144.575 95.876C144.251 95.3148 144.232 95.1385 144.626 94.8488L144.973 94.586L144.523 93.8066L141.53 95.5346L141.98 96.314L142.381 96.1448C142.829 95.9485 142.972 96.0528 143.296 96.614L146.212 101.665L146.088 101.737L142.578 99.8345L141.612 100.392L141.505 104.383L141.38 104.455L138.365 99.2326C138.158 98.874 138.233 98.6437 138.513 98.4817L139.075 98.1577L138.877 97.8148L138.397 97.3436L137.726 97.7306C136.963 98.1716 136.493 98.9417 137.042 99.8926L141.047 106.829L142.715 105.866ZM142.916 93.0511L141.656 90.8687L140.409 91.5887L141.669 93.7711L142.916 93.0511ZM156.536 97.8866L156.086 97.1072L155.685 97.2764C155.237 97.4727 155.094 97.3684 154.77 96.8072L152.322 92.5671C151.35 90.8836 150.017 90.4475 147.897 91.6715C146.635 92.4005 145.936 93.5311 145.636 94.3071C145.886 94.7034 146.16 95.1063 146.425 95.4936L147.438 94.9086C147.273 94.2976 147.34 93.4065 148.494 92.7405C149.46 92.1825 150.432 92.2451 151.044 93.3051L153.492 97.5452C153.816 98.1064 153.834 98.2827 153.44 98.5724L153.093 98.8352L153.543 99.6146L156.536 97.8866ZM161.283 95.354C162.717 94.526 163.117 93.5262 163.209 92.7868C163.472 93.1339 163.761 93.3827 164.014 93.5691L165.729 92.5791L165.225 91.7061C164.519 92.0308 164.362 91.9757 164.002 91.3521L161.104 86.3327C160.78 85.7715 160.762 85.5952 161.156 85.3054L161.503 85.0426L161.053 84.2632L158.06 85.9912L158.51 86.7706L158.911 86.6014C159.359 86.4052 159.502 86.5095 159.826 87.0707L162.463 91.6381C162.398 92.5694 161.9 93.5428 160.778 94.1908C159.702 94.8118 158.635 94.763 157.96 93.5938L154.693 87.9352L152.573 89.1592L153.032 89.9542L153.448 89.776C153.881 89.5888 153.99 89.6709 154.314 90.2321L156.753 94.4565C157.77 96.218 159.646 96.299 161.283 95.354ZM176.99 89.7774L176.54 88.9979L175.83 88.9922C174.158 88.149 172.613 86.5885 171.137 84.032C169.661 81.4755 169.082 79.3571 169.188 77.4879L169.538 76.8701L169.088 76.0907L167.841 76.8107C167.466 79.8331 168.613 82.8287 169.765 84.824C170.917 86.8193 172.938 89.3109 175.743 90.4974L176.99 89.7774ZM173.762 70.2746L169.163 72.9296L169.37 73.2881L169.904 73.8528L172.835 72.1608C172.167 73.1283 172.037 74.0554 172.991 75.7078L177.736 83.9631C178.222 84.8049 179.127 84.9683 179.954 84.4913C180.25 84.3203 180.425 84.1565 180.586 84.0017L180.415 83.3104L180.253 83.0298L179.692 83.3538C179.411 83.5158 179.174 83.4655 178.967 83.107L174.372 75.0765C173.173 72.9631 173.495 72.1534 174.374 71.3346L173.762 70.2746ZM186.645 80.7111C188.219 79.8021 189.138 78.0454 188.112 76.2683L185.718 72.1218C185.394 71.5606 185.376 71.3843 185.769 71.0945L186.117 70.8318L185.667 70.0524L182.674 71.7804L183.124 72.5598L183.525 72.3905C183.973 72.1943 184.116 72.2986 184.44 72.8598L186.798 76.944C187.5 78.1599 186.966 79.0709 185.921 79.6739C184.331 80.5919 182.888 79.9286 182.888 79.9286L179.306 73.7244L177.186 74.9484L177.645 75.7434L178.062 75.5651C178.494 75.3779 178.604 75.46 178.928 76.0212L181.835 81.0563C182.186 81.6642 182.18 81.8339 181.871 82.0541L181.53 82.2923L182.034 83.1652L183.827 82.1302C183.752 81.8202 183.598 81.4101 183.45 81.0803C183.45 81.0803 184.868 81.7371 186.645 80.7111ZM184.064 69.2943L182.804 67.1119L181.557 67.8319L182.817 70.0143L184.064 69.2943ZM193.67 76.5723C193.997 76.3833 194.297 76.1476 194.457 75.9928L194.271 75.3104L194.109 75.0298L193.501 75.3808C193.221 75.5428 193.058 75.5123 192.869 75.185L189.755 69.7914C189.413 69.199 189.372 69.0563 189.65 68.8541L189.997 68.5913L189.547 67.8119L186.866 69.3599L187.316 70.1393L187.717 69.9701C188.016 69.8393 188.134 69.937 188.476 70.5294L191.707 76.1256C192.166 76.9206 192.781 77.0853 193.67 76.5723ZM200.082 72.9533C202.202 71.7293 202.922 69.8797 201.86 68.0403L196.703 59.1081L196.328 59.3241L195.595 60.1423L200.581 68.7783C201.247 69.9318 200.777 71.0971 199.452 71.8621C198.127 72.6271 196.883 72.4518 196.217 71.2983L193.04 65.7956L190.919 67.0196L191.378 67.8146L191.795 67.6363C192.228 67.4491 192.337 67.5312 192.661 68.0924L194.938 72.0363C196 73.8757 197.962 74.1773 200.082 72.9533ZM192.878 64.4131L193.562 63.1866L194.873 63.2611L195.918 62.6581L195.798 61.7298L195.645 61.4648L194.553 62.0948L193.216 62.1187L192.873 62.3167L192.293 63.3998L191.935 63.6068C191.732 63.7238 191.316 63.652 191.091 63.2623L191.028 63.1532C190.776 62.7167 190.933 62.3766 191.682 61.9446L194.628 60.2436L194.508 59.3154L194.355 59.0504L191.05 60.9584C189.678 61.7504 189.295 62.8863 189.844 63.8372L189.979 64.071C190.42 64.8348 191.522 65.1961 192.332 64.7281L192.878 64.4131ZM208.977 67.8179C210.411 66.9899 210.811 65.9901 210.903 65.2507C211.166 65.5978 211.455 65.8466 211.708 66.033L213.423 65.043L212.919 64.17C212.213 64.4947 212.056 64.4395 211.696 63.816L208.798 58.7965C208.474 58.2353 208.456 58.059 208.849 57.7693L209.197 57.5065L208.747 56.7271L205.754 58.4551L206.204 59.2345L206.605 59.0653C207.053 58.869 207.196 58.9733 207.52 59.5345L210.157 64.1019C210.092 65.0332 209.594 66.0067 208.472 66.6547C207.396 67.2757 206.329 67.2268 205.654 66.0577L202.387 60.3991L200.266 61.6231L200.725 62.4181L201.142 62.2399C201.574 62.0526 201.684 62.1347 202.008 62.6959L204.447 66.9204C205.464 68.6819 207.34 68.7629 208.977 67.8179ZM218.604 65.7512C218.979 62.7288 217.832 59.7332 216.68 57.7379C215.528 55.7426 213.507 53.251 210.702 52.0646L209.455 52.7846L209.905 53.564L210.615 53.5698C212.287 54.4129 213.832 55.9734 215.308 58.5299C216.784 61.0864 217.363 63.2048 217.257 65.074L216.907 65.6918L217.357 66.4712L218.604 65.7512Z" fill="white"/>
<g id="Component 64">
<g id="Frame 756">
<rect x="236" y="23.0002" width="30" height="30" rx="15" fill="white"/>
<path id="1" d="M251.003 44.7162C253.973 44.7162 255.683 43.1682 255.683 41.0622C255.683 39.4602 254.711 38.4342 253.217 38.0202V37.8762C254.441 37.4262 255.305 36.4902 255.305 35.0322C255.305 33.1062 253.775 31.7202 251.003 31.7202C248.231 31.7202 246.701 33.1062 246.701 35.0322C246.701 36.4902 247.565 37.4262 248.789 37.8762V38.0202C247.295 38.4342 246.323 39.4602 246.323 41.0622C246.323 43.1682 248.033 44.7162 251.003 44.7162ZM251.003 37.1022C249.869 37.1022 249.239 36.5262 249.239 35.5902V35.3022C249.239 34.3662 249.869 33.7902 251.003 33.7902C252.137 33.7902 252.767 34.3662 252.767 35.3022V35.5902C252.767 36.5262 252.137 37.1022 251.003 37.1022ZM251.003 42.6462C249.815 42.6462 249.149 42.0342 249.149 41.0442V40.6842C249.149 39.6942 249.815 39.0822 251.003 39.0822C252.191 39.0822 252.857 39.6942 252.857 40.6842V41.0442C252.857 42.0342 252.191 42.6462 251.003 42.6462Z" fill="black"/>
</g>
</g>
<g id="Component 66">
<path id="Union_2" d="M264.511 13.3008L264.041 14.1829C264.516 14.4369 265.108 14.2679 265.378 13.8008L264.511 13.3008ZM237.022 60.9134L237.888 61.4134C238.158 60.9463 238.009 60.3495 237.551 60.0645L237.022 60.9134ZM237.015 60.9269L236.149 60.4269C235.872 60.9051 236.036 61.5167 236.515 61.7929L237.015 60.9269ZM451.392 184.698L450.892 185.564C451.37 185.84 451.982 185.676 452.258 185.198L451.392 184.698ZM451.416 184.657L451.864 183.763C451.391 183.526 450.814 183.698 450.55 184.157L451.416 184.657ZM478.873 137.099L478.007 136.599C477.742 137.058 477.881 137.644 478.324 137.935L478.873 137.099ZM478.897 137.058L479.763 137.558C479.895 137.329 479.931 137.056 479.863 136.8C479.794 136.543 479.626 136.325 479.397 136.192L478.897 137.058ZM477.493 136.248L476.993 137.114L477.493 136.248ZM264.519 13.2874L265.019 12.4214C264.541 12.1452 263.929 12.3091 263.653 12.7874L264.519 13.2874ZM264.982 12.4186C251.481 5.21 234.597 9.96516 226.886 23.3196L228.618 24.3196C235.787 11.9025 251.487 7.48065 264.041 14.1829L264.982 12.4186ZM226.886 23.3196C219.176 36.6741 223.5 53.6738 236.494 61.7624L237.551 60.0645C225.47 52.544 221.449 36.7368 228.618 24.3196L226.886 23.3196ZM236.156 60.4134L236.149 60.4269L237.881 61.4269L237.888 61.4134L236.156 60.4134ZM236.515 61.7929L450.892 185.564L451.892 183.832L237.515 60.0608L236.515 61.7929ZM452.258 185.198L452.282 185.157L450.55 184.157L450.526 184.198L452.258 185.198ZM486.694 173.32C479.637 185.542 464.315 190.018 451.864 183.763L450.967 185.551C464.358 192.278 480.836 187.465 488.426 174.32L486.694 173.32ZM478.324 137.935C489.966 145.59 493.751 161.097 486.694 173.32L488.426 174.32C496.015 161.174 491.945 144.497 479.423 136.264L478.324 137.935ZM479.739 137.599L479.763 137.558L478.031 136.558L478.007 136.599L479.739 137.599ZM479.397 136.192L477.993 135.382L476.993 137.114L478.397 137.924L479.397 136.192ZM477.993 135.382L265.824 12.8862L264.824 14.6183L476.993 137.114L477.993 135.382ZM265.824 12.8862L265.019 12.4214L264.019 14.1534L264.824 14.6183L265.824 12.8862ZM263.653 12.7874L263.645 12.8008L265.378 13.8008L265.385 13.7874L263.653 12.7874Z" fill="white"/>
</g>
<g id="Component 67">
<path id="Union_3" d="M469.302 133.417L469.23 134.414C469.196 134.412 469.162 134.408 469.129 134.402L469.302 133.417ZM463.725 133.011L463.753 134.011C463.719 134.011 463.685 134.011 463.652 134.008L463.725 133.011ZM463.575 133L462.575 133C462.575 132.722 462.69 132.457 462.894 132.268C463.097 132.079 463.37 131.982 463.647 132.003L463.575 133ZM463.575 133.016L464.575 133.016C464.575 133.555 464.147 133.997 463.608 134.015L463.575 133.016ZM463.575 187.994L463.608 186.994C464.147 187.012 464.575 187.455 464.575 187.994L463.575 187.994ZM463.575 188.009L463.649 189.007C463.372 189.027 463.099 188.932 462.895 188.742C462.691 188.553 462.575 188.287 462.575 188.009L463.575 188.009ZM463.721 187.998L463.647 187.001C463.681 186.999 463.715 186.998 463.749 186.999L463.721 187.998ZM469.408 187.574L469.231 186.589C469.265 186.583 469.299 186.579 469.334 186.576L469.408 187.574ZM729.453 168.145L730.453 168.145C730.453 168.668 730.05 169.103 729.528 169.142L729.453 168.145ZM729.453 168.137L728.453 168.137C728.453 167.602 728.875 167.161 729.41 167.138L729.453 168.137ZM729.453 152.367L729.41 153.366C728.875 153.343 728.453 152.903 728.453 152.367L729.453 152.367ZM729.453 152.361L729.526 151.364C730.049 151.402 730.453 151.837 730.453 152.361L729.453 152.361ZM464.505 132C466.2 132 467.861 132.148 469.476 132.432L469.129 134.402C467.628 134.138 466.083 134 464.505 134L464.505 132ZM463.697 132.011C463.965 132.004 464.234 132 464.505 132L464.505 134C464.253 134 464.002 134.004 463.753 134.011L463.697 132.011ZM463.647 132.003L463.797 132.014L463.652 134.008L463.502 133.997L463.647 132.003ZM462.575 133.016L462.575 133L464.575 133L464.575 133.016L462.575 133.016ZM436 160.505C436 145.084 448.244 132.524 463.542 132.016L463.608 134.015C449.385 134.487 438 146.167 438 160.505L436 160.505ZM463.542 188.993C448.244 188.485 436 175.925 436 160.505L438 160.505C438 174.843 449.385 186.522 463.608 186.994L463.542 188.993ZM462.575 188.009L462.575 187.994L464.575 187.994L464.575 188.009L462.575 188.009ZM463.796 188.996L463.649 189.007L463.5 187.012L463.647 187.001L463.796 188.996ZM464.505 189.009C464.233 189.009 463.963 189.006 463.693 188.998L463.749 186.999C464 187.006 464.252 187.009 464.505 187.009L464.505 189.009ZM469.585 188.558C467.936 188.855 466.238 189.009 464.505 189.009L464.505 187.009C466.119 187.009 467.698 186.865 469.231 186.589L469.585 188.558ZM729.528 169.142L469.483 188.571L469.334 186.576L729.379 167.148L729.528 169.142ZM730.453 168.137L730.453 168.145L728.453 168.145L728.453 168.137L730.453 168.137ZM738 160.252C738 165.033 734.228 168.933 729.496 169.137L729.41 167.138C733.076 166.98 736 163.957 736 160.252L738 160.252ZM729.496 151.368C734.228 151.572 738 155.471 738 160.252L736 160.252C736 156.547 733.076 153.524 729.41 153.366L729.496 151.368ZM730.453 152.361L730.453 152.367L728.453 152.367L728.453 152.361L730.453 152.361ZM469.375 132.42L729.526 151.364L729.381 153.359L469.23 134.414L469.375 132.42Z" fill="white"/>
</g>
<path id="&#224;&#184;&#162;&#224;&#184;&#177;&#224;&#184;&#135;&#224;&#185;&#132;&#224;&#184;&#161;&#224;&#185;&#136;&#224;&#184;&#156;&#224;&#185;&#136;&#224;&#184;&#178;&#224;&#184;&#153;/&#224;&#185;&#128;&#224;&#184;&#155;&#224;&#185;&#135;&#224;&#184;&#153;&#224;&#184;&#163;&#224;&#185;&#136;&#224;&#184;&#178;&#224;&#184;&#135;&#224;&#184;&#129;&#224;&#184;&#178;&#224;&#184;&#163;&#224;&#185;&#128;&#224;&#184;&#135;&#224;&#184;&#180;&#224;&#184;&#153;" d="M279.571 61.5693C281.691 62.7933 283.637 62.4827 284.699 60.6433L286.967 56.715C287.291 56.1538 287.434 56.0495 287.882 56.2457L288.283 56.415L288.733 55.6355L285.74 53.9075L285.29 54.687L285.638 54.9497C286.031 55.2395 286.013 55.4158 285.689 55.977L283.421 59.9053C282.71 61.1368 281.526 61.2431 280.201 60.4781C278.876 59.7131 278.126 58.6359 278.837 57.4044C279.368 56.4847 280.278 56.2409 281.182 56.7629L282.164 57.3299L282.734 56.7028L282.932 56.3599L281.732 55.6669C280.765 55.1089 280.668 54.4498 281.1 53.7016L281.649 52.7507L283.332 53.7227L283.854 52.8185L280.939 51.1355L279.904 52.9282C279.229 54.0974 279.625 54.8872 280.201 55.5105L280.192 55.5261C279.317 55.3123 278.225 55.5128 277.532 56.7132C276.524 58.4591 277.451 60.3453 279.571 61.5693ZM290.154 54.71L290.817 54.2821L291.078 53.83L287.056 51.508C286.791 51.355 286.748 51.1427 286.901 50.8777L287.207 50.3477L286.427 49.8977L285.838 49.7656L285.577 50.2177C285.136 50.9815 285.213 51.857 286.055 52.343L290.154 54.71ZM289.133 66.8819C290.442 67.6379 291.83 67.3583 292.631 65.9709L296.132 59.907L293.606 58.449L293.084 59.3532L293.848 59.7942C294.269 60.0372 294.242 60.229 293.918 60.7902L291.425 65.1082C290.912 65.9968 290.13 66.1273 289.381 65.6953L288.727 65.3173L290.056 58.4779L288.685 57.6859L288.253 58.4341C288.461 58.7208 288.462 59.116 288.405 59.3948L287.153 65.7389L289.133 66.8819ZM304.398 58.0285L299.799 55.3735L299.592 55.732L299.37 56.4768L302.301 58.1688C301.129 58.0742 300.261 58.4254 299.307 60.0777L294.531 68.315C294.045 69.1568 294.356 70.0222 295.182 70.4992C295.478 70.6702 295.708 70.7405 295.922 70.8017L296.435 70.3083L296.597 70.0277L296.036 69.7037C295.756 69.5417 295.681 69.3114 295.888 68.9529L300.545 60.9584C301.775 58.863 302.638 58.7374 303.786 59.0885L304.398 58.0285ZM301.801 74.4041C303.376 75.3131 305.357 75.2304 306.383 73.4533L308.777 69.3068C309.101 68.7456 309.244 68.6413 309.692 68.8375L310.093 69.0067L310.543 68.2273L307.55 66.4993L307.1 67.2787L307.447 67.5415C307.841 67.8313 307.822 68.0076 307.498 68.5688L305.14 72.6529C304.438 73.8688 303.382 73.8619 302.338 73.2589C300.748 72.3409 300.601 70.7595 300.601 70.7595L304.183 64.5553L302.063 63.3313L301.604 64.1263L301.967 64.3981C302.345 64.6789 302.329 64.815 302.005 65.3762L299.098 70.4112C298.747 71.0192 298.597 71.0989 298.251 70.9411L297.875 70.7653L297.371 71.6382L299.163 72.6732C299.394 72.4532 299.673 72.1151 299.884 71.8213C299.884 71.8213 300.024 73.3781 301.801 74.4041ZM310.398 66.4601L311.658 64.2777L310.411 63.5577L309.151 65.7401L310.398 66.4601ZM309.17 78.4506L313.087 76.3471L313.223 80.7906L314.891 81.7536L318.752 75.0662C319.076 74.505 319.22 74.4007 319.667 74.5969L320.069 74.7662L320.519 73.9868L317.526 72.2588L317.076 73.0382L317.423 73.3009C317.817 73.5907 317.798 73.767 317.474 74.3282L314.558 79.3789L314.433 79.3069L314.326 75.3166L313.36 74.7586L309.85 76.6609L309.726 76.5889L312.741 71.3667C312.948 71.0082 313.184 70.9579 313.465 71.1199L314.026 71.4439L314.224 71.1009L314.392 70.4498L313.722 70.0628C312.958 69.6218 312.056 69.5999 311.507 70.5508L307.502 77.4876L309.17 78.4506ZM320.369 72.2169L321.629 70.0345L320.382 69.3145L319.122 71.4969L320.369 72.2169ZM322.992 86.4305L323.442 85.6511L323.095 85.3883C322.701 85.0985 322.719 84.9222 323.043 84.361L325.491 80.121C326.463 78.4374 326.175 77.0653 324.055 75.8413C322.792 75.1123 321.464 75.0729 320.642 75.201C320.423 75.6153 320.211 76.0541 320.009 76.4774L321.022 77.0624C321.468 76.6134 322.274 76.2263 323.427 76.8923C324.394 77.4503 324.825 78.323 324.213 79.383L321.765 83.623C321.441 84.1842 321.298 84.2885 320.85 84.0923L320.449 83.9231L319.999 84.7025L322.992 86.4305ZM327.558 89.2749C328.993 90.1029 330.058 89.9491 330.745 89.6597C330.576 90.0608 330.505 90.4356 330.47 90.748L332.185 91.738L332.689 90.8651C332.054 90.4157 332.024 90.2526 332.384 89.6291L335.282 84.6096C335.606 84.0484 335.749 83.9441 336.197 84.1403L336.598 84.3096L337.048 83.5301L334.055 81.8021L333.605 82.5816L333.952 82.8443C334.346 83.1341 334.328 83.3104 334.004 83.8716L331.367 88.439C330.528 88.8483 329.436 88.9037 328.313 88.2557C327.238 87.6347 326.746 86.6859 327.421 85.5167L330.688 79.8581L328.568 78.6341L328.109 79.4291L328.472 79.7009C328.85 79.9817 328.834 80.1178 328.51 80.679L326.071 84.9035C325.054 86.6649 325.922 88.3299 327.558 89.2749ZM333.783 95.363L344.839 84.4946L343.592 83.7746L332.536 94.643L333.783 95.363ZM342.161 97.6223C342.488 97.8113 342.842 97.9535 343.056 98.0147L343.554 97.5124L343.716 97.2318L343.108 96.8808C342.828 96.7188 342.773 96.5623 342.962 96.2349L346.076 90.8413C346.418 90.2489 346.521 90.1422 346.835 90.282L347.236 90.4513L347.686 89.6719L345.005 88.1239L344.555 88.9033L344.902 89.166C345.164 89.3592 345.139 89.5109 344.797 90.1033L341.566 95.6996C341.107 96.4946 341.272 97.1093 342.161 97.6223ZM348.501 101.366C350.621 102.59 352.582 102.288 353.644 100.449L358.801 91.5168L358.427 91.3008L357.352 91.0749L352.366 99.7109C351.7 100.864 350.456 101.04 349.131 100.275C347.806 99.5098 347.335 98.3445 348.001 97.1909L351.178 91.6882L349.058 90.4642L348.599 91.2592L348.962 91.531C349.34 91.8118 349.324 91.9479 349 92.5091L346.723 96.4529C345.661 98.2924 346.381 100.142 348.501 101.366ZM352.295 90.8571L353.699 90.8366L354.29 92.0091L355.335 92.6121L356.078 92.0439L356.231 91.7789L355.14 91.1489L354.451 90.0027L354.108 89.8047L352.88 89.8439L352.521 89.6369C352.319 89.5199 352.173 89.1241 352.398 88.7343L352.461 88.6252C352.713 88.1887 353.086 88.1547 353.834 88.5867L356.781 90.2877L357.524 89.7194L357.677 89.4544L354.373 87.5464C353.001 86.7544 351.825 86.9903 351.276 87.9412L351.141 88.175C350.7 88.9389 350.939 90.0741 351.749 90.5421L352.295 90.8571ZM357.396 106.501C358.83 107.329 359.896 107.176 360.582 106.886C360.413 107.287 360.342 107.662 360.307 107.975L362.022 108.965L362.526 108.092C361.892 107.642 361.861 107.479 362.221 106.856L365.119 101.836C365.443 101.275 365.586 101.171 366.034 101.367L366.435 101.536L366.885 100.757L363.892 99.0287L363.442 99.8081L363.79 100.071C364.184 100.361 364.165 100.537 363.841 101.098L361.204 105.666C360.365 106.075 359.273 106.13 358.15 105.482C357.075 104.861 356.583 103.912 357.258 102.743L360.525 97.0847L358.405 95.8607L357.946 96.6557L358.309 96.9275C358.687 97.2082 358.671 97.3444 358.347 97.9055L355.908 102.13C354.891 103.892 355.759 105.556 357.396 106.501ZM366.213 111.592C368.13 112.699 369.905 112.685 370.913 110.939C371.678 109.614 370.958 108.304 369.802 107.283C367.818 105.535 367.95 104.946 368.364 104.229C368.796 103.481 369.6 103.384 370.738 104.041C371.44 104.446 371.931 105 372.131 105.697L373.066 106.237C373.066 106.237 373.342 105.939 373.801 105.144C373.366 104.602 372.325 103.669 371.328 103.093C369.613 102.103 367.931 102.171 367.094 103.621C366.347 104.915 366.835 106.194 368.158 107.394C370.071 109.122 369.948 109.55 369.462 110.392C369.039 111.125 368.147 111.337 366.9 110.617C366.043 110.122 365.512 109.566 365.39 108.768L364.439 108.219C364.093 108.747 364.024 108.832 363.675 109.399C363.993 109.749 364.56 110.638 366.213 111.592ZM375.02 103.77L376.28 101.587L375.033 100.867L373.773 103.05L375.02 103.77ZM377.293 117.781L377.743 117.002L377.395 116.739C377.002 116.449 377.02 116.273 377.344 115.712L379.792 111.472C380.764 109.788 380.476 108.416 378.356 107.192C377.093 106.463 375.765 106.423 374.942 106.552C374.724 106.966 374.512 107.405 374.309 107.828L375.323 108.413C375.769 107.964 376.574 107.577 377.728 108.243C378.694 108.801 379.126 109.674 378.514 110.734L376.066 114.974C375.742 115.535 375.599 115.639 375.151 115.443L374.75 115.274L374.3 116.053L377.293 117.781ZM382.542 120.812C383.851 121.568 385.239 121.288 386.04 119.901L389.541 113.837L387.015 112.379L386.493 113.283L387.257 113.724C387.678 113.967 387.65 114.159 387.326 114.72L384.833 119.038C384.32 119.926 383.538 120.057 382.79 119.625L382.136 119.247L383.465 112.408L382.094 111.616L381.662 112.364C381.87 112.651 381.871 113.046 381.814 113.325L380.562 119.669L382.542 120.812ZM389.315 124.722L389.774 123.927L389.427 123.665C389.033 123.375 389.052 123.199 389.376 122.637L390.618 120.486C391.023 119.785 391.406 119.445 392.089 119.631L392.431 119.039L391.568 117.688C392.245 117.165 393.452 117.342 394.559 117.981C395.884 118.746 396.354 119.911 395.688 121.065L393.429 124.977C393.105 125.539 392.962 125.643 392.514 125.447L392.113 125.277L391.654 126.072L394.647 127.8L395.106 127.005L394.758 126.743C394.365 126.453 394.383 126.277 394.707 125.715L396.966 121.803C398.028 119.963 397.309 118.114 395.189 116.89C393.411 115.864 391.601 115.795 390.512 116.746L390.161 117.354L391.228 118.781C390.32 118.589 389.781 118.984 389.34 119.748L388.098 121.899C387.774 122.461 387.63 122.565 387.182 122.369L386.781 122.199L386.322 122.994L389.315 124.722ZM401.969 132.028L402.419 131.249L402.072 130.986C401.678 130.696 401.697 130.52 402.021 129.959L404.469 125.719C405.441 124.035 405.152 122.663 403.032 121.439C401.77 120.71 400.441 120.671 399.619 120.799C399.401 121.213 399.189 121.652 398.986 122.075L399.999 122.66C400.446 122.211 401.251 121.824 402.405 122.49C403.371 123.048 403.803 123.921 403.191 124.981L400.743 129.221C400.419 129.782 400.275 129.886 399.827 129.69L399.426 129.521L398.976 130.3L401.969 132.028ZM406.006 134.567C407.923 135.674 409.698 135.659 410.706 133.913C411.471 132.588 410.751 131.279 409.595 130.258C407.611 128.51 407.743 127.921 408.157 127.204C408.589 126.456 409.394 126.359 410.532 127.016C411.233 127.421 411.724 127.974 411.924 128.672L412.859 129.212C412.859 129.212 413.135 128.914 413.594 128.119C413.159 127.577 412.118 126.643 411.121 126.067C409.406 125.077 407.725 125.146 406.888 126.595C406.141 127.889 406.628 129.169 407.951 130.369C409.864 132.097 409.741 132.525 409.255 133.366C408.832 134.099 407.94 134.312 406.693 133.592C405.836 133.097 405.305 132.541 405.183 131.743L404.233 131.194C403.886 131.722 403.817 131.806 403.468 132.374C403.786 132.724 404.354 133.613 406.006 134.567ZM412.963 138.5C413.291 138.689 413.645 138.831 413.859 138.893L414.357 138.39L414.519 138.11L413.911 137.759C413.63 137.597 413.575 137.44 413.764 137.113L416.878 131.719C417.22 131.127 417.323 131.02 417.638 131.16L418.039 131.329L418.489 130.55L415.807 129.002L415.357 129.781L415.705 130.044C415.967 130.237 415.942 130.389 415.6 130.981L412.369 136.577C411.91 137.372 412.075 137.987 412.963 138.5ZM419.534 142.169C420.843 142.925 422.231 142.645 423.032 141.258L426.533 135.194L424.008 133.736L423.486 134.64L424.249 135.081C424.67 135.324 424.643 135.516 424.319 136.077L421.826 140.395C421.313 141.284 420.531 141.414 419.782 140.982L419.128 140.604L420.458 133.765L419.086 132.973L418.654 133.721C418.862 134.008 418.863 134.403 418.806 134.682L417.554 141.026L419.534 142.169ZM427.263 133.87L427.875 132.81L421.561 129.165L420.872 129.639L420.638 130.045L427.263 133.87ZM426.95 146.659C428.384 147.487 429.45 147.333 430.137 147.043C429.967 147.445 429.896 147.819 429.862 148.132L431.576 149.122L432.08 148.249C431.446 147.799 431.415 147.636 431.775 147.013L434.673 141.993C434.997 141.432 435.141 141.328 435.589 141.524L435.99 141.693L436.44 140.914L433.447 139.186L432.997 139.965L433.344 140.228C433.738 140.518 433.719 140.694 433.395 141.255L430.758 145.823C429.919 146.232 428.827 146.287 427.705 145.639C426.629 145.018 426.138 144.07 426.813 142.901L430.08 137.242L427.96 136.018L427.501 136.813L427.863 137.085C428.242 137.365 428.225 137.502 427.901 138.063L425.462 142.287C424.445 144.049 425.313 145.714 426.95 146.659Z" fill="#FF8058"/>
</g>
</svg>
