<svg width="737" height="198" viewBox="0 0 737 198" fill="none" xmlns="http://www.w3.org/2000/svg">
<g id="04">
<g id="Component 11">
<path id="Union" d="M263.512 13.3008L263.041 14.183C263.516 14.437 264.108 14.2679 264.378 13.8008L263.512 13.3008ZM236.022 60.9135L236.888 61.4135C237.158 60.9464 237.009 60.3496 236.551 60.0646L236.022 60.9135ZM236.015 60.9269L235.149 60.4269C234.872 60.9052 235.036 61.5168 235.515 61.7929L236.015 60.9269ZM450.392 184.698L449.892 185.564C450.37 185.84 450.982 185.676 451.258 185.198L450.392 184.698ZM450.416 184.657L450.865 183.764C450.391 183.526 449.814 183.698 449.55 184.157L450.416 184.657ZM477.873 137.099L477.007 136.599C476.742 137.058 476.881 137.644 477.324 137.935L477.873 137.099ZM477.897 137.058L478.763 137.558C479.039 137.08 478.875 136.469 478.397 136.192L477.897 137.058ZM263.519 13.2875L264.019 12.4214C263.541 12.1453 262.929 12.3092 262.653 12.7875L263.519 13.2875ZM263.983 12.4187C250.481 5.21006 233.597 9.96522 225.886 23.3197L227.618 24.3197C234.787 11.9026 250.487 7.48071 263.041 14.183L263.983 12.4187ZM225.886 23.3197C218.176 36.6742 222.5 53.6738 235.494 61.7625L236.551 60.0646C224.47 52.5441 220.449 36.7368 227.618 24.3197L225.886 23.3197ZM235.156 60.4135L235.149 60.4269L236.881 61.4269L236.888 61.4135L235.156 60.4135ZM235.515 61.7929L449.892 185.564L450.892 183.832L236.515 60.0609L235.515 61.7929ZM451.258 185.198L451.282 185.157L449.55 184.157L449.526 184.198L451.258 185.198ZM485.694 173.32C478.637 185.542 463.315 190.018 450.865 183.764L449.967 185.551C463.359 192.278 479.837 187.465 487.426 174.32L485.694 173.32ZM477.324 137.935C488.966 145.59 492.751 161.097 485.694 173.32L487.426 174.32C495.015 161.174 490.945 144.497 478.423 136.264L477.324 137.935ZM478.739 137.599L478.763 137.558L477.031 136.558L477.007 136.599L478.739 137.599ZM478.397 136.192L476.993 135.382L475.993 137.114L477.397 137.924L478.397 136.192ZM476.993 135.382L264.824 12.8863L263.824 14.6183L475.993 137.114L476.993 135.382ZM264.824 12.8863L264.019 12.4214L263.019 14.1535L263.824 14.6183L264.824 12.8863ZM262.653 12.7875L262.646 12.8008L264.378 13.8008L264.385 13.7875L262.653 12.7875Z" fill="white"/>
</g>
<g id="Component 65">
<path id="Union_2" d="M468.302 133.417L468.23 134.414C468.196 134.412 468.162 134.408 468.129 134.402L468.302 133.417ZM462.725 133.011L462.753 134.01C462.719 134.011 462.685 134.011 462.652 134.008L462.725 133.011ZM462.575 133L461.575 133C461.575 132.722 461.69 132.457 461.894 132.268C462.097 132.078 462.37 131.982 462.647 132.003L462.575 133ZM462.575 133.015L463.575 133.015C463.575 133.555 463.147 133.997 462.608 134.015L462.575 133.015ZM462.575 187.994L462.608 186.994C463.147 187.012 463.575 187.454 463.575 187.994L462.575 187.994ZM462.575 188.009L462.649 189.006C462.372 189.027 462.099 188.931 461.895 188.742C461.691 188.553 461.575 188.287 461.575 188.009L462.575 188.009ZM462.721 187.998L462.647 187.001C462.681 186.999 462.715 186.998 462.749 186.999L462.721 187.998ZM468.408 187.573L468.231 186.589C468.265 186.583 468.299 186.579 468.334 186.576L468.408 187.573ZM728.453 168.145L729.453 168.145C729.453 168.668 729.05 169.103 728.528 169.142L728.453 168.145ZM728.453 168.137L727.453 168.137C727.453 167.602 727.875 167.161 728.41 167.138L728.453 168.137ZM728.453 152.367L728.41 153.366C727.875 153.343 727.453 152.903 727.453 152.367L728.453 152.367ZM728.453 152.361L728.526 151.364C729.049 151.402 729.453 151.837 729.453 152.361L728.453 152.361ZM463.505 132C465.2 132 466.861 132.148 468.476 132.432L468.129 134.402C466.628 134.138 465.083 134 463.505 134L463.505 132ZM462.697 132.011C462.965 132.004 463.234 132 463.505 132L463.505 134C463.253 134 463.002 134.004 462.753 134.01L462.697 132.011ZM462.647 132.003L462.797 132.014L462.652 134.008L462.502 133.997L462.647 132.003ZM461.575 133.015L461.575 133L463.575 133L463.575 133.015L461.575 133.015ZM435 160.505C435 145.084 447.244 132.524 462.542 132.016L462.608 134.015C448.385 134.487 437 146.167 437 160.505L435 160.505ZM462.542 188.993C447.244 188.485 435 175.925 435 160.505L437 160.505C437 174.843 448.385 186.522 462.608 186.994L462.542 188.993ZM461.575 188.009L461.575 187.994L463.575 187.994L463.575 188.009L461.575 188.009ZM462.796 188.996L462.649 189.006L462.5 187.012L462.647 187.001L462.796 188.996ZM463.505 189.009C463.233 189.009 462.963 189.005 462.693 188.998L462.749 186.999C463 187.006 463.252 187.009 463.505 187.009L463.505 189.009ZM468.585 188.558C466.936 188.854 465.238 189.009 463.505 189.009L463.505 187.009C465.119 187.009 466.698 186.865 468.231 186.589L468.585 188.558ZM728.528 169.142L468.483 188.571L468.334 186.576L728.379 167.148L728.528 169.142ZM729.453 168.137L729.453 168.145L727.453 168.145L727.453 168.137L729.453 168.137ZM737 160.252C737 165.033 733.228 168.932 728.496 169.136L728.41 167.138C732.076 166.98 735 163.957 735 160.252L737 160.252ZM728.496 151.368C733.228 151.572 737 155.471 737 160.252L735 160.252C735 156.547 732.076 153.524 728.41 153.366L728.496 151.368ZM729.453 152.361L729.453 152.367L727.453 152.367L727.453 152.361L729.453 152.361ZM468.375 132.42L728.526 151.364L728.381 153.359L468.23 134.414L468.375 132.42Z" fill="white"/>
</g>
<g id="Component 12">
<path id="Union_3" d="M232.041 16.5126L232.603 17.3401C232.631 17.3211 232.658 17.3007 232.684 17.2789L232.041 16.5126ZM236.669 13.372L237.145 14.2516C237.174 14.2357 237.203 14.2182 237.23 14.1994L236.669 13.372ZM236.793 13.2876L237.659 12.7876C237.52 12.547 237.287 12.3751 237.017 12.313C236.746 12.2508 236.461 12.3042 236.232 12.4602L236.793 13.2876ZM236.801 13.3011L235.935 13.8011C236.205 14.2682 236.796 14.4372 237.272 14.1832L236.801 13.3011ZM264.29 60.9138L263.762 60.0648C263.304 60.3498 263.154 60.9466 263.424 61.4138L264.29 60.9138ZM264.298 60.9271L264.732 61.828C264.982 61.7072 265.171 61.4876 265.253 61.2217C265.335 60.9559 265.303 60.668 265.164 60.4271L264.298 60.9271ZM264.166 60.9908L263.731 60.09C263.701 60.1048 263.671 60.1212 263.641 60.1391L264.166 60.9908ZM259.028 63.4663L258.689 62.5254C258.657 62.5371 258.625 62.5504 258.594 62.5654L259.028 63.4663ZM24.1082 176.663L23.2421 177.163C23.5038 177.616 24.0707 177.791 24.5423 177.564L24.1082 176.663ZM24.1045 176.657L24.9705 176.157C24.7027 175.693 24.1171 175.522 23.6422 175.77L24.1045 176.657ZM16.2193 162.999L16.7561 163.843C17.2079 163.555 17.3531 162.963 17.0853 162.499L16.2193 162.999ZM16.2164 162.994L15.6549 162.167C15.2212 162.461 15.0884 163.04 15.3504 163.494L16.2164 162.994ZM235.488 12.8865C234.02 13.734 232.656 14.6928 231.399 15.7463L232.684 17.2789C233.852 16.2997 235.121 15.4077 236.488 14.6186L235.488 12.8865ZM236.193 12.4924C235.957 12.6201 235.722 12.7515 235.488 12.8865L236.488 14.6186C236.706 14.4928 236.925 14.3705 237.145 14.2516L236.193 12.4924ZM236.232 12.4602L236.107 12.5446L237.23 14.1994L237.355 14.1151L236.232 12.4602ZM237.667 12.8011L237.659 12.7876L235.927 13.7876L235.935 13.8011L237.667 12.8011ZM274.426 23.3199C266.716 9.96548 249.832 5.21032 236.33 12.4189L237.272 14.1832C249.825 7.48097 265.525 11.9028 272.694 24.3199L274.426 23.3199ZM264.819 61.7627C277.812 53.6741 282.136 36.6744 274.426 23.3199L272.694 24.3199C279.863 36.7371 275.843 52.5443 263.762 60.0648L264.819 61.7627ZM265.164 60.4271L265.156 60.4138L263.424 61.4138L263.432 61.4271L265.164 60.4271ZM264.6 61.8917L264.732 61.828L263.864 60.0262L263.731 60.09L264.6 61.8917ZM263.993 62.258C264.228 62.1223 264.46 61.9838 264.69 61.8425L263.641 60.1391C263.428 60.2707 263.211 60.3996 262.993 60.5259L263.993 62.258ZM259.367 64.4072C260.944 63.8395 262.492 63.1246 263.993 62.258L262.993 60.5259C261.595 61.3329 260.155 61.9978 258.689 62.5254L259.367 64.4072ZM24.5423 177.564L259.462 64.3671L258.594 62.5654L23.6741 175.762L24.5423 177.564ZM23.2384 177.157L23.2421 177.163L24.9742 176.163L24.9705 176.157L23.2384 177.157ZM12.7601 174.101C15.1506 178.242 20.3673 179.733 24.5667 177.544L23.6422 175.77C20.3885 177.466 16.3448 176.31 14.4922 173.101L12.7601 174.101ZM15.6824 162.156C11.687 164.698 10.3696 169.961 12.7601 174.101L14.4922 173.101C12.6395 169.893 13.6604 165.813 16.7561 163.843L15.6824 162.156ZM15.3504 163.494L15.3532 163.499L17.0853 162.499L17.0825 162.494L15.3504 163.494ZM231.48 15.6852L15.6549 162.167L16.778 163.822L232.603 17.3401L231.48 15.6852Z" fill="white"/>
</g>
<path id="&#224;&#184;&#162;&#224;&#184;&#177;&#224;&#184;&#135;&#224;&#185;&#132;&#224;&#184;&#161;&#224;&#185;&#136;&#224;&#184;&#156;&#224;&#185;&#136;&#224;&#184;&#178;&#224;&#184;&#153;" d="M290.571 68.5693C292.691 69.7933 294.637 69.4827 295.699 67.6433L297.967 63.715C298.291 63.1538 298.434 63.0495 298.882 63.2457L299.283 63.415L299.733 62.6355L296.74 60.9075L296.29 61.687L296.637 61.9497C297.031 62.2395 297.013 62.4158 296.689 62.977L294.421 66.9053C293.71 68.1368 292.526 68.2431 291.201 67.4781C289.876 66.7131 289.126 65.6359 289.837 64.4044C290.368 63.4847 291.278 63.2409 292.182 63.7629L293.164 64.3299L293.734 63.7028L293.932 63.3599L292.731 62.6669C291.765 62.1089 291.667 61.4498 292.099 60.7016L292.648 59.7507L294.332 60.7227L294.854 59.8185L291.939 58.1355L290.904 59.9282C290.229 61.0974 290.625 61.8872 291.201 62.5105L291.192 62.5261C290.317 62.3123 289.225 62.5128 288.532 63.7132C287.524 65.4591 288.451 67.3453 290.571 68.5693ZM301.154 61.71L301.817 61.2821L302.078 60.83L298.056 58.508C297.791 58.355 297.747 58.1427 297.9 57.8777L298.206 57.3477L297.427 56.8977L296.838 56.7656L296.577 57.2177C296.136 57.9815 296.213 58.857 297.054 59.343L301.154 61.71ZM300.132 73.8819C301.442 74.6379 302.83 74.3583 303.631 72.9709L307.132 66.907L304.606 65.449L304.084 66.3532L304.848 66.7942C305.269 67.0372 305.241 67.229 304.917 67.7902L302.424 72.1082C301.911 72.9968 301.129 73.1273 300.381 72.6953L299.726 72.3173L301.056 65.4779L299.684 64.6859L299.252 65.4341C299.461 65.7208 299.462 66.116 299.404 66.3948L298.153 72.7389L300.132 73.8819ZM315.398 65.0285L310.799 62.3735L310.592 62.732L310.37 63.4768L313.301 65.1688C312.129 65.0742 311.261 65.4254 310.307 67.0777L305.531 75.315C305.045 76.1568 305.356 77.0222 306.182 77.4992C306.478 77.6702 306.708 77.7405 306.922 77.8017L307.435 77.3083L307.597 77.0277L307.036 76.7037C306.755 76.5417 306.681 76.3114 306.888 75.9529L311.545 67.9584C312.775 65.863 313.638 65.7374 314.786 66.0885L315.398 65.0285ZM312.801 81.4041C314.376 82.3131 316.356 82.2304 317.382 80.4533L319.776 76.3068C320.1 75.7456 320.244 75.6413 320.692 75.8375L321.093 76.0067L321.543 75.2273L318.55 73.4993L318.1 74.2787L318.447 74.5415C318.841 74.8313 318.822 75.0076 318.498 75.5688L316.14 79.6529C315.438 80.8688 314.382 80.8619 313.338 80.2589C311.748 79.3409 311.601 77.7595 311.601 77.7595L315.183 71.5553L313.063 70.3313L312.604 71.1263L312.966 71.3981C313.345 71.6789 313.328 71.815 313.004 72.3762L310.097 77.4112C309.746 78.0192 309.596 78.0989 309.251 77.9411L308.875 77.7653L308.371 78.6382L310.163 79.6732C310.394 79.4532 310.673 79.1151 310.884 78.8213C310.884 78.8213 311.024 80.3781 312.801 81.4041ZM321.398 73.4601L322.658 71.2777L321.411 70.5577L320.151 72.7401L321.398 73.4601ZM320.17 85.4506L324.087 83.3471L324.223 87.7906L325.891 88.7536L329.752 82.0662C330.076 81.505 330.219 81.4007 330.667 81.5969L331.068 81.7662L331.518 80.9868L328.525 79.2588L328.075 80.0382L328.423 80.3009C328.816 80.5907 328.798 80.767 328.474 81.3282L325.558 86.3789L325.433 86.3069L325.326 82.3166L324.359 81.7586L320.85 83.6609L320.725 83.5889L323.74 78.3667C323.947 78.0082 324.184 77.9579 324.465 78.1199L325.026 78.4439L325.224 78.1009L325.392 77.4498L324.722 77.0628C323.958 76.6218 323.056 76.5999 322.507 77.5508L318.502 84.4876L320.17 85.4506ZM331.369 79.2169L332.629 77.0345L331.382 76.3145L330.122 78.4969L331.369 79.2169ZM333.992 93.4305L334.442 92.6511L334.094 92.3883C333.701 92.0985 333.719 91.9222 334.043 91.361L336.491 87.121C337.463 85.4374 337.175 84.0653 335.055 82.8413C333.792 82.1123 332.464 82.0729 331.641 82.201C331.423 82.6153 331.211 83.0541 331.008 83.4774L332.022 84.0624C332.468 83.6134 333.273 83.2263 334.427 83.8923C335.393 84.4503 335.825 85.323 335.213 86.383L332.765 90.623C332.441 91.1842 332.298 91.2885 331.85 91.0923L331.449 90.9231L330.999 91.7025L333.992 93.4305ZM338.558 96.2749C339.992 97.1029 341.058 96.9491 341.745 96.6597C341.576 97.0608 341.505 97.4356 341.47 97.748L343.184 98.738L343.688 97.8651C343.054 97.4157 343.024 97.2526 343.384 96.6291L346.282 91.6096C346.606 91.0484 346.749 90.9441 347.197 91.1403L347.598 91.3096L348.048 90.5301L345.055 88.8021L344.605 89.5816L344.952 89.8443C345.346 90.1341 345.327 90.3104 345.003 90.8716L342.366 95.439C341.527 95.8483 340.435 95.9037 339.313 95.2557C338.237 94.6347 337.746 93.6859 338.421 92.5167L341.688 86.8581L339.568 85.6341L339.109 86.4291L339.472 86.7009C339.85 86.9817 339.834 87.1178 339.51 87.679L337.071 91.9035C336.054 93.6649 336.921 95.3299 338.558 96.2749Z" fill="#FF8058"/>
<path id="&#224;&#184;&#132;&#224;&#184;&#163;&#224;&#184;&#154;" d="M192.612 74.4372C192.164 74.6335 192.021 74.5292 191.688 73.9524L189.519 70.1956C188.457 68.3562 186.483 67.8537 184.285 69.1227C182.087 70.3917 181.536 72.3522 182.598 74.1916L184.785 77.9796C185.118 78.5564 185.134 78.6925 184.755 78.9732L184.393 79.245L184.843 80.0244L186.963 78.8004L186.423 77.8651C185.352 76.0101 185.795 74.6529 186.527 74.2299C186.745 74.1039 186.937 74.0763 187.072 74.165L188.007 73.625L187.5 72.5667C187.207 72.5278 186.726 72.7019 186.32 72.9359C185.603 73.3499 184.991 74.1608 184.983 75.371L183.876 73.4536C183.12 72.1442 183.512 71.0239 184.915 70.2139C186.318 69.4039 187.485 69.6242 188.241 70.9336L190.41 74.6904C190.743 75.2672 190.761 75.4435 190.367 75.7332L190.02 75.996L190.47 76.7754L193.463 75.0474L193.013 74.268L192.612 74.4372ZM197.691 72.8141C199.609 71.7071 200.484 70.1627 199.476 68.4168C198.711 67.0917 197.217 67.0604 195.755 67.5514C193.249 68.3954 192.805 67.9865 192.391 67.2695C191.959 66.5212 192.277 65.7763 193.415 65.1193C194.117 64.7143 194.842 64.566 195.546 64.7415L196.481 64.2015C196.481 64.2015 196.361 63.8135 195.902 63.0185C195.215 63.1243 193.886 63.5589 192.888 64.1349C191.174 65.1249 190.392 66.6153 191.229 68.065C191.976 69.3588 193.328 69.5761 195.029 69.0305C197.481 68.2381 197.791 68.5582 198.277 69.4C198.7 70.1327 198.438 71.0113 197.191 71.7313C196.334 72.2263 195.586 72.4082 194.835 72.1146L193.884 72.6636C194.168 73.2272 194.206 73.3297 194.524 73.9155C194.985 73.8152 196.039 73.7681 197.691 72.8141ZM206.39 67.7921C208.666 66.4781 209.217 64.5176 208.155 62.6782L205.968 58.8902C205.644 58.329 205.626 58.1527 206.02 57.8629L206.367 57.6002L205.926 56.8363L202.933 58.5643L203.374 59.3282L203.775 59.1589C204.223 58.9627 204.366 59.067 204.69 59.6282L206.877 63.4162C207.543 64.5697 207.241 65.8459 205.76 66.7009C204.279 67.5559 203.022 67.1797 202.356 66.0262L199.269 60.6793L197.149 61.9033L197.608 62.6983L198.025 62.5201C198.457 62.3329 198.567 62.415 198.891 62.9762L201.078 66.7642C202.14 68.6036 204.114 69.1061 206.39 67.7921Z" fill="white"/>
<g id="Component 64">
<g id="Frame 756">
<rect x="234" y="23" width="30" height="30" rx="15" fill="white"/>
<path id="1" d="M249.669 44.5H252.243V42.088H253.827V40H252.243V31.936H249.039L244.143 39.784V42.088H249.669V44.5ZM246.303 40L249.489 34.726H249.669V40H246.303Z" fill="black"/>
</g>
</g>
</g>
</svg>
