<svg width="949" height="198" viewBox="0 0 949 198" fill="none" xmlns="http://www.w3.org/2000/svg">
<g id="17X">
<g id="Component 54">
<path id="Union" d="M498.512 13.3008L498.041 14.183C498.517 14.437 499.108 14.2679 499.378 13.8008L498.512 13.3008ZM471.023 60.9135L471.889 61.4135C472.158 60.9464 472.009 60.3496 471.551 60.0646L471.023 60.9135ZM471.015 60.9269L470.149 60.4269C470.016 60.6566 469.98 60.9296 470.049 61.1857C470.118 61.4419 470.285 61.6603 470.515 61.7929L471.015 60.9269ZM685.392 184.698L684.892 185.564C685.371 185.84 685.982 185.676 686.258 185.198L685.392 184.698ZM685.416 184.657L685.865 183.764C685.391 183.526 684.815 183.698 684.55 184.157L685.416 184.657ZM712.873 137.099L712.007 136.599C711.743 137.058 711.881 137.644 712.324 137.935L712.873 137.099ZM712.897 137.058L713.763 137.558C714.039 137.08 713.875 136.469 713.397 136.192L712.897 137.058ZM711.493 136.248L711.993 135.382L711.493 136.248ZM499.325 13.7523L498.825 14.6183L499.325 13.7523ZM498.519 13.2875L499.019 12.4214C498.541 12.1453 497.93 12.3092 497.653 12.7875L498.519 13.2875ZM498.983 12.4187C485.481 5.21006 468.597 9.96522 460.887 23.3197L462.619 24.3197C469.788 11.9026 485.487 7.48071 498.041 14.183L498.983 12.4187ZM460.887 23.3197C453.176 36.6742 457.5 53.6738 470.494 61.7625L471.551 60.0646C459.47 52.5441 455.45 36.7368 462.619 24.3197L460.887 23.3197ZM470.157 60.4135L470.149 60.4269L471.881 61.4269L471.889 61.4135L470.157 60.4135ZM470.515 61.7929L684.892 185.564L685.892 183.832L471.515 60.0609L470.515 61.7929ZM686.258 185.198L686.282 185.157L684.55 184.157L684.526 184.198L686.258 185.198ZM720.694 173.32C713.638 185.542 698.315 190.018 685.865 183.764L684.967 185.551C698.359 192.278 714.837 187.465 722.426 174.32L720.694 173.32ZM712.324 137.935C723.966 145.59 727.751 161.097 720.694 173.32L722.426 174.32C730.016 161.174 725.945 144.497 713.423 136.264L712.324 137.935ZM713.739 137.599L713.763 137.558L712.031 136.558L712.007 136.599L713.739 137.599ZM713.397 136.192L711.993 135.382L710.993 137.114L712.397 137.924L713.397 136.192ZM711.993 135.382L499.825 12.8863L498.825 14.6183L710.993 137.114L711.993 135.382ZM499.825 12.8863L499.019 12.4214L498.019 14.1535L498.825 14.6183L499.825 12.8863ZM497.653 12.7875L497.646 12.8008L499.378 13.8008L499.385 13.7875L497.653 12.7875Z" fill="white"/>
</g>
<g id="Component 55">
<path id="Union_2" d="M499.29 60.9138L498.762 60.0648C498.304 60.3499 498.155 60.9467 498.424 61.4138L499.29 60.9138ZM471.801 13.3011L470.935 13.8011C471.205 14.2682 471.796 14.4372 472.272 14.1832L471.801 13.3011ZM471.793 13.2877L472.659 12.7877C472.527 12.558 472.308 12.3904 472.052 12.3217C471.796 12.2531 471.523 12.289 471.293 12.4216L471.793 13.2877ZM257.416 137.059L256.916 136.193C256.686 136.325 256.518 136.544 256.45 136.8C256.381 137.056 256.417 137.329 256.55 137.559L257.416 137.059ZM257.439 137.099L257.989 137.935C258.431 137.644 258.57 137.058 258.305 136.599L257.439 137.099ZM284.897 184.657L285.763 184.157C285.498 183.699 284.921 183.526 284.448 183.764L284.897 184.657ZM284.92 184.698L284.054 185.198C284.187 185.428 284.405 185.595 284.662 185.664C284.918 185.733 285.191 185.697 285.42 185.564L284.92 184.698ZM286.325 183.887L285.825 183.021L286.325 183.887ZM498.493 61.392L498.993 62.258L498.493 61.392ZM499.298 60.9271L499.798 61.7931C500.028 61.6605 500.195 61.4421 500.264 61.1859C500.333 60.9298 500.297 60.6568 500.164 60.4271L499.298 60.9271ZM499.819 61.7627C512.812 53.6741 517.136 36.6744 509.426 23.32L507.694 24.32C514.863 36.7371 510.843 52.5444 498.762 60.0648L499.819 61.7627ZM509.426 23.32C501.716 9.96548 484.832 5.21032 471.33 12.4189L472.272 14.1832C484.825 7.48096 500.525 11.9028 507.694 24.32L509.426 23.32ZM472.667 12.8011L472.659 12.7877L470.927 13.7877L470.935 13.8011L472.667 12.8011ZM471.293 12.4216L256.916 136.193L257.916 137.925L472.293 14.1537L471.293 12.4216ZM256.55 137.559L256.573 137.599L258.305 136.599L258.282 136.559L256.55 137.559ZM249.619 173.32C242.562 161.098 246.347 145.59 257.989 137.935L256.89 136.264C244.368 144.498 240.297 161.175 247.887 174.32L249.619 173.32ZM284.448 183.764C271.997 190.018 256.675 185.542 249.619 173.32L247.887 174.32C255.476 187.465 271.954 192.278 285.346 185.551L284.448 183.764ZM284.031 185.157L284.054 185.198L285.786 184.198L285.763 184.157L284.031 185.157ZM285.42 185.564L286.825 184.753L285.825 183.021L284.42 183.832L285.42 185.564ZM286.825 184.753L498.993 62.258L497.993 60.5259L285.825 183.021L286.825 184.753ZM498.993 62.258L499.798 61.7931L498.798 60.0611L497.993 60.5259L498.993 62.258ZM500.164 60.4271L500.156 60.4138L498.424 61.4138L498.432 61.4271L500.164 60.4271Z" fill="white"/>
</g>
<path id="&#224;&#184;&#130;&#224;&#184;&#177;&#224;&#184;&#148;&#224;&#184;&#151;&#224;&#184;&#177;&#224;&#185;&#137;&#224;&#184;&#135;&#224;&#184;&#171;&#224;&#184;&#161;&#224;&#184;&#148;" d="M525.228 68.3713C527.177 69.4963 529.196 69.1659 530.096 67.6071L532.58 63.3047C532.715 63.0709 532.847 63.0223 533.03 63.0656L533.492 63.1659L534.032 62.2305L530.68 60.2955L530.14 61.2309L530.458 61.5806C530.587 61.7173 530.611 61.8559 530.476 62.0897L528.073 66.2518C527.623 67.0312 526.89 67.1485 526.173 66.7345C525.518 66.3565 525.285 65.6812 525.735 64.9018L527.283 62.2206C527.985 61.0047 528.33 60.7673 529.025 61.0026L529.745 59.7555L526.394 57.8205L525.674 59.0676L527.248 59.9766C526.384 59.8522 525.619 60.2418 525.088 61.1615L523.549 63.8271C522.649 65.3859 523.342 67.2823 525.228 68.3713ZM534.968 61.0248L535.72 60.441L536.089 59.8019L532.067 57.4799C531.802 57.3269 531.759 57.1146 531.912 56.8496L532.218 56.3196L531.127 55.6896L530.364 55.4986L530.013 56.1066C529.392 57.1822 529.714 57.9918 530.868 58.6578L534.968 61.0248ZM539.454 74.9635C539.325 74.8268 539.301 74.6883 539.445 74.4388L541.47 70.9314C542.649 68.8893 541.816 66.5168 539.493 65.1758C537.171 63.8348 534.699 64.2993 533.52 66.3414L531.495 69.8488C531.351 70.0983 531.219 70.1468 531.036 70.1035L530.575 70.0033L530.05 70.9476L531.952 72.0456C534.384 73.4496 536.485 72.8338 537.565 70.9632C537.907 70.3708 538.118 69.6819 538.04 69.2417L536.2 68.1797L535.258 69.6312C535.576 69.8358 535.596 70.0546 535.443 70.3196C535.002 71.0835 534.319 71.4377 533.483 71.2665L535.679 67.4629C536.309 66.3717 537.388 66.122 538.557 66.797C539.726 67.472 540.05 68.5317 539.42 69.6229L537.341 73.2238C537.206 73.4577 537.074 73.5062 536.891 73.463L536.429 73.3627L535.874 74.289L539.216 76.2396L539.772 75.3133L539.454 74.9635ZM543.435 78.6754L543.975 77.7401L543.657 77.3904C543.513 77.2446 543.514 77.0995 543.64 76.8813L546.214 72.423C546.885 72.1245 547.754 72.0235 548.502 72.4555C549.422 72.9865 549.601 73.7553 549.097 74.6283L546.757 78.6813C546.631 78.8995 546.506 78.9726 546.308 78.9204L545.846 78.8201L545.306 79.7554L548.657 81.6904L549.197 80.7551L548.88 80.4054C548.735 80.2596 548.736 80.1145 548.862 79.8963L551.301 75.6718C552.336 73.8791 551.723 72.1327 550.148 71.2237C548.855 70.4767 547.561 70.6652 546.946 70.975L547.348 69.9185L544.776 68.4335L544.191 69.4468L544.568 69.8727C544.713 70.0184 544.712 70.1635 544.577 70.3974L541.535 75.6663C541.409 75.8845 541.284 75.9576 541.085 75.9054L540.624 75.8051L540.084 76.7404L543.435 78.6754ZM554.377 72.2309L555.13 71.647L555.499 71.0079L551.477 68.6859C551.212 68.5329 551.168 68.3206 551.321 68.0556L551.627 67.5256L550.536 66.8956L549.773 66.7047L549.422 67.3126C548.801 68.3882 549.124 69.1979 550.277 69.8639L554.377 72.2309ZM555.978 67.19C556.293 66.6444 556.182 66.0813 555.496 65.6853L553.672 64.6323L552.883 65.2785L552.64 65.6994L553.809 66.3744C553.949 66.4554 554.007 66.5717 553.881 66.7899L553.413 67.6005L556.842 69.5805L557.631 68.9344L557.874 68.5135L555.879 67.3615L555.978 67.19ZM553.918 84.7276C555.851 85.8436 557.329 85.4081 558.31 83.709L561.541 78.1127L558.345 76.2677L557.697 77.3901L558.445 77.8221C558.695 77.9661 558.725 78.1292 558.563 78.4098L556.241 82.4316C555.728 83.3202 555.13 83.3488 554.381 82.9168L554.085 82.7458L555.465 76.6836L553.314 75.4416L552.702 76.5016C552.9 76.699 552.948 76.976 552.888 77.295L551.626 83.4046L553.918 84.7276ZM566.979 90.8344C566.85 90.6976 566.826 90.5591 566.961 90.3252L567.942 88.6261C568.788 87.1608 568.399 85.8552 567.374 84.9308L568.965 84.6231C569.439 84.5225 569.9 84.6228 570.355 84.8436L571.048 83.6433L568.398 82.1133C568.241 82.3135 568.019 82.3728 567.706 82.483L563.404 83.8861L565.438 80.3631L562.632 78.7431L562.047 79.7563L562.425 80.1822C562.554 80.319 562.614 80.3952 562.434 80.7069L559.392 85.9758C559.257 86.2097 559.125 86.2582 558.942 86.215L558.48 86.1147L557.94 87.05L561.292 88.985L561.832 88.0497L561.514 87.7C561.385 87.5632 561.361 87.4247 561.496 87.1908L562.216 85.9438L564.934 85.4133C565.021 85.4427 565.099 85.4877 565.176 85.5327C566.096 86.0637 566.189 86.8032 565.712 87.6293L564.857 89.1102C564.722 89.3441 564.59 89.3926 564.407 89.3494L563.945 89.2491L563.405 90.1844L566.757 92.1194L567.297 91.1841L566.979 90.8344ZM572.583 95.7119C573.971 96.5129 575.938 96.381 576.982 94.5728L579.421 90.3483C579.556 90.1145 579.688 90.0659 579.871 90.1092L580.333 90.2095L580.873 89.2741L577.521 87.3391L576.981 88.2745L577.299 88.6242C577.428 88.7609 577.452 88.8995 577.317 89.1333L575.004 93.1395C574.527 93.9657 573.762 94.2101 572.998 93.7691C572.328 93.3821 571.826 92.7391 571.682 92.0531L575.183 85.9891L572.299 84.3241L571.759 85.2595L572.233 85.6992C572.371 85.8203 572.404 85.9433 572.242 86.2239L569.272 91.3681C569.047 91.7578 568.961 91.8333 568.692 91.7607L568.192 91.6178L567.607 92.631L570.226 94.143C570.417 93.9206 570.61 93.658 570.794 93.411C570.794 93.411 570.915 94.7489 572.583 95.7119ZM586.296 102.007C586.167 101.871 586.143 101.732 586.287 101.483L588.312 97.9754C589.491 95.9333 588.657 93.5607 586.335 92.2197C584.012 90.8787 581.541 91.3433 580.362 93.3854L578.337 96.8928C578.193 97.1422 578.061 97.1907 577.878 97.1475L577.416 97.0472L576.892 97.9915L578.793 99.0895C581.225 100.494 583.327 99.8777 584.407 98.0071C584.749 97.4147 584.959 96.7258 584.881 96.2856L583.042 95.2236L582.1 96.6751C582.418 96.8797 582.437 97.0986 582.284 97.3636C581.843 98.1274 581.161 98.4816 580.324 98.3104L582.52 94.5068C583.15 93.4157 584.23 93.1659 585.399 93.8409C586.568 94.5159 586.891 95.5757 586.261 96.6668L584.182 100.268C584.047 100.502 583.915 100.55 583.732 100.507L583.271 100.407L582.715 101.333L586.058 103.284L586.613 102.357L586.296 102.007Z" fill="#FF8058"/>
<path id="&#224;&#184;&#130;&#224;&#184;&#177;&#224;&#184;&#148;&#224;&#184;&#154;&#224;&#184;&#178;&#224;&#184;&#135;&#224;&#184;&#136;&#224;&#184;&#184;&#224;&#184;&#148;" d="M397.69 93.5113C399.654 92.3773 400.056 90.8774 398.922 88.9133L396.654 84.985C396.33 84.4238 396.311 84.2475 396.705 83.9577L397.052 83.695L396.602 82.9155L393.609 84.6435L394.059 85.423L394.46 85.2537C394.908 85.0575 395.052 85.1618 395.376 85.723L397.644 89.6513C398.355 90.8828 398.167 91.7811 397.06 92.4201C395.953 93.0591 395.081 92.7728 394.37 91.5413L392.867 88.938C392.093 87.5974 392.353 86.8237 392.947 86.3768L392.362 85.3635L389.354 87.1005L389.939 88.1138L391.513 87.2048C391.117 87.9947 391.004 88.6628 391.652 89.7851L393.092 92.2793C394.226 94.2434 395.726 94.6453 397.69 93.5113ZM396.521 81.2162L396.482 80.4283L396.221 79.9762L392.199 82.2982C391.934 82.4512 391.729 82.3829 391.576 82.1179L391.27 81.5879L390.49 82.0379L390.081 82.4818L390.342 82.9339C390.783 83.6977 391.58 84.0692 392.422 83.5832L396.521 81.2162ZM410.025 85.0592C409.577 85.2554 409.434 85.1511 409.11 84.5899L406.986 80.9111C405.924 79.0716 403.827 78.5362 401.629 79.8052C399.431 81.0742 398.847 83.1576 399.909 84.9971L402.141 88.863C402.366 89.2527 402.36 89.4224 402.169 89.5952L401.962 89.777L402.421 90.572L403.684 89.843C405.741 88.655 406.522 86.4791 405.352 84.4526C405.1 84.0162 404.654 83.5671 404.278 83.4929L402.984 84.2399L403.668 85.4246C404.005 85.2512 404.204 85.3441 404.357 85.6091C404.96 86.6535 404.617 87.787 403.653 88.5303L401.187 84.2591C400.431 82.9496 400.856 81.7064 402.259 80.8964C403.662 80.0864 404.952 80.3396 405.708 81.6491L407.832 85.3279C408.156 85.8891 408.174 86.0654 407.781 86.3552L407.433 86.618L407.892 87.413L410.885 85.685L410.426 84.89L410.025 85.0592ZM416.014 82.9317C418.29 81.6177 418.842 79.6573 417.78 77.8178L415.593 74.0298C415.269 73.4686 415.25 73.2923 415.644 73.0026L415.991 72.7398L415.55 71.976L412.557 73.704L412.998 74.4678L413.399 74.2986C413.847 74.1023 413.99 74.2066 414.314 74.7678L416.501 78.5558C417.167 79.7094 416.865 80.9856 415.384 81.8406C413.903 82.6956 412.647 82.3194 411.981 81.1658L408.894 75.819L406.774 77.043L407.233 77.838L407.649 77.6598C408.082 77.4725 408.192 77.5546 408.516 78.1158L410.703 81.9038C411.765 83.7433 413.738 84.2457 416.014 82.9317ZM427.563 76.0564L427.113 75.277L426.711 75.4462C426.264 75.6424 426.12 75.5381 425.796 74.9769L423.348 70.7369C422.376 69.0533 421.044 68.6172 418.924 69.8412C417.661 70.5702 416.963 71.7008 416.663 72.4769C416.912 72.8732 417.186 73.276 417.451 73.6633L418.465 73.0783C418.299 72.4673 418.366 71.5762 419.52 70.9102C420.487 70.3522 421.458 70.4149 422.07 71.4749L424.518 75.7149C424.842 76.2761 424.861 76.4524 424.467 76.7422L424.12 77.005L424.57 77.7844L427.563 76.0564ZM432.812 73.0258C434.121 72.2698 434.573 70.9282 433.772 69.5409L430.271 63.477L427.745 64.935L428.267 65.8391L429.031 65.3981C429.452 65.1551 429.605 65.275 429.929 65.8362L432.422 70.1542C432.935 71.0427 432.657 71.7852 431.908 72.2172L431.254 72.5952L425.995 68.0238L424.624 68.8158L425.056 69.564C425.408 69.5268 425.751 69.7239 425.964 69.9128L430.832 74.1688L432.812 73.0258ZM435.184 60.4117C433.765 61.2307 432.867 62.5185 432.576 63.3101C432.767 63.6777 433.174 64.2742 433.349 64.5056L434.353 63.905C434.188 63.294 434.331 62.3177 435.787 61.4561C437.228 60.6035 438.522 60.9371 439.278 62.2466L440.448 64.2731C441.294 65.7384 441.114 66.9024 439.82 67.6494L439.726 67.7034L437.34 64.758L435.282 65.946L435.768 66.7878L436.22 66.5268C436.532 66.3468 436.729 66.3995 437.034 66.7844L439.133 69.3761L440.63 68.5121C442.36 67.5131 442.905 65.5772 441.753 63.5818L440.556 61.5086C439.413 59.5288 437.366 59.1517 435.184 60.4117ZM444.878 71.193L443.24 68.3559L440.933 69.6879L441.137 70.4015L441.317 70.7132L442.533 70.0112L443.631 71.913L444.878 71.193ZM452.543 60.5113C452.096 60.7076 451.952 60.6033 451.628 60.0421L449.504 56.3632C448.442 54.5238 446.346 53.9884 444.148 55.2574C441.95 56.5264 441.365 58.6098 442.427 60.4492L444.659 64.3152C444.884 64.7049 444.878 64.8746 444.687 65.0473L444.48 65.2291L444.939 66.0241L446.202 65.2951C448.259 64.1071 449.04 61.9313 447.87 59.9048C447.618 59.4683 447.172 59.0193 446.796 58.9451L445.502 59.6921L446.186 60.8768C446.523 60.7034 446.722 60.7963 446.875 61.0613C447.478 62.1057 447.135 63.2392 446.171 63.9825L443.705 59.7112C442.949 58.4018 443.375 57.1585 444.778 56.3485C446.181 55.5385 447.47 55.7918 448.226 57.1012L450.35 60.7801C450.674 61.3413 450.693 61.5176 450.299 61.8073L449.952 62.0701L450.411 62.8651L453.404 61.1371L452.945 60.3421L452.543 60.5113Z" fill="#FF8058"/>
<g id="Component 58">
<path id="Union_3" d="M268.698 132.418L268.77 133.415C268.804 133.412 268.837 133.408 268.871 133.402L268.698 132.418ZM274.275 132.011L274.247 133.011C274.281 133.012 274.314 133.011 274.348 133.009L274.275 132.011ZM274.425 132L275.425 132C275.425 131.723 275.31 131.457 275.106 131.268C274.903 131.079 274.63 130.983 274.352 131.003L274.425 132ZM274.425 132.016L273.425 132.016C273.425 132.555 273.853 132.997 274.392 133.015L274.425 132.016ZM274.425 186.994L274.392 185.995C273.853 186.013 273.425 186.455 273.425 186.994L274.425 186.994ZM274.425 187.01L274.351 188.007C274.628 188.028 274.901 187.932 275.105 187.743C275.309 187.554 275.425 187.288 275.425 187.01L274.425 187.01ZM274.279 186.999L274.353 186.002C274.319 185.999 274.285 185.998 274.251 185.999L274.279 186.999ZM268.592 186.574L268.769 185.59C268.735 185.584 268.701 185.579 268.666 185.577L268.592 186.574ZM8.54679 167.145L7.54679 167.145C7.54679 167.669 7.95035 168.103 8.47229 168.142L8.54679 167.145ZM8.54679 167.138L9.54679 167.138C9.54679 166.602 9.12488 166.162 8.58985 166.139L8.54679 167.138ZM8.54679 151.367L8.58985 152.367C9.12488 152.344 9.54679 151.903 9.54679 151.367L8.54679 151.367ZM8.54679 151.362L8.47415 150.364C7.95145 150.403 7.54679 150.838 7.54679 151.362L8.54679 151.362ZM273.495 131.001C271.8 131.001 270.139 131.149 268.524 131.433L268.871 133.402C270.372 133.138 271.917 133.001 273.495 133.001L273.495 131.001ZM274.303 131.012C274.035 131.004 273.766 131.001 273.495 131.001L273.495 133.001C273.747 133.001 273.998 133.004 274.247 133.011L274.303 131.012ZM274.352 131.003L274.203 131.014L274.348 133.009L274.498 132.998L274.352 131.003ZM275.425 132.016L275.425 132L273.425 132L273.425 132.016L275.425 132.016ZM302 159.505C302 144.085 289.756 131.525 274.458 131.016L274.392 133.015C288.615 133.488 300 145.167 300 159.505L302 159.505ZM274.458 187.994C289.756 187.486 302 174.926 302 159.505L300 159.505C300 173.843 288.615 185.522 274.392 185.995L274.458 187.994ZM275.425 187.01L275.425 186.994L273.425 186.994L273.425 187.01L275.425 187.01ZM274.204 187.996L274.351 188.007L274.5 186.013L274.353 186.002L274.204 187.996ZM273.495 188.01C273.767 188.01 274.037 188.006 274.307 187.998L274.251 185.999C274 186.006 273.748 186.01 273.495 186.01L273.495 188.01ZM268.415 187.558C270.064 187.855 271.762 188.01 273.495 188.01L273.495 186.01C271.881 186.01 270.302 185.866 268.769 185.59L268.415 187.558ZM8.47229 168.142L268.517 187.571L268.666 185.577L8.62128 166.148L8.47229 168.142ZM7.54679 167.138L7.54679 167.145L9.54679 167.145L9.54679 167.138L7.54679 167.138ZM-2.8091e-05 159.253C-2.85089e-05 164.034 3.77246 167.933 8.50372 168.137L8.58985 166.139C4.92401 165.981 1.99997 162.958 1.99997 159.253L-2.8091e-05 159.253ZM8.50373 150.368C3.77246 150.572 -2.7673e-05 154.472 -2.8091e-05 159.253L1.99997 159.253C1.99997 155.547 4.92401 152.525 8.58985 152.367L8.50373 150.368ZM7.54679 151.362L7.54679 151.367L9.54679 151.367L9.54679 151.362L7.54679 151.362ZM268.625 131.42L8.47415 150.364L8.61942 152.359L268.77 133.415L268.625 131.42Z" fill="white"/>
</g>
<g id="Component 61">
<path id="Union_4" d="M925.29 60.9138L924.762 60.0648C924.304 60.3498 924.155 60.9467 924.424 61.4138L925.29 60.9138ZM897.801 13.3011L896.935 13.8011C897.205 14.2682 897.796 14.4372 898.272 14.1832L897.801 13.3011ZM897.793 13.2877L898.659 12.7877C898.383 12.3094 897.772 12.1455 897.293 12.4216L897.793 13.2877ZM683.416 137.059L682.916 136.193C682.686 136.325 682.518 136.544 682.45 136.8C682.381 137.056 682.417 137.329 682.55 137.559L683.416 137.059ZM683.439 137.099L683.989 137.935C684.431 137.644 684.57 137.058 684.305 136.599L683.439 137.099ZM710.897 184.657L711.763 184.157C711.498 183.699 710.921 183.526 710.448 183.764L710.897 184.657ZM710.92 184.698L710.054 185.198C710.187 185.428 710.405 185.595 710.662 185.664C710.918 185.733 711.191 185.697 711.42 185.564L710.92 184.698ZM712.325 183.887L711.825 183.021L712.325 183.887ZM924.493 61.392L924.993 62.258L924.493 61.392ZM925.298 60.9271L925.798 61.7931C926.276 61.517 926.44 60.9054 926.164 60.4271L925.298 60.9271ZM925.819 61.7627C938.812 53.6741 943.136 36.6744 935.426 23.3199L933.694 24.3199C940.863 36.7371 936.843 52.5444 924.762 60.0648L925.819 61.7627ZM935.426 23.3199C927.716 9.96547 910.832 5.21031 897.33 12.4189L898.272 14.1832C910.825 7.48096 926.525 11.9028 933.694 24.3199L935.426 23.3199ZM898.667 12.8011L898.659 12.7877L896.927 13.7877L896.935 13.8011L898.667 12.8011ZM897.293 12.4216L682.916 136.193L683.916 137.925L898.293 14.1537L897.293 12.4216ZM682.55 137.559L682.573 137.599L684.305 136.599L684.282 136.559L682.55 137.559ZM675.619 173.32C668.562 161.097 672.347 145.59 683.989 137.935L682.89 136.264C670.368 144.498 666.297 161.175 673.887 174.32L675.619 173.32ZM710.448 183.764C697.997 190.018 682.675 185.542 675.619 173.32L673.887 174.32C681.476 187.465 697.954 192.278 711.346 185.551L710.448 183.764ZM710.031 185.157L710.054 185.198L711.786 184.198L711.763 184.157L710.031 185.157ZM711.42 185.564L712.825 184.753L711.825 183.021L710.42 183.832L711.42 185.564ZM712.825 184.753L924.993 62.258L923.993 60.5259L711.825 183.021L712.825 184.753ZM924.993 62.258L925.798 61.7931L924.798 60.0611L923.993 60.5259L924.993 62.258ZM926.164 60.4271L926.156 60.4138L924.424 61.4138L924.432 61.4271L926.164 60.4271Z" fill="white"/>
</g>
<path id="&#224;&#184;&#136;&#224;&#184;&#184;&#224;&#184;&#148;&#224;&#184;&#151;&#224;&#184;&#181;&#224;&#185;&#136;&#224;&#184;&#130;&#224;&#184;&#177;&#224;&#184;&#148;&#224;&#184;&#149;&#224;&#184;&#129;&#224;&#185;&#132;&#224;&#184;&#155;" d="M154.936 155.688C153.384 155.688 152.296 156.248 151.608 157.304L152.456 158.12C152.952 157.304 153.768 156.84 154.92 156.84C156.584 156.84 157.512 157.832 157.512 159.576V161.112C157.512 162.952 156.696 163.848 155.544 163.848H155.336L154.616 161.096C154.328 160.008 154.008 159.688 153.192 159.688H152.168V160.808H153.256L154.392 165H155.544C157.656 165 158.888 163.464 158.888 160.312C158.888 157.32 157.704 155.688 154.936 155.688ZM157.646 169.272H158.734V167.384C158.734 166.6 158.302 166.168 157.534 166.168H156.75V167.128H157.63L157.646 169.272ZM164.07 165H164.87V163.832H164.15C162.822 163.832 162.022 163.144 162.022 161.4V159.688C162.022 157.864 162.918 156.84 164.39 156.84C165.83 156.84 166.598 157.736 166.598 159.32V165H167.91V159.144C167.91 156.952 166.694 155.688 164.422 155.688C161.958 155.688 160.646 157.272 160.646 160.488C160.646 163.816 161.718 165 164.07 165ZM170.674 165H171.986V158.632C171.986 157.432 173.122 156.872 174.274 156.872C175.618 156.872 176.354 157.72 176.354 159.352V165H177.666V159.144C177.666 156.952 176.466 155.688 174.626 155.688C173.09 155.688 172.386 156.52 172.018 157.384H171.954V155.88H170.674V165ZM171.228 154.6H176.252C177.132 154.6 177.58 154.168 177.58 153.304V152.184H176.364V153.544H171.228V154.6ZM176.49 151.56H177.578V149.384H176.49V151.56ZM183.432 165.192C185.448 165.192 186.648 164.04 186.648 162.056V155.88H185.336V161.864C185.336 163.304 184.6 164.04 183.432 164.04C182.248 164.04 181.512 163.448 181.512 161.96C181.512 159.624 182.952 159.656 182.952 157.64V157.448C182.952 156.488 182.52 155.88 181.08 155.88H180.072V157H181.672V157.784C181.672 159.512 180.168 159.192 180.168 162.008C180.168 163.976 181.384 165.192 183.432 165.192ZM185.262 154.6H188.462V153.544H184.67V152.52H183.454V152.984C183.454 154.12 183.982 154.6 185.262 154.6ZM192.304 165H193.104V163.832H192.384C191.056 163.832 190.256 163.144 190.256 161.4V159.688C190.256 157.864 191.152 156.84 192.624 156.84C194.064 156.84 194.832 157.736 194.832 159.32V165H196.144V159.144C196.144 156.952 194.928 155.688 192.656 155.688C190.192 155.688 188.88 157.272 188.88 160.488C188.88 163.816 189.952 165 192.304 165ZM201.804 165H202.78V163.832H201.884C200.396 163.832 199.756 163.144 199.756 161.4V159.56C199.756 158.008 200.252 156.952 201.084 156.952L202.3 158.232H202.332L203.548 156.952C204.316 157.032 204.508 157.416 204.508 159.016V165H205.82V158.104C205.82 156.28 204.7 155.688 203.356 155.688L202.348 156.872H202.3L201.276 155.688C199.42 155.688 198.38 157.24 198.38 160.296C198.38 163.592 199.388 165 201.804 165ZM211.939 155.688C209.827 155.688 208.291 156.856 208.291 158.936V159.72H210.291V159.784C209.459 159.976 208.627 160.664 208.627 162.168V165H209.939V161.816C209.939 160.424 210.499 159.8 211.683 159.752V158.792H209.587C209.731 157.416 210.579 156.84 211.939 156.84C213.459 156.84 214.323 157.704 214.323 159.224V165H215.635V159.144C215.635 157.032 214.403 155.688 211.939 155.688ZM220.153 165H221.753V163.88H220.105V155.688C220.105 153.416 221.033 151.704 222.617 151.656V150.536H217.513V151.624H221.289V151.688C219.465 152.312 218.793 153.528 218.793 156.056V163.64C218.793 164.44 219.273 165 220.153 165ZM226.8 165.192C229.056 165.192 230.256 163.928 230.256 161.736V152.52H228.944V161.544C228.944 163.192 228.208 164.04 226.8 164.04C225.376 164.04 224.64 163.192 224.64 161.544V155.88H223.328V161.736C223.328 163.928 224.528 165.192 226.8 165.192Z" fill="white"/>
</g>
</svg>
