<svg width="305" height="305" viewBox="0 0 305 305" fill="none" xmlns="http://www.w3.org/2000/svg">
<mask id="mask0_180_37279" style="mask-type:alpha" maskUnits="userSpaceOnUse" x="3" y="3" width="300" height="300">
<circle cx="153" cy="153" r="150" fill="white"/>
</mask>
<g mask="url(#mask0_180_37279)">
<path d="M-134.547 -57.8183L-134.254 -58.4243C-134.274 -58.4343 -134.295 -58.4431 -134.317 -58.4509L-134.547 -57.8183ZM-137.936 -59.4589L-137.583 -60.0325C-137.602 -60.0443 -137.622 -60.0551 -137.642 -60.0649L-137.936 -59.4589ZM-138.028 -59.5035L-138.611 -59.8401C-138.704 -59.6781 -138.726 -59.4845 -138.671 -59.3057C-138.617 -59.1268 -138.49 -58.9789 -138.321 -58.8974L-138.028 -59.5035ZM-138.023 -59.5126L-137.439 -59.1759C-137.258 -59.4904 -137.358 -59.8923 -137.667 -60.0842L-138.023 -59.5126ZM-119.513 -91.5718L-119.83 -90.9778C-119.51 -90.8067 -119.112 -90.9206 -118.93 -91.2351L-119.513 -91.5718ZM-119.508 -91.5807L-119.129 -92.1371C-119.284 -92.2426 -119.475 -92.2788 -119.658 -92.2371C-119.841 -92.1954 -119.998 -92.0796 -120.091 -91.9174L-119.508 -91.5807ZM-119.427 -91.5254L-119.806 -90.969C-119.787 -90.956 -119.767 -90.944 -119.747 -90.9331L-119.427 -91.5254ZM-116.252 -89.3616L-116.686 -88.8474C-116.669 -88.8324 -116.65 -88.8183 -116.631 -88.8052L-116.252 -89.3616ZM28.8442 9.51515L29.4274 9.85182C29.6036 9.54662 29.5146 9.15718 29.2234 8.95873L28.8442 9.51515ZM28.8418 9.51934L28.2587 9.18268C28.0784 9.49499 28.1761 9.89392 28.4804 10.0875L28.8418 9.51934ZM23.5324 18.7155L23.8437 18.1184C23.524 17.9517 23.1296 18.0665 22.9493 18.3788L23.5324 18.7155ZM23.5305 18.7188L23.237 19.3249C23.5547 19.4787 23.9371 19.3611 24.1136 19.0555L23.5305 18.7188ZM-137.822 -58.6071C-136.834 -58.0366 -135.815 -57.5637 -134.778 -57.1857L-134.317 -58.4509C-135.281 -58.8023 -136.228 -59.2421 -137.148 -59.7734L-137.822 -58.6071ZM-138.289 -58.8854C-138.135 -58.7908 -137.979 -58.698 -137.822 -58.6071L-137.148 -59.7734C-137.295 -59.858 -137.44 -59.9444 -137.583 -60.0325L-138.289 -58.8854ZM-138.321 -58.8974L-138.229 -58.8529L-137.642 -60.0649L-137.734 -60.1095L-138.321 -58.8974ZM-138.606 -59.8492L-138.611 -59.8401L-137.445 -59.1668L-137.439 -59.1759L-138.606 -59.8492ZM-144.847 -84.8254C-150.038 -75.8336 -147.127 -64.3874 -138.378 -58.941L-137.667 -60.0842C-145.801 -65.1481 -148.508 -75.7914 -143.681 -84.1521L-144.847 -84.8254ZM-119.196 -92.1657C-128.287 -97.0191 -139.655 -93.8172 -144.847 -84.8254L-143.681 -84.1521C-138.854 -92.5128 -128.283 -95.4902 -119.83 -90.9778L-119.196 -92.1657ZM-120.091 -91.9174L-120.096 -91.9084L-118.93 -91.2351L-118.925 -91.244L-120.091 -91.9174ZM-119.048 -92.0818L-119.129 -92.1371L-119.887 -91.0243L-119.806 -90.969L-119.048 -92.0818ZM-118.629 -91.8506C-118.787 -91.9421 -118.947 -92.0312 -119.107 -92.1177L-119.747 -90.9331C-119.598 -90.8525 -119.45 -90.7696 -119.302 -90.6843L-118.629 -91.8506ZM-115.817 -89.8759C-116.679 -90.6046 -117.618 -91.2668 -118.629 -91.8506L-119.302 -90.6843C-118.36 -90.1407 -117.488 -89.5247 -116.686 -88.8474L-115.817 -89.8759ZM29.2234 8.95873L-115.873 -89.9181L-116.631 -88.8052L28.465 10.0716L29.2234 8.95873ZM29.4249 9.85601L29.4274 9.85182L28.2611 9.17849L28.2587 9.18268L29.4249 9.85601ZM31.1716 16.9952C32.7813 14.2071 31.894 10.6628 29.2032 8.95122L28.4804 10.0875C30.5652 11.4137 31.2529 14.1611 30.0053 16.3219L31.1716 16.9952ZM23.2211 19.3125C26.0488 20.787 29.5618 19.7833 31.1716 16.9952L30.0053 16.3219C28.7578 18.4827 26.0347 19.2609 23.8437 18.1184L23.2211 19.3125ZM24.1136 19.0555L24.1155 19.0522L22.9493 18.3788L22.9473 18.3822L24.1136 19.0555ZM-134.841 -57.2123L23.237 19.3249L23.8239 18.1128L-134.254 -58.4243L-134.841 -57.2123Z" fill="white"/>
<path d="M79.9853 90.6278V89.4966H78.4985C77.9329 89.4966 77.5613 89.8037 77.5613 90.2723V90.3854C77.028 90.0299 76.3169 89.8683 75.4928 89.8683C73.8929 89.8683 72.7779 90.5955 72.1153 91.6621L72.9718 92.4862C73.4728 91.6621 74.2969 91.0318 75.4605 91.0318C77.0118 91.0318 77.7552 91.7267 77.7552 93.3589V93.8437H75.7837C73.1819 93.8437 71.9376 94.7648 71.9376 96.607C71.9376 98.3846 73.1173 99.2734 74.9757 99.2734H75.9291V98.0938H75.1373C73.9737 98.0938 73.3273 97.6736 73.3273 96.7363V96.3162C73.3273 95.5082 74.0545 95.0234 75.5089 95.0234H77.7552V99.2734H79.0803V93.2134C79.0803 92.3246 78.8541 91.5651 78.3208 90.9995V90.6278H79.9853ZM82.8246 99.4674C83.5034 99.4674 83.8104 99.0795 83.8104 98.5301V98.32C83.8104 97.7706 83.5034 97.3827 82.8246 97.3827C82.1459 97.3827 81.8389 97.7706 81.8389 98.32V98.5301C81.8389 99.0795 82.1459 99.4674 82.8246 99.4674ZM94.0148 90.6278V89.4966H92.5281C91.9625 89.4966 91.5908 89.8037 91.5908 90.2723V90.3854C91.0575 90.0299 90.3465 89.8683 89.5223 89.8683C87.9225 89.8683 86.8074 90.5955 86.1449 91.6621L87.0014 92.4862C87.5023 91.6621 88.3265 91.0318 89.49 91.0318C91.0414 91.0318 91.7847 91.7267 91.7847 93.3589V93.8437H89.8132C87.2114 93.8437 85.9671 94.7648 85.9671 96.607C85.9671 98.3846 87.1468 99.2734 89.0052 99.2734H89.9586V98.0938H89.1668C88.0033 98.0938 87.3569 97.6736 87.3569 96.7363V96.3162C87.3569 95.5082 88.0841 95.0234 89.5385 95.0234H91.7847V99.2734H93.1098V93.2134C93.1098 92.3246 92.8836 91.5651 92.3503 90.9995V90.6278H94.0148ZM96.8542 99.4674C97.5329 99.4674 97.8399 99.0795 97.8399 98.5301V98.32C97.8399 97.7706 97.5329 97.3827 96.8542 97.3827C96.1754 97.3827 95.8684 97.7706 95.8684 98.32V98.5301C95.8684 99.0795 96.1754 99.4674 96.8542 99.4674ZM102.889 99.4674C105.362 99.4674 106.541 97.819 106.541 94.6678C106.541 91.5166 105.362 89.8683 102.889 89.8683C101.225 89.8683 100.158 90.6763 99.6411 91.8237L100.805 92.3731C101.144 91.5328 101.904 91.0318 102.889 91.0318C104.231 91.0318 105.152 92.0338 105.152 93.7952V95.5405C105.152 97.3019 104.231 98.3038 102.889 98.3038C101.904 98.3038 101.144 97.8029 100.805 96.9626L99.6411 97.512C100.158 98.6594 101.225 99.4674 102.889 99.4674ZM112.241 99.2734H113.566V92.6802C113.566 90.8864 112.483 89.8683 110.593 89.8683C109.203 89.8683 108.104 90.4662 107.538 91.5005L108.427 92.3085C108.944 91.5328 109.575 91.0318 110.56 91.0318C111.675 91.0318 112.241 91.5651 112.241 92.8256V99.2734ZM119.105 99.4674C121.028 99.4674 122.288 98.417 122.288 96.607C122.288 95.2173 121.513 94.3446 119.671 94.0861L118.96 93.9891C117.909 93.8437 117.263 93.3912 117.263 92.5024C117.263 91.6136 117.909 91.0318 118.992 91.0318C120.058 91.0318 120.85 91.6298 121.238 92.1954L122.208 91.355C121.448 90.4178 120.479 89.8683 119.089 89.8683C117.392 89.8683 115.986 90.7571 115.986 92.567C115.986 94.28 117.247 94.8941 118.782 95.1203L119.493 95.2173C120.624 95.3789 121.012 96.0576 121.012 96.7686C121.012 97.7221 120.285 98.3038 119.186 98.3038C118.071 98.3038 117.279 97.819 116.552 96.8494L115.598 97.6574C116.422 98.7402 117.473 99.4674 119.105 99.4674ZM125.405 93.6336L128.249 93.6174V92.4216L125.292 92.4378V90.951L124.032 90.9672V92.26C124.032 93.1326 124.597 93.6336 125.405 93.6336ZM125.405 98.32L128.249 98.3038V97.108L125.292 97.1242V95.6374L124.032 95.6536V96.9464C124.032 97.819 124.597 98.32 125.405 98.32ZM134.08 99.2734H141.497V98.0776H138.588V87.9938H136.471L133.482 90.7894L134.274 91.6459L137.118 88.9957H137.231V98.0776H134.08V99.2734ZM73.3623 122.467C75.4954 122.467 76.9014 121.385 76.9014 119.51C76.9014 117.91 76.061 116.876 74.0249 116.617L73.3623 116.537C72.6674 116.456 72.1988 116.165 72.1988 115.616C72.1988 115.131 72.6674 114.791 73.3623 114.791C74.0249 114.791 74.6228 115.05 75.2692 115.712L76.8206 114.323C76.0772 113.337 74.9298 112.788 73.3785 112.788C71.5201 112.788 69.9687 113.692 69.9687 115.761C69.9687 117.296 70.8414 118.169 72.8614 118.492L73.3623 118.573C74.3804 118.734 74.6713 119.138 74.6713 119.575C74.6713 120.124 74.138 120.464 73.427 120.464C72.4574 120.464 71.6978 120.027 71.0191 119.187L69.4839 120.641C70.3727 121.772 71.5847 122.467 73.3623 122.467ZM75.1976 111.85H78.3165V110.073H75.0199V108.651H72.8706V109.475C72.8706 111.107 73.6947 111.85 75.1976 111.85ZM82.7023 122.467C85.5949 122.467 86.6615 121.142 86.6615 118.169V112.981H84.2375V118.637C84.2375 119.833 83.8012 120.431 82.7023 120.431C81.6034 120.431 81.1671 119.833 81.1671 118.637V112.981H78.7431V118.169C78.7431 121.142 79.8097 122.467 82.7023 122.467ZM88.9558 122.273H91.3798V117.975H93.012C93.9493 117.975 94.4179 118.508 94.4179 119.575V122.273H96.745V119.058C96.745 117.377 95.9854 116.407 94.628 116.213V116.133C95.6461 115.923 96.6318 115.212 96.6318 113.773V112.981H94.1432V114.468C94.1432 115.616 93.6261 116.181 92.5757 116.181H91.3798V112.981H88.9558V122.273ZM102.196 112.788C100.419 112.788 99.1258 113.531 98.4632 114.614L99.9661 115.939C100.402 115.373 100.968 114.824 102.067 114.824C103.198 114.824 103.667 115.405 103.667 116.327V116.811H101.388C99.449 116.811 98.3501 117.813 98.3501 119.494C98.3501 121.288 99.449 122.273 101.388 122.273H102.568V120.302H101.663C101.049 120.302 100.709 120.011 100.709 119.494V119.316C100.709 118.783 101.049 118.476 101.663 118.476H103.667V122.273H106.058V116.343C106.058 113.967 104.782 112.788 102.196 112.788ZM104.282 111.85H107.401V110.073H104.105V108.651H101.955V109.475C101.955 111.107 102.78 111.85 104.282 111.85ZM112.182 112.788C109.564 112.788 108.061 114.242 108.061 116.795V117.522H110.307V117.603C109.289 117.813 108.303 118.524 108.303 119.979V122.273H110.727V119.833C110.727 118.217 111.164 117.652 112.133 117.587V115.923H110.388C110.533 115.195 111.131 114.759 112.085 114.759C113.2 114.759 113.814 115.389 113.814 116.601V122.273H116.238V116.795C116.238 114.258 114.88 112.788 112.182 112.788ZM122.361 112.788C119.743 112.788 118.24 114.242 118.24 116.795V117.522H120.486V117.603C119.468 117.813 118.482 118.524 118.482 119.979V122.273H120.906V119.833C120.906 118.217 121.343 117.652 122.312 117.587V115.923H120.567C120.712 115.195 121.31 114.759 122.264 114.759C123.379 114.759 123.993 115.389 123.993 116.601V122.273H126.417V116.795C126.417 114.258 125.059 112.788 122.361 112.788ZM132.216 122.273H134.64V116.246C134.64 114.016 133.364 112.788 131.085 112.788C129.291 112.788 128.209 113.466 127.481 114.581L129 115.939C129.388 115.357 130.019 114.824 130.94 114.824C131.812 114.824 132.216 115.405 132.216 116.31V122.273ZM140.196 122.467C142.329 122.467 143.735 121.385 143.735 119.51C143.735 117.91 142.895 116.876 140.858 116.617L140.196 116.537C139.501 116.456 139.032 116.165 139.032 115.616C139.032 115.131 139.501 114.791 140.196 114.791C140.858 114.791 141.456 115.05 142.103 115.712L143.654 114.323C142.911 113.337 141.763 112.788 140.212 112.788C138.354 112.788 136.802 113.692 136.802 115.761C136.802 117.296 137.675 118.169 139.695 118.492L140.196 118.573C141.214 118.734 141.505 119.138 141.505 119.575C141.505 120.124 140.972 120.464 140.261 120.464C139.291 120.464 138.531 120.027 137.853 119.187L136.318 120.641C137.206 121.772 138.418 122.467 140.196 122.467Z" fill="white"/>
<path d="M-35.2823 297.342V296.211H-36.769C-37.3346 296.211 -37.7063 296.518 -37.7063 296.986V297.099C-38.2396 296.744 -38.9506 296.582 -39.7748 296.582C-41.3746 296.582 -42.4897 297.309 -43.1522 298.376L-42.2958 299.2C-41.7948 298.376 -40.9706 297.746 -39.8071 297.746C-38.2558 297.746 -37.5124 298.441 -37.5124 300.073V300.558H-39.4839C-42.0857 300.558 -43.33 301.479 -43.33 303.321C-43.33 305.099 -42.1503 305.987 -40.2919 305.987H-39.3385V304.808H-40.1303C-41.2938 304.808 -41.9402 304.387 -41.9402 303.45V303.03C-41.9402 302.222 -41.213 301.737 -39.7586 301.737H-37.5124V305.987H-36.1873V299.927C-36.1873 299.039 -36.4135 298.279 -36.9468 297.713V297.342H-35.2823ZM-32.4429 306.181C-31.7642 306.181 -31.4572 305.793 -31.4572 305.244V305.034C-31.4572 304.484 -31.7642 304.097 -32.4429 304.097C-33.1217 304.097 -33.4287 304.484 -33.4287 305.034V305.244C-33.4287 305.793 -33.1217 306.181 -32.4429 306.181ZM-21.2528 297.342V296.211H-22.7395C-23.3051 296.211 -23.6768 296.518 -23.6768 296.986V297.099C-24.2101 296.744 -24.9211 296.582 -25.7453 296.582C-27.3451 296.582 -28.4601 297.309 -29.1227 298.376L-28.2662 299.2C-27.7653 298.376 -26.9411 297.746 -25.7776 297.746C-24.2262 297.746 -23.4829 298.441 -23.4829 300.073V300.558H-25.4544C-28.0561 300.558 -29.3005 301.479 -29.3005 303.321C-29.3005 305.099 -28.1208 305.987 -26.2624 305.987H-25.3089V304.808H-26.1008C-27.2643 304.808 -27.9107 304.387 -27.9107 303.45V303.03C-27.9107 302.222 -27.1835 301.737 -25.7291 301.737H-23.4829V305.987H-22.1577V299.927C-22.1577 299.039 -22.384 298.279 -22.9173 297.713V297.342H-21.2528ZM-18.4134 306.181C-17.7347 306.181 -17.4277 305.793 -17.4277 305.244V305.034C-17.4277 304.484 -17.7347 304.097 -18.4134 304.097C-19.0921 304.097 -19.3992 304.484 -19.3992 305.034V305.244C-19.3992 305.793 -19.0921 306.181 -18.4134 306.181ZM-12.3783 306.181C-9.9058 306.181 -8.72612 304.533 -8.72612 301.382C-8.72612 298.231 -9.9058 296.582 -12.3783 296.582C-14.0428 296.582 -15.1093 297.39 -15.6264 298.538L-14.4629 299.087C-14.1236 298.247 -13.364 297.746 -12.3783 297.746C-11.037 297.746 -10.1159 298.748 -10.1159 300.509V302.254C-10.1159 304.016 -11.037 305.018 -12.3783 305.018C-13.364 305.018 -14.1236 304.517 -14.4629 303.676L-15.6264 304.226C-15.1093 305.373 -14.0428 306.181 -12.3783 306.181ZM-3.02657 305.987H-1.70145V299.394C-1.70145 297.6 -2.78417 296.582 -4.67489 296.582C-6.06465 296.582 -7.16353 297.18 -7.72913 298.214L-6.84033 299.022C-6.32321 298.247 -5.69297 297.746 -4.70721 297.746C-3.59217 297.746 -3.02657 298.279 -3.02657 299.539V305.987ZM3.8374 306.181C5.76044 306.181 7.02092 305.131 7.02092 303.321C7.02092 301.931 6.24524 301.059 4.403 300.8L3.69196 300.703C2.64156 300.558 1.99516 300.105 1.99516 299.216C1.99516 298.327 2.64156 297.746 3.72428 297.746C4.79084 297.746 5.58268 298.344 5.97052 298.909L6.94012 298.069C6.1806 297.132 5.211 296.582 3.82124 296.582C2.12444 296.582 0.718515 297.471 0.718515 299.281C0.718515 300.994 1.979 301.608 3.5142 301.834L4.22524 301.931C5.35644 302.093 5.74428 302.771 5.74428 303.483C5.74428 304.436 5.01708 305.018 3.9182 305.018C2.80316 305.018 2.01132 304.533 1.28412 303.563L0.330675 304.371C1.15484 305.454 2.20524 306.181 3.8374 306.181ZM10.1375 300.347L12.9817 300.331V299.135L10.0244 299.152V297.665L8.76393 297.681V298.974C8.76393 299.847 9.32953 300.347 10.1375 300.347ZM10.1375 305.034L12.9817 305.018V303.822L10.0244 303.838V302.351L8.76393 302.367V303.66C8.76393 304.533 9.32953 305.034 10.1375 305.034ZM18.6021 305.987H26.0034V304.791H20.0727L23.1107 302.06C24.549 300.768 25.5832 299.539 25.5832 297.794C25.5832 295.871 24.3227 294.514 22.125 294.514C19.9434 294.514 18.9415 295.839 18.5051 297.164L19.7171 297.633C20.0242 296.566 20.6706 295.726 22.0603 295.726C23.4501 295.726 24.145 296.582 24.145 297.827V298.02C24.145 299.103 23.337 300.234 22.2866 301.204L18.6021 304.598V305.987ZM-71.6413 328.987H-70.7364V326.983H-71.2373C-72.4493 326.983 -72.821 326.499 -72.821 324.915V323.461C-72.821 322.313 -72.4816 321.651 -71.8352 321.651L-70.9464 322.75H-70.9141L-70.0091 321.651C-69.5082 321.683 -69.3143 322.055 -69.3143 322.895V328.987H-66.8903V322.75C-66.8903 320.584 -68.1669 319.501 -69.896 319.501L-70.9141 320.794H-70.9464L-71.9484 319.501C-74.0653 319.501 -75.245 320.907 -75.245 324.22C-75.245 327.727 -74.2916 328.987 -71.6413 328.987ZM-68.6656 318.564H-65.5467V316.787H-68.8434V315.364H-70.9926V316.189C-70.9926 317.821 -70.1685 318.564 -68.6656 318.564ZM-67.9635 312.601C-68.0928 311.486 -68.5291 311.163 -69.7734 311.163H-70.7592V312.714H-69.5795V314.201H-66.0566V312.601H-67.9635ZM-62.948 328.987H-61.0088C-58.6494 328.987 -57.3889 327.404 -57.3889 324.22V322.103C-57.3889 320.568 -58.1161 319.695 -59.3928 319.695H-61.1865V321.715H-59.7806V324.592C-59.7806 326.256 -60.1846 327.08 -61.0088 327.08H-61.332L-63.0126 319.695H-65.4043L-62.948 328.987ZM-55.2734 328.987H-52.8494V326.773C-52.8494 325.917 -52.2676 325.481 -51.1041 325.481H-50.4415V323.461H-50.9263C-51.9444 323.461 -52.5585 323.978 -52.7686 325.012H-52.8494V323.347C-52.8494 322.152 -52.2838 321.538 -51.1849 321.538C-50.086 321.538 -49.5204 322.152 -49.5204 323.347V328.987H-47.0964V323.509C-47.0964 320.972 -48.5185 319.501 -51.1849 319.501C-53.8513 319.501 -55.2734 320.972 -55.2734 323.509V328.987ZM-34.5612 319.695V325.949C-34.5612 326.709 -35.2884 327.08 -35.9833 327.08C-36.7913 327.08 -37.0821 326.596 -37.0821 325.61V323.509C-37.0821 320.972 -38.3911 319.501 -41.1221 319.501C-43.6916 319.501 -45.1298 320.956 -45.1298 323.509V324.236H-43.0129V324.317C-44.3541 324.592 -45.0167 325.351 -45.0167 326.628V326.79C-45.0167 328.179 -44.2249 328.987 -42.6412 328.987H-41.1868V327.048H-42.5927V326.547C-42.5927 324.931 -42.1564 324.366 -41.0575 324.301V322.636H-42.8028C-42.6573 321.909 -42.0594 321.473 -41.1221 321.473C-40.0233 321.473 -39.4092 322.103 -39.4092 323.315V326.014C-39.4092 328.018 -38.5527 329.181 -36.969 329.181C-35.6924 329.181 -34.9975 328.486 -34.6581 327.549H-34.5612V328.987H-32.1372V319.695H-34.5612ZM-27.6189 323.768H-24.5324V321.667H-27.6028V320.164H-29.946V321.392C-29.946 323.024 -29.1218 323.768 -27.6189 323.768ZM-27.6189 328.503H-24.5324V326.402H-27.6028V324.899H-29.946V326.127C-29.946 327.759 -29.1218 328.503 -27.6189 328.503ZM-18.5042 319.501C-21.1221 319.501 -22.625 320.956 -22.625 323.509V324.236H-20.3788V324.317C-21.3968 324.527 -22.3826 325.238 -22.3826 326.693V328.987H-19.9586V326.547C-19.9586 324.931 -19.5223 324.366 -18.5527 324.301V322.636H-20.298C-20.1525 321.909 -19.5546 321.473 -18.6011 321.473C-17.4861 321.473 -16.872 322.103 -16.872 323.315V328.987H-14.448V323.509C-14.448 320.972 -15.8055 319.501 -18.5042 319.501ZM-8.89088 329.181C-6.75776 329.181 -5.35184 328.099 -5.35184 326.224C-5.35184 324.624 -6.19216 323.59 -8.22832 323.331L-8.89088 323.251C-9.58576 323.17 -10.0544 322.879 -10.0544 322.329C-10.0544 321.845 -9.58576 321.505 -8.89088 321.505C-8.22832 321.505 -7.6304 321.764 -6.984 322.426L-5.43264 321.037C-6.176 320.051 -7.32336 319.501 -8.87472 319.501C-10.7331 319.501 -12.2845 320.406 -12.2845 322.475C-12.2845 324.01 -11.4118 324.883 -9.39184 325.206L-8.89088 325.287C-7.8728 325.448 -7.58192 325.852 -7.58192 326.289C-7.58192 326.838 -8.1152 327.177 -8.82624 327.177C-9.79584 327.177 -10.5554 326.741 -11.2341 325.901L-12.7693 327.355C-11.8805 328.486 -10.6685 329.181 -8.89088 329.181ZM-0.116504 329.181C2.01662 329.181 3.42254 328.099 3.42254 326.224C3.42254 324.624 2.58222 323.59 0.546055 323.331L-0.116504 323.251C-0.811385 323.17 -1.28002 322.879 -1.28002 322.329C-1.28002 321.845 -0.811385 321.505 -0.116504 321.505C0.546055 321.505 1.14398 321.764 1.79038 322.426L3.34174 321.037C2.59838 320.051 1.45102 319.501 -0.100345 319.501C-1.95875 319.501 -3.51011 320.406 -3.51011 322.475C-3.51011 324.01 -2.63747 324.883 -0.617465 325.206L-0.116504 325.287C0.901576 325.448 1.19246 325.852 1.19246 326.289C1.19246 326.838 0.659175 327.177 -0.0518648 327.177C-1.02146 327.177 -1.78099 326.741 -2.45971 325.901L-3.99491 327.355C-3.10611 328.486 -1.89411 329.181 -0.116504 329.181ZM10.484 329.181C12.4555 329.181 13.3766 327.953 13.3766 325.82V319.695H10.9526V325.238C10.9526 326.483 10.5971 327.08 9.57899 327.08C8.65787 327.08 7.78523 326.628 7.78523 325.658V319.695H5.36123V328.987H7.78523V327.549H7.88219C8.18923 328.438 8.90027 329.181 10.484 329.181ZM19.2054 328.987H21.6294V322.96C21.6294 320.73 20.3528 319.501 18.0742 319.501C16.2805 319.501 15.1978 320.18 14.4706 321.295L15.9896 322.653C16.3774 322.071 17.0077 321.538 17.9288 321.538C18.8014 321.538 19.2054 322.119 19.2054 323.024V328.987ZM27.379 329.181C29.7545 329.181 30.9827 328.066 30.9827 326.03C30.9827 324.269 30.1262 323.299 28.1062 322.976L25.8276 322.685V322.346C25.8276 321.845 26.2963 321.505 27.2174 321.505C28.1062 321.505 28.7041 321.764 29.3505 322.426L30.9019 321.037C30.1585 320.051 29.0112 319.501 27.2336 319.501C24.955 319.501 23.5975 320.6 23.5975 322.249V322.443C23.5975 323.574 24.2924 324.301 25.6983 324.511L27.4436 324.705C28.4617 324.85 28.7526 325.206 28.7526 325.982C28.7526 326.757 28.3324 327.177 27.282 327.177C26.7326 327.177 26.2801 327.097 25.8761 326.935V325.157H23.743V328.26C24.5671 328.842 25.6983 329.181 27.379 329.181ZM23.5417 318.564H30.6521V316.787H23.5417V318.564ZM36.6513 319.501C34.0334 319.501 32.5305 320.956 32.5305 323.509V324.236H34.7767V324.317C33.7586 324.527 32.7729 325.238 32.7729 326.693V328.987H35.1969V326.547C35.1969 324.931 35.6332 324.366 36.6028 324.301V322.636H34.8575C35.003 321.909 35.6009 321.473 36.5543 321.473C37.6694 321.473 38.2835 322.103 38.2835 323.315V328.987H40.7075V323.509C40.7075 320.972 39.35 319.501 36.6513 319.501ZM46.507 328.987H48.931V322.96C48.931 320.73 47.6544 319.501 45.3758 319.501C43.582 319.501 42.4993 320.18 41.7721 321.295L43.2912 322.653C43.679 322.071 44.3092 321.538 45.2304 321.538C46.103 321.538 46.507 322.119 46.507 323.024V328.987ZM54.4866 329.181C56.6198 329.181 58.0257 328.099 58.0257 326.224C58.0257 324.624 57.1854 323.59 55.1492 323.331L54.4866 323.251C53.7918 323.17 53.3231 322.879 53.3231 322.329C53.3231 321.845 53.7918 321.505 54.4866 321.505C55.1492 321.505 55.7471 321.764 56.3935 322.426L57.9449 321.037C57.2015 320.051 56.0542 319.501 54.5028 319.501C52.6444 319.501 51.093 320.406 51.093 322.475C51.093 324.01 51.9657 324.883 53.9857 325.206L54.4866 325.287C55.5047 325.448 55.7956 325.852 55.7956 326.289C55.7956 326.838 55.2623 327.177 54.5513 327.177C53.5817 327.177 52.8222 326.741 52.1434 325.901L50.6082 327.355C51.497 328.486 52.709 329.181 54.4866 329.181Z" fill="white"/>
<rect x="70.6934" y="32.7939" width="55.5467" height="29.4667" rx="14.7333" fill="#373746"/>
<path d="M84.5859 51.6566C85.9433 51.6566 86.7728 50.8809 86.7728 49.545V48.7478C86.7728 47.8536 86.3742 47.2503 85.674 47.0349V46.9918C86.2557 46.7548 86.7944 46.3346 86.7944 45.5697V45.3865H85.8894V45.8498C85.8894 46.5393 85.48 46.9379 84.7582 46.9379H84.672V47.6166H84.8552C85.5662 47.6166 85.8679 47.9721 85.8679 48.7909V49.4158C85.8679 50.3854 85.3723 50.8809 84.5859 50.8809C83.7886 50.8809 83.2931 50.4823 83.2931 49.4804C83.2931 47.9075 84.2627 47.929 84.2627 46.5716V46.4423C84.2627 45.7959 83.9718 45.3865 83.0022 45.3865H82.3235V46.1407H83.4008V46.6686C83.4008 47.8321 82.3881 47.6166 82.3881 49.5127C82.3881 50.8379 83.2176 51.6566 84.5859 51.6566ZM85.8079 44.5247H87.9625V43.8136H85.4093V43.1241H84.5905V43.4366C84.5905 44.2015 84.946 44.5247 85.8079 44.5247ZM85.8003 42.4777H87.6102V41.8313H86.4252V41.6159C86.4252 41.088 86.1989 40.8833 85.5956 40.8833H85.1754V41.5405H85.8003V42.4777ZM90.4878 51.6566C91.5005 51.6566 91.9637 51.0964 92.2008 50.5147H92.2439V51.5273H93.1057V45.3865H92.2223V49.6851C92.2223 50.4931 91.4789 50.8702 90.7248 50.8702C89.8091 50.8702 89.3135 50.2992 89.3135 49.2003V45.3865H88.4301V49.3296C88.4301 50.8055 89.2381 51.6566 90.4878 51.6566ZM102.605 45.7636V45.0095H101.614C101.237 45.0095 100.989 45.2142 100.989 45.5266V45.602C100.634 45.365 100.16 45.2573 99.6101 45.2573C98.5436 45.2573 97.8002 45.7421 97.3585 46.4531L97.9295 47.0025C98.2635 46.4531 98.8129 46.0329 99.5886 46.0329C100.623 46.0329 101.118 46.4962 101.118 47.5843V47.9075H99.804C98.0695 47.9075 97.24 48.5216 97.24 49.7497C97.24 50.9348 98.0264 51.5273 99.2654 51.5273H99.901V50.7409H99.3731C98.5974 50.7409 98.1665 50.4608 98.1665 49.8359V49.5558C98.1665 49.0172 98.6513 48.694 99.6209 48.694H101.118V51.5273H102.002V47.4873C102.002 46.8948 101.851 46.3885 101.495 46.0114V45.7636H102.605ZM104.498 51.6566C104.95 51.6566 105.155 51.3981 105.155 51.0318V50.8917C105.155 50.5254 104.95 50.2669 104.498 50.2669C104.046 50.2669 103.841 50.5254 103.841 50.8917V51.0318C103.841 51.3981 104.046 51.6566 104.498 51.6566ZM111.958 45.7636V45.0095H110.967C110.59 45.0095 110.342 45.2142 110.342 45.5266V45.602C109.987 45.365 109.513 45.2573 108.963 45.2573C107.897 45.2573 107.153 45.7421 106.712 46.4531L107.283 47.0025C107.616 46.4531 108.166 46.0329 108.942 46.0329C109.976 46.0329 110.471 46.4962 110.471 47.5843V47.9075H109.157C107.423 47.9075 106.593 48.5216 106.593 49.7497C106.593 50.9348 107.379 51.5273 108.618 51.5273L109.254 51.5273V50.7409H108.726C107.95 50.7409 107.52 50.4608 107.52 49.8359V49.5558C107.52 49.0172 108.004 48.694 108.974 48.694L110.471 48.694V51.5273H111.355V47.4873C111.355 46.8948 111.204 46.3885 110.848 46.0114V45.7636H111.958ZM113.851 51.6566C114.304 51.6566 114.508 51.3981 114.508 51.0318V50.8917C114.508 50.5254 114.304 50.2669 113.851 50.2669C113.399 50.2669 113.194 50.5254 113.194 50.8917V51.0318C113.194 51.3981 113.399 51.6566 113.851 51.6566Z" fill="white"/>
<path d="M386.076 144.529L386.659 144.192C386.57 144.037 386.423 143.925 386.25 143.878C386.078 143.832 385.894 143.856 385.739 143.946L386.076 144.529ZM241.728 227.868L241.392 227.285C241.07 227.471 240.959 227.882 241.145 228.205L241.728 227.868ZM386.092 144.556L385.509 144.893C385.687 145.202 386.075 145.318 386.394 145.158L386.092 144.556ZM404.58 176.579L404.21 176.016C403.912 176.212 403.819 176.607 403.997 176.916L404.58 176.579ZM404.596 176.606L404.932 177.189C405.087 177.1 405.2 176.953 405.246 176.78C405.292 176.608 405.268 176.424 405.179 176.269L404.596 176.606ZM403.753 177.092L403.417 176.509L403.413 176.511L403.753 177.092ZM403.549 177.21L403.216 176.625L403.213 176.627L403.549 177.21ZM260.828 259.61L260.492 259.027L260.49 259.028L260.828 259.61ZM260.753 259.653L260.418 259.07L260.417 259.07L260.753 259.653ZM260.248 259.945L259.665 260.282C259.851 260.604 260.263 260.714 260.585 260.528L260.248 259.945ZM260.243 259.936L260.826 259.599C260.645 259.285 260.246 259.171 259.926 259.342L260.243 259.936ZM241.734 227.877L242.089 228.449C242.398 228.257 242.498 227.855 242.317 227.54L241.734 227.877ZM385.739 143.946L241.392 227.285L242.065 228.451L386.413 145.112L385.739 143.946ZM386.675 144.22L386.659 144.192L385.493 144.865L385.509 144.893L386.675 144.22ZM386.394 145.158C394.778 140.946 405.095 143.96 409.847 152.19L411.013 151.516C405.903 142.665 394.807 139.424 385.79 143.955L386.394 145.158ZM409.847 152.19C414.599 160.42 412.05 170.862 404.21 176.016L404.95 177.142C413.382 171.598 416.124 160.368 411.013 151.516L409.847 152.19ZM405.179 176.269L405.163 176.242L403.997 176.916L404.013 176.943L405.179 176.269ZM404.09 177.676L404.932 177.189L404.259 176.023L403.417 176.509L404.09 177.676ZM403.413 176.511C403.38 176.531 403.348 176.55 403.315 176.568L403.988 177.735C404.023 177.714 404.058 177.694 404.094 177.673L403.413 176.511ZM403.315 176.568C403.282 176.587 403.249 176.606 403.216 176.625L403.882 177.795C403.918 177.775 403.953 177.755 403.988 177.735L403.315 176.568ZM261.165 260.193L403.886 177.793L403.213 176.627L260.492 259.027L261.165 260.193ZM261.128 260.215C261.14 260.208 261.153 260.2 261.166 260.192L260.49 259.028C260.478 259.035 260.466 259.042 260.454 259.049L261.128 260.215ZM261.089 260.237C261.102 260.23 261.115 260.222 261.128 260.215L260.454 259.049C260.442 259.056 260.43 259.063 260.418 259.07L261.089 260.237ZM260.585 260.528L261.09 260.237L260.417 259.07L259.911 259.362L260.585 260.528ZM259.66 260.273L259.665 260.282L260.831 259.608L260.826 259.599L259.66 260.273ZM234.909 253.19C240.101 262.182 251.469 265.383 260.56 260.53L259.926 259.342C251.473 263.855 240.903 260.877 236.075 252.516L234.909 253.19ZM241.378 227.305C232.629 232.752 229.718 244.198 234.909 253.19L236.075 252.516C231.248 244.156 233.955 233.512 242.089 228.449L241.378 227.305ZM241.145 228.205L241.15 228.214L242.317 227.54L242.311 227.531L241.145 228.205Z" fill="white"/>
<path d="M117.499 144.77L117.181 145.364C117.502 145.535 117.9 145.421 118.082 145.107L117.499 144.77ZM98.9892 176.829L99.5723 177.166C99.7539 176.851 99.6533 176.45 99.345 176.258L98.9892 176.829ZM98.9839 176.838L98.4008 176.502C98.3115 176.656 98.2873 176.84 98.3335 177.013C98.3797 177.185 98.4926 177.332 98.6472 177.421L98.9839 176.838ZM242.317 259.592L242.656 259.01L242.654 259.009L242.317 259.592ZM242.455 259.671L242.792 259.088L242.789 259.087L242.455 259.671ZM243.331 260.177L242.995 260.761C243.149 260.85 243.333 260.874 243.506 260.828C243.678 260.782 243.825 260.669 243.915 260.514L243.331 260.177ZM243.347 260.15L243.649 259.549C243.331 259.388 242.942 259.505 242.764 259.814L243.347 260.15ZM261.835 228.128L261.252 227.791C261.074 228.1 261.167 228.494 261.465 228.69L261.835 228.128ZM261.851 228.1L262.434 228.437C262.62 228.115 262.51 227.703 262.188 227.517L261.851 228.1ZM118.097 145.104L117.759 145.686L117.76 145.687L118.097 145.104ZM117.996 145.045L117.659 145.628L117.661 145.629L117.996 145.045ZM117.504 144.761L117.84 144.178C117.686 144.089 117.502 144.064 117.329 144.111C117.157 144.157 117.01 144.27 116.921 144.424L117.504 144.761ZM117.816 144.176C108.725 139.323 97.3562 142.525 92.1648 151.516L93.331 152.19C98.1581 143.829 108.729 140.852 117.181 145.364L117.816 144.176ZM92.1648 151.516C86.9734 160.508 89.8846 171.954 98.6333 177.401L99.345 176.258C91.2109 171.194 88.504 160.55 93.331 152.19L92.1648 151.516ZM98.406 176.493L98.4008 176.502L99.567 177.175L99.5723 177.166L98.406 176.493ZM98.6472 177.421L241.98 260.175L242.654 259.009L99.3205 176.255L98.6472 177.421ZM242.723 259.049C242.7 259.036 242.678 259.023 242.656 259.01L241.978 260.173C242.002 260.187 242.025 260.201 242.049 260.215L242.723 259.049ZM242.789 259.087C242.767 259.074 242.745 259.061 242.723 259.049L242.049 260.215C242.073 260.229 242.097 260.242 242.121 260.256L242.789 259.087ZM242.118 260.255L242.995 260.761L243.668 259.594L242.792 259.088L242.118 260.255ZM243.915 260.514L243.93 260.487L242.764 259.814L242.748 259.841L243.915 260.514ZM267.101 252.516C262.35 260.746 252.033 263.76 243.649 259.549L243.045 260.752C252.062 265.282 263.157 262.041 268.268 253.19L267.101 252.516ZM261.465 228.69C269.304 233.845 271.853 244.287 267.101 252.516L268.268 253.19C273.378 244.339 270.637 233.109 262.205 227.565L261.465 228.69ZM262.418 228.464L262.434 228.437L261.268 227.764L261.252 227.791L262.418 228.464ZM262.188 227.517L118.434 144.521L117.76 145.687L261.515 228.683L262.188 227.517ZM118.436 144.522C118.418 144.511 118.401 144.501 118.383 144.491L117.71 145.657C117.726 145.667 117.742 145.676 117.759 145.686L118.436 144.522ZM118.383 144.491C118.366 144.481 118.348 144.471 118.331 144.461L117.661 145.629C117.677 145.639 117.693 145.648 117.71 145.657L118.383 144.491ZM118.332 144.462L117.84 144.178L117.167 145.344L117.659 145.628L118.332 144.462ZM116.921 144.424L116.915 144.433L118.082 145.107L118.087 145.098L116.921 144.424Z" fill="white"/>
<path d="M-43.6982 254.765L-44.2813 255.102C-44.1051 255.407 -43.7234 255.525 -43.4059 255.372L-43.6982 254.765ZM114.481 178.546L114.253 177.912C114.231 177.92 114.21 177.929 114.189 177.939L114.481 178.546ZM-43.7009 254.761L-43.1178 254.424C-43.2981 254.112 -43.6925 253.997 -44.0122 254.164L-43.7009 254.761ZM-49.0103 245.564L-48.6489 246.133C-48.3446 245.939 -48.2469 245.54 -48.4272 245.228L-49.0103 245.564ZM-49.012 245.561L-49.3901 245.004C-49.6821 245.203 -49.7715 245.593 -49.5951 245.898L-49.012 245.561ZM96.3085 146.932L96.6867 147.489C96.7055 147.476 96.7237 147.462 96.7412 147.448L96.3085 146.932ZM99.4266 144.815L99.7469 145.408C99.7668 145.397 99.7861 145.385 99.8048 145.372L99.4266 144.815ZM99.5097 144.759L100.093 144.422C99.9993 144.26 99.8425 144.145 99.6602 144.103C99.4779 144.061 99.2863 144.097 99.1315 144.202L99.5097 144.759ZM99.5148 144.768L98.9317 145.105C99.1133 145.419 99.5116 145.533 99.8319 145.362L99.5148 144.768ZM118.024 176.827L117.668 176.256C117.36 176.447 117.26 176.849 117.441 177.164L118.024 176.827ZM118.029 176.836L118.322 177.443C118.49 177.362 118.618 177.214 118.673 177.035C118.728 176.856 118.706 176.662 118.613 176.5L118.029 176.836ZM117.939 176.88L117.647 176.273C117.626 176.283 117.606 176.294 117.587 176.306L117.939 176.88ZM-43.4059 255.372L114.773 179.153L114.189 177.939L-43.9905 254.159L-43.4059 255.372ZM-44.284 255.097L-44.2813 255.102L-43.1151 254.429L-43.1178 254.424L-44.284 255.097ZM-51.3404 253.04C-49.7306 255.829 -46.2173 256.832 -43.3895 255.358L-44.0122 254.164C-46.2032 255.306 -48.9266 254.528 -50.1742 252.367L-51.3404 253.04ZM-49.3716 244.996C-52.0627 246.708 -52.9503 250.252 -51.3404 253.04L-50.1742 252.367C-51.4218 250.206 -50.734 247.459 -48.6489 246.133L-49.3716 244.996ZM-49.5951 245.898L-49.5934 245.901L-48.4272 245.228L-48.4289 245.225L-49.5951 245.898ZM95.9304 146.374L-49.3901 245.004L-48.6338 246.119L96.6867 147.489L95.9304 146.374ZM98.6303 144.489C97.6415 145.06 96.7223 145.706 95.8759 146.416L96.7412 147.448C97.5279 146.788 98.3829 146.187 99.3036 145.655L98.6303 144.489ZM99.1064 144.223C98.9469 144.309 98.7882 144.398 98.6303 144.489L99.3036 145.655C99.4507 145.57 99.5985 145.488 99.7469 145.408L99.1064 144.223ZM99.1315 144.202L99.0485 144.258L99.8048 145.372L99.8878 145.316L99.1315 144.202ZM100.098 144.431L100.093 144.422L98.9265 145.096L98.9317 145.105L100.098 144.431ZM124.849 151.514C119.657 142.522 108.289 139.321 99.1977 144.174L99.8319 145.362C108.284 140.85 118.855 143.827 123.682 152.188L124.849 151.514ZM118.38 177.399C127.129 171.952 130.04 160.506 124.849 151.514L123.682 152.188C128.509 160.548 125.803 171.192 117.668 176.256L118.38 177.399ZM118.613 176.5L118.607 176.49L117.441 177.164L117.446 177.173L118.613 176.5ZM118.232 177.486L118.322 177.443L117.737 176.23L117.647 176.273L118.232 177.486ZM117.823 177.733C117.981 177.641 118.138 177.548 118.292 177.453L117.587 176.306C117.443 176.395 117.297 176.481 117.15 176.566L117.823 177.733ZM114.709 179.18C115.771 178.797 116.813 178.316 117.823 177.733L117.15 176.566C116.209 177.11 115.24 177.557 114.253 177.912L114.709 179.18Z" fill="white"/>
<path d="M140.411 173.296L137.315 171.509L137.175 171.75L137.026 172.252L138.999 173.391C138.21 173.327 137.626 173.564 136.984 174.676L133.767 180.223C133.44 180.789 133.649 181.372 134.206 181.693C134.405 181.808 134.56 181.856 134.704 181.897L135.05 181.565L135.159 181.376L134.781 181.158C134.592 181.049 134.542 180.894 134.681 180.652L137.817 175.269C138.645 173.858 139.226 173.774 139.999 174.01L140.411 173.296ZM138.663 184.323C139.723 184.935 141.057 184.879 141.747 183.682L143.359 180.89C143.578 180.513 143.674 180.442 143.976 180.574L144.246 180.688L144.549 180.164L142.534 179L142.231 179.525L142.464 179.702C142.729 179.897 142.717 180.016 142.499 180.393L140.911 183.144C140.438 183.962 139.727 183.958 139.024 183.552C137.953 182.933 137.854 181.869 137.854 181.869L140.266 177.691L138.839 176.867L138.53 177.402L138.774 177.585C139.029 177.774 139.018 177.866 138.8 178.244L136.842 181.634C136.606 182.043 136.505 182.097 136.272 181.991L136.019 181.872L135.68 182.46L136.887 183.157C137.042 183.009 137.23 182.781 137.372 182.584C137.372 182.584 137.466 183.632 138.663 184.323ZM144.451 178.974L145.3 177.504L144.46 177.019L143.612 178.489L144.451 178.974ZM144.005 187.407C145.296 188.152 146.491 188.142 147.17 186.967C147.685 186.075 147.2 185.193 146.421 184.506C145.086 183.329 145.175 182.932 145.453 182.449C145.744 181.945 146.286 181.88 147.052 182.323C147.524 182.595 147.855 182.968 147.99 183.438L148.619 183.801C148.619 183.801 148.805 183.601 149.114 183.065C148.821 182.7 148.121 182.072 147.449 181.684C146.294 181.017 145.162 181.063 144.598 182.04C144.095 182.911 144.424 183.772 145.315 184.58C146.602 185.744 146.52 186.032 146.193 186.599C145.908 187.092 145.307 187.235 144.468 186.75C143.89 186.417 143.533 186.043 143.451 185.506L142.811 185.136C142.578 185.491 142.531 185.548 142.296 185.93C142.51 186.166 142.892 186.764 144.005 187.407ZM150.983 182.703L151.429 182.414L151.605 182.11L148.897 180.547C148.718 180.444 148.689 180.301 148.792 180.122L148.998 179.765L148.473 179.462L148.076 179.373L147.901 179.678C147.604 180.192 147.655 180.782 148.222 181.109L150.983 182.703ZM149.862 190.788C151.394 191.673 152.723 191.335 153.438 190.096L154.911 187.546C155.129 187.168 155.225 187.097 155.527 187.23L155.797 187.344L156.094 186.829L154.079 185.666L153.782 186.18L154.015 186.357C154.281 186.552 154.268 186.671 154.05 187.049L152.577 189.599C152.129 190.376 151.283 190.629 150.286 190.054C149.289 189.478 149.085 188.619 149.534 187.842L151.612 184.242L150.185 183.417L149.876 183.953L150.12 184.136C150.374 184.325 150.364 184.416 150.145 184.794L148.673 187.345C147.958 188.583 148.329 189.903 149.862 190.788Z" fill="#FF8058"/>
<path d="M74.5077 185.623C75.7987 184.878 76.3879 183.838 75.7092 182.662C75.1941 181.77 74.1883 181.749 73.2036 182.079C71.5164 182.648 71.2175 182.372 70.9387 181.89C70.6478 181.386 70.8621 180.884 71.6283 180.442C72.1006 180.169 72.5888 180.069 73.0628 180.187L73.6926 179.824C73.6926 179.824 73.6118 179.563 73.3027 179.027C72.84 179.098 71.9453 179.391 71.2736 179.779C70.119 180.446 69.5928 181.449 70.1564 182.425C70.6594 183.296 71.5695 183.443 72.7149 183.075C74.3662 182.542 74.5746 182.757 74.9018 183.324C75.1867 183.817 75.0104 184.409 74.1707 184.894C73.5934 185.227 73.0903 185.35 72.5843 185.152L71.9441 185.522C72.1352 185.901 72.161 185.97 72.3748 186.365C72.6857 186.297 73.3951 186.265 74.5077 185.623ZM73.9227 177.228L73.8963 176.697L73.7205 176.393L71.0125 177.956C70.8341 178.059 70.6955 178.013 70.5925 177.835L70.3865 177.478L69.8617 177.781L69.5864 178.08L69.7621 178.384C70.0591 178.899 70.5954 179.149 71.1622 178.822L73.9227 177.228ZM80.3646 182.241C81.897 181.357 82.2685 180.037 81.5534 178.798L80.0808 176.248C79.8627 175.87 79.8501 175.751 80.1153 175.556L80.3491 175.379L80.0521 174.865L78.0368 176.028L78.3338 176.542L78.6039 176.428C78.9054 176.296 79.002 176.367 79.2201 176.744L80.6927 179.295C81.1412 180.072 80.9375 180.931 79.9404 181.507C78.9432 182.082 78.0972 181.829 77.6488 181.052L75.5702 177.452L74.1427 178.276L74.4518 178.812L74.7324 178.692C75.0235 178.566 75.0974 178.621 75.3155 178.999L76.7881 181.549C77.5032 182.788 78.8321 183.126 80.3646 182.241Z" fill="white"/>
<rect x="98.3008" y="151.3" width="20.2" height="20.2" rx="10.1" fill="white"/>
<path d="M102.272 166.399H108.163V164.933H106.369V157.94H103.581L101.557 160.606L102.721 161.515L104.442 159.261H104.551V164.933H102.272V166.399ZM109.54 166.399H115.43V164.933H113.636V157.94H110.849L108.825 160.606L109.988 161.515L111.709 159.261H111.818V164.933H109.54V166.399Z" fill="black"/>
<circle cx="253.826" cy="195.055" r="8.08" transform="rotate(-85.1007 253.826 195.055)" fill="#9B8CCD"/>
<path d="M248.623 188.874L259.032 201.235" stroke="black" stroke-width="0.673333"/>
<circle cx="235.66" cy="203.147" r="8.08" fill="#9B8CCD"/>
<path d="M241.373 197.434L229.946 208.86" stroke="black" stroke-width="0.673333"/>
<circle cx="267.98" cy="203.147" r="8.08" fill="#49AB93"/>
<path d="M273.693 197.434L262.267 208.86" stroke="white" stroke-width="0.538667"/>
<path d="M262.268 197.434L273.694 208.86" stroke="white" stroke-width="0.538667"/>
<path d="M267.98 195.067L267.98 211.227" stroke="white" stroke-width="0.538667"/>
<path d="M259.9 203.147L276.06 203.147" stroke="white" stroke-width="0.538667"/>
<circle cx="250.475" cy="210.554" r="8.08" fill="#EFFF8B"/>
<path d="M256.186 204.841L244.759 216.268" stroke="black" stroke-width="0.538667"/>
<path d="M244.762 204.841L256.189 216.268" stroke="black" stroke-width="0.538667"/>
<path d="M250.473 202.474L250.473 218.634" stroke="black" stroke-width="0.538667"/>
<path d="M242.395 210.554L258.555 210.554" stroke="black" stroke-width="0.538667"/>
<circle cx="280.773" cy="193.721" r="8.08" fill="#EFFF8B"/>
<path d="M286.486 188.007L275.059 199.434" stroke="black" stroke-width="0.673333"/>
<path d="M275.061 188.007L286.487 199.434" stroke="black" stroke-width="0.673333"/>
</g>
<circle cx="152.5" cy="152.5" r="151.5" stroke="white" stroke-width="2"/>
</svg>
