<svg width="305" height="356" viewBox="0 0 305 356" fill="none" xmlns="http://www.w3.org/2000/svg">
<g id="rank02">
<g id="Mask group">
<mask id="mask0_340_1694902" style="mask-type:alpha" maskUnits="userSpaceOnUse" x="3" y="3" width="300" height="300">
<circle id="Ellipse 184" cx="153" cy="153" r="150" fill="white"/>
</mask>
<g mask="url(#mask0_340_1694902)">
<g id="main_diagram">
<path id="&#224;&#184;&#155;&#224;&#184;&#163;&#224;&#184;&#176;&#224;&#184;&#152;&#224;&#184;&#178;&#224;&#184;&#153;&#224;&#184;&#163;&#224;&#184;&#177;&#224;&#184;&#144;&#224;&#184;&#170;&#224;&#184;&#160;&#224;&#184;&#178; &#224;&#184;&#149;&#224;&#184;&#163;&#224;&#184;&#167;&#224;&#184;&#136;&#224;&#184;&#170;&#224;&#184;&#173;&#224;&#184;&#154;&#224;&#185;&#128;&#224;&#184;&#173;&#224;&#184;&#129;&#224;&#184;&#170;&#224;&#184;&#178;&#224;&#184;&#163;" d="M-74.3522 286.071C-72.4054 286.071 -71.3699 284.98 -71.3699 283.089V275.136H-72.5021V282.923C-72.5021 284.345 -73.1372 285.077 -74.3522 285.077C-75.581 285.077 -76.2162 284.345 -76.2162 282.923V278.035H-77.3484V283.089C-77.3484 284.98 -76.3128 286.071 -74.3522 286.071ZM-66.6398 286.071C-64.9967 286.071 -63.9198 285.173 -63.9198 283.627C-63.9198 282.44 -64.5825 281.694 -66.1565 281.473L-66.764 281.39C-67.6615 281.266 -68.2138 280.879 -68.2138 280.12C-68.2138 279.361 -67.6615 278.864 -66.7364 278.864C-65.8251 278.864 -65.1486 279.375 -64.8172 279.858L-63.9888 279.14C-64.6377 278.339 -65.4661 277.87 -66.6536 277.87C-68.1033 277.87 -69.3045 278.629 -69.3045 280.175C-69.3045 281.639 -68.2276 282.164 -66.9159 282.357L-66.3084 282.44C-65.3419 282.578 -65.0105 283.158 -65.0105 283.765C-65.0105 284.58 -65.6318 285.077 -66.5707 285.077C-67.5234 285.077 -68.2 284.663 -68.8213 283.834L-69.6359 284.525C-68.9317 285.45 -68.0343 286.071 -66.6398 286.071ZM-61.2569 281.087L-58.8269 281.073V280.051L-61.3536 280.065V278.795L-62.4305 278.808V279.913C-62.4305 280.659 -61.9473 281.087 -61.2569 281.087ZM-61.2569 285.091L-58.8269 285.077V284.055L-61.3536 284.069V282.799L-62.4305 282.812V283.917C-62.4305 284.663 -61.9473 285.091 -61.2569 285.091ZM-54.4435 286.071C-52.6762 286.071 -51.5441 285.243 -51.5441 283.282C-51.5441 281.68 -52.3173 281.128 -54.2364 280.866L-56.2937 280.603V280.217C-56.2937 279.305 -55.7138 278.864 -54.554 278.864C-53.4356 278.864 -52.7591 279.375 -52.4277 279.858L-51.5993 279.14C-52.2482 278.339 -53.0766 277.87 -54.5126 277.87C-56.3351 277.87 -57.4121 278.767 -57.4121 280.175V280.3C-57.4121 281.128 -56.8322 281.542 -55.7828 281.694L-54.1122 281.915C-53.1181 282.053 -52.6348 282.329 -52.6348 283.365C-52.6348 284.649 -53.3114 285.077 -54.3745 285.077C-55.0511 285.077 -55.4791 284.925 -56.0038 284.635V282.398H-57.1083V285.173C-56.3351 285.767 -55.4791 286.071 -54.4435 286.071ZM-46.616 285.905H-45.4838V280.272C-45.4838 278.739 -46.4089 277.87 -48.0243 277.87C-49.2117 277.87 -50.1506 278.38 -50.6339 279.264L-49.8745 279.954C-49.4326 279.292 -48.8942 278.864 -48.0519 278.864C-47.0992 278.864 -46.616 279.319 -46.616 280.396V285.905ZM-40.5305 286.071C-39.2326 286.071 -38.6389 285.353 -38.3352 284.607H-38.28V285.905H-37.1754V278.035H-38.3076V283.544C-38.3076 284.58 -39.2603 285.063 -40.2268 285.063C-41.4004 285.063 -42.0355 284.331 -42.0355 282.923V278.035H-43.1677V283.089C-43.1677 284.98 -42.1321 286.071 -40.5305 286.071ZM-32.3647 286.071C-30.7216 286.071 -29.6447 285.173 -29.6447 283.627C-29.6447 282.44 -30.3074 281.694 -31.8814 281.473L-32.489 281.39C-33.3864 281.266 -33.9387 280.879 -33.9387 280.12C-33.9387 279.361 -33.3864 278.864 -32.4613 278.864C-31.5501 278.864 -30.8735 279.375 -30.5422 279.858L-29.7137 279.14C-30.3627 278.339 -31.1911 277.87 -32.3785 277.87C-33.8282 277.87 -35.0295 278.629 -35.0295 280.175C-35.0295 281.639 -33.9525 282.164 -32.6408 282.357L-32.0333 282.44C-31.0668 282.578 -30.7355 283.158 -30.7355 283.765C-30.7355 284.58 -31.3568 285.077 -32.2957 285.077C-33.2483 285.077 -33.9249 284.663 -34.5462 283.834L-35.3608 284.525C-34.6567 285.45 -33.7592 286.071 -32.3647 286.071ZM-31.1167 276.931H-28.3552V276.019H-31.6275V275.136H-32.6769V275.536C-32.6769 276.516 -32.2212 276.931 -31.1167 276.931ZM-21.6799 278.518V277.552H-22.9502C-23.4334 277.552 -23.751 277.814 -23.751 278.215V278.311C-24.2204 278.008 -24.8556 277.87 -25.6012 277.87C-26.9128 277.87 -27.8379 278.353 -28.4316 279.264L-27.6998 279.968C-27.2718 279.264 -26.5677 278.864 -25.5735 278.864C-24.1376 278.864 -23.3368 279.72 -23.3368 281.225V282.55C-23.3368 284.138 -24.0409 284.911 -25.0351 284.911H-25.2146L-25.8359 282.536C-26.0844 281.597 -26.3605 281.321 -27.0647 281.321H-27.9484V282.288H-27.0095L-26.0292 285.905H-25.0351C-23.2125 285.905 -22.1494 284.58 -22.1494 281.86C-22.1494 280.493 -22.4393 279.457 -23.1021 278.822V278.518H-21.6799ZM-23.3092 286.996C-23.3092 287.507 -23.5715 287.769 -23.9995 287.769C-24.5794 287.769 -24.9108 287.383 -24.9798 286.596H-26.0844L-26.3882 287.562H-27.9346V288.501H-26.9266C-25.9739 288.501 -25.4493 288.142 -25.2974 287.314L-25.256 287.079H-25.2284C-25.1317 288.073 -24.5242 288.639 -23.6544 288.639C-22.8673 288.639 -22.2598 288.183 -22.2598 287.189V286.596H-23.3092V286.996ZM-13.4995 278.518V277.552H-14.7698C-15.2531 277.552 -15.5706 277.814 -15.5706 278.215V278.311C-16.0262 278.008 -16.6338 277.87 -17.3379 277.87C-18.7048 277.87 -19.6575 278.491 -20.2236 279.402L-19.4918 280.106C-19.0638 279.402 -18.3597 278.864 -17.3655 278.864C-16.0401 278.864 -15.4049 279.457 -15.4049 280.852V281.266H-17.0894C-19.3123 281.266 -20.3755 282.053 -20.3755 283.627C-20.3755 285.146 -19.3676 285.905 -17.7798 285.905H-16.9651V284.897H-17.6417C-18.6358 284.897 -19.1881 284.538 -19.1881 283.738V283.379C-19.1881 282.688 -18.5668 282.274 -17.3241 282.274H-15.4049V285.905H-14.2727V280.728C-14.2727 279.968 -14.466 279.319 -14.9217 278.836V278.518H-13.4995ZM-8.78162 277.87C-10.7698 277.87 -11.9711 278.877 -11.9711 280.672V281.349H-9.96903V281.404C-10.687 281.57 -11.405 282.164 -11.405 283.461V284.939H-12.3715V285.905H-11.7778C-10.6318 285.905 -10.3004 285.56 -10.3004 284.207V283.158C-10.3004 282.191 -9.96903 281.418 -8.91969 281.377V280.548H-10.8665C-10.7698 279.375 -10.1347 278.864 -8.78162 278.864C-7.41471 278.864 -6.62771 279.609 -6.62771 280.921V285.905H-5.49553V280.852C-5.49553 279.029 -6.54487 277.87 -8.78162 277.87ZM-0.17882 285.905H0.953363V280.272C0.953363 278.739 0.0282866 277.87 -1.58714 277.87C-2.77456 277.87 -3.71344 278.38 -4.19669 279.264L-3.4373 279.954C-2.99547 279.292 -2.45699 278.864 -1.61476 278.864C-0.662069 278.864 -0.17882 279.319 -0.17882 280.396V285.905ZM-85.0759 304.905H-84.3027V303.193H-84.7307C-85.7662 303.193 -86.0838 302.779 -86.0838 301.426V300.183C-86.0838 299.203 -85.7938 298.637 -85.2415 298.637L-84.4821 299.576H-84.4545L-83.6813 298.637C-83.2533 298.664 -83.0876 298.982 -83.0876 299.7V304.905H-81.0166V299.576C-81.0166 297.726 -82.1073 296.801 -83.5847 296.801L-84.4545 297.905H-84.4821L-85.3382 296.801C-87.1469 296.801 -88.1548 298.002 -88.1548 300.832C-88.1548 303.828 -87.3402 304.905 -85.0759 304.905ZM-76.2676 305.071C-74.445 305.071 -73.2438 304.146 -73.2438 302.544C-73.2438 301.177 -73.9618 300.294 -75.7015 300.073L-76.2676 300.004C-76.8613 299.935 -77.2617 299.686 -77.2617 299.217C-77.2617 298.803 -76.8613 298.513 -76.2676 298.513C-75.7015 298.513 -75.1906 298.733 -74.6383 299.3L-73.3128 298.112C-73.948 297.27 -74.9283 296.801 -76.2538 296.801C-77.8416 296.801 -79.1671 297.574 -79.1671 299.341C-79.1671 300.653 -78.4215 301.398 -76.6956 301.674L-76.2676 301.743C-75.3977 301.882 -75.1492 302.227 -75.1492 302.599C-75.1492 303.069 -75.6048 303.359 -76.2123 303.359C-77.0408 303.359 -77.6897 302.986 -78.2696 302.268L-79.5813 303.511C-78.8219 304.477 -77.7863 305.071 -76.2676 305.071ZM-69.0055 305.071C-66.9068 305.071 -65.7332 303.704 -65.7332 300.929C-65.7332 298.167 -66.9344 296.801 -69.0331 296.801C-70.5242 296.801 -71.6564 297.56 -72.1259 298.858L-70.3171 299.659C-70.1791 299.051 -69.8753 298.568 -69.1021 298.568C-68.3013 298.568 -67.8595 299.134 -67.8595 300.128V301.743C-67.8595 302.738 -68.3013 303.304 -69.1021 303.304C-69.9858 303.304 -70.2067 302.765 -70.4276 302.13L-72.1673 302.889C-71.6426 304.394 -70.4414 305.071 -69.0055 305.071ZM-61.3985 296.801C-62.8897 296.801 -63.8976 297.367 -64.5189 298.305L-63.2072 299.465C-62.8344 298.996 -62.3374 298.54 -61.3985 298.54C-60.4182 298.54 -60.004 299.092 -60.004 299.962V301.509C-60.004 302.765 -60.4458 303.276 -61.0671 303.276H-61.1362L-61.578 301.398C-61.7989 300.459 -62.0889 300.183 -62.793 300.183H-64.229V301.909H-63.1796L-62.5169 304.905H-61.3847C-58.9546 304.905 -57.9329 303.732 -57.9329 300.818C-57.9329 298.098 -59.0789 296.801 -61.3985 296.801ZM-49.2147 298.085V296.58H-50.3331C-50.9544 296.58 -51.3134 296.842 -51.3548 297.477C-51.8381 297.049 -52.5698 296.87 -53.3983 296.87C-54.917 296.87 -56.0216 297.505 -56.5877 298.43L-55.3036 299.562C-54.9308 299.079 -54.4476 298.609 -53.5087 298.609C-52.5422 298.609 -52.1418 299.106 -52.1418 299.893V300.238H-53.9505C-55.7455 300.238 -56.6843 301.067 -56.6843 302.53C-56.6843 304.063 -55.7455 304.905 -54.0886 304.905H-53.0807V303.221H-53.8677C-54.3786 303.221 -54.6685 302.986 -54.6685 302.53V302.379C-54.6685 301.923 -54.3648 301.661 -53.8539 301.661H-52.1418V304.905H-50.0984V300.183C-50.0984 299.217 -50.2778 298.595 -50.6092 298.25V298.085H-49.2147ZM-44.8202 305.071C-42.5282 305.071 -41.2993 303.469 -41.2993 300.832C-41.2993 298.333 -42.542 296.801 -44.903 296.801C-46.5046 296.801 -47.6782 297.518 -48.1477 298.816L-46.2423 299.617C-46.0628 299.01 -45.6348 298.513 -44.8478 298.513C-43.9503 298.513 -43.4809 299.162 -43.4809 300.156V301.964C-43.4809 302.903 -43.9641 303.442 -44.8202 303.442C-45.6762 303.442 -46.1594 302.945 -46.1594 302.075V301.854H-44.903V300.266H-46.5184C-47.5678 300.266 -48.1615 300.86 -48.1615 302.02V302.116C-48.1615 303.966 -46.8498 305.071 -44.8202 305.071ZM-36.3451 305.071C-33.8736 305.071 -32.9623 303.939 -32.9623 301.398V296.966H-35.0334V301.799C-35.0334 302.82 -35.4062 303.331 -36.3451 303.331C-37.284 303.331 -37.6568 302.82 -37.6568 301.799V296.966H-39.7278V301.398C-39.7278 303.939 -38.8166 305.071 -36.3451 305.071ZM-28.9448 304.905H-27.7574V303.179H-28.9034V296.966H-30.9744V302.917C-30.9744 304.201 -30.3393 304.905 -28.9448 304.905ZM-23.4758 305.071C-21.1838 305.071 -19.955 303.469 -19.955 300.832C-19.955 298.333 -21.1976 296.801 -23.5586 296.801C-25.1602 296.801 -26.3338 297.518 -26.8033 298.816L-24.8979 299.617C-24.7184 299.01 -24.2904 298.513 -23.5034 298.513C-22.6059 298.513 -22.1365 299.162 -22.1365 300.156V301.964C-22.1365 302.903 -22.6197 303.442 -23.4758 303.442C-24.3318 303.442 -24.8151 302.945 -24.8151 302.075V301.854H-23.5586V300.266H-25.174C-26.2234 300.266 -26.8171 300.86 -26.8171 302.02V302.116C-26.8171 303.966 -25.5054 305.071 -23.4758 305.071ZM-15.0007 296.801C-17.2374 296.801 -18.5215 298.043 -18.5215 300.225V300.846H-16.6023V300.915C-17.4722 301.095 -18.3144 301.702 -18.3144 302.945V304.905H-16.2433V302.82C-16.2433 301.44 -15.8705 300.956 -15.0421 300.901V299.479H-16.5333C-16.409 298.858 -15.8982 298.485 -15.0835 298.485C-14.1308 298.485 -13.6062 299.023 -13.6062 300.059V304.905H-11.5351V300.225C-11.5351 298.057 -12.6949 296.801 -15.0007 296.801ZM-2.5483 298.085V296.58H-3.66668C-4.288 296.58 -4.64698 296.842 -4.6884 297.477C-5.17165 297.049 -5.90343 296.87 -6.73185 296.87C-8.25064 296.87 -9.3552 297.505 -9.9213 298.43L-8.63723 299.562C-8.26444 299.079 -7.78119 298.609 -6.84231 298.609C-5.87581 298.609 -5.47541 299.106 -5.47541 299.893V300.238H-7.28414C-9.07906 300.238 -10.0179 301.067 -10.0179 302.53C-10.0179 304.063 -9.07906 304.905 -7.42221 304.905H-6.41429V303.221H-7.2013C-7.71216 303.221 -8.00211 302.986 -8.00211 302.53V302.379C-8.00211 301.923 -7.69835 301.661 -7.18749 301.661H-5.47541V304.905H-3.43196V300.183C-3.43196 299.217 -3.61145 298.595 -3.94282 298.25V298.085H-2.5483ZM1.88766 304.905H3.95873V299.755C3.95873 297.85 2.86797 296.801 0.921163 296.801C-0.611426 296.801 -1.5365 297.38 -2.15782 298.333L-0.859954 299.493C-0.528583 298.996 0.00989406 298.54 0.796899 298.54C1.54248 298.54 1.88766 299.037 1.88766 299.81V304.905ZM8.70546 305.071C10.528 305.071 11.7292 304.146 11.7292 302.544C11.7292 301.177 11.0112 300.294 9.27155 300.073L8.70546 300.004C8.11175 299.935 7.71134 299.686 7.71134 299.217C7.71134 298.803 8.11175 298.513 8.70546 298.513C9.27155 298.513 9.78241 298.733 10.3347 299.3L11.6602 298.112C11.0251 297.27 10.0447 296.801 8.71926 296.801C7.13145 296.801 5.80596 297.574 5.80596 299.341C5.80596 300.653 6.55155 301.398 8.27744 301.674L8.70546 301.743C9.5753 301.882 9.82383 302.227 9.82383 302.599C9.82383 303.069 9.3682 303.359 8.76068 303.359C7.93226 303.359 7.28332 302.986 6.70343 302.268L5.39175 303.511C6.15114 304.477 7.18667 305.071 8.70546 305.071Z" fill="white"/>
<path id="&#224;&#184;&#165;&#224;&#185;&#136;&#224;&#184;&#178;&#224;&#184;&#163;&#224;&#184;&#178;&#224;&#184;&#162;&#224;&#184;&#138;&#224;&#184;&#183;&#224;&#185;&#136;&#224;&#184;&#173;&#224;&#185;&#131;&#224;&#184;&#171;&#224;&#185;&#137;&#224;&#184;&#132;&#224;&#184;&#163;&#224;&#184;&#154; 10,000 &#224;&#184;&#132;&#224;&#184;&#153;&#226;&#128;&#168;&#224;&#184;&#160;&#224;&#184;&#178;&#224;&#184;&#162;&#224;&#185;&#131;&#224;&#184;&#153; 45 &#224;&#184;&#167;&#224;&#184;&#177;&#224;&#184;&#153;" d="M21.1817 99.5277C19.7595 99.5277 18.8069 100.149 18.2408 101.06L18.9725 101.764C19.4006 101.06 20.1047 100.522 21.0988 100.522C22.4243 100.522 23.0594 101.116 23.0594 102.51V102.924H21.375C19.152 102.924 18.0889 103.711 18.0889 105.285C18.0889 106.804 19.0968 107.563 20.6846 107.563H21.4992V106.556H20.8227C19.8286 106.556 19.2763 106.197 19.2763 105.396V105.037C19.2763 104.346 19.8976 103.932 21.1403 103.932H23.0594V107.563H24.1916V102.344C24.1916 100.549 23.1423 99.5277 21.1817 99.5277ZM22.969 98.5889H24.046V96.2969H22.969V98.5889ZM29.511 107.563H30.6432V101.93C30.6432 100.398 29.7181 99.5277 28.1027 99.5277C26.9153 99.5277 25.9764 100.039 25.4932 100.922L26.2525 101.613C26.6944 100.95 27.2329 100.522 28.0751 100.522C29.0278 100.522 29.511 100.977 29.511 102.054V107.563ZM35.3756 107.729C37.0186 107.729 38.0956 106.832 38.0956 105.285C38.0956 104.098 37.4329 103.352 35.8588 103.131L35.2513 103.049C34.3539 102.924 33.8016 102.538 33.8016 101.778C33.8016 101.019 34.3539 100.522 35.2789 100.522C36.1902 100.522 36.8668 101.033 37.1981 101.516L38.0266 100.798C37.3776 99.9972 36.5492 99.5277 35.3618 99.5277C33.912 99.5277 32.7108 100.287 32.7108 101.834C32.7108 103.297 33.7878 103.822 35.0995 104.015L35.707 104.098C36.6735 104.236 37.0048 104.816 37.0048 105.423C37.0048 106.238 36.3835 106.735 35.4446 106.735C34.4919 106.735 33.8154 106.321 33.1941 105.492L32.3795 106.183C33.0836 107.108 33.9811 107.729 35.3756 107.729ZM42.9676 107.563H44.0997V101.93C44.0997 100.398 43.1747 99.5277 41.5592 99.5277C40.3718 99.5277 39.4329 100.039 38.9497 100.922L39.7091 101.613C40.1509 100.95 40.6894 100.522 41.5316 100.522C42.4843 100.522 42.9676 100.977 42.9676 102.054V107.563ZM49.2049 107.729C51.1517 107.729 52.1873 106.638 52.1873 104.747V99.6934H51.0551V104.581C51.0551 106.003 50.4199 106.735 49.2049 106.735C47.9899 106.735 47.3548 106.059 47.3548 104.94V103.684H49.2325V102.69H48.8736C47.769 102.69 47.4238 101.861 47.4238 100.936V100.66H49.053V99.6934H47.7966C46.8025 99.6934 46.3192 100.177 46.3192 101.019V101.088C46.3192 102.013 47.051 102.482 47.7552 102.648V102.69H47.6309C46.7196 102.69 46.2226 103.366 46.2226 104.512V104.954C46.2226 106.694 47.2581 107.729 49.2049 107.729ZM57.157 107.729C58.8966 107.729 59.9598 106.735 59.9598 105.023V104.001C59.9598 102.855 59.4489 102.082 58.5515 101.806V101.751C59.2971 101.447 59.9874 100.908 59.9874 99.9281V99.6934H58.8276V100.287C58.8276 101.171 58.3029 101.682 57.3779 101.682H57.2674V102.551H57.5021C58.4134 102.551 58.8 103.007 58.8 104.056V104.857C58.8 106.1 58.1649 106.735 57.157 106.735C56.1352 106.735 55.5001 106.224 55.5001 104.94C55.5001 102.924 56.7427 102.952 56.7427 101.212V101.047C56.7427 100.218 56.3699 99.6934 55.1273 99.6934H54.2575V100.66H55.6382V101.336C55.6382 102.828 54.3403 102.551 54.3403 104.982C54.3403 106.68 55.4035 107.729 57.157 107.729ZM59.0545 96.504V97.6776H58.4746V96.504H57.5357V97.6776H54.5119V98.5889H58.8474C59.6067 98.5889 59.9933 98.2161 59.9933 97.4705V96.504H59.0545ZM59.0548 94.9655H59.9937V93.0877H59.0548V94.9655ZM64.7623 107.729C67.0129 107.729 68.0484 106.404 68.0484 103.628C68.0484 100.936 66.9852 99.5277 64.7209 99.5277C63.3816 99.5277 62.4289 100.011 61.8076 100.922L62.567 101.599C63.0226 100.922 63.6991 100.522 64.6933 100.522C66.074 100.522 66.861 101.378 66.861 102.883V104.402C66.861 105.962 66.1568 106.735 64.7623 106.735C63.3264 106.735 62.7188 106.059 62.7188 104.402V103.987H64.1548V103.021H63.0502C62.1389 103.021 61.6143 103.477 61.6143 104.415V104.526C61.6143 106.556 62.7603 107.729 64.7623 107.729ZM71.5748 107.563H72.9555V106.597H71.5058V99.0997C72.3204 98.9202 73.2593 98.2851 73.2593 96.932C73.2593 95.6618 72.3894 94.8333 71.0363 94.8333C69.8489 94.8333 69.0067 95.4546 68.6615 96.504L69.5866 97.0839C69.8351 96.2555 70.2769 95.8136 70.9949 95.8136C71.6853 95.8136 72.0995 96.2278 72.0995 96.932V97.0839C72.0995 97.9399 71.4644 98.4508 70.4012 98.4922V106.39C70.4012 107.08 70.8154 107.563 71.5748 107.563ZM74.5036 107.563H75.6358V103.366H77.914C78.8253 103.366 79.2119 103.822 79.2119 104.871V107.563H80.3717V104.678C80.3717 103.49 79.8332 102.717 78.8805 102.455V102.4C79.6261 102.123 80.3164 101.585 80.3164 100.605V99.6934H79.1842V100.964C79.1842 101.557 78.8943 102.358 77.7345 102.358H75.6358V99.6934H74.5036V107.563ZM77.6758 98.5889H80.8929V97.6776H78.5871V97.5533C78.5871 96.7663 78.2971 96.504 77.5239 96.504H76.7093V97.4153H77.6758V98.5889ZM82.605 107.563H83.7371V105.644C83.7371 104.484 84.538 104.195 85.2697 104.195H86.2777V103.062H85.6287C84.5794 103.062 84.0409 103.711 83.7924 104.415H83.7371V102.579C83.7371 101.254 84.4965 100.522 85.7392 100.522C86.9818 100.522 87.7412 101.254 87.7412 102.579V107.563H88.8734V102.51C88.8734 100.688 87.7964 99.5277 85.7392 99.5277C83.6819 99.5277 82.605 100.688 82.605 102.51V107.563ZM93.5839 107.729C95.2269 107.729 96.3039 106.832 96.3039 105.285C96.3039 104.098 95.6411 103.352 94.0671 103.131L93.4596 103.049C92.5622 102.924 92.0099 102.538 92.0099 101.778C92.0099 101.019 92.5622 100.522 93.4872 100.522C94.3985 100.522 95.075 101.033 95.4064 101.516L96.2348 100.798C95.5859 99.9972 94.7575 99.5277 93.5701 99.5277C92.1203 99.5277 90.9191 100.287 90.9191 101.834C90.9191 103.297 91.9961 103.822 93.3077 104.015L93.9152 104.098C94.8817 104.236 95.2131 104.816 95.2131 105.423C95.2131 106.238 94.5918 106.735 93.6529 106.735C92.7002 106.735 92.0237 106.321 91.4024 105.492L90.5877 106.183C91.2919 107.108 92.1894 107.729 93.5839 107.729ZM101.148 107.729C103.095 107.729 104.131 106.638 104.131 104.747V99.6934H102.998V104.581C102.998 106.003 102.363 106.735 101.148 106.735C99.9194 106.735 99.2843 106.003 99.2843 104.581V99.6934H98.1521V104.747C98.1521 106.638 99.1876 107.729 101.148 107.729ZM109.846 107.563H116.556V105.893H114.512V97.9261H111.337L109.031 100.964L110.356 101.999L112.317 99.4311H112.441V105.893H109.846V107.563ZM120.969 107.729C123.495 107.729 124.683 105.893 124.683 102.745C124.683 99.5968 123.495 97.7604 120.969 97.7604C118.442 97.7604 117.255 99.5968 117.255 102.745C117.255 105.893 118.442 107.729 120.969 107.729ZM120.969 105.976C119.864 105.976 119.505 105.12 119.505 103.656V101.834C119.505 100.37 119.864 99.5139 120.969 99.5139C122.073 99.5139 122.432 100.37 122.432 101.834V103.656C122.432 105.12 122.073 105.976 120.969 105.976ZM125.63 109.593H127.011C127.894 108.917 128.488 107.729 128.488 106.611V106.335C128.488 105.7 128.102 105.23 127.273 105.23C126.445 105.23 126.058 105.7 126.058 106.335V106.611C126.058 107.149 126.348 107.577 126.983 107.688C126.748 108.42 126.279 108.986 125.63 109.593ZM133.522 107.729C136.048 107.729 137.236 105.893 137.236 102.745C137.236 99.5968 136.048 97.7604 133.522 97.7604C130.995 97.7604 129.808 99.5968 129.808 102.745C129.808 105.893 130.995 107.729 133.522 107.729ZM133.522 105.976C132.417 105.976 132.058 105.12 132.058 103.656V101.834C132.058 100.37 132.417 99.5139 133.522 99.5139C134.626 99.5139 134.985 100.37 134.985 101.834V103.656C134.985 105.12 134.626 105.976 133.522 105.976ZM141.801 107.729C144.327 107.729 145.515 105.893 145.515 102.745C145.515 99.5968 144.327 97.7604 141.801 97.7604C139.274 97.7604 138.087 99.5968 138.087 102.745C138.087 105.893 139.274 107.729 141.801 107.729ZM141.801 105.976C140.696 105.976 140.337 105.12 140.337 103.656V101.834C140.337 100.37 140.696 99.5139 141.801 99.5139C142.905 99.5139 143.264 100.37 143.264 101.834V103.656C143.264 105.12 142.905 105.976 141.801 105.976ZM150.08 107.729C152.606 107.729 153.794 105.893 153.794 102.745C153.794 99.5968 152.606 97.7604 150.08 97.7604C147.553 97.7604 146.365 99.5968 146.365 102.745C146.365 105.893 147.553 107.729 150.08 107.729ZM150.08 105.976C148.975 105.976 148.616 105.12 148.616 103.656V101.834C148.616 100.37 148.975 99.5139 150.08 99.5139C151.184 99.5139 151.543 100.37 151.543 101.834V103.656C151.543 105.12 151.184 105.976 150.08 105.976ZM158.391 107.563H160.462V105.672C160.462 104.94 160.959 104.567 161.953 104.567H162.519V102.841H162.105C161.235 102.841 160.71 103.283 160.531 104.167H160.462V102.745C160.462 101.723 160.945 101.198 161.884 101.198C162.823 101.198 163.306 101.723 163.306 102.745V107.563H165.377V102.883C165.377 100.715 164.162 99.4587 161.884 99.4587C159.606 99.4587 158.391 100.715 158.391 102.883V107.563ZM169.667 107.729C170.909 107.729 171.572 107.053 171.862 106.238H171.945V107.563H174.016V99.6244H171.945V104.747C171.945 105.548 171.186 105.934 170.454 105.934C169.598 105.934 169.294 105.423 169.294 104.388V99.6244H167.223V104.664C167.223 106.611 168.079 107.729 169.667 107.729ZM61.4599 118.528C59.4716 118.528 58.2704 119.536 58.2704 121.331V122.007H60.2725V122.062C59.5545 122.228 58.8365 122.822 58.8365 124.12V125.597H57.87V126.563H58.4637C59.6097 126.563 59.9411 126.218 59.9411 124.865V123.816C59.9411 122.849 60.2725 122.076 61.3218 122.035V121.206H59.375C59.4716 120.033 60.1068 119.522 61.4599 119.522C62.8268 119.522 63.6138 120.267 63.6138 121.579V126.563H64.746V121.51C64.746 119.688 63.6966 118.528 61.4599 118.528ZM70.0627 126.563H71.1948V120.93C71.1948 119.398 70.2698 118.528 68.6543 118.528C67.4669 118.528 66.528 119.039 66.0448 119.922L66.8042 120.613C67.246 119.95 67.7845 119.522 68.6267 119.522C69.5794 119.522 70.0627 119.977 70.0627 121.054V126.563ZM76.3 126.729C78.2468 126.729 79.2824 125.638 79.2824 123.747V118.693H78.1502V123.581C78.1502 125.003 77.515 125.735 76.3 125.735C75.085 125.735 74.4499 125.059 74.4499 123.94V122.684H76.3276V121.69H75.9687C74.8641 121.69 74.5189 120.861 74.5189 119.936V119.66H76.1481V118.693H74.8917C73.8976 118.693 73.4143 119.177 73.4143 120.019V120.088C73.4143 121.013 74.1461 121.482 74.8503 121.648V121.69H74.726C73.8147 121.69 73.3177 122.366 73.3177 123.512V123.954C73.3177 125.694 74.3532 126.729 76.3 126.729ZM83.2717 126.563H84.6525V125.597H83.2027V118.1C84.0173 117.92 84.9562 117.285 84.9562 115.932C84.9562 114.662 84.0864 113.833 82.7333 113.833C81.5459 113.833 80.7036 114.455 80.3584 115.504L81.2835 116.084C81.532 115.255 81.9739 114.814 82.6918 114.814C83.3822 114.814 83.7964 115.228 83.7964 115.932V116.084C83.7964 116.94 83.1613 117.451 82.0981 117.492V125.39C82.0981 126.08 82.5124 126.563 83.2717 126.563ZM88.7687 126.729C90.0666 126.729 90.6603 126.011 90.964 125.266H91.0193V126.563H92.1238V118.693H90.9916V124.202C90.9916 125.238 90.0389 125.721 89.0725 125.721C87.8988 125.721 87.2637 124.989 87.2637 123.581V118.693H86.1315V123.747C86.1315 125.638 87.1671 126.729 88.7687 126.729ZM105.062 126.563H106.167V124.672H107.561V123.705H106.167V116.926H104.441L100.409 123.65V124.672H105.062V126.563ZM101.5 123.705L104.993 117.824H105.062V123.705H101.5ZM112.236 126.729C114.266 126.729 115.481 125.417 115.481 123.54C115.481 121.676 114.266 120.557 112.609 120.557C111.601 120.557 111.09 120.972 110.635 121.621H110.538L110.814 117.948H115.039V116.926H109.875L109.53 122.228L110.511 122.366C110.911 121.924 111.353 121.551 112.236 121.551C113.548 121.551 114.252 122.283 114.252 123.554V123.692C114.252 124.962 113.548 125.694 112.236 125.694C111.077 125.694 110.593 125.183 110.096 124.423L109.227 125.086C109.806 125.915 110.635 126.729 112.236 126.729ZM122.978 126.729C125.09 126.729 126.098 125.321 126.098 122.628C126.098 119.936 125.09 118.528 122.978 118.528C121.555 118.528 120.644 119.218 120.202 120.198L121.196 120.668C121.486 119.95 122.135 119.522 122.978 119.522C124.124 119.522 124.911 120.378 124.911 121.883V123.374C124.911 124.879 124.124 125.735 122.978 125.735C122.135 125.735 121.486 125.307 121.196 124.589L120.202 125.059C120.644 126.039 121.555 126.729 122.978 126.729ZM124.691 117.589H127.453V116.678H124.18V115.794H123.131V116.194C123.131 117.175 123.587 117.589 124.691 117.589ZM130.581 126.729C131.879 126.729 132.473 126.011 132.776 125.266H132.832V126.563H133.936V118.693H132.804V124.202C132.804 125.238 131.851 125.721 130.885 125.721C129.711 125.721 129.076 124.989 129.076 123.581V118.693H127.944V123.747C127.944 125.638 128.979 126.729 130.581 126.729Z" fill="white"/>
<g id="02">
<g id="Component 7">
<path id="Union" d="M337.745 83.1853L337.458 83.6835C337.733 83.8423 338.085 83.7481 338.244 83.4729L337.745 83.1853ZM337.759 83.1617L338.017 82.6477C337.745 82.5109 337.413 82.6102 337.261 82.8741L337.759 83.1617ZM214.415 11.9803L213.917 11.6927C213.758 11.9678 213.852 12.3197 214.127 12.4785L214.415 11.9803ZM214.419 11.9726L214.918 12.2602C215.073 11.9915 214.987 11.6481 214.723 11.4842L214.419 11.9726ZM230.234 -15.4188L229.963 -14.9113C230.237 -14.7652 230.577 -14.8625 230.732 -15.1312L230.234 -15.4188ZM230.238 -15.4265L230.526 -15.9247C230.251 -16.0836 229.899 -15.9893 229.74 -15.7141L230.238 -15.4265ZM230.67 -15.177L230.383 -14.6788L230.384 -14.6782L230.67 -15.177ZM230.732 -15.1412L230.444 -14.6436L230.445 -14.6429L230.732 -15.1412ZM352.722 55.2895L352.434 55.7877L352.436 55.7885L352.722 55.2895ZM352.8 55.3346L352.511 55.832L352.512 55.8328L352.8 55.3346ZM353.569 55.7785L354.067 56.0661C354.226 55.791 354.132 55.4391 353.856 55.2802L353.569 55.7785ZM353.555 55.8018L353.057 55.5142C352.905 55.7781 352.985 56.1151 353.239 56.2825L353.555 55.8018ZM338.244 83.4729L338.257 83.4494L337.261 82.8741L337.247 82.8976L338.244 83.4729ZM214.127 12.4785L337.458 83.6835L338.033 82.687L214.703 11.4821L214.127 12.4785ZM213.921 11.6849L213.917 11.6927L214.913 12.268L214.918 12.2602L213.921 11.6849ZM208.588 -9.65505C204.152 -1.97225 206.64 7.80763 214.115 12.461L214.723 11.4842C207.773 7.15769 205.46 -1.9362 209.585 -9.07975L208.588 -9.65505ZM230.505 -15.9263C222.737 -20.0735 213.024 -17.3379 208.588 -9.65505L209.585 -9.07975C213.709 -16.2233 222.741 -18.7672 229.963 -14.9113L230.505 -15.9263ZM229.74 -15.7141L229.736 -15.7065L230.732 -15.1312L230.736 -15.1388L229.74 -15.7141ZM230.958 -15.6753L230.526 -15.9247L229.951 -14.9283L230.383 -14.6788L230.958 -15.6753ZM230.989 -15.6574C230.978 -15.6635 230.968 -15.6697 230.957 -15.6759L230.384 -14.6782C230.394 -14.6724 230.404 -14.6667 230.414 -14.6609L230.989 -15.6574ZM231.021 -15.6387C231.011 -15.645 231 -15.6512 230.989 -15.6574L230.414 -14.6609C230.424 -14.6551 230.434 -14.6494 230.444 -14.6436L231.021 -15.6387ZM353.009 54.7913L231.02 -15.6394L230.445 -14.6429L352.434 55.7877L353.009 54.7913ZM352.436 55.7885C352.448 55.7957 352.461 55.8029 352.473 55.8102L353.049 54.8138C353.035 54.806 353.022 54.7982 353.008 54.7905L352.436 55.7885ZM352.473 55.8102C352.486 55.8175 352.498 55.8247 352.511 55.832L353.089 54.8372C353.076 54.8294 353.062 54.8215 353.049 54.8138L352.473 55.8102ZM353.856 55.2802L353.088 54.8364L352.512 55.8328L353.281 56.2767L353.856 55.2802ZM354.054 56.0895L354.067 56.0661L353.071 55.4908L353.057 55.5142L354.054 56.0895ZM353.239 56.2825C359.937 60.6866 362.114 69.6079 358.054 76.6394L359.051 77.2147C363.417 69.6522 361.075 60.0581 353.871 55.3211L353.239 56.2825ZM358.054 76.6394C353.995 83.6709 345.18 86.2459 338.017 82.6477L337.501 83.6758C345.205 87.5461 354.685 84.7771 359.051 77.2147L358.054 76.6394Z" fill="white"/>
</g>
<g id="Component 4">
<path id="Union_2" d="M92.5056 78.5621L92.0074 78.8498C92.1579 79.1105 92.4841 79.2111 92.7553 79.0804L92.5056 78.5621ZM227.654 13.4403L227.459 12.899C227.441 12.9057 227.422 12.9134 227.405 12.922L227.654 13.4403ZM92.5034 78.5584L93.0017 78.2707C92.8476 78.0039 92.5107 77.9058 92.2375 78.0482L92.5034 78.5584ZM87.9671 70.7013L88.276 71.1866C88.5359 71.0212 88.6194 70.6804 88.4653 70.4136L87.9671 70.7013ZM87.9655 70.6985L87.6424 70.2224C87.393 70.3918 87.3165 70.725 87.4673 70.9861L87.9655 70.6985ZM212.128 -13.5715L212.451 -13.0955C212.467 -13.1064 212.483 -13.1182 212.498 -13.1307L212.128 -13.5715ZM214.791 -15.3789L215.065 -14.8728C215.082 -14.882 215.098 -14.892 215.114 -14.9028L214.791 -15.3789ZM214.862 -15.4272L215.361 -15.7148C215.281 -15.8533 215.147 -15.9522 214.991 -15.9879C214.835 -16.0237 214.672 -15.993 214.539 -15.9032L214.862 -15.4272ZM214.867 -15.4195L214.369 -15.1319C214.524 -14.8631 214.864 -14.7659 215.138 -14.912L214.867 -15.4195ZM230.681 11.9719L230.377 11.4835C230.114 11.6475 230.028 11.9908 230.183 12.2595L230.681 11.9719ZM230.686 11.9796L230.935 12.4979C231.08 12.4284 231.188 12.302 231.235 12.1491C231.283 11.9962 231.264 11.8306 231.184 11.692L230.686 11.9796ZM230.609 12.0165L230.359 11.4982C230.342 11.5067 230.325 11.5162 230.308 11.5265L230.609 12.0165ZM92.7553 79.0804L227.904 13.9586L227.405 12.922L92.2559 78.0438L92.7553 79.0804ZM92.0052 78.846L92.0074 78.8498L93.0038 78.2744L93.0017 78.2707L92.0052 78.846ZM85.9772 77.0882C87.3524 79.4702 90.3535 80.3278 92.7693 79.0685L92.2375 78.0482C90.3657 79.0239 88.0394 78.3589 86.9736 76.5129L85.9772 77.0882ZM87.6583 70.2159C85.3598 71.6785 84.602 74.7063 85.9772 77.0882L86.9736 76.5129C85.9078 74.6669 86.4951 72.3199 88.276 71.1866L87.6583 70.2159ZM87.4673 70.9861L87.4689 70.9889L88.4653 70.4136L88.4637 70.4108L87.4673 70.9861ZM211.805 -14.0475L87.6424 70.2224L88.2886 71.1745L212.451 -13.0955L211.805 -14.0475ZM214.111 -15.6579C213.267 -15.1703 212.482 -14.6186 211.759 -14.0124L212.498 -13.1307C213.17 -13.6942 213.9 -14.2074 214.687 -14.6615L214.111 -15.6579ZM214.518 -15.8849C214.382 -15.8114 214.246 -15.7357 214.111 -15.6579L214.687 -14.6615C214.812 -14.7339 214.938 -14.8043 215.065 -14.8728L214.518 -15.8849ZM214.539 -15.9032L214.468 -15.8549L215.114 -14.9028L215.185 -14.9512L214.539 -15.9032ZM215.365 -15.7071L215.361 -15.7148L214.364 -15.1395L214.369 -15.1319L215.365 -15.7071ZM236.512 -9.65561C232.077 -17.3384 222.363 -20.074 214.596 -15.927L215.138 -14.912C222.36 -18.7677 231.392 -16.2238 235.516 -9.08032L236.512 -9.65561ZM230.985 12.4603C238.46 7.80691 240.948 -1.97288 236.512 -9.65561L235.516 -9.08032C239.64 -1.93682 237.327 7.15698 230.377 11.4835L230.985 12.4603ZM231.184 11.692L231.179 11.6842L230.183 12.2595L230.187 12.2673L231.184 11.692ZM230.859 12.5347L230.935 12.4979L230.436 11.4613L230.359 11.4982L230.859 12.5347ZM230.51 12.7453C230.645 12.6673 230.779 12.5877 230.911 12.5065L230.308 11.5265C230.185 11.6021 230.061 11.6762 229.935 11.7488L230.51 12.7453ZM227.849 13.9816C228.756 13.655 229.647 13.2438 230.51 12.7453L229.935 11.7488C229.131 12.213 228.302 12.5955 227.459 12.899L227.849 13.9816Z" fill="white"/>
</g>
<path id="&#224;&#185;&#132;&#224;&#184;&#161;&#224;&#185;&#136;&#224;&#185;&#128;&#224;&#184;&#155;&#224;&#185;&#135;&#224;&#184;&#153;&#224;&#185;&#132;&#224;&#184;&#155;&#224;&#184;&#149;&#224;&#184;&#178;&#224;&#184;&#161;" d="M249.938 8.73555L247.292 7.20814L247.173 7.4144L247.045 7.84283L248.731 8.81624C248.057 8.76186 247.558 8.96386 247.009 9.91446L244.261 14.6533C243.982 15.1376 244.16 15.6355 244.636 15.9099C244.806 16.0083 244.938 16.0487 245.061 16.0839L245.357 15.8001L245.45 15.6387L245.127 15.4523C244.966 15.3591 244.923 15.2266 245.042 15.0203L247.721 10.4211C248.429 9.21563 248.925 9.14334 249.586 9.34537L249.938 8.73555ZM248.444 18.1564C249.35 18.6793 250.489 18.6317 251.079 17.6094L252.457 15.2239C252.643 14.901 252.726 14.841 252.983 14.9539L253.214 15.0513L253.473 14.6029L251.751 13.6088L251.492 14.0572L251.692 14.2083C251.918 14.375 251.908 14.4765 251.721 14.7993L250.365 17.1489C249.961 17.8484 249.353 17.8444 248.752 17.4975C247.838 16.9694 247.753 16.0597 247.753 16.0597L249.814 12.4904L248.594 11.7862L248.33 12.2436L248.539 12.4C248.756 12.5615 248.747 12.6398 248.561 12.9626L246.888 15.8593C246.686 16.209 246.6 16.2549 246.401 16.1641L246.185 16.0629L245.895 16.5652L246.926 17.1606C247.059 17.034 247.219 16.8395 247.341 16.6705C247.341 16.6705 247.422 17.5661 248.444 18.1564ZM253.389 13.5862L254.114 12.3307L253.397 11.9165L252.672 13.172L253.389 13.5862ZM252.526 20.4656C252.715 20.5744 252.919 20.6562 253.042 20.6914L253.328 20.4024L253.421 20.241L253.072 20.0391C252.91 19.9459 252.879 19.8558 252.987 19.6675L254.779 16.5646C254.976 16.2238 255.035 16.1624 255.216 16.2428L255.446 16.3402L255.705 15.8918L254.163 15.0012L253.904 15.4496L254.104 15.6008C254.255 15.7119 254.24 15.7992 254.043 16.14L252.185 19.3595C251.921 19.8169 252.015 20.1705 252.526 20.4656ZM256.174 22.6194C257.394 23.3235 258.522 23.15 259.133 22.0918L262.1 16.9532L261.885 16.8289L261.266 16.699L258.398 21.6672C258.015 22.3309 257.299 22.4317 256.536 21.9916C255.774 21.5515 255.504 20.8811 255.887 20.2175L257.714 17.0518L256.495 16.3476L256.231 16.805L256.439 16.9614C256.657 17.1229 256.648 17.2012 256.461 17.524L255.151 19.7929C254.54 20.8512 254.954 21.9152 256.174 22.6194ZM258.357 16.5737L259.165 16.5619L259.505 17.2364L260.106 17.5833L260.533 17.2564L260.621 17.104L259.994 16.7415L259.597 16.0821L259.4 15.9682L258.693 15.9908L258.487 15.8717C258.37 15.8044 258.287 15.5767 258.416 15.3525L258.452 15.2897C258.597 15.0386 258.812 15.019 259.242 15.2675L260.937 16.2461L261.365 15.9192L261.453 15.7667L259.552 14.6691C258.763 14.2134 258.087 14.3491 257.771 14.8962L257.693 15.0307C257.439 15.4701 257.577 16.1232 258.043 16.3925L258.357 16.5737ZM261.291 25.5738C262.116 26.0502 262.729 25.9617 263.124 25.7952C263.027 26.026 262.986 26.2416 262.966 26.4213L263.953 26.9908L264.243 26.4886C263.878 26.2301 263.86 26.1363 264.067 25.7775L265.734 22.8899C265.921 22.567 266.003 22.507 266.261 22.6199L266.492 22.7173L266.751 22.2689L265.029 21.2748L264.77 21.7232L264.97 21.8743C265.196 22.041 265.186 22.1424 264.999 22.4653L263.482 25.0929C262.999 25.3284 262.371 25.3603 261.725 24.9875C261.107 24.6302 260.824 24.0844 261.212 23.4118L263.092 20.1564L261.872 19.4522L261.608 19.9096L261.817 20.0659C262.034 20.2275 262.025 20.3058 261.839 20.6286L260.435 23.0589C259.85 24.0723 260.35 25.0302 261.291 25.5738ZM271.184 21.0022L268.539 19.4748L268.419 19.681L268.292 20.1095L269.978 21.0829C269.304 21.0285 268.804 21.2305 268.255 22.1811L265.508 26.92C265.228 27.4042 265.407 27.9021 265.882 28.1765C266.053 28.2749 266.185 28.3153 266.308 28.3505L266.603 28.0667L266.696 27.9053L266.374 27.7189C266.212 27.6257 266.169 27.4932 266.288 27.2869L268.967 22.6877C269.675 21.4822 270.171 21.41 270.832 21.612L271.184 21.0022ZM269.565 30.3505C270.784 31.0546 271.913 30.8811 272.524 29.8229L275.491 24.6843L275.275 24.56L274.657 24.4301L271.788 29.3983C271.405 30.062 270.689 30.1628 269.927 29.7227C269.165 29.2826 268.894 28.6122 269.277 27.9486L271.105 24.7829L269.885 24.0787L269.621 24.5361L269.83 24.6925C270.048 24.854 270.038 24.9323 269.852 25.2551L268.542 27.524C267.931 28.5823 268.345 29.6463 269.565 30.3505ZM277.722 34.2946C277.495 34.1279 277.506 34.0265 277.692 33.7036L278.966 31.4975C279.484 30.6007 279.404 29.7655 278.641 29.098L278.462 28.9945L277.548 29.1484L277.176 28.2399L276.996 28.1364C276.102 27.8832 275.302 28.2342 274.805 29.0951L273.469 31.4088C273.339 31.633 273.253 31.6789 273.112 31.6333L272.962 31.5825L272.698 32.0399L273.424 32.4593C274.599 33.1376 275.954 32.9869 276.679 31.7314C276.823 31.4803 276.919 31.1288 276.848 30.9204L276.103 30.4906L275.71 31.1722C275.893 31.2899 275.904 31.4158 275.816 31.5683C275.423 32.2498 274.721 32.3469 274.064 32.0755L275.54 29.5197C275.856 28.9726 276.205 28.6364 276.771 28.8791L277.147 29.7182L277.273 29.7907L278.161 29.6816C278.7 30.0526 278.562 30.499 278.23 31.073L276.957 33.2791C276.77 33.6019 276.688 33.6619 276.43 33.549L276.199 33.4517L275.935 33.909L277.657 34.9032L277.921 34.4458L277.722 34.2946ZM281.872 37.3367L282.131 36.8883L281.931 36.7371C281.705 36.5704 281.716 36.469 281.902 36.1461L283.31 33.7068C283.869 32.7383 283.703 31.9489 282.484 31.2447C281.757 30.8253 280.993 30.8027 280.52 30.8764C280.395 31.1147 280.273 31.3672 280.156 31.6107L280.739 31.9473C280.996 31.6889 281.459 31.4662 282.123 31.8494C282.679 32.1704 282.927 32.6724 282.575 33.2823L281.167 35.7215C280.98 36.0444 280.898 36.1044 280.64 35.9915L280.409 35.8941L280.15 36.3425L281.872 37.3367ZM284.885 39.1957C285.791 39.7186 286.93 39.671 287.521 38.6487L288.898 36.2632C289.084 35.9404 289.167 35.8804 289.424 35.9932L289.655 36.0906L289.914 35.6422L288.192 34.6481L287.933 35.0965L288.133 35.2477C288.36 35.4144 288.349 35.5158 288.162 35.8386L286.806 38.1882C286.402 38.8877 285.795 38.8838 285.194 38.5369C284.279 38.0087 284.194 37.099 284.194 37.099L286.255 33.5297L285.035 32.8256L284.771 33.2829L284.98 33.4393C285.198 33.6008 285.188 33.6791 285.002 34.002L283.33 36.8986C283.128 37.2484 283.041 37.2942 282.843 37.2034L282.626 37.1023L282.336 37.6045L283.367 38.1999C283.5 38.0733 283.66 37.8788 283.782 37.7098C283.782 37.7098 283.863 38.6054 284.885 39.1957Z" fill="#FF8058"/>
<path id="&#224;&#185;&#128;&#224;&#184;&#155;&#224;&#185;&#135;&#224;&#184;&#153;&#224;&#185;&#132;&#224;&#184;&#155;&#224;&#184;&#149;&#224;&#184;&#178;&#224;&#184;&#161;" d="M169.06 33.6557C169.249 33.547 169.421 33.4113 169.513 33.3223L169.406 32.9297L169.313 32.7683L168.963 32.9702C168.802 33.0634 168.708 33.0459 168.599 32.8575L166.808 29.7546C166.611 29.4138 166.588 29.3317 166.748 29.2154L166.947 29.0642L166.689 28.6158L165.146 29.5064L165.405 29.9548L165.636 29.8574C165.807 29.7822 165.876 29.8384 166.073 30.1792L167.931 33.3987C168.195 33.8561 168.549 33.9508 169.06 33.6557ZM172.749 31.5737C173.969 30.8695 174.383 29.8055 173.772 28.7472L170.805 23.6086L170.59 23.7328L170.168 24.2035L173.036 29.1718C173.42 29.8354 173.149 30.5058 172.387 30.9459C171.624 31.386 170.909 31.2852 170.525 30.6215L168.698 27.4559L167.478 28.16L167.742 28.6174L167.982 28.5148C168.231 28.4071 168.294 28.4544 168.48 28.7772L169.79 31.0461C170.401 32.1043 171.53 32.2778 172.749 31.5737ZM168.605 26.6605L168.999 25.9549L169.753 25.9978L170.354 25.6509L170.284 25.1169L170.196 24.9644L169.569 25.3268L168.799 25.3405L168.602 25.4544L168.268 26.0776L168.062 26.1967C167.945 26.264 167.706 26.2227 167.577 25.9985L167.541 25.9357C167.396 25.6846 167.486 25.489 167.916 25.2404L169.611 24.2619L169.542 23.7278L169.454 23.5754L167.553 24.673C166.764 25.1287 166.543 25.7822 166.859 26.3292L166.937 26.4637C167.19 26.9032 167.825 27.111 168.291 26.8417L168.605 26.6605ZM177.866 28.6193C178.691 28.1429 178.921 27.5678 178.975 27.1424C179.126 27.3421 179.292 27.4852 179.438 27.5924L180.424 27.0229L180.134 26.5207C179.728 26.7074 179.638 26.6757 179.431 26.317L177.764 23.4293C177.577 23.1065 177.567 23.0051 177.793 22.8384L177.993 22.6872L177.734 22.2388L176.012 23.2329L176.271 23.6813L176.502 23.5839C176.759 23.471 176.842 23.531 177.028 23.8539L178.545 26.4815C178.508 27.0173 178.221 27.5773 177.576 27.9501C176.957 28.3073 176.343 28.2792 175.955 27.6067L174.075 24.3513L172.855 25.0554L173.119 25.5128L173.359 25.4103C173.608 25.3026 173.671 25.3498 173.857 25.6726L175.261 28.103C175.846 29.1163 176.925 29.1629 177.866 28.6193ZM178.854 17.766L176.208 19.2934L176.327 19.4997L176.634 19.8245L178.32 18.8511C177.936 19.4077 177.862 19.9411 178.41 20.8917L181.14 25.6409C181.42 26.1252 181.941 26.2192 182.416 25.9448C182.586 25.8464 182.687 25.7522 182.779 25.6632L182.681 25.2654L182.588 25.104L182.265 25.2904C182.104 25.3836 181.968 25.3547 181.848 25.1484L179.205 20.5285C178.515 19.3127 178.701 18.8469 179.206 18.3758L178.854 17.766ZM186.14 23.8426C187.36 23.1384 187.773 22.0744 187.163 21.0161L184.196 15.8775L183.98 16.0017L183.559 16.4724L186.427 21.4407C186.81 22.1043 186.54 22.7747 185.777 23.2148C185.015 23.6549 184.299 23.5541 183.916 22.8904L182.088 19.7247L180.869 20.4289L181.133 20.8863L181.373 20.7837C181.621 20.676 181.684 20.7233 181.871 21.0461L183.181 23.315C183.792 24.3732 184.92 24.5467 186.14 23.8426ZM193.634 18.7506C193.376 18.8634 193.294 18.8034 193.107 18.4806L191.834 16.2745C191.316 15.3777 190.553 15.0291 189.594 15.3558L189.414 15.4594L189.09 16.3278L188.118 16.196L187.938 16.2995C187.272 16.9473 187.176 17.816 187.673 18.6769L189.008 20.9907C189.138 21.2149 189.135 21.3125 189.024 21.4119L188.906 21.5164L189.17 21.9738L189.896 21.5544C191.071 20.8761 191.618 19.6278 190.893 18.3723C190.748 18.1212 190.491 17.8629 190.275 17.8202L189.531 18.2499L189.924 18.9315C190.118 18.8317 190.232 18.8852 190.32 19.0376C190.714 19.7192 190.447 20.3754 189.884 20.8082L188.408 18.2523C188.092 17.7053 187.976 17.2344 188.469 16.8662L189.384 16.9597L189.509 16.8872L189.859 16.0636C190.45 15.7823 190.767 16.1251 191.098 16.699L192.372 18.9052C192.559 19.228 192.569 19.3294 192.343 19.4961L192.143 19.6473L192.407 20.1047L194.129 19.1106L193.865 18.6532L193.634 18.7506ZM198.344 16.6771L198.085 16.2287L197.854 16.326C197.596 16.4389 197.514 16.3789 197.328 16.0561L195.919 13.6168C195.36 12.6482 194.593 12.3973 193.374 13.1015C192.647 13.5209 192.246 14.1713 192.073 14.6178C192.217 14.8458 192.374 15.0775 192.527 15.3004L193.11 14.9638C193.014 14.6123 193.053 14.0996 193.717 13.7165C194.273 13.3955 194.832 13.4315 195.184 14.0413L196.592 16.4806C196.779 16.8035 196.789 16.9049 196.563 17.0716L196.363 17.2228L196.622 17.6712L198.344 16.6771ZM201.46 14.9974C202.366 14.4744 202.894 13.4638 202.304 12.4415L200.927 10.056C200.741 9.73314 200.73 9.63171 200.956 9.46501L201.156 9.31384L200.897 8.86545L199.175 9.85956L199.434 10.308L199.665 10.2106C199.923 10.0977 200.005 10.1577 200.192 10.4806L201.548 12.8302C201.952 13.5297 201.645 14.0538 201.044 14.4007C200.129 14.9288 199.299 14.5472 199.299 14.5472L197.238 10.9779L196.019 11.6821L196.283 12.1395L196.522 12.0369C196.771 11.9292 196.834 11.9765 197.021 12.2993L198.693 15.196C198.895 15.5457 198.892 15.6433 198.714 15.77L198.518 15.907L198.808 16.4092L199.839 15.8138C199.796 15.6355 199.707 15.3995 199.622 15.2098C199.622 15.2098 200.438 15.5876 201.46 14.9974Z" fill="white"/>
<g id="Component 64">
<g id="Frame 756">
<rect x="213.831" y="-9.83936" width="17.2589" height="17.2589" rx="8.62944" fill="white"/>
</g>
</g>
</g>
<g id="03">
<g id="Component 8">
<path id="Union_3" d="M339.761 187.822L340.049 188.32C340.324 188.161 340.418 187.809 340.26 187.534L339.761 187.822ZM339.748 187.798L339.432 187.318C339.177 187.485 339.097 187.822 339.25 188.086L339.748 187.798ZM216.431 259.027L215.933 259.315C216.091 259.59 216.443 259.684 216.718 259.525L216.431 259.027ZM216.426 259.019L216.925 258.732C216.769 258.463 216.429 258.366 216.155 258.512L216.426 259.019ZM200.612 231.628L200.916 232.116C201.179 231.952 201.265 231.609 201.11 231.34L200.612 231.628ZM200.608 231.62L200.32 231.122C200.045 231.281 199.95 231.633 200.109 231.908L200.608 231.62ZM201.055 231.362L201.343 231.86L201.344 231.859L201.055 231.362ZM201.086 231.344L201.373 231.842L201.374 231.842L201.086 231.344ZM323.059 160.923L323.347 161.421L323.349 161.419L323.059 160.923ZM323.202 160.84L323.487 161.34L323.489 161.339L323.202 160.84ZM323.938 160.415L324.436 160.128C324.36 159.995 324.234 159.899 324.087 159.859C323.94 159.82 323.783 159.841 323.65 159.917L323.938 160.415ZM323.951 160.438L323.453 160.726C323.606 160.99 323.937 161.089 324.21 160.952L323.951 160.438ZM340.26 187.534L340.246 187.511L339.25 188.086L339.263 188.11L340.26 187.534ZM216.718 259.525L340.049 188.32L339.474 187.324L216.143 258.529L216.718 259.525ZM215.928 259.307L215.933 259.315L216.929 258.739L216.925 258.732L215.928 259.307ZM194.781 253.255C199.216 260.938 208.93 263.674 216.697 259.527L216.155 258.512C208.933 262.367 199.901 259.824 195.777 252.68L194.781 253.255ZM200.308 231.139C192.833 235.793 190.345 245.573 194.781 253.255L195.777 252.68C191.653 245.537 193.966 236.443 200.916 232.116L200.308 231.139ZM200.109 231.908L200.114 231.915L201.11 231.34L201.106 231.332L200.109 231.908ZM200.768 230.863L200.32 231.122L200.895 232.118L201.343 231.86L200.768 230.863ZM200.783 230.854C200.778 230.858 200.772 230.861 200.767 230.864L201.344 231.859C201.348 231.857 201.353 231.854 201.358 231.851L200.783 230.854ZM200.799 230.845C200.794 230.848 200.788 230.851 200.783 230.854L201.358 231.851C201.363 231.848 201.368 231.845 201.373 231.842L200.799 230.845ZM322.771 160.425L200.798 230.846L201.374 231.842L323.347 161.421L322.771 160.425ZM323.349 161.419C323.372 161.406 323.395 161.393 323.418 161.38L322.843 160.383C322.818 160.397 322.793 160.412 322.769 160.426L323.349 161.419ZM323.418 161.38C323.441 161.366 323.464 161.353 323.487 161.34L322.917 160.341C322.892 160.355 322.867 160.369 322.843 160.383L323.418 161.38ZM323.65 159.917L322.914 160.342L323.489 161.339L324.226 160.913L323.65 159.917ZM324.45 160.151L324.436 160.128L323.44 160.703L323.453 160.726L324.45 160.151ZM324.21 160.952C331.373 157.354 340.187 159.929 344.247 166.961L345.243 166.385C340.877 158.823 331.397 156.054 323.693 159.924L324.21 160.952ZM344.247 166.961C348.307 173.992 346.129 182.914 339.432 187.318L340.064 188.279C347.268 183.542 349.61 173.948 345.243 166.385L344.247 166.961Z" fill="white"/>
</g>
<g id="Component 9">
<path id="Union_4" d="M217.799 231.818L218.297 232.106C218.456 231.831 218.362 231.479 218.087 231.32L217.799 231.818ZM94.4687 160.613L94.7563 160.115C94.6242 160.039 94.4671 160.018 94.3198 160.058C94.1724 160.097 94.0467 160.194 93.9704 160.326L94.4687 160.613ZM217.786 231.842L217.287 231.554C217.135 231.818 217.215 232.155 217.47 232.323L217.786 231.842ZM201.989 259.202L202.248 258.688C201.975 258.551 201.643 258.65 201.491 258.914L201.989 259.202ZM201.976 259.225L201.688 259.723C201.963 259.882 202.315 259.788 202.474 259.513L201.976 259.225ZM201.227 258.793L201.514 258.294L201.512 258.293L201.227 258.793ZM201.11 258.725L201.399 258.228L201.397 258.227L201.11 258.725ZM79.1716 188.324L79.4593 187.826L79.457 187.825L79.1716 188.324ZM79.0455 188.251L79.3354 187.754L79.3332 187.753L79.0455 188.251ZM78.6453 188.02L78.1471 187.733C77.9882 188.008 78.0825 188.36 78.3577 188.518L78.6453 188.02ZM78.6497 188.013L79.1479 188.3C79.303 188.032 79.2171 187.688 78.9537 187.524L78.6497 188.013ZM94.4641 160.621L94.1932 161.129C94.4669 161.275 94.8072 161.178 94.9623 160.909L94.4641 160.621ZM218.087 231.32L94.7563 160.115L94.181 161.112L217.512 232.317L218.087 231.32ZM218.284 232.13L218.297 232.106L217.301 231.531L217.287 231.554L218.284 232.13ZM217.47 232.323C224.167 236.727 226.345 245.648 222.285 252.68L223.281 253.255C227.648 245.692 225.306 236.098 218.102 231.361L217.47 232.323ZM222.285 252.68C218.225 259.711 209.41 262.286 202.248 258.688L201.731 259.716C209.435 263.586 218.915 260.817 223.281 253.255L222.285 252.68ZM202.474 259.513L202.488 259.49L201.491 258.914L201.478 258.938L202.474 259.513ZM200.939 259.291L201.688 259.723L202.264 258.727L201.514 258.294L200.939 259.291ZM201.512 258.293C201.493 258.282 201.474 258.272 201.456 258.261L200.88 259.257C200.901 259.269 200.921 259.28 200.941 259.292L201.512 258.293ZM201.456 258.261C201.437 258.25 201.418 258.239 201.399 258.228L200.82 259.222C200.84 259.234 200.86 259.245 200.88 259.257L201.456 258.261ZM78.884 188.822L200.822 259.223L201.397 258.227L79.4593 187.826L78.884 188.822ZM78.8208 188.786C78.8426 188.799 78.8644 188.811 78.8862 188.824L79.457 187.825C79.4367 187.813 79.4164 187.801 79.3961 187.79L78.8208 188.786ZM78.7556 188.748C78.7773 188.761 78.7991 188.773 78.8208 188.786L79.3961 187.79C79.3759 187.778 79.3556 187.766 79.3354 187.754L78.7556 188.748ZM78.3577 188.518L78.7579 188.749L79.3332 187.753L78.933 187.522L78.3577 188.518ZM78.1515 187.725L78.1471 187.733L79.1435 188.308L79.1479 188.3L78.1515 187.725ZM72.8185 166.385C68.3829 174.068 70.8704 183.848 78.3457 188.501L78.9537 187.524C72.0036 183.198 69.6907 174.104 73.815 166.96L72.8185 166.385ZM94.7351 160.114C86.9675 155.967 77.2542 158.702 72.8185 166.385L73.815 166.96C77.9393 159.817 86.9712 157.273 94.1932 161.129L94.7351 160.114ZM93.9704 160.326L93.9659 160.334L94.9623 160.909L94.9669 160.901L93.9704 160.326Z" fill="white"/>
</g>
<g id="Component 10">
<path id="Union_5" d="M76.3615 162.467L76.6846 162.943C76.7006 162.932 76.7162 162.921 76.731 162.908L76.3615 162.467ZM79.0185 160.664L79.2923 161.17C79.3092 161.161 79.3256 161.151 79.3416 161.14L79.0185 160.664ZM79.0925 160.614L79.5907 160.326C79.5108 160.188 79.3769 160.089 79.2211 160.053C79.0653 160.017 78.9017 160.048 78.7695 160.138L79.0925 160.614ZM79.0971 160.622L78.5989 160.909C78.7541 161.178 79.0944 161.275 79.3681 161.129L79.0971 160.622ZM94.9116 188.013L94.6075 187.525C94.3441 187.689 94.2582 188.032 94.4133 188.301L94.9116 188.013ZM94.9158 188.02L95.1656 188.539C95.3097 188.469 95.4184 188.343 95.4656 188.19C95.5128 188.037 95.4941 187.871 95.4141 187.733L94.9158 188.02ZM94.8425 188.056L94.5927 187.538C94.575 187.546 94.5577 187.556 94.5409 187.566L94.8425 188.056ZM91.8818 189.482L91.687 188.941C91.6683 188.948 91.65 188.956 91.632 188.964L91.8818 189.482ZM-43.2643 254.603L-43.7625 254.891C-43.612 255.151 -43.2858 255.252 -43.0146 255.121L-43.2643 254.603ZM-43.2663 254.599L-42.7681 254.312C-42.9221 254.045 -43.259 253.947 -43.5322 254.089L-43.2663 254.599ZM-47.8026 246.742L-47.4938 247.228C-47.2339 247.062 -47.1504 246.721 -47.3044 246.455L-47.8026 246.742ZM-47.8044 246.739L-48.1274 246.263C-48.3769 246.433 -48.4533 246.766 -48.3026 247.027L-47.8044 246.739ZM78.3419 160.383C77.4984 160.87 76.7142 161.421 75.992 162.026L76.731 162.908C77.4023 162.346 78.1318 161.833 78.9172 161.38L78.3419 160.383ZM78.7447 160.158C78.6098 160.231 78.4755 160.306 78.3419 160.383L78.9172 161.38C79.0417 161.308 79.1667 161.238 79.2923 161.17L78.7447 160.158ZM78.7695 160.138L78.6954 160.188L79.3416 161.14L79.4156 161.09L78.7695 160.138ZM79.5953 160.334L79.5907 160.326L78.5943 160.901L78.5989 160.909L79.5953 160.334ZM100.743 166.385C96.3072 158.703 86.5937 155.967 78.8262 160.114L79.3681 161.129C86.59 157.273 95.622 159.817 99.7464 166.961L100.743 166.385ZM95.2156 188.501C102.691 183.848 105.178 174.068 100.743 166.385L99.7464 166.961C103.871 174.104 101.558 183.198 94.6075 187.525L95.2156 188.501ZM95.4141 187.733L95.4098 187.725L94.4133 188.301L94.4176 188.308L95.4141 187.733ZM95.0922 188.574L95.1656 188.539L94.6661 187.502L94.5927 187.538L95.0922 188.574ZM94.7405 188.786C94.8766 188.708 95.0111 188.628 95.144 188.546L94.5409 187.566C94.4172 187.642 94.2919 187.717 94.1652 187.79L94.7405 188.786ZM92.0765 190.024C92.9846 189.697 93.8761 189.285 94.7405 188.786L94.1652 187.79C93.3603 188.255 92.531 188.637 91.687 188.941L92.0765 190.024ZM-43.0146 255.121L92.1315 190.001L91.632 188.964L-43.514 254.085L-43.0146 255.121ZM-43.7645 254.887L-43.7625 254.891L-42.7661 254.315L-42.7681 254.312L-43.7645 254.887ZM-49.7927 253.129C-48.4174 255.511 -45.4163 256.369 -43.0004 255.11L-43.5322 254.089C-45.4041 255.065 -47.7304 254.4 -48.7962 252.554L-49.7927 253.129ZM-48.1115 246.257C-50.41 247.72 -51.1679 250.747 -49.7927 253.129L-48.7962 252.554C-49.862 250.708 -49.2747 248.361 -47.4938 247.228L-48.1115 246.257ZM-48.3026 247.027L-48.3009 247.03L-47.3044 246.455L-47.3061 246.452L-48.3026 247.027ZM76.0384 161.991L-48.1274 246.263L-47.4813 247.215L76.6846 162.943L76.0384 161.991Z" fill="white"/>
</g>
<path id="&#224;&#185;&#132;&#224;&#184;&#161;&#224;&#185;&#136;&#224;&#184;&#132;&#224;&#184;&#163;&#224;&#184;&#154;" d="M114.167 184.776L111.522 183.249L111.403 183.455L111.275 183.883L112.961 184.857C112.287 184.802 111.787 185.004 111.239 185.955L108.491 190.694C108.211 191.178 108.39 191.676 108.865 191.95C109.036 192.049 109.168 192.089 109.291 192.124L109.586 191.841L109.679 191.679L109.357 191.493C109.195 191.4 109.152 191.267 109.271 191.061L111.95 186.462C112.658 185.256 113.155 185.184 113.815 185.386L114.167 184.776ZM112.673 194.197C113.579 194.72 114.719 194.672 115.309 193.65L116.686 191.264C116.873 190.942 116.955 190.882 117.213 190.994L117.443 191.092L117.702 190.643L115.98 189.649L115.722 190.098L115.921 190.249C116.148 190.416 116.137 190.517 115.951 190.84L114.594 193.189C114.19 193.889 113.583 193.885 112.982 193.538C112.067 193.01 111.983 192.1 111.983 192.1L114.043 188.531L112.824 187.827L112.56 188.284L112.768 188.44C112.986 188.602 112.977 188.68 112.79 189.003L111.118 191.9C110.916 192.25 110.83 192.295 110.631 192.205L110.414 192.103L110.124 192.606L111.156 193.201C111.289 193.075 111.449 192.88 111.57 192.711C111.57 192.711 111.651 193.607 112.673 194.197ZM117.619 189.627L118.344 188.371L117.626 187.957L116.901 189.213L117.619 189.627ZM120.398 197.903C120.171 197.736 120.182 197.635 120.373 197.303L121.621 195.142C122.232 194.084 121.915 192.956 120.65 192.226C119.386 191.496 118.25 191.785 117.639 192.843L116.381 195.022C116.19 195.354 116.126 195.401 115.878 195.294L115.638 195.191L115.379 195.639L116.599 196.344L116.909 195.806C117.526 194.738 118.329 194.569 118.751 194.812C118.876 194.884 118.945 194.972 118.94 195.064L119.478 195.375L119.859 194.818C119.794 194.661 119.569 194.471 119.336 194.337C118.923 194.099 118.343 194.027 117.738 194.371L118.375 193.268C118.81 192.514 119.481 192.388 120.288 192.854C121.095 193.32 121.321 193.964 120.886 194.717L119.638 196.879C119.446 197.21 119.364 197.27 119.106 197.158L118.875 197.06L118.617 197.509L120.338 198.503L120.597 198.054L120.398 197.903ZM122.667 199.967C123.77 200.604 124.792 200.595 125.371 199.591C125.812 198.829 125.397 198.076 124.732 197.488C123.591 196.482 123.667 196.144 123.905 195.731C124.154 195.301 124.616 195.245 125.271 195.623C125.674 195.856 125.957 196.174 126.072 196.576L126.61 196.886C126.61 196.886 126.769 196.715 127.033 196.258C126.783 195.946 126.184 195.409 125.61 195.077C124.623 194.508 123.656 194.547 123.175 195.381C122.745 196.126 123.025 196.861 123.787 197.552C124.887 198.546 124.816 198.792 124.537 199.276C124.293 199.698 123.78 199.82 123.063 199.406C122.57 199.121 122.264 198.801 122.194 198.343L121.647 198.027C121.448 198.33 121.408 198.379 121.207 198.706C121.39 198.907 121.717 199.418 122.667 199.967ZM127.671 202.856C128.981 203.612 130.116 203.323 130.727 202.265L131.985 200.085C132.172 199.763 132.254 199.703 132.512 199.816L132.743 199.913L132.996 199.473L131.275 198.479L131.021 198.919L131.22 199.07C131.447 199.237 131.436 199.338 131.25 199.661L129.992 201.84C129.609 202.504 128.886 202.72 128.034 202.228C127.182 201.736 127.008 201.002 127.391 200.339L129.167 197.263L127.947 196.558L127.683 197.016L127.892 197.172C128.11 197.334 128.1 197.412 127.914 197.735L126.656 199.914C126.045 200.972 126.362 202.1 127.671 202.856Z" fill="#FF8058"/>
<path id="&#224;&#184;&#132;&#224;&#184;&#163;&#224;&#184;&#154;" d="M56.0869 193.682C55.8292 193.795 55.7467 193.735 55.5551 193.403L54.3073 191.242C53.6964 190.184 52.5609 189.895 51.2964 190.625C50.032 191.355 49.7146 192.483 50.3255 193.541L51.5837 195.72C51.7753 196.052 51.7846 196.13 51.567 196.292L51.3583 196.448L51.6172 196.896L52.8369 196.192L52.5262 195.654C51.9101 194.587 52.1648 193.806 52.5862 193.563C52.7118 193.49 52.8222 193.474 52.8995 193.526L53.4376 193.215L53.1459 192.606C52.9775 192.584 52.7005 192.684 52.4673 192.818C52.0548 193.057 51.7024 193.523 51.6978 194.219L51.0609 193.116C50.626 192.363 50.8518 191.718 51.6589 191.252C52.466 190.786 53.137 190.913 53.572 191.667L54.8198 193.828C55.0113 194.16 55.0221 194.261 54.7955 194.428L54.5958 194.579L54.8547 195.027L56.5765 194.033L56.3176 193.585L56.0869 193.682ZM59.009 192.748C60.1121 192.112 60.6155 191.223 60.0356 190.219C59.5955 189.456 58.7361 189.438 57.8948 189.721C56.4532 190.206 56.1979 189.971 55.9597 189.559C55.7112 189.128 55.8942 188.7 56.5489 188.322C56.9524 188.089 57.3695 188.003 57.7745 188.104L58.3126 187.794C58.3126 187.794 58.2435 187.57 57.9795 187.113C57.5842 187.174 56.8197 187.424 56.2458 187.755C55.2593 188.325 54.8097 189.182 55.2912 190.016C55.721 190.761 56.4986 190.886 57.4773 190.572C58.8881 190.116 59.0662 190.3 59.3458 190.784C59.5891 191.206 59.4385 191.711 58.7211 192.125C58.2278 192.41 57.798 192.515 57.3657 192.346L56.8187 192.662C56.9819 192.986 57.004 193.045 57.1866 193.382C57.4523 193.324 58.0584 193.297 59.009 192.748ZM64.0131 189.859C65.3225 189.103 65.6398 187.975 65.0289 186.917L63.7707 184.738C63.5843 184.415 63.5736 184.314 63.8002 184.147L63.9999 183.996L63.7462 183.556L62.0243 184.551L62.278 184.99L62.5088 184.893C62.7665 184.78 62.8489 184.84 63.0353 185.163L64.2935 187.342C64.6766 188.005 64.5027 188.74 63.6507 189.231C62.7987 189.723 62.0759 189.507 61.6928 188.843L59.9168 185.767L58.6972 186.471L58.9613 186.929L59.201 186.826C59.4497 186.719 59.5128 186.766 59.6992 187.089L60.9574 189.268C61.5684 190.326 62.7038 190.615 64.0131 189.859Z" fill="white"/>
<g id="Component 64_2">
<g id="Frame 756_2">
<rect x="78.6357" y="165.626" width="17.2589" height="17.2589" rx="8.62944" fill="white"/>
<path id="1" d="M86.9984 178.38C88.6346 178.38 89.7426 177.541 89.7426 176.246C89.7426 175.252 89.1005 174.662 88.241 174.507V174.445C88.9866 174.31 89.6183 173.74 89.6183 172.819C89.6183 171.659 88.6138 170.903 87.0605 170.903C85.8179 170.903 85.1137 171.4 84.5649 172.115L85.5383 173.026C85.9007 172.477 86.4289 172.166 87.0088 172.166C87.6197 172.166 87.9822 172.519 87.9822 173.036V173.109C87.9822 173.554 87.6404 173.885 86.8741 173.885H86.201V175.18H86.8534C87.6404 175.18 88.1168 175.48 88.1168 176.07V176.133C88.1168 176.733 87.7026 177.116 86.9984 177.116C86.2218 177.116 85.7868 176.692 85.4762 176.101L84.3267 176.992C84.7927 177.727 85.528 178.38 86.9984 178.38Z" fill="black"/>
</g>
</g>
</g>
<g id="Group 1">
<g id="Component 589">
<circle id="Ellipse 120" cx="173.037" cy="196.745" r="6.90355" transform="rotate(-72.2232 173.037 196.745)" fill="#EFFF8B"/>
<path id="Line 53" d="M169.879 190.605L176.195 202.883" stroke="black" stroke-width="0.575296"/>
</g>
<g id="Component 591">
<circle id="Ellipse 120_2" cx="184.848" cy="203.952" r="6.90355" transform="rotate(56.6747 184.848 203.952)" fill="#49AB93"/>
<path id="Line 53_2" d="M191.607 205.349L178.086 202.555" stroke="white" stroke-width="0.575296"/>
</g>
<g id="Component 592">
<circle id="Ellipse 120_3" cx="160.334" cy="175.412" r="6.90355" transform="rotate(-64.3614 160.334 175.412)" fill="#49AB93"/>
<path id="Line 53_3" d="M158.046 168.899L162.623 181.926" stroke="white" stroke-width="0.575296"/>
</g>
<g id="Component 605">
<circle id="Ellipse 120_4" cx="219.883" cy="167.076" r="6.90355" transform="rotate(58.2268 219.883 167.076)" fill="#9B8CCD"/>
<path id="Line 53_4" d="M226.604 168.655L213.163 165.496" stroke="black" stroke-width="0.575296"/>
</g>
<g id="Component 601">
<circle id="Ellipse 120_5" cx="148.822" cy="182.885" r="6.90355" fill="#9B8CCD"/>
<path id="Line 53_5" d="M153.704 178.003L143.941 187.767" stroke="black" stroke-width="0.575296"/>
</g>
<g id="Component 602">
<circle id="Ellipse 120_6" cx="184.49" cy="189.213" r="6.90355" fill="#9B8CCD"/>
<path id="Line 53_6" d="M189.372 184.332L179.609 194.095" stroke="black" stroke-width="0.575296"/>
</g>
<g id="Component 587">
<circle id="Ellipse 120_7" cx="195.798" cy="181.535" r="6.90355" transform="rotate(-56.0899 195.798 181.535)" fill="#9B8CCD"/>
<path id="Line 53_7" d="M194.47 174.761L197.125 188.31" stroke="black" stroke-width="0.575296"/>
</g>
<g id="Component 592_2">
<circle id="Ellipse 120_8" cx="220.735" cy="210.499" r="6.90355" fill="#49AB93"/>
<path id="Line 53_8" d="M225.616 205.618L215.853 215.381" stroke="white" stroke-width="0.460237"/>
<path id="Line 54" d="M215.853 205.618L225.616 215.381" stroke="white" stroke-width="0.460237"/>
<path id="Line 55" d="M220.734 203.596L220.734 217.403" stroke="white" stroke-width="0.460237"/>
<path id="Line 56" d="M213.831 210.499L227.638 210.499" stroke="white" stroke-width="0.460237"/>
</g>
<g id="Component 593">
<circle id="Ellipse 120_9" cx="257.553" cy="189.213" r="6.90355" fill="#49AB93"/>
<path id="Line 53_9" d="M262.435 184.332L252.671 194.095" stroke="white" stroke-width="0.460237"/>
<path id="Line 54_2" d="M252.672 184.332L262.435 194.095" stroke="white" stroke-width="0.460237"/>
<path id="Line 55_2" d="M257.554 182.31L257.554 196.117" stroke="white" stroke-width="0.460237"/>
<path id="Line 56_2" d="M250.649 189.213L264.457 189.213" stroke="white" stroke-width="0.460237"/>
</g>
<g id="Component 600">
<circle id="Ellipse 120_10" cx="232.816" cy="203.02" r="6.90355" transform="rotate(21.2733 232.816 203.02)" fill="#49AB93"/>
<path id="Line 53_10" d="M239.136 200.243L226.496 205.798" stroke="white" stroke-width="0.460237"/>
<path id="Line 54_3" d="M230.038 196.701L235.594 209.341" stroke="white" stroke-width="0.460237"/>
<path id="Line 55_3" d="M235.32 196.587L230.311 209.453" stroke="white" stroke-width="0.460237"/>
<path id="Line 56_3" d="M226.383 200.516L239.249 205.525" stroke="white" stroke-width="0.460237"/>
</g>
<g id="Component 606">
<circle id="Ellipse 120_11" cx="232.816" cy="174.831" r="6.90355" fill="#49AB93"/>
<path id="Line 53_11" d="M237.697 169.949L227.934 179.712" stroke="white" stroke-width="0.460237"/>
<path id="Line 54_4" d="M227.934 169.949L237.697 179.712" stroke="white" stroke-width="0.460237"/>
<path id="Line 55_4" d="M232.815 167.927L232.815 181.734" stroke="white" stroke-width="0.460237"/>
<path id="Line 56_4" d="M225.912 174.831L239.719 174.831" stroke="white" stroke-width="0.460237"/>
</g>
<g id="Component 607">
<circle id="Ellipse 120_12" cx="268.484" cy="167.928" r="6.90355" transform="rotate(24.4261 268.484 167.928)" fill="#49AB93"/>
<path id="Line 53_12" d="M274.947 165.501L262.021 170.353" stroke="white" stroke-width="0.460237"/>
<path id="Line 54_5" d="M266.058 161.464L270.91 174.391" stroke="white" stroke-width="0.460237"/>
<path id="Line 55_5" d="M271.339 161.642L265.629 174.213" stroke="white" stroke-width="0.460237"/>
<path id="Line 56_5" d="M262.198 165.073L274.77 170.782" stroke="white" stroke-width="0.460237"/>
</g>
<g id="Component 604">
<circle id="Ellipse 120_13" cx="244.434" cy="166.889" r="6.90355" transform="rotate(-27.6124 244.434 166.889)" fill="#49AB93"/>
<path id="Line 53_13" d="M246.497 160.301L242.371 173.477" stroke="white" stroke-width="0.460237"/>
<path id="Line 54_6" d="M237.846 164.826L251.022 168.952" stroke="white" stroke-width="0.460237"/>
<path id="Line 55_6" d="M241.233 160.772L247.633 173.006" stroke="white" stroke-width="0.460237"/>
<path id="Line 56_6" d="M238.316 170.088L250.551 163.689" stroke="white" stroke-width="0.460237"/>
</g>
<g id="Component 609">
<circle id="Ellipse 120_14" cx="172.409" cy="182.31" r="6.90355" fill="#49AB93"/>
<path id="Line 53_14" d="M177.291 177.428L167.528 187.191" stroke="white" stroke-width="0.460237"/>
<path id="Line 54_7" d="M167.528 177.428L177.291 187.191" stroke="white" stroke-width="0.460237"/>
<path id="Line 55_7" d="M172.409 175.406L172.409 189.213" stroke="white" stroke-width="0.460237"/>
<path id="Line 56_7" d="M165.506 182.31L179.313 182.31" stroke="white" stroke-width="0.460237"/>
</g>
<g id="Component 610">
<circle id="Ellipse 120_15" cx="196.572" cy="196.692" r="6.90355" fill="#49AB93"/>
<path id="Line 53_15" d="M201.453 191.811L191.69 201.574" stroke="white" stroke-width="0.460237"/>
<path id="Line 54_8" d="M191.69 191.811L201.454 201.574" stroke="white" stroke-width="0.460237"/>
<path id="Line 55_8" d="M196.572 189.789L196.572 203.596" stroke="white" stroke-width="0.460237"/>
<path id="Line 56_8" d="M189.668 196.692L203.475 196.692" stroke="white" stroke-width="0.460237"/>
</g>
<g id="Component 605_2">
<circle id="Ellipse 120_16" cx="269.634" cy="182.31" r="6.90355" fill="#0031DE"/>
<path id="Line 53_16" d="M274.516 177.428L264.753 187.191" stroke="white" stroke-width="0.460237"/>
<path id="Line 54_9" d="M264.753 177.428L274.516 187.191" stroke="white" stroke-width="0.460237"/>
<path id="Line 55_9" d="M269.635 175.406L269.635 189.213" stroke="white" stroke-width="0.460237"/>
<path id="Line 56_9" d="M262.73 182.31L276.538 182.31" stroke="white" stroke-width="0.460237"/>
</g>
<g id="Component 605_3">
<circle id="Ellipse 120_17" cx="195.753" cy="166.534" r="6.90355" transform="rotate(32.6461 195.753 166.534)" fill="#49AB93"/>
<path id="Line 53_17" d="M202.497 165.056L189.01 168.01" stroke="white" stroke-width="0.460237"/>
<path id="Line 54_10" d="M194.276 159.79L197.23 173.277" stroke="white" stroke-width="0.460237"/>
<path id="Line 55_10" d="M199.478 160.721L192.029 172.347" stroke="white" stroke-width="0.460237"/>
<path id="Line 56_10" d="M189.94 162.81L201.566 170.258" stroke="white" stroke-width="0.460237"/>
</g>
<g id="Component 601_2">
<circle id="Ellipse 120_18" cx="244.841" cy="182.829" r="6.90355" transform="rotate(39.9002 244.841 182.829)" fill="#9B8CCD"/>
<path id="Line 53_18" d="M251.717 182.216L237.964 183.443" stroke="black" stroke-width="0.460237"/>
<path id="Line 54_11" d="M244.228 175.953L245.455 189.706" stroke="black" stroke-width="0.460237"/>
<path id="Line 55_11" d="M249.27 177.533L240.413 188.125" stroke="black" stroke-width="0.460237"/>
<path id="Line 56_11" d="M239.545 178.401L250.137 187.257" stroke="black" stroke-width="0.460237"/>
</g>
<g id="Component 608">
<circle id="Ellipse 120_19" cx="256.28" cy="160.325" r="6.90355" transform="rotate(36.5312 256.28 160.325)" fill="#9B8CCD"/>
<path id="Line 53_19" d="M263.107 159.309L249.451 161.342" stroke="black" stroke-width="0.460237"/>
<path id="Line 54_12" d="M255.263 153.497L257.296 167.153" stroke="black" stroke-width="0.460237"/>
<path id="Line 55_12" d="M260.389 154.778L252.17 165.872" stroke="black" stroke-width="0.460237"/>
<path id="Line 56_12" d="M250.732 156.216L261.827 164.435" stroke="black" stroke-width="0.460237"/>
</g>
<g id="Component 609_2">
<circle id="Ellipse 120_20" cx="245.472" cy="196.692" r="6.90355" fill="#9B8CCD"/>
<path id="Line 53_20" d="M250.354 191.811L240.59 201.574" stroke="black" stroke-width="0.460237"/>
<path id="Line 54_13" d="M240.591 191.811L250.354 201.574" stroke="black" stroke-width="0.460237"/>
<path id="Line 55_13" d="M245.472 189.789L245.472 203.596" stroke="black" stroke-width="0.460237"/>
<path id="Line 56_13" d="M238.568 196.692L252.375 196.692" stroke="black" stroke-width="0.460237"/>
</g>
<g id="Component 610_2">
<circle id="Ellipse 120_21" cx="171.834" cy="167.352" r="6.90355" fill="#9B8CCD"/>
<path id="Line 53_21" d="M176.716 162.47L166.953 172.233" stroke="black" stroke-width="0.460237"/>
<path id="Line 54_14" d="M166.952 162.47L176.715 172.233" stroke="black" stroke-width="0.460237"/>
<path id="Line 55_14" d="M171.834 160.448L171.834 174.255" stroke="black" stroke-width="0.460237"/>
<path id="Line 56_14" d="M164.931 167.352L178.738 167.352" stroke="black" stroke-width="0.460237"/>
</g>
<g id="Component 611">
<circle id="Ellipse 120_22" cx="220.159" cy="196.692" r="6.90355" transform="rotate(21.5242 220.159 196.692)" fill="#9B8CCD"/>
<path id="Line 53_22" d="M226.491 193.941L213.827 199.442" stroke="black" stroke-width="0.460237"/>
<path id="Line 54_15" d="M217.409 190.36L222.909 203.024" stroke="black" stroke-width="0.460237"/>
<path id="Line 55_15" d="M222.691 190.27L217.626 203.114" stroke="black" stroke-width="0.460237"/>
<path id="Line 56_15" d="M213.737 194.159L226.582 199.224" stroke="black" stroke-width="0.460237"/>
</g>
<g id="Component 604_2">
<circle id="Ellipse 120_23" cx="160.904" cy="189.788" r="6.90355" fill="#EFFF8B"/>
<path id="Line 53_23" d="M165.785 184.907L156.022 194.67" stroke="black" stroke-width="0.460237"/>
<path id="Line 54_16" d="M156.021 184.907L165.785 194.67" stroke="black" stroke-width="0.460237"/>
<path id="Line 55_16" d="M160.903 182.885L160.903 196.692" stroke="black" stroke-width="0.460237"/>
<path id="Line 56_16" d="M154 189.789L167.807 189.789" stroke="black" stroke-width="0.460237"/>
</g>
<g id="Component 605_4">
<circle id="Ellipse 120_24" cx="207.502" cy="173.68" r="6.90355" fill="#EFFF8B"/>
<path id="Line 53_24" d="M212.384 168.799L202.621 178.562" stroke="black" stroke-width="0.460237"/>
<path id="Line 54_17" d="M202.621 168.799L212.384 178.562" stroke="black" stroke-width="0.460237"/>
<path id="Line 55_17" d="M207.503 166.777L207.503 180.584" stroke="black" stroke-width="0.460237"/>
<path id="Line 56_17" d="M200.599 173.68L214.406 173.68" stroke="black" stroke-width="0.460237"/>
</g>
<g id="Component 601_3">
<circle id="Ellipse 120_25" cx="232.079" cy="189.052" r="6.90355" transform="rotate(22.8618 232.079 189.052)" fill="#EFFF8B"/>
<path id="Line 53_25" d="M238.474 186.45L225.684 191.653" stroke="black" stroke-width="0.460237"/>
<path id="Line 54_18" d="M229.478 182.657L234.681 195.446" stroke="black" stroke-width="0.460237"/>
<path id="Line 55_18" d="M234.761 182.69L229.397 195.413" stroke="black" stroke-width="0.460237"/>
<path id="Line 56_18" d="M225.718 186.37L238.44 191.734" stroke="black" stroke-width="0.460237"/>
</g>
<g id="Component 602_2">
<circle id="Ellipse 120_26" cx="220.159" cy="181.159" r="6.90355" fill="#EFFF8B"/>
<path id="Line 53_26" d="M225.041 176.277L215.278 186.04" stroke="black" stroke-width="0.460237"/>
<path id="Line 54_19" d="M215.277 176.277L225.04 186.04" stroke="black" stroke-width="0.460237"/>
<path id="Line 55_19" d="M220.159 174.255L220.159 188.062" stroke="black" stroke-width="0.460237"/>
<path id="Line 56_19" d="M213.256 181.159L227.063 181.159" stroke="black" stroke-width="0.460237"/>
</g>
<g id="Component 604_3">
<circle id="Ellipse 120_27" cx="209.229" cy="217.978" r="6.90355" fill="#EFFF8B"/>
<path id="Line 53_27" d="M214.11 213.096L204.347 222.859" stroke="black" stroke-width="0.460237"/>
<path id="Line 54_20" d="M204.347 213.096L214.11 222.859" stroke="black" stroke-width="0.460237"/>
<path id="Line 55_20" d="M209.229 211.074L209.229 224.881" stroke="black" stroke-width="0.460237"/>
<path id="Line 56_20" d="M202.325 217.978L216.132 217.978" stroke="black" stroke-width="0.460237"/>
</g>
<g id="Component 605_5">
<circle id="Ellipse 120_28" cx="208.466" cy="203.983" r="6.90355" transform="rotate(34.2835 208.466 203.983)" fill="#EFFF8B"/>
<path id="Line 53_28" d="M215.249 202.7L201.683 205.268" stroke="black" stroke-width="0.460237"/>
<path id="Line 54_21" d="M207.183 197.201L209.75 210.767" stroke="black" stroke-width="0.460237"/>
<path id="Line 55_21" d="M212.354 198.28L204.577 209.688" stroke="black" stroke-width="0.460237"/>
<path id="Line 56_21" d="M202.762 200.095L214.17 207.872" stroke="black" stroke-width="0.460237"/>
</g>
<g id="Component 606_2">
<circle id="Ellipse 120_29" cx="183.828" cy="174.168" r="6.90355" transform="rotate(-38.1113 183.828 174.168)" fill="#EFFF8B"/>
<path id="Line 53_29" d="M184.656 167.314L183 181.022" stroke="black" stroke-width="0.460237"/>
<path id="Line 54_22" d="M176.975 173.34L190.682 174.996" stroke="black" stroke-width="0.460237"/>
<path id="Line 55_22" d="M179.567 168.736L188.089 179.6" stroke="black" stroke-width="0.460237"/>
<path id="Line 56_22" d="M178.396 178.429L189.26 169.907" stroke="black" stroke-width="0.460237"/>
</g>
<g id="Component 607_2">
<circle id="Ellipse 120_30" cx="256.403" cy="174.831" r="6.90355" fill="#EFFF8B"/>
<path id="Line 53_30" d="M261.284 169.949L251.521 179.712" stroke="black" stroke-width="0.460237"/>
<path id="Line 54_23" d="M251.521 169.949L261.285 179.712" stroke="black" stroke-width="0.460237"/>
<path id="Line 55_23" d="M256.402 167.927L256.402 181.734" stroke="black" stroke-width="0.460237"/>
<path id="Line 56_23" d="M249.499 174.831L263.306 174.831" stroke="black" stroke-width="0.460237"/>
</g>
<g id="Component 604_4">
<circle id="Ellipse 120_31" cx="281.716" cy="174.831" r="6.90355" fill="#EFFF8B"/>
<path id="Line 53_31" d="M286.598 169.949L276.835 179.712" stroke="black" stroke-width="0.460237"/>
<path id="Line 54_24" d="M276.834 169.949L286.597 179.712" stroke="black" stroke-width="0.460237"/>
<path id="Line 55_24" d="M281.716 167.927L281.716 181.734" stroke="black" stroke-width="0.460237"/>
<path id="Line 56_24" d="M274.812 174.831L288.62 174.831" stroke="black" stroke-width="0.460237"/>
</g>
<g id="Component 605_6">
<circle id="Ellipse 120_32" cx="232.24" cy="159.873" r="6.90355" fill="#EFFF8B"/>
<path id="Line 53_32" d="M237.122 154.992L227.359 164.755" stroke="black" stroke-width="0.460237"/>
<path id="Line 54_25" d="M227.358 154.992L237.121 164.755" stroke="black" stroke-width="0.460237"/>
<path id="Line 55_25" d="M232.24 152.97L232.24 166.777" stroke="black" stroke-width="0.460237"/>
<path id="Line 56_25" d="M225.337 159.873L239.144 159.873" stroke="black" stroke-width="0.460237"/>
</g>
<g id="Component 602_3">
<circle id="Ellipse 120_33" cx="196.735" cy="211.238" r="6.90355" transform="rotate(1.37338 196.735 211.238)" fill="#EFFF8B"/>
<path id="Line 53_33" d="M201.732 206.475L191.738 216.001" stroke="black" stroke-width="0.575296"/>
<path id="Line 54_26" d="M191.973 206.241L201.499 216.235" stroke="black" stroke-width="0.575296"/>
</g>
<g id="Component 608_2">
<circle id="Ellipse 120_34" cx="208.077" cy="188.638" r="6.90355" fill="#EFFF8B"/>
<path id="Line 53_34" d="M212.959 183.756L203.196 193.519" stroke="black" stroke-width="0.575296"/>
<path id="Line 54_27" d="M203.196 183.756L212.959 193.519" stroke="black" stroke-width="0.575296"/>
</g>
</g>
</g>
</g>
</g>
<circle id="Ellipse 185" cx="152.5" cy="152.5" r="151.5" stroke="white" stroke-width="2"/>
<g id="Group 19">
<path id="Star 2" d="M153.5 281L157.9 290.721L165.088 282.835L166.268 293.44L175.542 288.162L173.387 298.613L183.838 296.458L178.56 305.732L189.165 306.912L181.279 314.1L191 318.5L181.279 322.9L189.165 330.088L178.56 331.268L183.838 340.542L173.387 338.387L175.542 348.838L166.268 343.56L165.088 354.165L157.9 346.279L153.5 356L149.1 346.279L141.912 354.165L140.732 343.56L131.458 348.838L133.613 338.387L123.162 340.542L128.44 331.268L117.835 330.088L125.721 322.9L116 318.5L125.721 314.1L117.835 306.912L128.44 305.732L123.162 296.458L133.613 298.613L131.458 288.162L140.732 293.44L141.912 282.835L149.1 290.721L153.5 281Z" fill="#FF8058"/>
<path id="2" d="M162.247 329V322.16H157.675L157.351 323.6H153.787L156.235 321.764C159.943 318.956 162.535 316.472 162.535 312.296C162.535 307.652 159.187 304.628 153.319 304.628C149.647 304.628 146.623 306.104 144.859 307.724C144.859 309.596 145.003 311.468 145.327 312.944H150.691C150.871 311.396 151.627 310.208 153.067 310.208C154.507 310.208 155.335 311.072 155.335 312.62C155.335 314.672 154.327 316.472 151.375 318.848L144.679 324.248V329H162.247Z" fill="black"/>
</g>
</g>
</svg>
