<svg width="60" height="60" viewBox="0 0 60 60" fill="none" xmlns="http://www.w3.org/2000/svg">
<rect x="1" y="1" width="58" height="58" rx="29" fill="black"/>
<path fill-rule="evenodd" clip-rule="evenodd" d="M21.6153 45.8847C21.7314 46.0011 21.8693 46.0935 22.0212 46.1565C22.1731 46.2195 22.3359 46.252 22.5003 46.252C22.6647 46.252 22.8275 46.2195 22.9794 46.1565C23.1312 46.0935 23.2692 46.0011 23.3853 45.8847L38.3853 30.8847C38.5017 30.7686 38.594 30.6307 38.6571 30.4788C38.7201 30.3269 38.7525 30.1641 38.7525 29.9997C38.7525 29.8353 38.7201 29.6725 38.6571 29.5206C38.594 29.3688 38.5017 29.2308 38.3853 29.1147L23.3853 14.1147C23.1506 13.88 22.8322 13.7481 22.5003 13.7481C22.1683 13.7481 21.85 13.88 21.6153 14.1147C21.3806 14.3494 21.2487 14.6678 21.2487 14.9997C21.2487 15.3317 21.3806 15.65 21.6153 15.8847L35.7328 29.9997L21.6153 44.1147C21.4989 44.2308 21.4065 44.3688 21.3435 44.5206C21.2805 44.6725 21.248 44.8353 21.248 44.9997C21.248 45.1641 21.2805 45.3269 21.3435 45.4788C21.4065 45.6307 21.4989 45.7686 21.6153 45.8847Z" fill="white"/>
<rect x="1" y="1" width="58" height="58" rx="29" stroke="white" stroke-width="2"/>
</svg>
