<svg width="30" height="30" viewBox="0 0 30 30" fill="none" xmlns="http://www.w3.org/2000/svg">
<rect width="30" height="30" rx="15" fill="white"/>
<path d="M11.4215 21.5H15.1475C17.2895 20.042 19.6475 17.234 19.6475 13.706C19.6475 10.682 17.9195 8.72 14.9315 8.72C12.0695 8.72 10.2155 10.556 10.2155 13.13C10.2155 15.506 11.8175 17.036 13.8875 17.036C15.4895 17.036 16.2275 16.1 16.6595 15.146L16.8215 15.2C16.3175 17.594 14.4815 19.304 11.4215 21.5ZM14.9315 14.966C13.7435 14.966 13.0235 14.282 13.0235 13.058V12.734C13.0235 11.51 13.7435 10.826 14.9315 10.826C16.1195 10.826 16.8395 11.51 16.8395 12.734V13.058C16.8395 14.282 16.1195 14.966 14.9315 14.966Z" fill="black"/>
</svg>
