<svg width="32" height="32" viewBox="0 0 32 32" fill="none" xmlns="http://www.w3.org/2000/svg">
<path d="M16 0L17.8772 4.14774L20.9443 0.783095L21.4479 5.30792L25.4046 3.05573L24.4853 7.51472L28.9443 6.59544L26.6921 10.5521L31.2169 11.0557L27.8523 14.1228L32 16L27.8523 17.8772L31.2169 20.9443L26.6921 21.4479L28.9443 25.4046L24.4853 24.4853L25.4046 28.9443L21.4479 26.6921L20.9443 31.2169L17.8772 27.8523L16 32L14.1228 27.8523L11.0557 31.2169L10.5521 26.6921L6.59544 28.9443L7.51472 24.4853L3.05573 25.4046L5.30792 21.4479L0.783095 20.9443L4.14774 17.8772L0 16L4.14774 14.1228L0.783095 11.0557L5.30792 10.5521L3.05573 6.59544L7.51472 7.51472L6.59544 3.05573L10.5521 5.30792L11.0557 0.783095L14.1228 4.14774L16 0Z" fill="white"/>
<path d="M15.7755 22.18C18.6915 22.18 20.5275 20.74 20.5275 18.292C20.5275 16.762 19.8075 16.042 18.7815 15.484C19.5915 15.07 20.2395 14.296 20.2395 13.18C20.2395 10.984 18.4755 9.796 15.7755 9.778C13.1115 9.778 11.3475 11.29 11.3475 13.288C11.3475 14.674 12.1935 15.592 12.9315 15.898C12.0675 16.312 11.0775 16.978 11.0775 18.616C11.0775 21.01 13.0395 22.18 15.7755 22.18ZM16.0095 14.35C15.2715 14.17 14.7315 13.864 14.7315 13.36C14.7315 12.946 14.9655 12.55 15.7755 12.55C16.5135 12.55 16.8555 12.874 16.8555 13.36C16.8555 13.81 16.4055 14.17 16.0095 14.35ZM15.7935 19.408C14.9295 19.408 14.5695 19.048 14.5695 18.4C14.5695 17.824 14.9295 17.284 15.5235 17.068C16.5135 17.32 17.0355 17.788 17.0355 18.382C17.0355 19.066 16.6755 19.408 15.7935 19.408Z" fill="black"/>
</svg>
