<svg width="32" height="32" viewBox="0 0 32 32" fill="none" xmlns="http://www.w3.org/2000/svg">
<path d="M16 0L17.8772 4.14774L20.9443 0.783095L21.4479 5.30792L25.4046 3.05573L24.4853 7.51472L28.9443 6.59544L26.6921 10.5521L31.2169 11.0557L27.8523 14.1228L32 16L27.8523 17.8772L31.2169 20.9443L26.6921 21.4479L28.9443 25.4046L24.4853 24.4853L25.4046 28.9443L21.4479 26.6921L20.9443 31.2169L17.8772 27.8523L16 32L14.1228 27.8523L11.0557 31.2169L10.5521 26.6921L6.59544 28.9443L7.51472 24.4853L3.05573 25.4046L5.30792 21.4479L0.783095 20.9443L4.14774 17.8772L0 16L4.14774 14.1228L0.783095 11.0557L5.30792 10.5521L3.05573 6.59544L7.51472 7.51472L6.59544 3.05573L10.5521 5.30792L11.0557 0.783095L14.1228 4.14774L16 0Z" fill="white"/>
<path d="M20.3533 22V20.056L19.4713 19.822V19.048H20.5693V16.762H19.4713V9.94H15.7093L11.0293 16.78V19.048H15.9613V19.822L14.8813 20.038V22H20.3533ZM15.9613 14.08V16.762H14.0893L15.9613 14.08Z" fill="black"/>
</svg>
