<svg width="31" height="30" viewBox="0 0 31 30" fill="none" xmlns="http://www.w3.org/2000/svg">
<rect x="0.5" width="30" height="30" rx="15" fill="white"/>
<path d="M15.0355 21.716C17.8795 21.716 19.8055 20.258 19.8055 18.008C19.8055 16.28 18.6895 15.254 17.1955 14.984V14.876C18.4915 14.642 19.5895 13.652 19.5895 12.05C19.5895 10.034 17.8435 8.72 15.1435 8.72C12.9835 8.72 11.7595 9.584 10.8055 10.826L12.4975 12.41C13.1275 11.456 14.0455 10.916 15.0535 10.916C16.1155 10.916 16.7455 11.528 16.7455 12.428V12.554C16.7455 13.328 16.1515 13.904 14.8195 13.904H13.6495V16.154H14.7835C16.1515 16.154 16.9795 16.676 16.9795 17.702V17.81C16.9795 18.854 16.2595 19.52 15.0355 19.52C13.6855 19.52 12.9295 18.782 12.3895 17.756L10.3915 19.304C11.2015 20.582 12.4795 21.716 15.0355 21.716Z" fill="black"/>
</svg>
