<svg width="21" height="22" viewBox="0 0 21 22" fill="none" xmlns="http://www.w3.org/2000/svg">
<rect y="0.5" width="21" height="21" rx="10.5" fill="white"/>
<path d="M10.4395 16.1512C12.6067 16.1512 13.8163 14.8282 13.8163 13.039C13.8163 11.275 12.6067 10.2418 11.1073 10.2418C9.98586 10.2418 9.57006 10.8088 9.21726 11.6404H9.11646L9.30546 8.8558H13.2997V7.2052H7.91946L7.59186 12.1822L9.14166 12.3964C9.36846 12.1318 9.82206 11.779 10.5025 11.779C11.3215 11.779 11.8255 12.283 11.8255 13.0894V13.1902C11.8255 14.047 11.3593 14.614 10.4521 14.614C9.54486 14.614 9.05346 14.0596 8.67546 13.3792L7.30206 14.4628C7.83126 15.3574 8.73846 16.1512 10.4395 16.1512Z" fill="black"/>
</svg>
