<svg width="30" height="30" viewBox="0 0 30 30" fill="none" xmlns="http://www.w3.org/2000/svg">
<rect x="-0.000213623" y="0.000183105" width="30" height="30" rx="15" fill="white"/>
<path d="M15.0033 21.7162C17.9733 21.7162 19.6833 20.1682 19.6833 18.0622C19.6833 16.4602 18.7113 15.4342 17.2173 15.0202V14.8762C18.4413 14.4262 19.3053 13.4902 19.3053 12.0322C19.3053 10.1062 17.7753 8.72018 15.0033 8.72018C12.2313 8.72018 10.7013 10.1062 10.7013 12.0322C10.7013 13.4902 11.5653 14.4262 12.7893 14.8762V15.0202C11.2953 15.4342 10.3233 16.4602 10.3233 18.0622C10.3233 20.1682 12.0333 21.7162 15.0033 21.7162ZM15.0033 14.1022C13.8693 14.1022 13.2393 13.5262 13.2393 12.5902V12.3022C13.2393 11.3662 13.8693 10.7902 15.0033 10.7902C16.1373 10.7902 16.7673 11.3662 16.7673 12.3022V12.5902C16.7673 13.5262 16.1373 14.1022 15.0033 14.1022ZM15.0033 19.6462C13.8153 19.6462 13.1493 19.0342 13.1493 18.0442V17.6842C13.1493 16.6942 13.8153 16.0822 15.0033 16.0822C16.1913 16.0822 16.8573 16.6942 16.8573 17.6842V18.0442C16.8573 19.0342 16.1913 19.6462 15.0033 19.6462Z" fill="black"/>
</svg>
