<svg width="40" height="40" viewBox="0 0 40 40" fill="none" xmlns="http://www.w3.org/2000/svg">
<path d="M20 0L22.3465 5.18468L26.1803 0.97887L26.8099 6.6349L31.7557 3.81966L30.6066 9.3934L36.1803 8.2443L33.3651 13.1901L39.0211 13.8197L34.8153 17.6535L40 20L34.8153 22.3465L39.0211 26.1803L33.3651 26.8099L36.1803 31.7557L30.6066 30.6066L31.7557 36.1803L26.8099 33.3651L26.1803 39.0211L22.3465 34.8153L20 40L17.6535 34.8153L13.8197 39.0211L13.1901 33.3651L8.2443 36.1803L9.3934 30.6066L3.81966 31.7557L6.6349 26.8099L0.97887 26.1803L5.18468 22.3465L0 20L5.18468 17.6535L0.97887 13.8197L6.6349 13.1901L3.81966 8.2443L9.3934 9.3934L8.2443 3.81966L13.1901 6.6349L13.8197 0.97887L17.6535 5.18468L20 0Z" fill="#FF8058"/>
<path d="M24.7405 24.4668V21.0468H22.4545L22.2925 21.7668H20.5105L21.7345 20.8488C23.5885 19.4448 24.8845 18.2028 24.8845 16.1148C24.8845 13.7928 23.2105 12.2808 20.2765 12.2808C18.4405 12.2808 16.9285 13.0188 16.0465 13.8288C16.0465 14.7648 16.1185 15.7008 16.2805 16.4388H18.9625C19.0525 15.6648 19.4305 15.0708 20.1505 15.0708C20.8705 15.0708 21.2845 15.5028 21.2845 16.2768C21.2845 17.3028 20.7805 18.2028 19.3045 19.3908L15.9565 22.0908V24.4668H24.7405Z" fill="black"/>
</svg>
