<svg width="32" height="32" viewBox="0 0 32 32" fill="none" xmlns="http://www.w3.org/2000/svg">
<path d="M16 0L17.8772 4.14774L20.9443 0.783095L21.4479 5.30792L25.4046 3.05573L24.4853 7.51472L28.9443 6.59544L26.6921 10.5521L31.2169 11.0557L27.8523 14.1228L32 16L27.8523 17.8772L31.2169 20.9443L26.6921 21.4479L28.9443 25.4046L24.4853 24.4853L25.4046 28.9443L21.4479 26.6921L20.9443 31.2169L17.8772 27.8523L16 32L14.1228 27.8523L11.0557 31.2169L10.5521 26.6921L6.59544 28.9443L7.51472 24.4853L3.05573 25.4046L5.30792 21.4479L0.783095 20.9443L4.14774 17.8772L0 16L4.14774 14.1228L0.783095 11.0557L5.30792 10.5521L3.05573 6.59544L7.51472 7.51472L6.59544 3.05573L10.5521 5.30792L11.0557 0.783095L14.1228 4.14774L16 0Z" fill="white"/>
<path d="M15.9998 22.252C18.6278 22.252 20.5898 20.794 20.5898 18.364V17.932C20.5898 15.466 19.0598 14.332 16.5038 14.332C15.9458 14.332 15.1538 14.548 14.7938 14.746V14.278C14.7938 13.144 15.3698 12.64 16.1978 12.64C16.8278 12.64 17.1878 12.82 17.4938 13.144H19.7438C19.8158 12.46 19.9418 11.416 19.9418 10.516C18.9338 10.03 17.4398 9.814 16.1798 9.814C13.2098 9.814 11.2838 11.632 11.2838 14.872V17.77C11.2838 20.704 13.1918 22.252 15.9998 22.252ZM15.9998 19.444C15.2258 19.444 14.7938 19.084 14.7938 17.968V17.392C15.1178 17.23 15.5678 17.104 16.0538 17.104C16.3958 17.104 17.0618 17.212 17.0618 18.112V18.31C17.0618 19.084 16.6298 19.444 15.9998 19.444Z" fill="black"/>
</svg>
