<svg width="21" height="22" viewBox="0 0 21 22" fill="none" xmlns="http://www.w3.org/2000/svg">
<rect y="0.5" width="21" height="21" rx="10.5" fill="white"/>
<path d="M4.12932 16H10.2529V14.4754H8.38812V7.2052H5.49012L3.38592 9.9772L4.59552 10.9222L6.38472 8.5786H6.49812V14.4754H4.12932V16ZM11.2182 16H17.4426V14.4124H13.2846L14.9226 13.1272C16.1826 12.1318 17.2662 11.212 17.2662 9.7C17.2662 8.1754 16.17 7.054 14.2674 7.054C12.4404 7.054 11.4198 8.0746 11.0292 9.2968L12.6798 9.9268C12.8562 9.259 13.2594 8.692 14.091 8.692C14.658 8.692 15.2502 9.0322 15.2502 9.7V9.8764C15.2502 10.6198 14.91 11.1112 13.9272 11.9554L11.2182 14.2738V16Z" fill="black"/>
</svg>
