<svg width="21" height="22" viewBox="0 0 21 22" fill="none" xmlns="http://www.w3.org/2000/svg">
<rect y="0.5" width="21" height="21" rx="10.5" fill="white"/>
<path d="M9.39538 16.1512C10.4034 16.1512 11.1342 15.6976 11.3358 14.8408H11.4114L11.4492 15.0046C11.6004 15.6094 12.054 16 12.6714 16H13.7046V14.551H13.0872V11.653C13.0872 10.0906 12.1296 9.2338 10.2648 9.2338C8.87878 9.2338 8.12278 9.7126 7.59358 10.4938L8.70238 11.4766C8.99218 11.0734 9.38278 10.6954 10.1262 10.6954C10.9074 10.6954 11.2224 11.0986 11.2224 11.7412V12.157H10.1766C8.42518 12.157 7.34158 12.8248 7.34158 14.2234C7.34158 15.37 8.07238 16.1512 9.39538 16.1512ZM10.0884 14.8534C9.53398 14.8534 9.21898 14.6266 9.21898 14.1478V13.9588C9.21898 13.48 9.59698 13.2154 10.3152 13.2154H11.2224V13.9966C11.2224 14.6014 10.7058 14.8534 10.0884 14.8534Z" fill="black"/>
</svg>
