<svg width="821" height="322" viewBox="0 0 821 322" fill="none" xmlns="http://www.w3.org/2000/svg">
<circle cx="72.478" cy="136.546" r="23.5364" stroke="#F5F0EB" stroke-width="2"/>
<path d="M83.8489 71.2671L83.6127 72.2388L84.6375 72.4879L84.8317 71.4513L83.8489 71.2671ZM59.554 200.927L60.5369 201.111L60.7315 200.072L59.6839 199.935L59.554 200.927ZM59.4953 201.24L58.5124 201.056L58.3177 202.095L59.3657 202.232L59.4953 201.24ZM784.338 295.929L784.209 296.921L785.196 297.049L785.329 296.063L784.338 295.929ZM784.349 295.852L784.404 294.854L783.481 294.803L783.358 295.719L784.349 295.852ZM789.172 258.35L788.915 259.317L788.945 259.325L788.975 259.331L789.172 258.35ZM83.872 71.1437L84.1285 70.1772L83.0875 69.9009L82.8891 70.9595L83.872 71.1437ZM84.0851 70.2954C78.2928 68.8875 72.2159 68.2348 65.9696 68.4438L66.0365 70.4426C72.0996 70.2398 77.9951 70.8733 83.6127 72.2388L84.0851 70.2954ZM65.9696 68.4438C28.9652 69.6818 -0.0292871 100.683 1.2087 137.688L3.20759 137.621C2.00653 101.72 30.136 71.6437 66.0365 70.4426L65.9696 68.4438ZM1.2087 137.688C2.32139 170.947 27.4766 197.734 59.4242 201.918L59.6839 199.935C28.6909 195.876 4.28702 169.886 3.20759 137.621L1.2087 137.688ZM58.5711 200.743L58.5124 201.056L60.4782 201.424L60.5369 201.111L58.5711 200.743ZM59.3657 202.232L784.209 296.921L784.468 294.937L59.6248 200.249L59.3657 202.232ZM785.329 296.063L785.34 295.986L783.358 295.719L783.347 295.795L785.329 296.063ZM784.293 296.851C784.887 296.884 785.488 296.891 786.093 296.871L786.027 294.872C785.48 294.89 784.939 294.884 784.404 294.854L784.293 296.851ZM786.093 296.871C797.106 296.502 805.734 287.276 805.366 276.264L803.367 276.331C803.698 286.239 795.935 294.54 786.027 294.872L786.093 296.871ZM805.366 276.264C805.05 266.831 798.236 259.149 789.369 257.37L788.975 259.331C796.954 260.932 803.083 267.846 803.367 276.331L805.366 276.264ZM789.428 257.384L84.1285 70.1772L83.6154 72.1103L788.915 259.317L789.428 257.384ZM82.8891 70.9595L82.866 71.0829L84.8317 71.4513L84.8549 71.3279L82.8891 70.9595Z" fill="#F5F0EB"/>
<circle cx="527.025" cy="51.025" r="30" transform="rotate(-37.112 527.025 51.025)" fill="#DFFF5F"/>
<circle cx="527.025" cy="51.025" r="30" transform="rotate(-37.112 527.025 51.025)" fill="url(#paint0_radial_193_44128)"/>
<path d="M64.5896 54.1135L70.7329 55.7596L72.9169 52.2452L73.4449 50.2747L71.9381 49.8709C70.8949 49.5914 70.4551 48.9145 70.8123 47.5815L75.0983 31.5858C75.2225 31.1221 75.385 30.9793 75.9532 30.9452L78.0635 30.9516L79.6009 25.214L63.3733 20.8659L61.8359 26.6035L63.6666 27.653C64.1417 27.9667 64.211 28.1716 64.0867 28.6352L59.5367 45.6162C58.5894 49.1515 60.0111 52.8867 64.5896 54.1135ZM109.278 30.6814C108.863 31.9988 108.247 33.1382 107.45 33.7943C105.512 32.219 103.044 30.9985 100.03 30.191C95.1037 28.8711 88.5173 29.3424 85.64 30.8077C85.0768 33.1414 84.6295 35.5062 84.2401 37.8866L92.7596 40.1693C93.4376 38.7981 95.0077 38.0386 97.3839 38.6753C99.9919 39.3741 100.578 40.8976 100.251 42.1146L99.5526 44.7226L92.2502 42.766C85.0637 40.8404 79.9664 43.6363 78.5687 48.8523C77.0624 54.474 79.7974 58.8717 85.8248 60.4868C88.7225 61.2632 91.6597 61.4291 93.3529 61.1374C94.0206 58.6453 94.3282 56.8021 94.8221 54.2634L90.2436 53.0366C89.7985 53.5385 89.2728 53.6461 88.6932 53.4908C87.8239 53.2579 87.5041 52.3647 87.8303 51.1476C88.2651 49.5248 89.5567 48.8771 91.2374 49.3274L97.7864 51.0822L95.8256 58.632C95.6268 60.0695 96.2238 61.7824 96.9492 62.7843L107.613 65.6416L109.197 59.7302C108.111 59.3772 107.614 58.6847 107.909 57.5836L111.263 45.0652C111.791 43.0947 111.809 41.1738 111.285 39.4185C113.616 39.2976 116.191 38.4968 117.225 36.724L118.203 33.0728L109.278 30.6814ZM112.908 22.585C113.446 19.1884 111.582 16.6391 107.757 15.6142L100.628 13.7041L98.4909 17.0448L97.8853 19.305L101.826 20.361C102.811 20.625 103.251 21.3019 102.987 22.2871L101.947 26.1702L118.464 30.596L120.633 27.1394L121.254 24.8212L112.908 22.585ZM123.706 70.5748C127.705 71.6463 131.806 70.9439 133.458 69.6473C133.325 70.6056 133.382 71.5526 133.482 72.5731L145.304 75.741L146.888 69.8296C144.911 68.8648 144.772 68.455 145.145 67.064L149.322 51.474C149.446 51.0104 149.624 50.8096 150.177 50.8334L152.287 50.8398L153.825 45.1022L137.597 40.7541L136.06 46.4917L137.89 47.5413C138.381 47.7969 138.435 48.0598 138.311 48.5235L134.382 63.1862C133.438 63.9272 131.914 64.5128 129.654 63.9072C127.799 63.4102 127.094 62.103 127.513 60.5382L133.135 39.5583L119.515 35.909L117.978 41.6466L119.808 42.6962C120.283 43.0098 120.353 43.2147 120.228 43.6784L116.393 57.9934C114.731 64.1946 117.446 68.8977 123.706 70.5748ZM164.12 80.7825L165.657 75.0449L163.826 73.9954C163.351 73.6817 163.282 73.4768 163.406 73.0132L167.257 58.6402C168.279 57.6095 169.745 57.0083 171.599 57.5052C173.396 57.9866 174.538 59.2866 174.072 61.0253L170.361 74.8767C170.237 75.3403 170.059 75.5411 169.506 75.5172L167.396 75.5108L165.858 81.2484L182.086 85.5966L183.623 79.859L181.793 78.8094C181.318 78.4958 181.248 78.2908 181.372 77.8272L185.208 63.5122C186.761 57.7166 183.865 52.5303 178.185 51.0084C173.433 49.735 170.297 51.0067 168.01 52.8166L168.235 48.9635L156.412 45.7956L154.828 51.7071L156.454 52.826C156.813 53.1085 156.898 53.2555 156.774 53.7192L152.395 70.0626C152.27 70.5263 152.108 70.6691 151.54 70.7032L149.429 70.6968L147.892 76.4344L164.12 80.7825ZM211.347 93.437L212.884 87.6994L211.015 86.3289C210.656 86.0464 210.571 85.8994 210.695 85.4358L214.127 72.6276C215.929 65.9047 212.921 60.44 204.285 58.1261C199.301 56.7906 194.221 57.6658 191.344 59.131C190.928 61.3799 190.438 63.6712 190.022 65.9201L198.599 68.2184C199.277 66.8472 200.132 66.2066 201.639 66.6104C203.204 67.0297 203.504 68.2282 203.116 69.6771L199.684 82.4852C199.56 82.9489 199.413 83.0337 198.96 83.0989L196.656 83.3512L195.119 89.0888L211.347 93.437ZM230.298 98.515C237.485 100.441 242.933 98.4219 244.625 92.1048L250.294 70.951L236.674 67.3016L235.137 73.0392L236.967 74.0888C237.458 74.3445 237.512 74.6074 237.387 75.071L233.396 89.9656C233.055 91.2406 232.278 91.5914 231.118 91.2808L230.017 90.9858L229.613 73.4848L219.297 70.7206L217.93 75.8207C219 76.2317 219.572 76.8817 219.64 78.0181L220.62 95.9216L230.298 98.515ZM262.655 107.185L264.193 101.448L262.362 100.398C261.872 100.142 261.818 99.8794 261.942 99.4157L263.541 93.4463C264.038 91.5917 265.145 90.708 266.745 90.764L267.428 88.214L264.572 84.964C265.439 83.5814 267.036 82.9533 269.528 83.6211C272.136 84.3199 273.317 85.9407 272.68 88.3169L269.186 101.357C269.062 101.821 268.884 102.021 268.331 101.997L266.221 101.991L264.684 107.729L280.911 112.077L282.449 106.339L280.618 105.29C280.128 105.034 280.074 104.771 280.198 104.307L283.692 91.2674C285.587 84.1968 281.099 78.4598 272 76.0217C264.407 73.9874 257.072 76.5565 254.432 80.3835L253.64 83.3392L257.636 87.2051C254.969 87.4222 252.949 88.931 252.142 91.9447L250.93 96.4652C250.806 96.9288 250.628 97.1296 250.075 97.1058L247.965 97.0994L246.428 102.837L262.655 107.185ZM300.645 132.521C307.484 134.353 311.982 131.707 313.83 124.811L320.197 101.049C322.092 93.9784 317.372 88.1792 308.099 85.6945C299.869 83.4894 294.335 86.2926 290.937 90.165L290.145 93.1208L294.141 96.9866C291.795 97.1655 290.112 98.578 289.459 101.012L288.17 105.822C287.813 107.155 287.094 107.522 286.051 107.242L284.544 106.838L284.016 108.809L284.15 112.945L290.293 114.591C294.292 115.662 297.878 113.641 298.918 109.758L300.626 103.383C301.123 101.529 301.65 100.49 303.25 100.546L303.933 97.9955L301.077 94.7455C301.945 93.3629 303.426 92.7038 306.034 93.4026C308.642 94.1014 309.822 95.7222 309.186 98.0984L302.896 121.57C302.384 123.483 300.366 124.06 298.743 123.625L298.105 123.455L294.528 118.955L293.543 118.691C291.914 120.367 290.069 120.991 287.809 120.385L283.81 119.314L282.909 122.675L283.452 127.604L286.06 128.302C288.437 128.939 290.942 127.933 292.343 126.88L295.372 131.108L300.645 132.521ZM352.46 124.54C351.985 124.226 351.916 124.021 352.04 123.557L353.391 118.515C354.494 114.401 352.678 110.746 349.515 108.408L353.235 107.044C354.743 106.516 356.247 106.236 357.9 106.555L359.562 100.354L348.551 97.4031C348.217 98.1834 347.443 99.2183 346.488 99.7698L337.043 104.88L339.714 94.9112L326.385 91.3395L324.801 97.251L326.426 98.3699C326.786 98.6525 326.87 98.7995 326.746 99.2631L322.367 115.607C322.243 116.07 322.08 116.213 321.512 116.247L319.402 116.241L317.864 121.978L334.092 126.326L335.629 120.589L333.799 119.539C333.324 119.226 333.254 119.021 333.379 118.557L334.621 113.921L338.897 112.333C339.087 112.322 339.261 112.369 339.435 112.415C341.811 113.052 342.504 115.101 341.852 117.535L341.168 120.085L340.935 120.955L339.134 127.678L352.754 131.327L354.291 125.589L352.46 124.54ZM375.977 138.171C382.584 139.941 387.519 137.288 389.18 131.087L393.016 116.772C393.14 116.308 393.318 116.107 393.871 116.131L395.981 116.137L397.519 110.4L381.291 106.052L379.754 111.789L381.585 112.839C382.075 113.095 382.129 113.357 382.005 113.821L378.231 127.904C377.812 129.469 376.42 130.028 374.449 129.5C372.769 129.049 371.827 127.928 371.538 126.918L377.408 105.011L363.789 101.362L362.251 107.099L364.082 108.149C364.572 108.405 364.626 108.668 364.502 109.131L360.123 125.475C359.999 125.938 359.852 126.023 359.399 126.088L357.432 126.245L355.848 132.156L367.961 135.402L369.154 132.802C370.052 134.782 371.978 137.099 375.977 138.171ZM418.549 148.957L420.086 143.219L418.217 141.849C417.858 141.566 417.773 141.419 417.898 140.955L421.33 128.147C423.131 121.424 420.123 115.96 411.488 113.646C406.503 112.31 401.424 113.185 398.547 114.651C398.13 116.9 397.641 119.191 397.224 121.44L405.802 123.738C406.48 122.367 407.335 121.726 408.842 122.13C410.406 122.549 410.706 123.748 410.318 125.197L406.886 138.005C406.762 138.469 406.615 138.553 406.163 138.619L403.859 138.871L402.321 144.609L418.549 148.957ZM438.01 154.917C446.529 157.199 453.752 154.352 455.429 148.093L459.079 134.473C459.203 134.009 459.365 133.867 459.934 133.832L462.044 133.839L463.581 128.101L447.354 123.753L445.816 129.491L447.647 130.54C448.122 130.854 448.191 131.059 448.067 131.522L444.48 144.91C443.921 146.997 442.347 148.003 440.028 147.382C437.131 146.606 436.85 145.102 437.409 143.016C438.015 140.755 439.465 140.212 441.03 140.631L442.884 141.128L445.224 137.034L445.721 135.18L443.576 134.605C440.678 133.829 439.911 132.753 440.594 130.203L441.137 128.175L443.861 128.905L445.383 123.225L431.242 119.436L429.348 126.507C428.26 130.563 429.687 133.12 432.689 134.669L432.673 134.727C429.6 134.836 426.685 135.98 425.458 140.559C423.781 146.818 428.911 152.478 438.01 154.917Z" fill="white"/>
<path d="M488.99 168.577C497.683 170.906 504.06 168.204 505.753 161.887L509.48 147.978C509.604 147.514 509.766 147.371 510.335 147.337L512.445 147.344L513.982 141.606L497.755 137.258L496.217 142.996L498.048 144.045C498.523 144.359 498.592 144.564 498.468 145.027L494.741 158.937C494.26 160.733 492.979 161.57 491.009 161.043C489.038 160.515 488.348 159.149 488.83 157.353L491.563 147.153C492.386 144.081 493.55 143.213 495.522 142.809L497.059 137.072L482.396 133.143L480.859 138.88L486.597 140.418C484.03 140.724 481.017 142.463 479.899 146.636L477.818 154.402C476.125 160.719 480.297 166.247 488.99 168.577ZM531.705 145.734C526.489 144.336 520.266 144.843 517.238 145.709C516.66 148.1 516.006 151.466 515.69 153.804L524.21 156.087C525.113 154.341 526.95 153.28 529.326 153.917C532.05 154.647 533.041 156.279 532.327 158.945L530.168 167.001C529.454 169.667 527.706 170.627 524.808 169.85C523.127 169.4 521.208 168.451 520.582 167.538L521.374 164.582L525.142 165.592L526.694 159.796L514.06 156.411L510.395 170.088L511.67 170.43C513.63 173.316 518.443 176.22 522.789 177.385C531.946 179.838 539.13 177.601 541.087 170.299L543.431 161.548C545.279 154.651 541.325 148.312 531.705 145.734ZM558.053 186.337C565.239 188.262 570.687 186.243 572.38 179.926L578.048 158.773L564.428 155.123L562.891 160.861L564.722 161.91C565.212 162.166 565.266 162.429 565.142 162.893L561.151 177.787C560.809 179.062 560.032 179.413 558.873 179.102L557.772 178.807L557.368 161.306L547.051 158.542L545.685 163.642C546.755 164.053 547.326 164.703 547.394 165.84L548.374 183.743L558.053 186.337ZM592.194 196.23C600.713 198.513 608.361 196.4 610.349 188.982L619.154 156.121L616.256 155.345L607.49 155.605L599.399 185.8C598.685 188.465 596.531 189.317 594.213 188.696C591.895 188.075 590.455 186.26 591.169 183.594L596.496 163.716L582.876 160.066L581.339 165.804L583.17 166.853C583.66 167.109 583.714 167.372 583.59 167.836L580.096 180.876C578.108 188.294 583.675 193.947 592.194 196.23ZM626.024 205.046C634.601 207.345 640.739 204.144 642.369 198.059C643.565 193.596 641.348 189.586 635.472 186.707C630.969 184.506 629.138 183.457 629.526 182.008C629.806 180.965 630.962 180.591 633.048 181.15C634.613 181.569 636.119 182.905 636.31 184.509L643.96 186.559C643.96 186.559 645.41 182.537 646.42 178.77C644.095 176.78 639.75 174.684 635.171 173.458C627 171.268 620.446 173.239 618.8 179.382C617.294 185.004 620.474 188.9 625.426 191.283C630.378 193.665 631.756 194.78 631.353 196.287C631.12 197.156 630.218 197.971 627.61 197.272C625.698 196.76 624.35 195.529 624.533 194.149L616.13 191.898C615.23 194.328 614.389 196.773 613.489 199.203C613.489 199.203 617.678 202.81 626.024 205.046ZM668.266 197.544L671.004 193.122L671.765 190.282L662.492 187.797C660.753 187.331 660.283 186.77 660.702 185.206L661.168 183.467L658.444 182.737L652.743 182.452L651.517 187.03C650.631 190.334 652.56 193.335 657.081 194.547L668.266 197.544ZM664.042 213.308L666.78 208.886L667.541 206.046L658.268 203.561C656.53 203.095 656.059 202.534 656.478 200.97L656.944 199.231L654.22 198.501L648.519 198.216L647.293 202.794C646.408 206.098 648.336 209.099 652.857 210.311L664.042 213.308ZM686.358 221.461C694.878 223.744 702.07 221.012 703.7 214.927L705.548 208.03C706.402 204.843 705.597 202.515 702.658 200.734L706.248 198.466C707.145 197.898 708.25 197.946 709.425 198.199L710.947 192.519L700.689 189.771L693.266 197.534L692.552 200.2C694.951 201.215 695.267 202.356 694.475 205.312L692.844 211.397C692.254 213.599 690.695 214.548 688.377 213.927C686.059 213.306 685.183 211.705 685.773 209.503L688.351 199.882C689.174 196.81 691.158 195.665 693.469 195.849L695.007 190.112L679.185 185.872L677.648 191.61L683.385 193.147C679.949 193.22 677.65 195.772 676.688 199.365L674.607 207.132C672.976 213.217 677.839 219.179 686.358 221.461ZM732.381 233.048L733.918 227.31L732.049 225.94C731.69 225.657 731.605 225.51 731.729 225.046L735.161 212.238C736.963 205.515 733.954 200.051 725.319 197.737C720.335 196.401 715.255 197.276 712.378 198.742C711.962 200.991 711.472 203.282 711.056 205.531L719.633 207.829C720.311 206.458 721.166 205.817 722.673 206.221C724.238 206.64 724.538 207.839 724.15 209.288L720.718 222.096C720.593 222.56 720.447 222.644 719.994 222.71L717.69 222.962L716.153 228.699L732.381 233.048ZM751.841 239.007C760.361 241.29 767.553 238.559 769.183 232.473L771.031 225.577C771.885 222.389 771.08 220.061 768.141 218.28L771.731 216.012C772.628 215.445 773.733 215.492 774.908 215.745L776.43 210.065L766.172 207.317L758.749 215.08L758.035 217.746C760.434 218.762 760.75 219.902 759.958 222.858L758.327 228.943C757.737 231.145 756.178 232.094 753.86 231.473C751.542 230.852 750.666 229.251 751.256 227.049L753.834 217.428C754.657 214.356 756.641 213.211 758.952 213.395L760.49 207.658L744.668 203.418L743.131 209.156L748.868 210.693C745.432 210.766 743.133 213.318 742.171 216.912L740.09 224.678C738.459 230.763 743.322 236.725 751.841 239.007ZM783.799 247.446C787.798 248.518 791.899 247.815 793.551 246.519C793.419 247.477 793.476 248.424 793.575 249.445L805.398 252.613L806.982 246.701C805.004 245.736 804.865 245.326 805.238 243.936L809.415 228.345C809.54 227.882 809.718 227.681 810.27 227.705L812.381 227.711L813.918 221.974L797.69 217.626L796.153 223.363L797.984 224.413C798.474 224.668 798.528 224.931 798.404 225.395L794.475 240.058C793.531 240.799 792.008 241.384 789.747 240.779C787.893 240.282 787.187 238.975 787.606 237.41L793.228 216.43L779.608 212.78L778.071 218.518L779.902 219.568C780.377 219.881 780.446 220.086 780.322 220.55L776.486 234.865C774.824 241.066 777.54 245.769 783.799 247.446Z" fill="#EFFF8B"/>
<defs>
<radialGradient id="paint0_radial_193_44128" cx="0" cy="0" r="1" gradientUnits="userSpaceOnUse" gradientTransform="translate(518.525 39.525) rotate(49.6001) scale(30.8585)">
<stop stop-color="white"/>
<stop offset="1" stop-color="white" stop-opacity="0"/>
</radialGradient>
</defs>
</svg>
