<svg width="612" height="300" viewBox="0 0 612 300" fill="none" xmlns="http://www.w3.org/2000/svg">
<path d="M549.342 114.477L549.578 115.449L548.553 115.698L548.359 114.661L549.342 114.477ZM567.31 210.369L566.327 210.553L566.132 209.515L567.18 209.378L567.31 210.369ZM567.353 210.601L568.336 210.417L568.531 211.456L567.483 211.593L567.353 210.601ZM31.2811 280.63L31.4106 281.622L30.4233 281.751L30.2901 280.764L31.2811 280.63ZM31.2734 280.574L31.2177 279.575L32.1407 279.524L32.2644 280.44L31.2734 280.574ZM27.7061 252.838L27.9627 253.805L27.933 253.812L27.9029 253.818L27.7061 252.838ZM549.325 114.386L549.068 113.419L550.109 113.143L550.308 114.202L549.325 114.386ZM549.106 113.505C553.412 112.458 557.93 111.973 562.574 112.129L562.507 114.128C558.046 113.978 553.71 114.444 549.578 115.449L549.106 113.505ZM562.574 112.129C590.085 113.049 611.641 136.097 610.72 163.608L608.721 163.542C609.605 137.134 588.914 115.011 562.507 114.128L562.574 112.129ZM610.72 163.608C609.893 188.335 591.191 208.25 567.44 211.361L567.18 209.378C589.977 206.392 607.928 187.274 608.721 163.542L610.72 163.608ZM568.293 210.185L568.336 210.417L566.37 210.785L566.327 210.553L568.293 210.185ZM567.483 211.593L31.4106 281.622L31.1515 279.639L567.224 209.61L567.483 211.593ZM30.2901 280.764L30.2824 280.707L32.2644 280.44L32.2721 280.496L30.2901 280.764ZM31.3291 281.572C30.8819 281.597 30.43 281.602 29.9742 281.587L30.0411 279.588C30.4374 279.601 30.8298 279.597 31.2177 279.575L31.3291 281.572ZM29.9742 281.587C21.6861 281.31 15.1921 274.366 15.4694 266.078L17.4683 266.145C17.228 273.329 22.857 279.348 30.0411 279.588L29.9742 281.587ZM15.4694 266.078C15.7069 258.978 20.8352 253.197 27.5094 251.858L27.9029 253.818C22.1179 254.98 17.6741 259.993 17.4683 266.145L15.4694 266.078ZM27.4496 251.871L549.068 113.419L549.581 115.352L27.9627 253.805L27.4496 251.871ZM550.308 114.202L550.325 114.293L548.359 114.661L548.342 114.57L550.308 114.202Z" fill="#F5F0EB"/>
<circle cx="558" cy="163.051" r="22" stroke="#F5F0EB" stroke-width="2"/>
<path d="M31.714 205.341C32.0132 206.689 32.0495 207.984 31.6874 208.951C29.2211 208.556 26.4733 208.733 23.4596 209.54C18.5334 210.86 13.0651 214.562 11.3059 217.269C11.985 219.572 12.78 221.844 13.633 224.1L22.1525 221.817C22.0541 220.29 23.034 218.848 25.4102 218.211C28.0182 217.512 29.2871 218.539 29.6132 219.756L30.3121 222.364L23.0097 224.32C15.8232 226.246 12.8067 231.216 14.2043 236.432C15.7107 242.054 20.2781 244.495 26.3055 242.88C29.2033 242.103 31.8298 240.778 33.1503 239.679C32.4826 237.187 31.8273 235.437 30.9857 232.991L26.4072 234.218C26.2727 234.875 25.8712 235.231 25.2916 235.387C24.4223 235.62 23.6988 235.006 23.3727 233.789C22.9379 232.166 23.7326 230.959 25.4133 230.509L31.9623 228.754L34.039 236.273C34.5856 237.617 35.9591 238.802 37.0883 239.307L47.7521 236.45L46.1681 230.538C45.0514 230.775 44.2741 230.425 43.9791 229.324L40.6248 216.805C40.0968 214.835 39.1518 213.162 37.8207 211.904C39.7787 210.634 41.6083 208.653 41.6175 206.6L40.6391 202.949L31.714 205.341ZM48.8878 253.352L45.5956 241.065L34.1204 244.14L34.0484 248.507L34.5142 250.246L39.0348 249.035L40.774 255.526L48.8878 253.352ZM84.4039 219.92C83.8513 219.944 83.6732 219.743 83.549 219.28L80.3655 207.399C78.5176 200.502 70.7096 196.631 61.2049 199.178C51.7581 201.709 46.9318 208.966 48.7798 215.862L51.9632 227.743C52.0875 228.207 52.0337 228.47 51.5431 228.725L49.7124 229.775L51.2498 235.513L57.7988 233.758C69.158 230.714 72.226 223.618 70.3625 216.664C69.7259 214.287 68.549 212.677 67.1994 212.045L60.9402 213.722L62.5139 220.754C63.3408 220.595 64.0177 221.035 64.2817 222.02C64.5301 222.947 64.1297 224.235 62.5195 225.412L59.2117 213.067C58.4042 210.053 59.9088 207.787 63.2703 206.886C66.6317 205.985 69.126 207.181 69.9335 210.194L73.117 222.075C73.2412 222.539 73.1719 222.744 72.6969 223.057L71.3298 223.983L72.8672 229.72L88.0516 225.652L86.5142 219.914L84.4039 219.92ZM106.296 220.763L104.759 215.025L102.649 215.032C102.08 214.998 101.918 214.855 101.794 214.391L97.9424 200.018C98.3118 198.615 99.2804 197.361 101.135 196.864C102.932 196.383 104.571 196.938 105.037 198.676L108.748 212.528C108.873 212.991 108.819 213.254 108.328 213.51L106.498 214.559L108.035 220.297L124.262 215.949L122.725 210.211L120.615 210.218C120.047 210.184 119.884 210.041 119.76 209.577L115.924 195.262C114.371 189.467 109.27 186.423 103.59 187.945C98.8378 189.218 96.7578 191.888 95.6827 194.598L93.9509 191.149L82.128 194.317L83.712 200.228L85.6794 200.385C86.1317 200.45 86.2787 200.535 86.4029 200.998L90.7821 217.342C90.9064 217.805 90.837 218.01 90.362 218.324L88.5313 219.374L90.0687 225.111L106.296 220.763ZM106.48 176.238C105.247 173.028 102.359 171.752 98.5335 172.777L91.4049 174.687L91.2241 178.649L91.8298 180.909L95.7708 179.853C96.756 179.589 97.4753 179.955 97.7393 180.941L98.7798 184.824L115.297 180.398L115.447 176.32L114.826 174.002L106.48 176.238ZM153.523 208.109L151.986 202.371L149.682 202.119C149.23 202.053 149.083 201.969 148.959 201.505L145.527 188.697C143.725 181.974 138.388 178.745 129.752 181.059C124.768 182.395 120.807 185.692 119.048 188.4C119.811 190.556 120.533 192.785 121.297 194.941L129.874 192.642C129.776 191.116 130.196 190.134 131.703 189.73C133.268 189.311 134.127 190.198 134.515 191.647L137.947 204.455C138.071 204.919 137.986 205.066 137.627 205.349L135.758 206.719L137.296 212.457L153.523 208.109ZM173.356 203.54C181.876 201.257 186.708 195.179 185.03 188.92L181.381 175.3C181.257 174.837 181.326 174.632 181.801 174.318L183.632 173.269L182.095 167.531L165.867 171.879L167.404 177.617L169.515 177.61C170.083 177.645 170.245 177.787 170.37 178.251L173.957 191.639C174.516 193.725 173.656 195.384 171.338 196.005C168.44 196.782 167.445 195.62 166.886 193.533C166.281 191.273 167.265 190.078 168.829 189.658L170.684 189.161L170.663 184.446L170.166 182.592L168.022 183.166C165.124 183.943 163.921 183.395 163.238 180.845L162.694 178.817L165.418 178.087L163.896 172.407L149.755 176.196L151.65 183.267C152.737 187.324 155.251 188.824 158.625 188.666L158.64 188.724C156.033 190.354 154.081 192.803 155.308 197.381C156.985 203.64 164.257 205.978 173.356 203.54ZM199.475 142.065L176.988 148.09L177.5 150.003L180.102 154.151L190.318 151.476C187.747 153.469 185.204 157.194 186.803 163.163L194.025 190.113C194.972 193.648 198.071 196.172 201.49 195.256L208.792 193.299L208.927 189.164L208.399 187.193L206.892 187.597C205.849 187.876 205.129 187.51 204.772 186.177L197.815 160.213C195.755 153.684 197.199 149.57 201.043 147.919L199.475 142.065ZM231.892 187.855C240.411 185.572 245.978 179.919 243.99 172.501L235.185 139.64L232.287 140.416L224.825 145.025L232.916 175.219C233.63 177.885 232.191 179.7 229.873 180.321C227.555 180.942 225.401 180.091 224.686 177.425L219.36 157.546L205.74 161.195L207.278 166.933L209.388 166.926C209.941 166.903 210.119 167.103 210.243 167.567L213.737 180.607C215.725 188.025 223.372 190.138 231.892 187.855ZM257.435 146.723C251.06 148.431 246.967 151.701 244.972 154.224C245.608 156.6 246.71 159.783 247.679 162.008L256.198 159.726C256.27 157.905 257.129 156.246 259.564 155.594C262.056 154.926 263.708 156.223 264.515 159.236L266.285 165.843C266.907 168.162 266.174 169.6 264.582 170.151L260.866 162.078L248.811 165.308L250.52 171.683L252.258 171.217C253.417 170.906 254.017 171.056 254.784 172.528L258.634 179.944L266.458 177.848C274.92 175.58 278.959 169.094 277.002 161.792L275.247 155.243C273.089 147.187 265.896 144.455 257.435 146.723ZM302.582 168.914C312.26 166.321 316.512 160.398 314.68 153.559L311.186 140.519C311.061 140.056 311.115 139.793 311.606 139.537L313.437 138.488L311.899 132.75L295.672 137.098L297.209 142.836L299.319 142.829C299.872 142.806 300.05 143.006 300.174 143.47L303.606 156.278C304.32 158.944 302.881 160.758 300.563 161.38C298.245 162.001 296.091 161.149 295.376 158.483L290.05 138.605L276.43 142.254L277.968 147.991L280.078 147.985C280.646 148.019 280.809 148.162 280.933 148.626L284.427 161.666C286.259 168.504 292.323 171.663 302.582 168.914ZM338.684 158.495L337.147 152.757L335.037 152.764C334.469 152.729 334.306 152.587 334.182 152.123L330.331 137.75C330.7 136.347 331.669 135.093 333.523 134.596C335.32 134.115 336.959 134.669 337.425 136.408L341.137 150.259C341.261 150.723 341.207 150.986 340.716 151.242L338.886 152.291L340.423 158.029L356.651 153.681L355.113 147.943L353.003 147.949C352.435 147.915 352.272 147.773 352.148 147.309L348.312 132.994C346.759 127.198 341.658 124.155 335.978 125.677C331.226 126.95 329.146 129.62 328.071 132.33L326.339 128.881L314.516 132.049L316.1 137.96L318.068 138.116C318.52 138.182 318.667 138.266 318.791 138.73L323.17 155.074C323.295 155.537 323.225 155.742 322.75 156.056L320.919 157.105L322.457 162.843L338.684 158.495ZM332.893 115.819L316.608 120.183L315.33 124.687L315.967 127.063L343.843 119.594L341.11 109.394L331.837 111.878L332.893 115.819ZM339.867 106.145L337.165 96.0606L328.472 98.3899L331.174 108.474L339.867 106.145ZM365.814 97.4946L343.327 103.52L343.839 105.432L346.442 109.58L356.657 106.905C354.086 108.899 351.543 112.624 353.143 118.593L360.364 145.542C361.311 149.078 364.41 151.602 367.829 150.685L375.132 148.729L375.266 144.593L374.738 142.623L373.231 143.026C372.188 143.306 371.468 142.94 371.111 141.607L364.154 115.642C362.094 109.113 363.539 104.999 367.382 103.348L365.814 97.4946ZM411.552 132.261C410.983 132.227 410.821 132.085 410.697 131.621L409.346 126.579C408.243 122.464 404.843 120.207 400.935 119.763L403.475 116.722C404.517 115.511 405.679 114.517 407.271 113.966L405.609 107.765L394.597 110.715C394.699 111.558 394.546 112.841 393.994 113.796L388.37 122.944L385.699 112.975L372.369 116.547L373.953 122.459L375.921 122.615C376.373 122.68 376.52 122.765 376.644 123.228L381.024 139.572C381.148 140.035 381.078 140.24 380.603 140.554L378.773 141.604L380.31 147.341L396.538 142.993L395 137.255L392.89 137.262C392.322 137.228 392.159 137.085 392.035 136.621L390.793 131.985L393.703 128.472C393.861 128.367 394.035 128.321 394.209 128.274C396.585 127.638 398.21 129.066 398.862 131.5L399.545 134.05L399.778 134.919L401.58 141.642L415.199 137.993L413.662 132.255L411.552 132.261ZM430.735 134.451C434.734 133.379 437.935 130.72 438.717 128.771C439.082 129.668 439.605 130.459 440.201 131.294L452.024 128.126L450.44 122.214C448.245 122.367 447.92 122.082 447.547 120.691L443.37 105.101C443.245 104.637 443.299 104.374 443.79 104.119L445.62 103.069L444.083 97.3315L427.855 101.68L429.393 107.417L431.503 107.411C432.056 107.387 432.234 107.588 432.358 108.051L436.287 122.714C435.84 123.828 434.813 125.097 432.553 125.702C430.699 126.199 429.434 125.42 429.014 123.855L423.393 102.875L409.773 106.525L411.311 112.262L413.421 112.256C413.989 112.29 414.152 112.433 414.276 112.896L418.112 127.212C419.773 133.413 424.476 136.128 430.735 134.451ZM465.623 124.482L463.449 116.368L454.755 118.697L456.93 126.811L465.623 124.482ZM480.678 120.448L478.504 112.334L469.81 114.663L471.984 122.777L480.678 120.448ZM495.733 116.414L493.559 108.3L484.865 110.629L487.039 118.743L495.733 116.414Z" fill="white"/>
<circle cx="481.051" cy="42.0506" r="30" transform="rotate(52.6316 481.051 42.0506)" fill="#9B8CCD"/>
<circle cx="481.051" cy="42.0506" r="30" transform="rotate(52.6316 481.051 42.0506)" fill="url(#paint0_radial_197_42818)"/>
<defs>
<radialGradient id="paint0_radial_197_42818" cx="0" cy="0" r="1" gradientUnits="userSpaceOnUse" gradientTransform="translate(472.551 30.5506) rotate(49.6001) scale(30.8585)">
<stop stop-color="white"/>
<stop offset="1" stop-color="white" stop-opacity="0"/>
</radialGradient>
</defs>
</svg>
