<svg width="320" height="1000" viewBox="0 0 320 1000" fill="none" xmlns="http://www.w3.org/2000/svg">
<g clip-path="url(#clip0_243_52088)">
<rect width="320" height="1000" fill="black"/>
<circle cx="94.9289" cy="244.596" r="20" transform="rotate(-74.5895 94.9289 244.596)" fill="#5C2FF0"/>
<circle cx="94.9289" cy="244.596" r="20" transform="rotate(-74.5895 94.9289 244.596)" fill="url(#paint0_radial_243_52088)"/>
<path d="M89.861 37.688C87.749 37.688 86.213 38.856 86.213 40.936V41.72H88.213V41.784C87.381 41.976 86.549 42.664 86.549 44.168V47H87.861V43.816C87.861 42.424 88.421 41.8 89.605 41.752V40.792H87.509C87.653 39.416 88.501 38.84 89.861 38.84C91.381 38.84 92.245 39.704 92.245 41.224V47H93.557V41.144C93.557 39.032 92.325 37.688 89.861 37.688ZM99.723 47H101.035V40.472C101.035 38.696 99.963 37.688 98.091 37.688C96.715 37.688 95.627 38.28 95.067 39.304L95.947 40.104C96.459 39.336 97.083 38.84 98.059 38.84C99.163 38.84 99.723 39.368 99.723 40.616V47ZM106.519 47.192C108.423 47.192 109.671 46.152 109.671 44.36C109.671 42.984 108.903 42.12 107.079 41.864L106.375 41.768C105.335 41.624 104.695 41.176 104.695 40.296C104.695 39.416 105.335 38.84 106.407 38.84C107.463 38.84 108.247 39.432 108.631 39.992L109.591 39.16C108.839 38.232 107.879 37.688 106.503 37.688C104.823 37.688 103.431 38.568 103.431 40.36C103.431 42.056 104.679 42.664 106.199 42.888L106.903 42.984C108.023 43.144 108.407 43.816 108.407 44.52C108.407 45.464 107.687 46.04 106.599 46.04C105.495 46.04 104.711 45.56 103.991 44.6L103.047 45.4C103.863 46.472 104.903 47.192 106.519 47.192ZM114.821 37.688C113.173 37.688 112.069 38.408 111.413 39.464L112.261 40.28C112.757 39.464 113.573 38.84 114.725 38.84C116.261 38.84 116.997 39.528 116.997 41.144V41.624H115.045C112.469 41.624 111.237 42.536 111.237 44.36C111.237 46.12 112.405 47 114.245 47H115.189V45.832H114.405C113.253 45.832 112.613 45.416 112.613 44.488V44.072C112.613 43.272 113.333 42.792 114.773 42.792H116.997V47H118.309V40.952C118.309 38.872 117.093 37.688 114.821 37.688ZM122.985 47H123.993C126.057 47 127.097 46.056 127.097 43V40.12C127.097 38.68 126.505 37.88 125.273 37.88H124.089V39H125.785V43.56C125.785 45.288 125.257 45.848 124.073 45.848H123.929L121.353 37.88H120.025L122.985 47ZM132.635 47.192C134.651 47.192 135.883 46.04 135.883 44.056V42.872C135.883 41.544 135.291 40.648 134.251 40.328V40.264C135.115 39.912 135.915 39.288 135.915 38.152V37.88H134.571V38.568C134.571 39.592 133.963 40.184 132.891 40.184H132.763V41.192H133.035C134.091 41.192 134.539 41.72 134.539 42.936V43.864C134.539 45.304 133.803 46.04 132.635 46.04C131.451 46.04 130.715 45.448 130.715 43.96C130.715 41.624 132.155 41.656 132.155 39.64V39.448C132.155 38.488 131.723 37.88 130.283 37.88H129.275V39H130.875V39.784C130.875 41.512 129.371 41.192 129.371 44.008C129.371 45.976 130.603 47.192 132.635 47.192ZM134.834 34.184V35.544H134.162V34.184H133.074V35.544H129.57V36.6H134.594C135.474 36.6 135.922 36.168 135.922 35.304V34.184H134.834ZM134.834 33.56H135.922V31.384H134.834V33.56ZM141.448 47.192C144.056 47.192 145.256 45.656 145.256 42.44C145.256 39.32 144.024 37.688 141.4 37.688C139.848 37.688 138.744 38.248 138.024 39.304L138.904 40.088C139.432 39.304 140.216 38.84 141.368 38.84C142.968 38.84 143.88 39.832 143.88 41.576V43.336C143.88 45.144 143.064 46.04 141.448 46.04C139.784 46.04 139.08 45.256 139.08 43.336V42.856H140.744V41.736H139.464C138.408 41.736 137.8 42.264 137.8 43.352V43.48C137.8 45.832 139.128 47.192 141.448 47.192ZM148.927 47H150.527V45.88H148.879V37.88H147.567V45.64C147.567 46.44 148.047 47 148.927 47ZM159.662 38.44V37.32H158.19C157.63 37.32 157.262 37.624 157.262 38.088V38.2C156.734 37.848 156.03 37.688 155.214 37.688C153.63 37.688 152.526 38.408 151.87 39.464L152.718 40.28C153.214 39.464 154.03 38.84 155.182 38.84C156.718 38.84 157.454 39.528 157.454 41.144V41.624H155.502C152.926 41.624 151.694 42.536 151.694 44.36C151.694 46.12 152.862 47 154.702 47H155.646V45.832H154.862C153.71 45.832 153.07 45.416 153.07 44.488V44.072C153.07 43.272 153.79 42.792 155.23 42.792H157.454V47H158.766V41C158.766 40.12 158.542 39.368 158.014 38.808V38.44H159.662ZM164.697 47.192C166.201 47.192 166.889 46.36 167.241 45.496H167.305V47H168.585V37.88H167.273V44.264C167.273 45.464 166.169 46.024 165.049 46.024C163.689 46.024 162.953 45.176 162.953 43.544V37.88H161.641V43.736C161.641 45.928 162.841 47.192 164.697 47.192ZM174.464 47.192C177.072 47.192 178.272 45.656 178.272 42.44C178.272 39.32 177.04 37.688 174.416 37.688C172.864 37.688 171.76 38.248 171.04 39.304L171.92 40.088C172.448 39.304 173.232 38.84 174.384 38.84C175.984 38.84 176.896 39.832 176.896 41.576V43.336C176.896 45.144 176.08 46.04 174.464 46.04C172.8 46.04 172.096 45.256 172.096 43.336V42.856H173.76V41.736H172.48C171.424 41.736 170.816 42.264 170.816 43.352V43.48C170.816 45.832 172.144 47.192 174.464 47.192ZM183.814 37.688C181.702 37.688 180.166 38.856 180.166 40.936V41.72H182.166V41.784C181.334 41.976 180.502 42.664 180.502 44.168V47H181.814V43.816C181.814 42.424 182.374 41.8 183.558 41.752V40.792H181.462C181.606 39.416 182.454 38.84 183.814 38.84C185.334 38.84 186.198 39.704 186.198 41.224V47H187.51V41.144C187.51 39.032 186.278 37.688 183.814 37.688ZM193.66 37.688C191.356 37.688 189.964 38.856 189.964 40.936V41.72H192.284V41.784C191.452 41.976 190.62 42.664 190.62 44.168V45.88H189.5V47H190.188C191.516 47 191.9 46.6 191.9 45.032V43.816C191.9 42.696 192.284 41.8 193.5 41.752V40.792H191.244C191.356 39.432 192.092 38.84 193.66 38.84C195.244 38.84 196.156 39.704 196.156 41.224V49.24H196.076C195.548 48.424 194.668 47.864 193.5 47.864C192.348 47.864 191.196 48.568 190.636 49.56L191.516 50.344C191.996 49.528 192.716 49 193.724 49C194.652 49 195.452 49.384 196.108 50.2H197.468V41.144C197.468 39.032 196.252 37.688 193.66 37.688ZM200.205 47H201.517V42.136H204.157C205.213 42.136 205.661 42.664 205.661 43.88V47H207.005V43.656C207.005 42.28 206.381 41.384 205.277 41.08V41.016C206.141 40.696 206.941 40.072 206.941 38.936V37.88H205.629V39.352C205.629 40.04 205.293 40.968 203.949 40.968H201.517V37.88H200.205V47ZM213.593 47.192C215.449 47.192 216.649 45.928 216.649 43.736V37.88H215.337V43.544C215.337 45.176 214.601 46.024 213.241 46.024C212.121 46.024 211.017 45.464 211.017 44.264V37.88H209.705V47H210.985V45.496H211.049C211.401 46.36 212.089 47.192 213.593 47.192ZM222.848 47H224.16V40.472C224.16 38.696 223.088 37.688 221.216 37.688C219.84 37.688 218.752 38.28 218.192 39.304L219.072 40.104C219.584 39.336 220.208 38.84 221.184 38.84C222.288 38.84 222.848 39.368 222.848 40.616V47ZM230.076 47.192C232.332 47.192 233.532 45.928 233.532 43.736V37.88H232.22V43.544C232.22 45.192 231.484 46.04 230.076 46.04C228.668 46.04 227.932 45.256 227.932 43.96V42.504H230.108V41.352H229.692C228.412 41.352 228.012 40.392 228.012 39.32V39H229.9V37.88H228.444C227.292 37.88 226.732 38.44 226.732 39.416V39.496C226.732 40.568 227.58 41.112 228.396 41.304V41.352H228.252C227.196 41.352 226.62 42.136 226.62 43.464V43.976C226.62 45.992 227.82 47.192 230.076 47.192ZM99.8691 71.192C101.885 71.192 103.085 70.04 103.085 68.056V61.88H101.773V67.864C101.773 69.304 101.037 70.04 99.8691 70.04C98.6851 70.04 97.9491 69.448 97.9491 67.96C97.9491 65.624 99.3891 65.656 99.3891 63.64V63.448C99.3891 62.488 98.9571 61.88 97.5171 61.88H96.5091V63H98.1091V63.784C98.1091 65.512 96.6051 65.192 96.6051 68.008C96.6051 69.976 97.8211 71.192 99.8691 71.192ZM108.87 71.192C111.478 71.192 112.678 69.656 112.678 66.44C112.678 63.32 111.446 61.688 108.822 61.688C107.27 61.688 106.166 62.248 105.446 63.304L106.326 64.088C106.854 63.304 107.638 62.84 108.79 62.84C110.39 62.84 111.302 63.832 111.302 65.576V67.336C111.302 69.144 110.486 70.04 108.87 70.04C107.206 70.04 106.502 69.256 106.502 67.336V66.856H108.166V65.736H106.886C105.83 65.736 105.222 66.264 105.222 67.352V67.48C105.222 69.832 106.55 71.192 108.87 71.192ZM116.844 71H117.852C119.916 71 120.956 70.056 120.956 67V64.12C120.956 62.68 120.364 61.88 119.132 61.88H117.948V63H119.644V67.56C119.644 69.288 119.116 69.848 117.932 69.848H117.788L115.212 61.88H113.884L116.844 71ZM126.894 71.192C129.15 71.192 130.35 69.928 130.35 67.736V58.52H129.038V67.544C129.038 69.192 128.302 70.04 126.894 70.04C125.47 70.04 124.734 69.192 124.734 67.544V61.88H123.422V67.736C123.422 69.928 124.622 71.192 126.894 71.192ZM135.832 71.192C137.736 71.192 138.984 70.152 138.984 68.36C138.984 66.984 138.216 66.12 136.391 65.864L135.688 65.768C134.648 65.624 134.008 65.176 134.008 64.296C134.008 63.416 134.648 62.84 135.72 62.84C136.776 62.84 137.56 63.432 137.944 63.992L138.904 63.16C138.152 62.232 137.192 61.688 135.816 61.688C134.136 61.688 132.743 62.568 132.743 64.36C132.743 66.056 133.992 66.664 135.512 66.888L136.216 66.984C137.336 67.144 137.72 67.816 137.72 68.52C137.72 69.464 137 70.04 135.911 70.04C134.808 70.04 134.024 69.56 133.304 68.6L132.36 69.4C133.176 70.472 134.216 71.192 135.832 71.192ZM142.069 65.416L144.885 65.4V64.216L141.957 64.232V62.76L140.709 62.776V64.056C140.709 64.92 141.269 65.416 142.069 65.416ZM142.069 70.056L144.885 70.04V68.856L141.957 68.872V67.4L140.709 67.416V68.696C140.709 69.56 141.269 70.056 142.069 70.056ZM149.885 71.192C151.901 71.192 153.133 70.04 153.133 68.056V66.872C153.133 65.544 152.541 64.648 151.501 64.328V64.264C152.365 63.912 153.165 63.288 153.165 62.152V61.88H151.821V62.568C151.821 63.592 151.213 64.184 150.141 64.184H150.013V65.192H150.285C151.341 65.192 151.789 65.72 151.789 66.936V67.864C151.789 69.304 151.053 70.04 149.885 70.04C148.701 70.04 147.965 69.448 147.965 67.96C147.965 65.624 149.405 65.656 149.405 63.64V63.448C149.405 62.488 148.973 61.88 147.533 61.88H146.525V63H148.125V63.784C148.125 65.512 146.621 65.192 146.621 68.008C146.621 69.976 147.853 71.192 149.885 71.192ZM159.098 71H160.41V64.472C160.41 62.696 159.338 61.688 157.466 61.688C156.09 61.688 155.002 62.28 154.442 63.304L155.322 64.104C155.834 63.336 156.458 62.84 157.434 62.84C158.538 62.84 159.098 63.368 159.098 64.616V71ZM166.166 71.192C168.182 71.192 169.414 70.04 169.414 68.056V66.872C169.414 65.544 168.822 64.648 167.782 64.328V64.264C168.646 63.912 169.446 63.288 169.446 62.152V61.88H168.102V62.568C168.102 63.592 167.494 64.184 166.422 64.184H166.294V65.192H166.566C167.622 65.192 168.07 65.72 168.07 66.936V67.864C168.07 69.304 167.334 70.04 166.166 70.04C164.982 70.04 164.246 69.448 164.246 67.96C164.246 65.624 165.686 65.656 165.686 63.64V63.448C165.686 62.488 165.254 61.88 163.814 61.88H162.806V63H164.406V63.784C164.406 65.512 162.902 65.192 162.902 68.008C162.902 69.976 164.134 71.192 166.166 71.192ZM174.931 71.192C176.435 71.192 177.123 70.36 177.475 69.496H177.539V71H178.819V61.88H177.507V68.264C177.507 69.464 176.403 70.024 175.283 70.024C173.923 70.024 173.187 69.176 173.187 67.544V61.88H171.875V67.736C171.875 69.928 173.075 71.192 174.931 71.192ZM184.698 71.192C187.306 71.192 188.506 69.656 188.506 66.44C188.506 63.32 187.274 61.688 184.65 61.688C183.098 61.688 181.994 62.248 181.274 63.304L182.154 64.088C182.682 63.304 183.466 62.84 184.618 62.84C186.218 62.84 187.13 63.832 187.13 65.576V67.336C187.13 69.144 186.314 70.04 184.698 70.04C183.034 70.04 182.33 69.256 182.33 67.336V66.856H183.994V65.736H182.714C181.658 65.736 181.05 66.264 181.05 67.352V67.48C181.05 69.832 182.378 71.192 184.698 71.192ZM193.889 71.192C196.145 71.192 197.345 69.928 197.345 67.736V61.88H196.033V67.544C196.033 69.192 195.297 70.04 193.889 70.04C192.481 70.04 191.745 69.256 191.745 67.96V66.504H193.921V65.352H193.505C192.225 65.352 191.825 64.392 191.825 63.32V63H193.713V61.88H192.257C191.105 61.88 190.545 62.44 190.545 63.416V63.496C190.545 64.568 191.393 65.112 192.209 65.304V65.352H192.065C191.009 65.352 190.433 66.136 190.433 67.464V67.976C190.433 69.992 191.633 71.192 193.889 71.192ZM196.048 60.6H197.296V57.944H196.048V60.6ZM203.536 71H204.848V64.472C204.848 62.696 203.776 61.688 201.904 61.688C200.528 61.688 199.44 62.28 198.88 63.304L199.76 64.104C200.272 63.336 200.896 62.84 201.872 62.84C202.976 62.84 203.536 63.368 203.536 64.616V71ZM209.548 71H210.556C212.62 71 213.66 70.056 213.66 67V64.12C213.66 62.68 213.068 61.88 211.836 61.88H210.652V63H212.348V67.56C212.348 69.288 211.82 69.848 210.636 69.848H210.492L207.916 61.88H206.588L209.548 71ZM216.205 71H217.517V64.632C217.517 63.432 218.653 62.872 219.805 62.872C221.149 62.872 221.885 63.72 221.885 65.352V71H223.197V65.144C223.197 62.952 221.997 61.688 220.157 61.688C218.621 61.688 217.917 62.52 217.549 63.384H217.485V61.88H216.205V71ZM216.759 60.6H221.783C222.663 60.6 223.111 60.168 223.111 59.304V58.184H221.895V59.544H216.759V60.6ZM222.021 57.56H223.109V55.384H222.021V57.56ZM103.408 95H104.72V90.136H107.36C108.416 90.136 108.864 90.664 108.864 91.88V95H110.208V91.656C110.208 90.28 109.584 89.384 108.48 89.08V89.016C109.344 88.696 110.144 88.072 110.144 86.936V85.88H108.832V87.352C108.832 88.04 108.496 88.968 107.152 88.968H104.72V85.88H103.408V95ZM115.836 85.688C114.188 85.688 113.084 86.408 112.428 87.464L113.276 88.28C113.772 87.464 114.588 86.84 115.74 86.84C117.276 86.84 118.012 87.528 118.012 89.144V89.624H116.06C113.484 89.624 112.252 90.536 112.252 92.36C112.252 94.12 113.42 95 115.26 95H116.204V93.832H115.42C114.268 93.832 113.628 93.416 113.628 92.488V92.072C113.628 91.272 114.348 90.792 115.788 90.792H118.012V95H119.324V88.952C119.324 86.872 118.108 85.688 115.836 85.688ZM125.489 95H126.801V88.472C126.801 86.696 125.729 85.688 123.857 85.688C122.481 85.688 121.393 86.28 120.833 87.304L121.713 88.104C122.225 87.336 122.849 86.84 123.825 86.84C124.929 86.84 125.489 87.368 125.489 88.616V95ZM132.717 95.192C134.973 95.192 136.173 93.928 136.173 91.736V85.88H134.861V91.544C134.861 93.192 134.125 94.04 132.717 94.04C131.309 94.04 130.573 93.256 130.573 91.96V90.504H132.749V89.352H132.333C131.053 89.352 130.653 88.392 130.653 87.32V87H132.541V85.88H131.085C129.933 85.88 129.373 86.44 129.373 87.416V87.496C129.373 88.568 130.221 89.112 131.037 89.304V89.352H130.893C129.837 89.352 129.261 90.136 129.261 91.464V91.976C129.261 93.992 130.461 95.192 132.717 95.192ZM143.884 97.528H145.196V88.104C145.196 86.28 144.044 85.688 142.828 85.688L141.884 86.904H141.836L140.876 85.688C139.324 85.688 138.348 86.792 138.348 88.648V88.712C138.348 90.568 139.068 91.8 141.212 91.8H141.868V90.632H141.292C140.044 90.632 139.692 90.104 139.692 89.144V88.296C139.692 87.416 140.108 86.952 140.684 86.952L141.836 88.232H141.868L143.02 86.952C143.676 87.032 143.884 87.336 143.884 88.744V97.528ZM151.89 95H153.202V92.776C153.202 91.432 154.13 91.096 154.978 91.096H156.146V89.784H155.394C154.178 89.784 153.554 90.536 153.266 91.352H153.202V89.224C153.202 87.688 154.082 86.84 155.522 86.84C156.962 86.84 157.842 87.688 157.842 89.224V95H159.154V89.144C159.154 87.032 157.906 85.688 155.522 85.688C153.138 85.688 151.89 87.032 151.89 89.144V95ZM164.869 95.192C166.373 95.192 167.061 94.36 167.413 93.496H167.477V95H168.757V85.88H167.445V92.264C167.445 93.464 166.341 94.024 165.221 94.024C163.861 94.024 163.125 93.176 163.125 91.544V85.88H161.813V91.736C161.813 93.928 163.013 95.192 164.869 95.192ZM174.332 95.192C176.236 95.192 177.484 94.152 177.484 92.36C177.484 90.984 176.716 90.12 174.891 89.864L174.188 89.768C173.148 89.624 172.508 89.176 172.508 88.296C172.508 87.416 173.148 86.84 174.22 86.84C175.276 86.84 176.06 87.432 176.444 87.992L177.404 87.16C176.652 86.232 175.692 85.688 174.316 85.688C172.636 85.688 171.243 86.568 171.243 88.36C171.243 90.056 172.492 90.664 174.012 90.888L174.716 90.984C175.836 91.144 176.22 91.816 176.22 92.52C176.22 93.464 175.5 94.04 174.411 94.04C173.308 94.04 172.524 93.56 171.804 92.6L170.86 93.4C171.676 94.472 172.716 95.192 174.332 95.192ZM174.852 99.272H176.1C176.772 99.272 177.156 98.888 177.156 98.216V96.168H176.068V98.328H174.884V97.384C174.884 96.6 174.452 96.168 173.684 96.168H173.06V97.128H173.796V98.216C173.796 98.888 174.18 99.272 174.852 99.272ZM174.194 84.6H177.922V83.544H175.25V83.4C175.25 82.488 174.914 82.184 174.018 82.184H173.074V83.24H174.194V84.6ZM182.073 95.192C184.521 95.192 185.689 93.56 185.689 90.44C185.689 87.32 184.521 85.688 182.073 85.688C180.425 85.688 179.369 86.488 178.857 87.624L180.009 88.168C180.345 87.336 181.097 86.84 182.073 86.84C183.401 86.84 184.313 87.832 184.313 89.576V91.304C184.313 93.048 183.401 94.04 182.073 94.04C181.097 94.04 180.345 93.544 180.009 92.712L178.857 93.256C179.369 94.392 180.425 95.192 182.073 95.192ZM184.267 84.6H185.515V81.944H184.267V84.6ZM191.332 95H192.644V88.472C192.644 86.696 191.572 85.688 189.7 85.688C188.324 85.688 187.236 86.28 186.676 87.304L187.556 88.104C188.068 87.336 188.692 86.84 189.668 86.84C190.772 86.84 191.332 87.368 191.332 88.616V95ZM196.848 95H198.448V93.88H196.8V85.88H195.488V93.64C195.488 94.44 195.968 95 196.848 95ZM203.504 95.192C205.76 95.192 206.96 93.928 206.96 91.736V82.52H205.648V91.544C205.648 93.192 204.912 94.04 203.504 94.04C202.08 94.04 201.344 93.192 201.344 91.544V85.88H200.032V91.736C200.032 93.928 201.232 95.192 203.504 95.192ZM201.801 82.376H205.065V81.528H201.721C200.713 81.528 200.041 82.152 200.041 83.096C200.041 84.056 200.617 84.68 201.497 84.68C202.169 84.68 202.505 84.328 202.569 83.784L202.601 83.48H202.617C202.697 84.264 203.081 84.68 203.641 84.68C204.169 84.68 204.585 84.36 204.585 83.576V83H203.737V83.416C203.737 83.752 203.577 83.912 203.305 83.912C202.985 83.912 202.809 83.624 202.809 83.096H201.977L201.737 83.944C201.305 83.912 201.081 83.656 201.081 83.16C201.081 82.648 201.337 82.376 201.801 82.376ZM212.697 95.192C214.201 95.192 214.889 94.36 215.241 93.496H215.305V95H216.585V85.88H215.273V92.264C215.273 93.464 214.169 94.024 213.049 94.024C211.689 94.024 210.953 93.176 210.953 91.544V85.88H209.641V91.736C209.641 93.928 210.841 95.192 212.697 95.192Z" fill="white"/>
<path d="M60 0V480M260 0V480" stroke="white" stroke-width="1.33333"/>
<circle cx="187.35" cy="123.017" r="20" transform="rotate(-37.112 187.35 123.017)" fill="#DFFF5F"/>
<circle cx="187.35" cy="123.017" r="20" transform="rotate(-37.112 187.35 123.017)" fill="url(#paint1_radial_243_52088)"/>
<path d="M109.011 177.432C114.303 177.432 118.047 174.732 118.047 170.952V166.668C118.047 164.688 117.219 163.464 115.239 162.888L116.967 161.016C117.399 160.548 118.047 160.404 118.767 160.368V156.84H112.395L109.299 162.492V164.148C110.847 164.364 111.207 164.976 111.207 166.812V170.592C111.207 171.96 110.451 172.752 109.011 172.752C107.571 172.752 106.815 171.96 106.815 170.592V164.616C106.815 162.708 107.787 161.736 109.155 161.484V157.92H99.3273V161.484H102.891C100.911 162.06 99.9753 163.896 99.9753 166.128V170.952C99.9753 174.732 103.719 177.432 109.011 177.432ZM117.5 155.004V147.804H111.74V155.004H117.5ZM130.211 157.56C126.971 157.56 123.443 158.82 121.823 159.792C121.859 161.268 122.003 163.32 122.183 164.724H127.475C127.727 163.572 128.627 162.672 130.103 162.672C131.795 162.672 132.623 163.464 132.623 165.12V170.124C132.623 171.78 131.759 172.608 129.959 172.608C128.915 172.608 127.655 172.356 127.151 171.924V170.088H129.491V166.488H121.643V174.984H122.435C124.019 176.352 127.259 177.288 129.959 177.288C135.647 177.288 139.463 174.876 139.463 170.34V164.904C139.463 160.62 136.187 157.56 130.211 157.56ZM151.786 177C156.25 177 159.094 174.984 159.094 171.06V157.92H150.634V161.484L151.858 161.808C152.182 161.88 152.254 162.024 152.254 162.312V171.564C152.254 172.356 151.858 172.68 151.138 172.68H150.454L147.502 162.6H141.094V165.768C141.778 165.84 142.21 166.128 142.426 166.776L145.774 177H151.786ZM171.886 177V173.436L170.662 173.112C170.338 173.004 170.266 172.896 170.266 172.608V163.68C170.698 162.924 171.454 162.348 172.606 162.348C173.722 162.348 174.586 162.924 174.586 164.004V172.608C174.586 172.896 174.514 173.04 174.19 173.112L172.966 173.436V177H183.046V173.436L181.822 173.112C181.498 173.004 181.426 172.896 181.426 172.608V163.716C181.426 160.116 178.942 157.56 175.414 157.56C172.462 157.56 170.842 158.784 169.798 160.188L169.33 157.92H161.986V161.592L163.102 161.988C163.354 162.096 163.426 162.168 163.426 162.456V172.608C163.426 172.896 163.354 173.004 163.03 173.112L161.806 173.436V177H171.886ZM201.221 177V173.436L199.925 172.932C199.673 172.824 199.601 172.752 199.601 172.464V164.508C199.601 160.332 197.009 157.632 191.645 157.632C188.549 157.632 185.741 158.928 184.301 160.224C184.409 161.592 184.481 162.996 184.589 164.364H189.917C190.097 163.464 190.493 162.96 191.429 162.96C192.401 162.96 192.761 163.608 192.761 164.508V172.464C192.761 172.752 192.689 172.824 192.437 172.932L191.141 173.436V177L201.221 177ZM212.993 177C217.457 177 220.301 174.984 220.301 171.06V157.92H211.841V161.484L213.065 161.808C213.389 161.88 213.461 162.024 213.461 162.312V171.564C213.461 172.356 213.065 172.68 212.345 172.68H211.661L208.709 162.6H202.301V165.768C202.985 165.84 203.417 166.128 203.633 166.776L206.981 177H212.993Z" fill="white"/>
<path d="M90.0518 209.336C94.1678 209.336 97.3598 207.46 97.3598 203.876V188H95.9598L92.0398 189.176V203.764C92.0398 205.052 91.1718 205.696 90.0518 205.696C88.9318 205.696 88.0638 205.052 88.0638 203.764V194.16H81.4838V196.932L82.4358 197.184C82.6878 197.24 82.7438 197.352 82.7438 197.576V203.876C82.7438 207.46 85.9358 209.336 90.0518 209.336ZM106.366 209.224C110.51 209.224 112.89 207.04 112.89 204.1C112.89 201.944 111.406 200.404 108.41 199.816C106.114 199.368 105.162 199.116 105.162 198.416C105.162 197.912 105.638 197.604 106.646 197.604C107.402 197.604 108.242 198.024 108.522 198.724H112.218C112.218 198.724 112.386 196.736 112.386 194.916C111.098 194.3 108.886 193.88 106.674 193.88C102.726 193.88 100.01 195.56 100.01 198.528C100.01 201.244 101.914 202.616 104.434 203.092C106.954 203.568 107.71 203.904 107.71 204.632C107.71 205.052 107.402 205.528 106.142 205.528C105.218 205.528 104.462 205.136 104.378 204.492H100.318C100.206 205.696 100.122 206.9 100.01 208.104C100.01 208.104 102.334 209.224 106.366 209.224ZM124.501 200.74L125.201 198.416V197.044H120.721C119.881 197.044 119.601 196.848 119.601 196.092V195.252H118.285L115.681 195.812V198.024C115.681 199.62 116.913 200.74 119.097 200.74H124.501ZM124.501 208.356L125.201 206.032V204.66H120.721C119.881 204.66 119.601 204.464 119.601 203.708V202.868H118.285L115.681 203.428V205.64C115.681 207.236 116.913 208.356 119.097 208.356H124.501ZM135.545 209.336C139.661 209.336 142.573 207.236 142.573 204.296V200.964C142.573 199.424 141.929 198.472 140.389 198.024L141.733 196.568C142.069 196.204 142.573 196.092 143.133 196.064V193.32H138.177L135.769 197.716V199.004C136.973 199.172 137.253 199.648 137.253 201.076V204.016C137.253 205.08 136.665 205.696 135.545 205.696C134.425 205.696 133.837 205.08 133.837 204.016V199.368C133.837 197.884 134.593 197.128 135.657 196.932V194.16H128.013V196.932H130.785C129.245 197.38 128.517 198.808 128.517 200.544V204.296C128.517 207.236 131.429 209.336 135.545 209.336ZM157.69 209V206.228L156.682 205.836C156.486 205.752 156.43 205.696 156.43 205.472V199.284C156.43 196.036 154.414 193.936 150.242 193.936C147.834 193.936 145.65 194.944 144.53 195.952C144.614 197.016 144.67 198.108 144.754 199.172H148.898C149.038 198.472 149.346 198.08 150.074 198.08C150.83 198.08 151.11 198.584 151.11 199.284V205.472C151.11 205.696 151.054 205.752 150.858 205.836L149.85 206.228V209H157.69ZM166.118 209.224C170.234 209.224 173.23 207.46 173.23 204.772V203.54C173.23 201.384 171.914 200.124 168.75 199.536C166.454 199.116 164.382 199.116 164.382 198.416C164.382 197.912 164.858 197.52 166.426 197.52C167.882 197.52 168.61 197.94 169.002 198.64H172.698C172.81 197.492 172.866 196.344 172.866 195.196C171.578 194.58 169.366 193.88 166.734 193.88C162.786 193.88 159.51 195.28 159.51 197.968C159.51 200.404 161.078 201.216 165.334 201.972C167.518 202.364 168.05 202.588 168.05 203.596V204.324C168.05 205.472 167.266 205.864 166.062 205.864C165.362 205.864 164.578 205.668 164.158 205.36L164.13 202.112H163.262L159.538 202.952L159.594 207.824H160.21C161.134 208.524 162.842 209.224 166.118 209.224ZM173.212 192.088V189.064L160.892 189.064L159.772 190.94V192.088H173.212ZM183.567 209.336C187.683 209.336 190.875 207.46 190.875 203.876V188H189.475L185.555 189.176V203.764C185.555 205.052 184.687 205.696 183.567 205.696C182.447 205.696 181.579 205.052 181.579 203.764V194.16H174.999V196.932L175.951 197.184C176.203 197.24 176.259 197.352 176.259 197.576V203.876C176.259 207.46 179.451 209.336 183.567 209.336ZM202.486 184.78H191.622V185.704L192.294 187.888L197.222 187.916C195.822 188.504 194.226 189.876 194.226 192.76V205.78C194.226 207.488 195.318 209 196.97 209H200.498L201.058 207.152V206.2H200.33C199.826 206.2 199.546 205.948 199.546 205.304V192.76C199.406 189.568 200.554 187.888 202.486 187.608V184.78ZM219.743 205.976C219.491 205.92 219.435 205.808 219.435 205.584V199.872C219.435 196.176 217.391 194.412 214.423 194.076H213.695L211.791 195.672L209.747 194.048H209.047C206.331 194.384 204.175 196.288 204.175 199.872V205.584C204.175 205.808 204.119 205.92 203.867 205.976L202.915 206.228V209H206.079C211.567 209 213.919 206.228 213.919 202.952C213.919 201.72 213.527 200.824 212.939 200.348H209.915L209.775 203.708C210.167 203.736 210.419 204.016 210.419 204.492C210.419 204.968 210.083 205.5 209.215 205.808V199.592C209.215 198.696 209.635 197.94 210.531 197.94L211.651 198.724H211.959L213.051 197.94C214.003 197.968 214.395 198.64 214.395 199.592V205.612C214.395 205.836 214.339 205.92 214.143 205.976L213.415 206.228V209H220.695V206.228L219.743 205.976ZM230.182 209.336C234.298 209.336 237.21 207.18 237.21 204.156V197.576C237.21 197.352 237.266 197.268 237.518 197.184L238.47 196.932V194.16H230.63V196.932L231.582 197.184C231.834 197.268 231.89 197.352 231.89 197.576V204.044C231.89 205.052 231.302 205.696 230.182 205.696C228.782 205.696 228.474 205.052 228.474 204.044C228.474 202.952 229.062 202.532 229.818 202.532H230.714L231.274 200.404V199.508H230.238C228.838 199.508 228.362 199.116 228.362 197.884V196.904H229.678V194.16H222.846V197.576C222.846 199.536 223.798 200.516 225.338 200.852V200.88C223.966 201.3 222.79 202.168 222.79 204.38C222.79 207.404 225.786 209.336 230.182 209.336Z" fill="white"/>
<path d="M107.62 245V241.436L106.396 241.112C106.072 241.004 106 240.896 106 240.608V231.68C106.432 230.924 107.188 230.348 108.34 230.348C109.456 230.348 110.32 230.924 110.32 232.004V240.608C110.32 240.896 110.248 241.04 109.924 241.112L108.7 241.436V245H118.78V241.436L117.556 241.112C117.232 241.004 117.16 240.896 117.16 240.608V231.716C117.16 228.116 114.676 225.56 111.148 225.56C108.196 225.56 106.576 226.784 105.532 228.188L105.064 225.92H97.72V229.592L98.836 229.988C99.088 230.096 99.16 230.168 99.16 230.456V240.608C99.16 240.896 99.088 241.004 98.764 241.112L97.54 241.436V245H107.62ZM136.956 245V241.436L135.66 240.932C135.408 240.824 135.336 240.752 135.336 240.464V232.508C135.336 228.332 132.744 225.632 127.38 225.632C124.284 225.632 121.476 226.928 120.036 228.224C120.144 229.592 120.216 230.996 120.324 232.364H125.652C125.832 231.464 126.228 230.96 127.164 230.96C128.136 230.96 128.496 231.608 128.496 232.508V240.464C128.496 240.752 128.424 240.824 128.172 240.932L126.876 241.436V245H136.956ZM148.728 245C153.192 245 156.036 242.984 156.036 239.06V225.92H147.576V229.484L148.8 229.808C149.124 229.88 149.196 230.024 149.196 230.312V239.564C149.196 240.356 148.8 240.68 148.08 240.68H147.396L144.444 230.6H138.036V233.768C138.72 233.84 139.152 234.128 139.368 234.776L142.716 245H148.728ZM180.563 241.112C180.239 241.04 180.167 240.896 180.167 240.608V233.264C180.167 228.512 177.539 226.244 173.723 225.812H172.787L170.339 227.864L167.711 225.776H166.811C163.319 226.208 160.547 228.656 160.547 233.264V240.608C160.547 240.896 160.475 241.04 160.151 241.112L158.927 241.436V245H162.995C170.051 245 173.075 241.436 173.075 237.224C173.075 235.64 172.571 234.488 171.815 233.876H167.927L167.747 238.196C168.251 238.232 168.575 238.592 168.575 239.204C168.575 239.816 168.143 240.5 167.027 240.896V232.904C167.027 231.752 167.567 230.78 168.719 230.78L170.159 231.788H170.555L171.959 230.78C173.183 230.816 173.687 231.68 173.687 232.904V240.644C173.687 240.932 173.615 241.04 173.363 241.112L172.427 241.436V245H181.787V241.436L180.563 241.112ZM192.292 245.288C197.62 245.288 200.68 242.48 200.68 238.7C200.68 235.928 198.772 233.948 194.92 233.192C191.968 232.616 190.744 232.292 190.744 231.392C190.744 230.744 191.356 230.348 192.652 230.348C193.624 230.348 194.704 230.888 195.064 231.788L199.816 231.788C199.816 231.788 200.032 229.232 200.032 226.892C198.376 226.1 195.532 225.56 192.688 225.56C187.612 225.56 184.12 227.72 184.12 231.536C184.12 235.028 186.568 236.792 189.808 237.404C193.048 238.016 194.02 238.448 194.02 239.384C194.02 239.924 193.624 240.536 192.004 240.536C190.816 240.536 189.844 240.032 189.736 239.204H184.516C184.372 240.752 184.264 242.3 184.12 243.848C184.12 243.848 187.108 245.288 192.292 245.288ZM213.521 245C217.985 245 220.829 242.984 220.829 239.06V225.92H212.369V229.484L213.593 229.808C213.917 229.88 213.989 230.024 213.989 230.312V239.564C213.989 240.356 213.593 240.68 212.873 240.68H212.189L209.237 230.6H202.829V233.768C203.513 233.84 203.945 234.128 204.161 234.776L207.509 245H213.521Z" fill="white"/>
<circle cx="215.333" cy="286" r="20" fill="#78E5B8"/>
<circle cx="215.333" cy="286" r="20" fill="url(#paint2_radial_243_52088)"/>
<path d="M87.7443 324.333H89.0563V317.965C89.0563 316.765 90.1923 316.205 91.3443 316.205C92.6883 316.205 93.4243 317.053 93.4243 318.685V324.333H94.7363V318.477C94.7363 316.285 93.5363 315.021 91.6963 315.021C90.1603 315.021 89.4563 315.853 89.0883 316.717H89.0243V315.213H87.7443V324.333ZM88.2981 313.933H93.3221C94.2021 313.933 94.6501 313.501 94.6501 312.637V311.517H93.4341V312.877H88.2981V313.933ZM93.5606 310.893H94.6486V308.717H93.5606V310.893ZM98.9499 324.333H100.55V323.213H98.9019V315.213H97.5899V322.973C97.5899 323.773 98.0699 324.333 98.9499 324.333ZM105.605 324.525C107.861 324.525 109.061 323.261 109.061 321.069V311.853H107.749V320.877C107.749 322.525 107.013 323.373 105.605 323.373C104.181 323.373 103.445 322.525 103.445 320.877V315.213H102.133V321.069C102.133 323.261 103.333 324.525 105.605 324.525ZM101.644 313.933H106.956V312.973H101.644V313.933ZM114.718 324.333H115.518V323.165H114.798C113.47 323.165 112.67 322.477 112.67 320.733V319.021C112.67 317.197 113.566 316.173 115.038 316.173C116.478 316.173 117.246 317.069 117.246 318.653V324.333H118.558V318.477C118.558 316.285 117.342 315.021 115.07 315.021C112.606 315.021 111.294 316.605 111.294 319.821C111.294 323.149 112.366 324.333 114.718 324.333ZM123.05 324.333H124.65V323.213H123.002V315.821C123.002 313.213 122.426 311.629 120.858 311.021V310.957H125.322V309.869H119.498V310.989C120.826 311.037 121.69 312.509 121.69 314.813V322.973C121.69 323.773 122.17 324.333 123.05 324.333ZM129.362 324.525C131.97 324.525 133.17 322.989 133.17 319.773C133.17 316.653 131.938 315.021 129.314 315.021C127.762 315.021 126.658 315.581 125.938 316.637L126.818 317.421C127.346 316.637 128.13 316.173 129.282 316.173C130.882 316.173 131.794 317.165 131.794 318.909V320.669C131.794 322.477 130.978 323.373 129.362 323.373C127.698 323.373 126.994 322.589 126.994 320.669V320.189H128.658V319.069H127.378C126.322 319.069 125.714 319.597 125.714 320.685V320.813C125.714 323.165 127.042 324.525 129.362 324.525ZM138.713 315.021C136.601 315.021 135.065 316.189 135.065 318.269V319.053H137.065V319.117C136.233 319.309 135.401 319.997 135.401 321.501V324.333H136.713V321.149C136.713 319.757 137.273 319.133 138.457 319.085V318.125H136.361C136.505 316.749 137.353 316.173 138.713 316.173C140.233 316.173 141.097 317.037 141.097 318.557V324.333H142.409V318.477C142.409 316.365 141.177 315.021 138.713 315.021ZM148.575 324.333H149.887V317.805C149.887 316.029 148.815 315.021 146.943 315.021C145.567 315.021 144.479 315.613 143.919 316.637L144.799 317.437C145.311 316.669 145.935 316.173 146.911 316.173C148.015 316.173 148.575 316.701 148.575 317.949V324.333ZM160.123 315.773V314.653H158.651C158.091 314.653 157.723 314.957 157.723 315.421V315.533C157.195 315.181 156.491 315.021 155.675 315.021C154.091 315.021 152.987 315.741 152.331 316.797L153.179 317.613C153.675 316.797 154.491 316.173 155.643 316.173C157.179 316.173 157.915 316.861 157.915 318.477V318.957H155.963C153.387 318.957 152.155 319.869 152.155 321.693C152.155 323.453 153.323 324.333 155.163 324.333H156.107V323.165H155.323C154.171 323.165 153.531 322.749 153.531 321.821V321.405C153.531 320.605 154.251 320.125 155.691 320.125H157.915V324.333H159.227V318.333C159.227 317.453 159.003 316.701 158.475 316.141V315.773H160.123ZM164.038 324.333H165.638V323.213H163.958V314.525C164.902 314.317 165.99 313.581 165.99 312.013C165.99 310.541 164.982 309.581 163.414 309.581C162.038 309.581 161.062 310.301 160.662 311.517L161.734 312.189C162.022 311.229 162.534 310.717 163.366 310.717C164.166 310.717 164.646 311.197 164.646 312.013V312.189C164.646 313.181 163.91 313.773 162.678 313.821V322.973C162.678 323.773 163.158 324.333 164.038 324.333ZM167.432 324.333H168.744V319.469H171.384C172.44 319.469 172.888 319.997 172.888 321.213V324.333H174.232V320.989C174.232 319.613 173.608 318.717 172.504 318.413V318.349C173.368 318.029 174.168 317.405 174.168 316.269V315.213H172.856V316.685C172.856 317.373 172.52 318.301 171.176 318.301H168.744V315.213H167.432V324.333ZM171.108 313.933H174.836V312.877H172.164V312.733C172.164 311.821 171.828 311.517 170.932 311.517H169.988V312.573H171.108V313.933ZM180.324 324.525C182.58 324.525 183.78 323.261 183.78 321.069V311.853H182.468V320.877C182.468 322.525 181.732 323.373 180.324 323.373C178.9 323.373 178.164 322.525 178.164 320.877V315.213H176.852V321.069C176.852 323.261 178.052 324.525 180.324 324.525ZM189.261 324.525C191.165 324.525 192.413 323.485 192.413 321.693C192.413 320.317 191.645 319.453 189.821 319.197L189.117 319.101C188.077 318.957 187.437 318.509 187.437 317.629C187.437 316.749 188.077 316.173 189.149 316.173C190.205 316.173 190.989 316.765 191.373 317.325L192.333 316.493C191.581 315.565 190.621 315.021 189.245 315.021C187.565 315.021 186.173 315.901 186.173 317.693C186.173 319.389 187.421 319.997 188.941 320.221L189.645 320.317C190.765 320.477 191.149 321.149 191.149 321.853C191.149 322.797 190.429 323.373 189.341 323.373C188.237 323.373 187.453 322.893 186.733 321.933L185.789 322.733C186.605 323.805 187.645 324.525 189.261 324.525ZM195.499 318.749L198.315 318.733V317.549L195.387 317.565V316.093L194.139 316.109V317.389C194.139 318.253 194.699 318.749 195.499 318.749ZM195.499 323.389L198.315 323.373V322.189L195.387 322.205V320.733L194.139 320.749V322.029C194.139 322.893 194.699 323.389 195.499 323.389ZM203.314 324.525C205.33 324.525 206.562 323.373 206.562 321.389V320.205C206.562 318.877 205.97 317.981 204.93 317.661V317.597C205.794 317.245 206.594 316.621 206.594 315.485V315.213H205.25V315.901C205.25 316.925 204.642 317.517 203.57 317.517H203.442V318.525H203.714C204.77 318.525 205.218 319.053 205.218 320.269V321.197C205.218 322.637 204.482 323.373 203.314 323.373C202.13 323.373 201.394 322.781 201.394 321.293C201.394 318.957 202.834 318.989 202.834 316.973V316.781C202.834 315.821 202.402 315.213 200.962 315.213H199.954V316.333H201.554V317.117C201.554 318.845 200.05 318.525 200.05 321.341C200.05 323.309 201.282 324.525 203.314 324.525ZM212.528 324.333H213.84V317.805C213.84 316.029 212.768 315.021 210.896 315.021C209.52 315.021 208.432 315.613 207.872 316.637L208.752 317.437C209.264 316.669 209.888 316.173 210.864 316.173C211.968 316.173 212.528 316.701 212.528 317.949V324.333ZM219.596 324.525C221.612 324.525 222.844 323.373 222.844 321.389V320.205C222.844 318.877 222.252 317.981 221.212 317.661V317.597C222.076 317.245 222.876 316.621 222.876 315.485V315.213H221.532V315.901C221.532 316.925 220.924 317.517 219.852 317.517H219.724V318.525H219.996C221.052 318.525 221.5 319.053 221.5 320.269V321.197C221.5 322.637 220.764 323.373 219.596 323.373C218.412 323.373 217.676 322.781 217.676 321.293C217.676 318.957 219.116 318.989 219.116 316.973V316.781C219.116 315.821 218.684 315.213 217.244 315.213H216.236V316.333H217.836V317.117C217.836 318.845 216.332 318.525 216.332 321.341C216.332 323.309 217.564 324.525 219.596 324.525ZM228.361 324.525C229.865 324.525 230.553 323.693 230.905 322.829H230.969V324.333H232.249V315.213H230.937V321.597C230.937 322.797 229.833 323.357 228.713 323.357C227.353 323.357 226.617 322.509 226.617 320.877V315.213H225.305V321.069C225.305 323.261 226.505 324.525 228.361 324.525ZM98.4585 339.773V338.653H96.9865C96.4265 338.653 96.0585 338.957 96.0585 339.421V339.533C95.5305 339.181 94.8265 339.021 94.0105 339.021C92.4265 339.021 91.3225 339.741 90.6665 340.797L91.5145 341.613C92.0105 340.797 92.8265 340.173 93.9785 340.173C95.5145 340.173 96.2505 340.861 96.2505 342.477V342.957H94.2985C91.7225 342.957 90.4905 343.869 90.4905 345.693C90.4905 347.453 91.6585 348.333 93.4985 348.333H94.4425V347.165H93.6585C92.5065 347.165 91.8665 346.749 91.8665 345.821V345.405C91.8665 344.605 92.5865 344.125 94.0265 344.125H96.2505V348.333H97.5625V342.333C97.5625 341.453 97.3385 340.701 96.8105 340.141V339.773H98.4585ZM103.942 348.333H105.254V341.805C105.254 340.029 104.182 339.021 102.31 339.021C100.934 339.021 99.8458 339.613 99.2858 340.637L100.166 341.437C100.678 340.669 101.302 340.173 102.278 340.173C103.382 340.173 103.942 340.701 103.942 341.949V348.333ZM111.906 348.525C113.762 348.525 114.962 347.261 114.962 345.069V339.213H113.65V344.877C113.65 346.509 112.914 347.357 111.554 347.357C110.434 347.357 109.33 346.797 109.33 345.597V339.213H108.018V348.333H109.298V346.829H109.362C109.714 347.693 110.402 348.525 111.906 348.525ZM121.161 348.333H122.473V341.805C122.473 340.029 121.401 339.021 119.529 339.021C118.153 339.021 117.065 339.613 116.505 340.637L117.385 341.437C117.897 340.669 118.521 340.173 119.497 340.173C120.601 340.173 121.161 340.701 121.161 341.949V348.333ZM127.957 348.525C129.861 348.525 131.109 347.485 131.109 345.693C131.109 344.317 130.341 343.453 128.516 343.197L127.812 343.101C126.773 342.957 126.133 342.509 126.133 341.629C126.133 340.749 126.773 340.173 127.845 340.173C128.901 340.173 129.685 340.765 130.069 341.325L131.029 340.493C130.277 339.565 129.317 339.021 127.941 339.021C126.261 339.021 124.868 339.901 124.868 341.693C124.868 343.389 126.117 343.997 127.637 344.221L128.341 344.317C129.461 344.477 129.845 345.149 129.845 345.853C129.845 346.797 129.125 347.373 128.036 347.373C126.933 347.373 126.149 346.893 125.429 345.933L124.485 346.733C125.301 347.805 126.341 348.525 127.957 348.525ZM136.594 339.021C134.322 339.021 132.962 340.189 132.962 342.269V343.053H134.85V343.117C134.018 343.309 133.186 343.997 133.186 345.597V346.173C133.186 347.629 133.81 348.333 135.058 348.333H136.066V347.213H134.466V345.149C134.466 343.757 135.026 343.133 136.338 343.085V342.125H134.21C134.354 340.813 135.138 340.173 136.594 340.173C138.114 340.173 138.994 341.021 138.994 342.557V348.333H140.306V342.477C140.306 340.365 139.058 339.021 136.594 339.021ZM144.489 348.333H146.089V347.213H144.441V339.213H143.129V346.973C143.129 347.773 143.609 348.333 144.489 348.333ZM155.224 339.773V338.653H153.752C153.192 338.653 152.824 338.957 152.824 339.421V339.533C152.296 339.181 151.592 339.021 150.776 339.021C149.192 339.021 148.088 339.741 147.432 340.797L148.28 341.613C148.776 340.797 149.592 340.173 150.744 340.173C152.28 340.173 153.016 340.861 153.016 342.477V342.957H151.064C148.488 342.957 147.256 343.869 147.256 345.693C147.256 347.453 148.424 348.333 150.264 348.333H151.208V347.165H150.424C149.272 347.165 148.632 346.749 148.632 345.821V345.405C148.632 344.605 149.352 344.125 150.792 344.125H153.016V348.333H154.328V342.333C154.328 341.453 154.104 340.701 153.576 340.141V339.773H155.224ZM160.259 348.525C161.763 348.525 162.451 347.693 162.803 346.829H162.867V348.333H164.147V339.213H162.835V345.597C162.835 346.797 161.731 347.357 160.611 347.357C159.251 347.357 158.515 346.509 158.515 344.877V339.213H157.203V345.069C157.203 347.261 158.403 348.525 160.259 348.525ZM170.026 348.525C172.634 348.525 173.834 346.989 173.834 343.773C173.834 340.653 172.602 339.021 169.978 339.021C168.426 339.021 167.322 339.581 166.602 340.637L167.482 341.421C168.01 340.637 168.794 340.173 169.946 340.173C171.546 340.173 172.458 341.165 172.458 342.909V344.669C172.458 346.477 171.642 347.373 170.026 347.373C168.362 347.373 167.658 346.589 167.658 344.669V344.189H169.322V343.069H168.042C166.986 343.069 166.378 343.597 166.378 344.685V344.813C166.378 347.165 167.706 348.525 170.026 348.525ZM179.377 339.021C177.265 339.021 175.729 340.189 175.729 342.269V343.053H177.729V343.117C176.897 343.309 176.065 343.997 176.065 345.501V348.333H177.377V345.149C177.377 343.757 177.937 343.133 179.121 343.085V342.125H177.025C177.169 340.749 178.017 340.173 179.377 340.173C180.897 340.173 181.761 341.037 181.761 342.557V348.333H183.073V342.477C183.073 340.365 181.841 339.021 179.377 339.021ZM189.223 339.021C186.919 339.021 185.527 340.189 185.527 342.269V343.053H187.847V343.117C187.015 343.309 186.183 343.997 186.183 345.501V347.213H185.063V348.333H185.751C187.079 348.333 187.463 347.933 187.463 346.365V345.149C187.463 344.029 187.847 343.133 189.063 343.085V342.125H186.807C186.919 340.765 187.655 340.173 189.223 340.173C190.807 340.173 191.719 341.037 191.719 342.557V350.573H191.639C191.111 349.757 190.231 349.197 189.063 349.197C187.911 349.197 186.759 349.901 186.199 350.893L187.079 351.677C187.559 350.861 188.279 350.333 189.287 350.333C190.215 350.333 191.015 350.717 191.671 351.533H193.031V342.477C193.031 340.365 191.815 339.021 189.223 339.021ZM195.768 348.333H197.08V343.469H199.72C200.776 343.469 201.224 343.997 201.224 345.213V348.333H202.568V344.989C202.568 343.613 201.944 342.717 200.84 342.413V342.349C201.704 342.029 202.504 341.405 202.504 340.269V339.213H201.192V340.685C201.192 341.373 200.856 342.301 199.512 342.301H197.08V339.213H195.768V348.333ZM209.156 348.525C211.012 348.525 212.212 347.261 212.212 345.069V339.213H210.9V344.877C210.9 346.509 210.164 347.357 208.804 347.357C207.684 347.357 206.58 346.797 206.58 345.597V339.213H205.268V348.333H206.548V346.829H206.612C206.964 347.693 207.652 348.525 209.156 348.525ZM218.411 348.333H219.723V341.805C219.723 340.029 218.651 339.021 216.779 339.021C215.403 339.021 214.315 339.613 213.755 340.637L214.635 341.437C215.147 340.669 215.771 340.173 216.747 340.173C217.851 340.173 218.411 340.701 218.411 341.949V348.333ZM225.639 348.525C227.895 348.525 229.095 347.261 229.095 345.069V339.213H227.783V344.877C227.783 346.525 227.047 347.373 225.639 347.373C224.231 347.373 223.495 346.589 223.495 345.293V343.837H225.671V342.685H225.255C223.975 342.685 223.575 341.725 223.575 340.653V340.333H225.463V339.213H224.007C222.855 339.213 222.295 339.773 222.295 340.749V340.829C222.295 341.901 223.143 342.445 223.959 342.637V342.685H223.815C222.759 342.685 222.183 343.469 222.183 344.797V345.309C222.183 347.325 223.383 348.525 225.639 348.525ZM103.288 372.333H104.888V371.213H103.208V362.525C104.152 362.317 105.24 361.581 105.24 360.013C105.24 358.541 104.232 357.581 102.664 357.581C101.288 357.581 100.312 358.301 99.9118 359.517L100.984 360.189C101.272 359.229 101.784 358.717 102.616 358.717C103.416 358.717 103.896 359.197 103.896 360.013V360.189C103.896 361.181 103.16 361.773 101.928 361.821V370.973C101.928 371.773 102.408 372.333 103.288 372.333ZM109.658 372.525C111.162 372.525 111.85 371.693 112.202 370.829H112.266V372.333H113.546V363.213H112.234V369.597C112.234 370.797 111.13 371.357 110.01 371.357C108.65 371.357 107.914 370.509 107.914 368.877V363.213H106.602V369.069C106.602 371.261 107.802 372.525 109.658 372.525ZM117.681 372.333H119.281V371.213H117.633V363.213H116.321V370.973C116.321 371.773 116.801 372.333 117.681 372.333ZM121.921 372.333H123.521V371.213H121.873V363.213H120.561V370.973C120.561 371.773 121.041 372.333 121.921 372.333ZM128.574 372.525C130.83 372.525 132.03 371.261 132.03 369.069V363.213H130.718V368.877C130.718 370.525 129.982 371.373 128.574 371.373C127.15 371.373 126.414 370.525 126.414 368.877V363.213H125.102V369.069C125.102 371.261 126.302 372.525 128.574 372.525ZM138.183 372.525C140.439 372.525 141.639 371.261 141.639 369.069V363.213H140.327V368.877C140.327 370.525 139.591 371.373 138.183 371.373C136.759 371.373 136.023 370.525 136.023 368.877V363.213H134.711V369.069C134.711 371.261 135.911 372.525 138.183 372.525ZM144.401 372.333H145.713V365.965C145.713 364.765 146.849 364.205 148.001 364.205C149.345 364.205 150.081 365.053 150.081 366.685V372.333H151.393V366.477C151.393 364.285 150.193 363.021 148.353 363.021C146.817 363.021 146.113 363.853 145.745 364.717H145.681V363.213H144.401V372.333ZM144.954 361.933H149.978C150.858 361.933 151.306 361.501 151.306 360.637V359.517H150.09V360.877H144.954V361.933ZM150.217 358.893H151.305V356.717H150.217V358.893ZM157.062 372.333H158.038V371.165H157.142C155.654 371.165 155.014 370.477 155.014 368.733V366.893C155.014 365.341 155.51 364.285 156.342 364.285L157.558 365.565H157.59L158.806 364.285C159.574 364.365 159.766 364.749 159.766 366.349V372.333H161.078V365.437C161.078 363.613 159.958 363.021 158.614 363.021L157.606 364.205H157.558L156.534 363.021C154.678 363.021 153.638 364.573 153.638 367.629C153.638 370.925 154.646 372.333 157.062 372.333ZM157.858 361.933H161.586V360.877H158.914V360.733C158.914 359.821 158.578 359.517 157.682 359.517H156.738V360.573H157.858V361.933ZM166.909 372.525C169.517 372.525 170.717 370.989 170.717 367.773C170.717 364.653 169.485 363.021 166.861 363.021C165.309 363.021 164.205 363.581 163.485 364.637L164.365 365.421C164.893 364.637 165.677 364.173 166.829 364.173C168.429 364.173 169.341 365.165 169.341 366.909V368.669C169.341 370.477 168.525 371.373 166.909 371.373C165.245 371.373 164.541 370.589 164.541 368.669V368.189H166.205V367.069H164.925C163.869 367.069 163.261 367.597 163.261 368.685V368.813C163.261 371.165 164.589 372.525 166.909 372.525ZM174.883 372.333H175.891C177.955 372.333 178.995 371.389 178.995 368.333V365.453C178.995 364.013 178.403 363.213 177.171 363.213H175.987V364.333H177.683V368.893C177.683 370.621 177.155 371.181 175.971 371.181H175.827L173.251 363.213H171.923L174.883 372.333ZM184.853 363.021C182.741 363.021 181.205 364.189 181.205 366.269V367.053H183.205V367.117C182.373 367.309 181.541 367.997 181.541 369.501V372.333H182.853V369.149C182.853 367.757 183.413 367.133 184.597 367.085V366.125H182.501C182.645 364.749 183.493 364.173 184.853 364.173C186.373 364.173 187.237 365.037 187.237 366.557V372.333H188.549V366.477C188.549 364.365 187.317 363.021 184.853 363.021ZM194.715 372.333H196.027V365.805C196.027 364.029 194.955 363.021 193.083 363.021C191.707 363.021 190.619 363.613 190.059 364.637L190.939 365.437C191.451 364.669 192.075 364.173 193.051 364.173C194.155 364.173 194.715 364.701 194.715 365.949V372.333ZM201.511 372.525C203.415 372.525 204.663 371.485 204.663 369.693C204.663 368.317 203.895 367.453 202.071 367.197L201.367 367.101C200.327 366.957 199.687 366.509 199.687 365.629C199.687 364.749 200.327 364.173 201.399 364.173C202.455 364.173 203.239 364.765 203.623 365.325L204.583 364.493C203.831 363.565 202.871 363.021 201.495 363.021C199.815 363.021 198.423 363.901 198.423 365.693C198.423 367.389 199.671 367.997 201.191 368.221L201.895 368.317C203.015 368.477 203.399 369.149 203.399 369.853C203.399 370.797 202.679 371.373 201.591 371.373C200.487 371.373 199.703 370.893 198.983 369.933L198.039 370.733C198.855 371.805 199.895 372.525 201.511 372.525ZM208.661 372.333H210.261V371.213H208.613V363.021C208.613 360.749 209.541 359.037 211.125 358.989V357.869H206.021V358.957H209.797V359.021C207.973 359.645 207.301 360.861 207.301 363.389V370.973C207.301 371.773 207.781 372.333 208.661 372.333ZM214.812 372.333H215.612V371.165H214.892C213.564 371.165 212.764 370.477 212.764 368.733V367.021C212.764 365.197 213.66 364.173 215.132 364.173C216.572 364.173 217.34 365.069 217.34 366.653V372.333H218.652V366.477C218.652 364.285 217.436 363.021 215.164 363.021C212.7 363.021 211.388 364.605 211.388 367.821C211.388 371.149 212.46 372.333 214.812 372.333ZM215.436 361.933H219.164V360.877H216.492V360.733C216.492 359.821 216.156 359.517 215.26 359.517H214.316V360.573H215.436V361.933ZM115.771 411.773V410.653H114.299C113.739 410.653 113.371 410.957 113.371 411.421V411.533C112.843 411.181 112.139 411.021 111.323 411.021C109.739 411.021 108.635 411.741 107.979 412.797L108.827 413.613C109.323 412.797 110.139 412.173 111.291 412.173C112.827 412.173 113.563 412.861 113.563 414.477V414.957H111.611C109.035 414.957 107.803 415.869 107.803 417.693C107.803 419.453 108.971 420.333 110.811 420.333H111.755V419.165H110.971C109.819 419.165 109.179 418.749 109.179 417.821V417.405C109.179 416.605 109.899 416.125 111.339 416.125H113.563V420.333H114.875V414.333C114.875 413.453 114.651 412.701 114.123 412.141V411.773H115.771ZM114.139 409.981C115.275 409.981 115.771 409.389 115.771 408.589V408.173C115.771 407.373 115.275 406.781 114.139 406.781C113.003 406.781 112.507 407.373 112.507 408.173V408.589C112.507 409.389 113.003 409.981 114.139 409.981ZM114.139 409.053C113.739 409.053 113.531 408.829 113.531 408.381C113.531 407.933 113.739 407.709 114.139 407.709C114.539 407.709 114.747 407.933 114.747 408.381C114.747 408.829 114.539 409.053 114.139 409.053ZM121.254 420.333H122.566V413.805C122.566 412.029 121.494 411.021 119.622 411.021C118.246 411.021 117.158 411.613 116.598 412.637L117.478 413.437C117.99 412.669 118.614 412.173 119.59 412.173C120.694 412.173 121.254 412.701 121.254 413.949V420.333ZM125.33 420.333H126.642V415.469H129.282C130.338 415.469 130.786 415.997 130.786 417.213V420.333H132.13V416.989C132.13 415.613 131.506 414.717 130.402 414.413V414.349C131.266 414.029 132.066 413.405 132.066 412.269V411.213H130.754V412.685C130.754 413.373 130.418 414.301 129.074 414.301H126.642V411.213H125.33V420.333ZM137.55 420.525C139.454 420.525 140.702 419.485 140.702 417.693C140.702 416.317 139.934 415.453 138.11 415.197L137.406 415.101C136.366 414.957 135.726 414.509 135.726 413.629C135.726 412.749 136.366 412.173 137.438 412.173C138.494 412.173 139.278 412.765 139.662 413.325L140.622 412.493C139.87 411.565 138.91 411.021 137.534 411.021C135.854 411.021 134.462 411.901 134.462 413.693C134.462 415.389 135.71 415.997 137.23 416.221L137.934 416.317C139.054 416.477 139.438 417.149 139.438 417.853C139.438 418.797 138.718 419.373 137.63 419.373C136.526 419.373 135.742 418.893 135.022 417.933L134.078 418.733C134.894 419.805 135.934 420.525 137.55 420.525ZM138.996 409.933H142.197V408.877H138.404V407.853H137.188V408.317C137.188 409.453 137.716 409.933 138.996 409.933ZM146.316 420.525C148.572 420.525 149.772 419.261 149.772 417.069V411.213H148.46V416.877C148.46 418.525 147.724 419.373 146.316 419.373C144.892 419.373 144.156 418.525 144.156 416.877V411.213H142.844V417.069C142.844 419.261 144.044 420.525 146.316 420.525ZM155.525 420.525C157.541 420.525 158.773 419.373 158.773 417.389V416.205C158.773 414.877 158.181 413.981 157.141 413.661V413.597C158.005 413.245 158.805 412.621 158.805 411.485V411.213H157.461V411.901C157.461 412.925 156.853 413.517 155.781 413.517H155.653V414.525H155.925C156.981 414.525 157.429 415.053 157.429 416.269V417.197C157.429 418.637 156.693 419.373 155.525 419.373C154.341 419.373 153.605 418.781 153.605 417.293C153.605 414.957 155.045 414.989 155.045 412.973V412.781C155.045 411.821 154.613 411.213 153.173 411.213H152.165V412.333H153.765V413.117C153.765 414.845 152.261 414.525 152.261 417.341C152.261 419.309 153.493 420.525 155.525 420.525ZM157.548 409.933H158.796V407.277H157.548V409.933ZM164.339 420.525C166.947 420.525 168.147 418.989 168.147 415.773C168.147 412.653 166.915 411.021 164.291 411.021C162.739 411.021 161.635 411.581 160.915 412.637L161.795 413.421C162.323 412.637 163.107 412.173 164.259 412.173C165.859 412.173 166.771 413.165 166.771 414.909V416.669C166.771 418.477 165.955 419.373 164.339 419.373C162.675 419.373 161.971 418.589 161.971 416.669V416.189H163.635V415.069H162.355C161.299 415.069 160.691 415.597 160.691 416.685V416.813C160.691 419.165 162.019 420.525 164.339 420.525ZM172.313 420.333H173.321C175.385 420.333 176.425 419.389 176.425 416.333V413.453C176.425 412.013 175.833 411.213 174.601 411.213H173.417V412.333H175.113V416.893C175.113 418.621 174.585 419.181 173.401 419.181H173.257L170.681 411.213H169.353L172.313 420.333ZM178.971 420.333H180.283V413.965C180.283 412.765 181.419 412.205 182.571 412.205C183.915 412.205 184.651 413.053 184.651 414.685V420.333H185.963V414.477C185.963 412.285 184.763 411.021 182.923 411.021C181.387 411.021 180.683 411.853 180.315 412.717H180.251V411.213H178.971V420.333ZM192.161 420.333H193.473V413.805C193.473 412.029 192.401 411.021 190.529 411.021C189.153 411.021 188.065 411.613 187.505 412.637L188.385 413.437C188.897 412.669 189.521 412.173 190.497 412.173C191.601 412.173 192.161 412.701 192.161 413.949V420.333ZM198.173 420.333H199.181C201.245 420.333 202.285 419.389 202.285 416.333V413.453C202.285 412.013 201.693 411.213 200.461 411.213H199.277V412.333H200.973V416.893C200.973 418.621 200.445 419.181 199.261 419.181H199.117L196.541 411.213H195.213L198.173 420.333ZM207.806 420.525C209.31 420.525 209.998 419.693 210.35 418.829H210.414V420.333H211.694V411.213H210.382V417.597C210.382 418.797 209.278 419.357 208.158 419.357C206.798 419.357 206.062 418.509 206.062 416.877V411.213H204.75V417.069C204.75 419.261 205.95 420.525 207.806 420.525ZM205.415 409.933H210.439C211.319 409.933 211.767 409.501 211.767 408.637V407.517H210.551V408.877H205.415V409.933ZM209.798 406.893H212.486V405.933H210.726V405.613C210.726 404.829 210.39 404.525 209.494 404.525H208.87V405.501H209.798V406.893ZM106.808 444.525C109.064 444.525 110.264 443.261 110.264 441.069V431.853H108.952V440.877C108.952 442.525 108.216 443.373 106.808 443.373C105.384 443.373 104.648 442.525 104.648 440.877V435.213H103.336V441.069C103.336 443.261 104.536 444.525 106.808 444.525ZM115.954 435.021C114.306 435.021 113.202 435.741 112.546 436.797L113.394 437.613C113.89 436.797 114.706 436.173 115.858 436.173C117.394 436.173 118.13 436.861 118.13 438.477V438.957H116.178C113.602 438.957 112.37 439.869 112.37 441.693C112.37 443.453 113.538 444.333 115.378 444.333H116.322V443.165H115.538C114.386 443.165 113.746 442.749 113.746 441.821V441.405C113.746 440.605 114.466 440.125 115.906 440.125H118.13V444.333H119.442V438.285C119.442 436.205 118.226 435.021 115.954 435.021ZM125.606 444.333H126.918V437.805C126.918 436.029 125.846 435.021 123.974 435.021C122.598 435.021 121.51 435.613 120.95 436.637L121.83 437.437C122.342 436.669 122.966 436.173 123.942 436.173C125.046 436.173 125.606 436.701 125.606 437.949V444.333ZM132.834 444.525C135.09 444.525 136.29 443.261 136.29 441.069V435.213H134.978V440.877C134.978 442.525 134.242 443.373 132.834 443.373C131.426 443.373 130.69 442.589 130.69 441.293V439.837H132.866V438.685H132.45C131.17 438.685 130.77 437.725 130.77 436.653V436.333H132.658V435.213H131.202C130.05 435.213 129.49 435.773 129.49 436.749V436.829C129.49 437.901 130.338 438.445 131.154 438.637V438.685H131.01C129.954 438.685 129.378 439.469 129.378 440.797V441.309C129.378 443.325 130.578 444.525 132.834 444.525ZM139.057 444.333H140.369V437.965C140.369 436.765 141.505 436.205 142.657 436.205C144.001 436.205 144.737 437.053 144.737 438.685V444.333H146.049V438.477C146.049 436.285 144.849 435.021 143.009 435.021C141.473 435.021 140.769 435.853 140.401 436.717H140.337V435.213H139.057V444.333ZM152.246 444.333H153.558V437.805C153.558 436.029 152.486 435.021 150.614 435.021C149.238 435.021 148.15 435.613 147.59 436.637L148.47 437.437C148.982 436.669 149.606 436.173 150.582 436.173C151.686 436.173 152.246 436.701 152.246 437.949V444.333ZM158.258 444.333H159.266C161.33 444.333 162.37 443.389 162.37 440.333V437.453C162.37 436.013 161.778 435.213 160.546 435.213H159.362V436.333H161.058V440.893C161.058 442.621 160.53 443.181 159.346 443.181H159.202L156.626 435.213H155.298L158.258 444.333ZM167.908 444.525C169.924 444.525 171.124 443.373 171.124 441.389V435.213H169.812V441.197C169.812 442.637 169.076 443.373 167.908 443.373C166.724 443.373 165.988 442.781 165.988 441.293C165.988 438.957 167.428 438.989 167.428 436.973V436.781C167.428 435.821 166.996 435.213 165.556 435.213H164.548V436.333H166.148V437.117C166.148 438.845 164.644 438.525 164.644 441.341C164.644 443.309 165.86 444.525 167.908 444.525ZM176.909 444.525C179.517 444.525 180.717 442.989 180.717 439.773C180.717 436.653 179.485 435.021 176.861 435.021C175.309 435.021 174.205 435.581 173.485 436.637L174.365 437.421C174.893 436.637 175.677 436.173 176.829 436.173C178.429 436.173 179.341 437.165 179.341 438.909V440.669C179.341 442.477 178.525 443.373 176.909 443.373C175.245 443.373 174.541 442.589 174.541 440.669V440.189H176.205V439.069H174.925C173.869 439.069 173.261 439.597 173.261 440.685V440.813C173.261 443.165 174.589 444.525 176.909 444.525ZM184.883 444.333H185.891C187.955 444.333 188.995 443.389 188.995 440.333V437.453C188.995 436.013 188.403 435.213 187.171 435.213H185.987V436.333H187.683V440.893C187.683 442.621 187.155 443.181 185.971 443.181H185.827L183.251 435.213H181.923L184.883 444.333ZM199.013 435.773V434.653H197.541C196.981 434.653 196.613 434.957 196.613 435.421V435.533C196.085 435.181 195.381 435.021 194.565 435.021C192.981 435.021 191.877 435.741 191.221 436.797L192.069 437.613C192.565 436.797 193.381 436.173 194.533 436.173C196.069 436.173 196.805 436.861 196.805 438.477V438.957H194.853C192.277 438.957 191.045 439.869 191.045 441.693C191.045 443.453 192.213 444.333 194.053 444.333H194.997V443.165H194.213C193.061 443.165 192.421 442.749 192.421 441.821V441.405C192.421 440.605 193.141 440.125 194.581 440.125H196.805V444.333H198.117V438.333C198.117 437.453 197.893 436.701 197.365 436.141V435.773H199.013ZM191.765 433.933H198.117V432.877H191.765V433.933ZM197.029 431.893H198.117V429.717H197.029V431.893ZM203.008 444.333H204.016C206.08 444.333 207.12 443.389 207.12 440.333V437.453C207.12 436.013 206.528 435.213 205.296 435.213H204.112V436.333H205.808V440.893C205.808 442.621 205.28 443.181 204.096 443.181H203.952L201.376 435.213H200.048L203.008 444.333ZM209.666 444.333H210.978V437.965C210.978 436.765 212.114 436.205 213.266 436.205C214.61 436.205 215.346 437.053 215.346 438.685V444.333H216.658V438.477C216.658 436.285 215.458 435.021 213.618 435.021C212.082 435.021 211.378 435.853 211.01 436.717H210.946V435.213H209.666V444.333ZM210.22 433.933H215.244C216.124 433.933 216.572 433.501 216.572 432.637V431.517H215.356V432.877H210.22V433.933ZM215.482 430.893H216.57V428.717H215.482V430.893ZM119.222 468.525C121.478 468.525 122.678 467.261 122.678 465.069V455.853H121.366V464.877C121.366 466.525 120.63 467.373 119.222 467.373C117.798 467.373 117.062 466.525 117.062 464.877V459.213H115.75V465.069C115.75 467.261 116.95 468.525 119.222 468.525ZM128.16 468.525C130.064 468.525 131.312 467.485 131.312 465.693C131.312 464.317 130.544 463.453 128.72 463.197L128.016 463.101C126.976 462.957 126.336 462.509 126.336 461.629C126.336 460.749 126.976 460.173 128.048 460.173C129.104 460.173 129.888 460.765 130.272 461.325L131.232 460.493C130.48 459.565 129.52 459.021 128.144 459.021C126.464 459.021 125.072 459.901 125.072 461.693C125.072 463.389 126.32 463.997 127.84 464.221L128.544 464.317C129.664 464.477 130.048 465.149 130.048 465.853C130.048 466.797 129.328 467.373 128.24 467.373C127.136 467.373 126.352 466.893 125.632 465.933L124.688 466.733C125.504 467.805 126.544 468.525 128.16 468.525ZM134.397 462.749L137.213 462.733V461.549L134.285 461.565V460.093L133.037 460.109V461.389C133.037 462.253 133.597 462.749 134.397 462.749ZM134.397 467.389L137.213 467.373V466.189L134.285 466.205V464.733L133.037 464.749V466.029C133.037 466.893 133.597 467.389 134.397 467.389ZM142.213 468.525C144.229 468.525 145.461 467.373 145.461 465.389V464.205C145.461 462.877 144.869 461.981 143.829 461.661V461.597C144.693 461.245 145.493 460.621 145.493 459.485V459.213H144.149V459.901C144.149 460.925 143.541 461.517 142.469 461.517H142.341V462.525H142.613C143.669 462.525 144.117 463.053 144.117 464.269V465.197C144.117 466.637 143.381 467.373 142.213 467.373C141.029 467.373 140.293 466.781 140.293 465.293C140.293 462.957 141.733 462.989 141.733 460.973V460.781C141.733 459.821 141.301 459.213 139.861 459.213H138.853V460.333H140.453V461.117C140.453 462.845 138.949 462.525 138.949 465.341C138.949 467.309 140.181 468.525 142.213 468.525ZM151.426 468.333H152.738V461.805C152.738 460.029 151.666 459.021 149.794 459.021C148.418 459.021 147.33 459.613 146.77 460.637L147.65 461.437C148.162 460.669 148.786 460.173 149.762 460.173C150.866 460.173 151.426 460.701 151.426 461.949V468.333ZM158.494 468.525C160.51 468.525 161.742 467.373 161.742 465.389V464.205C161.742 462.877 161.15 461.981 160.11 461.661V461.597C160.974 461.245 161.774 460.621 161.774 459.485V459.213H160.43V459.901C160.43 460.925 159.822 461.517 158.75 461.517H158.622V462.525H158.894C159.95 462.525 160.398 463.053 160.398 464.269V465.197C160.398 466.637 159.662 467.373 158.494 467.373C157.31 467.373 156.574 466.781 156.574 465.293C156.574 462.957 158.014 462.989 158.014 460.973V460.781C158.014 459.821 157.582 459.213 156.142 459.213H155.134V460.333H156.734V461.117C156.734 462.845 155.23 462.525 155.23 465.341C155.23 467.309 156.462 468.525 158.494 468.525ZM167.259 468.525C168.763 468.525 169.451 467.693 169.803 466.829H169.867V468.333H171.147V459.213H169.835V465.597C169.835 466.797 168.731 467.357 167.611 467.357C166.251 467.357 165.515 466.509 165.515 464.877V459.213H164.203V465.069C164.203 467.261 165.403 468.525 167.259 468.525ZM175.442 468.333H177.042V467.213H175.394V459.213H174.082V466.973C174.082 467.773 174.562 468.333 175.442 468.333ZM186.177 459.773V458.653H184.705C184.145 458.653 183.777 458.957 183.777 459.421V459.533C183.249 459.181 182.545 459.021 181.729 459.021C180.145 459.021 179.041 459.741 178.385 460.797L179.233 461.613C179.729 460.797 180.545 460.173 181.697 460.173C183.233 460.173 183.969 460.861 183.969 462.477V462.957H182.017C179.441 462.957 178.209 463.869 178.209 465.693C178.209 467.453 179.377 468.333 181.217 468.333H182.161V467.165H181.377C180.225 467.165 179.585 466.749 179.585 465.821V465.405C179.585 464.605 180.305 464.125 181.745 464.125H183.969V468.333H185.281V462.333C185.281 461.453 185.057 460.701 184.529 460.141V459.773H186.177ZM191.213 468.525C192.717 468.525 193.405 467.693 193.757 466.829H193.821V468.333H195.101V459.213H193.789V465.597C193.789 466.797 192.685 467.357 191.565 467.357C190.205 467.357 189.469 466.509 189.469 464.877V459.213H188.157V465.069C188.157 467.261 189.357 468.525 191.213 468.525ZM200.979 468.525C203.587 468.525 204.787 466.989 204.787 463.773C204.787 460.653 203.555 459.021 200.931 459.021C199.379 459.021 198.275 459.581 197.555 460.637L198.435 461.421C198.963 460.637 199.747 460.173 200.899 460.173C202.499 460.173 203.411 461.165 203.411 462.909V464.669C203.411 466.477 202.595 467.373 200.979 467.373C199.315 467.373 198.611 466.589 198.611 464.669V464.189H200.275V463.069H198.995C197.939 463.069 197.331 463.597 197.331 464.685V464.813C197.331 467.165 198.659 468.525 200.979 468.525Z" fill="white"/>
<path d="M60 690.667L0 960M260 690.667L320 960" stroke="white" stroke-width="1.33333"/>
<path d="M123.063 567.373C120.903 567.373 118.551 568.213 117.471 568.861C117.495 569.845 117.591 571.213 117.711 572.149H121.239C121.407 571.381 122.007 570.781 122.991 570.781C124.119 570.781 124.671 571.309 124.671 572.413V575.749C124.671 576.853 124.095 577.405 122.895 577.405C122.199 577.405 121.359 577.237 121.023 576.949V575.725H122.583V573.325H117.351V578.989H117.879C118.935 579.901 121.095 580.525 122.895 580.525C126.687 580.525 129.231 578.917 129.231 575.893V572.269C129.231 569.413 127.047 567.373 123.063 567.373ZM141.598 580.333V577.957L140.734 577.621C140.566 577.549 140.518 577.501 140.518 577.309V572.005C140.518 569.221 138.79 567.421 135.214 567.421C133.15 567.421 131.278 568.285 130.318 569.149C130.39 570.061 130.438 570.997 130.51 571.909H134.062C134.182 571.309 134.446 570.973 135.07 570.973C135.718 570.973 135.958 571.405 135.958 572.005V577.309C135.958 577.501 135.91 577.549 135.742 577.621L134.878 577.957V580.333H141.598ZM148.75 567.373C146.11 567.373 144.19 568.213 143.158 568.981C143.158 569.965 143.254 571.309 143.398 572.269H146.926C147.142 571.573 147.646 571.021 148.654 571.021C149.686 571.021 150.19 571.693 150.19 572.941V575.677C150.19 576.637 149.758 577.117 149.086 577.165L148.486 573.661H143.494V576.301H144.214C144.694 576.301 144.91 576.421 145.054 577.069L145.774 580.333H149.014C152.518 580.333 154.75 578.245 154.75 575.221V572.509C154.75 569.173 152.254 567.373 148.75 567.373ZM164.76 559.573H155.448V560.365L156.024 562.237L160.248 562.261C159.048 562.765 157.68 563.941 157.68 566.413V577.573C157.68 579.037 158.616 580.333 160.032 580.333H163.056L163.536 578.749V577.933H162.912C162.48 577.933 162.24 577.717 162.24 577.165V566.413C162.12 563.677 163.104 562.237 164.76 561.997V559.573ZM173.72 580.573C176.456 580.573 178.088 579.037 178.088 576.469V570.541C178.088 570.349 178.136 570.253 178.352 570.205L179.168 569.989V567.613H172.448V569.989L173.264 570.205C173.48 570.253 173.528 570.349 173.528 570.541V576.373C173.528 577.021 173.048 577.381 172.232 577.381C171.536 577.381 171.056 577.045 170.84 576.685V567.613H165.2V569.989L166.016 570.205C166.232 570.253 166.28 570.349 166.28 570.541V577.309C166.28 577.501 166.232 577.549 166.064 577.621L165.32 577.885V580.333H170.336L170.528 579.205C171.08 579.877 172.064 580.573 173.72 580.573ZM177.729 565.669V560.869H173.889V565.669H177.729ZM188.526 559.573H179.214V560.365L179.79 562.237L184.014 562.261C182.814 562.765 181.446 563.941 181.446 566.413V577.573C181.446 579.037 182.382 580.333 183.798 580.333H186.822L187.302 578.749V577.933H186.678C186.246 577.933 186.006 577.717 186.006 577.165V566.413C185.886 563.677 186.87 562.237 188.526 561.997V559.573ZM203.318 577.741C203.102 577.693 203.054 577.597 203.054 577.405V572.485C203.054 569.629 200.438 567.325 196.502 567.325C192.59 567.325 189.974 569.629 189.974 572.485V577.405C189.974 577.597 189.926 577.693 189.71 577.741L188.894 577.957V580.333H191.606C196.31 580.333 198.23 577.909 198.23 575.029C198.23 574.045 197.942 573.301 197.486 572.917H194.894L194.774 575.797C195.11 575.821 195.326 576.061 195.326 576.469C195.326 576.853 195.038 577.309 194.294 577.597V572.485C194.294 571.237 195.11 570.517 196.502 570.517C197.894 570.517 198.734 571.237 198.734 572.485V577.405C198.734 577.597 198.686 577.669 198.47 577.741L197.846 577.957V580.333H204.134V577.957L203.318 577.741ZM201.487 563.149C201.343 561.781 200.359 560.989 198.775 560.989H195.823L195.343 562.501V563.437H196.975C197.383 563.437 197.623 563.653 197.623 564.061V565.669H204.463L204.943 564.109V563.149H201.487ZM117.914 614.333H120.458L120.938 612.749V611.933H120.314C119.882 611.933 119.642 611.717 119.642 611.165V604.541C119.642 604.349 119.69 604.277 119.906 604.205L120.722 603.989V601.613H114.002V603.989L114.818 604.205C115.034 604.277 115.082 604.349 115.082 604.541V611.573C115.082 613.037 116.018 614.333 117.914 614.333ZM128.579 614.525C132.131 614.525 134.171 612.653 134.171 610.133C134.171 608.285 132.899 606.965 130.331 606.461C128.363 606.077 127.547 605.861 127.547 605.261C127.547 604.829 127.955 604.565 128.819 604.565C129.467 604.565 130.187 604.925 130.427 605.525H133.595C133.595 605.525 133.739 603.821 133.739 602.261C132.635 601.733 130.739 601.373 128.843 601.373C125.459 601.373 123.131 602.813 123.131 605.357C123.131 607.685 124.763 608.861 126.923 609.269C129.083 609.677 129.731 609.965 129.731 610.589C129.731 610.949 129.467 611.357 128.387 611.357C127.595 611.357 126.947 611.021 126.875 610.469H123.395C123.299 611.501 123.227 612.533 123.131 613.565C123.131 613.565 125.123 614.525 128.579 614.525ZM130.046 597.245H124.502L123.542 598.853V599.837H133.886V595.613H130.046V597.245ZM143.019 614.621C146.547 614.621 149.043 612.773 149.043 610.181V604.541C149.043 604.349 149.091 604.277 149.307 604.205L150.123 603.989V601.613H143.403V603.989L144.219 604.205C144.435 604.277 144.483 604.349 144.483 604.541V610.085C144.483 610.949 143.979 611.501 143.019 611.501C141.819 611.501 141.555 610.949 141.555 610.085C141.555 609.149 142.059 608.789 142.707 608.789H143.475L143.955 606.965V606.197H143.067C141.867 606.197 141.459 605.861 141.459 604.805V603.965H142.587V601.613H136.731V604.541C136.731 606.221 137.547 607.061 138.867 607.349V607.373C137.691 607.733 136.683 608.477 136.683 610.373C136.683 612.965 139.251 614.621 143.019 614.621ZM158.611 614.621C162.619 614.621 164.875 612.773 164.875 609.941V604.541C164.875 604.349 164.923 604.253 165.139 604.205L165.955 603.989V601.613H159.235V603.989L160.051 604.205C160.267 604.253 160.315 604.349 160.315 604.541V609.845C160.315 610.949 159.571 611.501 158.611 611.501C157.651 611.501 156.907 610.949 156.907 609.845V601.613H151.267V603.989L152.083 604.205C152.299 604.277 152.347 604.349 152.347 604.541V609.941C152.347 612.773 154.363 614.621 158.611 614.621ZM173.927 614.333C176.903 614.333 178.799 612.989 178.799 610.373V601.613H173.159V603.989L173.975 604.205C174.191 604.253 174.239 604.349 174.239 604.541V610.709C174.239 611.237 173.975 611.453 173.495 611.453H173.039L171.071 604.733H166.799V606.845C167.255 606.893 167.543 607.085 167.687 607.517L169.919 614.333H173.927ZM178.444 599.669V594.869H174.604V599.669H178.444ZM191.766 614.333V611.957L190.902 611.621C190.734 611.549 190.686 611.501 190.686 611.309V606.005C190.686 603.221 188.958 601.421 185.382 601.421C183.318 601.421 181.446 602.285 180.486 603.149C180.558 604.061 180.606 604.997 180.678 605.909H184.23C184.35 605.309 184.614 604.973 185.238 604.973C185.886 604.973 186.126 605.405 186.126 606.005V611.309C186.126 611.501 186.078 611.549 185.91 611.621L185.046 611.957V614.333H191.766ZM199.902 614.621C203.43 614.621 205.926 612.773 205.926 610.181V604.541C205.926 604.349 205.974 604.277 206.19 604.205L207.006 603.989V601.613H200.286V603.989L201.102 604.205C201.318 604.277 201.366 604.349 201.366 604.541V610.085C201.366 610.949 200.862 611.501 199.902 611.501C198.702 611.501 198.438 610.949 198.438 610.085C198.438 609.149 198.942 608.789 199.59 608.789H200.358L200.838 606.965V606.197H199.95C198.75 606.197 198.342 605.861 198.342 604.805V603.965H199.47V601.613H193.614V604.541C193.614 606.221 194.43 607.061 195.75 607.349V607.373C194.574 607.733 193.566 608.477 193.566 610.373C193.566 612.965 196.134 614.621 199.902 614.621Z" fill="white"/>
<path d="M84.4644 735.333H86.0644V734.213H84.4164V726.213H83.1044V733.973C83.1044 734.773 83.5844 735.333 84.4644 735.333ZM88.7044 735.333H90.3044V734.213H88.6564V726.213H87.3444V733.973C87.3444 734.773 87.8244 735.333 88.7044 735.333ZM94.8937 726.021C93.2457 726.021 92.1417 726.741 91.4857 727.797L92.3337 728.613C92.8297 727.797 93.6457 727.173 94.7977 727.173C96.3337 727.173 97.0697 727.861 97.0697 729.477V729.957H95.1177C92.5417 729.957 91.3097 730.869 91.3097 732.693C91.3097 734.453 92.4777 735.333 94.3177 735.333H95.2617V734.165H94.4777C93.3257 734.165 92.6857 733.749 92.6857 732.821V732.405C92.6857 731.605 93.4057 731.125 94.8457 731.125H97.0697V735.333H98.3817V729.285C98.3817 727.205 97.1657 726.021 94.8937 726.021ZM101.986 729.749L104.802 729.733V728.549L101.874 728.565V727.093L100.626 727.109V728.389C100.626 729.253 101.186 729.749 101.986 729.749ZM101.986 734.389L104.802 734.373V733.189L101.874 733.205V731.733L100.626 731.749V733.029C100.626 733.893 101.186 734.389 101.986 734.389ZM108.249 735.333H109.849V734.213H108.201V726.213H106.889V733.973C106.889 734.773 107.369 735.333 108.249 735.333ZM114.905 735.525C117.161 735.525 118.361 734.261 118.361 732.069V722.853H117.049V731.877C117.049 733.525 116.313 734.373 114.905 734.373C113.481 734.373 112.745 733.525 112.745 731.877V726.213H111.433V732.069C111.433 734.261 112.633 735.525 114.905 735.525ZM113.202 722.709H116.466V721.861H113.122C112.114 721.861 111.442 722.485 111.442 723.429C111.442 724.389 112.018 725.013 112.898 725.013C113.57 725.013 113.906 724.661 113.97 724.117L114.002 723.813H114.018C114.098 724.597 114.482 725.013 115.042 725.013C115.57 725.013 115.986 724.693 115.986 723.909V723.333H115.138V723.749C115.138 724.085 114.978 724.245 114.706 724.245C114.386 724.245 114.21 723.957 114.21 723.429H113.378L113.138 724.277C112.706 724.245 112.482 723.989 112.482 723.493C112.482 722.981 112.738 722.709 113.202 722.709ZM124.098 735.525C125.602 735.525 126.29 734.693 126.642 733.829H126.706V735.333H127.986V726.213H126.674V732.597C126.674 733.797 125.57 734.357 124.45 734.357C123.09 734.357 122.354 733.509 122.354 731.877V726.213H121.042V732.069C121.042 734.261 122.242 735.525 124.098 735.525ZM132.617 735.333H134.217V734.213H132.569V726.021C132.569 723.749 133.497 722.037 135.081 721.989V720.869H129.977V721.957H133.753V722.021C131.929 722.645 131.257 723.861 131.257 726.389V733.973C131.257 734.773 131.737 735.333 132.617 735.333ZM139.264 735.525C141.52 735.525 142.72 734.261 142.72 732.069V722.853H141.408V731.877C141.408 733.525 140.672 734.373 139.264 734.373C137.84 734.373 137.104 733.525 137.104 731.877V726.213H135.792V732.069C135.792 734.261 136.992 735.525 139.264 735.525ZM148.377 735.333H149.353V734.165H148.457C146.969 734.165 146.329 733.477 146.329 731.733V729.893C146.329 728.341 146.825 727.285 147.657 727.285L148.873 728.565H148.905L150.121 727.285C150.889 727.365 151.081 727.749 151.081 729.349V735.333H152.393V728.437C152.393 726.613 151.273 726.021 149.929 726.021L148.921 727.205H148.873L147.849 726.021C145.993 726.021 144.953 727.573 144.953 730.629C144.953 733.925 145.961 735.333 148.377 735.333ZM158.624 735.333H159.936V728.805C159.936 727.029 158.864 726.021 156.992 726.021C155.616 726.021 154.528 726.613 153.968 727.637L154.848 728.437C155.36 727.669 155.984 727.173 156.96 727.173C158.064 727.173 158.624 727.701 158.624 728.949V735.333ZM166.588 735.525C168.444 735.525 169.644 734.261 169.644 732.069V726.213H168.332V731.877C168.332 733.509 167.596 734.357 166.236 734.357C165.116 734.357 164.012 733.797 164.012 732.597V726.213H162.7V735.333H163.98V733.829H164.044C164.396 734.693 165.084 735.525 166.588 735.525ZM173.859 735.333H175.459V734.213H173.811V726.213H172.499V733.973C172.499 734.773 172.979 735.333 173.859 735.333ZM179.634 726.021C178.082 726.021 176.994 726.581 176.306 727.637L177.154 728.453C177.65 727.637 178.466 727.173 179.618 727.173C181.282 727.173 182.21 728.165 182.21 729.909V731.445C182.21 733.285 181.394 734.181 180.242 734.181H180.034L179.314 731.429C179.026 730.341 178.706 730.021 177.89 730.021H176.866V731.141H177.954L179.09 735.333H180.242C182.354 735.333 183.586 733.797 183.586 730.645C183.586 727.653 182.402 726.021 179.634 726.021ZM188.768 735.333H189.744V734.165H188.848C187.36 734.165 186.72 733.477 186.72 731.733V729.893C186.72 728.341 187.216 727.285 188.048 727.285L189.264 728.565H189.296L190.512 727.285C191.28 727.365 191.472 727.749 191.472 729.349V735.333H192.784V728.437C192.784 726.613 191.664 726.021 190.32 726.021L189.312 727.205H189.264L188.24 726.021C186.384 726.021 185.344 727.573 185.344 730.629C185.344 733.925 186.352 735.333 188.768 735.333ZM198.567 735.525C200.071 735.525 200.759 734.693 201.111 733.829H201.175V735.333H202.455V726.213H201.143V732.597C201.143 733.797 200.039 734.357 198.919 734.357C197.559 734.357 196.823 733.509 196.823 731.877V726.213H195.511V732.069C195.511 734.261 196.711 735.525 198.567 735.525ZM208.733 735.333H210.045V728.805C210.045 727.029 208.973 726.021 207.101 726.021C205.725 726.021 204.637 726.613 204.077 727.637L204.957 728.437C205.469 727.669 206.093 727.173 207.069 727.173C208.173 727.173 208.733 727.701 208.733 728.949V735.333ZM215.529 735.525C217.433 735.525 218.681 734.485 218.681 732.693C218.681 731.317 217.913 730.453 216.089 730.197L215.385 730.101C214.345 729.957 213.705 729.509 213.705 728.629C213.705 727.749 214.345 727.173 215.417 727.173C216.473 727.173 217.257 727.765 217.641 728.325L218.601 727.493C217.849 726.565 216.889 726.021 215.513 726.021C213.833 726.021 212.441 726.901 212.441 728.693C212.441 730.389 213.689 730.997 215.209 731.221L215.913 731.317C217.033 731.477 217.417 732.149 217.417 732.853C217.417 733.797 216.697 734.373 215.609 734.373C214.505 734.373 213.721 733.893 213.001 732.933L212.057 733.733C212.873 734.805 213.913 735.525 215.529 735.525ZM224.791 735.525C226.647 735.525 227.847 734.261 227.847 732.069V726.213H226.535V731.877C226.535 733.509 225.799 734.357 224.439 734.357C223.319 734.357 222.215 733.797 222.215 732.597V726.213H220.903V735.333H222.183V733.829H222.247C222.599 734.693 223.287 735.525 224.791 735.525ZM233.774 735.525C236.03 735.525 237.23 734.261 237.23 732.069V726.213H235.918V731.877C235.918 733.525 235.182 734.373 233.774 734.373C232.366 734.373 231.63 733.589 231.63 732.293V730.837H233.806V729.685H233.39C232.11 729.685 231.71 728.725 231.71 727.653V727.333H233.598V726.213H232.142C230.99 726.213 230.43 726.773 230.43 727.749V727.829C230.43 728.901 231.278 729.445 232.094 729.637V729.685H231.95C230.894 729.685 230.318 730.469 230.318 731.797V732.309C230.318 734.325 231.518 735.525 233.774 735.525ZM234.844 724.933H236.06V723.893H238.172V722.837H236.652C235.372 722.837 234.844 723.317 234.844 724.453V724.933ZM132.771 759.525C135.379 759.525 136.579 757.989 136.579 754.773C136.579 751.653 135.347 750.021 132.723 750.021C131.171 750.021 130.067 750.581 129.347 751.637L130.227 752.421C130.755 751.637 131.539 751.173 132.691 751.173C134.291 751.173 135.203 752.165 135.203 753.909V755.669C135.203 757.477 134.387 758.373 132.771 758.373C131.107 758.373 130.403 757.589 130.403 755.669V755.189H132.067V754.069H130.787C129.731 754.069 129.123 754.597 129.123 755.685V755.813C129.123 758.165 130.451 759.525 132.771 759.525ZM141.961 759.525C144.217 759.525 145.417 758.261 145.417 756.069V750.213H144.105V755.877C144.105 757.525 143.369 758.373 141.961 758.373C140.553 758.373 139.817 757.589 139.817 756.293V754.837H141.993V753.685H141.577C140.297 753.685 139.897 752.725 139.897 751.653V751.333H141.785V750.213H140.329C139.177 750.213 138.617 750.773 138.617 751.749V751.829C138.617 752.901 139.465 753.445 140.281 753.637V753.685H140.137C139.081 753.685 138.505 754.469 138.505 755.797V756.309C138.505 758.325 139.705 759.525 141.961 759.525ZM144.121 748.933H145.369V746.277H144.121V748.933ZM151.608 759.333H152.92V752.805C152.92 751.029 151.848 750.021 149.976 750.021C148.6 750.021 147.512 750.613 146.952 751.637L147.832 752.437C148.344 751.669 148.968 751.173 149.944 751.173C151.048 751.173 151.608 751.701 151.608 752.949V759.333ZM157.62 759.333H158.628C160.692 759.333 161.732 758.389 161.732 755.333V752.453C161.732 751.013 161.14 750.213 159.908 750.213H158.724V751.333H160.42V755.893C160.42 757.621 159.892 758.181 158.708 758.181H158.564L155.988 750.213H154.66L157.62 759.333ZM164.278 759.333H165.59V752.965C165.59 751.765 166.726 751.205 167.878 751.205C169.222 751.205 169.958 752.053 169.958 753.685V759.333H171.27V753.477C171.27 751.285 170.07 750.021 168.23 750.021C166.694 750.021 165.99 750.853 165.622 751.717H165.558V750.213H164.278V759.333ZM164.832 748.933H169.856C170.736 748.933 171.184 748.501 171.184 747.637V746.517H169.968V747.877H164.832V748.933ZM170.094 745.893H171.182V743.717H170.094V745.893ZM173.932 759.333H175.244V757.109C175.244 755.765 176.172 755.429 177.02 755.429H178.188V754.117H177.436C176.22 754.117 175.596 754.869 175.308 755.685H175.244V753.557C175.244 752.021 176.124 751.173 177.564 751.173C179.004 751.173 179.884 752.021 179.884 753.557V759.333H181.196V753.477C181.196 751.365 179.948 750.021 177.564 750.021C175.18 750.021 173.932 751.365 173.932 753.477V759.333ZM174.689 748.933H181.041V747.877H174.689V748.933ZM186.83 759.333H187.63V758.165H186.91C185.582 758.165 184.782 757.477 184.782 755.733V754.021C184.782 752.197 185.678 751.173 187.15 751.173C188.59 751.173 189.358 752.069 189.358 753.653V759.333H190.67V753.477C190.67 751.285 189.454 750.021 187.182 750.021C184.718 750.021 183.406 751.605 183.406 754.821C183.406 758.149 184.478 759.333 186.83 759.333Z" fill="white"/>
<path d="M260 480L216 497.582L260 515.164L216 532.745L260 550.327L216 567.909L260 585.491L216 603.091L260 620.673L216 638.255L260 655.836L216 673.418L260 691" stroke="white" stroke-width="1.33333"/>
<path d="M60 480L104 497.582L60 515.164L104 532.745L60 550.327L104 567.909L60 585.491L104 603.091L60 620.673L104 638.255L60 655.836L104 673.418L60 691" stroke="white" stroke-width="1.33333"/>
<circle cx="89.9289" cy="817.929" r="20" transform="rotate(-74.5895 89.9289 817.929)" fill="#5C2FF0"/>
<circle cx="89.9289" cy="817.929" r="20" transform="rotate(-74.5895 89.9289 817.929)" fill="url(#paint3_radial_243_52088)"/>
<circle cx="183.35" cy="686.683" r="20" transform="rotate(-37.112 183.35 686.683)" fill="#DFFF5F"/>
<circle cx="183.35" cy="686.683" r="20" transform="rotate(-37.112 183.35 686.683)" fill="url(#paint4_radial_243_52088)"/>
<circle cx="138.034" cy="519.367" r="20" transform="rotate(52.6316 138.034 519.367)" fill="#9B8CCD"/>
<circle cx="138.034" cy="519.367" r="20" transform="rotate(52.6316 138.034 519.367)" fill="url(#paint5_radial_243_52088)"/>
<circle cx="242.667" cy="904.667" r="20" fill="#78E5B8"/>
<circle cx="242.667" cy="904.667" r="20" fill="url(#paint6_radial_243_52088)"/>
</g>
<defs>
<radialGradient id="paint0_radial_243_52088" cx="0" cy="0" r="1" gradientUnits="userSpaceOnUse" gradientTransform="translate(89.2623 236.929) rotate(49.6001) scale(20.5724)">
<stop stop-color="white" stop-opacity="0.81"/>
<stop offset="1" stop-color="white" stop-opacity="0"/>
</radialGradient>
<radialGradient id="paint1_radial_243_52088" cx="0" cy="0" r="1" gradientUnits="userSpaceOnUse" gradientTransform="translate(181.683 115.35) rotate(49.6001) scale(20.5724)">
<stop stop-color="white"/>
<stop offset="1" stop-color="white" stop-opacity="0"/>
</radialGradient>
<radialGradient id="paint2_radial_243_52088" cx="0" cy="0" r="1" gradientUnits="userSpaceOnUse" gradientTransform="translate(209.667 278.333) rotate(49.6001) scale(20.5724)">
<stop stop-color="white"/>
<stop offset="1" stop-color="white" stop-opacity="0"/>
</radialGradient>
<radialGradient id="paint3_radial_243_52088" cx="0" cy="0" r="1" gradientUnits="userSpaceOnUse" gradientTransform="translate(84.2623 810.262) rotate(49.6001) scale(20.5724)">
<stop stop-color="white" stop-opacity="0.81"/>
<stop offset="1" stop-color="white" stop-opacity="0"/>
</radialGradient>
<radialGradient id="paint4_radial_243_52088" cx="0" cy="0" r="1" gradientUnits="userSpaceOnUse" gradientTransform="translate(177.683 679.017) rotate(49.6001) scale(20.5724)">
<stop stop-color="white"/>
<stop offset="1" stop-color="white" stop-opacity="0"/>
</radialGradient>
<radialGradient id="paint5_radial_243_52088" cx="0" cy="0" r="1" gradientUnits="userSpaceOnUse" gradientTransform="translate(132.367 511.7) rotate(49.6001) scale(20.5724)">
<stop stop-color="white"/>
<stop offset="1" stop-color="white" stop-opacity="0"/>
</radialGradient>
<radialGradient id="paint6_radial_243_52088" cx="0" cy="0" r="1" gradientUnits="userSpaceOnUse" gradientTransform="translate(237 897) rotate(49.6001) scale(20.5724)">
<stop stop-color="white"/>
<stop offset="1" stop-color="white" stop-opacity="0"/>
</radialGradient>
<clipPath id="clip0_243_52088">
<rect width="320" height="1000" fill="white"/>
</clipPath>
</defs>
</svg>
