<svg width="806" height="277" viewBox="0 0 806 277" fill="none" xmlns="http://www.w3.org/2000/svg">
<circle cx="72.478" cy="91.5464" r="23.5364" stroke="#F5F0EB" stroke-width="2"/>
<path d="M83.8489 26.2671L83.6127 27.2388L84.6375 27.4879L84.8317 26.4513L83.8489 26.2671ZM59.554 155.927L60.5369 156.111L60.7315 155.072L59.6839 154.935L59.554 155.927ZM59.4953 156.24L58.5124 156.056L58.3177 157.095L59.3657 157.232L59.4953 156.24ZM784.338 250.929L784.209 251.921L785.196 252.049L785.329 251.063L784.338 250.929ZM784.349 250.852L784.404 249.854L783.481 249.803L783.358 250.719L784.349 250.852ZM789.172 213.35L788.915 214.317L788.945 214.325L788.975 214.331L789.172 213.35ZM83.872 26.1437L84.1285 25.1772L83.0875 24.9009L82.8891 25.9595L83.872 26.1437ZM84.0851 25.2954C78.2928 23.8875 72.2159 23.2348 65.9696 23.4438L66.0365 25.4426C72.0996 25.2398 77.9951 25.8733 83.6127 27.2388L84.0851 25.2954ZM65.9696 23.4438C28.9652 24.6818 -0.0292871 55.6834 1.2087 92.6878L3.20759 92.621C2.00653 56.7205 30.136 26.6437 66.0365 25.4426L65.9696 23.4438ZM1.2087 92.6878C2.32139 125.947 27.4766 152.734 59.4242 156.918L59.6839 154.935C28.6909 150.876 4.28702 124.886 3.20759 92.621L1.2087 92.6878ZM58.5711 155.743L58.5124 156.056L60.4782 156.424L60.5369 156.111L58.5711 155.743ZM59.3657 157.232L784.209 251.921L784.468 249.937L59.6248 155.249L59.3657 157.232ZM785.329 251.063L785.34 250.986L783.358 250.719L783.347 250.795L785.329 251.063ZM784.293 251.851C784.887 251.884 785.488 251.891 786.093 251.871L786.027 249.872C785.48 249.89 784.939 249.884 784.404 249.854L784.293 251.851ZM786.093 251.871C797.106 251.502 805.734 242.276 805.366 231.264L803.367 231.331C803.698 241.239 795.935 249.54 786.027 249.872L786.093 251.871ZM805.366 231.264C805.05 221.831 798.236 214.149 789.369 212.37L788.975 214.331C796.954 215.932 803.083 222.846 803.367 231.331L805.366 231.264ZM789.428 212.384L84.1285 25.1772L83.6154 27.1103L788.915 214.317L789.428 212.384ZM82.8891 25.9595L82.866 26.0829L84.8317 26.4513L84.8549 26.3279L82.8891 25.9595Z" fill="#F5F0EB"/>
</svg>
