<svg width="714" height="198" viewBox="0 0 714 198" fill="none" xmlns="http://www.w3.org/2000/svg">
<g id="13">
<g id="Component 39">
<path id="Union" d="M449.022 136.726L449.551 137.575C450.008 137.29 450.158 136.693 449.888 136.226L449.022 136.726ZM476.511 184.339L477.377 183.839C477.108 183.371 476.516 183.202 476.04 183.456L476.511 184.339ZM476.519 184.352L475.653 184.852C475.786 185.082 476.004 185.249 476.26 185.318C476.516 185.387 476.789 185.351 477.019 185.218L476.519 184.352ZM690.897 60.5811L691.397 61.4471C691.875 61.171 692.039 60.5594 691.763 60.0811L690.897 60.5811ZM690.873 60.5403L690.324 59.7048C689.881 59.9958 689.742 60.5816 690.007 61.0403L690.873 60.5403ZM663.415 12.9823L662.549 13.4823C662.814 13.9411 663.391 14.1137 663.864 13.8759L663.415 12.9823ZM663.392 12.9416L664.258 12.4416C664.125 12.2119 663.907 12.0443 663.651 11.9757C663.395 11.9071 663.122 11.943 662.892 12.0756L663.392 12.9416ZM661.988 13.7523L661.488 12.8863L661.988 13.7523ZM449.82 136.248L450.32 137.114L449.82 136.248ZM449.014 136.713L448.514 135.847C448.285 135.979 448.117 136.198 448.048 136.454C447.98 136.71 448.016 136.983 448.148 137.213L449.014 136.713ZM448.494 135.877C435.5 143.966 431.176 160.965 438.886 174.32L440.618 173.32C433.449 160.903 437.47 145.095 449.551 137.575L448.494 135.877ZM438.886 174.32C446.596 187.674 463.48 192.429 476.982 185.221L476.04 183.456C463.487 190.159 447.787 185.737 440.618 173.32L438.886 174.32ZM475.645 184.839L475.653 184.852L477.385 183.852L477.377 183.839L475.645 184.839ZM477.019 185.218L691.397 61.4471L690.397 59.7151L476.019 183.486L477.019 185.218ZM691.763 60.0811L691.739 60.0403L690.007 61.0403L690.031 61.0811L691.763 60.0811ZM698.694 24.3197C705.75 36.5421 701.966 52.0495 690.324 59.7048L691.422 61.3759C703.945 53.142 708.015 36.4651 700.426 23.3197L698.694 24.3197ZM663.864 13.8759C676.315 7.62122 691.637 12.0973 698.694 24.3197L700.426 23.3197C692.836 10.1744 676.358 5.36125 662.967 12.0887L663.864 13.8759ZM664.281 12.4823L664.258 12.4416L662.526 13.4416L662.549 13.4823L664.281 12.4823ZM662.892 12.0756L661.488 12.8863L662.488 14.6183L663.892 13.8077L662.892 12.0756ZM661.488 12.8863L449.32 135.382L450.32 137.114L662.488 14.6183L661.488 12.8863ZM449.32 135.382L448.514 135.847L449.514 137.579L450.32 137.114L449.32 135.382ZM448.148 137.213L448.156 137.226L449.888 136.226L449.88 136.213L448.148 137.213Z" fill="white"/>
</g>
<g id="Component 37">
<path id="Union_2" d="M263.512 13.3008L263.041 14.1829C263.516 14.4369 264.108 14.2679 264.378 13.8008L263.512 13.3008ZM236.022 60.9134L236.888 61.4134C237.158 60.9463 237.009 60.3495 236.551 60.0645L236.022 60.9134ZM236.015 60.9269L235.149 60.4269C234.872 60.9051 235.036 61.5167 235.515 61.7929L236.015 60.9269ZM450.392 184.698L449.892 185.564C450.37 185.84 450.982 185.676 451.258 185.198L450.392 184.698ZM450.416 184.657L450.865 183.763C450.391 183.526 449.814 183.698 449.55 184.157L450.416 184.657ZM477.873 137.099L477.007 136.599C476.742 137.058 476.881 137.644 477.324 137.935L477.873 137.099ZM477.897 137.058L478.763 137.558C478.895 137.329 478.931 137.056 478.863 136.8C478.794 136.543 478.626 136.325 478.397 136.192L477.897 137.058ZM476.493 136.248L475.993 137.114L476.493 136.248ZM263.519 13.2874L264.019 12.4214C263.541 12.1452 262.929 12.3091 262.653 12.7874L263.519 13.2874ZM263.983 12.4186C250.481 5.21 233.597 9.96516 225.886 23.3196L227.618 24.3196C234.787 11.9025 250.487 7.48065 263.041 14.1829L263.983 12.4186ZM225.886 23.3196C218.176 36.6741 222.5 53.6738 235.494 61.7624L236.551 60.0645C224.47 52.544 220.449 36.7368 227.618 24.3196L225.886 23.3196ZM235.156 60.4134L235.149 60.4269L236.881 61.4269L236.888 61.4134L235.156 60.4134ZM235.515 61.7929L449.892 185.564L450.892 183.832L236.515 60.0608L235.515 61.7929ZM451.258 185.198L451.282 185.157L449.55 184.157L449.526 184.198L451.258 185.198ZM485.694 173.32C478.637 185.542 463.315 190.018 450.865 183.763L449.967 185.551C463.359 192.278 479.837 187.465 487.426 174.32L485.694 173.32ZM477.324 137.935C488.966 145.59 492.751 161.097 485.694 173.32L487.426 174.32C495.015 161.174 490.945 144.497 478.423 136.264L477.324 137.935ZM478.739 137.599L478.763 137.558L477.031 136.558L477.007 136.599L478.739 137.599ZM478.397 136.192L476.993 135.382L475.993 137.114L477.397 137.924L478.397 136.192ZM476.993 135.382L264.824 12.8862L263.824 14.6183L475.993 137.114L476.993 135.382ZM264.824 12.8862L264.019 12.4214L263.019 14.1534L263.824 14.6183L264.824 12.8862ZM262.653 12.7874L262.646 12.8008L264.378 13.8008L264.385 13.7874L262.653 12.7874Z" fill="white"/>
</g>
<g id="Component 38">
<path id="Union_3" d="M232.041 16.5126L232.603 17.34C232.631 17.321 232.658 17.3006 232.684 17.2789L232.041 16.5126ZM236.669 13.3719L237.145 14.2515C237.174 14.2356 237.203 14.2182 237.23 14.1994L236.669 13.3719ZM236.793 13.2876L237.659 12.7876C237.52 12.547 237.287 12.375 237.017 12.3129C236.746 12.2508 236.461 12.3041 236.232 12.4602L236.793 13.2876ZM236.801 13.301L235.935 13.801C236.205 14.2681 236.796 14.4372 237.272 14.1831L236.801 13.301ZM264.29 60.9137L263.762 60.0647C263.304 60.3498 263.154 60.9466 263.424 61.4137L264.29 60.9137ZM264.298 60.927L264.732 61.8279C264.982 61.7072 265.171 61.4875 265.253 61.2217C265.335 60.9559 265.303 60.6679 265.164 60.427L264.298 60.927ZM264.166 60.9908L263.731 60.0899C263.701 60.1047 263.671 60.1212 263.641 60.1391L264.166 60.9908ZM259.028 63.4662L258.689 62.5253C258.657 62.537 258.625 62.5504 258.594 62.5653L259.028 63.4662ZM24.1082 176.663L23.2421 177.163C23.5038 177.616 24.0708 177.791 24.5423 177.564L24.1082 176.663ZM24.1045 176.657L24.9705 176.157C24.7027 175.693 24.1171 175.522 23.6422 175.77L24.1045 176.657ZM16.2193 162.999L16.7561 163.843C17.2079 163.555 17.3531 162.963 17.0853 162.499L16.2193 162.999ZM16.2165 162.994L15.6549 162.167C15.2212 162.461 15.0884 163.04 15.3504 163.494L16.2165 162.994ZM235.488 12.8865C234.02 13.7339 232.656 14.6927 231.399 15.7463L232.684 17.2789C233.852 16.2997 235.121 15.4077 236.488 14.6185L235.488 12.8865ZM236.193 12.4923C235.957 12.62 235.722 12.7514 235.488 12.8865L236.488 14.6185C236.706 14.4928 236.925 14.3704 237.145 14.2515L236.193 12.4923ZM236.232 12.4602L236.107 12.5445L237.23 14.1994L237.355 14.115L236.232 12.4602ZM237.667 12.801L237.659 12.7876L235.927 13.7876L235.935 13.801L237.667 12.801ZM274.426 23.3199C266.716 9.96542 249.832 5.21026 236.33 12.4188L237.272 14.1831C249.825 7.48091 265.525 11.9028 272.694 24.3199L274.426 23.3199ZM264.819 61.7626C277.812 53.674 282.136 36.6744 274.426 23.3199L272.694 24.3199C279.863 36.737 275.843 52.5443 263.762 60.0647L264.819 61.7626ZM265.164 60.427L265.156 60.4137L263.424 61.4137L263.432 61.427L265.164 60.427ZM264.6 61.8916L264.732 61.8279L263.864 60.0262L263.731 60.0899L264.6 61.8916ZM263.993 62.2579C264.228 62.1223 264.46 61.9838 264.69 61.8425L263.641 60.1391C263.428 60.2706 263.211 60.3995 262.993 60.5259L263.993 62.2579ZM259.367 64.4071C260.944 63.8395 262.492 63.1246 263.993 62.2579L262.993 60.5259C261.595 61.3328 260.155 61.9977 258.689 62.5253L259.367 64.4071ZM24.5423 177.564L259.462 64.3671L258.594 62.5653L23.6741 175.762L24.5423 177.564ZM23.2385 177.157L23.2421 177.163L24.9742 176.163L24.9705 176.157L23.2385 177.157ZM12.7601 174.101C15.1506 178.242 20.3673 179.732 24.5667 177.543L23.6422 175.77C20.3885 177.466 16.3448 176.31 14.4922 173.101L12.7601 174.101ZM15.6825 162.155C11.687 164.698 10.3696 169.961 12.7601 174.101L14.4922 173.101C12.6395 169.892 13.6604 165.813 16.7561 163.843L15.6825 162.155ZM15.3504 163.494L15.3533 163.499L17.0853 162.499L17.0825 162.494L15.3504 163.494ZM231.48 15.6852L15.6549 162.167L16.778 163.822L232.603 17.34L231.48 15.6852Z" fill="white"/>
</g>
<path id="&#224;&#185;&#132;&#224;&#184;&#161;&#224;&#185;&#136;&#224;&#185;&#128;&#224;&#184;&#171;&#224;&#185;&#135;&#224;&#184;&#153;&#224;&#184;&#138;&#224;&#184;&#173;&#224;&#184;&#154;" d="M297.952 54.9562L293.354 52.3012L293.147 52.6598L292.924 53.4045L295.855 55.0965C294.683 55.002 293.816 55.3531 292.862 57.0055L288.085 65.2428C287.599 66.0845 287.91 66.95 288.736 67.427C289.032 67.598 289.262 67.6682 289.476 67.7294L289.989 67.2361L290.151 66.9555L289.59 66.6315C289.31 66.4695 289.235 66.2392 289.442 65.8806L294.099 57.8862C295.33 55.7907 296.192 55.6651 297.34 56.0163L297.952 54.9562ZM295.356 71.3318C296.93 72.2408 298.911 72.1581 299.937 70.381L302.331 66.2345C302.655 65.6733 302.798 65.569 303.246 65.7652L303.647 65.9345L304.097 65.1551L301.104 63.4271L300.654 64.2065L301.001 64.4692C301.395 64.759 301.376 64.9353 301.052 65.4965L298.694 69.5807C297.992 70.7966 296.936 70.7896 295.892 70.1866C294.302 69.2686 294.155 67.6873 294.155 67.6873L297.737 61.4831L295.617 60.2591L295.158 61.0541L295.521 61.3258C295.899 61.6066 295.883 61.7427 295.559 62.3039L292.652 67.339C292.301 67.9469 292.151 68.0266 291.805 67.8688L291.429 67.693L290.925 68.5659L292.718 69.6009C292.948 69.3809 293.227 69.0428 293.438 68.749C293.438 68.749 293.578 70.3058 295.356 71.3318ZM303.952 63.3878L305.212 61.2054L303.965 60.4854L302.705 62.6678L303.952 63.3878ZM302.452 75.3459C302.779 75.5349 303.134 75.6771 303.348 75.7384L303.846 75.236L304.008 74.9554L303.4 74.6044C303.119 74.4424 303.064 74.2859 303.253 73.9585L306.367 68.5649C306.709 67.9726 306.812 67.8659 307.126 68.0057L307.528 68.1749L307.978 67.3955L305.296 65.8475L304.846 66.6269L305.193 66.8897C305.456 67.0829 305.431 67.2346 305.089 67.8269L301.858 73.4232C301.399 74.2182 301.564 74.8329 302.452 75.3459ZM313.312 80.369C312.918 80.0792 312.937 79.9029 313.261 79.3417L314.134 77.8296C315.061 76.224 315.151 74.9875 313.578 73.9334L315.765 73.4922C316.23 73.4072 316.545 73.4019 316.999 73.6227L317.422 72.89L315.552 71.81C315.395 72.0103 315.171 72.1097 314.86 72.1798L309.442 73.4997L311.719 69.5558L309.584 68.3228L309.08 69.1958L309.502 69.5437C309.756 69.7525 309.775 69.9714 309.478 70.4858L306.589 75.4897C306.265 76.0509 306.124 76.115 305.745 75.9794L305.177 75.7759L304.736 76.5397L307.885 78.3577L308.326 77.5939L307.95 77.273C307.605 76.97 307.552 76.7733 307.867 76.2277L308.623 74.9183L311.774 74.2848C311.957 74.3281 312.138 74.4115 312.34 74.5285C313.463 75.1765 313.441 76.0784 312.847 77.1072L311.983 78.6037C311.659 79.1649 311.515 79.2692 311.068 79.073L310.666 78.9037L310.207 79.6987L313.2 81.4267L313.659 80.6317L313.312 80.369ZM313.896 69.337L315.301 69.3164L315.892 70.489L316.936 71.092L317.68 70.5237L317.833 70.2587L316.742 69.6287L316.052 68.4825L315.709 68.2845L314.481 68.3237L314.123 68.1167C313.92 67.9997 313.775 67.6039 314 67.2142L314.063 67.1051C314.315 66.6686 314.688 66.6345 315.436 67.0665L318.382 68.7675L319.126 68.1993L319.279 67.9343L315.974 66.0263C314.602 65.2343 313.427 65.4702 312.878 66.4211L312.743 66.6549C312.302 67.4187 312.54 68.554 313.351 69.022L313.896 69.337ZM317.687 84.2251C319.121 85.0531 320.187 84.8993 320.874 84.6099C320.705 85.011 320.634 85.3858 320.599 85.6982L322.314 86.6882L322.818 85.8153C322.183 85.3659 322.153 85.2028 322.513 84.5792L325.411 79.5598C325.735 78.9986 325.878 78.8943 326.326 79.0905L326.727 79.2598L327.177 78.4803L324.184 76.7523L323.734 77.5318L324.081 77.7945C324.475 78.0843 324.456 78.2606 324.132 78.8218L321.495 83.3892C320.656 83.7985 319.564 83.8539 318.442 83.2059C317.366 82.5849 316.875 81.6361 317.55 80.4669L320.817 74.8083L318.697 73.5843L318.238 74.3793L318.601 74.6511C318.979 74.9319 318.963 75.068 318.639 75.6292L316.2 79.8536C315.183 81.6151 316.051 83.2801 317.687 84.2251ZM327.097 89.6576C329.061 90.7916 330.717 90.4797 331.851 88.5155L333.021 86.489C333.516 85.6317 333.245 84.6235 332.672 84.1053L334.418 83.6375C334.737 83.5518 334.994 83.5753 335.243 83.7193L335.675 82.971L334.319 82.188L331.524 83.2138L331.11 83.9308C331.804 84.4564 332.181 85.0274 331.722 85.8224L330.588 87.7865C329.877 89.018 328.833 89.2054 327.727 88.5664C326.62 87.9274 326.276 86.939 326.987 85.7075L328.49 83.1043C329.264 81.7637 330.064 81.602 330.748 81.8931L331.333 80.8798L328.325 79.1428L327.74 80.1561L329.314 81.0651C328.432 81.117 327.797 81.353 327.149 82.4754L325.709 84.9695C324.575 86.9337 325.133 88.5236 327.097 89.6576ZM340.257 85.845C338.729 84.963 337.144 84.9001 336.254 85.2176C336.101 85.4826 335.926 85.8592 335.745 86.3161L336.774 86.9101C337.634 86.2843 338.505 86.2882 339.627 86.9362C341.201 87.8452 341.516 88.9205 340.652 90.417L339.491 92.4279C338.618 93.94 337.529 94.2053 335.939 93.2873C335.082 92.7923 334.536 92.0821 334.485 91.45L335.34 89.9691L336.4 90.5811L336.985 89.5679L334.647 88.2179L332.784 91.4447L333.018 91.5797C333.344 92.5992 333.904 93.6086 335.291 94.4096C337.396 95.6246 339.482 95.395 340.751 93.1971L341.912 91.1861C343.226 88.9102 342.471 87.123 340.257 85.845ZM344.215 99.5407C346.491 100.855 348.464 100.352 349.526 98.5128L351.713 94.7248C352.037 94.1636 352.181 94.0593 352.629 94.2555L353.03 94.4248L353.471 93.6609L350.478 91.9329L350.037 92.6968L350.384 92.9595C350.778 93.2493 350.759 93.4256 350.435 93.9868L348.248 97.7748C347.582 98.9283 346.326 99.3045 344.845 98.4495C343.364 97.5945 343.061 96.3183 343.727 95.1648L346.814 89.8179L344.694 88.5939L344.235 89.389L344.598 89.6607C344.976 89.9415 344.96 90.0776 344.636 90.6388L342.449 94.4268C341.387 96.2662 341.939 98.2267 344.215 99.5407Z" fill="#FF8058"/>
<path id="&#224;&#185;&#128;&#224;&#184;&#171;&#224;&#185;&#135;&#224;&#184;&#153;&#224;&#184;&#138;&#224;&#184;&#173;&#224;&#184;&#154;" d="M174.344 88.205C174.671 88.016 174.972 87.7802 175.132 87.6254L174.946 86.9431L174.784 86.6625L174.176 87.0135C173.895 87.1755 173.732 87.1449 173.543 86.8176L170.429 81.424C170.087 80.8316 170.046 80.6889 170.324 80.4867L170.672 80.224L170.222 79.4445L167.54 80.9925L167.99 81.772L168.391 81.6027C168.69 81.4719 168.809 81.5696 169.151 82.162L172.382 87.7582C172.841 88.5533 173.456 88.718 174.344 88.205ZM184.124 81.3113C183.676 81.5075 183.533 81.4032 183.209 80.8421L182.336 79.33C181.409 77.7244 180.383 77.0279 178.684 77.8638L179.395 75.7485C179.554 75.3035 179.707 75.0282 180.125 74.745L179.702 74.0124L177.832 75.0924C177.927 75.3286 177.901 75.5721 177.806 75.8761L176.24 81.2281L173.963 77.2842L171.828 78.5172L172.332 79.3902L172.844 79.1981C173.152 79.0829 173.351 79.1757 173.648 79.6902L176.537 84.6941C176.861 85.2552 176.846 85.4094 176.539 85.6697L176.079 86.0602L176.52 86.8241L179.669 85.0061L179.228 84.2422L178.762 84.4073C178.327 84.5544 178.13 84.5017 177.815 83.9561L177.059 82.6466L178.086 79.6012C178.215 79.4644 178.378 79.3498 178.58 79.2328C179.703 78.5848 180.473 79.0547 181.067 80.0836L181.931 81.5801C182.255 82.1412 182.273 82.3175 181.88 82.6073L181.532 82.8701L181.991 83.6651L184.984 81.9371L184.525 81.1421L184.124 81.3113ZM174.862 75.2895L175.547 74.063L176.858 74.1375L177.902 73.5345L177.782 72.6063L177.629 72.3413L176.538 72.9713L175.2 72.9951L174.857 73.1931L174.277 74.2763L173.919 74.4833C173.716 74.6003 173.301 74.5284 173.076 74.1387L173.013 74.0296C172.761 73.5931 172.918 73.2531 173.666 72.8211L176.612 71.1201L176.492 70.1918L176.339 69.9268L173.034 71.8348C171.662 72.6268 171.279 73.7627 171.828 74.7136L171.963 74.9474C172.404 75.7113 173.506 76.0725 174.317 75.6045L174.862 75.2895ZM189.651 79.4505C191.085 78.6225 191.485 77.6227 191.578 76.8833C191.841 77.2304 192.13 77.4792 192.383 77.6656L194.098 76.6756L193.594 75.8026C192.887 76.1273 192.731 76.0722 192.371 75.4486L189.473 70.4291C189.149 69.868 189.13 69.6917 189.524 69.4019L189.871 69.1391L189.421 68.3597L186.428 70.0877L186.878 70.8671L187.279 70.6979C187.727 70.5017 187.87 70.606 188.194 71.1671L190.831 75.7346C190.766 76.6659 190.268 77.6393 189.146 78.2873C188.07 78.9083 187.003 78.8595 186.328 77.6903L183.061 72.0317L180.941 73.2557L181.4 74.0507L181.817 73.8725C182.249 73.6853 182.359 73.7674 182.683 74.3286L185.122 78.553C186.139 80.3145 188.015 80.3955 189.651 79.4505ZM199.061 74.018C201.025 72.884 201.583 71.2941 200.449 69.33L199.279 67.3035C198.784 66.4461 197.775 66.176 197.04 66.4137L197.508 64.6679C197.593 64.3482 197.742 64.1377 197.991 63.9937L197.559 63.2455L196.203 64.0285L195.694 66.9622L196.108 67.6793C196.91 67.3408 197.593 67.2998 198.052 68.0948L199.186 70.059C199.897 71.2904 199.537 72.2878 198.431 72.9268C197.324 73.5658 196.296 73.3694 195.585 72.138L194.082 69.5347C193.308 68.1941 193.568 67.4204 194.162 66.9735L193.577 65.9602L190.569 67.6972L191.154 68.7105L192.728 67.8015C192.332 68.5914 192.219 69.2594 192.867 70.3818L194.307 72.876C195.441 74.8401 197.096 75.152 199.061 74.018ZM202.339 60.7145C200.811 61.5965 199.964 62.9376 199.794 63.8671C199.947 64.1321 200.186 64.4727 200.491 64.8576L201.52 64.2636C201.408 63.2058 201.847 62.4537 202.969 61.8057C204.543 60.8967 205.632 61.162 206.496 62.6585L207.657 64.6694C208.53 66.1815 208.215 67.2568 206.625 68.1748C205.768 68.6698 204.88 68.7876 204.307 68.5155L203.452 67.0346L204.512 66.4226L203.927 65.4094L201.589 66.7594L203.452 69.9862L203.686 69.8512C204.732 70.0787 205.886 70.0981 207.273 69.2971C209.378 68.0821 210.222 66.1605 208.953 63.9625L207.792 61.9516C206.478 59.6757 204.553 59.4365 202.339 60.7145ZM216.179 64.1349C218.455 62.8209 219.006 60.8604 217.944 59.0209L215.757 55.2329C215.433 54.6718 215.415 54.4955 215.809 54.2057L216.156 53.9429L215.715 53.1791L212.722 54.9071L213.163 55.6709L213.564 55.5017C214.012 55.3055 214.155 55.4098 214.479 55.9709L216.666 59.7589C217.332 60.9125 217.03 62.1887 215.549 63.0437C214.068 63.8987 212.811 63.5225 212.145 62.3689L209.058 57.0221L206.938 58.2461L207.397 59.0411L207.814 58.8629C208.246 58.6756 208.356 58.7578 208.68 59.3189L210.867 63.1069C211.929 64.9464 213.903 65.4489 216.179 64.1349Z" fill="white"/>
<g id="Component 64">
<g id="Frame 756">
<rect x="235" y="23" width="30" height="30" rx="15" fill="white"/>
<path id="1" d="M240.899 44.5H249.647V42.322H246.983V31.936H242.843L239.837 35.896L241.565 37.246L244.121 33.898H244.283V42.322H240.899V44.5ZM254.932 44.716C257.776 44.716 259.702 43.258 259.702 41.008C259.702 39.28 258.586 38.254 257.092 37.984V37.876C258.388 37.642 259.486 36.652 259.486 35.05C259.486 33.034 257.74 31.72 255.04 31.72C252.88 31.72 251.656 32.584 250.702 33.826L252.394 35.41C253.024 34.456 253.942 33.916 254.95 33.916C256.012 33.916 256.642 34.528 256.642 35.428V35.554C256.642 36.328 256.048 36.904 254.716 36.904H253.546V39.154H254.68C256.048 39.154 256.876 39.676 256.876 40.702V40.81C256.876 41.854 256.156 42.52 254.932 42.52C253.582 42.52 252.826 41.782 252.286 40.756L250.288 42.304C251.098 43.582 252.376 44.716 254.932 44.716Z" fill="black"/>
</g>
</g>
</g>
</svg>
