<svg width="487" height="252" viewBox="0 0 487 252" fill="none" xmlns="http://www.w3.org/2000/svg">
<g id="16X">
<g id="Component 63">
<path id="Union" d="M274.425 240.297L274.392 239.298C273.853 239.316 273.425 239.758 273.425 240.297L274.425 240.297ZM274.425 185.319L273.425 185.319C273.425 185.858 273.853 186.3 274.392 186.318L274.425 185.319ZM274.425 185.303L275.425 185.303C275.425 184.751 274.977 184.303 274.425 184.303L274.425 185.303ZM26.8832 185.303L26.8832 184.303C26.618 184.303 26.3637 184.409 26.1762 184.596C25.9886 184.784 25.8832 185.038 25.8832 185.303L26.8832 185.303ZM26.8832 185.35L26.9413 186.349C27.4701 186.318 27.8832 185.88 27.8832 185.35L26.8832 185.35ZM26.8832 240.265L27.8832 240.265C27.8832 239.736 27.4701 239.298 26.9413 239.267L26.8832 240.265ZM26.8832 240.312L25.8832 240.312C25.8832 240.865 26.331 241.312 26.8832 241.312L26.8832 240.312ZM28.5046 240.312L28.5046 241.312L28.5046 240.312ZM274.425 240.312L274.425 241.312C274.977 241.312 275.425 240.865 275.425 240.312L274.425 240.312ZM274.458 241.297C289.755 240.788 302 228.228 302 212.808L300 212.808C300 227.146 288.615 238.825 274.392 239.298L274.458 241.297ZM302 212.808C302 197.387 289.755 184.827 274.458 184.319L274.392 186.318C288.615 186.791 300 198.47 300 212.808L302 212.808ZM275.425 185.319L275.425 185.303L273.425 185.303L273.425 185.319L275.425 185.319ZM274.425 184.303L26.8832 184.303L26.8832 186.303L274.425 186.303L274.425 184.303ZM25.8832 185.303L25.8832 185.35L27.8832 185.35L27.8832 185.303L25.8832 185.303ZM2 212.808C2 198.695 13.0313 187.157 26.9413 186.349L26.8252 184.352C11.8638 185.222 3.73151e-06 197.629 2.40453e-06 212.808L2 212.808ZM26.9413 239.267C13.0313 238.459 2 226.921 2 212.808L2.40453e-06 212.808C1.07755e-06 227.987 11.8638 240.394 26.8252 241.264L26.9413 239.267ZM25.8832 240.265L25.8832 240.312L27.8832 240.312L27.8832 240.265L25.8832 240.265ZM26.8832 241.312L28.5046 241.312L28.5046 239.312L26.8832 239.312L26.8832 241.312ZM28.5046 241.312L273.495 241.312L273.495 239.312L28.5046 239.312L28.5046 241.312ZM273.495 241.312L274.425 241.312L274.425 239.312L273.495 239.312L273.495 241.312ZM275.425 240.312L275.425 240.297L273.425 240.297L273.425 240.312L275.425 240.312Z" fill="white"/>
</g>
<path id="&#224;&#184;&#170;.&#224;&#184;&#170;.&#224;&#184;&#158;&#224;&#184;&#180;&#224;&#184;&#136;&#224;&#184;&#178;&#224;&#184;&#163;&#224;&#184;&#147;&#224;&#184;&#178;&#224;&#184;&#173;&#224;&#184;&#181;&#224;&#184;&#129;&#224;&#184;&#132;&#224;&#184;&#163;&#224;&#184;&#177;&#224;&#185;&#137;&#224;&#184;&#135;" d="M80.63 206.686H79.298C79.244 207.298 78.992 207.694 78.524 207.856C77.912 207.478 77.084 207.298 76.058 207.298C74.186 207.298 72.836 207.928 72.26 208.45C72.278 208.9 72.332 209.476 72.368 209.872H73.538C73.7 209.26 74.168 208.522 76.04 208.522C77.498 208.522 78.326 209.062 78.326 210.286V211.654H74.852C73.016 211.654 71.684 212.86 71.684 214.462C71.684 216.424 73.178 217.198 74.402 217.198C75.14 217.198 76.058 217.036 76.418 216.82C76.382 216.442 76.364 216.064 76.328 215.686H75.248C75.05 215.848 74.798 215.938 74.51 215.938C73.664 215.938 73.16 215.488 73.16 214.372C73.16 213.238 73.898 212.77 74.978 212.77H78.326V216.01C78.362 216.388 78.524 216.73 78.776 217H80.504V216.172C79.928 216.028 79.802 215.974 79.802 215.074V210.286C79.802 209.656 79.676 209.134 79.406 208.702C79.748 208.576 80.252 208.27 80.63 207.64V206.686ZM84.3256 217V215.164H82.5256V217H84.3256ZM95.2198 206.686H93.8878C93.8338 207.298 93.5818 207.694 93.1138 207.856C92.5018 207.478 91.6738 207.298 90.6478 207.298C88.7758 207.298 87.4258 207.928 86.8498 208.45C86.8678 208.9 86.9218 209.476 86.9578 209.872H88.1278C88.2898 209.26 88.7578 208.522 90.6298 208.522C92.0878 208.522 92.9158 209.062 92.9158 210.286V211.654H89.4418C87.6058 211.654 86.2738 212.86 86.2738 214.462C86.2738 216.424 87.7678 217.198 88.9918 217.198C89.7298 217.198 90.6478 217.036 91.0078 216.82C90.9718 216.442 90.9538 216.064 90.9178 215.686H89.8378C89.6398 215.848 89.3878 215.938 89.0998 215.938C88.2538 215.938 87.7498 215.488 87.7498 214.372C87.7498 213.238 88.4878 212.77 89.5678 212.77H92.9158V216.01C92.9518 216.388 93.1138 216.73 93.3658 217H95.0938V216.172C94.5178 216.028 94.3918 215.974 94.3918 215.074V210.286C94.3918 209.656 94.2658 209.134 93.9958 208.702C94.3378 208.576 94.8418 208.27 95.2198 207.64V206.686ZM98.9155 217V215.164H97.1155V217H98.9155ZM104.932 217L106.714 210.16L108.496 217H110.656L111.7 209.116C111.772 208.576 111.862 208.432 112.42 208.324V207.46H110.566L109.558 215.47H109.414L107.434 207.568H106.156L104.176 215.47H104.032L102.97 207.46H100.72V208.324L101.278 208.432C101.548 208.486 101.674 208.702 101.728 209.008L102.916 217H104.932ZM110.271 205.948V204.724H102.981L102.621 205.48V205.948H110.271ZM117.495 207.262C115.857 207.262 114.435 207.928 113.787 208.468C113.769 208.882 113.823 209.602 113.859 209.89L115.029 209.872C115.191 209.26 115.803 208.486 117.495 208.468C119.169 208.45 120.123 209.386 120.123 210.898V213.238C120.123 214.93 119.385 215.848 117.891 215.848H117.783L117.189 212.104H114.813V213.076H115.335C115.695 213.076 115.839 213.22 115.911 213.706L116.433 217H118.161C120.159 217 121.599 215.596 121.599 213.292V210.898C121.599 208.612 120.015 207.262 117.495 207.262ZM130.301 217V216.1L129.869 216.046C129.383 215.992 129.311 215.83 129.311 215.182V210.286C129.311 208.342 128.375 207.298 125.927 207.298C124.469 207.298 123.299 207.928 122.651 208.45C122.669 208.918 122.705 209.404 122.741 209.872H123.911C124.073 209.26 124.577 208.522 125.909 208.522C127.025 208.522 127.835 209.062 127.835 210.286V215.182C127.835 215.83 127.763 215.992 127.277 216.046L126.845 216.1V217H130.301ZM135.066 217.18C137.28 217.18 138.81 216.28 138.81 214.264C138.81 212.734 137.532 211.96 136.02 211.654C133.428 211.132 133.248 210.556 133.248 209.728C133.248 208.864 133.896 208.378 135.21 208.378C136.02 208.378 136.722 208.612 137.244 209.116H138.324C138.324 209.116 138.414 208.72 138.414 207.802C137.766 207.55 136.398 207.262 135.246 207.262C133.266 207.262 131.844 208.162 131.844 209.836C131.844 211.33 132.906 212.194 134.652 212.572C137.172 213.112 137.28 213.544 137.28 214.516C137.28 215.362 136.614 215.992 135.174 215.992C134.184 215.992 133.446 215.776 132.942 215.146H131.844C131.808 215.776 131.79 215.884 131.772 216.55C132.222 216.694 133.158 217.18 135.066 217.18ZM150.366 217.18C151.806 217.18 152.652 216.568 153.12 215.902C153.156 216.262 153.246 216.64 153.39 217H155.406V215.992C154.65 215.902 154.524 215.902 154.524 215.074V209.278C154.524 208.63 154.596 208.468 155.082 208.414L155.514 208.36V207.46H152.058V208.36L152.49 208.414C152.976 208.468 153.048 208.63 153.048 209.278V214.624C152.526 215.326 151.842 215.92 150.474 215.92C149.304 215.92 148.62 215.236 148.62 213.922V210.646C148.62 208.522 147.252 207.28 144.804 207.28C142.878 207.28 141.384 208.072 140.916 209.44V210.142L142.392 210.844C141.636 211.114 141.186 211.834 141.186 212.734V215.434C141.186 216.532 141.978 217 142.86 217H143.994L144.174 216.316V215.884H143.166C142.842 215.884 142.662 215.722 142.662 215.308V212.734C142.662 211.888 142.914 211.348 143.652 211.15V210.466L142.302 209.728C142.626 208.936 143.652 208.54 144.804 208.54C146.334 208.54 147.144 209.314 147.144 210.646V213.994C147.144 215.956 148.584 217.18 150.366 217.18ZM164.051 217V216.1L163.619 216.046C163.133 215.992 163.061 215.83 163.061 215.182V210.286C163.061 208.342 162.125 207.298 159.677 207.298C158.219 207.298 157.049 207.928 156.401 208.45C156.419 208.918 156.455 209.404 156.491 209.872H157.661C157.823 209.26 158.327 208.522 159.659 208.522C160.775 208.522 161.585 209.062 161.585 210.286V215.182C161.585 215.83 161.513 215.992 161.027 216.046L160.595 216.1V217H164.051ZM169.446 207.298C167.682 207.298 166.278 208.036 165.666 208.756C165.666 209.062 165.702 209.476 165.774 209.962H166.962C167.394 208.99 168.15 208.558 169.446 208.558C171.264 208.558 172.074 209.332 172.074 211.06V213.382C172.074 215.128 171.264 215.902 169.428 215.902C168.438 215.902 167.61 215.56 167.25 215.038V213.328H168.474V212.158H165.774V215.884H166.044C166.836 216.604 167.826 217.198 169.428 217.198C171.858 217.198 173.55 215.956 173.55 213.418V211.096C173.55 208.468 172.002 207.298 169.446 207.298ZM172.095 204.724H166.245L165.885 205.48V205.948H173.535V203.5H172.095V204.724ZM178.443 217V216.082L178.011 216.028C177.525 215.974 177.453 215.812 177.453 215.164V212.68C177.453 211.87 177.615 211.384 178.299 211.204V210.52L176.877 209.782C177.201 208.99 178.335 208.54 179.613 208.54C181.143 208.54 182.133 209.314 182.133 210.646V215.164C182.133 215.812 182.061 215.974 181.575 216.028L181.143 216.082V217H184.599V216.082L184.167 216.028C183.681 215.974 183.609 215.812 183.609 215.164V210.646C183.609 208.522 182.061 207.28 179.613 207.28C177.561 207.28 175.959 208.126 175.491 209.494V210.196L177.129 210.898C176.247 211.186 175.977 211.798 175.977 212.68V215.164C175.977 215.812 175.905 215.974 175.419 216.028L174.987 216.082V217H178.443ZM195.053 216.046C194.567 215.992 194.495 215.83 194.495 215.164V210.826C194.495 208.702 193.037 207.28 190.499 207.28C187.961 207.28 186.503 208.702 186.503 210.826V215.2C186.503 215.866 186.449 215.992 185.981 216.046L185.531 216.1V217H187.979V215.92C187.979 213.778 189.041 212.824 189.887 212.824C190.139 212.824 190.319 212.896 190.391 213.04H191.471L191.561 211.87C191.327 211.69 190.823 211.6 190.355 211.6C189.527 211.6 188.591 211.996 187.979 213.04V210.826C187.979 209.314 188.879 208.54 190.499 208.54C192.119 208.54 193.019 209.314 193.019 210.826V215.164C193.019 215.83 192.947 215.992 192.461 216.046L192.029 216.1V217H195.485V216.1L195.053 216.046ZM200.263 217.18C202.477 217.18 204.007 216.28 204.007 214.264C204.007 212.734 202.729 211.96 201.217 211.654C198.625 211.132 198.445 210.556 198.445 209.728C198.445 208.864 199.093 208.378 200.407 208.378C201.217 208.378 201.919 208.612 202.441 209.116H203.521C203.521 209.116 203.611 208.72 203.611 207.802C202.963 207.55 201.595 207.262 200.443 207.262C198.463 207.262 197.041 208.162 197.041 209.836C197.041 211.33 198.103 212.194 199.849 212.572C202.369 213.112 202.477 213.544 202.477 214.516C202.477 215.362 201.811 215.992 200.371 215.992C199.381 215.992 198.643 215.776 198.139 215.146H197.041C197.005 215.776 196.987 215.884 196.969 216.55C197.419 216.694 198.355 217.18 200.263 217.18ZM205.745 205.948L206.105 205.246V204.724H201.461C201.155 204.724 201.011 204.562 201.011 204.256V203.644H200.111L199.535 203.824V204.346C199.535 205.228 200.039 205.948 201.011 205.948H205.745ZM203.981 202.142C203.981 201.512 203.603 201.08 202.811 201.08H201.425L201.065 201.854V202.16H202.415C202.577 202.16 202.685 202.232 202.685 202.484V203.42H206.645L207.005 202.646V202.34H203.981V202.142ZM210.559 217C212.071 217 213.133 216.064 213.133 214.462V207.46H210.217V208.504H211.099C211.585 208.504 211.657 208.684 211.657 209.332V214.318C211.657 215.344 211.045 215.848 210.181 215.848H209.425L207.157 209.26H205.573V210.124C205.897 210.268 206.095 210.61 206.185 210.88L208.273 217H210.559Z" fill="white"/>
<g id="Component 62">
<path id="Union_2" d="M296.444 227.893L295.687 227.239C295.665 227.265 295.644 227.292 295.625 227.319L296.444 227.893ZM292.787 232.125L292.1 231.398C292.075 231.421 292.052 231.445 292.03 231.471L292.787 232.125ZM292.688 232.238L291.981 232.945C292.178 233.142 292.447 233.248 292.725 233.238C293.002 233.227 293.263 233.102 293.445 232.892L292.688 232.238ZM292.678 232.227L293.385 231.52C293.003 231.139 292.388 231.129 291.994 231.497L292.678 232.227ZM253.802 193.352L254.532 194.035C254.901 193.641 254.89 193.026 254.509 192.645L253.802 193.352ZM253.791 193.341L253.139 192.583C252.928 192.764 252.802 193.026 252.792 193.304C252.781 193.581 252.887 193.851 253.084 194.048L253.791 193.341ZM253.902 193.245L254.555 194.003C254.581 193.981 254.605 193.957 254.629 193.932L253.902 193.245ZM258.224 189.524L258.795 190.345C258.823 190.326 258.85 190.305 258.876 190.282L258.224 189.524ZM455.842 19.3828L456.549 18.6756C456.179 18.3056 455.586 18.2834 455.189 18.6249L455.842 19.3828ZM455.847 19.388L455.14 20.0951C455.519 20.4738 456.128 20.4869 456.523 20.1249L455.847 19.388ZM466.998 30.5393L466.261 29.8633C465.899 30.258 465.913 30.8677 466.291 31.2464L466.998 30.5393ZM467.002 30.5433L467.759 31.1972C468.102 30.8007 468.08 30.2068 467.709 29.8362L467.002 30.5433ZM292.639 230.874C292.594 230.918 292.55 230.962 292.505 231.006L293.91 232.43C293.958 232.383 294.005 232.336 294.053 232.288L292.639 230.874ZM292.236 231.268C292.19 231.312 292.145 231.355 292.1 231.398L293.474 232.851C293.523 232.805 293.571 232.758 293.62 232.712L292.236 231.268ZM292.03 231.471L292.006 231.499L293.519 232.807L293.543 232.778L292.03 231.471ZM291.956 231.556L291.932 231.584L293.445 232.892L293.47 232.864L291.956 231.556ZM293.396 231.531L293.393 231.528L291.979 232.943L291.981 232.945L293.396 231.531ZM293.387 231.523L293.385 231.52L291.97 232.934L291.973 232.937L293.387 231.523ZM291.994 231.497C291.494 231.965 290.98 232.41 290.454 232.832L291.705 234.393C292.271 233.939 292.823 233.461 293.361 232.957L291.994 231.497ZM287.093 235.126C285.906 235.808 284.677 236.391 283.419 236.875L284.136 238.742C285.49 238.222 286.812 237.594 288.089 236.86L287.093 235.126ZM279.519 238.037C278.188 238.324 276.839 238.509 275.486 238.589L275.605 240.586C277.06 240.499 278.51 240.301 279.941 239.992L279.519 238.037ZM271.415 238.521C270.066 238.395 268.724 238.166 267.403 237.833L266.915 239.773C268.335 240.13 269.778 240.377 271.229 240.512L271.415 238.521ZM263.545 236.539C262.305 236.014 261.097 235.39 259.933 234.667L258.878 236.366C260.13 237.144 261.43 237.815 262.764 238.381L263.545 236.539ZM256.651 232.26C256.14 231.821 255.641 231.359 255.156 230.874L253.741 232.288C254.262 232.809 254.798 233.305 255.348 233.777L256.651 232.26ZM255.156 230.874C254.671 230.389 254.208 229.89 253.769 229.378L252.252 230.681C252.724 231.231 253.221 231.767 253.741 232.288L255.156 230.874ZM251.362 226.097C250.64 224.932 250.015 223.724 249.49 222.485L247.649 223.265C248.214 224.599 248.885 225.899 249.663 227.152L251.362 226.097ZM248.196 218.626C247.864 217.305 247.634 215.964 247.508 214.614L245.517 214.8C245.653 216.251 245.899 217.694 246.257 219.114L248.196 218.626ZM247.44 210.544C247.521 209.19 247.705 207.841 247.992 206.51L246.037 206.088C245.728 207.519 245.53 208.969 245.443 210.425L247.44 210.544ZM249.155 202.61C249.638 201.352 250.221 200.123 250.903 198.936L249.169 197.94C248.435 199.217 247.808 200.539 247.288 201.893L249.155 202.61ZM253.197 195.576C253.619 195.049 254.064 194.535 254.532 194.035L253.072 192.668C252.569 193.206 252.09 193.759 251.637 194.324L253.197 195.576ZM254.509 192.645L254.506 192.642L253.092 194.056L253.095 194.059L254.509 192.645ZM254.501 192.636L254.498 192.634L253.084 194.048L253.087 194.051L254.501 192.636ZM254.444 194.099L254.471 194.075L253.166 192.559L253.139 192.583L254.444 194.099ZM254.527 194.027L254.555 194.003L253.25 192.487L253.222 192.511L254.527 194.027ZM254.629 193.932C254.672 193.886 254.716 193.841 254.759 193.795L253.316 192.411C253.269 192.46 253.222 192.509 253.176 192.558L254.629 193.932ZM255.022 193.525C255.067 193.48 255.111 193.435 255.156 193.39L253.741 191.976C253.694 192.024 253.646 192.072 253.598 192.12L255.022 193.525ZM255.156 193.39C255.437 193.109 255.723 192.835 256.014 192.569L254.663 191.094C254.351 191.38 254.044 191.674 253.741 191.976L255.156 193.39ZM257.835 191.045C258.151 190.804 258.471 190.57 258.795 190.345L257.653 188.703C257.305 188.945 256.961 189.196 256.621 189.455L257.835 191.045ZM258.876 190.282L260.373 188.993L259.069 187.477L257.571 188.766L258.876 190.282ZM263.368 186.415L266.362 183.837L265.057 182.322L262.063 184.9L263.368 186.415ZM269.356 181.259L272.35 178.682L271.045 177.166L268.051 179.744L269.356 181.259ZM275.345 176.104L278.339 173.526L277.034 172.01L274.04 174.588L275.345 176.104ZM281.333 170.948L284.327 168.37L283.022 166.854L280.028 169.432L281.333 170.948ZM287.321 165.792L290.316 163.214L289.011 161.698L286.016 164.276L287.321 165.792ZM293.31 160.636L296.304 158.058L294.999 156.543L292.005 159.121L293.31 160.636ZM299.298 155.48L302.292 152.903L300.987 151.387L297.993 153.965L299.298 155.48ZM305.287 150.325L308.281 147.747L306.976 146.231L303.982 148.809L305.287 150.325ZM311.275 145.169L314.269 142.591L312.964 141.075L309.97 143.653L311.275 145.169ZM317.263 140.013L320.258 137.435L318.953 135.919L315.959 138.497L317.263 140.013ZM323.252 134.857L326.246 132.279L324.941 130.764L321.947 133.342L323.252 134.857ZM329.24 129.701L332.234 127.124L330.93 125.608L327.935 128.186L329.24 129.701ZM335.229 124.546L338.223 121.968L336.918 120.452L333.924 123.03L335.229 124.546ZM341.217 119.39L344.211 116.812L342.906 115.296L339.912 117.874L341.217 119.39ZM347.206 114.234L350.2 111.656L348.895 110.14L345.901 112.718L347.206 114.234ZM353.194 109.078L356.188 106.5L354.883 104.985L351.889 107.563L353.194 109.078ZM359.182 103.922L362.177 101.344L360.872 99.8288L357.877 102.407L359.182 103.922ZM365.171 98.7666L368.165 96.1887L366.86 94.673L363.866 97.2509L365.171 98.7666ZM371.159 93.6108L374.153 91.0329L372.849 89.5172L369.854 92.0951L371.159 93.6108ZM377.148 88.455L380.142 85.8771L378.837 84.3614L375.843 86.9393L377.148 88.455ZM383.136 83.2992L386.13 80.7212L384.825 79.2056L381.831 81.7835L383.136 83.2992ZM389.125 78.1433L392.119 75.5654L390.814 74.0498L387.82 76.6277L389.125 78.1433ZM395.113 72.9875L398.107 70.4096L396.802 68.894L393.808 71.4719L395.113 72.9875ZM401.101 67.8317L404.096 65.2538L402.791 63.7382L399.796 66.3161L401.101 67.8317ZM407.09 62.6759L410.084 60.098L408.779 58.5823L405.785 61.1603L407.09 62.6759ZM413.078 57.5201L416.072 54.9422L414.768 53.4265L411.773 56.0044L413.078 57.5201ZM419.067 52.3643L422.061 49.7864L420.756 48.2707L417.762 50.8486L419.067 52.3643ZM425.055 47.2085L428.049 44.6306L426.744 43.1149L423.75 45.6928L425.055 47.2085ZM431.044 42.0527L434.038 39.4747L432.733 37.9591L429.739 40.537L431.044 42.0527ZM437.032 36.8968L440.026 34.3189L438.721 32.8033L435.727 35.3812L437.032 36.8968ZM443.02 31.741L446.015 29.1631L444.71 27.6475L441.715 30.2254L443.02 31.741ZM449.009 26.5852L452.003 24.0073L450.698 22.4917L447.704 25.0696L449.009 26.5852ZM454.997 21.4294L456.494 20.1406L455.189 18.6249L453.692 19.9138L454.997 21.4294ZM455.135 20.0899L455.136 20.0912L456.55 18.677L456.549 18.6756L455.135 20.0899ZM455.139 20.0938L455.14 20.0951L456.554 18.6809L456.553 18.6796L455.139 20.0938ZM456.523 20.1249C456.852 19.8226 457.204 19.5586 457.571 19.3325L456.523 17.629C456.048 17.9213 455.595 18.2621 455.171 18.6511L456.523 20.1249ZM460.018 18.4132C460.885 18.2661 461.774 18.2852 462.635 18.4703L463.055 16.515C461.946 16.2764 460.8 16.2519 459.683 16.4414L460.018 18.4132ZM465.038 19.4963C465.395 19.738 465.735 20.0172 466.052 20.3344L467.466 18.9201C467.059 18.513 466.621 18.153 466.16 17.8406L465.038 19.4963ZM466.052 20.3344C466.369 20.6515 466.648 20.9911 466.89 21.3478L468.546 20.2258C468.233 19.7648 467.873 19.3273 467.466 18.9201L466.052 20.3344ZM467.916 23.7514C468.101 24.612 468.12 25.5016 467.973 26.3683L469.945 26.7029C470.134 25.5862 470.11 24.4403 469.871 23.3308L467.916 23.7514ZM467.054 28.8151C466.828 29.1825 466.564 29.5338 466.261 29.8633L467.735 31.2153C468.124 30.7913 468.465 30.3382 468.757 29.863L467.054 28.8151ZM466.291 31.2464L466.292 31.2474L467.706 29.8332L467.705 29.8322L466.291 31.2464ZM466.294 31.2494L466.295 31.2504L467.709 29.8362L467.708 29.8352L466.294 31.2494ZM466.246 29.8894L464.954 31.3845L466.467 32.6923L467.759 31.1972L466.246 29.8894ZM462.369 34.3747L459.785 37.3648L461.298 38.6726L463.883 35.6824L462.369 34.3747ZM457.201 40.355L454.617 43.3451L456.13 44.6529L458.714 41.6627L457.201 40.355ZM452.032 46.3353L449.448 49.3254L450.961 50.6332L453.546 47.643L452.032 46.3353ZM446.864 52.3156L444.28 55.3057L445.793 56.6135L448.377 53.6233L446.864 52.3156ZM441.696 58.2959L439.111 61.286L440.625 62.5938L443.209 59.6036L441.696 58.2959ZM436.527 64.2762L433.943 67.2663L435.456 68.5741L438.04 65.5839L436.527 64.2762ZM431.359 70.2565L428.774 73.2466L430.288 74.5544L432.872 71.5642L431.359 70.2565ZM426.19 76.2368L423.606 79.2269L425.119 80.5347L427.703 77.5446L426.19 76.2368ZM421.022 82.2171L418.438 85.2072L419.951 86.515L422.535 83.5249L421.022 82.2171ZM415.853 88.1974L413.269 91.1875L414.782 92.4953L417.367 89.5052L415.853 88.1974ZM410.685 94.1777L408.101 97.1679L409.614 98.4756L412.198 95.4855L410.685 94.1777ZM405.516 100.158L402.932 103.148L404.445 104.456L407.03 101.466L405.516 100.158ZM400.348 106.138L397.764 109.128L399.277 110.436L401.861 107.446L400.348 106.138ZM395.18 112.119L392.595 115.109L394.109 116.417L396.693 113.426L395.18 112.119ZM390.011 118.099L387.427 121.089L388.94 122.397L391.524 119.407L390.011 118.099ZM384.843 124.079L382.258 127.069L383.772 128.377L386.356 125.387L384.843 124.079ZM379.674 130.06L377.09 133.05L378.603 134.357L381.187 131.367L379.674 130.06ZM374.506 136.04L371.922 139.03L373.435 140.338L376.019 137.348L374.506 136.04ZM369.337 142.02L366.753 145.01L368.266 146.318L370.85 143.328L369.337 142.02ZM364.169 148L361.585 150.991L363.098 152.298L365.682 149.308L364.169 148ZM359 153.981L356.416 156.971L357.929 158.279L360.514 155.289L359 153.981ZM353.832 159.961L351.248 162.951L352.761 164.259L355.345 161.269L353.832 159.961ZM348.664 165.941L346.079 168.932L347.592 170.239L350.177 167.249L348.664 165.941ZM343.495 171.922L340.911 174.912L342.424 176.22L345.008 173.229L343.495 171.922ZM338.327 177.902L335.742 180.892L337.256 182.2L339.84 179.21L338.327 177.902ZM333.158 183.882L330.574 186.872L332.087 188.18L334.671 185.19L333.158 183.882ZM327.99 189.863L325.405 192.853L326.919 194.161L329.503 191.17L327.99 189.863ZM322.821 195.843L320.237 198.833L321.75 200.141L324.334 197.151L322.821 195.843ZM317.653 201.823L315.069 204.813L316.582 206.121L319.166 203.131L317.653 201.823ZM312.484 207.804L309.9 210.794L311.413 212.101L313.998 209.111L312.484 207.804ZM307.316 213.784L304.732 216.774L306.245 218.082L308.829 215.092L307.316 213.784ZM302.147 219.764L299.563 222.754L301.076 224.062L303.661 221.072L302.147 219.764ZM296.979 225.744L295.687 227.239L297.2 228.547L298.492 227.052L296.979 225.744ZM295.625 227.319C295.403 227.635 295.174 227.948 294.937 228.256L296.523 229.474C296.778 229.143 297.024 228.807 297.262 228.467L295.625 227.319ZM293.443 230.034C293.182 230.318 292.914 230.598 292.639 230.874L294.053 232.288C294.349 231.992 294.637 231.692 294.917 231.386L293.443 230.034Z" fill="white"/>
</g>
</g>
</svg>
