<svg width="713" height="198" viewBox="0 0 713 198" fill="none" xmlns="http://www.w3.org/2000/svg">
<path d="M448.022 136.726L448.551 137.575C449.009 137.29 449.158 136.693 448.888 136.226L448.022 136.726ZM475.511 184.339L476.377 183.839C476.108 183.371 475.516 183.202 475.04 183.456L475.511 184.339ZM475.519 184.352L474.653 184.852C474.786 185.082 475.004 185.249 475.26 185.318C475.517 185.387 475.79 185.351 476.019 185.218L475.519 184.352ZM689.897 60.5811L690.397 61.4471C690.875 61.171 691.039 60.5594 690.763 60.0811L689.897 60.5811ZM689.873 60.5403L689.324 59.7048C688.881 59.9958 688.742 60.5816 689.007 61.0403L689.873 60.5403ZM662.416 12.9823L661.55 13.4823C661.814 13.9411 662.391 14.1137 662.864 13.8759L662.416 12.9823ZM662.392 12.9416L663.258 12.4416C662.982 11.9633 662.37 11.7995 661.892 12.0756L662.392 12.9416ZM448.015 136.713L447.515 135.847C447.036 136.123 446.872 136.734 447.149 137.213L448.015 136.713ZM447.494 135.877C434.5 143.966 430.176 160.965 437.886 174.32L439.618 173.32C432.449 160.903 436.47 145.095 448.551 137.575L447.494 135.877ZM437.886 174.32C445.596 187.674 462.481 192.429 475.982 185.221L475.04 183.456C462.487 190.159 446.787 185.737 439.618 173.32L437.886 174.32ZM474.645 184.839L474.653 184.852L476.385 183.852L476.377 183.839L474.645 184.839ZM476.019 185.218L690.397 61.4471L689.397 59.7151L475.019 183.486L476.019 185.218ZM690.763 60.0811L690.739 60.0403L689.007 61.0403L689.031 61.0811L690.763 60.0811ZM697.694 24.3197C704.751 36.5421 700.966 52.0495 689.324 59.7048L690.423 61.3759C702.945 53.142 707.015 36.4651 699.426 23.3197L697.694 24.3197ZM662.864 13.8759C675.315 7.62122 690.637 12.0973 697.694 24.3197L699.426 23.3197C691.837 10.1744 675.359 5.36125 661.967 12.0887L662.864 13.8759ZM663.282 12.4823L663.258 12.4416L661.526 13.4416L661.55 13.4823L663.282 12.4823ZM661.892 12.0756L660.488 12.8863L661.488 14.6183L662.892 13.8077L661.892 12.0756ZM660.488 12.8863L448.32 135.382L449.32 137.114L661.488 14.6183L660.488 12.8863ZM448.32 135.382L447.515 135.847L448.515 137.579L449.32 137.114L448.32 135.382ZM447.149 137.213L447.156 137.226L448.888 136.226L448.881 136.213L447.149 137.213Z" fill="white"/>
<path d="M263.512 13.3008L263.041 14.183C263.517 14.437 264.108 14.2679 264.378 13.8008L263.512 13.3008ZM236.023 60.9135L236.889 61.4135C237.158 60.9464 237.009 60.3496 236.551 60.0646L236.023 60.9135ZM236.015 60.9269L235.149 60.4269C235.016 60.6566 234.98 60.9296 235.049 61.1857C235.118 61.4419 235.285 61.6603 235.515 61.7929L236.015 60.9269ZM450.392 184.698L449.892 185.564C450.371 185.84 450.982 185.676 451.258 185.198L450.392 184.698ZM450.416 184.657L450.865 183.764C450.391 183.526 449.815 183.698 449.55 184.157L450.416 184.657ZM477.873 137.099L477.007 136.599C476.743 137.058 476.881 137.644 477.324 137.935L477.873 137.099ZM477.897 137.058L478.763 137.558C479.039 137.08 478.875 136.469 478.397 136.192L477.897 137.058ZM476.493 136.248L475.993 137.114L476.493 136.248ZM264.325 13.7523L264.825 12.8863L264.325 13.7523ZM263.519 13.2875L264.019 12.4214C263.541 12.1453 262.93 12.3092 262.653 12.7875L263.519 13.2875ZM263.983 12.4187C250.481 5.21006 233.597 9.96522 225.887 23.3197L227.619 24.3197C234.788 11.9026 250.487 7.48071 263.041 14.183L263.983 12.4187ZM225.887 23.3197C218.176 36.6742 222.5 53.6738 235.494 61.7625L236.551 60.0646C224.47 52.5441 220.45 36.7368 227.619 24.3197L225.887 23.3197ZM235.157 60.4135L235.149 60.4269L236.881 61.4269L236.889 61.4135L235.157 60.4135ZM235.515 61.7929L449.892 185.564L450.892 183.832L236.515 60.0609L235.515 61.7929ZM451.258 185.198L451.282 185.157L449.55 184.157L449.526 184.198L451.258 185.198ZM485.694 173.32C478.638 185.542 463.315 190.018 450.865 183.764L449.967 185.551C463.359 192.278 479.837 187.465 487.426 174.32L485.694 173.32ZM477.324 137.935C488.966 145.59 492.751 161.097 485.694 173.32L487.426 174.32C495.016 161.174 490.945 144.497 478.423 136.264L477.324 137.935ZM478.739 137.599L478.763 137.558L477.031 136.558L477.007 136.599L478.739 137.599ZM478.397 136.192L476.993 135.382L475.993 137.114L477.397 137.924L478.397 136.192ZM476.993 135.382L264.825 12.8863L263.825 14.6183L475.993 137.114L476.993 135.382ZM264.825 12.8863L264.019 12.4214L263.019 14.1535L263.825 14.6183L264.825 12.8863ZM262.653 12.7875L262.646 12.8008L264.378 13.8008L264.385 13.7875L262.653 12.7875Z" fill="white"/>
<path d="M232.042 16.5126L232.603 17.3401C232.631 17.3211 232.658 17.3007 232.684 17.2789L232.042 16.5126ZM236.669 13.372L237.145 14.2516C237.174 14.2357 237.203 14.2182 237.231 14.1994L236.669 13.372ZM236.793 13.2876L237.659 12.7876C237.52 12.547 237.288 12.3751 237.017 12.313C236.746 12.2508 236.462 12.3042 236.232 12.4602L236.793 13.2876ZM236.801 13.3011L235.935 13.8011C236.205 14.2682 236.796 14.4372 237.272 14.1832L236.801 13.3011ZM264.29 60.9138L263.762 60.0648C263.304 60.3498 263.155 60.9466 263.424 61.4138L264.29 60.9138ZM264.298 60.9271L264.732 61.828C264.983 61.7072 265.172 61.4876 265.254 61.2217C265.336 60.9559 265.303 60.668 265.164 60.4271L264.298 60.9271ZM264.166 60.9908L263.732 60.09C263.701 60.1048 263.671 60.1212 263.642 60.1391L264.166 60.9908ZM259.028 63.4663L258.69 62.5254C258.657 62.5371 258.625 62.5504 258.594 62.5654L259.028 63.4663ZM24.1084 176.663L23.2423 177.163C23.504 177.616 24.0709 177.791 24.5424 177.564L24.1084 176.663ZM24.1047 176.657L24.9707 176.157C24.7029 175.693 24.1173 175.522 23.6424 175.77L24.1047 176.657ZM16.2195 162.999L16.7563 163.843C17.2081 163.555 17.3533 162.963 17.0855 162.499L16.2195 162.999ZM16.2166 162.994L15.6551 162.167C15.2214 162.461 15.0886 163.04 15.3506 163.494L16.2166 162.994ZM235.488 12.8865C234.02 13.734 232.656 14.6928 231.399 15.7463L232.684 17.2789C233.852 16.2997 235.121 15.4077 236.488 14.6186L235.488 12.8865ZM236.193 12.4924C235.957 12.6201 235.722 12.7515 235.488 12.8865L236.488 14.6186C236.706 14.4928 236.925 14.3705 237.145 14.2516L236.193 12.4924ZM236.232 12.4602L236.107 12.5446L237.231 14.1994L237.355 14.1151L236.232 12.4602ZM237.667 12.8011L237.659 12.7876L235.927 13.7876L235.935 13.8011L237.667 12.8011ZM274.426 23.3199C266.716 9.96548 249.832 5.21032 236.33 12.4189L237.272 14.1832C249.825 7.48097 265.525 11.9028 272.694 24.3199L274.426 23.3199ZM264.819 61.7627C277.812 53.6741 282.136 36.6744 274.426 23.3199L272.694 24.3199C279.863 36.7371 275.843 52.5443 263.762 60.0648L264.819 61.7627ZM265.164 60.4271L265.156 60.4138L263.424 61.4138L263.432 61.4271L265.164 60.4271ZM264.6 61.8917L264.732 61.828L263.864 60.0262L263.732 60.09L264.6 61.8917ZM263.993 62.258C264.228 62.1223 264.46 61.9838 264.69 61.8425L263.642 60.1391C263.428 60.2707 263.212 60.3996 262.993 60.5259L263.993 62.258ZM259.367 64.4072C260.944 63.8395 262.492 63.1246 263.993 62.258L262.993 60.5259C261.595 61.3329 260.155 61.9978 258.69 62.5254L259.367 64.4072ZM24.5424 177.564L259.462 64.3671L258.594 62.5654L23.6743 175.762L24.5424 177.564ZM23.2386 177.157L23.2423 177.163L24.9744 176.163L24.9707 176.157L23.2386 177.157ZM12.7603 174.101C15.1508 178.242 20.3675 179.733 24.5669 177.544L23.6424 175.77C20.3887 177.466 16.345 176.31 14.4924 173.101L12.7603 174.101ZM15.6826 162.156C11.6872 164.698 10.3698 169.961 12.7603 174.101L14.4924 173.101C12.6397 169.893 13.6606 165.813 16.7563 163.843L15.6826 162.156ZM15.3506 163.494L15.3534 163.499L17.0855 162.499L17.0827 162.494L15.3506 163.494ZM231.48 15.6852L15.6551 162.167L16.7782 163.822L232.603 17.3401L231.48 15.6852Z" fill="white"/>
<path d="M297.952 54.9562L293.354 52.3012L293.147 52.6598L292.925 53.4045L295.855 55.0965C294.684 55.002 293.816 55.3531 292.862 57.0055L288.085 65.2428C287.599 66.0845 287.91 66.95 288.736 67.427C289.033 67.598 289.262 67.6682 289.476 67.7294L289.99 67.2361L290.152 66.9555L289.591 66.6315C289.31 66.4695 289.235 66.2392 289.442 65.8806L294.099 57.8862C295.33 55.7907 296.192 55.6651 297.34 56.0163L297.952 54.9562ZM295.356 71.3318C296.93 72.2408 298.911 72.1581 299.937 70.381L302.331 66.2345C302.655 65.6733 302.798 65.569 303.246 65.7652L303.647 65.9345L304.097 65.1551L301.104 63.4271L300.654 64.2065L301.001 64.4692C301.395 64.759 301.377 64.9353 301.053 65.4965L298.695 69.5807C297.993 70.7966 296.937 70.7896 295.892 70.1866C294.302 69.2686 294.155 67.6873 294.155 67.6873L297.737 61.4831L295.617 60.2591L295.158 61.0541L295.521 61.3258C295.899 61.6066 295.883 61.7427 295.559 62.3039L292.652 67.339C292.301 67.9469 292.151 68.0266 291.806 67.8688L291.429 67.693L290.925 68.5659L292.718 69.6009C292.949 69.3809 293.227 69.0428 293.438 68.749C293.438 68.749 293.579 70.3058 295.356 71.3318ZM303.952 63.3878L305.212 61.2054L303.965 60.4854L302.705 62.6678L303.952 63.3878ZM303.289 75.9123C305.207 77.0193 306.982 77.0048 307.99 75.2589C308.755 73.9339 308.035 72.6246 306.878 71.6036C304.895 69.8555 305.027 69.2667 305.441 68.5496C305.873 67.8014 306.677 67.7045 307.815 68.3615C308.516 68.7665 309.007 69.3202 309.208 70.0176L310.143 70.5576C310.143 70.5576 310.419 70.2597 310.878 69.4647C310.443 68.9224 309.402 67.989 308.404 67.413C306.689 66.423 305.008 66.4914 304.171 67.9412C303.424 69.235 303.912 70.5143 305.235 71.7146C307.147 73.4423 307.025 73.8704 306.539 74.7122C306.116 75.4448 305.224 75.6574 303.977 74.9374C303.119 74.4424 302.588 73.8864 302.467 73.0888L301.516 72.5398C301.17 73.0674 301.1 73.1519 300.752 73.7197C301.069 74.0694 301.637 74.9583 303.289 75.9123ZM313.652 68.9258L314.315 68.4979L314.576 68.0458L310.554 65.7238C310.289 65.5708 310.246 65.3585 310.399 65.0935L310.705 64.5635L309.925 64.1135L309.336 63.9814L309.075 64.4335C308.634 65.1973 308.711 66.0728 309.553 66.5588L313.652 68.9258ZM311.988 80.9343C314.264 82.2483 316.237 81.7458 317.299 79.9063L319.486 76.1183C319.81 75.5572 319.954 75.4529 320.401 75.6491L320.803 75.8183L321.244 75.0545L318.251 73.3265L317.81 74.0903L318.157 74.3531C318.551 74.6429 318.532 74.8192 318.208 75.3803L316.021 79.1683C315.355 80.3219 314.099 80.6981 312.618 79.8431C311.137 78.9881 310.834 77.7119 311.5 76.5583L314.587 71.2115L312.467 69.9875L312.008 70.7825L312.371 71.0543C312.749 71.335 312.733 71.4712 312.409 72.0323L310.222 75.8203C309.16 77.6598 309.712 79.6203 311.988 80.9343Z" fill="#FF8058"/>
<path d="M199.253 73.2633C201.171 72.1563 202.046 70.6119 201.038 68.866C200.273 67.541 198.779 67.5097 197.316 68.0007C194.811 68.8446 194.367 68.4358 193.953 67.7187C193.521 66.9704 193.839 66.2256 194.977 65.5686C195.678 65.1636 196.403 65.0152 197.107 65.1907L198.043 64.6507C198.043 64.6507 197.923 64.2627 197.464 63.4677C196.777 63.5735 195.448 64.0081 194.45 64.5841C192.735 65.5741 191.954 67.0645 192.791 68.5142C193.538 69.8081 194.89 70.0253 196.591 69.4797C199.043 68.6873 199.353 69.0074 199.839 69.8492C200.262 70.5819 200 71.4605 198.753 72.1805C197.895 72.6755 197.148 72.8574 196.397 72.5638L195.446 73.1128C195.73 73.6764 195.768 73.7789 196.086 74.3647C196.547 74.2644 197.601 74.2173 199.253 73.2633ZM198.384 60.7953L198.345 60.0074L198.084 59.5553L194.062 61.8773C193.797 62.0303 193.592 61.962 193.439 61.697L193.133 61.167L192.353 61.617L191.944 62.0609L192.205 62.513C192.646 63.2768 193.443 63.6483 194.285 63.1623L198.384 60.7953ZM207.952 68.2413C210.228 66.9273 210.779 64.9668 209.717 63.1274L207.53 59.3394C207.206 58.7782 207.188 58.6019 207.581 58.3121L207.929 58.0494L207.488 57.2855L204.495 59.0135L204.936 59.7774L205.337 59.6081C205.785 59.4119 205.928 59.5162 206.252 60.0774L208.439 63.8654C209.105 65.0189 208.803 66.2951 207.322 67.1501C205.841 68.0051 204.584 67.6289 203.918 66.4754L200.831 61.1285L198.711 62.3525L199.17 63.1476L199.587 62.9693C200.019 62.7821 200.129 62.8642 200.453 63.4254L202.64 67.2134C203.702 69.0528 205.676 69.5553 207.952 68.2413Z" fill="white"/>
<rect x="235" y="23" width="30" height="30" rx="15" fill="white"/>
<path d="M240.899 44.5H249.647V42.322H246.983V31.936H242.843L239.837 35.896L241.565 37.246L244.121 33.898H244.283V42.322H240.899V44.5ZM251.692 44.5H260.44V42.322H257.776V31.936H253.636L250.63 35.896L252.358 37.246L254.914 33.898H255.076V42.322H251.692V44.5Z" fill="black"/>
</svg>
