<svg width="288" height="435" viewBox="0 0 288 435" fill="none" xmlns="http://www.w3.org/2000/svg">
<g id="20">
<g id="Component 31">
<path id="Union" d="M28.1833 300.429L28.6191 299.529C28.5886 299.515 28.5575 299.502 28.5257 299.49L28.1833 300.429ZM23.1497 297.992L23.6736 297.141C23.6451 297.123 23.6157 297.107 23.5855 297.092L23.1497 297.992ZM23.0145 297.927L22.1485 297.427C22.0096 297.668 21.977 297.955 22.0586 298.221C22.1403 298.486 22.3287 298.706 22.5787 298.827L23.0145 297.927ZM23.0223 297.913L23.8883 298.413C24.158 297.946 24.0086 297.35 23.5507 297.065L23.0223 297.913ZM50.5115 250.301L50.0405 251.183C50.5163 251.437 51.1078 251.268 51.3775 250.801L50.5115 250.301ZM50.5192 250.287L51.0823 249.461C50.8524 249.304 50.5677 249.251 50.2965 249.313C50.0254 249.374 49.7922 249.547 49.6532 249.787L50.5192 250.287ZM50.6405 250.37L50.0774 251.196C50.1056 251.216 50.1348 251.234 50.1649 251.25L50.6405 250.37ZM55.353 253.581L54.7075 254.345C54.7338 254.368 54.7613 254.388 54.7898 254.408L55.353 253.581ZM270.844 400.43L271.71 400.93C271.972 400.476 271.84 399.898 271.407 399.603L270.844 400.43ZM270.841 400.436L269.975 399.936C269.707 400.4 269.852 400.992 270.304 401.28L270.841 400.436ZM262.955 414.094L263.418 413.207C262.943 412.959 262.357 413.13 262.089 413.594L262.955 414.094ZM262.953 414.099L262.517 414.999C262.989 415.227 263.557 415.053 263.819 414.599L262.953 414.099ZM23.3197 299.258C24.7876 300.105 26.3002 300.808 27.8409 301.369L28.5257 299.49C27.0937 298.968 25.6865 298.315 24.3197 297.526L23.3197 299.258ZM22.6258 298.844C22.8545 298.985 23.0858 299.123 23.3197 299.258L24.3197 297.526C24.1019 297.4 23.8865 297.272 23.6736 297.141L22.6258 298.844ZM22.5787 298.827L22.7139 298.892L23.5855 297.092L23.4503 297.027L22.5787 298.827ZM22.1562 297.413L22.1485 297.427L23.8805 298.427L23.8883 298.413L22.1562 297.413ZM12.8863 260.32C5.1761 273.674 9.50006 290.674 22.4938 298.762L23.5507 297.065C11.4697 289.544 7.44931 273.737 14.6184 261.32L12.8863 260.32ZM50.9824 249.419C37.4806 242.21 20.5965 246.965 12.8863 260.32L14.6184 261.32C21.7874 248.903 37.4871 244.481 50.0405 251.183L50.9824 249.419ZM49.6532 249.787L49.6454 249.801L51.3775 250.801L51.3852 250.787L49.6532 249.787ZM51.2036 249.544L51.0823 249.461L49.956 251.114L50.0774 251.196L51.2036 249.544ZM51.8243 249.886C51.5894 249.751 51.3533 249.619 51.1161 249.49L50.1649 251.25C50.3857 251.369 50.6055 251.492 50.8243 251.618L51.8243 249.886ZM55.9984 252.818C54.7185 251.736 53.3254 250.753 51.8243 249.886L50.8243 251.618C52.2221 252.425 53.5178 253.34 54.7075 254.345L55.9984 252.818ZM271.407 399.603L55.9161 252.755L54.7898 254.408L270.281 401.256L271.407 399.603ZM271.707 400.936L271.71 400.93L269.978 399.93L269.975 399.936L271.707 400.936ZM274.3 411.538C276.69 407.398 275.373 402.135 271.377 399.592L270.304 401.28C273.399 403.25 274.42 407.329 272.568 410.538L274.3 411.538ZM262.493 414.98C266.693 417.169 271.909 415.679 274.3 411.538L272.568 410.538C270.715 413.747 266.671 414.903 263.418 413.207L262.493 414.98ZM263.819 414.599L263.821 414.594L262.089 413.594L262.087 413.599L263.819 414.599ZM27.7475 301.33L262.517 414.999L263.388 413.199L28.6191 299.529L27.7475 301.33Z" fill="white"/>
</g>
<g id="Component 30">
<path id="Union_2" d="M9.01518 274.425L10.0146 274.392C9.99672 273.853 9.55454 273.425 9.01518 273.425L9.01518 274.425ZM63.9936 274.425L63.9936 273.425C63.4542 273.425 63.012 273.853 62.9941 274.392L63.9936 274.425ZM64.0091 274.425L64.0091 275.425C64.5613 275.425 65.0091 274.977 65.0091 274.425L64.0091 274.425ZM64.0091 26.8832L65.0091 26.8832C65.0091 26.331 64.5614 25.8832 64.0091 25.8832L64.0091 26.8832ZM63.962 26.8832L62.9637 26.9413C62.9945 27.4701 63.4323 27.8832 63.962 27.8832L63.962 26.8832ZM9.04679 26.8832L9.04679 27.8832C9.57653 27.8832 10.0144 27.4701 10.0451 26.9413L9.04679 26.8832ZM8.99979 26.8832L8.99979 25.8832C8.44751 25.8832 7.99979 26.331 7.99979 26.8832L8.99979 26.8832ZM8.99976 274.425L7.99976 274.425C7.99976 274.977 8.44747 275.425 8.99976 275.425L8.99976 274.425ZM8.01573 274.458C8.5238 289.755 21.084 302 36.5044 302L36.5044 300C22.1663 300 10.487 288.615 10.0146 274.392L8.01573 274.458ZM36.5044 302C51.9248 302 64.485 289.756 64.993 274.458L62.9941 274.392C62.5217 288.615 50.8425 300 36.5044 300L36.5044 302ZM63.9936 275.425L64.0091 275.425L64.0091 273.425L63.9936 273.425L63.9936 275.425ZM65.0091 274.425L65.0091 26.8832L63.0091 26.8832L63.0091 274.425L65.0091 274.425ZM64.0091 25.8832L63.962 25.8832L63.962 27.8832L64.0091 27.8832L64.0091 25.8832ZM36.5044 2C50.6177 2.00001 62.1551 13.0313 62.9637 26.9413L64.9603 26.8252C64.0906 11.8638 51.6833 5.59727e-06 36.5044 3.60679e-06L36.5044 2ZM10.0451 26.9413C10.8537 13.0313 22.3912 2 36.5044 2L36.5044 3.60679e-06C21.3255 1.61632e-06 8.91821 11.8638 8.04847 26.8252L10.0451 26.9413ZM9.04679 25.8832L8.99979 25.8832L8.99979 27.8832L9.04679 27.8832L9.04679 25.8832ZM7.99979 26.8832L7.99979 28.5046L9.99979 28.5046L9.99979 26.8832L7.99979 26.8832ZM7.99979 28.5046L7.99976 273.495L9.99976 273.495L9.99979 28.5046L7.99979 28.5046ZM7.99976 273.495L7.99976 274.425L9.99976 274.425L9.99976 273.495L7.99976 273.495ZM8.99976 275.425L9.01518 275.425L9.01518 273.425L8.99976 273.425L8.99976 275.425Z" fill="white"/>
</g>
<g id="Component 64">
<g id="Frame 756">
<rect x="21.9998" y="258" width="30" height="30" rx="15" fill="white"/>
<path id="1" d="M27.2328 279.5H36.1248V277.232H30.1848L32.5248 275.396C34.3248 273.974 35.8728 272.66 35.8728 270.5C35.8728 268.322 34.3068 266.72 31.5888 266.72C28.9788 266.72 27.5208 268.178 26.9628 269.924L29.3208 270.824C29.5728 269.87 30.1488 269.06 31.3368 269.06C32.1468 269.06 32.9928 269.546 32.9928 270.5V270.752C32.9928 271.814 32.5068 272.516 31.1028 273.722L27.2328 277.034V279.5ZM42.3998 279.716C45.6938 279.716 47.2418 277.322 47.2418 273.218C47.2418 269.114 45.6938 266.72 42.3998 266.72C39.1058 266.72 37.5578 269.114 37.5578 273.218C37.5578 277.322 39.1058 279.716 42.3998 279.716ZM42.3998 277.43C40.9598 277.43 40.4918 276.314 40.4918 274.406V272.03C40.4918 270.122 40.9598 269.006 42.3998 269.006C43.8398 269.006 44.3078 270.122 44.3078 272.03V274.406C44.3078 276.314 43.8398 277.43 42.3998 277.43Z" fill="black"/>
</g>
</g>
</g>
</svg>
