<svg width="522" height="198" viewBox="0 0 522 198" fill="none" xmlns="http://www.w3.org/2000/svg">
<g id="19">
<g id="Component 59">
<path id="Union" d="M232.041 16.5124L232.603 17.3398C232.631 17.3208 232.658 17.3004 232.684 17.2787L232.041 16.5124ZM236.669 13.3717L237.144 14.2514C237.174 14.2354 237.203 14.218 237.23 14.1992L236.669 13.3717ZM236.793 13.2874L237.659 12.7874C237.52 12.5468 237.287 12.3748 237.017 12.3127C236.746 12.2506 236.461 12.3039 236.231 12.46L236.793 13.2874ZM236.801 13.3008L235.935 13.8008C236.204 14.2679 236.796 14.437 237.272 14.183L236.801 13.3008ZM264.29 60.9135L263.762 60.0646C263.304 60.3496 263.154 60.9464 263.424 61.4135L264.29 60.9135ZM264.298 60.9269L264.732 61.8277C264.982 61.707 265.171 61.4873 265.253 61.2215C265.335 60.9557 265.303 60.6677 265.164 60.4269L264.298 60.9269ZM264.165 60.9906L263.731 60.0897C263.701 60.1046 263.671 60.121 263.641 60.1389L264.165 60.9906ZM259.028 63.466L258.689 62.5251C258.657 62.5368 258.625 62.5502 258.594 62.5651L259.028 63.466ZM24.1081 176.663L23.2421 177.163C23.5038 177.616 24.0707 177.791 24.5422 177.564L24.1081 176.663ZM24.1044 176.656L24.9704 176.156C24.7027 175.693 24.117 175.522 23.6422 175.77L24.1044 176.656ZM16.2192 162.999L16.756 163.843C17.2079 163.555 17.353 162.963 17.0852 162.499L16.2192 162.999ZM16.2164 162.994L15.6548 162.167C15.2212 162.461 15.0883 163.04 15.3504 163.494L16.2164 162.994ZM235.488 12.8863C234.02 13.7338 232.655 14.6926 231.399 15.7461L232.684 17.2787C233.852 16.2995 235.121 15.4075 236.488 14.6183L235.488 12.8863ZM236.193 12.4921C235.957 12.6199 235.722 12.7512 235.488 12.8863L236.488 14.6183C236.706 14.4926 236.925 14.3702 237.144 14.2514L236.193 12.4921ZM236.231 12.46L236.107 12.5443L237.23 14.1992L237.355 14.1148L236.231 12.46ZM237.667 12.8008L237.659 12.7874L235.927 13.7874L235.935 13.8008L237.667 12.8008ZM274.426 23.3197C266.716 9.96524 249.832 5.21007 236.33 12.4187L237.272 14.183C249.825 7.48072 265.525 11.9026 272.694 24.3197L274.426 23.3197ZM264.818 61.7625C277.812 53.6738 282.136 36.6742 274.426 23.3197L272.694 24.3197C279.863 36.7368 275.843 52.5441 263.762 60.0646L264.818 61.7625ZM265.164 60.4269L265.156 60.4135L263.424 61.4135L263.432 61.4269L265.164 60.4269ZM264.6 61.8915L264.732 61.8277L263.864 60.026L263.731 60.0897L264.6 61.8915ZM263.993 62.2577C264.228 62.1221 264.46 61.9836 264.689 61.8423L263.641 60.1389C263.428 60.2704 263.211 60.3994 262.993 60.5257L263.993 62.2577ZM259.367 64.4069C260.944 63.8393 262.492 63.1244 263.993 62.2577L262.993 60.5257C261.595 61.3327 260.155 61.9975 258.689 62.5251L259.367 64.4069ZM24.5422 177.564L259.462 64.3669L258.594 62.5651L23.674 175.762L24.5422 177.564ZM23.2384 177.156L23.2421 177.163L24.9741 176.163L24.9704 176.156L23.2384 177.156ZM12.76 174.101C15.1505 178.242 20.3673 179.732 24.5666 177.543L23.6422 175.77C20.3884 177.466 16.3447 176.31 14.4921 173.101L12.76 174.101ZM15.6824 162.155C11.687 164.697 10.3696 169.961 12.76 174.101L14.4921 173.101C12.6395 169.892 13.6604 165.812 16.756 163.843L15.6824 162.155ZM15.3504 163.494L15.3532 163.499L17.0852 162.499L17.0824 162.494L15.3504 163.494ZM231.48 15.685L15.6548 162.167L16.778 163.821L232.603 17.3398L231.48 15.685Z" fill="white"/>
</g>
<g id="Component 60">
<path id="Union_2" d="M247.215 65.2971L247.248 64.2976C247.787 64.3155 248.215 64.7577 248.215 65.2971L247.215 65.2971ZM247.215 10.3187L248.215 10.3187C248.215 10.858 247.787 11.3002 247.248 11.3181L247.215 10.3187ZM247.215 10.3032L246.215 10.3032C246.215 9.75091 246.662 9.3032 247.215 9.3032L247.215 10.3032ZM494.756 10.3032L494.756 9.30318C495.022 9.30318 495.276 9.40853 495.463 9.59607C495.651 9.78361 495.756 10.038 495.756 10.3032L494.756 10.3032ZM494.756 10.3502L494.698 11.3486C494.17 11.3178 493.756 10.88 493.756 10.3502L494.756 10.3502ZM494.756 65.2655L493.756 65.2655C493.756 64.7357 494.17 64.2979 494.698 64.2672L494.756 65.2655ZM494.756 65.3125L495.756 65.3125C495.756 65.8648 495.309 66.3125 494.756 66.3125L494.756 65.3125ZM247.215 65.3125L247.215 66.3125C246.662 66.3125 246.215 65.8648 246.215 65.3125L247.215 65.3125ZM247.181 66.2965C231.884 65.7885 219.64 53.2283 219.64 37.8079L221.64 37.8079C221.64 52.146 233.025 63.8252 247.248 64.2976L247.181 66.2965ZM219.64 37.8079C219.64 22.3875 231.884 9.8273 247.181 9.31923L247.248 11.3181C233.025 11.7905 221.64 23.4698 221.64 37.8079L219.64 37.8079ZM246.215 10.3187L246.215 10.3032L248.215 10.3032L248.215 10.3187L246.215 10.3187ZM247.215 9.3032L494.756 9.30318L494.756 11.3032L247.215 11.3032L247.215 9.3032ZM495.756 10.3032L495.756 10.3502L493.756 10.3502L493.756 10.3032L495.756 10.3032ZM519.64 37.8079C519.64 23.6946 508.608 12.1572 494.698 11.3486L494.814 9.35192C509.776 10.2217 521.64 22.6289 521.64 37.8079L519.64 37.8079ZM494.698 64.2672C508.608 63.4586 519.64 51.9211 519.64 37.8079L521.64 37.8079C521.64 52.9868 509.776 65.3941 494.814 66.2638L494.698 64.2672ZM495.756 65.2655L495.756 65.3125L493.756 65.3125L493.756 65.2655L495.756 65.2655ZM494.756 66.3125L493.135 66.3125L493.135 64.3125L494.756 64.3125L494.756 66.3125ZM493.135 66.3125L248.144 66.3125L248.144 64.3125L493.135 64.3125L493.135 66.3125ZM248.144 66.3125L247.215 66.3125L247.215 64.3125L248.144 64.3125L248.144 66.3125ZM246.215 65.3125L246.215 65.2971L248.215 65.2971L248.215 65.3125L246.215 65.3125Z" fill="white"/>
</g>
<g id="Component 64">
<g id="Frame 756">
<rect x="235" y="22.9998" width="30" height="30" rx="15" fill="white"/>
<path id="1" d="M240.899 44.4998H249.647V42.3218H246.983V31.9358H242.843L239.837 35.8958L241.565 37.2458L244.121 33.8978H244.283V42.3218H240.899V44.4998ZM251.818 44.4998H255.544C257.686 43.0418 260.044 40.2338 260.044 36.7058C260.044 33.6818 258.316 31.7198 255.328 31.7198C252.466 31.7198 250.612 33.5558 250.612 36.1298C250.612 38.5058 252.214 40.0358 254.284 40.0358C255.886 40.0358 256.624 39.0998 257.056 38.1458L257.218 38.1998C256.714 40.5938 254.878 42.3038 251.818 44.4998ZM255.328 37.9658C254.14 37.9658 253.42 37.2818 253.42 36.0578V35.7338C253.42 34.5098 254.14 33.8258 255.328 33.8258C256.516 33.8258 257.236 34.5098 257.236 35.7338V36.0578C257.236 37.2818 256.516 37.9658 255.328 37.9658Z" fill="black"/>
</g>
</g>
</g>
</svg>
