<svg width="816" height="214" viewBox="0 0 816 214" fill="none" xmlns="http://www.w3.org/2000/svg">
<g id="03">
<g id="Frame 760">
<path id="Union" d="M264.332 13.7579L263.832 14.6237L263.832 14.6239L264.332 13.7579ZM519.799 161.251L519.299 162.117L519.299 162.117L519.799 161.251ZM264.324 13.7534L264.824 12.8875L264.824 12.8872L264.324 13.7534ZM264.316 13.7489L263.816 14.6149L263.817 14.615L264.316 13.7489ZM262.163 12.5057L262.663 11.6396C262.434 11.507 262.161 11.4711 261.904 11.5397C261.648 11.6084 261.43 11.776 261.297 12.0057L262.163 12.5057ZM262.107 12.6024L261.687 13.5097C262.157 13.7273 262.715 13.5506 262.973 13.1024L262.107 12.6024ZM226.752 23.8207L227.618 24.3207L226.752 23.8207ZM234.714 60.0484L235.58 60.5484C235.839 60.1001 235.713 59.5285 235.29 59.2306L234.714 60.0484ZM234.659 60.1451L233.793 59.6451C233.66 59.8748 233.624 60.1478 233.693 60.4039C233.761 60.6601 233.929 60.8786 234.159 61.0112L234.659 60.1451ZM236.82 61.3928L237.32 60.5267L237.32 60.5267L236.82 61.3928ZM492.305 208.897L492.805 208.031L492.805 208.031L492.305 208.897ZM494.466 210.145L493.966 211.011C494.444 211.287 495.056 211.123 495.332 210.645L494.466 210.145ZM494.522 210.048L494.942 209.141C494.473 208.923 493.915 209.1 493.656 209.548L494.522 210.048ZM529.877 198.83L529.011 198.33L529.011 198.33L529.877 198.83ZM521.915 162.602L521.049 162.102C520.79 162.55 520.916 163.122 521.339 163.42L521.915 162.602ZM521.971 162.506L522.837 163.006C522.969 162.776 523.005 162.503 522.937 162.247C522.868 161.991 522.701 161.772 522.471 161.64L521.971 162.506ZM519.821 161.264L520.321 160.398L520.321 160.398L519.821 161.264ZM519.81 161.258L519.307 162.122L519.31 162.124L519.81 161.258ZM263.832 14.6239L519.299 162.117L520.299 160.385L264.832 12.8918L263.832 14.6239ZM263.824 14.6192L263.832 14.6237L264.832 12.892L264.824 12.8875L263.824 14.6192ZM263.817 14.615L263.824 14.6195L264.824 12.8872L264.816 12.8827L263.817 14.615ZM261.663 13.3717L263.816 14.6149L264.816 12.8828L262.663 11.6396L261.663 13.3717ZM262.973 13.1024L263.029 13.0057L261.297 12.0057L261.241 12.1024L262.973 13.1024ZM227.618 24.3207C234.532 12.3462 249.379 7.80682 261.687 13.5097L262.528 11.695C249.289 5.5609 233.322 10.4417 225.886 23.3207L227.618 24.3207ZM235.29 59.2306C224.197 51.4233 220.705 36.2953 227.618 24.3207L225.886 23.3207C218.45 36.1998 222.207 52.4684 234.139 60.8661L235.29 59.2306ZM235.525 60.6451L235.58 60.5484L233.848 59.5483L233.793 59.6451L235.525 60.6451ZM237.32 60.5267L235.159 59.2791L234.159 61.0112L236.32 62.2588L237.32 60.5267ZM492.805 208.031L237.32 60.5267L236.32 62.2588L491.805 209.763L492.805 208.031ZM494.966 209.279L492.805 208.031L491.805 209.763L493.966 211.011L494.966 209.279ZM493.656 209.548L493.6 209.645L495.332 210.645L495.388 210.548L493.656 209.548ZM494.102 210.956C507.34 217.09 523.307 212.209 530.743 199.33L529.011 198.33C522.098 210.304 507.25 214.844 494.942 209.141L494.102 210.956ZM530.743 199.33C538.179 186.451 534.422 170.182 522.491 161.785L521.339 163.42C532.432 171.227 535.925 186.355 529.011 198.33L530.743 199.33ZM521.105 162.006L521.049 162.102L522.781 163.102L522.837 163.006L521.105 162.006ZM519.321 162.13L521.471 163.372L522.471 161.64L520.321 160.398L519.321 162.13ZM520.321 160.398C520.319 160.397 520.317 160.396 520.315 160.395C520.313 160.394 520.311 160.393 520.309 160.392L519.31 162.124C519.312 162.125 519.314 162.126 519.316 162.127C519.318 162.128 519.32 162.13 519.322 162.131L520.321 160.398ZM520.312 160.393C520.307 160.39 520.302 160.387 520.298 160.385L519.299 162.117C519.303 162.12 519.305 162.121 519.307 162.122L520.312 160.393Z" fill="white"/>
<path id="Union_2" d="M519.504 208.893L519.004 208.027L519.004 208.027L519.504 208.893ZM774.97 61.3992L774.47 60.5332L774.47 60.5332L774.97 61.3992ZM519.496 208.897L519.996 209.763L519.996 209.763L519.496 208.897ZM519.488 208.902L518.988 208.036L518.989 208.036L519.488 208.902ZM517.335 210.145L517.835 211.011C517.605 211.144 517.332 211.18 517.076 211.111C516.82 211.042 516.602 210.875 516.469 210.645L517.335 210.145ZM517.279 210.048L516.859 209.141C517.328 208.923 517.886 209.1 518.145 209.548L517.279 210.048ZM481.924 198.83L482.79 198.33L481.924 198.83ZM489.886 162.602L490.752 162.102C491.011 162.551 490.885 163.122 490.462 163.42L489.886 162.602ZM489.83 162.506L488.964 163.006C488.832 162.776 488.796 162.503 488.865 162.247C488.933 161.991 489.101 161.772 489.33 161.639L489.83 162.506ZM491.992 161.258L492.492 162.124L492.492 162.124L491.992 161.258ZM747.477 13.7533L747.977 14.6193L747.977 14.6193L747.477 13.7533ZM749.638 12.5056L749.138 11.6396C749.616 11.3634 750.228 11.5273 750.504 12.0055L749.638 12.5056ZM749.694 12.6023L750.114 13.5097C749.645 13.7273 749.087 13.5506 748.828 13.1024L749.694 12.6023ZM785.049 23.8207L784.183 24.3207L784.183 24.3207L785.049 23.8207ZM777.087 60.0483L776.221 60.5484C775.962 60.1001 776.088 59.5285 776.511 59.2305L777.087 60.0483ZM777.143 60.145L778.009 59.6449C778.141 59.8746 778.177 60.1476 778.109 60.4038C778.04 60.66 777.872 60.8784 777.643 61.011L777.143 60.145ZM774.993 61.3862L775.493 62.2522L775.493 62.2525L774.993 61.3862ZM774.982 61.3927L774.479 60.5282L774.482 60.5264L774.982 61.3927ZM519.004 208.027L774.47 60.5332L775.47 62.2653L520.004 209.759L519.004 208.027ZM518.996 208.031L519.004 208.027L520.004 209.759L519.996 209.763L518.996 208.031ZM518.989 208.036L518.996 208.031L519.996 209.763L519.988 209.768L518.989 208.036ZM516.835 209.279L518.988 208.036L519.988 209.768L517.835 211.011L516.835 209.279ZM518.145 209.548L518.201 209.645L516.469 210.645L516.413 210.548L518.145 209.548ZM482.79 198.33C489.704 210.304 504.551 214.844 516.859 209.141L517.7 210.956C504.461 217.09 488.494 212.209 481.058 199.33L482.79 198.33ZM490.462 163.42C479.369 171.227 475.877 186.355 482.79 198.33L481.058 199.33C473.622 186.451 477.379 170.182 489.311 161.785L490.462 163.42ZM490.696 162.006L490.752 162.102L489.02 163.102L488.964 163.006L490.696 162.006ZM492.492 162.124L490.33 163.372L489.33 161.639L491.492 160.392L492.492 162.124ZM747.977 14.6193L492.492 162.124L491.492 160.392L746.977 12.8873L747.977 14.6193ZM750.138 13.3716L747.977 14.6193L746.977 12.8873L749.138 11.6396L750.138 13.3716ZM748.828 13.1024L748.772 13.0056L750.504 12.0055L750.56 12.1023L748.828 13.1024ZM749.274 11.695C762.512 5.56083 778.479 10.4416 785.915 23.3207L784.183 24.3207C777.27 12.3462 762.422 7.80675 750.114 13.5097L749.274 11.695ZM785.915 23.3207C793.351 36.1998 789.594 52.4684 777.662 60.8661L776.511 59.2305C787.604 51.4233 791.097 36.2952 784.183 24.3207L785.915 23.3207ZM776.277 60.6451L776.221 60.5484L777.953 59.5482L778.009 59.6449L776.277 60.6451ZM774.493 60.5201L776.643 59.279L777.643 61.011L775.493 62.2522L774.493 60.5201ZM775.493 62.2525C775.491 62.2535 775.489 62.2545 775.487 62.2556C775.485 62.2567 775.483 62.2578 775.481 62.259L774.482 60.5264C774.484 60.5254 774.486 60.5243 774.488 60.5232C774.489 60.5222 774.491 60.521 774.493 60.5199L775.493 62.2525ZM775.484 62.2572C775.479 62.2604 775.473 62.2635 775.47 62.2653L774.47 60.5332C774.475 60.5306 774.477 60.5294 774.479 60.5282L775.484 62.2572Z" fill="white"/>
</g>
<g id="Component 10">
<path id="Union_3" d="M232.041 16.5125L232.603 17.3399C232.631 17.3209 232.658 17.3005 232.684 17.2788L232.041 16.5125ZM236.669 13.3719L237.144 14.2515C237.174 14.2355 237.203 14.2181 237.23 14.1993L236.669 13.3719ZM236.793 13.2875L237.659 12.7875C237.52 12.5469 237.287 12.3749 237.017 12.3128C236.746 12.2507 236.461 12.3041 236.231 12.4601L236.793 13.2875ZM236.801 13.3009L235.935 13.8009C236.204 14.268 236.796 14.4371 237.272 14.1831L236.801 13.3009ZM264.29 60.9136L263.762 60.0647C263.304 60.3497 263.154 60.9465 263.424 61.4136L264.29 60.9136ZM264.298 60.927L264.732 61.8279C264.982 61.7071 265.171 61.4874 265.253 61.2216C265.335 60.9558 265.303 60.6679 265.164 60.427L264.298 60.927ZM264.165 60.9907L263.731 60.0898C263.701 60.1047 263.671 60.1211 263.641 60.139L264.165 60.9907ZM259.028 63.4661L258.689 62.5253C258.657 62.5369 258.625 62.5503 258.594 62.5653L259.028 63.4661ZM24.1081 176.663L23.2421 177.163C23.5038 177.616 24.0707 177.791 24.5422 177.564L24.1081 176.663ZM24.1044 176.657L24.9704 176.157C24.7027 175.693 24.1171 175.522 23.6422 175.77L24.1044 176.657ZM16.2192 162.999L16.7561 163.843C17.2079 163.555 17.353 162.963 17.0852 162.499L16.2192 162.999ZM16.2164 162.994L15.6548 162.167C15.2212 162.461 15.0883 163.04 15.3504 163.494L16.2164 162.994ZM235.488 12.8864C234.02 13.7339 232.655 14.6927 231.399 15.7462L232.684 17.2788C233.852 16.2996 235.121 15.4076 236.488 14.6185L235.488 12.8864ZM236.193 12.4923C235.957 12.62 235.722 12.7514 235.488 12.8864L236.488 14.6185C236.706 14.4927 236.925 14.3704 237.144 14.2515L236.193 12.4923ZM236.231 12.4601L236.107 12.5445L237.23 14.1993L237.355 14.1149L236.231 12.4601ZM237.667 12.8009L237.659 12.7875L235.927 13.7875L235.935 13.8009L237.667 12.8009ZM274.426 23.3198C266.716 9.96536 249.832 5.2102 236.33 12.4188L237.272 14.1831C249.825 7.48084 265.525 11.9027 272.694 24.3198L274.426 23.3198ZM264.818 61.7626C277.812 53.6739 282.136 36.6743 274.426 23.3198L272.694 24.3198C279.863 36.737 275.843 52.5442 263.762 60.0647L264.818 61.7626ZM265.164 60.427L265.156 60.4136L263.424 61.4136L263.432 61.427L265.164 60.427ZM264.6 61.8916L264.732 61.8279L263.864 60.0261L263.731 60.0898L264.6 61.8916ZM263.993 62.2579C264.228 62.1222 264.46 61.9837 264.689 61.8424L263.641 60.139C263.428 60.2705 263.211 60.3995 262.993 60.5258L263.993 62.2579ZM259.367 64.407C260.944 63.8394 262.492 63.1245 263.993 62.2579L262.993 60.5258C261.595 61.3328 260.155 61.9977 258.689 62.5253L259.367 64.407ZM24.5422 177.564L259.462 64.367L258.594 62.5653L23.674 175.762L24.5422 177.564ZM23.2384 177.157L23.2421 177.163L24.9741 176.163L24.9704 176.157L23.2384 177.157ZM12.7601 174.101C15.1505 178.242 20.3673 179.732 24.5667 177.543L23.6422 175.77C20.3885 177.466 16.3447 176.31 14.4921 173.101L12.7601 174.101ZM15.6824 162.155C11.687 164.698 10.3696 169.961 12.7601 174.101L14.4921 173.101C12.6395 169.892 13.6604 165.813 16.7561 163.843L15.6824 162.155ZM15.3504 163.494L15.3532 163.499L17.0852 162.499L17.0824 162.494L15.3504 163.494ZM231.48 15.6851L15.6548 162.167L16.778 163.822L232.603 17.3399L231.48 15.6851Z" fill="white"/>
</g>
<path id="&#224;&#185;&#132;&#224;&#184;&#161;&#224;&#185;&#136;&#224;&#184;&#132;&#224;&#184;&#163;&#224;&#184;&#154;" d="M297.952 52.9561L293.354 50.3011L293.147 50.6597L292.924 51.4044L295.855 53.0964C294.683 53.0018 293.816 53.353 292.862 55.0054L288.085 63.2426C287.599 64.0844 287.91 64.9498 288.736 65.4268C289.032 65.5978 289.262 65.6681 289.476 65.7293L289.989 65.2359L290.151 64.9554L289.59 64.6314C289.31 64.4694 289.235 64.2391 289.442 63.8805L294.099 55.8861C295.33 53.7906 296.192 53.665 297.34 54.0161L297.952 52.9561ZM295.356 69.3317C296.93 70.2407 298.911 70.158 299.937 68.3809L302.331 64.2344C302.655 63.6732 302.798 63.5689 303.246 63.7651L303.647 63.9344L304.097 63.1549L301.104 61.4269L300.654 62.2064L301.001 62.4691C301.395 62.7589 301.376 62.9352 301.052 63.4964L298.694 67.5805C297.992 68.7964 296.936 68.7895 295.892 68.1865C294.302 67.2685 294.155 65.6871 294.155 65.6871L297.737 59.4829L295.617 58.2589L295.158 59.0539L295.521 59.3257C295.899 59.6065 295.883 59.7426 295.559 60.3038L292.652 65.3389C292.301 65.9468 292.151 66.0265 291.805 65.8687L291.429 65.6929L290.925 66.5658L292.718 67.6008C292.948 67.3808 293.227 67.0427 293.438 66.7489C293.438 66.7489 293.578 68.3057 295.356 69.3317ZM303.952 61.3877L305.212 59.2053L303.965 58.4853L302.705 60.6677L303.952 61.3877ZM308.782 75.7741C308.388 75.4843 308.407 75.308 308.74 74.7312L310.909 70.9744C311.971 69.135 311.419 67.1745 309.221 65.9055C307.023 64.6365 305.049 65.139 303.987 66.9784L301.8 70.7664C301.467 71.3432 301.358 71.4253 300.925 71.2381L300.509 71.0598L300.059 71.8393L302.179 73.0633L302.719 72.1279C303.79 70.2729 305.186 69.9777 305.919 70.4007C306.137 70.5267 306.257 70.6791 306.248 70.8398L307.183 71.3798L307.846 70.4115C307.733 70.1387 307.342 69.8087 306.936 69.5747C306.219 69.1607 305.211 69.0357 304.159 69.6338L305.266 67.7164C306.022 66.407 307.188 66.1867 308.591 66.9967C309.994 67.8067 310.387 68.927 309.631 70.2364L307.462 73.9932C307.129 74.57 306.985 74.6743 306.537 74.4781L306.136 74.3088L305.686 75.0883L308.679 76.8163L309.129 76.0368L308.782 75.7741ZM312.727 79.3614C314.645 80.4684 316.42 80.4539 317.428 78.708C318.193 77.383 317.473 76.0737 316.317 75.0527C314.333 73.3046 314.465 72.7158 314.879 71.9987C315.311 71.2505 316.115 71.1536 317.253 71.8106C317.955 72.2156 318.446 72.7693 318.646 73.4667L319.581 74.0067C319.581 74.0067 319.857 73.7088 320.316 72.9138C319.881 72.3715 318.84 71.4381 317.842 70.8621C316.128 69.8721 314.446 69.9405 313.609 71.3903C312.862 72.6841 313.35 73.9634 314.673 75.1637C316.585 76.8914 316.463 77.3195 315.977 78.1613C315.554 78.8939 314.662 79.1065 313.415 78.3865C312.558 77.8915 312.026 77.3355 311.905 76.5379L310.954 75.9889C310.608 76.5165 310.538 76.601 310.19 77.1688C310.507 77.5185 311.075 78.4074 312.727 79.3614ZM321.426 84.3834C323.702 85.6974 325.675 85.1949 326.737 83.3554L328.924 79.5674C329.248 79.0063 329.392 78.902 329.84 79.0982L330.241 79.2674L330.682 78.5036L327.689 76.7756L327.248 77.5394L327.595 77.8022C327.989 78.092 327.97 78.2683 327.646 78.8294L325.459 82.6174C324.793 83.771 323.537 84.1472 322.056 83.2922C320.575 82.4372 320.272 81.161 320.938 80.0074L324.025 74.6606L321.905 73.4366L321.446 74.2316L321.809 74.5034C322.187 74.7841 322.171 74.9203 321.847 75.4814L319.66 79.2694C318.598 81.1089 319.15 83.0694 321.426 84.3834Z" fill="#FF8058"/>
<path id="&#224;&#184;&#132;&#224;&#184;&#163;&#224;&#184;&#154;" d="M196.612 70.4371C196.164 70.6334 196.021 70.5291 195.688 69.9523L193.519 66.1955C192.457 64.356 190.483 63.8535 188.285 65.1225C186.087 66.3915 185.535 68.352 186.597 70.1915L188.784 73.9795C189.117 74.5562 189.134 74.6924 188.755 74.9731L188.393 75.2449L188.843 76.0243L190.963 74.8003L190.423 73.865C189.352 72.01 189.794 70.6528 190.527 70.2298C190.745 70.1038 190.937 70.0761 191.072 70.1648L192.007 69.6248L191.5 68.5666C191.207 68.5277 190.726 68.7018 190.32 68.9358C189.603 69.3498 188.991 70.1607 188.983 71.3708L187.876 69.4535C187.12 68.144 187.512 67.0237 188.915 66.2137C190.318 65.4037 191.485 65.624 192.241 66.9335L194.41 70.6903C194.743 71.2671 194.761 71.4434 194.367 71.7331L194.02 71.9959L194.47 72.7753L197.463 71.0473L197.013 70.2679L196.612 70.4371ZM201.691 68.814C203.609 67.707 204.484 66.1626 203.476 64.4166C202.711 63.0916 201.217 63.0603 199.755 63.5513C197.249 64.3953 196.805 63.9864 196.391 63.2694C195.959 62.5211 196.277 61.7762 197.415 61.1192C198.117 60.7142 198.842 60.5659 199.546 60.7413L200.481 60.2013C200.481 60.2013 200.361 59.8134 199.902 59.0184C199.215 59.1242 197.886 59.5587 196.888 60.1347C195.174 61.1247 194.392 62.6152 195.229 64.0649C195.976 65.3587 197.328 65.576 199.029 65.0303C201.481 64.238 201.791 64.5581 202.277 65.3999C202.7 66.1325 202.438 67.0111 201.191 67.7311C200.334 68.2261 199.586 68.4081 198.835 68.1145L197.884 68.6635C198.168 69.2271 198.206 69.3296 198.524 69.9154C198.985 69.8151 200.039 69.768 201.691 68.814ZM210.39 63.792C212.666 62.478 213.217 60.5175 212.155 58.678L209.968 54.8901C209.644 54.3289 209.626 54.1526 210.02 53.8628L210.367 53.6L209.926 52.8362L206.933 54.5642L207.374 55.328L207.775 55.1588C208.223 54.9626 208.366 55.0669 208.69 55.6281L210.877 59.416C211.543 60.5696 211.241 61.8458 209.76 62.7008C208.279 63.5558 207.022 63.1796 206.356 62.026L203.269 56.6792L201.149 57.9032L201.608 58.6982L202.025 58.52C202.457 58.3328 202.567 58.4149 202.891 58.9761L205.078 62.764C206.14 64.6035 208.114 65.106 210.39 63.792Z" fill="white"/>
<g id="Component 64">
<g id="Frame 756">
<rect x="236" y="21.9999" width="30" height="30" rx="15" fill="white"/>
<path id="1" d="M250.535 43.7159C253.379 43.7159 255.305 42.2579 255.305 40.0079C255.305 38.2799 254.189 37.2539 252.695 36.9839V36.8759C253.991 36.6419 255.089 35.6519 255.089 34.0499C255.089 32.0339 253.343 30.7199 250.643 30.7199C248.483 30.7199 247.259 31.5839 246.305 32.8259L247.997 34.4099C248.627 33.4559 249.545 32.9159 250.553 32.9159C251.615 32.9159 252.245 33.5279 252.245 34.4279V34.5539C252.245 35.3279 251.651 35.9039 250.319 35.9039H249.149V38.1539H250.283C251.651 38.1539 252.479 38.6759 252.479 39.7019V39.8099C252.479 40.8539 251.759 41.5199 250.535 41.5199C249.185 41.5199 248.429 40.7819 247.889 39.7559L245.891 41.3039C246.701 42.5819 247.979 43.7159 250.535 43.7159Z" fill="black"/>
</g>
</g>
</g>
</svg>
