<svg width="288" height="435" viewBox="0 0 288 435" fill="none" xmlns="http://www.w3.org/2000/svg">
<path d="M28.1835 300.429L28.6193 299.529C28.5889 299.515 28.5577 299.502 28.5259 299.49L28.1835 300.429ZM23.15 297.992L23.6739 297.141C23.6453 297.123 23.6159 297.107 23.5857 297.092L23.15 297.992ZM23.0148 297.927L22.1487 297.427C22.0098 297.668 21.9773 297.955 22.0589 298.221C22.1405 298.486 22.3289 298.706 22.579 298.827L23.0148 297.927ZM23.0225 297.913L23.8885 298.413C24.1582 297.946 24.0089 297.35 23.551 297.065L23.0225 297.913ZM50.5117 250.301L50.0407 251.183C50.5165 251.437 51.1081 251.268 51.3777 250.801L50.5117 250.301ZM50.5194 250.287L51.0826 249.461C50.8527 249.304 50.568 249.251 50.2968 249.313C50.0256 249.374 49.7925 249.547 49.6534 249.787L50.5194 250.287ZM50.6408 250.37L50.0776 251.197C50.1059 251.216 50.1351 251.234 50.1652 251.25L50.6408 250.37ZM55.3532 253.581L54.7077 254.345C54.7341 254.368 54.7616 254.388 54.7901 254.408L55.3532 253.581ZM270.845 400.43L271.711 400.93C271.972 400.477 271.84 399.898 271.408 399.603L270.845 400.43ZM270.841 400.436L269.975 399.936C269.707 400.4 269.852 400.992 270.304 401.28L270.841 400.436ZM262.956 414.094L263.418 413.207C262.943 412.959 262.357 413.13 262.09 413.594L262.956 414.094ZM262.953 414.099L262.517 414.999C262.989 415.227 263.557 415.053 263.819 414.599L262.953 414.099ZM23.32 299.258C24.7878 300.105 26.3005 300.808 27.8411 301.369L28.5259 299.49C27.0939 298.968 25.6868 298.315 24.32 297.526L23.32 299.258ZM22.626 298.844C22.8547 298.985 23.086 299.123 23.32 299.258L24.32 297.526C24.1021 297.4 23.8867 297.272 23.6739 297.141L22.626 298.844ZM22.579 298.827L22.7142 298.892L23.5857 297.092L23.4505 297.027L22.579 298.827ZM22.1565 297.413L22.1487 297.427L23.8808 298.427L23.8885 298.413L22.1565 297.413ZM12.8865 260.32C5.17634 273.674 9.5003 290.674 22.494 298.762L23.551 297.065C11.47 289.544 7.44956 273.737 14.6186 261.32L12.8865 260.32ZM50.9827 249.419C37.4809 242.21 20.5968 246.965 12.8865 260.32L14.6186 261.32C21.7876 248.903 37.4873 244.481 50.0407 251.183L50.9827 249.419ZM49.6534 249.787L49.6457 249.801L51.3777 250.801L51.3854 250.787L49.6534 249.787ZM51.2039 249.544L51.0826 249.461L49.9563 251.114L50.0776 251.197L51.2039 249.544ZM51.8246 249.886C51.5896 249.751 51.3535 249.619 51.1163 249.49L50.1652 251.25C50.3859 251.369 50.6058 251.492 50.8246 251.618L51.8246 249.886ZM55.9987 252.818C54.7187 251.736 53.3256 250.753 51.8246 249.886L50.8246 251.618C52.2223 252.425 53.5181 253.34 54.7077 254.345L55.9987 252.818ZM271.408 399.603L55.9163 252.755L54.7901 254.408L270.281 401.256L271.408 399.603ZM271.707 400.936L271.711 400.93L269.979 399.93L269.975 399.936L271.707 400.936ZM274.3 411.538C276.69 407.398 275.373 402.135 271.378 399.592L270.304 401.28C273.4 403.25 274.421 407.33 272.568 410.538L274.3 411.538ZM262.493 414.98C266.693 417.169 271.91 415.679 274.3 411.538L272.568 410.538C270.715 413.747 266.672 414.903 263.418 413.207L262.493 414.98ZM263.819 414.599L263.822 414.594L262.09 413.594L262.087 413.599L263.819 414.599ZM27.7477 301.33L262.517 414.999L263.389 413.199L28.6193 299.529L27.7477 301.33Z" fill="white"/>
<path d="M10.0144 274.425L11.0139 274.392C10.996 273.853 10.5538 273.425 10.0144 273.425L10.0144 274.425ZM64.9928 274.425L64.9928 273.425C64.4535 273.425 64.0113 273.853 63.9934 274.392L64.9928 274.425ZM65.0083 274.425L65.0083 275.425C65.5606 275.425 66.0083 274.977 66.0083 274.425L65.0083 274.425ZM65.0084 26.8832L66.0084 26.8832C66.0084 26.331 65.5606 25.8832 65.0084 25.8832L65.0084 26.8832ZM64.9613 26.8832L63.963 26.9413C63.9937 27.4701 64.4316 27.8832 64.9613 27.8832L64.9613 26.8832ZM10.0461 26.8832L10.0461 27.8832C10.5758 27.8832 11.0136 27.4701 11.0444 26.9413L10.0461 26.8832ZM9.99906 26.8832L9.99906 25.8832C9.44677 25.8832 8.99906 26.331 8.99906 26.8832L9.99906 26.8832ZM9.99903 273.495L8.99903 273.495L9.99903 273.495ZM9.99903 274.425L8.99903 274.425C8.99903 274.977 9.44674 275.425 9.99903 275.425L9.99903 274.425ZM9.01499 274.458C9.52307 289.755 22.0832 302 37.5036 302L37.5036 300C23.1656 300 11.4863 288.615 11.0139 274.392L9.01499 274.458ZM37.5036 302C52.9241 302 65.4842 289.756 65.9923 274.458L63.9934 274.392C63.521 288.615 51.8417 300 37.5036 300L37.5036 302ZM64.9928 275.425L65.0083 275.425L65.0083 273.425L64.9928 273.425L64.9928 275.425ZM66.0083 274.425L66.0084 26.8832L64.0084 26.8832L64.0083 274.425L66.0083 274.425ZM65.0084 25.8832L64.9613 25.8832L64.9613 27.8832L65.0084 27.8832L65.0084 25.8832ZM37.5037 2C51.6169 2.00001 63.1544 13.0313 63.963 26.9413L65.9596 26.8252C65.0899 11.8638 52.6826 5.59727e-06 37.5037 3.60679e-06L37.5037 2ZM11.0444 26.9413C11.853 13.0313 23.3904 2 37.5037 2L37.5037 3.60679e-06C22.3248 1.61632e-06 9.91748 11.8638 9.04774 26.8252L11.0444 26.9413ZM10.0461 25.8832L9.99906 25.8832L9.99906 27.8832L10.0461 27.8832L10.0461 25.8832ZM8.99906 26.8832L8.99906 28.5046L10.9991 28.5046L10.9991 26.8832L8.99906 26.8832ZM8.99906 28.5046L8.99903 273.495L10.999 273.495L10.9991 28.5046L8.99906 28.5046ZM8.99903 273.495L8.99903 274.425L10.999 274.425L10.999 273.495L8.99903 273.495ZM9.99903 275.425L10.0144 275.425L10.0144 273.425L9.99903 273.425L9.99903 275.425Z" fill="white"/>
<rect x="23" y="260" width="30" height="30" rx="15" fill="white"/>
<path d="M28.899 281.5H37.647V279.322H34.983V268.936H30.843L27.837 272.896L29.565 274.246L32.121 270.898H32.283V279.322H28.899V281.5ZM39.026 281.5H47.918V279.232H41.978L44.318 277.396C46.118 275.974 47.666 274.66 47.666 272.5C47.666 270.322 46.1 268.72 43.382 268.72C40.772 268.72 39.314 270.178 38.756 271.924L41.114 272.824C41.366 271.87 41.942 271.06 43.13 271.06C43.94 271.06 44.786 271.546 44.786 272.5V272.752C44.786 273.814 44.3 274.516 42.896 275.722L39.026 279.034V281.5Z" fill="black"/>
</svg>
