<svg width="925" height="198" viewBox="0 0 925 198" fill="none" xmlns="http://www.w3.org/2000/svg">
<g id="0AB">
<g id="Component 13">
<path id="Union" d="M660.022 136.726L660.551 137.575C661.009 137.29 661.158 136.693 660.888 136.226L660.022 136.726ZM687.511 184.339L688.377 183.839C688.108 183.371 687.516 183.202 687.04 183.456L687.511 184.339ZM687.519 184.352L686.653 184.852C686.786 185.082 687.004 185.249 687.26 185.318C687.517 185.387 687.79 185.351 688.019 185.218L687.519 184.352ZM901.897 60.5811L902.397 61.4471C902.875 61.171 903.039 60.5594 902.763 60.0811L901.897 60.5811ZM901.873 60.5403L901.324 59.7048C900.881 59.9958 900.742 60.5816 901.007 61.0403L901.873 60.5403ZM874.416 12.9823L873.55 13.4823C873.814 13.9411 874.391 14.1137 874.864 13.8759L874.416 12.9823ZM874.392 12.9416L875.258 12.4416C874.982 11.9633 874.37 11.7995 873.892 12.0756L874.392 12.9416ZM660.015 136.713L659.515 135.847C659.036 136.123 658.872 136.734 659.149 137.213L660.015 136.713ZM659.494 135.877C646.5 143.966 642.176 160.965 649.886 174.32L651.618 173.32C644.449 160.903 648.47 145.095 660.551 137.575L659.494 135.877ZM649.886 174.32C657.596 187.674 674.481 192.429 687.982 185.221L687.04 183.456C674.487 190.159 658.787 185.737 651.618 173.32L649.886 174.32ZM686.645 184.839L686.653 184.852L688.385 183.852L688.377 183.839L686.645 184.839ZM688.019 185.218L902.397 61.4471L901.397 59.7151L687.019 183.486L688.019 185.218ZM902.763 60.0811L902.739 60.0403L901.007 61.0403L901.031 61.0811L902.763 60.0811ZM909.694 24.3197C916.751 36.5421 912.966 52.0495 901.324 59.7048L902.423 61.3759C914.945 53.142 919.015 36.4651 911.426 23.3197L909.694 24.3197ZM874.864 13.8759C887.315 7.62122 902.637 12.0973 909.694 24.3197L911.426 23.3197C903.837 10.1744 887.359 5.36125 873.967 12.0887L874.864 13.8759ZM875.282 12.4823L875.258 12.4416L873.526 13.4416L873.55 13.4823L875.282 12.4823ZM873.892 12.0756L872.488 12.8863L873.488 14.6183L874.892 13.8077L873.892 12.0756ZM872.488 12.8863L660.32 135.382L661.32 137.114L873.488 14.6183L872.488 12.8863ZM660.32 135.382L659.515 135.847L660.515 137.579L661.32 137.114L660.32 135.382ZM659.149 137.213L659.156 137.226L660.888 136.226L660.881 136.213L659.149 137.213Z" fill="white"/>
</g>
<g id="Component 75">
<path id="Union_2" d="M264.29 136.726L263.762 137.575C263.304 137.29 263.154 136.693 263.424 136.226L264.29 136.726ZM236.801 184.339L235.935 183.839C236.204 183.371 236.796 183.202 237.272 183.456L236.801 184.339ZM236.793 184.352L237.659 184.852C237.527 185.082 237.308 185.249 237.052 185.318C236.796 185.387 236.523 185.351 236.293 185.218L236.793 184.352ZM22.4156 60.5811L21.9156 61.4471C21.4373 61.171 21.2734 60.5594 21.5495 60.0811L22.4156 60.5811ZM22.4391 60.5403L22.9885 59.7048C23.4311 59.9958 23.57 60.5816 23.3051 61.0403L22.4391 60.5403ZM49.8967 12.9823L50.7627 13.4823C50.4979 13.9411 49.9212 14.1137 49.4478 13.8759L49.8967 12.9823ZM49.9202 12.9416L49.0542 12.4416C49.1868 12.2119 49.4052 12.0443 49.6614 11.9757C49.9176 11.9071 50.1905 11.943 50.4202 12.0756L49.9202 12.9416ZM264.298 136.713L264.798 135.847C265.027 135.979 265.195 136.198 265.264 136.454C265.332 136.71 265.296 136.983 265.164 137.213L264.298 136.713ZM264.818 135.877C277.812 143.966 282.136 160.965 274.426 174.32L272.694 173.32C279.863 160.903 275.843 145.095 263.762 137.575L264.818 135.877ZM274.426 174.32C266.716 187.674 249.832 192.429 236.33 185.221L237.272 183.456C249.825 190.159 265.525 185.737 272.694 173.32L274.426 174.32ZM237.667 184.839L237.659 184.852L235.927 183.852L235.935 183.839L237.667 184.839ZM236.293 185.218L21.9156 61.4471L22.9156 59.7151L237.293 183.486L236.293 185.218ZM21.5495 60.0811L21.5731 60.0403L23.3051 61.0403L23.2816 61.0811L21.5495 60.0811ZM14.6184 24.3197C7.56176 36.5421 11.3465 52.0495 22.9885 59.7048L21.8897 61.3759C9.36758 53.142 5.29686 36.4651 12.8863 23.3197L14.6184 24.3197ZM49.4478 13.8759C36.9972 7.62122 21.675 12.0973 14.6184 24.3197L12.8863 23.3197C20.4758 10.1744 36.9538 5.36125 50.3456 12.0887L49.4478 13.8759ZM49.0307 12.4823L49.0542 12.4416L50.7862 13.4416L50.7627 13.4823L49.0307 12.4823ZM50.4202 12.0756L51.8244 12.8863L50.8244 14.6183L49.4202 13.8077L50.4202 12.0756ZM51.8244 12.8863L263.993 135.382L262.993 137.114L50.8244 14.6183L51.8244 12.8863ZM263.993 135.382L264.798 135.847L263.798 137.579L262.993 137.114L263.993 135.382ZM265.164 137.213L265.156 137.226L263.424 136.226L263.432 136.213L265.164 137.213Z" fill="white"/>
</g>
<g id="Component 14">
<path id="Union_3" d="M475.512 13.3008L475.041 14.183C475.517 14.437 476.108 14.2679 476.378 13.8008L475.512 13.3008ZM448.023 60.9135L448.889 61.4135C449.158 60.9464 449.009 60.3496 448.551 60.0646L448.023 60.9135ZM448.015 60.9269L447.149 60.4269C446.873 60.9052 447.037 61.5168 447.515 61.7929L448.015 60.9269ZM662.392 184.698L661.892 185.564C662.371 185.84 662.982 185.676 663.258 185.198L662.392 184.698ZM662.416 184.657L662.865 183.764C662.391 183.526 661.815 183.698 661.55 184.157L662.416 184.657ZM689.873 137.099L689.007 136.599C688.743 137.058 688.881 137.644 689.324 137.935L689.873 137.099ZM689.897 137.058L690.763 137.558C691.039 137.08 690.875 136.469 690.397 136.192L689.897 137.058ZM475.519 13.2875L476.019 12.4214C475.541 12.1453 474.93 12.3092 474.653 12.7875L475.519 13.2875ZM475.983 12.4187C462.481 5.21006 445.597 9.96522 437.887 23.3197L439.619 24.3197C446.788 11.9026 462.487 7.48071 475.041 14.183L475.983 12.4187ZM437.887 23.3197C430.176 36.6742 434.5 53.6738 447.494 61.7625L448.551 60.0646C436.47 52.5441 432.45 36.7368 439.619 24.3197L437.887 23.3197ZM447.157 60.4135L447.149 60.4269L448.881 61.4269L448.889 61.4135L447.157 60.4135ZM447.515 61.7929L661.892 185.564L662.892 183.832L448.515 60.0609L447.515 61.7929ZM663.258 185.198L663.282 185.157L661.55 184.157L661.526 184.198L663.258 185.198ZM697.694 173.32C690.638 185.542 675.315 190.018 662.865 183.764L661.967 185.551C675.359 192.278 691.837 187.465 699.426 174.32L697.694 173.32ZM689.324 137.935C700.966 145.59 704.751 161.097 697.694 173.32L699.426 174.32C707.016 161.174 702.945 144.497 690.423 136.264L689.324 137.935ZM690.739 137.599L690.763 137.558L689.031 136.558L689.007 136.599L690.739 137.599ZM690.397 136.192L688.993 135.382L687.993 137.114L689.397 137.924L690.397 136.192ZM688.993 135.382L476.825 12.8863L475.825 14.6183L687.993 137.114L688.993 135.382ZM476.825 12.8863L476.019 12.4214L475.019 14.1535L475.825 14.6183L476.825 12.8863ZM474.653 12.7875L474.646 12.8008L476.378 13.8008L476.385 13.7875L474.653 12.7875Z" fill="white"/>
</g>
<g id="Component 15">
<path id="Union_4" d="M476.29 60.9138L475.762 60.0648C475.304 60.3499 475.155 60.9467 475.424 61.4138L476.29 60.9138ZM448.801 13.3011L447.935 13.8011C448.205 14.2682 448.796 14.4372 449.272 14.1832L448.801 13.3011ZM448.793 13.2877L449.659 12.7877C449.383 12.3094 448.772 12.1455 448.293 12.4216L448.793 13.2877ZM234.416 137.059L233.916 136.193C233.438 136.469 233.274 137.08 233.55 137.559L234.416 137.059ZM234.439 137.099L234.989 137.935C235.431 137.644 235.57 137.058 235.305 136.599L234.439 137.099ZM261.897 184.657L262.763 184.157C262.498 183.699 261.921 183.526 261.448 183.764L261.897 184.657ZM261.92 184.698L261.054 185.198C261.331 185.676 261.942 185.84 262.42 185.564L261.92 184.698ZM263.325 183.887L263.825 184.753L263.325 183.887ZM475.493 61.392L474.993 60.5259L475.493 61.392ZM476.298 60.9271L476.798 61.7931C477.028 61.6605 477.195 61.4421 477.264 61.1859C477.333 60.9298 477.297 60.6568 477.164 60.4271L476.298 60.9271ZM476.819 61.7627C489.812 53.6741 494.136 36.6744 486.426 23.32L484.694 24.32C491.863 36.7371 487.843 52.5444 475.762 60.0648L476.819 61.7627ZM486.426 23.32C478.716 9.96548 461.832 5.21032 448.33 12.4189L449.272 14.1832C461.825 7.48096 477.525 11.9028 484.694 24.32L486.426 23.32ZM449.667 12.8011L449.659 12.7877L447.927 13.7877L447.935 13.8011L449.667 12.8011ZM448.293 12.4216L233.916 136.193L234.916 137.925L449.293 14.1537L448.293 12.4216ZM233.55 137.559L233.573 137.599L235.305 136.599L235.282 136.559L233.55 137.559ZM226.619 173.32C219.562 161.098 223.347 145.59 234.989 137.935L233.89 136.264C221.368 144.498 217.297 161.175 224.887 174.32L226.619 173.32ZM261.448 183.764C248.997 190.018 233.675 185.542 226.619 173.32L224.887 174.32C232.476 187.465 248.954 192.278 262.346 185.551L261.448 183.764ZM261.031 185.157L261.054 185.198L262.786 184.198L262.763 184.157L261.031 185.157ZM262.42 185.564L263.825 184.753L262.825 183.021L261.42 183.832L262.42 185.564ZM263.825 184.753L475.993 62.258L474.993 60.5259L262.825 183.021L263.825 184.753ZM475.993 62.258L476.798 61.7931L475.798 60.0611L474.993 60.5259L475.993 62.258ZM477.164 60.4271L477.156 60.4138L475.424 61.4138L475.432 61.4271L477.164 60.4271Z" fill="white"/>
</g>
<g id="Component 76">
<g id="Frame 756">
<rect x="235" y="143" width="30" height="30" rx="15" fill="white"/>
<path id="1" d="M248.422 164.716C249.862 164.716 250.906 164.068 251.194 162.844H251.302L251.356 163.078C251.572 163.942 252.22 164.5 253.102 164.5H254.578V162.43H253.696V158.29C253.696 156.058 252.328 154.834 249.664 154.834C247.684 154.834 246.604 155.518 245.848 156.634L247.432 158.038C247.846 157.462 248.404 156.922 249.466 156.922C250.582 156.922 251.032 157.498 251.032 158.416V159.01H249.538C247.036 159.01 245.488 159.964 245.488 161.962C245.488 163.6 246.532 164.716 248.422 164.716ZM249.412 162.862C248.62 162.862 248.17 162.538 248.17 161.854V161.584C248.17 160.9 248.71 160.522 249.736 160.522H251.032V161.638C251.032 162.502 250.294 162.862 249.412 162.862Z" fill="black"/>
</g>
</g>
<g id="Component 77">
<g id="Frame 756_2">
<rect x="660" y="144" width="30" height="30" rx="15" fill="white"/>
<path id="1_2" d="M676.058 165.716C678.452 165.716 679.694 163.97 679.694 160.766C679.694 157.562 678.452 155.834 676.058 155.834C674.834 155.834 673.79 156.59 673.52 157.634H673.43V152.18H670.766V165.5H673.43V163.916H673.52C673.79 164.942 674.834 165.716 676.058 165.716ZM675.176 163.556C674.168 163.556 673.43 163.034 673.43 162.17V159.38C673.43 158.516 674.168 157.994 675.176 157.994C676.184 157.994 676.922 158.768 676.922 159.956V161.594C676.922 162.782 676.184 163.556 675.176 163.556Z" fill="black"/>
</g>
</g>
<path id="&#224;&#184;&#150;&#224;&#184;&#173;&#224;&#184;&#153;&#224;&#184;&#163;&#224;&#185;&#136;&#224;&#184;&#178;&#224;&#184;&#135; &#224;&#184;&#158;&#224;&#184;&#163;&#224;&#184;&#154;." d="M338.404 115.469L338.218 114.786L338.002 114.412L337.129 114.916C336.848 115.078 336.611 115.028 336.404 114.669L335.063 112.347C334.658 111.645 334.618 111.107 335.167 110.582L334.825 109.99L333.302 110.017C333.187 109.169 334.002 108.241 335.062 107.629C336.465 106.819 337.71 106.994 338.376 108.148L340.635 112.061C340.959 112.622 340.977 112.798 340.583 113.088L340.236 113.351L340.695 114.146L343.688 112.418L343.229 111.623L342.828 111.792C342.38 111.988 342.237 111.884 341.913 111.323L339.654 107.41C338.592 105.57 336.63 105.269 334.432 106.538C332.702 107.537 331.679 109.042 331.958 110.46L332.309 111.068L333.97 110.92C333.414 111.615 333.38 112.383 333.821 113.147L335.189 115.516C335.738 116.467 336.658 116.477 337.422 116.036L338.404 115.469ZM343.508 101.319C341.98 102.201 341.133 103.542 340.963 104.472C341.116 104.737 341.354 105.077 341.66 105.462L342.688 104.868C342.577 103.81 343.015 103.058 344.138 102.41C345.712 101.501 346.801 101.766 347.665 103.263L348.826 105.274C349.699 106.786 349.384 107.861 347.794 108.779C346.937 109.274 346.049 109.392 345.476 109.12L344.621 107.639L345.681 107.027L345.096 106.014L342.758 107.364L344.621 110.591L344.854 110.456C345.9 110.683 347.055 110.703 348.442 109.902C350.546 108.687 351.391 106.765 350.122 104.567L348.961 102.556C347.647 100.28 345.721 100.041 343.508 101.319ZM356.973 104.955C358.407 104.127 358.807 103.128 358.9 102.388C359.162 102.735 359.452 102.984 359.705 103.17L361.419 102.18L360.915 101.308C360.209 101.632 360.053 101.577 359.693 100.954L356.795 95.934C356.471 95.3728 356.452 95.1965 356.846 94.9068L357.193 94.644L356.743 93.8646L353.75 95.5926L354.2 96.372L354.601 96.2028C355.049 96.0065 355.192 96.1108 355.516 96.672L358.153 101.239C358.088 102.171 357.59 103.144 356.468 103.792C355.392 104.413 354.325 104.364 353.65 103.195L350.383 97.5366L348.263 98.7606L348.722 99.5556L349.139 99.3774C349.571 99.1901 349.681 99.2723 350.005 99.8334L352.444 104.058C353.461 105.819 355.336 105.9 356.973 104.955ZM365.79 99.8649C367.708 98.7579 368.583 97.2135 367.575 95.4675C366.81 94.1425 365.316 94.1112 363.853 94.6022C361.348 95.4462 360.904 95.0373 360.49 94.3203C360.058 93.572 360.376 92.8271 361.514 92.1701C362.215 91.7651 362.94 91.6168 363.644 91.7922L364.58 91.2522C364.58 91.2522 364.46 90.8643 364.001 90.0693C363.313 90.1751 361.985 90.6096 360.987 91.1856C359.272 92.1756 358.491 93.6661 359.328 95.1158C360.075 96.4096 361.427 96.6269 363.128 96.0812C365.58 95.2889 365.89 95.609 366.376 96.4508C366.799 97.1834 366.537 98.062 365.29 98.782C364.432 99.277 363.685 99.459 362.934 99.1654L361.983 99.7144C362.267 100.278 362.305 100.381 362.623 100.966C363.084 100.866 364.138 100.819 365.79 99.8649ZM363.42 88.3263L362.16 86.1439L360.913 86.8639L362.173 89.0463L363.42 88.3263ZM376.69 93.364L376.24 92.5846L375.839 92.7538C375.391 92.95 375.248 92.8457 374.924 92.2846L372.476 88.0445C371.504 86.3609 370.171 85.9248 368.051 87.1488C366.788 87.8778 366.09 89.0084 365.79 89.7845C366.04 90.1808 366.314 90.5837 366.579 90.971L367.592 90.386C367.426 89.775 367.494 88.8838 368.647 88.2178C369.614 87.6598 370.585 87.7225 371.197 88.7825L373.645 93.0226C373.969 93.5837 373.988 93.76 373.594 94.0498L373.247 94.3126L373.697 95.092L376.69 93.364ZM381.939 90.3335C383.249 89.5775 383.7 88.2359 382.899 86.8485L379.398 80.7846L376.873 82.2426L377.395 83.1467L378.159 82.7057C378.58 82.4627 378.732 82.5826 379.056 83.1438L381.549 87.4618C382.062 88.3503 381.784 89.0928 381.036 89.5248L380.381 89.9028L375.123 85.3314L373.751 86.1234L374.183 86.8717C374.536 86.8344 374.878 87.0316 375.091 87.2204L379.959 91.4765L381.939 90.3335ZM393.265 83.7947L391.388 76.9801L396.351 82.0127L398.222 80.9327L395.184 73.5829C394.976 73.0793 394.982 72.9096 395.411 72.537L394.979 71.7888L393.374 72.7158L396.506 80.1567L396.381 80.2287L390.715 74.3753L389.609 75.0143L391.845 82.8477L391.72 82.9197L386.795 76.5138L384.847 77.6388L385.279 78.387L385.816 78.2016C386.077 78.1133 386.294 78.2374 386.494 78.4754L391.519 84.8027L393.265 83.7947ZM403.97 77.8219C405.887 76.7149 406.762 75.1705 405.754 73.4246C404.989 72.0996 403.495 72.0683 402.033 72.5593C399.527 73.4032 399.083 72.9944 398.669 72.2773C398.237 71.529 398.555 70.7842 399.693 70.1272C400.395 69.7222 401.12 69.5738 401.824 69.7493L402.759 69.2093C402.759 69.2093 402.639 68.8213 402.18 68.0263C401.493 68.1321 400.164 68.5667 399.167 69.1427C397.452 70.1327 396.67 71.6231 397.507 73.0728C398.254 74.3667 399.606 74.5839 401.307 74.0383C403.76 73.2459 404.069 73.566 404.555 74.4078C404.978 75.1405 404.716 76.0191 403.469 76.7391C402.612 77.2341 401.865 77.416 401.113 77.1224L400.162 77.6714C400.446 78.235 400.485 78.3375 400.802 78.9233C401.264 78.823 402.317 78.7759 403.97 77.8219ZM412.668 72.7999C414.944 71.4859 415.496 69.5254 414.434 67.686L412.247 63.898C411.923 63.3368 411.904 63.1605 412.298 62.8707L412.645 62.608L412.204 61.8441L409.211 63.5721L409.652 64.336L410.053 64.1667C410.501 63.9705 410.644 64.0748 410.968 64.636L413.155 68.424C413.821 69.5775 413.519 70.8537 412.038 71.7087C410.557 72.5637 409.301 72.1875 408.635 71.034L405.548 65.6871L403.428 66.9111L403.887 67.7062L404.303 67.5279C404.736 67.3407 404.846 67.4228 405.17 67.984L407.357 71.772C408.419 73.6114 410.392 74.1139 412.668 72.7999ZM420.008 68.3545L419.09 66.7645L417.531 67.6645L418.449 69.2545L420.008 68.3545Z" fill="#FF8058"/>
<path id="&#224;&#184;&#162;&#224;&#184;&#129;&#224;&#185;&#128;&#224;&#184;&#165;&#224;&#184;&#180;&#224;&#184;&#129;&#224;&#184;&#163;&#224;&#184;&#177;&#224;&#184;&#144;&#224;&#184;&#152;&#224;&#184;&#163;&#224;&#184;&#163;&#224;&#184;&#161;&#224;&#184;&#153;&#224;&#184;&#185;&#224;&#184;&#141;" d="M512.571 70.5693C514.691 71.7933 516.637 71.4827 517.699 69.6433L519.967 65.715C520.291 65.1538 520.434 65.0495 520.882 65.2457L521.283 65.415L521.733 64.6355L518.74 62.9075L518.29 63.687L518.638 63.9497C519.031 64.2395 519.013 64.4158 518.689 64.977L516.421 68.9053C515.71 70.1368 514.526 70.2431 513.201 69.4781C511.876 68.7131 511.126 67.6359 511.837 66.4044C512.368 65.4847 513.278 65.2409 514.182 65.7629L515.164 66.3299L515.734 65.7028L515.932 65.3599L514.732 64.6669C513.765 64.1089 513.668 63.4498 514.1 62.7016L514.649 61.7507L516.332 62.7227L516.854 61.8185L513.939 60.1355L512.904 61.9282C512.229 63.0974 512.625 63.8872 513.201 64.5105L513.192 64.5261C512.317 64.3123 511.225 64.5128 510.532 65.7132C509.524 67.4591 510.451 69.3453 512.571 70.5693ZM520.808 75.1169L521.267 74.3219L520.919 74.0591C520.526 73.7694 520.544 73.5931 520.868 73.0319L522.11 70.8807C522.515 70.1792 522.899 69.8393 523.581 70.0254L523.923 69.4331L523.06 68.0829C523.737 67.5591 524.944 67.7363 526.051 68.3753C527.376 69.1403 527.846 70.3056 527.18 71.4592L524.921 75.3719C524.597 75.9331 524.454 76.0374 524.006 75.8411L523.605 75.6719L523.146 76.4669L526.139 78.1949L526.598 77.3999L526.251 77.1371C525.857 76.8474 525.876 76.6711 526.2 76.1099L528.459 72.1972C529.521 70.3578 528.801 68.5081 526.681 67.2841C524.904 66.2581 523.093 66.1898 522.004 67.1405L521.653 67.7485L522.721 69.1754C521.813 68.9838 521.273 69.3789 520.832 70.1427L519.59 72.2939C519.266 72.8551 519.123 72.9594 518.675 72.7631L518.274 72.5939L517.815 73.3889L520.808 75.1169ZM529.339 80.1672C529.666 80.3562 530.021 80.4984 530.235 80.5597L530.733 80.0573L530.895 79.7767L530.287 79.4257C530.006 79.2637 529.951 79.1072 530.14 78.7798L533.254 73.3862C533.596 72.7939 533.699 72.6871 534.013 72.827L534.414 72.9962L534.864 72.2168L532.183 70.6688L531.733 71.4482L532.08 71.711C532.343 71.9041 532.318 72.0559 531.976 72.6482L528.745 78.2445C528.286 79.0395 528.45 79.6542 529.339 80.1672ZM533.971 82.9455C534.61 83.3145 535.486 83.6332 535.906 83.6261C536.064 83.2808 536.237 82.9444 536.395 82.5991L535.46 82.0591C535.207 82.1004 534.944 82.0523 534.695 81.9083C533.962 81.4853 533.751 80.8436 534.309 79.8771C534.876 78.895 535.749 78.8587 536.684 79.3987L539.583 81.0727L537.963 83.8787C537.806 84.224 537.775 84.6012 537.858 84.961L539.355 85.825L539.769 85.1079C539.342 84.6952 539.26 84.5855 539.71 83.8061L542.104 79.6595C543.076 77.976 542.46 76.4148 540.355 75.1998C538.734 74.2638 537.25 74.1344 536.49 74.2985C536.281 74.6972 536.039 75.223 535.873 75.584L536.886 76.169C537.332 75.72 538.106 75.3149 539.728 76.2509C540.99 76.9799 541.437 77.8615 540.825 78.9215L540.141 80.1062L537.133 78.3692C535.543 77.4512 533.786 77.8297 532.985 79.217C532.004 80.9162 532.911 82.3335 533.971 82.9455ZM544.247 75.8881L544.859 74.8281L538.546 71.1831L537.856 71.6578L537.622 72.0631L544.247 75.8881ZM543.475 88.2038L543.934 87.4088L543.587 87.1461C543.193 86.8563 543.211 86.68 543.535 86.1188L544.777 83.9676C545.182 83.2661 545.566 82.9262 546.248 83.1123L546.59 82.52L545.728 81.1699C546.404 80.646 547.611 80.8233 548.718 81.4623C550.043 82.2273 550.513 83.3926 549.847 84.5461L547.588 88.4588C547.264 89.02 547.121 89.1243 546.673 88.9281L546.272 88.7588L545.813 89.5538L548.806 91.2818L549.265 90.4868L548.918 90.2241C548.524 89.9343 548.543 89.758 548.867 89.1968L551.126 85.2841C552.188 83.4447 551.468 81.5951 549.348 80.3711C547.571 79.3451 545.761 79.2767 544.671 80.2274L544.32 80.8354L545.388 82.2623C544.48 82.0708 543.94 82.4658 543.499 83.2296L542.257 85.3808C541.933 85.942 541.79 86.0463 541.342 85.8501L540.941 85.6808L540.482 86.4758L543.475 88.2038ZM552.843 93.8205C554.76 94.9275 556.536 94.913 557.544 93.1671C558.309 91.8421 557.589 90.5328 556.432 89.5118C554.449 87.7637 554.581 87.1749 554.995 86.4578C555.427 85.7096 556.231 85.6127 557.369 86.2697C558.07 86.6747 558.561 87.2284 558.761 87.9258L559.697 88.4658C559.697 88.4658 559.973 88.1679 560.432 87.3729C559.996 86.8306 558.956 85.8972 557.958 85.3212C556.243 84.3312 554.562 84.3996 553.725 85.8494C552.978 87.1432 553.466 88.4225 554.789 89.6228C556.701 91.3505 556.578 91.7786 556.092 92.6204C555.669 93.353 554.778 93.5656 553.531 92.8456C552.673 92.3506 552.142 91.7946 552.021 90.997L551.07 90.448C550.724 90.9756 550.654 91.0601 550.305 91.6279C550.623 91.9776 551.191 92.8665 552.843 93.8205ZM563.206 86.834L563.869 86.4061L564.13 85.954L560.108 83.632C559.843 83.479 559.8 83.2667 559.953 83.0017L560.259 82.4717L559.479 82.0217L558.89 81.8896L558.629 82.3417C558.188 83.1055 558.265 83.981 559.107 84.467L563.206 86.834ZM570.027 91.4165L568.874 90.7505C568.503 91.2847 568.056 91.4836 567.547 91.3563C567.161 90.8009 566.594 90.3072 565.861 89.8842C564.443 89.0652 562.878 88.931 562.047 89.0747C561.825 89.4242 561.511 90.0747 561.398 90.3421L562.421 90.9116C562.867 90.4625 563.784 90.0982 565.258 90.9287C566.717 91.7501 567.075 93.0377 566.319 94.3471L565.149 96.3736C564.303 97.8389 563.205 98.2649 561.911 97.5179L561.818 97.4639L563.175 93.9245L561.118 92.7365L560.632 93.5783L561.084 93.8393C561.396 94.0193 561.448 94.216 561.268 94.6729L560.073 97.7866L561.226 98.4526C562.582 99.2356 563.052 100.006 562.476 101.003C562.125 101.611 561.633 101.743 561.197 101.491L561.026 101.392L560.338 99.8105L560.073 99.6575C559.471 100.017 558.888 100.054 558.28 99.7031L557.36 99.1721L557.18 99.4839L557.069 100.397L557.771 100.802C558.41 101.171 559.214 101.074 559.702 100.877L560.251 102.338L560.734 102.617C561.872 103.274 563.053 102.957 563.737 101.773C564.232 100.915 564.124 100.022 563.402 99.1477C564.557 99.1283 565.645 98.4678 566.401 97.1584L567.598 95.0851C568.093 94.2277 568.242 93.3577 568.071 92.5732C568.448 92.6039 568.966 92.5705 569.55 92.2427L570.027 91.4165ZM569.611 103.522C571.716 104.737 573.482 104.738 574.481 103.008L574.841 102.385C575.885 100.576 574.359 99.259 572.982 98.1522C571.874 97.2631 570.855 96.5084 571.296 95.7446C571.692 95.0587 572.816 95.2713 574.157 96.0453C575.061 96.5673 575.723 97.22 575.887 97.9798L576.823 98.5198C576.823 98.5198 577.189 98.066 577.576 97.3957C576.885 96.5397 575.795 95.6195 574.782 95.0345C572.771 93.8735 570.859 93.6216 570.022 95.0713C569.095 96.6769 570.695 97.8294 572.081 98.9207C573.182 99.7851 574.156 100.618 573.58 101.615L573.22 102.239C572.644 103.237 571.644 103.241 570.241 102.431C569.462 101.981 568.822 101.362 568.567 100.758L569.836 98.5601L569.369 98.2901L568.295 98.1693L566.819 100.726L567.069 100.87C567.424 101.802 568.224 102.721 569.611 103.522ZM577.885 108.278C579.803 109.385 581.578 109.371 582.586 107.625C583.351 106.3 582.631 104.991 581.474 103.97C579.491 102.222 579.623 101.633 580.037 100.916C580.469 100.168 581.273 100.071 582.411 100.728C583.112 101.133 583.603 101.686 583.803 102.384L584.739 102.924C584.739 102.924 585.015 102.626 585.474 101.831C585.038 101.289 583.998 100.355 583 99.7792C581.285 98.7892 579.604 98.8577 578.767 100.307C578.02 101.601 578.508 102.88 579.831 104.081C581.743 105.808 581.621 106.237 581.135 107.078C580.712 107.811 579.82 108.024 578.573 107.304C577.715 106.809 577.184 106.253 577.063 105.455L576.112 104.906C575.766 105.434 575.696 105.518 575.347 106.086C575.665 106.436 576.233 107.324 577.885 108.278ZM585.679 112.778C587.597 113.885 589.372 113.871 590.38 112.125C591.145 110.8 590.425 109.491 589.269 108.47C587.285 106.722 587.417 106.133 587.831 105.416C588.263 104.668 589.067 104.571 590.205 105.228C590.907 105.633 591.397 106.186 591.598 106.884L592.533 107.424C592.533 107.424 592.809 107.126 593.268 106.331C592.833 105.789 591.792 104.855 590.794 104.279C589.08 103.289 587.398 103.358 586.561 104.807C585.814 106.101 586.302 107.38 587.625 108.581C589.537 110.308 589.415 110.737 588.929 111.578C588.506 112.311 587.614 112.524 586.367 111.804C585.51 111.309 584.978 110.753 584.857 109.955L583.906 109.406C583.56 109.934 583.49 110.018 583.142 110.586C583.459 110.936 584.027 111.824 585.679 112.778ZM594.674 117.971C596.248 118.88 598.229 118.798 599.255 117.021L601.649 112.874C601.973 112.313 602.116 112.209 602.564 112.405L602.965 112.574L603.415 111.795L600.422 110.067L599.972 110.846L600.32 111.109C600.713 111.399 600.695 111.575 600.371 112.136L598.013 116.22C597.311 117.436 596.255 117.429 595.21 116.826C593.62 115.908 593.473 114.327 593.473 114.327L597.055 108.123L594.935 106.899L594.476 107.694L594.839 107.965C595.217 108.246 595.201 108.382 594.877 108.944L591.97 113.979C591.619 114.587 591.469 114.666 591.124 114.508L590.747 114.333L590.243 115.206L592.036 116.241C592.267 116.021 592.545 115.682 592.756 115.389C592.756 115.389 592.897 116.945 594.674 117.971ZM603.137 122.858C604.572 123.686 605.637 123.532 606.324 123.243C606.155 123.644 606.084 124.019 606.049 124.331L607.764 125.321L608.268 124.448C607.633 123.999 607.603 123.836 607.963 123.212L610.861 118.193C611.185 117.631 611.328 117.527 611.776 117.723L612.177 117.893L612.627 117.113L609.634 115.385L609.184 116.165L609.531 116.427C609.925 116.717 609.907 116.893 609.583 117.455L606.946 122.022C606.107 122.431 605.015 122.487 603.892 121.839C602.817 121.218 602.325 120.269 603 119.1L606.267 113.441L604.147 112.217L603.688 113.012L604.051 113.284C604.429 113.565 604.413 113.701 604.089 114.262L601.65 118.486C600.633 120.248 601.501 121.913 603.137 122.858ZM604.435 126.434C604.147 126.933 603.744 127.054 603.246 126.766C602.747 126.478 602.635 126.06 602.923 125.561L603.652 124.298L601.812 123.236L601.332 123.707L601.152 124.019L601.979 124.496L601.7 124.979C601.151 125.93 601.456 127.021 602.688 127.732C603.904 128.434 605.048 128.18 605.597 127.229L606.38 125.873L605.164 125.171L604.435 126.434ZM616.308 133.081C618.428 134.305 620.463 133.983 621.714 131.816L624.9 126.298C625.224 125.737 625.367 125.633 625.815 125.829L626.216 125.998L626.666 125.219L623.673 123.491L623.223 124.27L623.57 124.533C623.964 124.823 623.946 124.999 623.622 125.56L621.489 129.255C620.906 129.687 619.893 130.038 618.677 129.336C617.477 128.643 617.135 127.759 617.927 126.388L619.025 124.486C620.087 122.646 619.601 120.932 617.481 119.708C615.813 118.745 614.186 118.72 613.096 119.67L612.745 120.278L613.673 121.624C612.883 121.48 612.133 121.879 611.683 122.658L610.333 124.996C609.784 125.947 610.236 126.749 611 127.19L611.982 127.757L612.48 127.254L612.696 126.88L611.823 126.376C611.542 126.214 611.468 125.984 611.675 125.625L612.962 123.396C613.385 122.663 613.873 122.322 614.611 122.519L614.953 121.927L614.153 120.613C614.829 120.089 615.854 120.223 616.851 120.799C618.176 121.564 618.413 122.594 617.747 123.748L616.613 125.712C615.587 127.489 615.99 129.239 617.876 130.328C619.03 130.994 620.099 130.905 620.822 130.553L620.498 131.114C619.508 132.829 618.278 132.763 616.938 131.989C615.955 131.422 615.565 130.802 615.426 130.036L614.413 129.451C614.177 129.751 613.894 130.17 613.669 130.559C614.11 131.271 615.092 132.379 616.308 133.081Z" fill="#FF8058"/>
</g>
</svg>
