<svg width="713" height="198" viewBox="0 0 713 198" fill="none" xmlns="http://www.w3.org/2000/svg">
<g id="03">
<g id="Component 8">
<path id="Union" d="M448.022 136.726L448.551 137.575C449.008 137.29 449.158 136.693 448.888 136.226L448.022 136.726ZM475.511 184.339L476.377 183.839C476.108 183.371 475.516 183.202 475.04 183.456L475.511 184.339ZM475.519 184.352L474.653 184.852C474.929 185.33 475.541 185.494 476.019 185.218L475.519 184.352ZM689.897 60.5811L690.397 61.4471C690.626 61.3145 690.794 61.0961 690.862 60.8399C690.931 60.5837 690.895 60.3108 690.763 60.0811L689.897 60.5811ZM689.873 60.5403L689.324 59.7048C688.881 59.9958 688.742 60.5816 689.007 61.0403L689.873 60.5403ZM662.415 12.9823L661.549 13.4823C661.814 13.9411 662.391 14.1137 662.864 13.8759L662.415 12.9823ZM662.392 12.9416L663.258 12.4416C663.125 12.2119 662.907 12.0443 662.651 11.9757C662.395 11.9071 662.122 11.943 661.892 12.0756L662.392 12.9416ZM660.988 13.7523L661.488 14.6183L660.988 13.7523ZM448.82 136.248L449.32 137.114L448.82 136.248ZM448.014 136.713L447.514 135.847C447.285 135.979 447.117 136.198 447.048 136.454C446.98 136.71 447.016 136.983 447.148 137.213L448.014 136.713ZM447.494 135.877C434.5 143.966 430.176 160.965 437.886 174.32L439.618 173.32C432.449 160.903 436.47 145.095 448.551 137.575L447.494 135.877ZM437.886 174.32C445.596 187.674 462.48 192.429 475.982 185.221L475.04 183.456C462.487 190.159 446.787 185.737 439.618 173.32L437.886 174.32ZM474.645 184.839L474.653 184.852L476.385 183.852L476.377 183.839L474.645 184.839ZM476.019 185.218L690.397 61.4471L689.397 59.7151L475.019 183.486L476.019 185.218ZM690.763 60.0811L690.739 60.0403L689.007 61.0403L689.031 61.0811L690.763 60.0811ZM697.694 24.3197C704.75 36.5421 700.966 52.0495 689.324 59.7048L690.422 61.3759C702.945 53.142 707.015 36.4651 699.426 23.3197L697.694 24.3197ZM662.864 13.8759C675.315 7.62122 690.637 12.0973 697.694 24.3197L699.426 23.3197C691.836 10.1744 675.358 5.36125 661.967 12.0887L662.864 13.8759ZM663.281 12.4823L663.258 12.4416L661.526 13.4416L661.549 13.4823L663.281 12.4823ZM661.892 12.0756L660.488 12.8863L661.488 14.6183L662.892 13.8077L661.892 12.0756ZM660.488 12.8863L448.32 135.382L449.32 137.114L661.488 14.6183L660.488 12.8863ZM448.32 135.382L447.514 135.847L448.514 137.579L449.32 137.114L448.32 135.382ZM447.148 137.213L447.156 137.226L448.888 136.226L448.88 136.213L447.148 137.213Z" fill="white"/>
</g>
<g id="Component 9">
<path id="Union_2" d="M263.512 13.3008L263.041 14.183C263.516 14.437 264.108 14.2679 264.378 13.8008L263.512 13.3008ZM236.022 60.9135L236.888 61.4135C237.158 60.9464 237.009 60.3496 236.551 60.0646L236.022 60.9135ZM236.015 60.9269L235.149 60.4269C234.872 60.9052 235.036 61.5168 235.515 61.7929L236.015 60.9269ZM450.392 184.698L449.892 185.564C450.37 185.84 450.982 185.676 451.258 185.198L450.392 184.698ZM450.416 184.657L450.865 183.764C450.391 183.526 449.814 183.698 449.55 184.157L450.416 184.657ZM477.873 137.099L477.007 136.599C476.742 137.058 476.881 137.644 477.324 137.935L477.873 137.099ZM477.897 137.058L478.763 137.558C478.895 137.329 478.931 137.056 478.863 136.8C478.794 136.543 478.626 136.325 478.397 136.192L477.897 137.058ZM476.493 136.248L475.993 137.114L476.493 136.248ZM264.324 13.7523L264.824 12.8863L264.324 13.7523ZM263.519 13.2875L264.019 12.4214C263.541 12.1453 262.929 12.3092 262.653 12.7875L263.519 13.2875ZM263.983 12.4187C250.481 5.21006 233.597 9.96522 225.886 23.3197L227.618 24.3197C234.787 11.9026 250.487 7.48071 263.041 14.183L263.983 12.4187ZM225.886 23.3197C218.176 36.6742 222.5 53.6738 235.494 61.7625L236.551 60.0646C224.47 52.5441 220.449 36.7368 227.618 24.3197L225.886 23.3197ZM235.156 60.4135L235.149 60.4269L236.881 61.4269L236.888 61.4135L235.156 60.4135ZM235.515 61.7929L449.892 185.564L450.892 183.832L236.515 60.0609L235.515 61.7929ZM451.258 185.198L451.282 185.157L449.55 184.157L449.526 184.198L451.258 185.198ZM485.694 173.32C478.637 185.542 463.315 190.018 450.865 183.764L449.967 185.551C463.359 192.278 479.837 187.465 487.426 174.32L485.694 173.32ZM477.324 137.935C488.966 145.59 492.751 161.097 485.694 173.32L487.426 174.32C495.015 161.174 490.945 144.497 478.423 136.264L477.324 137.935ZM478.739 137.599L478.763 137.558L477.031 136.558L477.007 136.599L478.739 137.599ZM478.397 136.192L476.993 135.382L475.993 137.114L477.397 137.924L478.397 136.192ZM476.993 135.382L264.824 12.8863L263.824 14.6183L475.993 137.114L476.993 135.382ZM264.824 12.8863L264.019 12.4214L263.019 14.1535L263.824 14.6183L264.824 12.8863ZM262.653 12.7875L262.646 12.8008L264.378 13.8008L264.385 13.7875L262.653 12.7875Z" fill="white"/>
</g>
<g id="Component 10">
<path id="Union_3" d="M232.041 16.5126L232.603 17.3401C232.631 17.3211 232.658 17.3007 232.684 17.2789L232.041 16.5126ZM236.669 13.372L237.145 14.2516C237.174 14.2357 237.203 14.2182 237.23 14.1994L236.669 13.372ZM236.793 13.2876L237.659 12.7876C237.52 12.547 237.287 12.3751 237.017 12.313C236.746 12.2508 236.461 12.3042 236.232 12.4602L236.793 13.2876ZM236.801 13.3011L235.935 13.8011C236.205 14.2682 236.796 14.4372 237.272 14.1832L236.801 13.3011ZM264.29 60.9138L263.762 60.0648C263.304 60.3498 263.154 60.9466 263.424 61.4138L264.29 60.9138ZM264.298 60.9271L264.732 61.828C264.982 61.7072 265.171 61.4876 265.253 61.2217C265.335 60.9559 265.303 60.668 265.164 60.4271L264.298 60.9271ZM264.166 60.9908L263.731 60.09C263.701 60.1048 263.671 60.1212 263.641 60.1391L264.166 60.9908ZM259.028 63.4663L258.689 62.5254C258.657 62.5371 258.625 62.5504 258.594 62.5654L259.028 63.4663ZM24.1082 176.663L23.2421 177.163C23.5038 177.616 24.0708 177.791 24.5423 177.564L24.1082 176.663ZM24.1045 176.657L24.9705 176.157C24.7027 175.693 24.1171 175.522 23.6422 175.77L24.1045 176.657ZM16.2193 162.999L16.7561 163.843C17.2079 163.555 17.3531 162.963 17.0853 162.499L16.2193 162.999ZM16.2165 162.994L15.6549 162.167C15.2212 162.461 15.0884 163.04 15.3504 163.494L16.2165 162.994ZM235.488 12.8865C234.02 13.734 232.656 14.6928 231.399 15.7463L232.684 17.2789C233.852 16.2997 235.121 15.4077 236.488 14.6186L235.488 12.8865ZM236.193 12.4924C235.957 12.6201 235.722 12.7515 235.488 12.8865L236.488 14.6186C236.706 14.4928 236.925 14.3705 237.145 14.2516L236.193 12.4924ZM236.232 12.4602L236.107 12.5446L237.23 14.1994L237.355 14.1151L236.232 12.4602ZM237.667 12.8011L237.659 12.7876L235.927 13.7876L235.935 13.8011L237.667 12.8011ZM274.426 23.3199C266.716 9.96548 249.832 5.21032 236.33 12.4189L237.272 14.1832C249.825 7.48097 265.525 11.9028 272.694 24.3199L274.426 23.3199ZM264.819 61.7627C277.812 53.6741 282.136 36.6744 274.426 23.3199L272.694 24.3199C279.863 36.7371 275.843 52.5443 263.762 60.0648L264.819 61.7627ZM265.164 60.4271L265.156 60.4138L263.424 61.4138L263.432 61.4271L265.164 60.4271ZM264.6 61.8917L264.732 61.828L263.864 60.0262L263.731 60.09L264.6 61.8917ZM263.993 62.258C264.228 62.1223 264.46 61.9838 264.69 61.8425L263.641 60.1391C263.428 60.2707 263.211 60.3996 262.993 60.5259L263.993 62.258ZM259.367 64.4072C260.944 63.8395 262.492 63.1246 263.993 62.258L262.993 60.5259C261.595 61.3329 260.155 61.9978 258.689 62.5254L259.367 64.4072ZM24.5423 177.564L259.462 64.3671L258.594 62.5654L23.6741 175.762L24.5423 177.564ZM23.2385 177.157L23.2421 177.163L24.9742 176.163L24.9705 176.157L23.2385 177.157ZM12.7601 174.101C15.1506 178.242 20.3673 179.733 24.5667 177.544L23.6422 175.77C20.3885 177.466 16.3448 176.31 14.4922 173.101L12.7601 174.101ZM15.6825 162.156C11.687 164.698 10.3696 169.961 12.7601 174.101L14.4922 173.101C12.6395 169.893 13.6604 165.813 16.7561 163.843L15.6825 162.156ZM15.3504 163.494L15.3533 163.499L17.0853 162.499L17.0825 162.494L15.3504 163.494ZM231.48 15.6852L15.6549 162.167L16.778 163.822L232.603 17.3401L231.48 15.6852Z" fill="white"/>
</g>
<path id="&#224;&#185;&#132;&#224;&#184;&#161;&#224;&#185;&#136;&#224;&#184;&#132;&#224;&#184;&#163;&#224;&#184;&#154;" d="M297.952 54.9562L293.354 52.3012L293.147 52.6598L292.924 53.4045L295.855 55.0965C294.683 55.002 293.816 55.3531 292.862 57.0055L288.085 65.2428C287.599 66.0845 287.91 66.95 288.736 67.427C289.032 67.598 289.262 67.6682 289.476 67.7294L289.989 67.2361L290.151 66.9555L289.59 66.6315C289.31 66.4695 289.235 66.2392 289.442 65.8806L294.099 57.8862C295.33 55.7907 296.192 55.6651 297.34 56.0163L297.952 54.9562ZM295.356 71.3318C296.93 72.2408 298.911 72.1581 299.937 70.381L302.331 66.2345C302.655 65.6733 302.798 65.569 303.246 65.7652L303.647 65.9345L304.097 65.1551L301.104 63.4271L300.654 64.2065L301.001 64.4692C301.395 64.759 301.376 64.9353 301.052 65.4965L298.694 69.5807C297.992 70.7966 296.936 70.7896 295.892 70.1866C294.302 69.2686 294.155 67.6873 294.155 67.6873L297.737 61.4831L295.617 60.2591L295.158 61.0541L295.521 61.3258C295.899 61.6066 295.883 61.7427 295.559 62.3039L292.652 67.339C292.301 67.9469 292.151 68.0266 291.805 67.8688L291.429 67.693L290.925 68.5659L292.718 69.6009C292.949 69.3809 293.227 69.0428 293.438 68.749C293.438 68.749 293.578 70.3058 295.356 71.3318ZM303.952 63.3878L305.212 61.2054L303.965 60.4854L302.705 62.6678L303.952 63.3878ZM308.782 77.7742C308.388 77.4844 308.407 77.3081 308.74 76.7314L310.909 72.9745C311.971 71.1351 311.419 69.1746 309.221 67.9056C307.023 66.6366 305.05 67.1391 303.988 68.9785L301.801 72.7665C301.468 73.3433 301.358 73.4254 300.925 73.2382L300.509 73.06L300.059 73.8394L302.179 75.0634L302.719 74.1281C303.79 72.273 305.186 71.9779 305.919 72.4009C306.137 72.5269 306.257 72.6792 306.248 72.8399L307.183 73.3799L307.846 72.4117C307.733 72.1388 307.342 71.8088 306.936 71.5748C306.219 71.1608 305.211 71.0358 304.159 71.6339L305.266 69.7165C306.022 68.4071 307.188 68.1868 308.591 68.9968C309.994 69.8068 310.387 70.9271 309.631 72.2365L307.462 75.9934C307.129 76.5701 306.985 76.6744 306.537 76.4782L306.136 76.309L305.686 77.0884L308.679 78.8164L309.129 78.037L308.782 77.7742ZM312.727 81.3615C314.645 82.4685 316.42 82.4541 317.428 80.7082C318.193 79.3831 317.473 78.0738 316.317 77.0528C314.333 75.3048 314.465 74.7159 314.879 73.9989C315.311 73.2506 316.115 73.1537 317.253 73.8107C317.955 74.2157 318.446 74.7694 318.646 75.4669L319.581 76.0069C319.581 76.0069 319.857 75.7089 320.316 74.9139C319.881 74.3717 318.84 73.4382 317.842 72.8622C316.128 71.8722 314.446 71.9407 313.609 73.3904C312.862 74.6842 313.35 75.9635 314.673 77.1638C316.585 78.8915 316.463 79.3196 315.977 80.1614C315.554 80.894 314.662 81.1066 313.415 80.3866C312.558 79.8916 312.026 79.3356 311.905 78.538L310.954 77.989C310.608 78.5166 310.538 78.6011 310.19 79.1689C310.507 79.5186 311.075 80.4075 312.727 81.3615ZM321.426 86.3835C323.702 87.6975 325.675 87.195 326.737 85.3556L328.924 81.5676C329.248 81.0064 329.392 80.9021 329.84 81.0983L330.241 81.2675L330.682 80.5037L327.689 78.7757L327.248 79.5395L327.595 79.8023C327.989 80.0921 327.97 80.2684 327.646 80.8296L325.459 84.6176C324.793 85.7711 323.537 86.1473 322.056 85.2923C320.575 84.4373 320.272 83.1611 320.938 82.0076L324.025 76.6607L321.905 75.4367L321.446 76.2317L321.809 76.5035C322.187 76.7843 322.171 76.9204 321.847 77.4816L319.66 81.2696C318.598 83.109 319.15 85.0695 321.426 86.3835Z" fill="#FF8058"/>
<path id="&#224;&#184;&#132;&#224;&#184;&#163;&#224;&#184;&#154;" d="M196.612 70.4372C196.164 70.6335 196.021 70.5292 195.688 69.9524L193.519 66.1956C192.457 64.3562 190.483 63.8537 188.285 65.1227C186.087 66.3917 185.536 68.3522 186.598 70.1916L188.785 73.9796C189.118 74.5564 189.134 74.6925 188.755 74.9732L188.393 75.245L188.843 76.0244L190.963 74.8004L190.423 73.8651C189.352 72.0101 189.794 70.6529 190.527 70.2299C190.745 70.1039 190.937 70.0763 191.072 70.165L192.007 69.625L191.5 68.5667C191.207 68.5278 190.726 68.7019 190.32 68.9359C189.603 69.3499 188.991 70.1608 188.983 71.371L187.876 69.4536C187.12 68.1442 187.512 67.0239 188.915 66.2139C190.318 65.4039 191.485 65.6242 192.241 66.9336L194.41 70.6904C194.743 71.2672 194.761 71.4435 194.367 71.7332L194.02 71.996L194.47 72.7754L197.463 71.0474L197.013 70.268L196.612 70.4372ZM201.691 68.8141C203.609 67.7071 204.484 66.1627 203.476 64.4168C202.711 63.0917 201.217 63.0604 199.755 63.5514C197.249 64.3954 196.805 63.9865 196.391 63.2695C195.959 62.5212 196.277 61.7763 197.415 61.1193C198.117 60.7143 198.842 60.566 199.546 60.7415L200.481 60.2015C200.481 60.2015 200.361 59.8135 199.902 59.0185C199.215 59.1243 197.886 59.5589 196.888 60.1349C195.174 61.1249 194.392 62.6153 195.229 64.065C195.976 65.3588 197.328 65.5761 199.029 65.0305C201.481 64.2381 201.791 64.5582 202.277 65.4C202.7 66.1327 202.438 67.0113 201.191 67.7313C200.334 68.2263 199.586 68.4082 198.835 68.1146L197.884 68.6636C198.168 69.2272 198.206 69.3297 198.524 69.9155C198.985 69.8152 200.039 69.7681 201.691 68.8141ZM210.39 63.7921C212.666 62.4781 213.217 60.5176 212.155 58.6782L209.968 54.8902C209.644 54.329 209.626 54.1527 210.02 53.8629L210.367 53.6002L209.926 52.8363L206.933 54.5643L207.374 55.3282L207.775 55.1589C208.223 54.9627 208.366 55.067 208.69 55.6282L210.877 59.4162C211.543 60.5697 211.241 61.8459 209.76 62.7009C208.279 63.5559 207.022 63.1797 206.356 62.0262L203.269 56.6793L201.149 57.9033L201.608 58.6983L202.025 58.5201C202.457 58.3329 202.567 58.415 202.891 58.9762L205.078 62.7642C206.14 64.6036 208.114 65.1061 210.39 63.7921Z" fill="white"/>
<g id="Component 64">
<g id="Frame 756">
<rect x="236" y="22" width="30" height="30" rx="15" fill="white"/>
<path id="1" d="M250.535 43.716C253.379 43.716 255.305 42.258 255.305 40.008C255.305 38.28 254.189 37.254 252.695 36.984V36.876C253.991 36.642 255.089 35.652 255.089 34.05C255.089 32.034 253.343 30.72 250.643 30.72C248.483 30.72 247.259 31.584 246.305 32.826L247.997 34.41C248.627 33.456 249.545 32.916 250.553 32.916C251.615 32.916 252.245 33.528 252.245 34.428V34.554C252.245 35.328 251.651 35.904 250.319 35.904H249.149V38.154H250.283C251.651 38.154 252.479 38.676 252.479 39.702V39.81C252.479 40.854 251.759 41.52 250.535 41.52C249.185 41.52 248.429 40.782 247.889 39.756L245.891 41.304C246.701 42.582 247.979 43.716 250.535 43.716Z" fill="black"/>
</g>
</g>
</g>
</svg>
