<svg width="288" height="435" viewBox="0 0 288 435" fill="none" xmlns="http://www.w3.org/2000/svg">
<g id="15">
<g id="Component 46">
<path id="Union" d="M28.1833 300.429L28.6191 299.529C28.5886 299.515 28.5574 299.502 28.5257 299.49L28.1833 300.429ZM23.1497 297.992L23.6736 297.141C23.6451 297.123 23.6157 297.107 23.5855 297.092L23.1497 297.992ZM23.0145 297.927L22.1485 297.427C22.0096 297.668 21.977 297.955 22.0586 298.221C22.1402 298.486 22.3287 298.706 22.5787 298.827L23.0145 297.927ZM23.0223 297.913L23.8883 298.413C24.158 297.946 24.0086 297.35 23.5507 297.065L23.0223 297.913ZM50.5115 250.301L50.0405 251.183C50.5163 251.437 51.1078 251.268 51.3775 250.801L50.5115 250.301ZM50.5192 250.287L51.0823 249.461C50.8524 249.304 50.5677 249.251 50.2965 249.313C50.0254 249.374 49.7922 249.547 49.6532 249.787L50.5192 250.287ZM50.6405 250.37L50.0774 251.197C50.1056 251.216 50.1348 251.234 50.1649 251.25L50.6405 250.37ZM55.353 253.581L54.7075 254.345C54.7338 254.368 54.7613 254.388 54.7898 254.408L55.353 253.581ZM270.844 400.43L271.71 400.93C271.972 400.477 271.84 399.898 271.407 399.603L270.844 400.43ZM270.841 400.436L269.975 399.936C269.707 400.4 269.852 400.992 270.304 401.28L270.841 400.436ZM262.955 414.094L263.418 413.207C262.943 412.959 262.357 413.13 262.089 413.594L262.955 414.094ZM262.953 414.099L262.517 414.999C262.989 415.227 263.557 415.053 263.819 414.599L262.953 414.099ZM23.3197 299.258C24.7876 300.105 26.3002 300.808 27.8409 301.369L28.5257 299.49C27.0937 298.968 25.6865 298.315 24.3197 297.526L23.3197 299.258ZM22.6258 298.844C22.8545 298.985 23.0858 299.123 23.3197 299.258L24.3197 297.526C24.1019 297.4 23.8865 297.272 23.6736 297.141L22.6258 298.844ZM22.5787 298.827L22.7139 298.892L23.5855 297.092L23.4503 297.027L22.5787 298.827ZM22.1562 297.413L22.1485 297.427L23.8805 298.427L23.8883 298.413L22.1562 297.413ZM12.8863 260.32C5.17609 273.674 9.50006 290.674 22.4938 298.762L23.5507 297.065C11.4697 289.544 7.44931 273.737 14.6184 261.32L12.8863 260.32ZM50.9824 249.419C37.4806 242.21 20.5965 246.965 12.8863 260.32L14.6184 261.32C21.7874 248.903 37.4871 244.481 50.0405 251.183L50.9824 249.419ZM49.6532 249.787L49.6454 249.801L51.3775 250.801L51.3852 250.787L49.6532 249.787ZM51.2036 249.544L51.0823 249.461L49.956 251.114L50.0774 251.197L51.2036 249.544ZM51.8243 249.886C51.5894 249.751 51.3533 249.619 51.1161 249.49L50.1649 251.25C50.3857 251.369 50.6055 251.492 50.8243 251.618L51.8243 249.886ZM55.9984 252.818C54.7185 251.736 53.3254 250.753 51.8243 249.886L50.8243 251.618C52.2221 252.425 53.5178 253.34 54.7075 254.345L55.9984 252.818ZM271.407 399.603L55.9161 252.755L54.7898 254.408L270.281 401.256L271.407 399.603ZM271.707 400.936L271.71 400.93L269.978 399.93L269.975 399.936L271.707 400.936ZM274.3 411.538C276.69 407.398 275.373 402.135 271.377 399.592L270.304 401.28C273.399 403.25 274.42 407.33 272.568 410.538L274.3 411.538ZM262.493 414.98C266.693 417.169 271.909 415.679 274.3 411.538L272.568 410.538C270.715 413.747 266.671 414.903 263.418 413.207L262.493 414.98ZM263.819 414.599L263.821 414.594L262.089 413.594L262.087 413.599L263.819 414.599ZM27.7475 301.33L262.517 414.999L263.388 413.199L28.6191 299.529L27.7475 301.33Z" fill="white"/>
</g>
<g id="Component 47">
<path id="Union_2" d="M10.0142 274.425L11.0136 274.392C10.9957 273.853 10.5536 273.425 10.0142 273.425L10.0142 274.425ZM64.9926 274.425L64.9926 273.425C64.4532 273.425 64.0111 273.853 63.9932 274.392L64.9926 274.425ZM65.0081 274.425L65.0081 275.425C65.5604 275.425 66.0081 274.977 66.0081 274.425L65.0081 274.425ZM65.0081 26.8832L66.0081 26.8832C66.0081 26.618 65.9028 26.3637 65.7152 26.1762C65.5277 25.9886 65.2733 25.8832 65.0081 25.8832L65.0081 26.8832ZM64.9611 26.8832L63.9627 26.9413C63.9935 27.4701 64.4313 27.8832 64.9611 27.8832L64.9611 26.8832ZM10.0458 26.8832L10.0458 27.8832C10.5756 27.8832 11.0134 27.4701 11.0441 26.9413L10.0458 26.8832ZM9.99882 26.8832L9.99882 25.8832C9.7336 25.8832 9.47924 25.9886 9.29171 26.1761C9.10417 26.3637 8.99882 26.618 8.99882 26.8832L9.99882 26.8832ZM9.99882 28.5046L10.9988 28.5046L9.99882 28.5046ZM9.99878 273.495L10.9988 273.495L9.99878 273.495ZM9.99878 274.425L8.99878 274.425C8.99878 274.69 9.10414 274.945 9.29168 275.132C9.47921 275.32 9.73357 275.425 9.99878 275.425L9.99878 274.425ZM9.01475 274.458C9.52282 289.755 22.083 302 37.5034 302L37.5034 300C23.1653 300 11.486 288.615 11.0136 274.392L9.01475 274.458ZM37.5034 302C52.9238 302 65.484 289.756 65.9921 274.458L63.9932 274.392C63.5208 288.615 51.8415 300 37.5034 300L37.5034 302ZM64.9926 275.425L65.0081 275.425L65.0081 273.425L64.9926 273.425L64.9926 275.425ZM66.0081 274.425L66.0081 26.8832L64.0081 26.8832L64.0081 274.425L66.0081 274.425ZM65.0081 25.8832L64.9611 25.8832L64.9611 27.8832L65.0081 27.8832L65.0081 25.8832ZM37.5034 2C51.6167 2.00001 63.1541 13.0313 63.9627 26.9413L65.9594 26.8252C65.0896 11.8638 52.6824 5.59727e-06 37.5034 3.60679e-06L37.5034 2ZM11.0441 26.9413C11.8527 13.0313 23.3902 2 37.5034 2L37.5034 3.60679e-06C22.3245 1.61632e-06 9.91723 11.8638 9.0475 26.8252L11.0441 26.9413ZM10.0458 25.8832L9.99882 25.8832L9.99882 27.8832L10.0458 27.8832L10.0458 25.8832ZM8.99882 26.8832L8.99882 28.5046L10.9988 28.5046L10.9988 26.8832L8.99882 26.8832ZM8.99882 28.5046L8.99878 273.495L10.9988 273.495L10.9988 28.5046L8.99882 28.5046ZM8.99878 273.495L8.99878 274.425L10.9988 274.425L10.9988 273.495L8.99878 273.495ZM9.99878 275.425L10.0142 275.425L10.0142 273.425L9.99878 273.425L9.99878 275.425Z" fill="white"/>
</g>
<g id="Component 64">
<g id="Frame 756">
<rect x="22.9998" y="259" width="30" height="30" rx="15" fill="white"/>
<path id="1" d="M28.8988 280.5H37.6468V278.322H34.9828V267.936H30.8428L27.8368 271.896L29.5648 273.246L32.1208 269.898H32.2828V278.322H28.8988V280.5ZM43.3098 280.716C46.4058 280.716 48.1338 278.826 48.1338 276.27C48.1338 273.75 46.4058 272.274 44.2638 272.274C42.6618 272.274 42.0678 273.084 41.5638 274.272H41.4198L41.6898 270.294H47.3958V267.936H39.7098L39.2418 275.046L41.4558 275.352C41.7798 274.974 42.4278 274.47 43.3998 274.47C44.5698 274.47 45.2898 275.19 45.2898 276.342V276.486C45.2898 277.71 44.6238 278.52 43.3278 278.52C42.0318 278.52 41.3298 277.728 40.7898 276.756L38.8278 278.304C39.5838 279.582 40.8798 280.716 43.3098 280.716Z" fill="black"/>
</g>
</g>
</g>
</svg>
