<svg width="927" height="321" viewBox="0 0 927 321" fill="none" xmlns="http://www.w3.org/2000/svg">
<g id="07">
<g id="Component 20">
<path id="Union" d="M263.512 136.301L263.041 137.183C263.516 137.437 264.108 137.268 264.378 136.801L263.512 136.301ZM236.022 183.913L236.888 184.413C237.158 183.946 237.009 183.35 236.551 183.064L236.022 183.913ZM236.015 183.927L235.149 183.427C234.872 183.905 235.036 184.517 235.515 184.793L236.015 183.927ZM450.392 307.698L449.892 308.564C450.37 308.84 450.982 308.676 451.258 308.198L450.392 307.698ZM450.416 307.657L450.865 306.763C450.391 306.526 449.814 306.698 449.55 307.157L450.416 307.657ZM477.873 260.099L477.007 259.599C476.742 260.058 476.881 260.644 477.324 260.935L477.873 260.099ZM477.897 260.058L478.763 260.558C479.039 260.08 478.875 259.468 478.397 259.192L477.897 260.058ZM476.493 259.248L475.993 260.114L476.493 259.248ZM264.324 136.752L264.824 135.886L264.324 136.752ZM263.519 136.287L264.019 135.421C263.541 135.145 262.929 135.309 262.653 135.787L263.519 136.287ZM263.983 135.419C250.481 128.21 233.597 132.965 225.886 146.32L227.618 147.32C234.787 134.902 250.487 130.481 263.041 137.183L263.983 135.419ZM225.886 146.32C218.176 159.674 222.5 176.674 235.494 184.762L236.551 183.064C224.47 175.544 220.449 159.737 227.618 147.32L225.886 146.32ZM235.156 183.413L235.149 183.427L236.881 184.427L236.888 184.413L235.156 183.413ZM235.515 184.793L449.892 308.564L450.892 306.832L236.515 183.061L235.515 184.793ZM451.258 308.198L451.282 308.157L449.55 307.157L449.526 307.198L451.258 308.198ZM485.694 296.32C478.637 308.542 463.315 313.018 450.865 306.763L449.967 308.551C463.359 315.278 479.837 310.465 487.426 297.32L485.694 296.32ZM477.324 260.935C488.966 268.59 492.751 284.097 485.694 296.32L487.426 297.32C495.015 284.174 490.945 267.497 478.423 259.264L477.324 260.935ZM478.739 260.599L478.763 260.558L477.031 259.558L477.007 259.599L478.739 260.599ZM478.397 259.192L476.993 258.382L475.993 260.114L477.397 260.924L478.397 259.192ZM476.993 258.382L264.824 135.886L263.824 137.618L475.993 260.114L476.993 258.382ZM264.824 135.886L264.019 135.421L263.019 137.153L263.824 137.618L264.824 135.886ZM262.653 135.787L262.646 135.801L264.378 136.801L264.385 136.787L262.653 135.787Z" fill="white"/>
</g>
<g id="Component 21">
<path id="Union_2" d="M232.041 139.513L232.603 140.34C232.631 140.321 232.658 140.301 232.684 140.279L232.041 139.513ZM236.669 136.372L237.145 137.252C237.174 137.236 237.203 137.218 237.23 137.199L236.669 136.372ZM236.793 136.288L237.659 135.788C237.52 135.547 237.287 135.375 237.017 135.313C236.746 135.251 236.461 135.304 236.232 135.46L236.793 136.288ZM236.801 136.301L235.935 136.801C236.205 137.268 236.796 137.437 237.272 137.183L236.801 136.301ZM264.29 183.914L263.762 183.065C263.304 183.35 263.154 183.947 263.424 184.414L264.29 183.914ZM264.298 183.927L264.732 184.828C264.982 184.707 265.171 184.488 265.253 184.222C265.335 183.956 265.303 183.668 265.164 183.427L264.298 183.927ZM264.166 183.991L263.731 183.09C263.701 183.105 263.671 183.121 263.641 183.139L264.166 183.991ZM259.028 186.466L258.689 185.525C258.657 185.537 258.625 185.55 258.594 185.565L259.028 186.466ZM24.1082 299.663L23.2421 300.163C23.5038 300.616 24.0707 300.791 24.5423 300.564L24.1082 299.663ZM24.1045 299.657L24.9705 299.157C24.7027 298.693 24.1171 298.522 23.6422 298.77L24.1045 299.657ZM16.2193 285.999L16.7561 286.843C17.2079 286.555 17.3531 285.963 17.0853 285.499L16.2193 285.999ZM16.2164 285.994L15.6549 285.167C15.2212 285.461 15.0884 286.04 15.3504 286.494L16.2164 285.994ZM235.488 135.886C234.02 136.734 232.656 137.693 231.399 138.746L232.684 140.279C233.852 139.3 235.121 138.408 236.488 137.619L235.488 135.886ZM236.193 135.492C235.957 135.62 235.722 135.751 235.488 135.886L236.488 137.619C236.706 137.493 236.925 137.37 237.145 137.252L236.193 135.492ZM236.232 135.46L236.107 135.545L237.23 137.199L237.355 137.115L236.232 135.46ZM237.667 135.801L237.659 135.788L235.927 136.788L235.935 136.801L237.667 135.801ZM274.426 146.32C266.716 132.965 249.832 128.21 236.33 135.419L237.272 137.183C249.825 130.481 265.525 134.903 272.694 147.32L274.426 146.32ZM264.819 184.763C277.812 176.674 282.136 159.674 274.426 146.32L272.694 147.32C279.863 159.737 275.843 175.544 263.762 183.065L264.819 184.763ZM265.164 183.427L265.156 183.414L263.424 184.414L263.432 184.427L265.164 183.427ZM264.6 184.892L264.732 184.828L263.864 183.026L263.731 183.09L264.6 184.892ZM263.993 185.258C264.228 185.122 264.46 184.984 264.69 184.842L263.641 183.139C263.428 183.271 263.211 183.4 262.993 183.526L263.993 185.258ZM259.367 187.407C260.944 186.839 262.492 186.125 263.993 185.258L262.993 183.526C261.595 184.333 260.155 184.998 258.689 185.525L259.367 187.407ZM24.5423 300.564L259.462 187.367L258.594 185.565L23.6741 298.762L24.5423 300.564ZM23.2384 300.157L23.2421 300.163L24.9742 299.163L24.9705 299.157L23.2384 300.157ZM12.7601 297.101C15.1506 301.242 20.3673 302.732 24.5667 300.543L23.6422 298.77C20.3885 300.466 16.3448 299.31 14.4922 296.101L12.7601 297.101ZM15.6824 285.155C11.687 287.698 10.3696 292.961 12.7601 297.101L14.4922 296.101C12.6395 292.892 13.6604 288.813 16.7561 286.843L15.6824 285.155ZM15.3504 286.494L15.3532 286.499L17.0853 285.499L17.0825 285.494L15.3504 286.494ZM231.48 138.685L15.6549 285.167L16.778 286.822L232.603 140.34L231.48 138.685Z" fill="white"/>
</g>
<path id="&#224;&#185;&#132;&#224;&#184;&#161;&#224;&#185;&#136;&#224;&#184;&#132;&#224;&#184;&#163;&#224;&#184;&#154;" d="M297.952 177.956L293.354 175.301L293.147 175.66L292.924 176.404L295.855 178.096C294.683 178.002 293.816 178.353 292.862 180.005L288.085 188.243C287.599 189.085 287.91 189.95 288.736 190.427C289.032 190.598 289.262 190.668 289.476 190.729L289.989 190.236L290.151 189.955L289.59 189.631C289.31 189.469 289.235 189.239 289.442 188.881L294.099 180.886C295.33 178.791 296.192 178.665 297.34 179.016L297.952 177.956ZM295.356 194.332C296.93 195.241 298.911 195.158 299.937 193.381L302.331 189.234C302.655 188.673 302.798 188.569 303.246 188.765L303.647 188.934L304.097 188.155L301.104 186.427L300.654 187.206L301.001 187.469C301.395 187.759 301.376 187.935 301.052 188.496L298.694 192.581C297.992 193.797 296.936 193.79 295.892 193.187C294.302 192.269 294.155 190.687 294.155 190.687L297.737 184.483L295.617 183.259L295.158 184.054L295.521 184.326C295.899 184.607 295.883 184.743 295.559 185.304L292.652 190.339C292.301 190.947 292.151 191.027 291.805 190.869L291.429 190.693L290.925 191.566L292.718 192.601C292.949 192.381 293.227 192.043 293.438 191.749C293.438 191.749 293.578 193.306 295.356 194.332ZM303.952 186.388L305.212 184.205L303.965 183.485L302.705 185.668L303.952 186.388ZM308.782 200.774C308.388 200.484 308.407 200.308 308.74 199.731L310.909 195.975C311.971 194.135 311.419 192.175 309.221 190.906C307.023 189.637 305.05 190.139 303.988 191.979L301.801 195.767C301.468 196.343 301.358 196.425 300.925 196.238L300.509 196.06L300.059 196.839L302.179 198.063L302.719 197.128C303.79 195.273 305.186 194.978 305.919 195.401C306.137 195.527 306.257 195.679 306.248 195.84L307.183 196.38L307.846 195.412C307.733 195.139 307.342 194.809 306.936 194.575C306.219 194.161 305.211 194.036 304.159 194.634L305.266 192.717C306.022 191.407 307.188 191.187 308.591 191.997C309.994 192.807 310.387 193.927 309.631 195.237L307.462 198.993C307.129 199.57 306.985 199.674 306.537 199.478L306.136 199.309L305.686 200.088L308.679 201.816L309.129 201.037L308.782 200.774ZM312.727 204.361C314.645 205.468 316.42 205.454 317.428 203.708C318.193 202.383 317.473 201.074 316.317 200.053C314.333 198.305 314.465 197.716 314.879 196.999C315.311 196.251 316.115 196.154 317.253 196.811C317.955 197.216 318.446 197.769 318.646 198.467L319.581 199.007C319.581 199.007 319.857 198.709 320.316 197.914C319.881 197.372 318.84 196.438 317.842 195.862C316.128 194.872 314.446 194.941 313.609 196.39C312.862 197.684 313.35 198.963 314.673 200.164C316.585 201.891 316.463 202.32 315.977 203.161C315.554 203.894 314.662 204.107 313.415 203.387C312.558 202.892 312.026 202.336 311.905 201.538L310.954 200.989C310.608 201.517 310.538 201.601 310.19 202.169C310.507 202.519 311.075 203.407 312.727 204.361ZM321.426 209.383C323.702 210.697 325.675 210.195 326.737 208.356L328.924 204.568C329.248 204.006 329.392 203.902 329.84 204.098L330.241 204.268L330.682 203.504L327.689 201.776L327.248 202.54L327.595 202.802C327.989 203.092 327.97 203.268 327.646 203.83L325.459 207.618C324.793 208.771 323.537 209.147 322.056 208.292C320.575 207.437 320.272 206.161 320.938 205.008L324.025 199.661L321.905 198.437L321.446 199.232L321.809 199.503C322.187 199.784 322.171 199.92 321.847 200.482L319.66 204.27C318.598 206.109 319.15 208.069 321.426 209.383Z" fill="#FF8058"/>
<g id="Component 23">
<path id="Union_3" d="M694.271 181.127L693.709 180.3C693.681 180.319 693.654 180.339 693.628 180.361L694.271 181.127ZM689.643 184.268L689.168 183.388C689.138 183.404 689.109 183.421 689.082 183.44L689.643 184.268ZM689.519 184.352L688.653 184.852C688.792 185.093 689.025 185.265 689.295 185.327C689.566 185.389 689.851 185.335 690.081 185.179L689.519 184.352ZM689.511 184.339L690.377 183.839C690.108 183.371 689.516 183.202 689.04 183.456L689.511 184.339ZM662.022 136.726L662.55 137.575C663.008 137.29 663.158 136.693 662.888 136.226L662.022 136.726ZM662.014 136.713L661.58 135.812C661.33 135.932 661.141 136.152 661.059 136.418C660.977 136.684 661.009 136.972 661.148 137.213L662.014 136.713ZM662.147 136.649L662.581 137.55C662.611 137.535 662.641 137.518 662.671 137.501L662.147 136.649ZM667.284 134.173L667.623 135.114C667.655 135.103 667.687 135.089 667.718 135.074L667.284 134.173ZM902.204 20.9765L903.07 20.4765C902.808 20.0233 902.241 19.8485 901.77 20.0757L902.204 20.9765ZM902.208 20.9829L901.342 21.4829C901.609 21.9467 902.195 22.1172 902.67 21.8697L902.208 20.9829ZM910.093 34.6405L909.556 33.7968C909.104 34.0843 908.959 34.6767 909.227 35.1405L910.093 34.6405ZM910.096 34.6454L910.657 35.4728C911.091 35.1785 911.224 34.5993 910.962 34.1454L910.096 34.6454ZM689.824 183.021C689.77 183.052 689.715 183.084 689.661 183.115L690.649 184.853C690.707 184.82 690.766 184.787 690.824 184.753L689.824 183.021ZM689.333 183.298C689.278 183.328 689.223 183.358 689.168 183.388L690.119 185.147C690.178 185.115 690.237 185.083 690.296 185.051L689.333 183.298ZM689.082 183.44L689.051 183.461L690.174 185.116L690.205 185.095L689.082 183.44ZM688.988 183.503L688.957 183.525L690.081 185.179L690.112 185.158L688.988 183.503ZM690.385 183.852L690.383 183.849L688.651 184.849L688.653 184.852L690.385 183.852ZM690.379 183.842L690.377 183.839L688.645 184.839L688.647 184.842L690.379 183.842ZM689.04 183.456C688.436 183.779 687.824 184.076 687.206 184.348L688.011 186.178C688.675 185.887 689.333 185.568 689.982 185.221L689.04 183.456ZM683.366 185.693C682.043 186.045 680.706 186.29 679.365 186.431L679.575 188.42C681.017 188.268 682.456 188.005 683.88 187.626L683.366 185.693ZM675.297 186.545C673.937 186.478 672.587 186.307 671.258 186.034L670.857 187.994C672.285 188.286 673.737 188.47 675.199 188.542L675.297 186.545ZM667.344 184.915C666.073 184.444 664.837 183.875 663.647 183.212L662.674 184.959C663.953 185.672 665.283 186.283 666.649 186.79L667.344 184.915ZM660.255 180.963C659.193 180.135 658.188 179.22 657.251 178.22L655.792 179.588C656.801 180.664 657.882 181.649 659.025 182.54L660.255 180.963ZM654.704 175.046C654.323 174.489 653.961 173.914 653.618 173.32L651.886 174.32C652.254 174.958 652.644 175.576 653.053 176.174L654.704 175.046ZM653.618 173.32C653.275 172.726 652.958 172.124 652.666 171.516L650.863 172.382C651.177 173.036 651.518 173.682 651.886 174.32L653.618 173.32ZM651.191 167.724C650.794 166.412 650.503 165.084 650.317 163.75L648.336 164.027C648.537 165.462 648.849 166.892 649.276 168.303L651.191 167.724ZM650.066 159.688C650.086 158.326 650.212 156.971 650.44 155.635L648.468 155.299C648.224 156.736 648.088 158.193 648.066 159.658L650.066 159.688ZM651.427 151.685C651.856 150.399 652.382 149.144 653.004 147.933L651.225 147.019C650.557 148.321 649.99 149.67 649.53 151.054L651.427 151.685ZM655.137 144.466C655.929 143.376 656.81 142.34 657.776 141.37L656.359 139.959C655.32 141.002 654.372 142.117 653.519 143.29L655.137 144.466ZM660.862 138.717C661.406 138.318 661.969 137.937 662.55 137.575L661.494 135.877C660.869 136.266 660.263 136.676 659.679 137.105L660.862 138.717ZM662.888 136.226L662.886 136.223L661.154 137.223L661.156 137.226L662.888 136.226ZM662.882 136.216L662.88 136.213L661.148 137.213L661.15 137.216L662.882 136.216ZM662.448 137.613L662.481 137.597L661.613 135.796L661.58 135.812L662.448 137.613ZM662.548 137.566L662.581 137.55L661.712 135.748L661.679 135.764L662.548 137.566ZM662.671 137.501C662.724 137.468 662.778 137.435 662.832 137.402L661.796 135.691C661.738 135.726 661.68 135.762 661.623 135.797L662.671 137.501ZM663.156 137.209C663.21 137.177 663.265 137.145 663.319 137.114L662.319 135.382C662.261 135.415 662.202 135.45 662.144 135.484L663.156 137.209ZM663.319 137.114C663.664 136.915 664.012 136.724 664.361 136.542L663.439 134.768C663.063 134.963 662.69 135.168 662.319 135.382L663.319 137.114ZM666.515 135.541C666.882 135.39 667.252 135.248 667.623 135.114L666.945 133.232C666.546 133.376 666.149 133.529 665.754 133.692L666.515 135.541ZM667.718 135.074L669.498 134.217L668.63 132.415L666.85 133.273L667.718 135.074ZM673.057 132.502L676.616 130.786L675.748 128.985L672.189 130.7L673.057 132.502ZM680.176 129.071L683.735 127.356L682.867 125.555L679.308 127.27L680.176 129.071ZM687.295 125.641L690.854 123.926L689.986 122.124L686.426 123.839L687.295 125.641ZM694.413 122.211L697.973 120.496L697.105 118.694L693.545 120.409L694.413 122.211ZM701.532 118.781L705.092 117.066L704.223 115.264L700.664 116.979L701.532 118.781ZM708.651 115.351L712.21 113.635L711.342 111.834L707.783 113.549L708.651 115.351ZM715.77 111.92L719.329 110.205L718.461 108.404L714.902 110.119L715.77 111.92ZM722.889 108.49L726.448 106.775L725.58 104.973L722.02 106.688L722.889 108.49ZM730.007 105.06L733.567 103.345L732.699 101.543L729.139 103.258L730.007 105.06ZM737.126 101.63L740.686 99.9146L739.817 98.1129L736.258 99.828L737.126 101.63ZM744.245 98.1995L747.804 96.4844L746.936 94.6827L743.377 96.3978L744.245 98.1995ZM751.364 94.7693L754.923 93.0542L754.055 91.2525L750.496 92.9676L751.364 94.7693ZM758.483 91.3391L762.042 89.624L761.174 87.8223L757.614 89.5374L758.483 91.3391ZM765.601 87.9089L769.161 86.1938L768.293 84.3921L764.733 86.1072L765.601 87.9089ZM772.72 84.4787L776.279 82.7636L775.411 80.9619L771.852 82.677L772.72 84.4787ZM779.839 81.0485L783.398 79.3334L782.53 77.5317L778.971 79.2468L779.839 81.0485ZM786.958 77.6183L790.517 75.9032L789.649 74.1014L786.09 75.8165L786.958 77.6183ZM794.076 74.1881L797.636 72.473L796.768 70.6712L793.208 72.3863L794.076 74.1881ZM801.195 70.7579L804.755 69.0428L803.887 67.241L800.327 68.9561L801.195 70.7579ZM808.314 67.3276L811.873 65.6125L811.005 63.8108L807.446 65.5259L808.314 67.3276ZM815.433 63.8974L818.992 62.1823L818.124 60.3806L814.565 62.0957L815.433 63.8974ZM822.552 60.4672L826.111 58.7521L825.243 56.9504L821.684 58.6655L822.552 60.4672ZM829.67 57.037L833.23 55.3219L832.362 53.5202L828.802 55.2353L829.67 57.037ZM836.789 53.6068L840.349 51.8917L839.481 50.09L835.921 51.8051L836.789 53.6068ZM843.908 50.1766L847.467 48.4615L846.599 46.6597L843.04 48.3748L843.908 50.1766ZM851.027 46.7464L854.586 45.0313L853.718 43.2295L850.159 44.9446L851.027 46.7464ZM858.146 43.3162L861.705 41.6011L860.837 39.7993L857.277 41.5144L858.146 43.3162ZM865.264 39.8859L868.824 38.1708L867.956 36.3691L864.396 38.0842L865.264 39.8859ZM872.383 36.4557L875.943 34.7406L875.075 32.9389L871.515 34.654L872.383 36.4557ZM879.502 33.0255L883.061 31.3104L882.193 29.5087L878.634 31.2238L879.502 33.0255ZM886.621 29.5953L890.18 27.8802L889.312 26.0785L885.753 27.7936L886.621 29.5953ZM893.74 26.1651L897.299 24.45L896.431 22.6483L892.872 24.3633L893.74 26.1651ZM900.858 22.7349L902.638 21.8774L901.77 20.0757L899.99 20.9332L900.858 22.7349ZM901.338 21.4765L901.339 21.4781L903.071 20.4781L903.07 20.4765L901.338 21.4765ZM901.341 21.4813L901.342 21.4829L903.074 20.4829L903.073 20.4813L901.341 21.4813ZM902.67 21.8697C903.066 21.663 903.474 21.4989 903.887 21.3756L903.316 19.459C902.782 19.6183 902.256 19.8302 901.745 20.0962L902.67 21.8697ZM906.489 21.1209C907.364 21.2032 908.218 21.4518 909.002 21.8534L909.914 20.0735C908.904 19.5559 907.804 19.2357 906.676 19.1297L906.489 21.1209ZM911.058 23.4665C911.34 23.7923 911.596 24.1499 911.82 24.5383L913.552 23.5383C913.264 23.0396 912.935 22.5787 912.57 22.1577L911.058 23.4665ZM911.82 24.5383C912.044 24.9267 912.226 25.3271 912.367 25.7341L914.257 25.0789C914.074 24.5528 913.84 24.037 913.552 23.5383L911.82 24.5383ZM912.736 28.3214C912.692 29.2005 912.48 30.0647 912.114 30.8639L913.932 31.6975C914.404 30.6678 914.677 29.5546 914.734 28.4212L912.736 28.3214ZM910.593 32.9894C910.279 33.2858 909.933 33.5567 909.556 33.7968L910.63 35.4842C911.115 35.1753 911.562 34.8258 911.967 34.4425L910.593 32.9894ZM909.227 35.1405L909.228 35.1417L910.96 34.1417L910.959 34.1405L909.227 35.1405ZM909.229 35.1442L909.23 35.1454L910.962 34.1454L910.961 34.1442L909.229 35.1442ZM909.534 33.818L907.899 34.9277L909.022 36.5825L910.657 35.4728L909.534 33.818ZM904.629 37.1471L901.359 39.3665L902.482 41.0214L905.752 38.8019L904.629 37.1471ZM898.089 41.5859L894.819 43.8054L895.942 45.4602L899.212 43.2408L898.089 41.5859ZM891.549 46.0248L888.279 48.2442L889.402 49.899L892.672 47.6796L891.549 46.0248ZM885.008 50.4636L881.738 52.683L882.862 54.3379L886.132 52.1185L885.008 50.4636ZM878.468 54.9024L875.198 57.1219L876.321 58.7767L879.592 56.5573L878.468 54.9024ZM871.928 59.3413L868.658 61.5607L869.781 63.2155L873.051 60.9961L871.928 59.3413ZM865.388 63.7801L862.118 65.9995L863.241 67.6544L866.511 65.435L865.388 63.7801ZM858.848 68.2189L855.578 70.4384L856.701 72.0932L859.971 69.8738L858.848 68.2189ZM852.308 72.6578L849.038 74.8772L850.161 76.5321L853.431 74.3126L852.308 72.6578ZM845.768 77.0966L842.498 79.316L843.621 80.9709L846.891 78.7515L845.768 77.0966ZM839.227 81.5355L835.957 83.7549L837.081 85.4097L840.351 83.1903L839.227 81.5355ZM832.687 85.9743L829.417 88.1937L830.54 89.8486L833.81 87.6292L832.687 85.9743ZM826.147 90.4132L822.877 92.6326L824 94.2874L827.27 92.068L826.147 90.4132ZM819.607 94.852L816.337 97.0714L817.46 98.7263L820.73 96.5068L819.607 94.852ZM813.067 99.2908L809.797 101.51L810.92 103.165L814.19 100.946L813.067 99.2908ZM806.527 103.73L803.257 105.949L804.38 107.604L807.65 105.385L806.527 103.73ZM799.987 108.169L796.716 110.388L797.84 112.043L801.11 109.823L799.987 108.169ZM793.446 112.607L790.176 114.827L791.299 116.482L794.569 114.262L793.446 112.607ZM786.906 117.046L783.636 119.266L784.759 120.92L788.029 118.701L786.906 117.046ZM780.366 121.485L777.096 123.704L778.219 125.359L781.489 123.14L780.366 121.485ZM773.826 125.924L770.556 128.143L771.679 129.798L774.949 127.579L773.826 125.924ZM767.286 130.363L764.016 132.582L765.139 134.237L768.409 132.018L767.286 130.363ZM760.746 134.802L757.475 137.021L758.599 138.676L761.869 136.456L760.746 134.802ZM754.205 139.24L750.935 141.46L752.058 143.115L755.329 140.895L754.205 139.24ZM747.665 143.679L744.395 145.899L745.518 147.553L748.788 145.334L747.665 143.679ZM741.125 148.118L737.855 150.337L738.978 151.992L742.248 149.773L741.125 148.118ZM734.585 152.557L731.315 154.776L732.438 156.431L735.708 154.212L734.585 152.557ZM728.045 156.996L724.775 159.215L725.898 160.87L729.168 158.651L728.045 156.996ZM721.505 161.435L718.235 163.654L719.358 165.309L722.628 163.089L721.505 161.435ZM714.964 165.873L711.694 168.093L712.818 169.748L716.088 167.528L714.964 165.873ZM708.424 170.312L705.154 172.532L706.277 174.187L709.547 171.967L708.424 170.312ZM701.884 174.751L698.614 176.971L699.737 178.625L703.007 176.406L701.884 174.751ZM695.344 179.19L693.709 180.3L694.832 181.954L696.467 180.845L695.344 179.19ZM693.628 180.361C693.333 180.609 693.03 180.851 692.722 181.087L693.938 182.675C694.27 182.421 694.595 182.16 694.913 181.893L693.628 180.361ZM690.818 182.418C690.493 182.625 690.161 182.826 689.824 183.021L690.824 184.753C691.186 184.544 691.542 184.328 691.892 184.106L690.818 182.418Z" fill="white"/>
</g>
<g id="Component 22">
<path id="Union_4" d="M449.022 259.726L449.551 260.575C450.008 260.29 450.158 259.693 449.888 259.226L449.022 259.726ZM476.511 307.339L477.377 306.839C477.108 306.371 476.516 306.202 476.04 306.456L476.511 307.339ZM476.519 307.352L475.653 307.852C475.786 308.082 476.004 308.249 476.26 308.318C476.516 308.387 476.789 308.351 477.019 308.218L476.519 307.352ZM690.897 183.581L691.397 184.447C691.875 184.171 692.039 183.559 691.763 183.081L690.897 183.581ZM690.873 183.54L690.324 182.705C689.881 182.996 689.742 183.582 690.007 184.04L690.873 183.54ZM663.415 135.982L662.549 136.482C662.814 136.941 663.391 137.114 663.864 136.876L663.415 135.982ZM663.392 135.942L664.258 135.442C663.982 134.963 663.37 134.799 662.892 135.076L663.392 135.942ZM661.988 136.752L662.488 137.618L661.988 136.752ZM449.82 259.248L450.32 260.114L449.82 259.248ZM449.014 259.713L448.514 258.847C448.036 259.123 447.872 259.734 448.148 260.213L449.014 259.713ZM448.494 258.877C435.5 266.966 431.176 283.965 438.886 297.32L440.618 296.32C433.449 283.903 437.47 268.095 449.551 260.575L448.494 258.877ZM438.886 297.32C446.596 310.674 463.48 315.429 476.982 308.221L476.04 306.456C463.487 313.159 447.787 308.737 440.618 296.32L438.886 297.32ZM475.645 307.839L475.653 307.852L477.385 306.852L477.377 306.839L475.645 307.839ZM477.019 308.218L691.397 184.447L690.397 182.715L476.019 306.486L477.019 308.218ZM691.763 183.081L691.739 183.04L690.007 184.04L690.031 184.081L691.763 183.081ZM698.694 147.32C705.75 159.542 701.966 175.05 690.324 182.705L691.422 184.376C703.945 176.142 708.015 159.465 700.426 146.32L698.694 147.32ZM663.864 136.876C676.315 130.621 691.637 135.097 698.694 147.32L700.426 146.32C692.836 133.174 676.358 128.361 662.967 135.089L663.864 136.876ZM664.281 135.482L664.258 135.442L662.526 136.442L662.549 136.482L664.281 135.482ZM662.892 135.076L661.488 135.886L662.488 137.618L663.892 136.808L662.892 135.076ZM661.488 135.886L449.32 258.382L450.32 260.114L662.488 137.618L661.488 135.886ZM449.32 258.382L448.514 258.847L449.514 260.579L450.32 260.114L449.32 258.382ZM448.148 260.213L448.156 260.226L449.888 259.226L449.88 259.213L448.148 260.213Z" fill="white"/>
</g>
<g id="&#224;&#184;&#129;&#224;&#184;&#165;&#224;&#184;&#177;&#224;&#184;&#154;&#224;&#185;&#132;&#224;&#184;&#155;&#224;&#184;&#130;&#224;&#185;&#137;&#224;&#184;&#173;&#224;&#184;&#151;&#224;&#184;&#181;&#224;&#185;&#136;" filter="url(#filter0_d_173_161862)">
<path d="M581.96 222.224L581.501 221.429L581.1 221.599C580.652 221.795 580.509 221.691 580.185 221.129L578.943 218.978C578.538 218.277 578.435 217.775 578.938 217.277L578.596 216.685L576.995 216.756C576.88 215.909 577.637 214.952 578.744 214.313C580.069 213.548 581.313 213.723 581.979 214.877L584.238 218.789C584.562 219.351 584.581 219.527 584.187 219.817L583.84 220.079L584.299 220.874L587.292 219.146L586.833 218.351L586.432 218.521C585.984 218.717 585.84 218.613 585.516 218.051L583.257 214.139C582.195 212.299 580.234 211.998 578.114 213.222C576.337 214.248 575.372 215.781 575.651 217.2L576.002 217.808L577.771 217.597C577.152 218.287 577.224 218.952 577.665 219.716L578.907 221.867C579.231 222.429 579.249 222.605 578.856 222.895L578.508 223.157L578.967 223.952L581.96 222.224ZM590.801 217.349C591.44 216.98 592.154 216.381 592.358 216.014C592.137 215.704 591.933 215.386 591.713 215.077L590.777 215.617C590.687 215.856 590.514 216.06 590.264 216.204C589.532 216.627 588.87 216.489 588.312 215.523C587.745 214.541 588.15 213.766 589.086 213.226L591.985 211.552L593.605 214.358C593.825 214.668 594.136 214.883 594.49 214.991L595.986 214.127L595.572 213.41C595.001 213.573 594.865 213.589 594.415 212.81L592.021 208.663C591.049 206.98 589.389 206.733 587.285 207.948C585.664 208.884 584.809 210.104 584.572 210.844C584.812 211.225 585.147 211.697 585.376 212.022L586.389 211.437C586.224 210.826 586.26 209.953 587.881 209.017C589.144 208.288 590.131 208.341 590.743 209.401L591.427 210.586L588.418 212.323C586.828 213.241 586.278 214.951 587.079 216.339C588.06 218.038 589.741 217.961 590.801 217.349ZM591.386 204.021L591.347 203.233L591.086 202.781L587.064 205.103C586.799 205.256 586.593 205.188 586.44 204.923L586.134 204.393L585.355 204.843L584.946 205.286L585.207 205.739C585.648 206.502 586.444 206.874 587.286 206.388L591.386 204.021ZM601.303 211.265C603.579 209.951 604.131 207.99 603.069 206.151L600.882 202.363C600.558 201.802 600.539 201.625 600.933 201.336L601.28 201.073L600.839 200.309L597.846 202.037L598.287 202.801L598.688 202.632C599.136 202.435 599.279 202.54 599.603 203.101L601.79 206.889C602.456 208.042 602.154 209.319 600.673 210.174C599.192 211.029 597.936 210.652 597.27 209.499L594.183 204.152L592.063 205.376L592.522 206.171L592.939 205.993C593.371 205.806 593.481 205.888 593.805 206.449L595.992 210.237C597.054 212.076 599.027 212.579 601.303 211.265ZM602.645 192.615L598.047 195.27L598.254 195.629L598.787 196.193L601.718 194.501C601.05 195.469 600.921 196.396 601.875 198.048L606.62 206.304C607.106 207.145 608.011 207.309 608.837 206.832C609.133 206.661 609.309 206.497 609.469 206.342L609.298 205.651L609.136 205.37L608.575 205.694C608.295 205.856 608.058 205.806 607.851 205.448L603.256 197.417C602.057 195.304 602.379 194.494 603.257 193.675L602.645 192.615ZM615.31 203.178C617.43 201.954 618.15 200.104 617.088 198.265L611.931 189.333L611.557 189.549L610.824 190.367L615.81 199.003C616.476 200.156 616.005 201.322 614.68 202.087C613.355 202.852 612.111 202.676 611.445 201.523L608.268 196.02L606.148 197.244L606.607 198.039L607.024 197.861C607.456 197.674 607.566 197.756 607.89 198.317L610.167 202.261C611.229 204.1 613.19 204.402 615.31 203.178ZM624.112 198.096C626.076 196.962 626.478 195.462 625.344 193.498L623.076 189.57C622.752 189.009 622.733 188.832 623.127 188.543L623.474 188.28L623.024 187.501L620.031 189.229L620.481 190.008L620.882 189.839C621.33 189.642 621.473 189.747 621.797 190.308L624.065 194.236C624.776 195.468 624.588 196.366 623.482 197.005C622.375 197.644 621.503 197.358 620.792 196.126L619.289 193.523C618.515 192.182 618.775 191.409 619.369 190.962L618.784 189.949L615.775 191.686L616.36 192.699L617.935 191.79C617.539 192.58 617.426 193.248 618.074 194.37L619.514 196.864C620.648 198.828 622.147 199.23 624.112 198.096ZM620.343 186.014C619.879 185.284 619.153 185.142 618.374 185.592L617.298 186.213L617.373 187.063L617.544 187.359L618.62 186.738C618.823 186.621 619.01 186.659 619.136 186.877L619.649 187.765L622.845 185.92L622.674 185.084L622.494 184.772L620.343 186.014ZM627.546 184.703C626.018 185.585 625.171 186.926 625.001 187.855C625.154 188.12 625.393 188.461 625.698 188.846L626.727 188.252C626.615 187.194 627.054 186.442 628.176 185.794C629.75 184.885 630.839 185.15 631.703 186.647L632.864 188.658C633.737 190.17 633.422 191.245 631.832 192.163C630.975 192.658 630.087 192.776 629.514 192.504L628.659 191.023L629.719 190.411L629.134 189.398L626.796 190.748L628.659 193.974L628.893 193.839C629.939 194.067 631.093 194.086 632.48 193.285C634.585 192.07 635.429 190.149 634.16 187.951L632.999 185.94C631.685 183.664 629.759 183.425 627.546 184.703ZM640.376 188.498L639.926 187.719L639.478 187.915C639.061 188.093 638.847 188.009 638.532 187.464L635.832 182.787C636.04 181.96 636.587 181 637.71 180.352C638.832 179.704 639.761 179.874 640.355 180.903L642.74 185.034C643.064 185.595 643.083 185.771 642.689 186.061L642.342 186.324L642.792 187.103L645.785 185.375L645.335 184.596L644.934 184.765C644.486 184.961 644.343 184.857 644.019 184.296L641.625 180.149C640.644 178.45 638.977 178.083 637.09 179.172C635.859 179.883 635.35 180.945 635.191 181.785L634.484 180.884L632.535 182.009L633.039 182.882L633.483 182.751C633.911 182.628 634.058 182.668 634.355 183.182L637.253 188.202C637.577 188.763 637.571 188.933 637.255 189.177L636.777 189.537L637.227 190.316L640.376 188.498ZM637.519 175.972L632.453 178.897L632.519 179.732L632.753 180.137L639.379 176.312L638.155 174.192L636.907 174.912L637.519 175.972ZM637.528 173.286L636.322 171.198L635.23 171.828L636.436 173.916L637.528 173.286Z" fill="white"/>
</g>
<path id="&#224;&#184;&#162;&#224;&#184;&#177;&#224;&#184;&#135;&#224;&#184;&#132;&#224;&#184;&#163;&#224;&#184;&#154;&#224;&#184;&#173;&#224;&#184;&#162;&#224;&#184;&#185;&#224;&#185;&#136;" d="M154.185 220.932C156.305 219.708 157.009 217.868 155.947 216.028L153.679 212.1C153.355 211.539 153.337 211.363 153.731 211.073L154.078 210.81L153.628 210.031L150.635 211.759L151.085 212.538L151.486 212.369C151.934 212.173 152.077 212.277 152.401 212.838L154.669 216.766C155.38 217.998 154.88 219.076 153.555 219.841C152.23 220.606 150.923 220.717 150.212 219.486C149.681 218.566 149.924 217.656 150.828 217.134L151.81 216.567L151.552 215.76L151.354 215.417L150.154 216.11C149.188 216.668 148.568 216.423 148.136 215.675L147.587 214.724L149.271 213.752L148.749 212.848L145.834 214.531L146.869 216.323C147.544 217.492 148.426 217.544 149.253 217.358L149.262 217.373C148.64 218.023 148.267 219.07 148.96 220.27C149.968 222.016 152.065 222.156 154.185 220.932ZM153.537 208.337L153.497 207.549L153.236 207.097L149.215 209.419C148.95 209.572 148.744 209.504 148.591 209.239L148.285 208.709L147.506 209.159L147.097 209.603L147.358 210.055C147.799 210.819 148.595 211.19 149.437 210.704L153.537 208.337ZM163.567 215.308C164.876 214.552 165.328 213.21 164.527 211.823L161.026 205.759L158.501 207.217L159.023 208.121L159.787 207.68C160.208 207.437 160.36 207.557 160.684 208.118L163.177 212.436C163.69 213.325 163.412 214.067 162.664 214.499L162.009 214.877L156.751 210.306L155.379 211.098L155.811 211.846C156.164 211.809 156.506 212.006 156.719 212.195L161.587 216.451L163.567 215.308ZM174.992 207.61C174.544 207.806 174.401 207.702 174.068 207.125L171.899 203.368C170.837 201.529 168.863 201.027 166.665 202.296C164.467 203.565 163.916 205.525 164.978 207.364L167.165 211.152C167.498 211.729 167.514 211.865 167.136 212.146L166.773 212.418L167.223 213.197L169.343 211.973L168.803 211.038C167.732 209.183 168.175 207.826 168.907 207.403C169.126 207.277 169.318 207.249 169.452 207.338L170.387 206.798L169.88 205.74C169.588 205.701 169.106 205.875 168.701 206.109C167.984 206.523 167.371 207.334 167.363 208.544L166.256 206.626C165.5 205.317 165.892 204.197 167.295 203.387C168.698 202.577 169.865 202.797 170.621 204.106L172.79 207.863C173.123 208.44 173.141 208.616 172.748 208.906L172.4 209.169L172.85 209.948L175.843 208.22L175.393 207.441L174.992 207.61ZM180.072 205.987C181.989 204.88 182.864 203.336 181.856 201.59C181.091 200.265 179.597 200.233 178.135 200.724C175.629 201.568 175.185 201.159 174.771 200.442C174.339 199.694 174.657 198.949 175.795 198.292C176.497 197.887 177.222 197.739 177.926 197.914L178.861 197.374C178.861 197.374 178.741 196.986 178.282 196.191C177.595 196.297 176.266 196.732 175.269 197.308C173.554 198.298 172.772 199.788 173.609 201.238C174.356 202.532 175.708 202.749 177.409 202.203C179.862 201.411 180.171 201.731 180.657 202.573C181.08 203.306 180.818 204.184 179.571 204.904C178.714 205.399 177.967 205.581 177.215 205.287L176.264 205.836C176.548 206.4 176.587 206.503 176.904 207.088C177.366 206.988 178.419 206.941 180.072 205.987ZM188.77 200.965C191.046 199.651 191.598 197.69 190.536 195.851L188.349 192.063C188.025 191.502 188.006 191.326 188.4 191.036L188.747 190.773L188.306 190.009L185.313 191.737L185.754 192.501L186.155 192.332C186.603 192.136 186.746 192.24 187.07 192.801L189.257 196.589C189.923 197.743 189.621 199.019 188.14 199.874C186.659 200.729 185.403 200.353 184.737 199.199L181.65 193.852L179.53 195.076L179.989 195.871L180.405 195.693C180.838 195.506 180.947 195.588 181.271 196.149L183.458 199.937C184.52 201.776 186.494 202.279 188.77 200.965ZM192.818 187.217C191.29 188.099 190.443 189.441 190.273 190.37C190.426 190.635 190.664 190.976 190.969 191.36L191.998 190.766C191.886 189.709 192.325 188.957 193.448 188.309C195.022 187.4 196.11 187.665 196.974 189.161L198.135 191.172C199.008 192.684 198.694 193.76 197.104 194.678C196.247 195.173 195.358 195.291 194.786 195.018L193.931 193.538L194.991 192.926L194.406 191.912L192.067 193.262L193.93 196.489L194.164 196.354C195.21 196.582 196.365 196.601 197.752 195.8C199.856 194.585 200.701 192.663 199.432 190.465L198.271 188.455C196.957 186.179 195.031 185.939 192.818 187.217ZM206.751 190.584C208.871 189.36 209.575 187.519 208.513 185.68L206.245 181.751C205.921 181.19 205.902 181.014 206.296 180.724L206.643 180.461L206.193 179.682L203.2 181.41L203.65 182.189L204.051 182.02C204.499 181.824 204.643 181.928 204.967 182.489L207.235 186.418C207.946 187.649 207.446 188.728 206.121 189.493C204.796 190.258 203.488 190.368 202.777 189.137C202.246 188.217 202.49 187.307 203.394 186.785L204.376 186.218L204.118 185.411L203.92 185.068L202.719 185.761C201.753 186.319 201.133 186.074 200.701 185.326L200.152 184.375L201.836 183.403L201.314 182.499L198.399 184.182L199.434 185.975C200.109 187.144 200.991 187.196 201.819 187.009L201.828 187.025C201.205 187.675 200.833 188.721 201.526 189.922C202.534 191.668 204.631 191.808 206.751 190.584ZM209.861 191.615C210.149 192.114 210.053 192.523 209.554 192.811C209.055 193.099 208.637 192.987 208.349 192.488L207.62 191.225L205.781 192.287L205.949 192.938L206.129 193.25L206.955 192.773L207.234 193.256C207.783 194.207 208.88 194.488 210.112 193.777C211.328 193.075 211.68 191.957 211.131 191.006L210.348 189.65L209.132 190.352L209.861 191.615ZM204.585 178.927L203.325 176.744L202.078 177.464L203.338 179.647L204.585 178.927Z" fill="white"/>
<g id="Component 64">
<g id="Frame 756">
<rect x="661" y="145" width="30" height="30" rx="15" fill="white"/>
<path id="1" d="M675.913 166.716C679.009 166.716 680.737 164.826 680.737 162.27C680.737 159.75 679.009 158.274 676.867 158.274C675.265 158.274 674.671 159.084 674.167 160.272H674.023L674.293 156.294H679.999V153.936H672.313L671.845 161.046L674.059 161.352C674.383 160.974 675.031 160.47 676.003 160.47C677.173 160.47 677.893 161.19 677.893 162.342V162.486C677.893 163.71 677.227 164.52 675.931 164.52C674.635 164.52 673.933 163.728 673.393 162.756L671.431 164.304C672.187 165.582 673.483 166.716 675.913 166.716Z" fill="black"/>
</g>
</g>
<g id="Component 64_2">
<g id="Frame 756_2">
<rect x="235" y="146" width="30" height="30" rx="15" fill="white"/>
<path id="1_2" d="M247.591 167.5H250.435L254.485 157.276V154.936H245.593V159.418H247.879V157.132H251.803L247.591 167.5Z" fill="black"/>
</g>
</g>
</g>
<defs>
<filter id="filter0_d_173_161862" x="566.462" y="170.644" width="83.4216" height="61.4797" filterUnits="userSpaceOnUse" color-interpolation-filters="sRGB">
<feFlood flood-opacity="0" result="BackgroundImageFix"/>
<feColorMatrix in="SourceAlpha" type="matrix" values="0 0 0 0 0 0 0 0 0 0 0 0 0 0 0 0 0 0 127 0" result="hardAlpha"/>
<feOffset dy="4"/>
<feGaussianBlur stdDeviation="2"/>
<feComposite in2="hardAlpha" operator="out"/>
<feColorMatrix type="matrix" values="0 0 0 0 0 0 0 0 0 0 0 0 0 0 0 0 0 0 0.25 0"/>
<feBlend mode="normal" in2="BackgroundImageFix" result="effect1_dropShadow_173_161862"/>
<feBlend mode="normal" in="SourceGraphic" in2="effect1_dropShadow_173_161862" result="shape"/>
</filter>
</defs>
</svg>
