<svg width="41" height="40" viewBox="0 0 41 40" fill="none" xmlns="http://www.w3.org/2000/svg">
<path d="M34.2891 5.87302C30.6383 2.22223 25.7176 0 20.1621 0C14.6065 0 9.68591 2.22223 6.03512 5.87302C2.38433 9.52382 0.162109 14.4444 0.162109 20C0.162109 30.3175 8.09861 38.8889 18.2573 39.8413C18.8923 39.8413 19.5272 40 20.1621 40C21.5907 40 22.8605 39.8413 24.1303 39.5238C28.0986 38.7302 31.5907 36.8254 34.2891 34.127C37.9399 30.4762 40.1621 25.5555 40.1621 20C40.1621 14.4444 37.9399 9.52382 34.2891 5.87302ZM34.2891 11.9047C33.9716 12.3809 33.4954 12.8571 33.178 13.3333C32.7018 13.8095 32.2256 14.127 31.7494 14.6032L31.5907 14.7619C31.5907 15.2381 31.5907 15.5555 31.5907 16.0317C31.5907 16.3492 31.5907 16.6667 31.5907 16.9841C31.5907 17.4603 31.4319 17.7778 31.4319 18.254C31.2732 19.0476 31.1145 19.8413 30.797 20.4762C30.6383 20.9524 30.4796 21.4286 30.1621 21.9048C29.8446 22.3809 29.6859 23.0159 29.3684 23.4921C29.051 24.127 28.5748 24.6032 28.2573 25.2381C27.9399 25.7143 27.6224 26.0317 27.1462 26.5079C26.67 26.9841 26.1938 27.4603 25.7176 27.7778C25.4002 27.9365 25.2415 28.254 24.924 28.4127C24.2891 28.8889 23.6542 29.2063 23.0192 29.5238C22.543 29.6825 22.0669 30 21.5907 30.1587C20.9558 30.4762 20.1621 30.6349 19.3684 30.7936C18.8923 30.9524 18.4161 30.9524 17.9399 30.9524C17.6224 30.9524 17.305 30.9524 16.8288 30.9524C16.5113 30.9524 16.1938 30.9524 15.8764 30.9524C15.7177 30.9524 15.7177 30.9524 15.5589 30.9524C15.2415 30.9524 14.924 30.9524 14.6065 30.7936C14.1303 30.7936 13.4954 30.6349 13.0192 30.4762C12.3843 30.3175 11.9081 30.1587 11.2732 30C10.6383 29.8413 10.1621 29.5238 9.68592 29.3651C9.20973 29.0476 8.73352 28.8889 8.25733 28.5714C8.25733 28.5714 8.25734 28.5714 8.41607 28.5714C8.5748 28.5714 8.5748 28.5714 8.73353 28.5714C8.89226 28.5714 9.20973 28.5714 9.36846 28.5714C9.52719 28.5714 9.6859 28.5714 9.84463 28.5714C10.0034 28.5714 10.1621 28.5714 10.3208 28.5714C10.6383 28.5714 10.9557 28.5714 11.1145 28.4127C12.0669 28.254 12.8605 28.0952 13.6542 27.619C14.2891 27.3016 14.924 26.9841 15.5589 26.5079C15.7177 26.3492 15.8764 26.3492 16.0351 26.1905C15.4002 26.1905 14.924 26.0317 14.4478 25.873C13.9716 25.7143 13.4954 25.3968 13.0192 25.0794C12.543 24.7619 12.2256 24.2857 11.9081 23.9682C11.5907 23.4921 11.1145 22.6984 11.1145 22.5397C11.5907 22.5397 11.9081 22.6984 12.3843 22.6984C12.8605 22.6984 13.4954 22.5397 13.6542 22.5397C13.178 22.381 12.8605 22.2222 12.3843 22.0635C11.9081 21.746 11.432 21.4286 10.9558 21.1111C10.4796 20.6349 10.1621 20.1587 10.0034 19.6825C9.84464 19.2063 9.68591 18.8889 9.52718 18.4127C9.36845 18.0952 9.36846 17.619 9.36846 17.3016C9.36846 17.3016 9.36846 17.3016 9.36846 17.1428C9.84465 17.4603 10.4796 17.6191 11.1145 17.7778C11.2732 17.7778 11.5907 17.7778 11.7494 17.7778C11.5907 17.6191 11.4319 17.4603 11.1145 17.3016C10.6383 16.8254 10.1621 16.3492 9.84463 15.7143C9.52717 15.0794 9.36845 14.2857 9.20972 13.492C9.20972 13.3333 9.20972 13.0159 9.20972 12.8571C9.20972 12.3809 9.36845 12.0635 9.52718 11.5873C9.68591 11.2698 9.84464 10.9524 10.0034 10.6349C10.3208 10.9524 10.4796 11.2698 10.797 11.4286C11.1145 11.746 11.432 12.0635 11.7494 12.3809C12.2256 12.8571 12.7018 13.1746 13.178 13.492C13.8129 13.9682 14.6065 14.4444 15.4002 14.7619C15.8764 14.9206 16.3526 15.2381 16.8288 15.3968C17.6224 15.7143 18.4161 15.873 19.2097 16.0317C19.6859 16.0317 20.0034 16.1905 20.4796 16.1905C20.6383 16.1905 20.797 16.1905 21.1145 16.1905C21.2732 16.1905 21.2732 16.1905 21.2732 16.0317C21.2732 15.7143 21.1145 15.3968 21.1145 15.0793C21.1145 14.7619 21.1145 14.4444 21.1145 14.2857C21.2732 13.6508 21.4319 13.0159 21.7494 12.3809C22.0669 11.9048 22.3843 11.4286 22.8605 10.9524C23.178 10.6349 23.6542 10.3175 24.1303 10.1587C24.7653 9.84127 25.5589 9.68254 26.3526 9.68254C26.5113 9.68254 26.5113 9.68254 26.67 9.68254C26.9875 9.68254 27.1462 9.68254 27.4637 9.68254C28.2573 9.84127 28.8923 10.1587 29.5272 10.4762C29.8446 10.6349 30.1621 10.9524 30.3208 11.1111H30.4796C30.6383 11.1111 30.797 10.9524 31.1145 10.9524C31.5907 10.7937 31.9081 10.6349 32.3843 10.4762C32.8605 10.3175 33.3367 10 33.8129 9.68254C33.6542 10 33.4954 10.4762 33.3367 10.7936C33.178 11.1111 32.8605 11.4286 32.7018 11.746C32.5431 11.9048 32.2256 12.2222 32.0669 12.3809C31.9081 12.5397 31.7494 12.5397 31.5907 12.6984C31.7494 12.6984 31.7494 12.6984 31.9081 12.6984C32.5431 12.5397 33.0192 12.5397 33.6542 12.2222C33.6542 12.0635 33.9716 12.0635 34.2891 11.9047Z" fill="white"/>
</svg>
