<svg width="41" height="40" viewBox="0 0 41 40" fill="none" xmlns="http://www.w3.org/2000/svg">
<path fill-rule="evenodd" clip-rule="evenodd" d="M20.1621 0C9.11641 0 0.162109 8.9543 0.162109 20C0.162109 31.0457 9.11641 40 20.1621 40C31.2078 40 40.1621 31.0457 40.1621 20C40.1621 8.9543 31.2078 0 20.1621 0ZM13.7302 5.34533C10.6035 6.71959 8.00035 9.06514 6.30262 12H11.4431C11.8366 10.0931 12.3694 8.34587 13.0202 6.82577C13.2399 6.31279 13.4764 5.81757 13.7302 5.34533ZM10.849 16H4.66618C4.33712 17.2785 4.16211 18.6188 4.16211 20C4.16211 21.3812 4.33712 22.7215 4.66618 24H10.8492C10.7262 22.7052 10.6621 21.3663 10.6621 19.9992C10.6621 18.6327 10.7261 17.2943 10.849 16ZM14.8691 24C14.7346 22.7268 14.6621 21.3869 14.6621 19.9992C14.6621 18.6121 14.7345 17.2727 14.869 16H25.4553C25.5897 17.2727 25.6621 18.6121 25.6621 19.9992C25.6621 21.3869 25.5896 22.7268 25.4551 24H14.8691ZM11.4434 28H6.30262C8.00055 30.9352 10.6041 33.281 13.7313 34.6551C13.4771 34.1823 13.2402 33.6864 13.0202 33.1727C12.3696 31.653 11.8369 29.9063 11.4434 28ZM26.5929 34.6551C29.7201 33.281 32.3237 30.9352 34.0216 28H28.8808C28.4874 29.9063 27.9546 31.653 27.304 33.1727C27.084 33.6864 26.8471 34.1823 26.5929 34.6551ZM24.7844 28C24.4671 29.341 24.0749 30.5518 23.6268 31.5983C23.0116 33.0351 22.3304 34.0701 21.6759 34.7166C21.0299 35.3548 20.5206 35.516 20.1621 35.516C19.8036 35.516 19.2943 35.3548 18.6483 34.7166C17.9938 34.0701 17.3126 33.0351 16.6974 31.5983C16.2493 30.5518 15.8572 29.341 15.5398 28H24.7844ZM29.475 24H35.658C35.9871 22.7215 36.1621 21.3812 36.1621 20C36.1621 18.6188 35.9871 17.2785 35.658 16H29.4752C29.5981 17.2943 29.6621 18.6327 29.6621 19.9992C29.6621 21.3663 29.5981 22.7052 29.475 24ZM28.8811 12H34.0216C32.3239 9.06514 29.7207 6.71959 26.594 5.34533C26.8478 5.81757 27.0843 6.31279 27.304 6.82577C27.9548 8.34587 28.4877 10.0931 28.8811 12ZM24.7848 12H15.5394C15.8569 10.6583 16.2491 9.44703 16.6974 8.40018C17.3126 6.96331 17.9938 5.92839 18.6483 5.2818C19.2943 4.64365 19.8036 4.48242 20.1621 4.48242C20.5206 4.48242 21.0299 4.64365 21.6759 5.2818C22.3304 5.92839 23.0116 6.96331 23.6268 8.40018C24.0751 9.44703 24.4674 10.6583 24.7848 12Z" fill="white"/>
</svg>
