<svg width="75" height="75" viewBox="0 0 75 75" fill="none" xmlns="http://www.w3.org/2000/svg">
<path d="M37.5 0L41.8997 9.72127L49.0881 1.83538L50.2685 12.4404L59.5419 7.16186L57.3874 17.6126L67.8381 15.4581L62.5596 24.7315L73.1646 25.9119L65.2787 33.1003L75 37.5L65.2787 41.8997L73.1646 49.0881L62.5596 50.2685L67.8381 59.5419L57.3874 57.3874L59.5419 67.8381L50.2685 62.5596L49.0881 73.1646L41.8997 65.2787L37.5 75L33.1003 65.2787L25.9119 73.1646L24.7315 62.5596L15.4581 67.8381L17.6126 57.3874L7.16186 59.5419L12.4404 50.2685L1.83538 49.0881L9.72127 41.8997L0 37.5L9.72127 33.1003L1.83538 25.9119L12.4404 24.7315L7.16186 15.4581L17.6126 17.6126L15.4581 7.16186L24.7315 12.4404L25.9119 1.83538L33.1003 9.72127L37.5 0Z" fill="#FF8058"/>
<path d="M37.2548 48.36C42.7628 48.36 46.3628 45.336 46.3628 40.944V40.044C46.3628 37.38 44.6708 35.724 42.7988 35.292V35.256C44.6348 34.752 45.8588 33.06 45.8588 30.9V30.288C45.8228 25.5 41.8628 23.628 37.4348 23.628C34.0508 23.628 30.5228 24.924 28.5428 26.148C28.5428 27.732 28.7588 29.748 29.0108 31.08H34.7348C34.8428 29.82 35.8148 29.208 36.8588 29.208C38.1908 29.208 38.8388 29.892 38.8388 30.864V31.404C38.8388 32.844 38.2988 33.384 37.2188 33.384H34.3028V38.208L37.4348 38.46C38.7668 38.568 39.3068 39.216 39.3068 40.368V40.944C39.3068 41.844 38.3708 42.78 37.0388 42.78C35.5628 42.78 34.7708 42.276 34.4828 41.268H28.7228C28.5068 42.708 28.3268 44.544 28.3628 46.272C29.7308 47.136 33.5108 48.36 37.2548 48.36Z" fill="black"/>
</svg>
