<svg width="21" height="22" viewBox="0 0 21 22" fill="none" xmlns="http://www.w3.org/2000/svg">
<rect y="0.5" width="21" height="21" rx="10.5" fill="white"/>
<path d="M4.12932 16H10.2529V14.4754H8.38812V7.2052H5.49012L3.38592 9.9772L4.59552 10.9222L6.38472 8.5786H6.49812V14.4754H4.12932V16ZM13.9524 16.1512C15.9432 16.1512 17.2914 15.1306 17.2914 13.5556C17.2914 12.346 16.5102 11.6278 15.4644 11.4388V11.3632C16.3716 11.1994 17.1402 10.5064 17.1402 9.385C17.1402 7.9738 15.918 7.054 14.028 7.054C12.516 7.054 11.6592 7.6588 10.9914 8.5282L12.1758 9.637C12.6168 8.9692 13.2594 8.5912 13.965 8.5912C14.7084 8.5912 15.1494 9.0196 15.1494 9.6496V9.7378C15.1494 10.2796 14.7336 10.6828 13.8012 10.6828H12.9822V12.2578H13.776C14.7336 12.2578 15.3132 12.6232 15.3132 13.3414V13.417C15.3132 14.1478 14.8092 14.614 13.9524 14.614C13.0074 14.614 12.4782 14.0974 12.1002 13.3792L10.7016 14.4628C11.2686 15.3574 12.1632 16.1512 13.9524 16.1512Z" fill="black"/>
</svg>
