<svg width="21" height="22" viewBox="0 0 21 22" fill="none" xmlns="http://www.w3.org/2000/svg">
<rect y="0.5" width="21" height="21" rx="10.5" fill="white"/>
<path d="M11.2409 16.1512C12.9167 16.1512 13.7861 14.929 13.7861 12.6862C13.7861 10.4434 12.9167 9.2338 11.2409 9.2338C10.3841 9.2338 9.65329 9.763 9.46429 10.4938H9.40129V6.676H7.53649V16H9.40129V14.8912H9.46429C9.65329 15.6094 10.3841 16.1512 11.2409 16.1512ZM10.6235 14.6392C9.91789 14.6392 9.40129 14.2738 9.40129 13.669V11.716C9.40129 11.1112 9.91789 10.7458 10.6235 10.7458C11.3291 10.7458 11.8457 11.2876 11.8457 12.1192V13.2658C11.8457 14.0974 11.3291 14.6392 10.6235 14.6392Z" fill="black"/>
</svg>
