<svg width="32" height="32" viewBox="0 0 32 32" fill="none" xmlns="http://www.w3.org/2000/svg">
<path d="M16 0L17.8772 4.14774L20.9443 0.783095L21.4479 5.30792L25.4046 3.05573L24.4853 7.51472L28.9443 6.59544L26.6921 10.5521L31.2169 11.0557L27.8523 14.1228L32 16L27.8523 17.8772L31.2169 20.9443L26.6921 21.4479L28.9443 25.4046L24.4853 24.4853L25.4046 28.9443L21.4479 26.6921L20.9443 31.2169L17.8772 27.8523L16 32L14.1228 27.8523L11.0557 31.2169L10.5521 26.6921L6.59544 28.9443L7.51472 24.4853L3.05573 25.4046L5.30792 21.4479L0.783095 20.9443L4.14774 17.8772L0 16L4.14774 14.1228L0.783095 11.0557L5.30792 10.5521L3.05573 6.59544L7.51472 7.51472L6.59544 3.05573L10.5521 5.30792L11.0557 0.783095L14.1228 4.14774L16 0Z" fill="white"/>
<path d="M17.3896 22V21.622C17.3896 16.33 19.2256 13.99 20.3596 12.496V9.94H11.3236C11.3236 11.2 11.3596 12.442 11.4316 13.702H13.9876L14.2036 12.64H17.3176C15.2656 14.8 13.8616 17.05 13.8616 21.154V22H17.3896Z" fill="black"/>
</svg>
