<svg width="40" height="40" viewBox="0 0 40 40" fill="none" xmlns="http://www.w3.org/2000/svg">
<path d="M20 0L22.3465 5.18468L26.1803 0.97887L26.8099 6.6349L31.7557 3.81966L30.6066 9.3934L36.1803 8.2443L33.3651 13.1901L39.0211 13.8197L34.8153 17.6535L40 20L34.8153 22.3465L39.0211 26.1803L33.3651 26.8099L36.1803 31.7557L30.6066 30.6066L31.7557 36.1803L26.8099 33.3651L26.1803 39.0211L22.3465 34.8153L20 40L17.6535 34.8153L13.8197 39.0211L13.1901 33.3651L8.2443 36.1803L9.3934 30.6066L3.81966 31.7557L6.6349 26.8099L0.97887 26.1803L5.18468 22.3465L0 20L5.18468 17.6535L0.97887 13.8197L6.6349 13.1901L3.81966 8.2443L9.3934 9.3934L8.2443 3.81966L13.1901 6.6349L13.8197 0.97887L17.6535 5.18468L20 0Z" fill="#FF8058"/>
<path d="M23.7925 24.4668V22.1088L21.8125 21.8748V12.4068H19.5265C17.9425 12.5148 16.1245 12.8568 16.1245 12.8568V15.2868H18.2845V21.8748L16.1425 22.1088V24.4668H23.7925Z" fill="black"/>
</svg>
