<svg width="32" height="32" viewBox="0 0 32 32" fill="none" xmlns="http://www.w3.org/2000/svg">
<path d="M16 0L17.8772 4.14774L20.9443 0.783095L21.4479 5.30792L25.4046 3.05573L24.4853 7.51472L28.9443 6.59544L26.6921 10.5521L31.2169 11.0557L27.8523 14.1228L32 16L27.8523 17.8772L31.2169 20.9443L26.6921 21.4479L28.9443 25.4046L24.4853 24.4853L25.4046 28.9443L21.4479 26.6921L20.9443 31.2169L17.8772 27.8523L16 32L14.1228 27.8523L11.0557 31.2169L10.5521 26.6921L6.59544 28.9443L7.51472 24.4853L3.05573 25.4046L5.30792 21.4479L0.783095 20.9443L4.14774 17.8772L0 16L4.14774 14.1228L0.783095 11.0557L5.30792 10.5521L3.05573 6.59544L7.51472 7.51472L6.59544 3.05573L10.5521 5.30792L11.0557 0.783095L14.1228 4.14774L16 0Z" fill="white"/>
<path d="M15.8353 22.18C18.5893 22.18 20.2813 20.668 20.2813 18.472V17.572C20.2813 15.448 18.7693 14.152 16.1053 14.152C15.6373 14.152 15.0793 14.242 14.7913 14.368L14.8633 12.55H17.0413L17.2753 13.342H19.9213L20.0473 9.94H11.7133L11.4973 15.844L13.8733 17.122C14.3773 16.942 14.9893 16.852 15.6193 16.852C16.4113 16.852 16.7533 17.176 16.7533 17.878V18.472C16.7533 18.94 16.3393 19.39 15.6733 19.39C14.9533 19.39 14.7193 19.102 14.5393 18.706H11.7133C11.6233 19.534 11.5693 20.38 11.5513 21.208C12.4333 21.586 13.9993 22.18 15.8353 22.18Z" fill="black"/>
</svg>
