<svg width="24" height="24" viewBox="0 0 24 24" fill="none" xmlns="http://www.w3.org/2000/svg">
<rect width="24" height="24" rx="12" fill="white"/>
<path d="M12.0604 17.1728C14.35 17.1728 15.8332 15.704 15.8332 13.6448C15.8332 11.744 14.5516 10.52 12.8956 10.52C11.614 10.52 11.0236 11.2688 10.678 12.032L10.5484 11.9888C10.9516 10.0736 12.4204 8.7056 14.8684 6.9488H11.8876C10.174 8.1152 8.28761 10.3616 8.28761 13.184C8.28761 15.6032 9.67001 17.1728 12.0604 17.1728ZM12.0604 15.488C11.11 15.488 10.534 14.9408 10.534 13.9616V13.7024C10.534 12.7232 11.11 12.176 12.0604 12.176C13.0108 12.176 13.5868 12.7232 13.5868 13.7024V13.9616C13.5868 14.9408 13.0108 15.488 12.0604 15.488Z" fill="black"/>
</svg>
