<svg width="24" height="24" viewBox="0 0 24 24" fill="none" xmlns="http://www.w3.org/2000/svg">
<path fill-rule="evenodd" clip-rule="evenodd" d="M2.46839 6.96936C2.39854 7.03903 2.34313 7.1218 2.30532 7.21291C2.26751 7.30403 2.24805 7.40171 2.24805 7.50036C2.24805 7.59901 2.26751 7.6967 2.30532 7.78781C2.34313 7.87893 2.39854 7.9617 2.46839 8.03136L11.4684 17.0314C11.5381 17.1012 11.6208 17.1566 11.7119 17.1944C11.8031 17.2322 11.9007 17.2517 11.9994 17.2517C12.098 17.2517 12.1957 17.2322 12.2868 17.1944C12.378 17.1566 12.4607 17.1012 12.5304 17.0314L21.5304 8.03136C21.6712 7.89053 21.7503 7.69953 21.7503 7.50036C21.7503 7.3012 21.6712 7.11019 21.5304 6.96936C21.3896 6.82853 21.1986 6.74942 20.9994 6.74942C20.8002 6.74942 20.6092 6.82853 20.4684 6.96936L11.9994 15.4399L3.53039 6.96936C3.46072 6.89952 3.37796 6.8441 3.28684 6.80629C3.19572 6.76849 3.09804 6.74902 2.99939 6.74902C2.90074 6.74902 2.80305 6.76849 2.71194 6.80629C2.62082 6.8441 2.53806 6.89952 2.46839 6.96936Z" fill="white"/>
</svg>
