<svg width="17" height="24" viewBox="0 0 17 24" fill="none" xmlns="http://www.w3.org/2000/svg">
<g clip-path="url(#clip0_183_40366)">
<path d="M7.48254 9.5127C6.68814 9.5127 6.03378 10.1671 6.03378 10.9615V16.6662L5.71699 16.3339L5.59626 16.2282C5.32765 15.9608 4.96405 15.8106 4.58503 15.8106C4.206 15.8106 3.8424 15.9608 3.57379 16.2282C3.30638 16.4968 3.15625 16.8604 3.15625 17.2394C3.15625 17.6184 3.30638 17.982 3.57379 18.2506V18.2656L7.52793 22.1743L7.55787 22.1893L7.57284 22.2197C8.26777 22.7465 9.11542 23.0325 9.98744 23.0344H10.8181C11.3376 23.0355 11.8522 22.934 12.3324 22.7356C12.8126 22.5373 13.2489 22.2461 13.6163 21.8787C13.9837 21.5113 14.2748 21.0749 14.4731 20.5947C14.6714 20.1145 14.7729 19.5998 14.7717 19.0803V15.3077C14.7717 14.5133 14.1169 13.859 13.323 13.859C13.1172 13.859 12.927 13.9155 12.7492 13.9947C12.5909 13.3669 12.0196 12.8931 11.3459 12.8931C10.976 12.8931 10.6365 13.038 10.38 13.2703C10.1161 13.0291 9.7718 12.8947 9.41421 12.8931C9.2492 12.8952 9.08579 12.9259 8.93129 12.9839V10.9615C8.93129 10.1671 8.27694 9.5127 7.48254 9.5127ZM7.48254 10.4785C7.75056 10.4785 7.96546 10.6934 7.96546 10.9615V16.2736H8.93129V14.3419C8.93129 14.0739 9.14619 13.859 9.41421 13.859C9.68223 13.859 9.89713 14.0739 9.89713 14.3419V16.2736H10.863V14.3419C10.863 14.0739 11.0779 13.859 11.3459 13.859C11.6139 13.859 11.8288 14.0739 11.8288 14.3419V16.2736H12.84V15.3077C12.84 15.0397 13.0549 14.8248 13.323 14.8248C13.5905 14.8248 13.8059 15.0397 13.8059 15.3077V19.0808C13.8059 20.7536 12.4909 22.0686 10.8176 22.0686H9.98792C9.28044 22.0686 8.66907 21.816 8.16152 21.4345L4.25278 17.5712C4.03788 17.3563 4.03788 17.122 4.25278 16.9071C4.46816 16.6922 4.70189 16.6922 4.91679 16.9071L6.99962 18.99V10.9615C6.99962 10.6934 7.21452 10.4785 7.48254 10.4785Z" fill="#FF8058"/>
</g>
<path fill-rule="evenodd" clip-rule="evenodd" d="M10.2434 4.50749C8.65922 2.92332 6.09078 2.92332 4.50662 4.50749C2.92245 6.09166 2.92245 8.66009 4.50662 10.2443L3.68706 11.0638C1.65027 9.02702 1.65027 5.72473 3.68706 3.68794C5.72385 1.65115 9.02615 1.65115 11.0629 3.68794C13.0997 5.72473 13.0997 9.02702 11.0629 11.0638L10.2434 10.2443C11.8276 8.66009 11.8276 6.09166 10.2434 4.50749Z" fill="#FF8058"/>
<defs>
<clipPath id="clip0_183_40366">
<rect width="15.4534" height="15.4534" fill="white" transform="translate(1.20508 8.5459)"/>
</clipPath>
</defs>
</svg>
