<svg width="24" height="24" viewBox="0 0 24 24" fill="none" xmlns="http://www.w3.org/2000/svg">
<g clip-path="url(#clip0_617_6476)">
<path d="M11.4825 9.5127C10.6881 9.5127 10.0338 10.1671 10.0338 10.9615V16.6662L9.71699 16.3339L9.59626 16.2282C9.32765 15.9608 8.96405 15.8106 8.58503 15.8106C8.206 15.8106 7.8424 15.9608 7.57379 16.2282C7.30638 16.4968 7.15625 16.8604 7.15625 17.2394C7.15625 17.6184 7.30638 17.982 7.57379 18.2506V18.2656L11.5279 22.1743L11.5579 22.1893L11.5728 22.2197C12.2678 22.7465 13.1154 23.0325 13.9874 23.0344H14.8181C15.3376 23.0355 15.8522 22.934 16.3324 22.7356C16.8126 22.5373 17.2489 22.2461 17.6163 21.8787C17.9837 21.5113 18.2748 21.0749 18.4731 20.5947C18.6714 20.1145 18.7729 19.5998 18.7717 19.0803V15.3077C18.7717 14.5133 18.1169 13.859 17.323 13.859C17.1172 13.859 16.927 13.9155 16.7492 13.9947C16.5909 13.3669 16.0196 12.8931 15.3459 12.8931C14.976 12.8931 14.6365 13.038 14.38 13.2703C14.1161 13.0291 13.7718 12.8947 13.4142 12.8931C13.2492 12.8952 13.0858 12.9259 12.9313 12.9839V10.9615C12.9313 10.1671 12.2769 9.5127 11.4825 9.5127ZM11.4825 10.4785C11.7506 10.4785 11.9655 10.6934 11.9655 10.9615V16.2736H12.9313V14.3419C12.9313 14.0739 13.1462 13.859 13.4142 13.859C13.6822 13.859 13.8971 14.0739 13.8971 14.3419V16.2736H14.863V14.3419C14.863 14.0739 15.0779 13.859 15.3459 13.859C15.6139 13.859 15.8288 14.0739 15.8288 14.3419V16.2736H16.84V15.3077C16.84 15.0397 17.0549 14.8248 17.323 14.8248C17.5905 14.8248 17.8059 15.0397 17.8059 15.3077V19.0808C17.8059 20.7536 16.4909 22.0686 14.8176 22.0686H13.9879C13.2804 22.0686 12.6691 21.816 12.1615 21.4345L8.25278 17.5712C8.03788 17.3563 8.03788 17.122 8.25278 16.9071C8.46816 16.6922 8.70189 16.6922 8.91679 16.9071L10.9996 18.99V10.9615C10.9996 10.6934 11.2145 10.4785 11.4825 10.4785Z" fill="#F5F0EB"/>
</g>
<path fill-rule="evenodd" clip-rule="evenodd" d="M14.2434 4.50749C12.6592 2.92332 10.0908 2.92332 8.50662 4.50749C6.92245 6.09166 6.92245 8.66009 8.50662 10.2443L7.68706 11.0638C5.65027 9.02702 5.65027 5.72473 7.68706 3.68794C9.72385 1.65115 13.0261 1.65115 15.0629 3.68794C17.0997 5.72473 17.0997 9.02702 15.0629 11.0638L14.2434 10.2443C15.8276 8.66009 15.8276 6.09166 14.2434 4.50749Z" fill="#F5F0EB"/>
<defs>
<clipPath id="clip0_617_6476">
<rect width="15.4534" height="15.4534" fill="white" transform="translate(5.20508 8.5459)"/>
</clipPath>
</defs>
</svg>
