<svg width="20" height="20" viewBox="0 0 20 20" fill="none" xmlns="http://www.w3.org/2000/svg">
<path fill-rule="evenodd" clip-rule="evenodd" d="M10 20C15.5228 20 20 15.5228 20 10C20 4.47715 15.5228 0 10 0C4.47715 0 0 4.47715 0 10C0 15.5228 4.47715 20 10 20ZM14.7474 8.33104C15.1143 7.91826 15.0772 7.28619 14.6644 6.91927C14.2516 6.55235 13.6195 6.58953 13.2526 7.00231L8.66668 12.1615L6.74742 10.0023C6.3805 9.58953 5.74843 9.55235 5.33565 9.91927C4.92286 10.2862 4.88568 10.9183 5.2526 11.331L6.58593 12.831L7.91927 14.331C8.10904 14.5445 8.38104 14.6667 8.66668 14.6667C8.95232 14.6667 9.22432 14.5445 9.41409 14.331L14.7474 8.33104Z" fill="white"/>
</svg>
