<svg width="24" height="24" viewBox="0 0 24 24" fill="none" xmlns="http://www.w3.org/2000/svg">
<path fill-rule="evenodd" clip-rule="evenodd" d="M21.5311 6.969C21.601 7.03867 21.6564 7.12143 21.6942 7.21255C21.732 7.30366 21.7515 7.40135 21.7515 7.5C21.7515 7.59865 21.732 7.69633 21.6942 7.78745C21.6564 7.87857 21.601 7.96133 21.5311 8.031L12.5311 17.031C12.4615 17.1008 12.3787 17.1563 12.2876 17.1941C12.1965 17.2319 12.0988 17.2513 12.0001 17.2513C11.9015 17.2513 11.8038 17.2319 11.7127 17.1941C11.6216 17.1563 11.5388 17.1008 11.4691 17.031L2.46912 8.031C2.32829 7.89017 2.24918 7.69916 2.24918 7.5C2.24918 7.30083 2.32829 7.10983 2.46912 6.969C2.60995 6.82817 2.80096 6.74905 3.00012 6.74905C3.19929 6.74905 3.3903 6.82817 3.53112 6.969L12.0001 15.4395L20.4691 6.969C20.5388 6.89915 20.6216 6.84374 20.7127 6.80593C20.8038 6.76812 20.9015 6.74866 21.0001 6.74866C21.0988 6.74866 21.1965 6.76812 21.2876 6.80593C21.3787 6.84374 21.4615 6.89915 21.5311 6.969Z" fill="white"/>
</svg>
