<svg width="1280" height="720" viewBox="0 0 1280 720" fill="none" xmlns="http://www.w3.org/2000/svg">
<g clip-path="url(#clip0_97_17748)">
<rect width="1280" height="720" fill="black"/>
<path d="M490 316L400 720M790 316L880 720" stroke="white" stroke-width="2"/>
<path d="M590.084 129.72C587.204 129.72 584.068 130.84 582.628 131.704C582.66 133.016 582.788 134.84 582.948 136.088H587.652C587.876 135.064 588.676 134.264 589.988 134.264C591.492 134.264 592.228 134.968 592.228 136.44V140.888C592.228 142.36 591.46 143.096 589.86 143.096C588.932 143.096 587.812 142.872 587.364 142.488V140.856H589.444V137.656H582.468V145.208H583.172C584.58 146.424 587.46 147.256 589.86 147.256C594.916 147.256 598.308 145.112 598.308 141.08V136.248C598.308 132.44 595.396 129.72 590.084 129.72ZM614.798 147V143.832L613.646 143.384C613.422 143.288 613.358 143.224 613.358 142.968V135.896C613.358 132.184 611.054 129.784 606.286 129.784C603.534 129.784 601.038 130.936 599.758 132.088C599.854 133.304 599.918 134.552 600.014 135.768H604.75C604.91 134.968 605.262 134.52 606.094 134.52C606.958 134.52 607.278 135.096 607.278 135.896V142.968C607.278 143.224 607.214 143.288 606.99 143.384L605.838 143.832V147H614.798ZM624.334 129.72C620.814 129.72 618.254 130.84 616.878 131.864C616.878 133.176 617.006 134.968 617.198 136.248H621.902C622.19 135.32 622.862 134.584 624.206 134.584C625.582 134.584 626.254 135.48 626.254 137.144V140.792C626.254 142.072 625.678 142.712 624.782 142.776L623.982 138.104H617.326V141.624H618.286C618.926 141.624 619.214 141.784 619.406 142.648L620.366 147H624.686C629.358 147 632.333 144.216 632.333 140.184V136.568C632.333 132.12 629.006 129.72 624.334 129.72ZM645.68 119.32H633.264V120.376L634.032 122.872L639.664 122.904C638.064 123.576 636.24 125.144 636.24 128.44V143.32C636.24 145.272 637.488 147 639.376 147H643.408L644.048 144.888V143.8H643.216C642.64 143.8 642.32 143.512 642.32 142.776V128.44C642.16 124.792 643.472 122.872 645.68 122.552V119.32ZM657.627 147.32C661.275 147.32 663.451 145.272 663.451 141.848V133.944C663.451 133.688 663.515 133.56 663.803 133.496L664.891 133.208V130.04H655.931V133.208L657.019 133.496C657.307 133.56 657.371 133.688 657.371 133.944V141.72C657.371 142.584 656.731 143.064 655.643 143.064C654.715 143.064 654.075 142.616 653.787 142.136V130.04H646.267V133.208L647.355 133.496C647.643 133.56 647.707 133.688 647.707 133.944V142.968C647.707 143.224 647.643 143.288 647.419 143.384L646.427 143.736V147H653.115L653.371 145.496C654.107 146.392 655.419 147.32 657.627 147.32ZM662.972 127.448V121.048H657.852V127.448H662.972ZM677.368 119.32H664.951V120.376L665.72 122.872L671.352 122.904C669.752 123.576 667.928 125.144 667.928 128.44V143.32C667.928 145.272 669.176 147 671.064 147H675.095L675.736 144.888V143.8H674.904C674.328 143.8 674.008 143.512 674.008 142.776V128.44C673.848 124.792 675.16 122.872 677.368 122.552V119.32ZM697.091 143.544C696.803 143.48 696.739 143.352 696.739 143.096V136.536C696.739 132.728 693.251 129.656 688.003 129.656C682.787 129.656 679.299 132.728 679.299 136.536V143.096C679.299 143.352 679.235 143.48 678.947 143.544L677.859 143.832V147H681.475C687.747 147 690.307 143.768 690.307 139.928C690.307 138.616 689.923 137.624 689.315 137.112H685.859L685.699 140.952C686.147 140.984 686.435 141.304 686.435 141.848C686.435 142.36 686.051 142.968 685.059 143.352V136.536C685.059 134.872 686.147 133.912 688.003 133.912C689.859 133.912 690.979 134.872 690.979 136.536V143.096C690.979 143.352 690.915 143.448 690.627 143.544L689.795 143.832V147H698.179V143.832L697.091 143.544ZM694.649 124.088C694.457 122.264 693.145 121.208 691.033 121.208H687.097L686.457 123.224V124.472H688.633C689.177 124.472 689.497 124.76 689.497 125.304V127.448H698.617L699.258 125.368V124.088H694.649ZM583.219 192H586.611L587.251 189.888V188.8H586.419C585.843 188.8 585.523 188.512 585.523 187.776V178.944C585.523 178.688 585.587 178.592 585.875 178.496L586.963 178.208V175.04H578.003V178.208L579.091 178.496C579.379 178.592 579.443 178.688 579.443 178.944V188.32C579.443 190.272 580.691 192 583.219 192ZM597.438 192.256C602.174 192.256 604.894 189.76 604.894 186.4C604.894 183.936 603.198 182.176 599.774 181.504C597.15 180.992 596.062 180.704 596.062 179.904C596.062 179.328 596.606 178.976 597.758 178.976C598.622 178.976 599.582 179.456 599.902 180.256H604.126C604.126 180.256 604.318 177.984 604.318 175.904C602.846 175.2 600.318 174.72 597.79 174.72C593.278 174.72 590.174 176.64 590.174 180.032C590.174 183.136 592.35 184.704 595.23 185.248C598.11 185.792 598.974 186.176 598.974 187.008C598.974 187.488 598.622 188.032 597.182 188.032C596.126 188.032 595.262 187.584 595.166 186.848H590.526C590.398 188.224 590.302 189.6 590.174 190.976C590.174 190.976 592.83 192.256 597.438 192.256ZM599.394 169.216H592.002L590.722 171.36V172.672H604.514V167.04H599.394V169.216ZM616.692 192.384C621.396 192.384 624.724 189.92 624.724 186.464V178.944C624.724 178.688 624.788 178.592 625.076 178.496L626.164 178.208V175.04H617.204V178.208L618.292 178.496C618.58 178.592 618.644 178.688 618.644 178.944V186.336C618.644 187.488 617.972 188.224 616.692 188.224C615.092 188.224 614.74 187.488 614.74 186.336C614.74 185.088 615.412 184.608 616.276 184.608H617.3L617.94 182.176V181.152H616.756C615.156 181.152 614.612 180.704 614.612 179.296V178.176H616.116V175.04H608.308V178.944C608.308 181.184 609.396 182.304 611.156 182.688V182.72C609.588 183.2 608.244 184.192 608.244 186.72C608.244 190.176 611.668 192.384 616.692 192.384ZM637.481 192.384C642.825 192.384 645.833 189.92 645.833 186.144V178.944C645.833 178.688 645.897 178.56 646.185 178.496L647.273 178.208V175.04H638.313V178.208L639.401 178.496C639.689 178.56 639.753 178.688 639.753 178.944V186.016C639.753 187.488 638.761 188.224 637.481 188.224C636.201 188.224 635.209 187.488 635.209 186.016V175.04H627.689V178.208L628.777 178.496C629.065 178.592 629.129 178.688 629.129 178.944V186.144C629.129 189.92 631.817 192.384 637.481 192.384ZM657.902 192C661.87 192 664.398 190.208 664.398 186.72V175.04H656.878V178.208L657.966 178.496C658.254 178.56 658.318 178.688 658.318 178.944V187.168C658.318 187.872 657.966 188.16 657.326 188.16H656.718L654.094 179.2H648.398V182.016C649.006 182.08 649.39 182.336 649.582 182.912L652.558 192H657.902ZM663.925 172.448V166.048H658.805V172.448H663.925ZM681.688 192V188.832L680.536 188.384C680.312 188.288 680.248 188.224 680.248 187.968V180.896C680.248 177.184 677.944 174.784 673.176 174.784C670.424 174.784 667.928 175.936 666.648 177.088C666.744 178.304 666.808 179.552 666.904 180.768H671.64C671.8 179.968 672.152 179.52 672.984 179.52C673.848 179.52 674.168 180.096 674.168 180.896V187.968C674.168 188.224 674.104 188.288 673.88 188.384L672.728 188.832V192H681.688ZM692.536 192.384C697.24 192.384 700.568 189.92 700.568 186.464V178.944C700.568 178.688 700.632 178.592 700.92 178.496L702.008 178.208V175.04H693.048V178.208L694.136 178.496C694.424 178.592 694.488 178.688 694.488 178.944V186.336C694.488 187.488 693.816 188.224 692.536 188.224C690.936 188.224 690.584 187.488 690.584 186.336C690.584 185.088 691.256 184.608 692.12 184.608H693.144L693.784 182.176V181.152H692.6C691 181.152 690.456 180.704 690.456 179.296V178.176H691.96V175.04H684.152V178.944C684.152 181.184 685.24 182.304 687 182.688V182.72C685.432 183.2 684.088 184.192 684.088 186.72C684.088 190.176 687.512 192.384 692.536 192.384Z" fill="white"/>
<path d="M518.511 376H520.311V374.74H518.457V365.74H516.981V374.47C516.981 375.37 517.521 376 518.511 376ZM523.281 376H525.081V374.74H523.227V365.74H521.751V374.47C521.751 375.37 522.291 376 523.281 376ZM530.244 365.524C528.39 365.524 527.148 366.334 526.41 367.522L527.364 368.44C527.922 367.522 528.84 366.82 530.136 366.82C531.864 366.82 532.692 367.594 532.692 369.412V369.952H530.496C527.598 369.952 526.212 370.978 526.212 373.03C526.212 375.01 527.526 376 529.596 376H530.658V374.686H529.776C528.48 374.686 527.76 374.218 527.76 373.174V372.706C527.76 371.806 528.57 371.266 530.19 371.266H532.692V376H534.168V369.196C534.168 366.856 532.8 365.524 530.244 365.524ZM538.222 369.718L541.39 369.7V368.368L538.096 368.386V366.73L536.692 366.748V368.188C536.692 369.16 537.322 369.718 538.222 369.718ZM538.222 374.938L541.39 374.92V373.588L538.096 373.606V371.95L536.692 371.968V373.408C536.692 374.38 537.322 374.938 538.222 374.938ZM545.269 376H547.069V374.74H545.215V365.74H543.739V374.47C543.739 375.37 544.279 376 545.269 376ZM552.756 376.216C555.294 376.216 556.644 374.794 556.644 372.328V361.96H555.168V372.112C555.168 373.966 554.34 374.92 552.756 374.92C551.154 374.92 550.326 373.966 550.326 372.112V365.74H548.85V372.328C548.85 374.794 550.2 376.216 552.756 376.216ZM550.84 361.798H554.512V360.844H550.75C549.616 360.844 548.86 361.546 548.86 362.608C548.86 363.688 549.508 364.39 550.498 364.39C551.254 364.39 551.632 363.994 551.704 363.382L551.74 363.04H551.758C551.848 363.922 552.28 364.39 552.91 364.39C553.504 364.39 553.972 364.03 553.972 363.148V362.5H553.018V362.968C553.018 363.346 552.838 363.526 552.532 363.526C552.172 363.526 551.974 363.202 551.974 362.608H551.038L550.768 363.562C550.282 363.526 550.03 363.238 550.03 362.68C550.03 362.104 550.318 361.798 550.84 361.798ZM563.098 376.216C564.79 376.216 565.564 375.28 565.96 374.308H566.032V376H567.472V365.74H565.996V372.922C565.996 374.272 564.754 374.902 563.494 374.902C561.964 374.902 561.136 373.948 561.136 372.112V365.74H559.66V372.328C559.66 374.794 561.01 376.216 563.098 376.216ZM572.682 376H574.482V374.74H572.628V365.524C572.628 362.968 573.672 361.042 575.454 360.988V359.728H569.712V360.952H573.96V361.024C571.908 361.726 571.152 363.094 571.152 365.938V374.47C571.152 375.37 571.692 376 572.682 376ZM580.16 376.216C582.698 376.216 584.048 374.794 584.048 372.328V361.96H582.572V372.112C582.572 373.966 581.744 374.92 580.16 374.92C578.558 374.92 577.73 373.966 577.73 372.112V365.74H576.254V372.328C576.254 374.794 577.604 376.216 580.16 376.216ZM590.413 376H591.511V374.686H590.503C588.829 374.686 588.109 373.912 588.109 371.95V369.88C588.109 368.134 588.667 366.946 589.603 366.946L590.971 368.386H591.007L592.375 366.946C593.239 367.036 593.455 367.468 593.455 369.268V376H594.931V368.242C594.931 366.19 593.671 365.524 592.159 365.524L591.025 366.856H590.971L589.819 365.524C587.731 365.524 586.561 367.27 586.561 370.708C586.561 374.416 587.695 376 590.413 376ZM601.94 376H603.416V368.656C603.416 366.658 602.21 365.524 600.104 365.524C598.556 365.524 597.332 366.19 596.702 367.342L597.692 368.242C598.268 367.378 598.97 366.82 600.068 366.82C601.31 366.82 601.94 367.414 601.94 368.818V376ZM610.9 376.216C612.988 376.216 614.338 374.794 614.338 372.328V365.74H612.862V372.112C612.862 373.948 612.034 374.902 610.504 374.902C609.244 374.902 608.002 374.272 608.002 372.922V365.74H606.526V376H607.966V374.308H608.038C608.434 375.28 609.208 376.216 610.9 376.216ZM619.079 376H620.879V374.74H619.025V365.74H617.549V374.47C617.549 375.37 618.089 376 619.079 376ZM625.576 365.524C623.83 365.524 622.606 366.154 621.832 367.342L622.786 368.26C623.344 367.342 624.262 366.82 625.558 366.82C627.43 366.82 628.474 367.936 628.474 369.898V371.626C628.474 373.696 627.556 374.704 626.26 374.704H626.026L625.216 371.608C624.892 370.384 624.532 370.024 623.614 370.024H622.462V371.284H623.686L624.964 376H626.26C628.636 376 630.022 374.272 630.022 370.726C630.022 367.36 628.69 365.524 625.576 365.524ZM635.852 376H636.95V374.686H635.942C634.268 374.686 633.548 373.912 633.548 371.95V369.88C633.548 368.134 634.106 366.946 635.042 366.946L636.41 368.386H636.446L637.814 366.946C638.678 367.036 638.894 367.468 638.894 369.268V376H640.37V368.242C640.37 366.19 639.11 365.524 637.598 365.524L636.464 366.856H636.41L635.258 365.524C633.17 365.524 632 367.27 632 370.708C632 374.416 633.134 376 635.852 376ZM646.876 376.216C648.568 376.216 649.342 375.28 649.738 374.308H649.81V376H651.25V365.74H649.774V372.922C649.774 374.272 648.532 374.902 647.272 374.902C645.742 374.902 644.914 373.948 644.914 372.112V365.74H643.438V372.328C643.438 374.794 644.788 376.216 646.876 376.216ZM658.313 376H659.789V368.656C659.789 366.658 658.583 365.524 656.477 365.524C654.929 365.524 653.705 366.19 653.075 367.342L654.065 368.242C654.641 367.378 655.343 366.82 656.441 366.82C657.683 366.82 658.313 367.414 658.313 368.818V376ZM665.959 376.216C668.101 376.216 669.505 375.046 669.505 373.03C669.505 371.482 668.641 370.51 666.589 370.222L665.797 370.114C664.627 369.952 663.907 369.448 663.907 368.458C663.907 367.468 664.627 366.82 665.833 366.82C667.021 366.82 667.903 367.486 668.335 368.116L669.415 367.18C668.569 366.136 667.489 365.524 665.941 365.524C664.051 365.524 662.485 366.514 662.485 368.53C662.485 370.438 663.889 371.122 665.599 371.374L666.391 371.482C667.651 371.662 668.083 372.418 668.083 373.21C668.083 374.272 667.273 374.92 666.049 374.92C664.807 374.92 663.925 374.38 663.115 373.3L662.053 374.2C662.971 375.406 664.141 376.216 665.959 376.216ZM676.378 376.216C678.466 376.216 679.816 374.794 679.816 372.328V365.74H678.34V372.112C678.34 373.948 677.512 374.902 675.982 374.902C674.722 374.902 673.48 374.272 673.48 372.922V365.74H672.004V376H673.444V374.308H673.516C673.912 375.28 674.686 376.216 676.378 376.216ZM686.484 376.216C689.022 376.216 690.372 374.794 690.372 372.328V365.74H688.896V372.112C688.896 373.966 688.068 374.92 686.484 374.92C684.9 374.92 684.072 374.038 684.072 372.58V370.942H686.52V369.646H686.052C684.612 369.646 684.162 368.566 684.162 367.36V367H686.286V365.74H684.648C683.352 365.74 682.722 366.37 682.722 367.468V367.558C682.722 368.764 683.676 369.376 684.594 369.592V369.646H684.432C683.244 369.646 682.596 370.528 682.596 372.022V372.598C682.596 374.866 683.946 376.216 686.484 376.216ZM687.687 364.3H689.055V363.13H691.431V361.942H689.721C688.281 361.942 687.687 362.482 687.687 363.76V364.3ZM696.887 376.216C699.821 376.216 701.171 374.488 701.171 370.87C701.171 367.36 699.785 365.524 696.833 365.524C695.087 365.524 693.845 366.154 693.035 367.342L694.025 368.224C694.619 367.342 695.501 366.82 696.797 366.82C698.597 366.82 699.623 367.936 699.623 369.898V371.878C699.623 373.912 698.705 374.92 696.887 374.92C695.015 374.92 694.223 374.038 694.223 371.878V371.338H696.095V370.078H694.655C693.467 370.078 692.783 370.672 692.783 371.896V372.04C692.783 374.686 694.277 376.216 696.887 376.216ZM707.226 376.216C709.764 376.216 711.114 374.794 711.114 372.328V365.74H709.638V372.112C709.638 373.966 708.81 374.92 707.226 374.92C705.642 374.92 704.814 374.038 704.814 372.58V370.942H707.262V369.646H706.794C705.354 369.646 704.904 368.566 704.904 367.36V367H707.028V365.74H705.39C704.094 365.74 703.464 366.37 703.464 367.468V367.558C703.464 368.764 704.418 369.376 705.336 369.592V369.646H705.174C703.986 369.646 703.338 370.528 703.338 372.022V372.598C703.338 374.866 704.688 376.216 707.226 376.216ZM709.656 364.3H711.06V361.312H709.656V364.3ZM718.079 376H719.555V368.656C719.555 366.658 718.349 365.524 716.243 365.524C714.695 365.524 713.471 366.19 712.841 367.342L713.831 368.242C714.407 367.378 715.109 366.82 716.207 366.82C717.449 366.82 718.079 367.414 718.079 368.818V376ZM724.843 376H725.977C728.299 376 729.469 374.938 729.469 371.5V368.26C729.469 366.64 728.803 365.74 727.417 365.74H726.085V367H727.993V372.13C727.993 374.074 727.399 374.704 726.067 374.704H725.905L723.007 365.74H721.513L724.843 376ZM732.332 376H733.808V368.836C733.808 367.486 735.086 366.856 736.382 366.856C737.894 366.856 738.722 367.81 738.722 369.646V376H740.198V369.412C740.198 366.946 738.848 365.524 736.778 365.524C735.05 365.524 734.258 366.46 733.844 367.432H733.772V365.74H732.332V376ZM732.955 364.3H738.607C739.597 364.3 740.101 363.814 740.101 362.842V361.582H738.733V363.112H732.955V364.3ZM738.876 360.88H740.1V358.432H738.876V360.88ZM743.193 376H744.669V373.498C744.669 371.986 745.713 371.608 746.667 371.608H747.981V370.132H747.135C745.767 370.132 745.065 370.978 744.741 371.896H744.669V369.502C744.669 367.774 745.659 366.82 747.279 366.82C748.899 366.82 749.889 367.774 749.889 369.502V376H751.365V369.412C751.365 367.036 749.961 365.524 747.279 365.524C744.597 365.524 743.193 367.036 743.193 369.412V376ZM744.045 364.3H751.191V363.112H744.045V364.3ZM757.704 376H758.604V374.686H757.794C756.3 374.686 755.4 373.912 755.4 371.95V370.024C755.4 367.972 756.408 366.82 758.064 366.82C759.684 366.82 760.548 367.828 760.548 369.61V376H762.024V369.412C762.024 366.946 760.656 365.524 758.1 365.524C755.328 365.524 753.852 367.306 753.852 370.924C753.852 374.668 755.058 376 757.704 376Z" fill="white"/>
<path d="M790 -3.34025e-05L724 26.3727L790 52.7453L724 79.1179L790 105.491L724 131.863L790 158.236L724 184.637L790 211.009L724 237.382L790 263.755L724 290.127L790 316.5" stroke="white" stroke-width="2"/>
<path d="M490 -3.34025e-05L556 26.3727L490 52.7453L556 79.1179L490 105.491L556 131.863L490 158.236L556 184.637L490 211.009L556 237.382L490 263.755L556 290.127L490 316.5" stroke="white" stroke-width="2"/>
<circle cx="534.893" cy="506.893" r="30" transform="rotate(-74.5895 534.893 506.893)" fill="#5C2FF0"/>
<circle cx="534.893" cy="506.893" r="30" transform="rotate(-74.5895 534.893 506.893)" fill="url(#paint0_radial_97_17748)"/>
<circle cx="675.025" cy="310.025" r="30" transform="rotate(-37.112 675.025 310.025)" fill="#DFFF5F"/>
<circle cx="675.025" cy="310.025" r="30" transform="rotate(-37.112 675.025 310.025)" fill="url(#paint1_radial_97_17748)"/>
<circle cx="607.051" cy="59.0506" r="30" transform="rotate(52.6316 607.051 59.0506)" fill="#9B8CCD"/>
<circle cx="607.051" cy="59.0506" r="30" transform="rotate(52.6316 607.051 59.0506)" fill="url(#paint2_radial_97_17748)"/>
<circle cx="764" cy="637" r="30" fill="#78E5B8"/>
<circle cx="764" cy="637" r="30" fill="url(#paint3_radial_97_17748)"/>
</g>
<defs>
<radialGradient id="paint0_radial_97_17748" cx="0" cy="0" r="1" gradientUnits="userSpaceOnUse" gradientTransform="translate(526.393 495.393) rotate(49.6001) scale(30.8585)">
<stop stop-color="white" stop-opacity="0.81"/>
<stop offset="1" stop-color="white" stop-opacity="0"/>
</radialGradient>
<radialGradient id="paint1_radial_97_17748" cx="0" cy="0" r="1" gradientUnits="userSpaceOnUse" gradientTransform="translate(666.525 298.525) rotate(49.6001) scale(30.8585)">
<stop stop-color="white"/>
<stop offset="1" stop-color="white" stop-opacity="0"/>
</radialGradient>
<radialGradient id="paint2_radial_97_17748" cx="0" cy="0" r="1" gradientUnits="userSpaceOnUse" gradientTransform="translate(598.551 47.5506) rotate(49.6001) scale(30.8585)">
<stop stop-color="white"/>
<stop offset="1" stop-color="white" stop-opacity="0"/>
</radialGradient>
<radialGradient id="paint3_radial_97_17748" cx="0" cy="0" r="1" gradientUnits="userSpaceOnUse" gradientTransform="translate(755.5 625.5) rotate(49.6001) scale(30.8585)">
<stop stop-color="white"/>
<stop offset="1" stop-color="white" stop-opacity="0"/>
</radialGradient>
<clipPath id="clip0_97_17748">
<rect width="1280" height="720" fill="white"/>
</clipPath>
</defs>
</svg>
