<svg width="291" height="226" viewBox="0 0 291 226" fill="none" xmlns="http://www.w3.org/2000/svg">
<circle cx="25.4697" cy="159.984" r="8.12241" stroke="#F5F0EB"/>
<path d="M29.4656 137.044L29.3475 137.53L29.86 137.655L29.9571 137.136L29.4656 137.044ZM20.9281 182.608L21.4195 182.7L21.5168 182.181L20.993 182.112L20.9281 182.608ZM20.9074 182.718L20.416 182.626L20.3187 183.146L20.8427 183.214L20.9074 182.718ZM275.627 215.993L275.562 216.489L276.056 216.554L276.123 216.06L275.627 215.993ZM275.631 215.966L275.659 215.467L275.197 215.441L275.135 215.9L275.631 215.966ZM277.326 202.788L277.197 203.271L277.212 203.275L277.227 203.278L277.326 202.788ZM29.4737 137.001L29.602 136.517L29.0815 136.379L28.9823 136.909L29.4737 137.001ZM29.5837 136.558C27.5353 136.06 25.3863 135.83 23.1776 135.903L23.2111 136.903C25.3281 136.832 27.3864 137.053 29.3475 137.53L29.5837 136.558ZM23.1776 135.903C10.0918 136.341 -0.161539 147.304 0.276251 160.39L1.27569 160.357C0.856368 147.823 10.6772 137.322 23.2111 136.903L23.1776 135.903ZM0.276251 160.39C0.669736 172.152 9.56542 181.624 20.8632 183.104L20.993 182.112C10.1726 180.695 1.65255 171.621 1.27569 160.357L0.276251 160.39ZM20.4366 182.516L20.416 182.626L21.3989 182.81L21.4195 182.7L20.4366 182.516ZM20.8427 183.214L275.562 216.489L275.692 215.498L20.9722 182.223L20.8427 183.214ZM276.123 216.06L276.126 216.033L275.135 215.9L275.131 215.927L276.123 216.06ZM275.603 216.466C275.816 216.478 276.031 216.48 276.249 216.473L276.215 215.473C276.028 215.48 275.842 215.477 275.659 215.467L275.603 216.466ZM276.249 216.473C280.201 216.341 283.297 213.03 283.165 209.078L282.165 209.111C282.279 212.511 279.615 215.36 276.215 215.473L276.249 216.473ZM283.165 209.078C283.052 205.693 280.606 202.936 277.424 202.297L277.227 203.278C279.965 203.827 282.068 206.2 282.165 209.111L283.165 209.078ZM277.454 202.304L29.602 136.517L29.3455 137.484L277.197 203.271L277.454 202.304ZM28.9823 136.909L28.9742 136.952L29.9571 137.136L29.9652 137.093L28.9823 136.909Z" fill="#F5F0EB"/>
<circle cx="163.017" cy="28.0166" r="20" transform="rotate(-37.112 163.017 28.0166)" fill="#DFFF5F"/>
<circle cx="163.017" cy="28.0166" r="20" transform="rotate(-37.112 163.017 28.0166)" fill="url(#paint0_radial_197_42774)"/>
<path d="M46.5489 79.6613L50.2349 80.649L51.5453 78.5403L51.8621 77.358L50.958 77.1157C50.332 76.948 50.0682 76.5419 50.2825 75.7421L52.8541 66.1447C52.9286 65.8665 53.0261 65.7808 53.367 65.7603L54.6332 65.7642L55.5556 62.3216L45.8191 59.7127L44.8967 63.1553L45.9951 63.785C46.2801 63.9732 46.3217 64.0961 46.2472 64.3743L43.5171 74.5629C42.9488 76.6841 43.8018 78.9252 46.5489 79.6613ZM73.362 65.602C73.1129 66.3925 72.7434 67.0761 72.2652 67.4698C71.1022 66.5246 69.6213 65.7923 67.8131 65.3078C64.8573 64.5158 60.9055 64.7986 59.1791 65.6778C58.8412 67.078 58.5728 68.4969 58.3392 69.9251L63.4509 71.2948C63.8577 70.472 64.7997 70.0163 66.2254 70.3984C67.7902 70.8176 68.1416 71.7317 67.9459 72.462L67.5267 74.0268L63.1452 72.8528C58.8333 71.6974 55.7749 73.375 54.9364 76.5046C54.0326 79.8776 55.6735 82.5162 59.29 83.4852C61.0286 83.9511 62.7909 84.0506 63.8068 83.8756C64.2075 82.3803 64.392 81.2744 64.6884 79.7512L61.9413 79.0151C61.6742 79.3163 61.3588 79.3808 61.011 79.2877C60.4894 79.1479 60.2976 78.612 60.4933 77.8817C60.7542 76.9081 61.5292 76.5194 62.5376 76.7896L66.467 77.8425L65.2905 82.3724C65.1712 83.2349 65.5294 84.2626 65.9646 84.8637L72.3629 86.5782L73.3133 83.0313C72.6619 82.8195 72.3633 82.404 72.5403 81.7433L74.5529 74.2323C74.8697 73.05 74.8803 71.8975 74.5662 70.8443C75.9646 70.7718 77.5096 70.2913 78.1301 69.2276L78.7171 67.0369L73.362 65.602ZM75.5401 60.7442C75.8625 58.7062 74.7443 57.1767 72.4492 56.5617L68.1721 55.4157L66.8897 57.42L66.5263 58.7762L68.8909 59.4098C69.482 59.5682 69.7459 59.9743 69.5875 60.5655L68.9632 62.8953L78.8736 65.5508L80.1747 63.4768L80.5474 62.0859L75.5401 60.7442ZM82.0185 89.5381C84.4179 90.181 86.8788 89.7595 87.8699 88.9816C87.7904 89.5566 87.8245 90.1248 87.884 90.737L94.9778 92.6378L95.9282 89.0909C94.7416 88.5121 94.6584 88.2662 94.882 87.4316L97.3884 78.0776C97.4629 77.7994 97.5698 77.6789 97.9014 77.6933L99.1675 77.6971L100.09 74.2545L90.3534 71.6456L89.431 75.0882L90.5294 75.7179C90.8237 75.8713 90.856 76.0291 90.7815 76.3073L88.4241 85.1049C87.8578 85.5495 86.9437 85.9009 85.5875 85.5375C84.4748 85.2393 84.0514 84.455 84.3029 83.5161L87.6759 70.9282L79.5041 68.7386L78.5817 72.1811L79.6801 72.8109C79.9651 72.9991 80.0067 73.122 79.9322 73.4002L77.6308 81.9892C76.6338 85.71 78.263 88.5318 82.0185 89.5381ZM106.267 95.6627L107.189 92.2202L106.091 91.5904C105.806 91.4022 105.764 91.2793 105.839 91.0011L108.15 82.3773C108.763 81.7589 109.642 81.3982 110.755 81.6963C111.833 81.9852 112.518 82.7652 112.239 83.8084L110.012 92.1192C109.937 92.3974 109.83 92.5178 109.499 92.5035L108.233 92.4997L107.31 95.9422L117.047 98.5511L117.969 95.1086L116.871 94.4788C116.586 94.2906 116.544 94.1677 116.619 93.8895L118.92 85.3005C119.852 81.8232 118.114 78.7113 114.706 77.7982C111.855 77.0342 109.973 77.7972 108.601 78.8832L108.736 76.5713L101.643 74.6705L100.692 78.2174L101.668 78.8888C101.883 79.0583 101.934 79.1465 101.859 79.4247L99.2319 89.2308C99.1574 89.5089 99.0599 89.5946 98.719 89.6151L97.4528 89.6113L96.5304 93.0538L106.267 95.6627ZM134.603 103.255L135.526 99.8128L134.404 98.9906C134.189 98.821 134.138 98.7328 134.212 98.4546L136.271 90.7697C137.352 86.736 135.547 83.4572 130.366 82.0689C127.376 81.2676 124.328 81.7926 122.602 82.6718C122.352 84.0211 122.058 85.3959 121.808 86.7453L126.955 88.1242C127.362 87.3015 127.874 86.9172 128.779 87.1594C129.717 87.411 129.897 88.1301 129.665 88.9994L127.605 96.6843C127.531 96.9625 127.443 97.0134 127.171 97.0525L125.789 97.2039L124.867 100.646L134.603 103.255ZM145.974 106.302C150.286 107.458 153.555 106.246 154.57 102.456L157.971 89.7638L149.799 87.5742L148.877 91.0167L149.976 91.6465C150.27 91.7999 150.302 91.9576 150.228 92.2358L147.833 101.173C147.628 101.938 147.162 102.148 146.466 101.962L145.805 101.785L145.563 91.2841L139.373 89.6256L138.553 92.6856C139.195 92.9322 139.538 93.3222 139.579 94.004L140.167 104.746L145.974 106.302ZM165.388 111.504L166.311 108.062L165.212 107.432C164.918 107.279 164.886 107.121 164.96 106.843L165.92 103.261C166.218 102.148 166.882 101.618 167.842 101.652L168.252 100.122L166.538 98.1716C167.059 97.342 168.017 96.9652 169.512 97.3658C171.077 97.7851 171.785 98.7576 171.403 100.183L169.307 108.007C169.232 108.285 169.126 108.406 168.794 108.392L167.528 108.388L166.605 111.83L176.342 114.439L177.264 110.997L176.166 110.367C175.872 110.214 175.839 110.056 175.914 109.778L178.01 101.954C179.147 97.7113 176.454 94.269 170.995 92.8062C166.44 91.5856 162.039 93.1271 160.454 95.4233L159.979 97.1967L162.376 99.5162C160.776 99.6465 159.565 100.552 159.08 102.36L158.353 105.072C158.279 105.35 158.172 105.471 157.84 105.457L156.574 105.453L155.652 108.895L165.388 111.504ZM188.182 126.706C192.286 127.805 194.984 126.218 196.093 122.08L199.913 107.823C201.05 103.58 198.218 100.101 192.655 98.6099C187.717 97.2868 184.396 98.9687 182.357 101.292L181.882 103.066L184.28 105.385C182.872 105.492 181.862 106.34 181.471 107.8L180.697 110.687C180.483 111.486 180.051 111.706 179.426 111.539L178.521 111.296L178.205 112.479L178.285 114.96L181.971 115.948C184.371 116.591 186.522 115.378 187.146 113.048L188.171 109.223C188.469 108.11 188.785 107.487 189.745 107.521L190.155 105.99L188.441 104.041C188.962 103.211 189.85 102.815 191.415 103.235C192.98 103.654 193.689 104.627 193.307 106.052L189.533 120.135C189.225 121.283 188.015 121.629 187.041 121.368L186.658 121.266L184.512 118.566L183.921 118.408C182.943 119.413 181.837 119.788 180.481 119.424L178.081 118.781L177.541 120.798L177.867 123.755L179.431 124.175C180.857 124.557 182.36 123.953 183.201 123.321L185.018 125.858L188.182 126.706ZM219.271 121.917C218.986 121.729 218.945 121.606 219.019 121.328L219.83 118.302C220.491 115.833 219.402 113.641 217.504 112.238L219.736 111.42C220.641 111.103 221.543 110.935 222.535 111.126L223.532 107.405L216.925 105.635C216.725 106.103 216.261 106.724 215.688 107.055L210.021 110.121L211.624 104.14L203.626 101.997L202.676 105.544L203.651 106.215C203.866 106.385 203.917 106.473 203.843 106.751L201.215 116.557C201.141 116.835 201.043 116.921 200.702 116.941L199.436 116.938L198.514 120.38L208.25 122.989L209.173 119.547L208.074 118.917C207.789 118.729 207.748 118.606 207.822 118.327L208.568 115.546L211.134 114.593C211.247 114.586 211.351 114.614 211.456 114.642C212.882 115.024 213.297 116.254 212.906 117.714L212.496 119.244L212.356 119.766L211.276 123.8L219.447 125.989L220.37 122.547L219.271 121.917ZM233.381 130.096C237.346 131.158 240.306 129.566 241.303 125.845L243.605 117.256C243.679 116.978 243.786 116.858 244.118 116.872L245.384 116.876L246.306 113.433L236.57 110.824L235.647 114.267L236.746 114.897C237.04 115.05 237.072 115.208 236.998 115.486L234.734 123.936C234.482 124.875 233.647 125.21 232.465 124.893C231.456 124.623 230.891 123.95 230.718 123.344L234.24 110.2L226.068 108.01L225.146 111.453L226.244 112.083C226.539 112.236 226.571 112.394 226.496 112.672L223.869 122.478C223.794 122.756 223.706 122.807 223.435 122.846L222.254 122.94L221.304 126.487L228.572 128.434L229.288 126.874C229.827 128.062 230.982 129.453 233.381 130.096ZM258.925 136.567L259.847 133.125L258.726 132.302C258.51 132.133 258.459 132.045 258.534 131.766L260.593 124.082C261.674 120.048 259.869 116.769 254.688 115.381C251.697 114.579 248.649 115.104 246.923 115.984C246.673 117.333 246.379 118.708 246.13 120.057L251.276 121.436C251.683 120.613 252.196 120.229 253.1 120.471C254.039 120.723 254.219 121.442 253.986 122.311L251.927 129.996C251.852 130.274 251.764 130.325 251.493 130.364L250.11 130.516L249.188 133.958L258.925 136.567ZM270.601 140.143C275.713 141.513 280.046 139.804 281.053 136.049L283.242 127.877C283.317 127.599 283.414 127.513 283.755 127.493L285.021 127.496L285.944 124.054L276.207 121.445L275.285 124.888L276.383 125.517C276.668 125.706 276.71 125.828 276.635 126.107L274.483 134.139C274.148 135.391 273.203 135.995 271.812 135.623C270.073 135.157 269.905 134.254 270.241 133.003C270.604 131.646 271.474 131.32 272.413 131.572L273.526 131.87L274.929 129.414L275.227 128.301L273.941 127.956C272.202 127.49 271.742 126.845 272.151 125.315L272.478 124.098L274.112 124.536L275.025 121.128L266.54 118.855L265.404 123.097C264.751 125.531 265.608 127.065 267.408 127.995L267.399 128.03C265.555 128.095 263.806 128.781 263.07 131.528C262.064 135.284 265.141 138.68 270.601 140.143Z" fill="white"/>
<path d="M38.9978 124.673C44.2138 126.07 48.0397 124.449 49.0553 120.659L51.2915 112.313C51.366 112.035 51.4635 111.95 51.8045 111.929L53.0706 111.933L53.993 108.49L44.2565 105.881L43.3341 109.324L44.4325 109.954C44.7175 110.142 44.7591 110.265 44.6846 110.543L42.4484 118.889C42.1595 119.967 41.3914 120.469 40.2091 120.152C39.0268 119.835 38.6126 119.016 38.9015 117.938L40.5414 111.818C41.0352 109.975 41.7338 109.454 42.9168 109.212L43.8392 105.77L35.0416 103.412L34.1191 106.855L37.5617 107.777C36.0217 107.961 34.214 109.005 33.5431 111.508L32.2946 116.168C31.279 119.958 33.7818 123.275 38.9978 124.673ZM64.6266 110.967C61.497 110.128 57.7631 110.432 55.9467 110.952C55.5995 112.387 55.2075 114.406 55.018 115.809L60.1296 117.179C60.6712 116.131 61.7735 115.495 63.1992 115.877C64.8335 116.315 65.4283 117.294 64.9997 118.894L63.7046 123.727C63.276 125.327 62.2271 125.903 60.4885 125.437C59.4801 125.167 58.3282 124.597 57.9532 124.049L58.4284 122.276L60.6887 122.882L61.6204 119.404L54.0398 117.373L51.8409 125.58L52.6059 125.785C53.7819 127.516 56.6692 129.259 59.2772 129.957C64.7714 131.43 69.0816 130.087 70.2556 125.706L71.6626 120.455C72.7714 116.317 70.399 112.514 64.6266 110.967ZM80.4353 135.329C84.7471 136.484 88.016 135.273 89.0316 131.482L92.4325 118.79L84.2608 116.601L83.3383 120.043L84.4368 120.673C84.7311 120.826 84.7634 120.984 84.6888 121.262L82.2942 130.199C82.0893 130.964 81.6229 131.174 80.9274 130.988L80.2667 130.811L80.0242 120.31L73.8346 118.652L73.0146 121.712C73.6567 121.959 73.9994 122.349 74.0404 123.03L74.6281 133.773L80.4353 135.329ZM100.92 141.265C106.032 142.634 110.62 141.367 111.813 136.916L117.096 117.199L115.357 116.733L110.098 116.889L105.243 135.006C104.815 136.606 103.522 137.117 102.131 136.744C100.74 136.371 99.8768 135.283 100.305 133.683L103.501 121.756L95.3296 119.566L94.4071 123.009L95.5056 123.639C95.7999 123.792 95.8322 123.95 95.7576 124.228L93.6612 132.052C92.4686 136.503 95.8084 139.895 100.92 141.265ZM121.218 146.554C126.364 147.933 130.047 146.013 131.025 142.362C131.743 139.684 130.412 137.278 126.887 135.551C124.185 134.23 123.086 133.601 123.319 132.731C123.487 132.105 124.181 131.881 125.433 132.217C126.371 132.468 127.275 133.269 127.39 134.232L131.98 135.462C131.98 135.462 132.85 133.049 133.456 130.789C132.061 129.595 129.454 128.337 126.707 127.601C121.803 126.287 117.871 127.47 116.884 131.156C115.98 134.529 117.888 136.866 120.859 138.296C123.83 139.726 124.657 140.395 124.415 141.299C124.275 141.82 123.735 142.309 122.17 141.89C121.022 141.582 120.214 140.844 120.324 140.016L115.282 138.665C114.742 140.123 114.237 141.59 113.697 143.048C113.697 143.048 116.211 145.213 121.218 146.554ZM146.563 142.053L148.206 139.4L148.663 137.696L143.099 136.205C142.056 135.925 141.773 135.589 142.025 134.65L142.304 133.607L140.67 133.169L137.25 132.998L136.514 135.745C135.983 137.727 137.14 139.528 139.852 140.255L146.563 142.053ZM144.029 151.511L145.672 148.858L146.128 147.154L140.565 145.663C139.521 145.384 139.239 145.047 139.49 144.108L139.77 143.065L138.136 142.627L134.715 142.456L133.979 145.203C133.448 147.185 134.606 148.986 137.318 149.713L144.029 151.511ZM157.419 156.403C162.53 157.773 166.846 156.134 167.824 152.483L168.933 148.345C169.445 146.432 168.962 145.036 167.199 143.967L169.352 142.606C169.891 142.266 170.554 142.294 171.259 142.446L172.172 139.038L166.017 137.389L161.564 142.047L161.135 143.647C162.574 144.256 162.764 144.94 162.288 146.714L161.31 150.365C160.956 151.686 160.021 152.256 158.63 151.883C157.239 151.51 156.714 150.55 157.068 149.228L158.614 143.456C159.108 141.613 160.299 140.925 161.685 141.036L162.608 137.594L153.115 135.05L152.192 138.492L155.635 139.415C153.573 139.459 152.194 140.99 151.616 143.146L150.368 147.806C149.389 151.457 152.307 155.034 157.419 156.403ZM185.032 163.355L185.954 159.913L184.833 159.09C184.618 158.921 184.567 158.833 184.641 158.554L186.7 150.87C187.781 146.836 185.976 143.557 180.795 142.169C177.805 141.367 174.757 141.892 173.031 142.772C172.781 144.121 172.487 145.496 172.237 146.845L177.384 148.224C177.79 147.401 178.303 147.017 179.208 147.259C180.146 147.511 180.326 148.23 180.094 149.099L178.034 156.784C177.96 157.062 177.872 157.113 177.6 157.152L176.218 157.304L175.296 160.746L185.032 163.355ZM196.708 166.931C201.82 168.301 206.135 166.662 207.114 163.011L208.222 158.873C208.735 156.96 208.252 155.563 206.488 154.495L208.642 153.134C209.181 152.793 209.844 152.822 210.548 152.974L211.462 149.566L205.307 147.917L200.853 152.575L200.425 154.174C201.864 154.784 202.053 155.468 201.578 157.241L200.6 160.893C200.246 162.214 199.311 162.783 197.92 162.411C196.529 162.038 196.004 161.077 196.358 159.756L197.904 153.983C198.398 152.14 199.589 151.453 200.975 151.564L201.898 148.121L192.404 145.578L191.482 149.02L194.925 149.943C192.863 149.986 191.484 151.518 190.906 153.674L189.657 158.333C188.679 161.984 191.597 165.561 196.708 166.931ZM215.883 171.994C218.282 172.637 220.743 172.216 221.734 171.438C221.655 172.013 221.689 172.581 221.749 173.193L228.842 175.094L229.793 171.547C228.606 170.968 228.523 170.723 228.747 169.888L231.253 160.534C231.328 160.256 231.434 160.135 231.766 160.15L233.032 160.153L233.955 156.711L224.218 154.102L223.296 157.545L224.394 158.174C224.688 158.328 224.721 158.485 224.646 158.764L222.289 167.561C221.722 168.006 220.808 168.357 219.452 167.994C218.339 167.696 217.916 166.911 218.168 165.972L221.54 153.385L213.369 151.195L212.446 154.637L213.545 155.267C213.83 155.455 213.871 155.578 213.797 155.857L211.495 164.446C210.498 168.166 212.128 170.988 215.883 171.994Z" fill="#EFFF8B"/>
<defs>
<radialGradient id="paint0_radial_197_42774" cx="0" cy="0" r="1" gradientUnits="userSpaceOnUse" gradientTransform="translate(157.35 20.35) rotate(49.6001) scale(20.5724)">
<stop stop-color="white"/>
<stop offset="1" stop-color="white" stop-opacity="0"/>
</radialGradient>
</defs>
</svg>
