<svg width="1280" height="720" viewBox="0 0 1280 720" fill="none" xmlns="http://www.w3.org/2000/svg">
<rect width="1280" height="720" fill="black"/>
<circle cx="540.893" cy="426.893" r="30" transform="rotate(-74.5895 540.893 426.893)" fill="#5C2FF0"/>
<circle cx="540.893" cy="426.893" r="30" transform="rotate(-74.5895 540.893 426.893)" fill="url(#paint0_radial_97_17735)"/>
<path d="M513.395 93.524C511.019 93.524 509.291 94.838 509.291 97.178V98.06H511.541V98.132C510.605 98.348 509.669 99.122 509.669 100.814V104H511.145V100.418C511.145 98.852 511.775 98.15 513.107 98.096V97.016H510.749C510.911 95.468 511.865 94.82 513.395 94.82C515.105 94.82 516.077 95.792 516.077 97.502V104H517.553V97.412C517.553 95.036 516.167 93.524 513.395 93.524ZM524.49 104H525.966V96.656C525.966 94.658 524.76 93.524 522.654 93.524C521.106 93.524 519.882 94.19 519.252 95.342L520.242 96.242C520.818 95.378 521.52 94.82 522.618 94.82C523.86 94.82 524.49 95.414 524.49 96.818V104ZM532.136 104.216C534.278 104.216 535.682 103.046 535.682 101.03C535.682 99.482 534.818 98.51 532.766 98.222L531.974 98.114C530.804 97.952 530.084 97.448 530.084 96.458C530.084 95.468 530.804 94.82 532.01 94.82C533.198 94.82 534.08 95.486 534.512 96.116L535.592 95.18C534.746 94.136 533.666 93.524 532.118 93.524C530.228 93.524 528.662 94.514 528.662 96.53C528.662 98.438 530.066 99.122 531.776 99.374L532.568 99.482C533.828 99.662 534.26 100.418 534.26 101.21C534.26 102.272 533.45 102.92 532.226 102.92C530.984 102.92 530.102 102.38 529.292 101.3L528.23 102.2C529.148 103.406 530.318 104.216 532.136 104.216ZM541.475 93.524C539.621 93.524 538.379 94.334 537.641 95.522L538.595 96.44C539.153 95.522 540.071 94.82 541.367 94.82C543.095 94.82 543.923 95.594 543.923 97.412V97.952H541.727C538.829 97.952 537.443 98.978 537.443 101.03C537.443 103.01 538.757 104 540.827 104H541.889V102.686H541.007C539.711 102.686 538.991 102.218 538.991 101.174V100.706C538.991 99.806 539.801 99.266 541.421 99.266H543.923V104H545.399V97.196C545.399 94.856 544.031 93.524 541.475 93.524ZM550.66 104H551.794C554.116 104 555.286 102.938 555.286 99.5V96.26C555.286 94.64 554.62 93.74 553.234 93.74H551.902V95H553.81V100.13C553.81 102.074 553.216 102.704 551.884 102.704H551.722L548.824 93.74H547.33L550.66 104ZM561.516 104.216C563.784 104.216 565.17 102.92 565.17 100.688V99.356C565.17 97.862 564.504 96.854 563.334 96.494V96.422C564.306 96.026 565.206 95.324 565.206 94.046V93.74H563.694V94.514C563.694 95.666 563.01 96.332 561.804 96.332H561.66V97.466H561.966C563.154 97.466 563.658 98.06 563.658 99.428V100.472C563.658 102.092 562.83 102.92 561.516 102.92C560.184 102.92 559.356 102.254 559.356 100.58C559.356 97.952 560.976 97.988 560.976 95.72V95.504C560.976 94.424 560.49 93.74 558.87 93.74H557.736V95H559.536V95.882C559.536 97.826 557.844 97.466 557.844 100.634C557.844 102.848 559.23 104.216 561.516 104.216ZM563.99 89.582V91.112H563.234V89.582H562.01V91.112H558.068V92.3H563.72C564.71 92.3 565.214 91.814 565.214 90.842V89.582H563.99ZM563.99 88.88H565.214V86.432H563.99V88.88ZM571.431 104.216C574.365 104.216 575.715 102.488 575.715 98.87C575.715 95.36 574.329 93.524 571.377 93.524C569.631 93.524 568.389 94.154 567.579 95.342L568.569 96.224C569.163 95.342 570.045 94.82 571.341 94.82C573.141 94.82 574.167 95.936 574.167 97.898V99.878C574.167 101.912 573.249 102.92 571.431 102.92C569.559 102.92 568.767 102.038 568.767 99.878V99.338H570.639V98.078H569.199C568.011 98.078 567.327 98.672 567.327 99.896V100.04C567.327 102.686 568.821 104.216 571.431 104.216ZM579.844 104H581.644V102.74H579.79V93.74H578.314V102.47C578.314 103.37 578.854 104 579.844 104ZM591.921 94.37V93.11H590.265C589.635 93.11 589.221 93.452 589.221 93.974V94.1C588.627 93.704 587.835 93.524 586.917 93.524C585.135 93.524 583.893 94.334 583.155 95.522L584.109 96.44C584.667 95.522 585.585 94.82 586.881 94.82C588.609 94.82 589.437 95.594 589.437 97.412V97.952H587.241C584.343 97.952 582.957 98.978 582.957 101.03C582.957 103.01 584.271 104 586.341 104H587.403V102.686H586.521C585.225 102.686 584.505 102.218 584.505 101.174V100.706C584.505 99.806 585.315 99.266 586.935 99.266H589.437V104H590.913V97.25C590.913 96.26 590.661 95.414 590.067 94.784V94.37H591.921ZM597.586 104.216C599.278 104.216 600.052 103.28 600.448 102.308H600.52V104H601.96V93.74H600.484V100.922C600.484 102.272 599.242 102.902 597.982 102.902C596.452 102.902 595.624 101.948 595.624 100.112V93.74H594.148V100.328C594.148 102.794 595.498 104.216 597.586 104.216ZM608.573 104.216C611.507 104.216 612.857 102.488 612.857 98.87C612.857 95.36 611.471 93.524 608.519 93.524C606.773 93.524 605.531 94.154 604.721 95.342L605.711 96.224C606.305 95.342 607.187 94.82 608.483 94.82C610.283 94.82 611.309 95.936 611.309 97.898V99.878C611.309 101.912 610.391 102.92 608.573 102.92C606.701 102.92 605.909 102.038 605.909 99.878V99.338H607.781V98.078H606.341C605.153 98.078 604.469 98.672 604.469 99.896V100.04C604.469 102.686 605.963 104.216 608.573 104.216ZM619.093 93.524C616.717 93.524 614.989 94.838 614.989 97.178V98.06H617.239V98.132C616.303 98.348 615.367 99.122 615.367 100.814V104H616.843V100.418C616.843 98.852 617.473 98.15 618.805 98.096V97.016H616.447C616.609 95.468 617.563 94.82 619.093 94.82C620.803 94.82 621.775 95.792 621.775 97.502V104H623.251V97.412C623.251 95.036 621.865 93.524 619.093 93.524ZM630.169 93.524C627.577 93.524 626.011 94.838 626.011 97.178V98.06H628.621V98.132C627.685 98.348 626.749 99.122 626.749 100.814V102.74H625.489V104H626.263C627.757 104 628.189 103.55 628.189 101.786V100.418C628.189 99.158 628.621 98.15 629.989 98.096V97.016H627.451C627.577 95.486 628.405 94.82 630.169 94.82C631.951 94.82 632.977 95.792 632.977 97.502V106.52H632.887C632.293 105.602 631.303 104.972 629.989 104.972C628.693 104.972 627.397 105.764 626.767 106.88L627.757 107.762C628.297 106.844 629.107 106.25 630.241 106.25C631.285 106.25 632.185 106.682 632.923 107.6H634.453V97.412C634.453 95.036 633.085 93.524 630.169 93.524ZM637.533 104H639.009V98.528H641.979C643.167 98.528 643.671 99.122 643.671 100.49V104H645.183V100.238C645.183 98.69 644.481 97.682 643.239 97.34V97.268C644.211 96.908 645.111 96.206 645.111 94.928V93.74H643.635V95.396C643.635 96.17 643.257 97.214 641.745 97.214H639.009V93.74H637.533V104ZM652.594 104.216C654.682 104.216 656.032 102.794 656.032 100.328V93.74H654.556V100.112C654.556 101.948 653.728 102.902 652.198 102.902C650.938 102.902 649.696 102.272 649.696 100.922V93.74H648.22V104H649.66V102.308H649.732C650.128 103.28 650.902 104.216 652.594 104.216ZM663.006 104H664.482V96.656C664.482 94.658 663.276 93.524 661.17 93.524C659.622 93.524 658.398 94.19 657.768 95.342L658.758 96.242C659.334 95.378 660.036 94.82 661.134 94.82C662.376 94.82 663.006 95.414 663.006 96.818V104ZM671.137 104.216C673.675 104.216 675.025 102.794 675.025 100.328V93.74H673.549V100.112C673.549 101.966 672.721 102.92 671.137 102.92C669.553 102.92 668.725 102.038 668.725 100.58V98.942H671.173V97.646H670.705C669.265 97.646 668.815 96.566 668.815 95.36V95H670.939V93.74H669.301C668.005 93.74 667.375 94.37 667.375 95.468V95.558C667.375 96.764 668.329 97.376 669.247 97.592V97.646H669.085C667.897 97.646 667.249 98.528 667.249 100.022V100.598C667.249 102.866 668.599 104.216 671.137 104.216ZM681.504 104.216C683.772 104.216 685.122 102.92 685.122 100.688V93.74H683.646V100.472C683.646 102.092 682.818 102.92 681.504 102.92C680.172 102.92 679.344 102.254 679.344 100.58C679.344 97.952 680.964 97.988 680.964 95.72V95.504C680.964 94.424 680.478 93.74 678.858 93.74H677.724V95H679.524V95.882C679.524 97.826 677.832 97.466 677.832 100.634C677.832 102.848 679.2 104.216 681.504 104.216ZM691.63 104.216C694.564 104.216 695.914 102.488 695.914 98.87C695.914 95.36 694.528 93.524 691.576 93.524C689.83 93.524 688.588 94.154 687.778 95.342L688.768 96.224C689.362 95.342 690.244 94.82 691.54 94.82C693.34 94.82 694.366 95.936 694.366 97.898V99.878C694.366 101.912 693.448 102.92 691.63 102.92C689.758 102.92 688.966 102.038 688.966 99.878V99.338H690.838V98.078H689.398C688.21 98.078 687.526 98.672 687.526 99.896V100.04C687.526 102.686 689.02 104.216 691.63 104.216ZM700.601 104H701.735C704.057 104 705.227 102.938 705.227 99.5V96.26C705.227 94.64 704.561 93.74 703.175 93.74H701.843V95H703.751V100.13C703.751 102.074 703.157 102.704 701.825 102.704H701.663L698.765 93.74H697.271L700.601 104ZM711.907 104.216C714.445 104.216 715.795 102.794 715.795 100.328V89.96H714.319V100.112C714.319 101.966 713.491 102.92 711.907 102.92C710.305 102.92 709.477 101.966 709.477 100.112V93.74H708.001V100.328C708.001 102.794 709.351 104.216 711.907 104.216ZM721.962 104.216C724.104 104.216 725.508 103.046 725.508 101.03C725.508 99.482 724.644 98.51 722.592 98.222L721.8 98.114C720.63 97.952 719.91 97.448 719.91 96.458C719.91 95.468 720.63 94.82 721.836 94.82C723.024 94.82 723.906 95.486 724.338 96.116L725.418 95.18C724.572 94.136 723.492 93.524 721.944 93.524C720.054 93.524 718.488 94.514 718.488 96.53C718.488 98.438 719.892 99.122 721.602 99.374L722.394 99.482C723.654 99.662 724.086 100.418 724.086 101.21C724.086 102.272 723.276 102.92 722.052 102.92C720.81 102.92 719.928 102.38 719.118 101.3L718.056 102.2C718.974 103.406 720.144 104.216 721.962 104.216ZM728.979 97.718L732.147 97.7V96.368L728.853 96.386V94.73L727.449 94.748V96.188C727.449 97.16 728.079 97.718 728.979 97.718ZM728.979 102.938L732.147 102.92V101.588L728.853 101.606V99.95L727.449 99.968V101.408C727.449 102.38 728.079 102.938 728.979 102.938ZM737.772 104.216C740.04 104.216 741.426 102.92 741.426 100.688V99.356C741.426 97.862 740.76 96.854 739.59 96.494V96.422C740.562 96.026 741.462 95.324 741.462 94.046V93.74H739.95V94.514C739.95 95.666 739.266 96.332 738.06 96.332H737.916V97.466H738.222C739.41 97.466 739.914 98.06 739.914 99.428V100.472C739.914 102.092 739.086 102.92 737.772 102.92C736.44 102.92 735.612 102.254 735.612 100.58C735.612 97.952 737.232 97.988 737.232 95.72V95.504C737.232 94.424 736.746 93.74 735.126 93.74H733.992V95H735.792V95.882C735.792 97.826 734.1 97.466 734.1 100.634C734.1 102.848 735.486 104.216 737.772 104.216ZM748.137 104H749.613V96.656C749.613 94.658 748.407 93.524 746.301 93.524C744.753 93.524 743.529 94.19 742.899 95.342L743.889 96.242C744.465 95.378 745.167 94.82 746.265 94.82C747.507 94.82 748.137 95.414 748.137 96.818V104ZM756.088 104.216C758.356 104.216 759.742 102.92 759.742 100.688V99.356C759.742 97.862 759.076 96.854 757.906 96.494V96.422C758.878 96.026 759.778 95.324 759.778 94.046V93.74H758.266V94.514C758.266 95.666 757.582 96.332 756.376 96.332H756.232V97.466H756.538C757.726 97.466 758.23 98.06 758.23 99.428V100.472C758.23 102.092 757.402 102.92 756.088 102.92C754.756 102.92 753.928 102.254 753.928 100.58C753.928 97.952 755.548 97.988 755.548 95.72V95.504C755.548 94.424 755.062 93.74 753.442 93.74H752.308V95H754.108V95.882C754.108 97.826 752.416 97.466 752.416 100.634C752.416 102.848 753.802 104.216 756.088 104.216ZM765.949 104.216C767.641 104.216 768.415 103.28 768.811 102.308H768.883V104H770.323V93.74H768.847V100.922C768.847 102.272 767.605 102.902 766.345 102.902C764.815 102.902 763.987 101.948 763.987 100.112V93.74H762.511V100.328C762.511 102.794 763.861 104.216 765.949 104.216ZM556.946 131.216C559.88 131.216 561.23 129.488 561.23 125.87C561.23 122.36 559.844 120.524 556.892 120.524C555.146 120.524 553.904 121.154 553.094 122.342L554.084 123.224C554.678 122.342 555.56 121.82 556.856 121.82C558.656 121.82 559.682 122.936 559.682 124.898V126.878C559.682 128.912 558.764 129.92 556.946 129.92C555.074 129.92 554.282 129.038 554.282 126.878V126.338H556.154V125.078H554.714C553.526 125.078 552.842 125.672 552.842 126.896V127.04C552.842 129.686 554.336 131.216 556.946 131.216ZM567.286 131.216C569.824 131.216 571.174 129.794 571.174 127.328V120.74H569.698V127.112C569.698 128.966 568.87 129.92 567.286 129.92C565.702 129.92 564.874 129.038 564.874 127.58V125.942H567.322V124.646H566.854C565.414 124.646 564.964 123.566 564.964 122.36V122H567.088V120.74H565.45C564.154 120.74 563.524 121.37 563.524 122.468V122.558C563.524 123.764 564.478 124.376 565.396 124.592V124.646H565.234C564.046 124.646 563.398 125.528 563.398 127.022V127.598C563.398 129.866 564.748 131.216 567.286 131.216ZM569.715 119.3H571.119V116.312H569.715V119.3ZM578.139 131H579.615V123.656C579.615 121.658 578.409 120.524 576.303 120.524C574.755 120.524 573.531 121.19 572.901 122.342L573.891 123.242C574.467 122.378 575.169 121.82 576.267 121.82C577.509 121.82 578.139 122.414 578.139 123.818V131ZM584.902 131H586.036C588.358 131 589.528 129.938 589.528 126.5V123.26C589.528 121.64 588.862 120.74 587.476 120.74H586.144V122H588.052V127.13C588.052 129.074 587.458 129.704 586.126 129.704H585.964L583.066 120.74H581.572L584.902 131ZM592.392 131H593.868V123.836C593.868 122.486 595.146 121.856 596.442 121.856C597.954 121.856 598.782 122.81 598.782 124.646V131H600.258V124.412C600.258 121.946 598.908 120.524 596.838 120.524C595.11 120.524 594.318 121.46 593.904 122.432H593.832V120.74H592.392V131ZM593.015 119.3H598.667C599.657 119.3 600.161 118.814 600.161 117.842V116.582H598.793V118.112H593.015V119.3ZM598.935 115.88H600.159V113.432H598.935V115.88ZM603.378 131H604.854V125.528H607.824C609.012 125.528 609.516 126.122 609.516 127.49V131H611.028V127.238C611.028 125.69 610.326 124.682 609.084 124.34V124.268C610.056 123.908 610.956 123.206 610.956 121.928V120.74H609.48V122.396C609.48 123.17 609.102 124.214 607.59 124.214H604.854V120.74H603.378V131ZM617.36 120.524C615.506 120.524 614.264 121.334 613.526 122.522L614.48 123.44C615.038 122.522 615.956 121.82 617.252 121.82C618.98 121.82 619.808 122.594 619.808 124.412V124.952H617.612C614.714 124.952 613.328 125.978 613.328 128.03C613.328 130.01 614.642 131 616.712 131H617.774V129.686H616.892C615.596 129.686 614.876 129.218 614.876 128.174V127.706C614.876 126.806 615.686 126.266 617.306 126.266H619.808V131H621.284V124.196C621.284 121.856 619.916 120.524 617.36 120.524ZM628.219 131H629.695V123.656C629.695 121.658 628.489 120.524 626.383 120.524C624.835 120.524 623.611 121.19 622.981 122.342L623.971 123.242C624.547 122.378 625.249 121.82 626.347 121.82C627.589 121.82 628.219 122.414 628.219 123.818V131ZM636.35 131.216C638.888 131.216 640.238 129.794 640.238 127.328V120.74H638.762V127.112C638.762 128.966 637.934 129.92 636.35 129.92C634.766 129.92 633.938 129.038 633.938 127.58V125.942H636.386V124.646H635.918C634.478 124.646 634.028 123.566 634.028 122.36V122H636.152V120.74H634.514C633.218 120.74 632.588 121.37 632.588 122.468V122.558C632.588 123.764 633.542 124.376 634.46 124.592V124.646H634.298C633.11 124.646 632.462 125.528 632.462 127.022V127.598C632.462 129.866 633.812 131.216 636.35 131.216ZM648.913 133.844H650.389V123.242C650.389 121.19 649.093 120.524 647.725 120.524L646.663 121.892H646.609L645.529 120.524C643.783 120.524 642.685 121.766 642.685 123.854V123.926C642.685 126.014 643.495 127.4 645.907 127.4H646.645V126.086H645.997C644.593 126.086 644.197 125.492 644.197 124.412V123.458C644.197 122.468 644.665 121.946 645.313 121.946L646.609 123.386H646.645L647.941 121.946C648.679 122.036 648.913 122.378 648.913 123.962V133.844ZM653.666 131H655.142V128.498C655.142 126.986 656.186 126.608 657.14 126.608H658.454V125.132H657.608C656.24 125.132 655.538 125.978 655.214 126.896H655.142V124.502C655.142 122.774 656.132 121.82 657.752 121.82C659.372 121.82 660.362 122.774 660.362 124.502V131H661.838V124.412C661.838 122.036 660.434 120.524 657.752 120.524C655.07 120.524 653.666 122.036 653.666 124.412V131ZM668.267 131.216C669.959 131.216 670.733 130.28 671.129 129.308H671.201V131H672.641V120.74H671.165V127.922C671.165 129.272 669.923 129.902 668.663 129.902C667.133 129.902 666.305 128.948 666.305 127.112V120.74H664.829V127.328C664.829 129.794 666.179 131.216 668.267 131.216ZM678.913 131.216C681.055 131.216 682.459 130.046 682.459 128.03C682.459 126.482 681.595 125.51 679.543 125.222L678.751 125.114C677.581 124.952 676.861 124.448 676.861 123.458C676.861 122.468 677.581 121.82 678.787 121.82C679.975 121.82 680.857 122.486 681.289 123.116L682.369 122.18C681.523 121.136 680.443 120.524 678.895 120.524C677.005 120.524 675.439 121.514 675.439 123.53C675.439 125.438 676.843 126.122 678.553 126.374L679.345 126.482C680.605 126.662 681.037 127.418 681.037 128.21C681.037 129.272 680.227 129.92 679.003 129.92C677.761 129.92 676.879 129.38 676.069 128.3L675.007 129.2C675.925 130.406 677.095 131.216 678.913 131.216ZM679.499 135.806H680.903C681.659 135.806 682.091 135.374 682.091 134.618V132.314H680.867V134.744H679.535V133.682C679.535 132.8 679.049 132.314 678.185 132.314H677.483V133.394H678.311V134.618C678.311 135.374 678.743 135.806 679.499 135.806ZM678.758 119.3H682.952V118.112H679.946V117.95C679.946 116.924 679.568 116.582 678.56 116.582H677.498V117.77H678.758V119.3ZM687.622 131.216C690.376 131.216 691.69 129.38 691.69 125.87C691.69 122.36 690.376 120.524 687.622 120.524C685.768 120.524 684.58 121.424 684.004 122.702L685.3 123.314C685.678 122.378 686.524 121.82 687.622 121.82C689.116 121.82 690.142 122.936 690.142 124.898V126.842C690.142 128.804 689.116 129.92 687.622 129.92C686.524 129.92 685.678 129.362 685.3 128.426L684.004 129.038C684.58 130.316 685.768 131.216 687.622 131.216ZM690.09 119.3H691.494V116.312H690.09V119.3ZM698.039 131H699.515V123.656C699.515 121.658 698.309 120.524 696.203 120.524C694.655 120.524 693.431 121.19 692.801 122.342L693.791 123.242C694.367 122.378 695.069 121.82 696.167 121.82C697.409 121.82 698.039 122.414 698.039 123.818V131ZM704.244 131H706.044V129.74H704.19V120.74H702.714V129.47C702.714 130.37 703.254 131 704.244 131ZM711.731 131.216C714.269 131.216 715.619 129.794 715.619 127.328V116.96H714.143V127.112C714.143 128.966 713.315 129.92 711.731 129.92C710.129 129.92 709.301 128.966 709.301 127.112V120.74H707.825V127.328C707.825 129.794 709.175 131.216 711.731 131.216ZM709.816 116.798H713.488V115.844H709.726C708.592 115.844 707.836 116.546 707.836 117.608C707.836 118.688 708.484 119.39 709.474 119.39C710.23 119.39 710.608 118.994 710.68 118.382L710.716 118.04H710.734C710.824 118.922 711.256 119.39 711.886 119.39C712.48 119.39 712.948 119.03 712.948 118.148V117.5H711.994V117.968C711.994 118.346 711.814 118.526 711.508 118.526C711.148 118.526 710.95 118.202 710.95 117.608H710.014L709.744 118.562C709.258 118.526 709.006 118.238 709.006 117.68C709.006 117.104 709.294 116.798 709.816 116.798ZM722.074 131.216C723.766 131.216 724.54 130.28 724.936 129.308H725.008V131H726.448V120.74H724.972V127.922C724.972 129.272 723.73 129.902 722.47 129.902C720.94 129.902 720.112 128.948 720.112 127.112V120.74H718.636V127.328C718.636 129.794 719.986 131.216 722.074 131.216Z" fill="white"/>
<path d="M490 0V720M790 0V720" stroke="white" stroke-width="2"/>
<circle cx="681.025" cy="208.025" r="30" transform="rotate(-37.112 681.025 208.025)" fill="#DFFF5F"/>
<circle cx="681.025" cy="208.025" r="30" transform="rotate(-37.112 681.025 208.025)" fill="url(#paint1_radial_97_17735)"/>
<path d="M555.019 325.72C563.839 325.72 570.079 321.22 570.079 314.92V307.78C570.079 304.48 568.699 302.44 565.399 301.48L568.279 298.36C568.999 297.58 570.079 297.34 571.279 297.28V291.4H560.659L555.499 300.82V303.58C558.079 303.94 558.679 304.96 558.679 308.02V314.32C558.679 316.6 557.419 317.92 555.019 317.92C552.619 317.92 551.359 316.6 551.359 314.32V304.36C551.359 301.18 552.979 299.56 555.259 299.14V293.2H538.879V299.14H544.819C541.519 300.1 539.959 303.16 539.959 306.88V314.92C539.959 321.22 546.199 325.72 555.019 325.72ZM569.166 288.34V276.34H559.566V288.34H569.166ZM590.352 292.6C584.952 292.6 579.072 294.7 576.372 296.32C576.432 298.78 576.672 302.2 576.972 304.54H585.792C586.212 302.62 587.712 301.12 590.172 301.12C592.992 301.12 594.372 302.44 594.372 305.2V313.54C594.372 316.3 592.932 317.68 589.932 317.68C588.192 317.68 586.092 317.26 585.252 316.54V313.48H589.152V307.48H576.072V321.64H577.392C580.032 323.92 585.432 325.48 589.932 325.48C599.412 325.48 605.772 321.46 605.772 313.9V304.84C605.772 297.7 600.312 292.6 590.352 292.6ZM626.311 325C633.751 325 638.491 321.64 638.491 315.1V293.2H624.391V299.14L626.431 299.68C626.971 299.8 627.091 300.04 627.091 300.52V315.94C627.091 317.26 626.431 317.8 625.231 317.8H624.091L619.171 301H608.491V306.28C609.631 306.4 610.351 306.88 610.711 307.96L616.291 325H626.311ZM659.809 325V319.06L657.769 318.52C657.229 318.34 657.109 318.16 657.109 317.68V302.8C657.829 301.54 659.089 300.58 661.009 300.58C662.869 300.58 664.309 301.54 664.309 303.34V317.68C664.309 318.16 664.189 318.4 663.649 318.52L661.609 319.06V325H678.409V319.06L676.369 318.52C675.829 318.34 675.709 318.16 675.709 317.68V302.86C675.709 296.86 671.569 292.6 665.689 292.6C660.769 292.6 658.069 294.64 656.329 296.98L655.549 293.2H643.309V299.32L645.169 299.98C645.589 300.16 645.709 300.28 645.709 300.76V317.68C645.709 318.16 645.589 318.34 645.049 318.52L643.009 319.06V325H659.809ZM708.702 325V319.06L706.542 318.22C706.122 318.04 706.002 317.92 706.002 317.44V304.18C706.002 297.22 701.682 292.72 692.742 292.72C687.582 292.72 682.902 294.88 680.502 297.04C680.682 299.32 680.802 301.66 680.982 303.94H689.862C690.162 302.44 690.822 301.6 692.382 301.6C694.002 301.6 694.602 302.68 694.602 304.18V317.44C694.602 317.92 694.482 318.04 694.062 318.22L691.902 319.06V325H708.702ZM728.322 325C735.762 325 740.502 321.64 740.502 315.1V293.2H726.402V299.14L728.442 299.68C728.982 299.8 729.102 300.04 729.102 300.52V315.94C729.102 317.26 728.442 317.8 727.242 317.8H726.102L721.182 301H710.502V306.28C711.642 306.4 712.362 306.88 712.722 307.96L718.302 325H728.322Z" fill="white"/>
<path d="M550.067 369.432C555.359 369.432 559.463 367.02 559.463 362.412V342H557.663L552.623 343.512V362.268C552.623 363.924 551.507 364.752 550.067 364.752C548.627 364.752 547.511 363.924 547.511 362.268V349.92H539.051V353.484L540.275 353.808C540.599 353.88 540.671 354.024 540.671 354.312V362.412C540.671 367.02 544.775 369.432 550.067 369.432ZM571.042 369.288C576.37 369.288 579.43 366.48 579.43 362.7C579.43 359.928 577.522 357.948 573.67 357.192C570.718 356.616 569.494 356.292 569.494 355.392C569.494 354.744 570.106 354.348 571.402 354.348C572.374 354.348 573.454 354.888 573.814 355.788H578.566C578.566 355.788 578.782 353.232 578.782 350.892C577.126 350.1 574.282 349.56 571.438 349.56C566.362 349.56 562.87 351.72 562.87 355.536C562.87 359.028 565.318 360.792 568.558 361.404C571.798 362.016 572.77 362.448 572.77 363.384C572.77 363.924 572.374 364.536 570.754 364.536C569.566 364.536 568.594 364.032 568.486 363.204H563.266C563.122 364.752 563.014 366.3 562.87 367.848C562.87 367.848 565.858 369.288 571.042 369.288ZM594.359 358.38L595.259 355.392V353.628H589.499C588.419 353.628 588.059 353.376 588.059 352.404V351.324H586.367L583.019 352.044V354.888C583.019 356.94 584.603 358.38 587.411 358.38H594.359ZM594.359 368.172L595.259 365.184V363.42H589.499C588.419 363.42 588.059 363.168 588.059 362.196V361.116H586.367L583.019 361.836V364.68C583.019 366.732 584.603 368.172 587.411 368.172H594.359ZM608.558 369.432C613.85 369.432 617.594 366.732 617.594 362.952V358.668C617.594 356.688 616.766 355.464 614.786 354.888L616.514 353.016C616.946 352.548 617.594 352.404 618.314 352.368V348.84H611.942L608.846 354.492V356.148C610.394 356.364 610.754 356.976 610.754 358.812V362.592C610.754 363.96 609.998 364.752 608.558 364.752C607.118 364.752 606.362 363.96 606.362 362.592V356.616C606.362 354.708 607.334 353.736 608.702 353.484V349.92H598.874V353.484H602.438C600.458 354.06 599.522 355.896 599.522 358.128V362.952C599.522 366.732 603.266 369.432 608.558 369.432ZM637.03 369V365.436L635.734 364.932C635.482 364.824 635.41 364.752 635.41 364.464V356.508C635.41 352.332 632.818 349.632 627.454 349.632C624.358 349.632 621.55 350.928 620.11 352.224C620.218 353.592 620.29 354.996 620.398 356.364H625.726C625.906 355.464 626.302 354.96 627.238 354.96C628.21 354.96 628.57 355.608 628.57 356.508V364.464C628.57 364.752 628.498 364.824 628.246 364.932L626.95 365.436V369H637.03ZM647.866 369.288C653.158 369.288 657.01 367.02 657.01 363.564V361.98C657.01 359.208 655.318 357.588 651.25 356.832C648.298 356.292 645.634 356.292 645.634 355.392C645.634 354.744 646.246 354.24 648.262 354.24C650.134 354.24 651.07 354.78 651.574 355.68H656.326C656.47 354.204 656.542 352.728 656.542 351.252C654.886 350.46 652.042 349.56 648.658 349.56C643.582 349.56 639.37 351.36 639.37 354.816C639.37 357.948 641.386 358.992 646.858 359.964C649.666 360.468 650.35 360.756 650.35 362.052V362.988C650.35 364.464 649.342 364.968 647.794 364.968C646.894 364.968 645.886 364.716 645.346 364.32L645.31 360.144H644.194L639.406 361.224L639.478 367.488H640.27C641.458 368.388 643.654 369.288 647.866 369.288ZM656.987 347.256V343.368H641.147L639.707 345.78V347.256H656.987ZM670.301 369.432C675.593 369.432 679.697 367.02 679.697 362.412V342H677.897L672.857 343.512V362.268C672.857 363.924 671.741 364.752 670.301 364.752C668.861 364.752 667.745 363.924 667.745 362.268V349.92H659.285V353.484L660.509 353.808C660.833 353.88 660.905 354.024 660.905 354.312V362.412C660.905 367.02 665.009 369.432 670.301 369.432ZM694.624 337.86H680.656V339.048L681.52 341.856L687.856 341.892C686.056 342.648 684.004 344.412 684.004 348.12V364.86C684.004 367.056 685.408 369 687.532 369H692.068L692.788 366.624V365.4H691.852C691.204 365.4 690.844 365.076 690.844 364.248V348.12C690.664 344.016 692.14 341.856 694.624 341.496V337.86ZM716.813 365.112C716.489 365.04 716.417 364.896 716.417 364.608V357.264C716.417 352.512 713.789 350.244 709.973 349.812H709.037L706.589 351.864L703.961 349.776H703.061C699.569 350.208 696.797 352.656 696.797 357.264V364.608C696.797 364.896 696.725 365.04 696.401 365.112L695.177 365.436V369H699.245C706.301 369 709.325 365.436 709.325 361.224C709.325 359.64 708.821 358.488 708.065 357.876H704.177L703.997 362.196C704.501 362.232 704.825 362.592 704.825 363.204C704.825 363.816 704.393 364.5 703.277 364.896V356.904C703.277 355.752 703.817 354.78 704.969 354.78L706.409 355.788H706.805L708.209 354.78C709.433 354.816 709.937 355.68 709.937 356.904V364.644C709.937 364.932 709.865 365.04 709.613 365.112L708.677 365.436V369H718.037V365.436L716.813 365.112ZM730.234 369.432C735.526 369.432 739.27 366.66 739.27 362.772V354.312C739.27 354.024 739.342 353.916 739.666 353.808L740.89 353.484V349.92H730.81V353.484L732.034 353.808C732.358 353.916 732.43 354.024 732.43 354.312V362.628C732.43 363.924 731.674 364.752 730.234 364.752C728.434 364.752 728.038 363.924 728.038 362.628C728.038 361.224 728.794 360.684 729.766 360.684H730.918L731.638 357.948V356.796H730.306C728.506 356.796 727.894 356.292 727.894 354.708V353.448H729.586V349.92H720.802V354.312C720.802 356.832 722.026 358.092 724.006 358.524V358.56C722.242 359.1 720.73 360.216 720.73 363.06C720.73 366.948 724.582 369.432 730.234 369.432Z" fill="white"/>
<path d="M552.7 426V420.06L550.66 419.52C550.12 419.34 550 419.16 550 418.68V403.8C550.72 402.54 551.98 401.58 553.9 401.58C555.76 401.58 557.2 402.54 557.2 404.34V418.68C557.2 419.16 557.08 419.4 556.54 419.52L554.5 420.06V426H571.3V420.06L569.26 419.52C568.72 419.34 568.6 419.16 568.6 418.68V403.86C568.6 397.86 564.46 393.6 558.58 393.6C553.66 393.6 550.96 395.64 549.22 397.98L548.44 394.2H536.2V400.32L538.06 400.98C538.48 401.16 538.6 401.28 538.6 401.76V418.68C538.6 419.16 538.48 419.34 537.94 419.52L535.9 420.06V426H552.7ZM601.593 426V420.06L599.433 419.22C599.013 419.04 598.893 418.92 598.893 418.44V405.18C598.893 398.22 594.573 393.72 585.633 393.72C580.473 393.72 575.793 395.88 573.393 398.04C573.573 400.32 573.693 402.66 573.873 404.94H582.753C583.053 403.44 583.713 402.6 585.273 402.6C586.893 402.6 587.493 403.68 587.493 405.18V418.44C587.493 418.92 587.373 419.04 586.953 419.22L584.793 420.06V426H601.593ZM621.213 426C628.653 426 633.393 422.64 633.393 416.1V394.2H619.293V400.14L621.333 400.68C621.873 400.8 621.993 401.04 621.993 401.52V416.94C621.993 418.26 621.333 418.8 620.133 418.8H618.993L614.073 402H603.393V407.28C604.533 407.4 605.253 407.88 605.613 408.96L611.193 426H621.213ZM674.272 419.52C673.732 419.4 673.612 419.16 673.612 418.68V406.44C673.612 398.52 669.232 394.74 662.872 394.02H661.312L657.232 397.44L652.852 393.96H651.352C645.532 394.68 640.912 398.76 640.912 406.44V418.68C640.912 419.16 640.792 419.4 640.252 419.52L638.212 420.06V426H644.992C656.752 426 661.792 420.06 661.792 413.04C661.792 410.4 660.952 408.48 659.692 407.46H653.212L652.912 414.66C653.752 414.72 654.292 415.32 654.292 416.34C654.292 417.36 653.572 418.5 651.712 419.16V405.84C651.712 403.92 652.612 402.3 654.532 402.3L656.932 403.98H657.592L659.932 402.3C661.972 402.36 662.812 403.8 662.812 405.84V418.74C662.812 419.22 662.692 419.4 662.272 419.52L660.712 420.06V426H676.312V420.06L674.272 419.52ZM693.82 426.48C702.7 426.48 707.8 421.8 707.8 415.5C707.8 410.88 704.62 407.58 698.2 406.32C693.28 405.36 691.24 404.82 691.24 403.32C691.24 402.24 692.26 401.58 694.42 401.58C696.04 401.58 697.84 402.48 698.44 403.98H706.36C706.36 403.98 706.72 399.72 706.72 395.82C703.96 394.5 699.22 393.6 694.48 393.6C686.02 393.6 680.2 397.2 680.2 403.56C680.2 409.38 684.28 412.32 689.68 413.34C695.08 414.36 696.7 415.08 696.7 416.64C696.7 417.54 696.04 418.56 693.34 418.56C691.36 418.56 689.74 417.72 689.56 416.34H680.86C680.62 418.92 680.44 421.5 680.2 424.08C680.2 424.08 685.18 426.48 693.82 426.48ZM729.201 426C736.641 426 741.381 422.64 741.381 416.1V394.2H727.281V400.14L729.321 400.68C729.861 400.8 729.981 401.04 729.981 401.52V416.94C729.981 418.26 729.321 418.8 728.121 418.8H726.981L722.061 402H711.381V407.28C712.521 407.4 713.241 407.88 713.601 408.96L719.181 426H729.201Z" fill="white"/>
<circle cx="723" cy="514" r="30" fill="#78E5B8"/>
<circle cx="723" cy="514" r="30" fill="url(#paint2_radial_97_17735)"/>
<path d="M529.927 575H531.403V567.836C531.403 566.486 532.681 565.856 533.977 565.856C535.489 565.856 536.317 566.81 536.317 568.646V575H537.793V568.412C537.793 565.946 536.443 564.524 534.373 564.524C532.645 564.524 531.853 565.46 531.439 566.432H531.367V564.74H529.927V575ZM530.55 563.3H536.202C537.192 563.3 537.696 562.814 537.696 561.842V560.582H536.328V562.112H530.55V563.3ZM536.47 559.88H537.694V557.432H536.47V559.88ZM542.534 575H544.334V573.74H542.48V564.74H541.004V573.47C541.004 574.37 541.544 575 542.534 575ZM550.021 575.216C552.559 575.216 553.909 573.794 553.909 571.328V560.96H552.433V571.112C552.433 572.966 551.605 573.92 550.021 573.92C548.419 573.92 547.591 572.966 547.591 571.112V564.74H546.115V571.328C546.115 573.794 547.465 575.216 550.021 575.216ZM545.565 563.3H551.541V562.22H545.565V563.3ZM560.273 575H561.173V573.686H560.363C558.869 573.686 557.969 572.912 557.969 570.95V569.024C557.969 566.972 558.977 565.82 560.633 565.82C562.253 565.82 563.117 566.828 563.117 568.61V575H564.593V568.412C564.593 565.946 563.225 564.524 560.669 564.524C557.897 564.524 556.421 566.306 556.421 569.924C556.421 573.668 557.627 575 560.273 575ZM569.647 575H571.447V573.74H569.593V565.424C569.593 562.49 568.945 560.708 567.181 560.024V559.952H572.203V558.728H565.651V559.988C567.145 560.042 568.117 561.698 568.117 564.29V573.47C568.117 574.37 568.657 575 569.647 575ZM576.747 575.216C579.681 575.216 581.031 573.488 581.031 569.87C581.031 566.36 579.645 564.524 576.693 564.524C574.947 564.524 573.705 565.154 572.895 566.342L573.885 567.224C574.479 566.342 575.361 565.82 576.657 565.82C578.457 565.82 579.483 566.936 579.483 568.898V570.878C579.483 572.912 578.565 573.92 576.747 573.92C574.875 573.92 574.083 573.038 574.083 570.878V570.338H575.955V569.078H574.515C573.327 569.078 572.643 569.672 572.643 570.896V571.04C572.643 573.686 574.137 575.216 576.747 575.216ZM587.266 564.524C584.89 564.524 583.162 565.838 583.162 568.178V569.06H585.412V569.132C584.476 569.348 583.54 570.122 583.54 571.814V575H585.016V571.418C585.016 569.852 585.646 569.15 586.978 569.096V568.016H584.62C584.782 566.468 585.736 565.82 587.266 565.82C588.976 565.82 589.948 566.792 589.948 568.502V575H591.424V568.412C591.424 566.036 590.038 564.524 587.266 564.524ZM598.361 575H599.837V567.656C599.837 565.658 598.631 564.524 596.525 564.524C594.977 564.524 593.753 565.19 593.123 566.342L594.113 567.242C594.689 566.378 595.391 565.82 596.489 565.82C597.731 565.82 598.361 566.414 598.361 567.818V575ZM611.353 565.37V564.11H609.697C609.067 564.11 608.653 564.452 608.653 564.974V565.1C608.059 564.704 607.267 564.524 606.349 564.524C604.567 564.524 603.325 565.334 602.587 566.522L603.541 567.44C604.099 566.522 605.017 565.82 606.313 565.82C608.041 565.82 608.869 566.594 608.869 568.412V568.952H606.673C603.775 568.952 602.389 569.978 602.389 572.03C602.389 574.01 603.703 575 605.773 575H606.835V573.686H605.953C604.657 573.686 603.937 573.218 603.937 572.174V571.706C603.937 570.806 604.747 570.266 606.367 570.266H608.869V575H610.345V568.25C610.345 567.26 610.093 566.414 609.499 565.784V565.37H611.353ZM615.757 575H617.557V573.74H615.667V563.966C616.729 563.732 617.953 562.904 617.953 561.14C617.953 559.484 616.819 558.404 615.055 558.404C613.507 558.404 612.409 559.214 611.959 560.582L613.165 561.338C613.489 560.258 614.065 559.682 615.001 559.682C615.901 559.682 616.441 560.222 616.441 561.14V561.338C616.441 562.454 615.613 563.12 614.227 563.174V573.47C614.227 574.37 614.767 575 615.757 575ZM619.576 575H621.052V569.528H624.022C625.21 569.528 625.714 570.122 625.714 571.49V575H627.226V571.238C627.226 569.69 626.524 568.682 625.282 568.34V568.268C626.254 567.908 627.154 567.206 627.154 565.928V564.74H625.678V566.396C625.678 567.17 625.3 568.214 623.788 568.214H621.052V564.74H619.576V575ZM623.711 563.3H627.905V562.112H624.899V561.95C624.899 560.924 624.521 560.582 623.513 560.582H622.451V561.77H623.711V563.3ZM634.079 575.216C636.617 575.216 637.967 573.794 637.967 571.328V560.96H636.491V571.112C636.491 572.966 635.663 573.92 634.079 573.92C632.477 573.92 631.649 572.966 631.649 571.112V564.74H630.173V571.328C630.173 573.794 631.523 575.216 634.079 575.216ZM644.134 575.216C646.276 575.216 647.68 574.046 647.68 572.03C647.68 570.482 646.816 569.51 644.764 569.222L643.972 569.114C642.802 568.952 642.082 568.448 642.082 567.458C642.082 566.468 642.802 565.82 644.008 565.82C645.196 565.82 646.078 566.486 646.51 567.116L647.59 566.18C646.744 565.136 645.664 564.524 644.116 564.524C642.226 564.524 640.66 565.514 640.66 567.53C640.66 569.438 642.064 570.122 643.774 570.374L644.566 570.482C645.826 570.662 646.258 571.418 646.258 572.21C646.258 573.272 645.448 573.92 644.224 573.92C642.982 573.92 642.1 573.38 641.29 572.3L640.228 573.2C641.146 574.406 642.316 575.216 644.134 575.216ZM651.151 568.718L654.319 568.7V567.368L651.025 567.386V565.73L649.621 565.748V567.188C649.621 568.16 650.251 568.718 651.151 568.718ZM651.151 573.938L654.319 573.92V572.588L651.025 572.606V570.95L649.621 570.968V572.408C649.621 573.38 650.251 573.938 651.151 573.938ZM659.944 575.216C662.212 575.216 663.598 573.92 663.598 571.688V570.356C663.598 568.862 662.932 567.854 661.762 567.494V567.422C662.734 567.026 663.634 566.324 663.634 565.046V564.74H662.122V565.514C662.122 566.666 661.438 567.332 660.232 567.332H660.088V568.466H660.394C661.582 568.466 662.086 569.06 662.086 570.428V571.472C662.086 573.092 661.258 573.92 659.944 573.92C658.612 573.92 657.784 573.254 657.784 571.58C657.784 568.952 659.404 568.988 659.404 566.72V566.504C659.404 565.424 658.918 564.74 657.298 564.74H656.164V566H657.964V566.882C657.964 568.826 656.272 568.466 656.272 571.634C656.272 573.848 657.658 575.216 659.944 575.216ZM670.308 575H671.784V567.656C671.784 565.658 670.578 564.524 668.472 564.524C666.924 564.524 665.7 565.19 665.07 566.342L666.06 567.242C666.636 566.378 667.338 565.82 668.436 565.82C669.678 565.82 670.308 566.414 670.308 567.818V575ZM678.26 575.216C680.528 575.216 681.914 573.92 681.914 571.688V570.356C681.914 568.862 681.248 567.854 680.078 567.494V567.422C681.05 567.026 681.95 566.324 681.95 565.046V564.74H680.438V565.514C680.438 566.666 679.754 567.332 678.548 567.332H678.404V568.466H678.71C679.898 568.466 680.402 569.06 680.402 570.428V571.472C680.402 573.092 679.574 573.92 678.26 573.92C676.928 573.92 676.1 573.254 676.1 571.58C676.1 568.952 677.72 568.988 677.72 566.72V566.504C677.72 565.424 677.234 564.74 675.614 564.74H674.48V566H676.28V566.882C676.28 568.826 674.588 568.466 674.588 571.634C674.588 573.848 675.974 575.216 678.26 575.216ZM688.121 575.216C689.813 575.216 690.587 574.28 690.983 573.308H691.055V575H692.495V564.74H691.019V571.922C691.019 573.272 689.777 573.902 688.517 573.902C686.987 573.902 686.159 572.948 686.159 571.112V564.74H684.683V571.328C684.683 573.794 686.033 575.216 688.121 575.216ZM704.112 565.37V564.11H702.456C701.826 564.11 701.412 564.452 701.412 564.974V565.1C700.818 564.704 700.026 564.524 699.108 564.524C697.326 564.524 696.084 565.334 695.346 566.522L696.3 567.44C696.858 566.522 697.776 565.82 699.072 565.82C700.8 565.82 701.628 566.594 701.628 568.412V568.952H699.432C696.534 568.952 695.148 569.978 695.148 572.03C695.148 574.01 696.462 575 698.532 575H699.594V573.686H698.712C697.416 573.686 696.696 573.218 696.696 572.174V571.706C696.696 570.806 697.506 570.266 699.126 570.266H701.628V575H703.104V568.25C703.104 567.26 702.852 566.414 702.258 565.784V565.37H704.112ZM710.281 575H711.757V567.656C711.757 565.658 710.551 564.524 708.445 564.524C706.897 564.524 705.673 565.19 705.043 566.342L706.033 567.242C706.609 566.378 707.311 565.82 708.409 565.82C709.651 565.82 710.281 566.414 710.281 567.818V575ZM719.241 575.216C721.329 575.216 722.679 573.794 722.679 571.328V564.74H721.203V571.112C721.203 572.948 720.375 573.902 718.845 573.902C717.585 573.902 716.343 573.272 716.343 571.922V564.74H714.867V575H716.307V573.308H716.379C716.775 574.28 717.549 575.216 719.241 575.216ZM729.652 575H731.128V567.656C731.128 565.658 729.922 564.524 727.816 564.524C726.268 564.524 725.044 565.19 724.414 566.342L725.404 567.242C725.98 566.378 726.682 565.82 727.78 565.82C729.022 565.82 729.652 566.414 729.652 567.818V575ZM737.298 575.216C739.44 575.216 740.844 574.046 740.844 572.03C740.844 570.482 739.98 569.51 737.928 569.222L737.136 569.114C735.966 568.952 735.246 568.448 735.246 567.458C735.246 566.468 735.966 565.82 737.172 565.82C738.36 565.82 739.242 566.486 739.674 567.116L740.754 566.18C739.908 565.136 738.828 564.524 737.28 564.524C735.39 564.524 733.824 565.514 733.824 567.53C733.824 569.438 735.228 570.122 736.938 570.374L737.73 570.482C738.99 570.662 739.422 571.418 739.422 572.21C739.422 573.272 738.612 573.92 737.388 573.92C736.146 573.92 735.264 573.38 734.454 572.3L733.392 573.2C734.31 574.406 735.48 575.216 737.298 575.216ZM747.015 564.524C744.459 564.524 742.929 565.838 742.929 568.178V569.06H745.053V569.132C744.117 569.348 743.181 570.122 743.181 571.922V572.57C743.181 574.208 743.883 575 745.287 575H746.421V573.74H744.621V571.418C744.621 569.852 745.251 569.15 746.727 569.096V568.016H744.333C744.495 566.54 745.377 565.82 747.015 565.82C748.725 565.82 749.715 566.774 749.715 568.502V575H751.191V568.412C751.191 566.036 749.787 564.524 747.015 564.524ZM526.274 602H528.074V600.74H526.22V591.74H524.744V600.47C524.744 601.37 525.284 602 526.274 602ZM538.351 592.37V591.11H536.695C536.065 591.11 535.651 591.452 535.651 591.974V592.1C535.057 591.704 534.265 591.524 533.347 591.524C531.565 591.524 530.323 592.334 529.585 593.522L530.539 594.44C531.097 593.522 532.015 592.82 533.311 592.82C535.039 592.82 535.867 593.594 535.867 595.412V595.952H533.671C530.773 595.952 529.387 596.978 529.387 599.03C529.387 601.01 530.701 602 532.771 602H533.833V600.686H532.951C531.655 600.686 530.935 600.218 530.935 599.174V598.706C530.935 597.806 531.745 597.266 533.365 597.266H535.867V602H537.343V595.25C537.343 594.26 537.091 593.414 536.497 592.784V592.37H538.351ZM544.015 602.216C545.707 602.216 546.481 601.28 546.877 600.308H546.949V602H548.389V591.74H546.913V598.922C546.913 600.272 545.671 600.902 544.411 600.902C542.881 600.902 542.053 599.948 542.053 598.112V591.74H540.577V598.328C540.577 600.794 541.927 602.216 544.015 602.216ZM555.003 602.216C557.937 602.216 559.287 600.488 559.287 596.87C559.287 593.36 557.901 591.524 554.949 591.524C553.203 591.524 551.961 592.154 551.151 593.342L552.141 594.224C552.735 593.342 553.617 592.82 554.913 592.82C556.713 592.82 557.739 593.936 557.739 595.898V597.878C557.739 599.912 556.821 600.92 555.003 600.92C553.131 600.92 552.339 600.038 552.339 597.878V597.338H554.211V596.078H552.771C551.583 596.078 550.899 596.672 550.899 597.896V598.04C550.899 600.686 552.393 602.216 555.003 602.216ZM565.522 591.524C563.146 591.524 561.418 592.838 561.418 595.178V596.06H563.668V596.132C562.732 596.348 561.796 597.122 561.796 598.814V602H563.272V598.418C563.272 596.852 563.902 596.15 565.234 596.096V595.016H562.876C563.038 593.468 563.992 592.82 565.522 592.82C567.232 592.82 568.204 593.792 568.204 595.502V602H569.68V595.412C569.68 593.036 568.294 591.524 565.522 591.524ZM576.599 591.524C574.007 591.524 572.441 592.838 572.441 595.178V596.06H575.051V596.132C574.115 596.348 573.179 597.122 573.179 598.814V600.74H571.919V602H572.693C574.187 602 574.619 601.55 574.619 599.786V598.418C574.619 597.158 575.051 596.15 576.419 596.096V595.016H573.881C574.007 593.486 574.835 592.82 576.599 592.82C578.381 592.82 579.407 593.792 579.407 595.502V604.52H579.317C578.723 603.602 577.733 602.972 576.419 602.972C575.123 602.972 573.827 603.764 573.197 604.88L574.187 605.762C574.727 604.844 575.537 604.25 576.671 604.25C577.715 604.25 578.615 604.682 579.353 605.6H580.883V595.412C580.883 593.036 579.515 591.524 576.599 591.524ZM583.962 602H585.438V596.528H588.408C589.596 596.528 590.1 597.122 590.1 598.49V602H591.612V598.238C591.612 596.69 590.91 595.682 589.668 595.34V595.268C590.64 594.908 591.54 594.206 591.54 592.928V591.74H590.064V593.396C590.064 594.17 589.686 595.214 588.174 595.214H585.438V591.74H583.962V602ZM599.024 602.216C601.112 602.216 602.462 600.794 602.462 598.328V591.74H600.986V598.112C600.986 599.948 600.158 600.902 598.628 600.902C597.368 600.902 596.126 600.272 596.126 598.922V591.74H594.65V602H596.09V600.308H596.162C596.558 601.28 597.332 602.216 599.024 602.216ZM609.435 602H610.911V594.656C610.911 592.658 609.705 591.524 607.599 591.524C606.051 591.524 604.827 592.19 604.197 593.342L605.187 594.242C605.763 593.378 606.465 592.82 607.563 592.82C608.805 592.82 609.435 593.414 609.435 594.818V602ZM617.567 602.216C620.105 602.216 621.455 600.794 621.455 598.328V591.74H619.979V598.112C619.979 599.966 619.151 600.92 617.567 600.92C615.983 600.92 615.155 600.038 615.155 598.58V596.942H617.603V595.646H617.135C615.695 595.646 615.245 594.566 615.245 593.36V593H617.369V591.74H615.731C614.435 591.74 613.805 592.37 613.805 593.468V593.558C613.805 594.764 614.759 595.376 615.677 595.592V595.646H615.515C614.327 595.646 613.679 596.528 613.679 598.022V598.598C613.679 600.866 615.029 602.216 617.567 602.216ZM626.656 602H628.456V600.74H626.566V590.966C627.628 590.732 628.852 589.904 628.852 588.14C628.852 586.484 627.718 585.404 625.954 585.404C624.406 585.404 623.308 586.214 622.858 587.582L624.064 588.338C624.388 587.258 624.964 586.682 625.9 586.682C626.8 586.682 627.34 587.222 627.34 588.14V588.338C627.34 589.454 626.512 590.12 625.126 590.174V600.47C625.126 601.37 625.666 602 626.656 602ZM633.822 602.216C635.514 602.216 636.288 601.28 636.684 600.308H636.756V602H638.196V591.74H636.72V598.922C636.72 600.272 635.478 600.902 634.218 600.902C632.688 600.902 631.86 599.948 631.86 598.112V591.74H630.384V598.328C630.384 600.794 631.734 602.216 633.822 602.216ZM642.848 602H644.648V600.74H642.794V591.74H641.318V600.47C641.318 601.37 641.858 602 642.848 602ZM647.618 602H649.418V600.74H647.564V591.74H646.088V600.47C646.088 601.37 646.628 602 647.618 602ZM655.103 602.216C657.641 602.216 658.991 600.794 658.991 598.328V591.74H657.515V598.112C657.515 599.966 656.687 600.92 655.103 600.92C653.501 600.92 652.673 599.966 652.673 598.112V591.74H651.197V598.328C651.197 600.794 652.547 602.216 655.103 602.216ZM665.913 602.216C668.451 602.216 669.801 600.794 669.801 598.328V591.74H668.325V598.112C668.325 599.966 667.497 600.92 665.913 600.92C664.311 600.92 663.483 599.966 663.483 598.112V591.74H662.007V598.328C662.007 600.794 663.357 602.216 665.913 602.216ZM672.908 602H674.384V594.836C674.384 593.486 675.662 592.856 676.958 592.856C678.47 592.856 679.298 593.81 679.298 595.646V602H680.774V595.412C680.774 592.946 679.424 591.524 677.354 591.524C675.626 591.524 674.834 592.46 674.42 593.432H674.348V591.74H672.908V602ZM673.531 590.3H679.183C680.173 590.3 680.677 589.814 680.677 588.842V587.582H679.309V589.112H673.531V590.3ZM679.451 586.88H680.675V584.432H679.451V586.88ZM687.152 602H688.25V600.686H687.242C685.568 600.686 684.848 599.912 684.848 597.95V595.88C684.848 594.134 685.406 592.946 686.342 592.946L687.71 594.386H687.746L689.114 592.946C689.978 593.036 690.194 593.468 690.194 595.268V602H691.67V594.242C691.67 592.19 690.41 591.524 688.898 591.524L687.764 592.856H687.71L686.558 591.524C684.47 591.524 683.3 593.27 683.3 596.708C683.3 600.416 684.434 602 687.152 602ZM688.047 590.3H692.241V589.112H689.235V588.95C689.235 587.924 688.857 587.582 687.849 587.582H686.787V588.77H688.047V590.3ZM698.23 602.216C701.164 602.216 702.514 600.488 702.514 596.87C702.514 593.36 701.128 591.524 698.176 591.524C696.43 591.524 695.188 592.154 694.378 593.342L695.368 594.224C695.962 593.342 696.844 592.82 698.14 592.82C699.94 592.82 700.966 593.936 700.966 595.898V597.878C700.966 599.912 700.048 600.92 698.23 600.92C696.358 600.92 695.566 600.038 695.566 597.878V597.338H697.438V596.078H695.998C694.81 596.078 694.126 596.672 694.126 597.896V598.04C694.126 600.686 695.62 602.216 698.23 602.216ZM707.201 602H708.335C710.657 602 711.827 600.938 711.827 597.5V594.26C711.827 592.64 711.161 591.74 709.775 591.74H708.443V593H710.351V598.13C710.351 600.074 709.757 600.704 708.425 600.704H708.263L705.365 591.74H703.871L707.201 602ZM718.417 591.524C716.041 591.524 714.313 592.838 714.313 595.178V596.06H716.563V596.132C715.627 596.348 714.691 597.122 714.691 598.814V602H716.167V598.418C716.167 596.852 716.797 596.15 718.129 596.096V595.016H715.771C715.933 593.468 716.887 592.82 718.417 592.82C720.127 592.82 721.099 593.792 721.099 595.502V602H722.575V595.412C722.575 593.036 721.189 591.524 718.417 591.524ZM729.512 602H730.988V594.656C730.988 592.658 729.782 591.524 727.676 591.524C726.128 591.524 724.904 592.19 724.274 593.342L725.264 594.242C725.84 593.378 726.542 592.82 727.64 592.82C728.882 592.82 729.512 593.414 729.512 594.818V602ZM737.157 602.216C739.299 602.216 740.703 601.046 740.703 599.03C740.703 597.482 739.839 596.51 737.787 596.222L736.995 596.114C735.825 595.952 735.105 595.448 735.105 594.458C735.105 593.468 735.825 592.82 737.031 592.82C738.219 592.82 739.101 593.486 739.533 594.116L740.613 593.18C739.767 592.136 738.687 591.524 737.139 591.524C735.249 591.524 733.683 592.514 733.683 594.53C733.683 596.438 735.087 597.122 736.797 597.374L737.589 597.482C738.849 597.662 739.281 598.418 739.281 599.21C739.281 600.272 738.471 600.92 737.247 600.92C736.005 600.92 735.123 600.38 734.313 599.3L733.251 600.2C734.169 601.406 735.339 602.216 737.157 602.216ZM745.201 602H747.001V600.74H745.147V591.524C745.147 588.968 746.191 587.042 747.973 586.988V585.728H742.231V586.952H746.479V587.024C744.427 587.726 743.671 589.094 743.671 591.938V600.47C743.671 601.37 744.211 602 745.201 602ZM752.121 602H753.021V600.686H752.211C750.717 600.686 749.817 599.912 749.817 597.95V596.024C749.817 593.972 750.825 592.82 752.481 592.82C754.101 592.82 754.965 593.828 754.965 595.61V602H756.441V595.412C756.441 592.946 755.073 591.524 752.517 591.524C749.745 591.524 748.269 593.306 748.269 596.924C748.269 600.668 749.475 602 752.121 602ZM752.822 590.3H757.016V589.112H754.01V588.95C754.01 587.924 753.632 587.582 752.624 587.582H751.562V588.77H752.822V590.3ZM590.742 646.37V645.11H589.086C588.456 645.11 588.042 645.452 588.042 645.974V646.1C587.448 645.704 586.656 645.524 585.738 645.524C583.956 645.524 582.714 646.334 581.976 647.522L582.93 648.44C583.488 647.522 584.406 646.82 585.702 646.82C587.43 646.82 588.258 647.594 588.258 649.412V649.952H586.062C583.164 649.952 581.778 650.978 581.778 653.03C581.778 655.01 583.092 656 585.162 656H586.224V654.686H585.342C584.046 654.686 583.326 654.218 583.326 653.174V652.706C583.326 651.806 584.136 651.266 585.756 651.266H588.258V656H589.734V649.25C589.734 648.26 589.482 647.414 588.888 646.784V646.37H590.742ZM588.906 644.354C590.184 644.354 590.742 643.688 590.742 642.788V642.32C590.742 641.42 590.184 640.754 588.906 640.754C587.628 640.754 587.07 641.42 587.07 642.32V642.788C587.07 643.688 587.628 644.354 588.906 644.354ZM588.906 643.31C588.456 643.31 588.222 643.058 588.222 642.554C588.222 642.05 588.456 641.798 588.906 641.798C589.356 641.798 589.59 642.05 589.59 642.554C589.59 643.058 589.356 643.31 588.906 643.31ZM596.911 656H598.387V648.656C598.387 646.658 597.181 645.524 595.075 645.524C593.527 645.524 592.303 646.19 591.673 647.342L592.663 648.242C593.239 647.378 593.941 646.82 595.039 646.82C596.281 646.82 596.911 647.414 596.911 648.818V656ZM601.497 656H602.973V650.528H605.943C607.131 650.528 607.635 651.122 607.635 652.49V656H609.147V652.238C609.147 650.69 608.445 649.682 607.203 649.34V649.268C608.175 648.908 609.075 648.206 609.075 646.928V645.74H607.599V647.396C607.599 648.17 607.221 649.214 605.709 649.214H602.973V645.74H601.497V656ZM615.244 656.216C617.386 656.216 618.79 655.046 618.79 653.03C618.79 651.482 617.926 650.51 615.874 650.222L615.082 650.114C613.912 649.952 613.192 649.448 613.192 648.458C613.192 647.468 613.912 646.82 615.118 646.82C616.306 646.82 617.188 647.486 617.62 648.116L618.7 647.18C617.854 646.136 616.774 645.524 615.226 645.524C613.336 645.524 611.77 646.514 611.77 648.53C611.77 650.438 613.174 651.122 614.884 651.374L615.676 651.482C616.936 651.662 617.368 652.418 617.368 653.21C617.368 654.272 616.558 654.92 615.334 654.92C614.092 654.92 613.21 654.38 612.4 653.3L611.338 654.2C612.256 655.406 613.426 656.216 615.244 656.216ZM616.871 644.3H620.471V643.112H616.205V641.96H614.837V642.482C614.837 643.76 615.431 644.3 616.871 644.3ZM625.106 656.216C627.644 656.216 628.994 654.794 628.994 652.328V645.74H627.518V652.112C627.518 653.966 626.69 654.92 625.106 654.92C623.504 654.92 622.676 653.966 622.676 652.112V645.74H621.2V652.328C621.2 654.794 622.55 656.216 625.106 656.216ZM635.466 656.216C637.734 656.216 639.12 654.92 639.12 652.688V651.356C639.12 649.862 638.454 648.854 637.284 648.494V648.422C638.256 648.026 639.156 647.324 639.156 646.046V645.74H637.644V646.514C637.644 647.666 636.96 648.332 635.754 648.332H635.61V649.466H635.916C637.104 649.466 637.608 650.06 637.608 651.428V652.472C637.608 654.092 636.78 654.92 635.466 654.92C634.134 654.92 633.306 654.254 633.306 652.58C633.306 649.952 634.926 649.988 634.926 647.72V647.504C634.926 646.424 634.44 645.74 632.82 645.74H631.686V647H633.486V647.882C633.486 649.826 631.794 649.466 631.794 652.634C631.794 654.848 633.18 656.216 635.466 656.216ZM637.742 644.3H639.146V641.312H637.742V644.3ZM645.381 656.216C648.315 656.216 649.665 654.488 649.665 650.87C649.665 647.36 648.279 645.524 645.327 645.524C643.581 645.524 642.339 646.154 641.529 647.342L642.519 648.224C643.113 647.342 643.995 646.82 645.291 646.82C647.091 646.82 648.117 647.936 648.117 649.898V651.878C648.117 653.912 647.199 654.92 645.381 654.92C643.509 654.92 642.717 654.038 642.717 651.878V651.338H644.589V650.078H643.149C641.961 650.078 641.277 650.672 641.277 651.896V652.04C641.277 654.686 642.771 656.216 645.381 656.216ZM654.352 656H655.486C657.808 656 658.978 654.938 658.978 651.5V648.26C658.978 646.64 658.312 645.74 656.926 645.74H655.594V647H657.502V652.13C657.502 654.074 656.908 654.704 655.576 654.704H655.414L652.516 645.74H651.022L654.352 656ZM661.842 656H663.318V648.836C663.318 647.486 664.596 646.856 665.892 646.856C667.404 646.856 668.232 647.81 668.232 649.646V656H669.708V649.412C669.708 646.946 668.358 645.524 666.288 645.524C664.56 645.524 663.768 646.46 663.354 647.432H663.282V645.74H661.842V656ZM676.681 656H678.157V648.656C678.157 646.658 676.951 645.524 674.845 645.524C673.297 645.524 672.073 646.19 671.443 647.342L672.433 648.242C673.009 647.378 673.711 646.82 674.809 646.82C676.051 646.82 676.681 647.414 676.681 648.818V656ZM683.444 656H684.578C686.9 656 688.07 654.938 688.07 651.5V648.26C688.07 646.64 687.404 645.74 686.018 645.74H684.686V647H686.594V652.13C686.594 654.074 686 654.704 684.668 654.704H684.506L681.608 645.74H680.114L683.444 656ZM694.282 656.216C695.974 656.216 696.748 655.28 697.144 654.308H697.216V656H698.656V645.74H697.18V652.922C697.18 654.272 695.938 654.902 694.678 654.902C693.148 654.902 692.32 653.948 692.32 652.112V645.74H690.844V652.328C690.844 654.794 692.194 656.216 694.282 656.216ZM691.592 644.3H697.244C698.234 644.3 698.738 643.814 698.738 642.842V641.582H697.37V643.112H691.592V644.3ZM696.522 640.88H699.546V639.8H697.566V639.44C697.566 638.558 697.188 638.216 696.18 638.216H695.478V639.314H696.522V640.88ZM529.366 683.216C531.904 683.216 533.254 681.794 533.254 679.328V668.96H531.778V679.112C531.778 680.966 530.95 681.92 529.366 681.92C527.764 681.92 526.936 680.966 526.936 679.112V672.74H525.46V679.328C525.46 681.794 526.81 683.216 529.366 683.216ZM539.655 672.524C537.801 672.524 536.559 673.334 535.821 674.522L536.775 675.44C537.333 674.522 538.251 673.82 539.547 673.82C541.275 673.82 542.103 674.594 542.103 676.412V676.952H539.907C537.009 676.952 535.623 677.978 535.623 680.03C535.623 682.01 536.937 683 539.007 683H540.069V681.686H539.187C537.891 681.686 537.171 681.218 537.171 680.174V679.706C537.171 678.806 537.981 678.266 539.601 678.266H542.103V683H543.579V676.196C543.579 673.856 542.211 672.524 539.655 672.524ZM550.514 683H551.99V675.656C551.99 673.658 550.784 672.524 548.678 672.524C547.13 672.524 545.906 673.19 545.276 674.342L546.266 675.242C546.842 674.378 547.544 673.82 548.642 673.82C549.884 673.82 550.514 674.414 550.514 675.818V683ZM558.645 683.216C561.183 683.216 562.533 681.794 562.533 679.328V672.74H561.057V679.112C561.057 680.966 560.229 681.92 558.645 681.92C557.061 681.92 556.233 681.038 556.233 679.58V677.942H558.681V676.646H558.213C556.773 676.646 556.323 675.566 556.323 674.36V674H558.447V672.74H556.809C555.513 672.74 554.883 673.37 554.883 674.468V674.558C554.883 675.764 555.837 676.376 556.755 676.592V676.646H556.593C555.405 676.646 554.757 677.528 554.757 679.022V679.598C554.757 681.866 556.107 683.216 558.645 683.216ZM565.646 683H567.122V675.836C567.122 674.486 568.4 673.856 569.696 673.856C571.208 673.856 572.036 674.81 572.036 676.646V683H573.512V676.412C573.512 673.946 572.162 672.524 570.092 672.524C568.364 672.524 567.572 673.46 567.158 674.432H567.086V672.74H565.646V683ZM580.484 683H581.96V675.656C581.96 673.658 580.754 672.524 578.648 672.524C577.1 672.524 575.876 673.19 575.246 674.342L576.236 675.242C576.812 674.378 577.514 673.82 578.612 673.82C579.854 673.82 580.484 674.414 580.484 675.818V683ZM587.248 683H588.382C590.704 683 591.874 681.938 591.874 678.5V675.26C591.874 673.64 591.208 672.74 589.822 672.74H588.49V674H590.398V679.13C590.398 681.074 589.804 681.704 588.472 681.704H588.31L585.412 672.74H583.918L587.248 683ZM598.104 683.216C600.372 683.216 601.722 681.92 601.722 679.688V672.74H600.246V679.472C600.246 681.092 599.418 681.92 598.104 681.92C596.772 681.92 595.944 681.254 595.944 679.58C595.944 676.952 597.564 676.988 597.564 674.72V674.504C597.564 673.424 597.078 672.74 595.458 672.74H594.324V674H596.124V674.882C596.124 676.826 594.432 676.466 594.432 679.634C594.432 681.848 595.8 683.216 598.104 683.216ZM608.23 683.216C611.164 683.216 612.514 681.488 612.514 677.87C612.514 674.36 611.128 672.524 608.176 672.524C606.43 672.524 605.188 673.154 604.378 674.342L605.368 675.224C605.962 674.342 606.844 673.82 608.14 673.82C609.94 673.82 610.966 674.936 610.966 676.898V678.878C610.966 680.912 610.048 681.92 608.23 681.92C606.358 681.92 605.566 681.038 605.566 678.878V678.338H607.438V677.078H605.998C604.81 677.078 604.126 677.672 604.126 678.896V679.04C604.126 681.686 605.62 683.216 608.23 683.216ZM617.201 683H618.335C620.657 683 621.827 681.938 621.827 678.5V675.26C621.827 673.64 621.161 672.74 619.775 672.74H618.443V674H620.351V679.13C620.351 681.074 619.757 681.704 618.425 681.704H618.263L615.365 672.74H613.871L617.201 683ZM633.097 673.37V672.11H631.441C630.811 672.11 630.397 672.452 630.397 672.974V673.1C629.803 672.704 629.011 672.524 628.093 672.524C626.311 672.524 625.069 673.334 624.331 674.522L625.285 675.44C625.843 674.522 626.761 673.82 628.057 673.82C629.785 673.82 630.613 674.594 630.613 676.412V676.952H628.417C625.519 676.952 624.133 677.978 624.133 680.03C624.133 682.01 625.447 683 627.517 683H628.579V681.686H627.697C626.401 681.686 625.681 681.218 625.681 680.174V679.706C625.681 678.806 626.491 678.266 628.111 678.266H630.613V683H632.089V676.25C632.089 675.26 631.837 674.414 631.243 673.784V673.37H633.097ZM624.943 671.3H632.089V670.112H624.943V671.3ZM630.865 668.88H632.089V666.432H630.865V668.88ZM637.592 683H638.726C641.048 683 642.218 681.938 642.218 678.5V675.26C642.218 673.64 641.552 672.74 640.166 672.74H638.834V674H640.742V679.13C640.742 681.074 640.148 681.704 638.816 681.704H638.654L635.756 672.74H634.262L637.592 683ZM645.081 683H646.557V675.836C646.557 674.486 647.835 673.856 649.131 673.856C650.643 673.856 651.471 674.81 651.471 676.646V683H652.947V676.412C652.947 673.946 651.597 672.524 649.527 672.524C647.799 672.524 647.007 673.46 646.593 674.432H646.521V672.74H645.081V683ZM645.704 671.3H651.356C652.346 671.3 652.85 670.814 652.85 669.842V668.582H651.482V670.112H645.704V671.3ZM651.625 667.88H652.849V665.432H651.625V667.88ZM659.884 683.216C662.422 683.216 663.772 681.794 663.772 679.328V668.96H662.296V679.112C662.296 680.966 661.468 681.92 659.884 681.92C658.282 681.92 657.454 680.966 657.454 679.112V672.74H655.978V679.328C655.978 681.794 657.328 683.216 659.884 683.216ZM669.938 683.216C672.08 683.216 673.484 682.046 673.484 680.03C673.484 678.482 672.62 677.51 670.568 677.222L669.776 677.114C668.606 676.952 667.886 676.448 667.886 675.458C667.886 674.468 668.606 673.82 669.812 673.82C671 673.82 671.882 674.486 672.314 675.116L673.394 674.18C672.548 673.136 671.468 672.524 669.92 672.524C668.03 672.524 666.464 673.514 666.464 675.53C666.464 677.438 667.868 678.122 669.578 678.374L670.37 678.482C671.63 678.662 672.062 679.418 672.062 680.21C672.062 681.272 671.252 681.92 670.028 681.92C668.786 681.92 667.904 681.38 667.094 680.3L666.032 681.2C666.95 682.406 668.12 683.216 669.938 683.216ZM676.956 676.718L680.124 676.7V675.368L676.83 675.386V673.73L675.426 673.748V675.188C675.426 676.16 676.056 676.718 676.956 676.718ZM676.956 681.938L680.124 681.92V680.588L676.83 680.606V678.95L675.426 678.968V680.408C675.426 681.38 676.056 681.938 676.956 681.938ZM685.748 683.216C688.016 683.216 689.402 681.92 689.402 679.688V678.356C689.402 676.862 688.736 675.854 687.566 675.494V675.422C688.538 675.026 689.438 674.324 689.438 673.046V672.74H687.926V673.514C687.926 674.666 687.242 675.332 686.036 675.332H685.892V676.466H686.198C687.386 676.466 687.89 677.06 687.89 678.428V679.472C687.89 681.092 687.062 681.92 685.748 681.92C684.416 681.92 683.588 681.254 683.588 679.58C683.588 676.952 685.208 676.988 685.208 674.72V674.504C685.208 673.424 684.722 672.74 683.102 672.74H681.968V674H683.768V674.882C683.768 676.826 682.076 676.466 682.076 679.634C682.076 681.848 683.462 683.216 685.748 683.216ZM696.113 683H697.589V675.656C697.589 673.658 696.383 672.524 694.277 672.524C692.729 672.524 691.505 673.19 690.875 674.342L691.865 675.242C692.441 674.378 693.143 673.82 694.241 673.82C695.483 673.82 696.113 674.414 696.113 675.818V683ZM704.065 683.216C706.333 683.216 707.719 681.92 707.719 679.688V678.356C707.719 676.862 707.053 675.854 705.883 675.494V675.422C706.855 675.026 707.755 674.324 707.755 673.046V672.74H706.243V673.514C706.243 674.666 705.559 675.332 704.353 675.332H704.209V676.466H704.515C705.703 676.466 706.207 677.06 706.207 678.428V679.472C706.207 681.092 705.379 681.92 704.065 681.92C702.733 681.92 701.905 681.254 701.905 679.58C701.905 676.952 703.525 676.988 703.525 674.72V674.504C703.525 673.424 703.039 672.74 701.419 672.74H700.285V674H702.085V674.882C702.085 676.826 700.393 676.466 700.393 679.634C700.393 681.848 701.779 683.216 704.065 683.216ZM713.926 683.216C715.618 683.216 716.392 682.28 716.788 681.308H716.86V683H718.3V672.74H716.824V679.922C716.824 681.272 715.582 681.902 714.322 681.902C712.792 681.902 711.964 680.948 711.964 679.112V672.74H710.488V679.328C710.488 681.794 711.838 683.216 713.926 683.216ZM723.131 683H724.931V681.74H723.077V672.74H721.601V681.47C721.601 682.37 722.141 683 723.131 683ZM735.208 673.37V672.11H733.552C732.922 672.11 732.508 672.452 732.508 672.974V673.1C731.914 672.704 731.122 672.524 730.204 672.524C728.422 672.524 727.18 673.334 726.442 674.522L727.396 675.44C727.954 674.522 728.872 673.82 730.168 673.82C731.896 673.82 732.724 674.594 732.724 676.412V676.952H730.528C727.63 676.952 726.244 677.978 726.244 680.03C726.244 682.01 727.558 683 729.628 683H730.69V681.686H729.808C728.512 681.686 727.792 681.218 727.792 680.174V679.706C727.792 678.806 728.602 678.266 730.222 678.266H732.724V683H734.2V676.25C734.2 675.26 733.948 674.414 733.354 673.784V673.37H735.208ZM740.873 683.216C742.565 683.216 743.339 682.28 743.735 681.308H743.807V683H745.247V672.74H743.771V679.922C743.771 681.272 742.529 681.902 741.269 681.902C739.739 681.902 738.911 680.948 738.911 679.112V672.74H737.435V679.328C737.435 681.794 738.785 683.216 740.873 683.216ZM751.86 683.216C754.794 683.216 756.144 681.488 756.144 677.87C756.144 674.36 754.758 672.524 751.806 672.524C750.06 672.524 748.818 673.154 748.008 674.342L748.998 675.224C749.592 674.342 750.474 673.82 751.77 673.82C753.57 673.82 754.596 674.936 754.596 676.898V678.878C754.596 680.912 753.678 681.92 751.86 681.92C749.988 681.92 749.196 681.038 749.196 678.878V678.338H751.068V677.078H749.628C748.44 677.078 747.756 677.672 747.756 678.896V679.04C747.756 681.686 749.25 683.216 751.86 683.216Z" fill="white"/>
<defs>
<radialGradient id="paint0_radial_97_17735" cx="0" cy="0" r="1" gradientUnits="userSpaceOnUse" gradientTransform="translate(532.393 415.393) rotate(49.6001) scale(30.8585)">
<stop stop-color="white" stop-opacity="0.81"/>
<stop offset="1" stop-color="white" stop-opacity="0"/>
</radialGradient>
<radialGradient id="paint1_radial_97_17735" cx="0" cy="0" r="1" gradientUnits="userSpaceOnUse" gradientTransform="translate(672.525 196.525) rotate(49.6001) scale(30.8585)">
<stop stop-color="white"/>
<stop offset="1" stop-color="white" stop-opacity="0"/>
</radialGradient>
<radialGradient id="paint2_radial_97_17735" cx="0" cy="0" r="1" gradientUnits="userSpaceOnUse" gradientTransform="translate(714.5 502.5) rotate(49.6001) scale(30.8585)">
<stop stop-color="white"/>
<stop offset="1" stop-color="white" stop-opacity="0"/>
</radialGradient>
</defs>
</svg>
