<svg width="597" height="205" viewBox="0 0 597 205" fill="none" xmlns="http://www.w3.org/2000/svg">
<path d="M534.342 19.477L534.578 20.4487L533.553 20.6978L533.359 19.6611L534.342 19.477ZM552.31 115.369L551.327 115.553L551.132 114.515L552.18 114.378L552.31 115.369ZM552.353 115.601L553.336 115.417L553.531 116.456L552.483 116.593L552.353 115.601ZM16.2811 185.63L16.4106 186.622L15.4233 186.751L15.2901 185.764L16.2811 185.63ZM16.2734 185.574L16.2177 184.575L17.1407 184.524L17.2644 185.44L16.2734 185.574ZM12.7061 157.838L12.9627 158.805L12.933 158.812L12.9029 158.818L12.7061 157.838ZM534.325 19.3857L534.068 18.4192L535.109 18.1429L535.308 19.2016L534.325 19.3857ZM534.106 18.5053C538.412 17.4585 542.93 16.9733 547.574 17.1286L547.507 19.1275C543.046 18.9783 538.71 19.4443 534.578 20.4487L534.106 18.5053ZM547.574 17.1286C575.085 18.049 596.641 41.0973 595.72 68.6085L593.721 68.5416C594.605 42.1344 573.914 20.011 547.507 19.1275L547.574 17.1286ZM595.72 68.6085C594.893 93.3353 576.191 113.25 552.44 116.361L552.18 114.378C574.977 111.392 592.928 92.2743 593.721 68.5416L595.72 68.6085ZM553.293 115.185L553.336 115.417L551.37 115.785L551.327 115.553L553.293 115.185ZM552.483 116.593L16.4106 186.622L16.1515 184.639L552.224 114.61L552.483 116.593ZM15.2901 185.764L15.2824 185.707L17.2644 185.44L17.2721 185.496L15.2901 185.764ZM16.3291 186.572C15.8819 186.597 15.43 186.602 14.9742 186.587L15.0411 184.588C15.4374 184.601 15.8298 184.597 16.2177 184.575L16.3291 186.572ZM14.9742 186.587C6.68614 186.31 0.192144 179.366 0.469423 171.078L2.4683 171.145C2.22796 178.329 7.85701 184.348 15.0411 184.588L14.9742 186.587ZM0.469423 171.078C0.706948 163.978 5.83525 158.197 12.5094 156.858L12.9029 158.818C7.11792 159.98 2.67411 164.993 2.4683 171.145L0.469423 171.078ZM12.4496 156.871L534.068 18.4192L534.581 20.3523L12.9627 158.805L12.4496 156.871ZM535.308 19.2016L535.325 19.2928L533.359 19.6611L533.342 19.5699L535.308 19.2016Z" fill="#F5F0EB"/>
<circle cx="543" cy="68.0506" r="22" stroke="#F5F0EB" stroke-width="2"/>
</svg>
