<svg width="713" height="198" viewBox="0 0 713 198" fill="none" xmlns="http://www.w3.org/2000/svg">
<g id="21">
<g id="Component 6">
<path id="Union" d="M448.022 136.726L448.551 137.575C449.008 137.29 449.158 136.693 448.888 136.226L448.022 136.726ZM475.511 184.339L476.377 183.839C476.108 183.371 475.516 183.202 475.04 183.456L475.511 184.339ZM475.519 184.352L474.653 184.852C474.929 185.33 475.541 185.494 476.019 185.218L475.519 184.352ZM689.896 60.5811L690.396 61.4471C690.875 61.171 691.039 60.5594 690.763 60.0811L689.896 60.5811ZM689.873 60.5403L689.324 59.7048C688.881 59.9958 688.742 60.5816 689.007 61.0403L689.873 60.5403ZM662.415 12.9823L661.549 13.4823C661.814 13.9411 662.391 14.1137 662.864 13.8759L662.415 12.9823ZM662.392 12.9416L663.258 12.4416C663.125 12.2119 662.907 12.0443 662.651 11.9757C662.394 11.9071 662.122 11.943 661.892 12.0756L662.392 12.9416ZM660.988 13.7523L661.488 14.6183L660.988 13.7523ZM448.819 136.248L448.319 135.382L448.819 136.248ZM448.014 136.713L447.514 135.847C447.036 136.123 446.872 136.734 447.148 137.213L448.014 136.713ZM447.494 135.877C434.5 143.966 430.176 160.965 437.886 174.32L439.618 173.32C432.449 160.903 436.469 145.095 448.551 137.575L447.494 135.877ZM437.886 174.32C445.596 187.674 462.48 192.429 475.982 185.221L475.04 183.456C462.487 190.159 446.787 185.737 439.618 173.32L437.886 174.32ZM474.645 184.839L474.653 184.852L476.385 183.852L476.377 183.839L474.645 184.839ZM476.019 185.218L690.396 61.4471L689.396 59.7151L475.019 183.486L476.019 185.218ZM690.763 60.0811L690.739 60.0403L689.007 61.0403L689.03 61.0811L690.763 60.0811ZM697.694 24.3197C704.75 36.5421 700.966 52.0495 689.324 59.7048L690.422 61.3759C702.944 53.142 707.015 36.4651 699.426 23.3197L697.694 24.3197ZM662.864 13.8759C675.315 7.62122 690.637 12.0973 697.694 24.3197L699.426 23.3197C691.836 10.1744 675.358 5.36125 661.966 12.0887L662.864 13.8759ZM663.281 12.4823L663.258 12.4416L661.526 13.4416L661.549 13.4823L663.281 12.4823ZM661.892 12.0756L660.488 12.8863L661.488 14.6183L662.892 13.8077L661.892 12.0756ZM660.488 12.8863L448.319 135.382L449.319 137.114L661.488 14.6183L660.488 12.8863ZM448.319 135.382L447.514 135.847L448.514 137.579L449.319 137.114L448.319 135.382ZM447.148 137.213L447.156 137.226L448.888 136.226L448.88 136.213L447.148 137.213Z" fill="white"/>
</g>
<g id="Component 7">
<path id="Union_2" d="M263.511 13.3008L263.041 14.183C263.516 14.437 264.108 14.2679 264.378 13.8008L263.511 13.3008ZM236.022 60.9135L236.888 61.4135C237.158 60.9464 237.009 60.3496 236.551 60.0646L236.022 60.9135ZM236.015 60.9269L235.149 60.4269C235.016 60.6566 234.98 60.9296 235.049 61.1857C235.117 61.4419 235.285 61.6603 235.515 61.7929L236.015 60.9269ZM450.392 184.698L449.892 185.564C450.37 185.84 450.982 185.676 451.258 185.198L450.392 184.698ZM450.416 184.657L450.864 183.764C450.391 183.526 449.814 183.698 449.55 184.157L450.416 184.657ZM477.873 137.099L477.007 136.599C476.742 137.058 476.881 137.644 477.324 137.935L477.873 137.099ZM477.897 137.058L478.763 137.558C479.039 137.08 478.875 136.469 478.397 136.192L477.897 137.058ZM476.493 136.248L475.993 137.114L476.493 136.248ZM264.324 13.7523L264.824 12.8863L264.324 13.7523ZM263.519 13.2875L264.019 12.4214C263.541 12.1453 262.929 12.3092 262.653 12.7875L263.519 13.2875ZM263.982 12.4187C250.481 5.21006 233.597 9.96522 225.886 23.3197L227.618 24.3197C234.787 11.9026 250.487 7.48071 263.041 14.183L263.982 12.4187ZM225.886 23.3197C218.176 36.6742 222.5 53.6738 235.494 61.7625L236.551 60.0646C224.47 52.5441 220.449 36.7368 227.618 24.3197L225.886 23.3197ZM235.156 60.4135L235.149 60.4269L236.881 61.4269L236.888 61.4135L235.156 60.4135ZM235.515 61.7929L449.892 185.564L450.892 183.832L236.515 60.0609L235.515 61.7929ZM451.258 185.198L451.282 185.157L449.55 184.157L449.526 184.198L451.258 185.198ZM485.694 173.32C478.637 185.542 463.315 190.018 450.864 183.764L449.967 185.551C463.358 192.278 479.836 187.465 487.426 174.32L485.694 173.32ZM477.324 137.935C488.966 145.59 492.751 161.097 485.694 173.32L487.426 174.32C495.015 161.174 490.945 144.497 478.423 136.264L477.324 137.935ZM478.739 137.599L478.763 137.558L477.031 136.558L477.007 136.599L478.739 137.599ZM478.397 136.192L476.993 135.382L475.993 137.114L477.397 137.924L478.397 136.192ZM476.993 135.382L264.824 12.8863L263.824 14.6183L475.993 137.114L476.993 135.382ZM264.824 12.8863L264.019 12.4214L263.019 14.1535L263.824 14.6183L264.824 12.8863ZM262.653 12.7875L262.645 12.8008L264.378 13.8008L264.385 13.7875L262.653 12.7875Z" fill="white"/>
</g>
<g id="Component 4">
<path id="Union_3" d="M232.041 16.5126L232.603 17.3401C232.631 17.3211 232.658 17.3007 232.684 17.2789L232.041 16.5126ZM236.669 13.372L237.145 14.2516C237.174 14.2357 237.203 14.2182 237.23 14.1994L236.669 13.372ZM236.793 13.2876L237.659 12.7876C237.52 12.547 237.287 12.3751 237.017 12.313C236.746 12.2508 236.461 12.3042 236.232 12.4602L236.793 13.2876ZM236.801 13.3011L235.935 13.8011C236.205 14.2682 236.796 14.4372 237.272 14.1832L236.801 13.3011ZM264.29 60.9138L263.762 60.0648C263.304 60.3498 263.154 60.9466 263.424 61.4138L264.29 60.9138ZM264.298 60.9271L264.732 61.828C264.982 61.7072 265.171 61.4876 265.253 61.2217C265.335 60.9559 265.303 60.668 265.164 60.4271L264.298 60.9271ZM264.166 60.9908L263.731 60.09C263.701 60.1048 263.671 60.1212 263.641 60.1391L264.166 60.9908ZM259.028 63.4663L258.689 62.5254C258.657 62.5371 258.625 62.5504 258.594 62.5654L259.028 63.4663ZM24.1082 176.663L23.2421 177.163C23.5038 177.616 24.0708 177.791 24.5423 177.564L24.1082 176.663ZM24.1045 176.657L24.9705 176.157C24.7027 175.693 24.1171 175.522 23.6422 175.77L24.1045 176.657ZM16.2193 162.999L16.7561 163.843C17.2079 163.555 17.3531 162.963 17.0853 162.499L16.2193 162.999ZM16.2165 162.994L15.6549 162.167C15.2212 162.461 15.0884 163.04 15.3504 163.494L16.2165 162.994ZM235.488 12.8865C234.02 13.734 232.656 14.6928 231.399 15.7463L232.684 17.2789C233.852 16.2997 235.121 15.4077 236.488 14.6186L235.488 12.8865ZM236.193 12.4924C235.957 12.6201 235.722 12.7515 235.488 12.8865L236.488 14.6186C236.706 14.4928 236.925 14.3705 237.145 14.2516L236.193 12.4924ZM236.232 12.4602L236.107 12.5446L237.23 14.1994L237.355 14.1151L236.232 12.4602ZM237.667 12.8011L237.659 12.7876L235.927 13.7876L235.935 13.8011L237.667 12.8011ZM274.426 23.3199C266.716 9.96548 249.832 5.21032 236.33 12.4189L237.272 14.1832C249.825 7.48097 265.525 11.9028 272.694 24.3199L274.426 23.3199ZM264.819 61.7627C277.812 53.6741 282.136 36.6744 274.426 23.3199L272.694 24.3199C279.863 36.7371 275.843 52.5443 263.762 60.0648L264.819 61.7627ZM265.164 60.4271L265.156 60.4138L263.424 61.4138L263.432 61.4271L265.164 60.4271ZM264.6 61.8917L264.732 61.828L263.864 60.0262L263.731 60.09L264.6 61.8917ZM263.993 62.258C264.228 62.1223 264.46 61.9838 264.69 61.8425L263.641 60.1391C263.428 60.2707 263.211 60.3996 262.993 60.5259L263.993 62.258ZM259.367 64.4072C260.944 63.8395 262.492 63.1246 263.993 62.258L262.993 60.5259C261.595 61.3329 260.155 61.9978 258.689 62.5254L259.367 64.4072ZM24.5423 177.564L259.462 64.3671L258.594 62.5654L23.6741 175.762L24.5423 177.564ZM23.2385 177.157L23.2421 177.163L24.9742 176.163L24.9705 176.157L23.2385 177.157ZM12.7601 174.101C15.1506 178.242 20.3673 179.733 24.5667 177.544L23.6422 175.77C20.3885 177.466 16.3448 176.31 14.4922 173.101L12.7601 174.101ZM15.6825 162.156C11.687 164.698 10.3696 169.961 12.7601 174.101L14.4922 173.101C12.6395 169.893 13.6604 165.813 16.7561 163.843L15.6825 162.156ZM15.3504 163.494L15.3533 163.499L17.0853 162.499L17.0825 162.494L15.3504 163.494ZM231.48 15.6852L15.6549 162.167L16.778 163.822L232.603 17.3401L231.48 15.6852Z" fill="white"/>
</g>
<path id="&#224;&#184;&#163;&#224;&#184;&#173;&#224;&#184;&#173;&#224;&#184;&#162;&#224;&#184;&#185;&#224;&#185;&#136;&#224;&#185;&#131;&#224;&#184;&#153;&#224;&#184;&#129;&#224;&#184;&#163;&#224;&#184;&#176;&#224;&#184;&#154;&#224;&#184;&#167;&#224;&#184;&#153;&#224;&#184;&#129;&#224;&#184;&#178;&#224;&#184;&#163;" d="M289.573 67.9933C291.49 69.1003 293.265 69.0859 294.273 67.34C295.038 66.015 294.319 64.7057 293.162 63.6847C291.178 61.9366 291.311 61.3478 291.725 60.6307C292.157 59.8824 292.961 59.7856 294.099 60.4426C294.8 60.8476 295.291 61.4012 295.491 62.0987L296.427 62.6387C296.427 62.6387 296.702 62.3407 297.161 61.5457C296.726 61.0035 295.686 60.0701 294.688 59.4941C292.973 58.5041 291.292 58.5725 290.455 60.0222C289.708 61.3161 290.195 62.5953 291.519 63.7957C293.431 65.5233 293.308 65.9514 292.822 66.7932C292.399 67.5259 291.508 67.7385 290.261 67.0185C289.403 66.5235 288.872 65.9674 288.751 65.1698L287.8 64.6208C287.454 65.1484 287.384 65.2329 287.035 65.8007C287.353 66.1504 287.921 67.0393 289.573 67.9933ZM302.854 64.2503C301.326 63.3683 299.741 63.3054 298.851 63.6229C298.698 63.8879 298.522 64.2645 298.342 64.7213L299.371 65.3153C300.231 64.6896 301.101 64.6934 302.224 65.3414C303.798 66.2504 304.113 67.3257 303.249 68.8222L302.088 70.8332C301.215 72.3452 300.126 72.6105 298.536 71.6925C297.679 71.1975 297.133 70.4874 297.082 69.8553L297.937 68.3744L298.997 68.9864L299.582 67.9731L297.244 66.6231L295.381 69.8499L295.615 69.9849C295.941 71.0045 296.501 72.0139 297.888 72.8149C299.993 74.0299 302.079 73.8003 303.348 71.6023L304.509 69.5914C305.823 67.3155 305.067 65.5283 302.854 64.2503ZM311.394 69.1809C309.866 68.2989 308.281 68.236 307.391 68.5536C307.238 68.8186 307.063 69.1951 306.882 69.652L307.911 70.246C308.771 69.6202 309.642 69.6241 310.764 70.2721C312.338 71.1811 312.653 72.2564 311.789 73.7529L310.628 75.7638C309.755 77.2759 308.666 77.5412 307.076 76.6232C306.219 76.1282 305.673 75.418 305.622 74.786L306.477 73.3051L307.537 73.9171L308.122 72.9038L305.784 71.5538L303.921 74.7806L304.155 74.9156C304.481 75.9351 305.041 76.9446 306.428 77.7456C308.533 78.9606 310.619 78.731 311.888 76.533L313.049 74.5221C314.363 72.2462 313.608 70.4589 311.394 69.1809ZM315.445 82.9306C317.565 84.1546 319.511 83.844 320.573 82.0046L322.841 78.0763C323.165 77.5151 323.309 77.4108 323.757 77.6071L324.158 77.7763L324.608 76.9969L321.615 75.2689L321.165 76.0483L321.512 76.3111C321.906 76.6008 321.887 76.7771 321.563 77.3383L319.295 81.2666C318.584 82.4981 317.4 82.6045 316.075 81.8395C314.75 81.0745 314 79.9972 314.711 78.7657C315.242 77.846 316.152 77.6022 317.056 78.1242L318.038 78.6912L318.608 78.0642L318.806 77.7212L317.606 77.0282C316.639 76.4702 316.542 75.8111 316.974 75.0629L317.523 74.112L319.206 75.084L319.728 74.1799L316.813 72.4969L315.778 74.2895C315.103 75.4587 315.5 76.2486 316.075 76.8718L316.066 76.8874C315.192 76.6736 314.099 76.8742 313.406 78.0745C312.398 79.8204 313.325 81.7066 315.445 82.9306ZM316.108 86.1397C315.82 86.6386 315.417 86.7596 314.918 86.4716C314.42 86.1836 314.307 85.7656 314.595 85.2667L315.324 84.0041L313.485 82.9421L313.005 83.4133L312.825 83.725L313.651 84.202L313.372 84.6853C312.823 85.6362 313.129 86.7271 314.36 87.4381C315.576 88.1401 316.72 87.8862 317.269 86.9353L318.052 85.5791L316.837 84.8771L316.108 86.1397ZM324.458 75.2267L325.718 73.0443L324.471 72.3243L323.211 74.5067L324.458 75.2267ZM322.958 87.1848C323.254 87.3558 323.483 87.426 323.698 87.4872L324.18 86.9759L324.342 86.6953L323.781 86.3713C323.5 86.2093 323.425 85.979 323.632 85.6205L327.542 78.9198C328.325 77.5636 330.507 77.8882 331.479 76.2046C332.172 75.0043 331.715 73.493 330.327 72.692C328.831 71.828 327.901 72.1431 327.011 72.4607C326.858 72.7257 326.709 73.0554 326.528 73.5123L327.51 74.0793C328.152 73.4727 328.838 73.3284 329.679 73.8144C330.459 74.2644 330.57 74.8275 330.219 75.4354C329.544 76.6046 327.191 76.5762 326.417 77.9168L322.306 85.0006C321.82 85.8424 322.131 86.7078 322.958 87.1848ZM328.907 90.7026C330.341 91.5306 331.407 91.3769 332.093 91.0874C331.924 91.4886 331.853 91.8633 331.818 92.1758L333.533 93.1658L334.037 92.2928C333.403 91.8434 333.372 91.6803 333.732 91.0568L336.63 86.0373C336.954 85.4761 337.098 85.3718 337.545 85.5681L337.947 85.7373L338.397 84.9579L335.404 83.2299L334.954 84.0093L335.301 84.2721C335.695 84.5618 335.676 84.7381 335.352 85.2993L332.715 89.8667C331.876 90.276 330.784 90.3314 329.661 89.6834C328.586 89.0624 328.094 88.1136 328.769 86.9445L332.036 81.2859L329.916 80.0619L329.457 80.8569L329.82 81.1286C330.198 81.4094 330.182 81.5455 329.858 82.1067L327.419 86.3312C326.402 88.0927 327.27 89.7576 328.907 90.7026ZM337.611 95.5202L338.07 94.7252L337.723 94.4625C337.329 94.1727 337.348 93.9964 337.672 93.4352L338.914 91.284C339.319 90.5825 339.702 90.2426 340.384 90.4288L340.726 89.8364L339.864 88.4863C340.54 87.9624 341.748 88.1397 342.854 88.7787C344.179 89.5437 344.65 90.709 343.984 91.8625L341.725 95.7752C341.401 96.3364 341.257 96.4407 340.809 96.2445L340.408 96.0752L339.949 96.8702L342.942 98.5982L343.401 97.8032L343.054 97.5405C342.66 97.2507 342.679 97.0744 343.003 96.5132L345.262 92.6005C346.324 90.7611 345.604 88.9115 343.484 87.6875C341.707 86.6615 339.897 86.5931 338.808 87.5438L338.457 88.1518L339.524 89.5787C338.616 89.3872 338.076 89.7822 337.635 90.546L336.393 92.6972C336.069 93.2584 335.926 93.3627 335.478 93.1665L335.077 92.9972L334.618 93.7922L337.611 95.5202ZM346.979 101.137C348.897 102.244 350.672 102.229 351.68 100.484C352.445 99.1585 351.725 97.8492 350.569 96.8282C348.585 95.0801 348.717 94.4913 349.131 93.7742C349.563 93.026 350.367 92.9291 351.505 93.5861C352.207 93.9911 352.698 94.5448 352.898 95.2422L353.833 95.7822C353.833 95.7822 354.109 95.4843 354.568 94.6893C354.133 94.147 353.092 93.2136 352.094 92.6376C350.38 91.6476 348.698 91.7161 347.861 93.1658C347.114 94.4596 347.602 95.7389 348.925 96.9392C350.837 98.6669 350.715 99.095 350.229 99.9368C349.806 100.669 348.914 100.882 347.667 100.162C346.81 99.667 346.278 99.111 346.157 98.3134L345.206 97.7644C344.86 98.292 344.79 98.3765 344.442 98.9443C344.759 99.294 345.327 100.183 346.979 101.137ZM359.06 100.733L359.726 100.12L359.942 99.7456L357.822 98.5216C357.354 98.2516 357.172 98.0632 357.397 97.6735L357.622 97.2838L357.123 96.9958L356.285 96.7197L355.889 97.4056C355.466 98.1383 355.864 98.888 356.597 99.311L359.06 100.733ZM356.342 105.441L357.008 104.827L357.224 104.453L355.104 103.229C354.636 102.959 354.454 102.771 354.679 102.381L354.904 101.992L354.405 101.704L353.567 101.427L353.171 102.113C352.748 102.846 353.021 103.524 353.754 103.947L356.342 105.441ZM361.6 109.578C363.875 110.892 365.849 110.389 366.911 108.55L369.098 104.762C369.422 104.201 369.565 104.096 370.013 104.293L370.414 104.462L370.855 103.698L367.862 101.97L367.421 102.734L367.769 102.997C368.162 103.286 368.144 103.463 367.82 104.024L365.633 107.812C364.967 108.965 363.71 109.342 362.23 108.487C360.749 107.632 360.446 106.355 361.112 105.202L364.199 99.855L362.079 98.631L361.62 99.4261L361.983 99.6978C362.361 99.9786 362.345 100.115 362.021 100.676L359.834 104.464C358.772 106.303 359.324 108.264 361.6 109.578ZM370.174 114.549C372.309 115.782 374.408 115.351 375.605 113.278L376.847 111.127C377.99 109.147 377.215 107.141 375.188 105.971C373.926 105.242 372.283 105.063 371.452 105.206C371.236 105.581 371.031 106.044 370.837 106.452L371.859 107.021C372.438 106.524 373.258 106.291 374.576 107.031C375.957 107.807 376.297 109.126 375.496 110.514L374.398 112.415C373.534 113.912 372.209 114.228 370.822 113.427C370.011 112.959 369.687 112.439 369.48 111.862L368.545 111.322C368.293 111.614 368.015 111.952 367.82 112.254C368.205 112.955 369.082 113.919 370.174 114.549ZM378.839 119.531C380.273 120.359 381.338 120.205 382.025 119.916C381.856 120.317 381.785 120.691 381.75 121.004L383.465 121.994L383.969 121.121C383.334 120.672 383.304 120.508 383.664 119.885L386.562 114.865C386.886 114.304 387.029 114.2 387.477 114.396L387.878 114.565L388.328 113.786L385.335 112.058L384.885 112.837L385.232 113.1C385.626 113.39 385.608 113.566 385.284 114.127L382.647 118.695C381.808 119.104 380.716 119.16 379.593 118.512C378.518 117.891 378.026 116.942 378.701 115.773L381.968 110.114L379.848 108.89L379.389 109.685L379.752 109.957C380.13 110.238 380.114 110.374 379.79 110.935L377.351 115.159C376.334 116.921 377.202 118.586 378.839 119.531ZM387.543 124.348L388.002 123.553L387.655 123.291C387.261 123.001 387.279 122.825 387.603 122.263L388.845 120.112C389.25 119.411 389.634 119.071 390.316 119.257L390.658 118.665L389.796 117.314C390.472 116.79 391.679 116.968 392.786 117.607C394.111 118.372 394.581 119.537 393.915 120.691L391.656 124.603C391.332 125.165 391.189 125.269 390.741 125.073L390.34 124.903L389.881 125.698L392.874 127.426L393.333 126.631L392.986 126.369C392.592 126.079 392.611 125.903 392.935 125.341L395.194 121.429C396.256 119.589 395.536 117.74 393.416 116.516C391.639 115.49 389.829 115.421 388.739 116.372L388.388 116.98L389.456 118.407C388.548 118.215 388.008 118.61 387.567 119.374L386.325 121.525C386.001 122.087 385.858 122.191 385.41 121.995L385.009 121.825L384.55 122.62L387.543 124.348ZM400.197 131.654L400.647 130.875L400.3 130.612C399.906 130.322 399.924 130.146 400.248 129.585L402.696 125.345C403.668 123.661 403.38 122.289 401.26 121.065C399.997 120.336 398.669 120.297 397.847 120.425C397.628 120.839 397.416 121.278 397.214 121.701L398.227 122.286C398.673 121.837 399.479 121.45 400.632 122.116C401.599 122.674 402.03 123.547 401.418 124.607L398.97 128.847C398.646 129.408 398.503 129.512 398.055 129.316L397.654 129.147L397.204 129.926L400.197 131.654ZM404.233 134.193C406.151 135.3 407.926 135.285 408.934 133.539C409.699 132.214 408.979 130.905 407.823 129.884C405.839 128.136 405.971 127.547 406.385 126.83C406.817 126.082 407.621 125.985 408.759 126.642C409.461 127.047 409.952 127.6 410.152 128.298L411.087 128.838C411.087 128.838 411.363 128.54 411.822 127.745C411.387 127.203 410.346 126.269 409.348 125.693C407.634 124.703 405.952 124.772 405.115 126.221C404.368 127.515 404.856 128.795 406.179 129.995C408.091 131.723 407.969 132.151 407.483 132.992C407.06 133.725 406.168 133.938 404.921 133.218C404.064 132.723 403.532 132.167 403.411 131.369L402.46 130.82C402.114 131.348 402.044 131.432 401.696 132C402.013 132.35 402.581 133.239 404.233 134.193Z" fill="white"/>
<path id="&#224;&#184;&#158;&#224;&#184;&#180;&#224;&#184;&#136;&#224;&#184;&#178;&#224;&#184;&#163;&#224;&#184;&#147;&#224;&#184;&#178;&#224;&#185;&#128;&#224;&#184;&#173;&#224;&#184;&#129;&#224;&#184;&#170;&#224;&#184;&#178;&#224;&#184;&#163;&#224;&#185;&#129;&#224;&#184;&#165;&#224;&#185;&#137;&#224;&#184;&#167;" d="M94.6638 134.131L92.787 127.316L97.7503 132.349L99.6209 131.269L96.583 123.919C96.3754 123.415 96.3813 123.246 96.8106 122.873L96.3786 122.125L94.773 123.052L97.905 130.493L97.7803 130.565L92.1146 124.711L91.0078 125.35L93.2441 133.184L93.1194 133.256L88.1946 126.85L86.2461 127.975L86.6781 128.723L87.2153 128.538C87.4762 128.449 87.6933 128.573 87.893 128.811L92.9179 135.139L94.6638 134.131ZM93.7617 121.89L93.1497 120.83L86.8364 124.475L86.9026 125.309L87.1366 125.715L93.7617 121.89ZM100.675 119.416C99.2564 120.235 98.3579 121.522 98.0667 122.314C98.2581 122.682 98.6649 123.278 98.8401 123.51L99.8443 122.909C99.6786 122.298 99.8216 121.322 101.278 120.46C102.719 119.607 104.013 119.941 104.769 121.25L105.939 123.277C106.785 124.742 106.605 125.906 105.311 126.653L105.217 126.707L102.831 123.762L100.773 124.95L101.259 125.792L101.711 125.531C102.023 125.351 102.22 125.403 102.525 125.788L104.624 128.38L106.121 127.516C107.851 126.517 108.396 124.581 107.244 122.586L106.047 120.512C104.904 118.533 102.857 118.156 100.675 119.416ZM116.634 121.446L116.184 120.667L115.783 120.836C115.335 121.032 115.192 120.928 114.868 120.367L112.42 116.127C111.448 114.443 110.115 114.007 107.995 115.231C106.732 115.96 106.034 117.09 105.734 117.867C105.984 118.263 106.258 118.666 106.523 119.053L107.536 118.468C107.371 117.857 107.438 116.966 108.592 116.3C109.558 115.742 110.53 115.805 111.142 116.865L113.59 121.105C113.914 121.666 113.932 121.842 113.538 122.132L113.191 122.395L113.641 123.174L116.634 121.446ZM120.851 119.219C122.768 118.112 123.643 116.568 122.635 114.822C121.87 113.497 120.376 113.466 118.914 113.957C116.408 114.801 115.964 114.392 115.55 113.675C115.118 112.927 115.437 112.182 116.575 111.525C117.276 111.12 118.001 110.971 118.705 111.147L119.64 110.607C119.64 110.607 119.52 110.219 119.061 109.424C118.374 109.53 117.045 109.964 116.048 110.54C114.333 111.53 113.551 113.021 114.388 114.47C115.135 115.764 116.487 115.981 118.188 115.436C120.641 114.643 120.95 114.964 121.436 115.805C121.859 116.538 121.597 117.417 120.35 118.137C119.493 118.632 118.746 118.813 117.994 118.52L117.043 119.069C117.327 119.632 117.366 119.735 117.683 120.321C118.145 120.22 119.198 120.173 120.851 119.219ZM134.101 111.569C135.348 110.849 135.775 109.896 135.847 109.086C136.058 109.379 136.325 109.662 136.63 109.901L138.376 108.893L137.872 108.021C137.172 108.321 137.063 108.384 136.649 107.667L133.751 102.647C133.427 102.086 133.408 101.91 133.802 101.62L134.149 101.357L133.699 100.578L130.706 102.306L131.156 103.085L131.557 102.916C132.005 102.72 132.149 102.824 132.473 103.385L135.146 108.015C135.045 108.884 134.749 109.74 133.565 110.424C132.551 111.009 131.617 110.759 130.96 109.621L129.322 106.784C128.26 104.944 126.454 104.553 124.334 105.777C122.666 106.74 121.768 108.173 122.047 109.591L122.398 110.199L124.027 110.069C123.508 110.681 123.478 111.53 123.928 112.309L125.278 114.647C125.827 115.598 126.747 115.607 127.511 115.166L128.493 114.599L128.307 113.917L128.091 113.543L127.218 114.047C126.937 114.209 126.7 114.159 126.493 113.8L125.206 111.571C124.783 110.838 124.731 110.245 125.272 109.704L124.93 109.112L123.391 109.148C123.276 108.3 123.967 107.444 124.964 106.868C126.289 106.103 127.378 106.368 128.044 107.522L129.718 110.421C130.699 112.12 132.558 112.46 134.101 111.569ZM145.862 104.571L145.412 103.792L145.011 103.961C144.563 104.157 144.42 104.053 144.096 103.492L141.648 99.2515C140.676 97.568 139.344 97.1318 137.223 98.3558C135.961 99.0848 135.263 100.215 134.962 100.992C135.212 101.388 135.486 101.791 135.751 102.178L136.765 101.593C136.599 100.982 136.666 100.091 137.82 99.4249C138.786 98.8669 139.758 98.9295 140.37 99.9895L142.818 104.23C143.142 104.791 143.161 104.967 142.767 105.257L142.42 105.52L142.87 106.299L145.862 104.571ZM149.17 102.786C149.498 102.597 149.798 102.361 149.958 102.206L149.772 101.524L149.61 101.244L149.002 101.595C148.721 101.757 148.558 101.726 148.369 101.399L145.255 96.005C144.913 95.4127 144.872 95.27 145.151 95.0678L145.498 94.805L145.048 94.0256L142.366 95.5736L142.816 96.353L143.218 96.1838C143.516 96.053 143.635 96.1507 143.977 96.743L147.208 102.339C147.667 103.134 148.282 103.299 149.17 102.786ZM150.205 90.861C148.677 91.743 147.83 93.0841 147.66 94.0136C147.813 94.2786 148.052 94.6192 148.357 95.004L149.386 94.41C149.274 93.3523 149.713 92.6001 150.835 91.9521C152.409 91.0431 153.498 91.3085 154.362 92.8049L155.523 94.8159C156.396 96.3279 156.081 97.4032 154.491 98.3212C153.634 98.8162 152.746 98.9341 152.173 98.662L151.318 97.1811L152.378 96.5691L151.793 95.5558L149.455 96.9058L151.318 100.133L151.552 99.9977C152.598 100.225 153.752 100.245 155.139 99.4436C157.244 98.2286 158.088 96.307 156.819 94.109L155.658 92.0981C154.344 89.8222 152.419 89.583 150.205 90.861ZM162.848 94.7645L162.389 93.9695L161.988 94.1387C161.54 94.3349 161.397 94.2306 161.073 93.6694L159.831 91.5182C159.426 90.8168 159.323 90.3149 159.825 89.817L159.483 89.2246L157.883 89.2965C157.767 88.4486 158.524 87.4919 159.631 86.8529C160.956 86.0879 162.201 86.2632 162.867 87.4167L165.126 91.3294C165.45 91.8906 165.468 92.0669 165.074 92.3567L164.727 92.6195L165.186 93.4145L168.179 91.6865L167.72 90.8915L167.319 91.0607C166.871 91.2569 166.728 91.1526 166.404 90.5914L164.145 86.6787C163.083 84.8393 161.121 84.5377 159.001 85.7617C157.224 86.7877 156.26 88.3214 156.538 89.7401L156.889 90.348L158.659 90.137C158.039 90.8274 158.111 91.4924 158.552 92.2562L159.794 94.4074C160.118 94.9686 160.137 95.1449 159.743 95.4347L159.396 95.6975L159.855 96.4925L162.848 94.7645ZM171.826 77.6715L170.672 78.3375C170.931 78.8945 170.911 79.3635 170.587 79.7378C169.868 79.7164 169.061 79.9745 168.172 80.4875C166.551 81.4235 165.697 82.6441 165.459 83.3842C165.7 83.7649 166.034 84.2367 166.264 84.5617L167.277 83.9767C167.111 83.3657 167.148 82.4926 168.769 81.5566C170.031 80.8276 171.018 80.8812 171.63 81.9412L172.314 83.1259L169.306 84.8629C167.716 85.7809 167.165 87.4914 167.966 88.8787C168.947 90.5779 170.628 90.5012 171.688 89.8892C172.327 89.5202 173.041 88.9209 173.245 88.5538C173.025 88.2445 172.82 87.9261 172.6 87.6168L171.665 88.1568C171.574 88.3961 171.401 88.6 171.152 88.744C170.419 89.167 169.758 89.0293 169.2 88.0628C168.633 87.0807 169.038 86.3064 169.973 85.7664L172.872 84.0924L174.492 86.8984C174.713 87.2077 175.024 87.4229 175.377 87.5307L176.874 86.6667L176.46 85.9497C175.889 86.1129 175.753 86.1292 175.303 85.3498L172.909 81.2032C172.594 80.6576 172.224 80.2686 171.774 80.0294C172.007 79.7493 172.29 79.2323 172.303 78.4977L171.826 77.6715ZM184.392 82.3259L183.942 81.5465L183.541 81.7157C183.093 81.912 182.95 81.8077 182.626 81.2465L180.178 77.0064C179.206 75.3229 177.873 74.8867 175.753 76.1107C174.491 76.8397 173.792 77.9703 173.492 78.7464C173.742 79.1427 174.016 79.5456 174.281 79.9329L175.294 79.3479C175.129 78.7369 175.196 77.8457 176.35 77.1797C177.316 76.6217 178.288 76.6844 178.9 77.7444L181.348 81.9845C181.672 82.5457 181.69 82.722 181.296 83.0117L180.949 83.2745L181.399 84.0539L184.392 82.3259ZM188.609 80.0993C190.526 78.9923 191.401 77.4478 190.393 75.7019C189.628 74.3769 188.134 74.3456 186.672 74.8366C184.166 75.6805 183.722 75.2717 183.308 74.5546C182.876 73.8064 183.195 73.0615 184.333 72.4045C185.034 71.9995 185.759 71.8511 186.463 72.0266L187.398 71.4866C187.398 71.4866 187.278 71.0987 186.819 70.3037C186.132 70.4094 184.803 70.844 183.806 71.42C182.091 72.41 181.31 73.9004 182.147 75.3502C182.894 76.644 184.245 76.8613 185.946 76.3156C188.399 75.5233 188.708 75.8434 189.194 76.6852C189.617 77.4178 189.355 78.2964 188.108 79.0164C187.251 79.5114 186.504 79.6934 185.752 79.3998L184.802 79.9488C185.085 80.5124 185.124 80.6149 185.441 81.2007C185.903 81.1004 186.956 81.0533 188.609 80.0993ZM195.494 76.0409C195.821 75.8519 196.122 75.6161 196.282 75.4614L196.096 74.779L195.934 74.4984L195.326 74.8494C195.045 75.0114 194.882 74.9809 194.693 74.6535L191.579 69.2599C191.237 68.6676 191.196 68.5249 191.474 68.3227L191.822 68.0599L191.372 67.2805L188.69 68.8285L189.14 69.6079L189.542 69.4387C189.84 69.3079 189.959 69.4056 190.301 69.9979L193.532 75.5942C193.991 76.3892 194.606 76.5539 195.494 76.0409ZM199.532 73.7099C199.859 73.5209 200.159 73.2851 200.319 73.1304L200.133 72.448L199.971 72.1674L199.363 72.5184C199.083 72.6804 198.92 72.6499 198.731 72.3225L195.617 66.9289C195.275 66.3366 195.234 66.1939 195.512 65.9917L195.859 65.7289L195.409 64.9495L192.728 66.4975L193.178 67.2769L193.579 67.1077C193.878 66.9769 193.996 67.0746 194.338 67.6669L197.569 73.2632C198.028 74.0582 198.643 74.2229 199.532 73.7099ZM204.235 71.0982C204.874 70.7292 205.588 70.1299 205.792 69.7628C205.572 69.4535 205.367 69.1351 205.147 68.8257L204.212 69.3657C204.121 69.605 203.948 69.809 203.699 69.953C202.966 70.376 202.305 70.2383 201.747 69.2718C201.18 68.2897 201.585 67.5154 202.52 66.9754L205.419 65.3014L207.039 68.1073C207.26 68.4167 207.571 68.6319 207.924 68.7397L209.421 67.8757L209.007 67.1586C208.436 67.3219 208.3 67.3382 207.85 66.5587L205.456 62.4122C204.484 60.7287 202.824 60.4815 200.719 61.6965C199.098 62.6325 198.244 63.8531 198.006 64.5932C198.247 64.9739 198.581 65.4457 198.811 65.7707L199.824 65.1857C199.658 64.5747 199.695 63.7015 201.316 62.7655C202.578 62.0365 203.565 62.0902 204.177 63.1502L204.861 64.3349L201.853 66.0719C200.263 66.9899 199.712 68.7004 200.513 70.0877C201.494 71.7869 203.175 71.7102 204.235 71.0982ZM202.22 57.9829C201.756 57.2526 201.03 57.1107 200.251 57.5607L199.175 58.1817L199.25 59.0321L199.421 59.3282L200.497 58.7072C200.7 58.5902 200.887 58.6274 201.013 58.8456L201.526 59.7341L204.722 57.8891L204.551 57.0527L204.371 56.7409L202.22 57.9829ZM213.983 65.4704C216.118 64.2374 216.795 62.2049 215.598 60.1316L214.356 57.9804C213.213 56.0007 211.088 55.6685 209.062 56.8385C207.799 57.5675 206.822 58.9003 206.531 59.692C206.747 60.0661 207.046 60.4756 207.302 60.8473L208.306 60.2467C208.165 59.4971 208.373 58.6701 209.674 57.8986C211.036 57.091 212.349 57.4557 213.15 58.8431L214.248 60.7449C215.112 62.2414 214.722 63.547 213.335 64.348C212.524 64.816 211.913 64.8366 211.309 64.7276L210.374 65.2676C210.501 65.631 210.654 66.0411 210.819 66.3619C211.618 66.3784 212.892 66.1004 213.983 65.4704Z" fill="white"/>
<g id="Component 64">
<g id="Frame 756">
<rect x="235" y="23" width="30" height="30" rx="15" fill="white"/>
<path id="1" d="M246.295 44.5H255.043V42.322H252.379V31.936H248.239L245.233 35.896L246.961 37.246L249.517 33.898H249.679V42.322H246.295V44.5Z" fill="black"/>
</g>
</g>
</g>
</svg>
