<svg width="501" height="198" viewBox="0 0 501 198" fill="none" xmlns="http://www.w3.org/2000/svg">
<path d="M241.184 63.4295L241.619 62.5294C241.589 62.5147 241.558 62.5015 241.526 62.4899L241.184 63.4295ZM236.15 60.9924L236.674 60.1406C236.645 60.123 236.616 60.1069 236.586 60.0923L236.15 60.9924ZM236.015 60.9269L235.149 60.4269C235.01 60.6675 234.977 60.9551 235.059 61.2207C235.14 61.4862 235.329 61.7059 235.579 61.827L236.015 60.9269ZM236.023 60.9135L236.889 61.4135C237.158 60.9464 237.009 60.3496 236.551 60.0645L236.023 60.9135ZM263.512 13.3008L263.041 14.183C263.517 14.437 264.108 14.2679 264.378 13.8008L263.512 13.3008ZM263.519 13.2875L264.083 12.4611C263.853 12.3044 263.568 12.2506 263.297 12.3126C263.026 12.3745 262.792 12.5466 262.653 12.7875L263.519 13.2875ZM263.641 13.3701L263.078 14.1965C263.106 14.2158 263.135 14.2335 263.165 14.2498L263.641 13.3701ZM268.353 16.5815L267.708 17.3453C267.734 17.3675 267.762 17.3884 267.79 17.4078L268.353 16.5815ZM483.845 163.43L484.711 163.93C484.972 163.477 484.84 162.898 484.408 162.603L483.845 163.43ZM483.841 163.436L482.975 162.936C482.707 163.4 482.852 163.992 483.304 164.28L483.841 163.436ZM475.956 177.094L476.418 176.207C475.943 175.959 475.357 176.13 475.09 176.594L475.956 177.094ZM475.953 177.099L475.517 177.999C475.989 178.227 476.557 178.053 476.819 177.599L475.953 177.099ZM236.32 62.2577C237.788 63.1052 239.3 63.8076 240.841 64.369L241.526 62.4899C240.094 61.9681 238.687 61.3148 237.32 60.5257L236.32 62.2577ZM235.626 61.8441C235.855 61.9848 236.086 62.1227 236.32 62.2577L237.32 60.5257C237.102 60.3999 236.887 60.2715 236.674 60.1406L235.626 61.8441ZM235.579 61.827L235.714 61.8924L236.586 60.0923L236.451 60.0268L235.579 61.827ZM235.156 60.4135L235.149 60.4269L236.881 61.4269L236.889 61.4135L235.156 60.4135ZM225.887 23.3197C218.176 36.6742 222.5 53.6738 235.494 61.7624L236.551 60.0645C224.47 52.5441 220.45 36.7368 227.619 24.3197L225.887 23.3197ZM263.983 12.4187C250.481 5.21007 233.597 9.96523 225.887 23.3197L227.619 24.3197C234.788 11.9026 250.487 7.48071 263.041 14.183L263.983 12.4187ZM262.653 12.7875L262.646 12.8008L264.378 13.8008L264.385 13.7875L262.653 12.7875ZM264.204 12.5438L264.083 12.4611L262.956 14.1138L263.078 14.1965L264.204 12.5438ZM264.825 12.8863C264.59 12.7506 264.354 12.6187 264.116 12.4905L263.165 14.2498C263.386 14.3692 263.606 14.492 263.825 14.6183L264.825 12.8863ZM268.999 15.8177C267.719 14.736 266.326 13.7529 264.825 12.8863L263.825 14.6183C265.222 15.4253 266.518 16.3399 267.708 17.3453L268.999 15.8177ZM484.408 162.603L268.916 15.7551L267.79 17.4078L483.281 164.256L484.408 162.603ZM484.707 163.936L484.711 163.93L482.979 162.93L482.975 162.936L484.707 163.936ZM487.3 174.538C489.69 170.398 488.373 165.135 484.378 162.592L483.304 164.28C486.4 166.25 487.421 170.33 485.568 173.538L487.3 174.538ZM475.493 177.98C479.693 180.169 484.91 178.679 487.3 174.538L485.568 173.538C483.715 176.747 479.672 177.903 476.418 176.207L475.493 177.98ZM476.819 177.599L476.822 177.594L475.09 176.594L475.087 176.599L476.819 177.599ZM240.748 64.3295L475.517 177.999L476.389 176.199L241.619 62.5294L240.748 64.3295Z" fill="white"/>
<path d="M232.042 16.5126L232.603 17.3401C232.631 17.3211 232.658 17.3007 232.684 17.2789L232.042 16.5126ZM236.669 13.372L237.145 14.2516C237.174 14.2357 237.203 14.2182 237.231 14.1994L236.669 13.372ZM236.793 13.2876L237.659 12.7876C237.52 12.547 237.288 12.3751 237.017 12.313C236.746 12.2508 236.462 12.3042 236.232 12.4602L236.793 13.2876ZM236.801 13.3011L235.935 13.8011C236.205 14.2682 236.796 14.4372 237.272 14.1832L236.801 13.3011ZM264.29 60.9138L263.762 60.0648C263.304 60.3498 263.155 60.9466 263.424 61.4138L264.29 60.9138ZM264.298 60.9271L264.732 61.828C264.983 61.7072 265.172 61.4876 265.254 61.2217C265.336 60.9559 265.303 60.668 265.164 60.4271L264.298 60.9271ZM264.166 60.9908L263.732 60.09C263.701 60.1048 263.671 60.1212 263.642 60.1391L264.166 60.9908ZM259.028 63.4663L258.69 62.5254C258.657 62.5371 258.625 62.5504 258.594 62.5654L259.028 63.4663ZM24.1084 176.663L23.2423 177.163C23.504 177.616 24.0709 177.791 24.5424 177.564L24.1084 176.663ZM24.1047 176.657L24.9707 176.157C24.7029 175.693 24.1173 175.522 23.6424 175.77L24.1047 176.657ZM16.2195 162.999L16.7563 163.843C17.2081 163.555 17.3533 162.963 17.0855 162.499L16.2195 162.999ZM16.2166 162.994L15.6551 162.167C15.2214 162.461 15.0886 163.04 15.3506 163.494L16.2166 162.994ZM235.488 12.8865C234.02 13.734 232.656 14.6928 231.399 15.7463L232.684 17.2789C233.852 16.2997 235.121 15.4077 236.488 14.6186L235.488 12.8865ZM236.193 12.4924C235.957 12.6201 235.722 12.7515 235.488 12.8865L236.488 14.6186C236.706 14.4928 236.925 14.3705 237.145 14.2516L236.193 12.4924ZM236.232 12.4602L236.107 12.5446L237.231 14.1994L237.355 14.1151L236.232 12.4602ZM237.667 12.8011L237.659 12.7876L235.927 13.7876L235.935 13.8011L237.667 12.8011ZM274.426 23.3199C266.716 9.96548 249.832 5.21032 236.33 12.4189L237.272 14.1832C249.825 7.48097 265.525 11.9028 272.694 24.3199L274.426 23.3199ZM264.819 61.7627C277.812 53.6741 282.136 36.6744 274.426 23.3199L272.694 24.3199C279.863 36.7371 275.843 52.5443 263.762 60.0648L264.819 61.7627ZM265.164 60.4271L265.156 60.4138L263.424 61.4138L263.432 61.4271L265.164 60.4271ZM264.6 61.8917L264.732 61.828L263.864 60.0262L263.732 60.09L264.6 61.8917ZM263.993 62.258C264.228 62.1223 264.46 61.9838 264.69 61.8425L263.642 60.1391C263.428 60.2707 263.212 60.3996 262.993 60.5259L263.993 62.258ZM259.367 64.4072C260.944 63.8395 262.492 63.1246 263.993 62.258L262.993 60.5259C261.595 61.3329 260.155 61.9978 258.69 62.5254L259.367 64.4072ZM24.5424 177.564L259.462 64.3671L258.594 62.5654L23.6743 175.762L24.5424 177.564ZM23.2386 177.157L23.2423 177.163L24.9744 176.163L24.9707 176.157L23.2386 177.157ZM12.7603 174.101C15.1508 178.242 20.3675 179.733 24.5669 177.544L23.6424 175.77C20.3887 177.466 16.345 176.31 14.4924 173.101L12.7603 174.101ZM15.6826 162.156C11.6872 164.698 10.3698 169.961 12.7603 174.101L14.4924 173.101C12.6397 169.893 13.6606 165.813 16.7563 163.843L15.6826 162.156ZM15.3506 163.494L15.3534 163.499L17.0855 162.499L17.0827 162.494L15.3506 163.494ZM231.48 15.6852L15.6551 162.167L16.7782 163.822L232.603 17.3401L231.48 15.6852Z" fill="white"/>
<path d="M289.01 67.2453C290.974 68.3793 292.474 67.9774 293.608 66.0133L295.876 62.085C296.2 61.5238 296.343 61.4195 296.791 61.6157L297.192 61.785L297.642 61.0055L294.649 59.2775L294.199 60.057L294.546 60.3197C294.94 60.6095 294.922 60.7858 294.598 61.347L292.33 65.2753C291.619 66.5068 290.747 66.7931 289.64 66.1541C288.533 65.5151 288.345 64.6168 289.056 63.3853L290.559 60.782C291.333 59.4414 292.133 59.2797 292.817 59.5708L293.402 58.5575L290.394 56.8205L289.809 57.8338L291.383 58.7428C290.501 58.7947 289.866 59.0308 289.218 60.1531L287.778 62.6473C286.644 64.6114 287.046 66.1113 289.01 67.2453ZM299.073 60.086L299.736 59.6581L299.997 59.206L295.975 56.884C295.71 56.731 295.667 56.5187 295.82 56.2537L296.126 55.7237L295.346 55.2737L294.757 55.1416L294.496 55.5936C294.055 56.3575 294.132 57.233 294.974 57.719L299.073 60.086ZM299.449 55.9079C299.764 55.3623 299.652 54.7992 298.967 54.4032L297.766 53.7102L297.067 54.2005L296.914 54.4655L298.084 55.1405C298.224 55.2215 298.281 55.3379 298.155 55.5561L297.687 56.3667L301.117 58.3467L301.816 57.8564L301.969 57.5914L299.35 56.0794L299.449 55.9079ZM297.369 72.0718C298.804 72.8998 299.869 72.746 300.556 72.4566C300.387 72.8577 300.316 73.2325 300.281 73.5449L301.996 74.5349L302.5 73.6619C301.865 73.2126 301.835 73.0495 302.195 72.4259L305.093 67.4064C305.417 66.8453 305.56 66.741 306.008 66.9372L306.409 67.1064L306.859 66.327L303.866 64.599L303.416 65.3784L303.763 65.6412C304.157 65.931 304.139 66.1073 303.815 66.6684L301.178 71.2359C300.339 71.6452 299.247 71.7006 298.124 71.0526C297.049 70.4316 296.557 69.4828 297.232 68.3136L300.499 62.655L298.379 61.431L297.92 62.226L298.283 62.4978C298.661 62.7786 298.645 62.9147 298.321 63.4759L295.882 67.7003C294.865 69.4618 295.733 71.1268 297.369 72.0718ZM312 79.1886C311.606 78.8988 311.625 78.7225 311.949 78.1614L314.163 74.3266C315.063 72.7677 314.924 71.3159 313.599 70.1557L313.287 69.9757L311.698 70.2433L311.051 68.6641L310.739 68.4841C309.185 68.0441 307.794 68.6541 306.93 70.1506L304.608 74.1724C304.383 74.5621 304.233 74.6418 303.988 74.5626L303.727 74.4744L303.268 75.2694L304.531 75.9984C306.573 77.1774 308.927 76.9155 310.187 74.7331C310.439 74.2966 310.605 73.6856 310.481 73.3234L309.187 72.5764L308.503 73.7611C308.822 73.9657 308.841 74.1846 308.688 74.4496C308.004 75.6343 306.784 75.803 305.643 75.3313L308.208 70.8886C308.757 69.9377 309.365 69.3532 310.347 69.7751L311.002 71.2337L311.22 71.3597L312.764 71.1701C313.701 71.815 313.461 72.5909 312.885 73.5886L310.671 77.4234C310.347 77.9845 310.203 78.0888 309.755 77.8926L309.354 77.7234L308.895 78.5184L311.888 80.2464L312.347 79.4514L312 79.1886ZM321.416 74.5442C319.888 73.6622 318.303 73.5993 317.413 73.9169C317.26 74.1819 317.084 74.5584 316.904 75.0153L317.933 75.6093C318.793 74.9835 319.663 74.9874 320.786 75.6354C322.36 76.5444 322.675 77.6197 321.811 79.1162L320.65 81.1271C319.777 82.6392 318.688 82.9045 317.098 81.9865C316.241 81.4915 315.695 80.7813 315.644 80.1492L316.499 78.6683L317.559 79.2803L318.144 78.2671L315.806 76.9171L313.943 80.1439L314.177 80.2789C314.502 81.2984 315.063 82.3079 316.45 83.1089C318.555 84.3239 320.641 84.0942 321.91 81.8963L323.071 79.8854C324.385 77.6094 323.629 75.8222 321.416 74.5442ZM324.999 88.0239C326.434 88.8519 327.499 88.6982 328.186 88.4087C328.017 88.8099 327.946 89.1846 327.911 89.497L329.626 90.487L330.13 89.6141C329.495 89.1647 329.465 89.0016 329.825 88.3781L332.723 83.3586C333.047 82.7974 333.19 82.6931 333.638 82.8893L334.039 83.0586L334.489 82.2792L331.496 80.5512L331.046 81.3306L331.393 81.5933C331.787 81.8831 331.769 82.0594 331.445 82.6206L328.808 87.188C327.968 87.5973 326.876 87.6527 325.754 87.0047C324.678 86.3837 324.187 85.4349 324.862 84.2658L328.129 78.6072L326.009 77.3832L325.55 78.1782L325.913 78.4499C326.291 78.7307 326.275 78.8668 325.951 79.428L323.512 83.6525C322.495 85.414 323.363 87.0789 324.999 88.0239ZM334.798 93.6814C336.918 94.9054 338.88 94.6038 339.942 92.7644L345.099 83.8322L344.725 83.6162L343.65 83.3904L338.664 92.0264C337.998 93.1799 336.753 93.3552 335.428 92.5902C334.103 91.8252 333.633 90.6599 334.299 89.5064L337.476 84.0036L335.356 82.7796L334.897 83.5747L335.26 83.8464C335.638 84.1272 335.622 84.2633 335.298 84.8245L333.021 88.7684C331.959 90.6078 332.678 92.4574 334.798 93.6814ZM343.051 98.238L343.51 97.443L343.163 97.1802C342.769 96.8905 342.787 96.7142 343.111 96.153L344.353 94.0018C344.758 93.3003 345.142 92.9604 345.824 93.1465L346.166 92.5542L345.303 91.204C345.98 90.6801 347.187 90.8574 348.294 91.4964C349.619 92.2614 350.089 93.4267 349.423 94.5803L347.164 98.493C346.84 99.0542 346.697 99.1585 346.249 98.9622L345.848 98.793L345.389 99.588L348.382 101.316L348.841 100.521L348.494 100.258C348.1 99.9685 348.119 99.7922 348.443 99.231L350.702 95.3183C351.764 93.4788 351.044 91.6292 348.924 90.4052C347.147 89.3792 345.336 89.3109 344.247 90.2616L343.896 90.8696L344.964 92.2965C344.056 92.1049 343.516 92.4999 343.075 93.2638L341.833 95.415C341.509 95.9762 341.366 96.0805 340.918 95.8842L340.517 95.715L340.058 96.51L343.051 98.238ZM358.233 105.881C357.839 105.591 357.857 105.415 358.181 104.854L360.395 101.019C361.295 99.4601 361.157 98.0083 359.831 96.8481L359.52 96.6681L357.931 96.9357L357.284 95.3565L356.972 95.1765C355.418 94.7365 354.026 95.3465 353.162 96.843L350.84 100.865C350.615 101.255 350.465 101.334 350.22 101.255L349.959 101.167L349.5 101.962L350.763 102.691C352.805 103.87 355.16 103.608 356.42 101.425C356.672 100.989 356.837 100.378 356.714 100.016L355.42 99.2688L354.736 100.453C355.054 100.658 355.073 100.877 354.92 101.142C354.236 102.327 353.017 102.495 351.876 102.024L354.441 97.581C354.99 96.6301 355.597 96.0456 356.58 96.4675L357.234 97.9261L357.453 98.0521L358.996 97.8625C359.933 98.5074 359.693 99.2833 359.117 100.281L356.903 104.116C356.579 104.677 356.436 104.781 355.988 104.585L355.587 104.416L355.128 105.211L358.121 106.939L358.58 106.144L358.233 105.881ZM362.761 96.8559L363.373 95.7959L357.06 92.1509L356.37 92.6256L356.136 93.0309L362.761 96.8559Z" fill="white"/>
<path d="M115.122 102.61L110.524 105.265L110.731 105.624L111.265 106.189L114.195 104.497C113.528 105.464 113.398 106.391 114.352 108.044L119.097 116.299C119.583 117.141 120.488 117.304 121.314 116.827C121.611 116.656 121.786 116.492 121.946 116.338L121.776 115.646L121.614 115.366L121.053 115.69C120.772 115.852 120.535 115.801 120.328 115.443L115.733 107.412C114.534 105.299 114.856 104.489 115.734 103.67L115.122 102.61ZM128.006 113.047C129.58 112.138 130.499 110.381 129.473 108.604L127.079 104.458C126.755 103.896 126.736 103.72 127.13 103.43L127.477 103.168L127.027 102.388L124.034 104.116L124.484 104.896L124.885 104.726C125.333 104.53 125.477 104.634 125.801 105.196L128.159 109.28C128.861 110.496 128.327 111.407 127.282 112.01C125.692 112.928 124.249 112.264 124.249 112.264L120.667 106.06L118.547 107.284L119.006 108.079L119.423 107.901C119.855 107.714 119.965 107.796 120.289 108.357L123.196 113.392C123.547 114 123.541 114.17 123.232 114.39L122.891 114.628L123.395 115.501L125.188 114.466C125.113 114.156 124.959 113.746 124.81 113.416C124.81 113.416 126.229 114.073 128.006 113.047ZM125.424 101.63L124.164 99.4476L122.917 100.168L124.177 102.35L125.424 101.63ZM135.834 108.32L135.384 107.54L134.936 107.736C134.519 107.915 134.304 107.831 133.989 107.285L131.289 102.609C131.498 101.782 132.045 100.821 133.167 100.173C134.29 99.5253 135.219 99.6953 135.813 100.724L138.198 104.855C138.522 105.416 138.541 105.593 138.147 105.882L137.8 106.145L138.25 106.925L141.243 105.197L140.793 104.417L140.392 104.586C139.944 104.783 139.801 104.678 139.477 104.117L137.083 99.9706C136.102 98.2715 134.434 97.9038 132.548 98.9928C131.317 99.7038 130.808 100.767 130.649 101.607L129.941 100.706L127.993 101.831L128.497 102.704L128.941 102.572C129.369 102.45 129.516 102.489 129.813 103.004L132.711 108.023C133.035 108.584 133.029 108.754 132.713 108.999L132.235 109.358L132.685 110.138L135.834 108.32ZM145.393 103.008C147.31 101.901 148.185 100.357 147.177 98.6111C146.412 97.2861 144.918 97.2548 143.456 97.7458C140.95 98.5897 140.506 98.1809 140.092 97.4638C139.66 96.7156 139.979 95.9707 141.117 95.3137C141.818 94.9087 142.543 94.7603 143.247 94.9358L144.182 94.3958C144.182 94.3958 144.062 94.0079 143.603 93.2128C142.916 93.3186 141.587 93.7532 140.59 94.3292C138.875 95.3192 138.094 96.8096 138.931 98.2593C139.678 99.5532 141.029 99.7704 142.73 99.2248C145.183 98.4324 145.492 98.7526 145.978 99.5943C146.401 100.327 146.139 101.206 144.892 101.926C144.035 102.421 143.288 102.603 142.536 102.309L141.586 102.858C141.869 103.422 141.908 103.524 142.225 104.11C142.687 104.01 143.74 103.962 145.393 103.008ZM156.293 96.5075L155.843 95.7281L155.442 95.8974C154.994 96.0936 154.85 95.9893 154.526 95.4281L152.078 91.1881C151.106 89.5045 149.774 89.0684 147.654 90.2924C146.391 91.0214 145.693 92.152 145.393 92.928C145.642 93.3243 145.916 93.7272 146.182 94.1145L147.195 93.5295C147.029 92.9185 147.097 92.0274 148.25 91.3614C149.217 90.8034 150.188 90.866 150.8 91.9261L153.248 96.1661C153.572 96.7273 153.591 96.9036 153.197 97.1934L152.85 97.4561L153.3 98.2355L156.293 96.5075ZM161.414 93.7589C163.689 92.4449 164.241 90.4844 163.179 88.645L160.992 84.857C160.668 84.2958 160.649 84.1195 161.043 83.8297L161.39 83.567L160.949 82.8031L157.957 84.5311L158.398 85.295L158.799 85.1257C159.247 84.9295 159.39 85.0338 159.714 85.595L161.901 89.383C162.567 90.5365 162.264 91.8127 160.784 92.6677C159.303 93.5227 158.046 93.1465 157.38 91.993L154.293 86.6461L152.173 87.8701L152.632 88.6651L153.049 88.4869C153.481 88.2997 153.591 88.3818 153.915 88.943L156.102 92.731C157.164 94.5704 159.138 95.0729 161.414 93.7589ZM170.293 88.6324C172.257 87.4984 172.659 85.9985 171.525 84.0344L169.257 80.1061C168.933 79.5449 168.914 79.3686 169.308 79.0788L169.655 78.8161L169.205 78.0366L166.212 79.7646L166.662 80.5441L167.063 80.3748C167.511 80.1786 167.655 80.2829 167.979 80.8441L170.247 84.7724C170.958 86.0039 170.77 86.9022 169.663 87.5412C168.556 88.1802 167.684 87.8939 166.973 86.6624L165.47 84.0591C164.696 82.7185 164.956 81.9448 165.55 81.4979L164.965 80.4846L161.957 82.2216L162.542 83.2349L164.116 82.3259C163.72 83.1158 163.607 83.7838 164.255 84.9062L165.695 87.4004C166.829 89.3645 168.329 89.7664 170.293 88.6324ZM169.125 76.3373L169.085 75.5494L168.824 75.0973L164.803 77.4193C164.538 77.5723 164.332 77.504 164.179 77.239L163.873 76.709L163.093 77.159L162.685 77.6029L162.946 78.055C163.387 78.8188 164.183 79.1903 165.025 78.7043L169.125 76.3373ZM165.694 73.9232C165.379 73.3776 164.836 73.1925 164.15 73.5885L162.949 74.2815L163.025 75.1318L163.178 75.3968L164.347 74.7218C164.487 74.6408 164.617 74.6492 164.743 74.8674L165.211 75.678L168.64 73.698L168.565 72.8477L168.412 72.5827L165.793 74.0947L165.694 73.9232ZM178.653 83.8059C180.087 82.9779 180.486 81.9782 180.579 81.2388C180.842 81.5859 181.131 81.8346 181.384 82.0211L183.099 81.0311L182.595 80.1581C181.888 80.4828 181.732 80.4276 181.372 79.8041L178.474 74.7846C178.15 74.2234 178.131 74.0471 178.525 73.7574L178.872 73.4946L178.422 72.7152L175.429 74.4432L175.879 75.2226L176.28 75.0534C176.728 74.8571 176.872 74.9614 177.196 75.5226L179.833 80.09C179.768 81.0213 179.27 81.9948 178.147 82.6428C177.072 83.2638 176.004 83.2149 175.329 82.0458L172.062 76.3872L169.942 77.6112L170.401 78.4062L170.818 78.228C171.25 78.0407 171.36 78.1228 171.684 78.684L174.123 82.9085C175.14 84.67 177.016 84.7509 178.653 83.8059ZM192.131 74.6938C191.683 74.89 191.54 74.7857 191.216 74.2246L189.002 70.3898C188.102 68.831 186.775 68.2251 185.108 68.7929L184.796 68.9729L184.233 70.4825L182.542 70.2533L182.231 70.4333C181.072 71.5593 180.905 73.0693 181.769 74.5658L184.091 78.5876C184.316 78.9773 184.31 79.147 184.119 79.3198L183.912 79.5016L184.371 80.2966L185.634 79.5676C187.676 78.3886 188.626 76.2187 187.366 74.0363C187.114 73.5998 186.668 73.1508 186.292 73.0766L184.999 73.8236L185.683 75.0083C186.019 74.8349 186.218 74.9278 186.371 75.1928C187.055 76.3775 186.591 77.5182 185.612 78.2705L183.047 73.8278C182.498 72.8769 182.296 72.0584 183.153 71.4183L184.743 71.5809L184.961 71.4549L185.569 70.0233C186.596 69.5342 187.148 70.1301 187.724 71.1278L189.938 74.9626C190.262 75.5237 190.28 75.7 189.887 75.9898L189.539 76.2526L189.998 77.0476L192.991 75.3196L192.532 74.5246L192.131 74.6938ZM192.817 64.2174C191.289 65.0994 190.442 66.4405 190.272 67.3701C190.425 67.6351 190.664 67.9756 190.969 68.3605L191.998 67.7665C191.886 66.7087 192.325 65.9566 193.447 65.3086C195.021 64.3996 196.11 64.6649 196.974 66.1614L198.135 68.1723C199.008 69.6844 198.693 70.7597 197.103 71.6777C196.246 72.1727 195.358 72.2905 194.785 72.0184L193.93 70.5375L194.99 69.9255L194.405 68.9123L192.067 70.2623L193.93 73.4891L194.164 73.3541C195.21 73.5816 196.364 73.6011 197.751 72.8001C199.856 71.5851 200.7 69.6634 199.431 67.4655L198.27 65.4546C196.956 63.1787 195.03 62.9394 192.817 64.2174ZM206.282 67.8538C207.717 67.0258 208.116 66.026 208.209 65.2866C208.472 65.6337 208.761 65.8825 209.014 66.0689L210.729 65.0789L210.225 64.206C209.518 64.5306 209.362 64.4755 209.002 63.852L206.104 58.8325C205.78 58.2713 205.761 58.095 206.155 57.8052L206.502 57.5425L206.052 56.763L203.059 58.491L203.509 59.2705L203.91 59.1012C204.358 58.905 204.502 59.0093 204.826 59.5705L207.463 64.1379C207.398 65.0692 206.9 66.0426 205.777 66.6906C204.702 67.3116 203.634 67.2628 202.959 66.0936L199.692 60.435L197.572 61.659L198.031 62.454L198.448 62.2758C198.88 62.0886 198.99 62.1707 199.314 62.7319L201.753 66.9564C202.77 68.7178 204.646 68.7988 206.282 67.8538Z" fill="white"/>
<rect x="234" y="23" width="30" height="30" rx="15" fill="white"/>
<path d="M249.004 44.716C252.298 44.716 253.846 42.322 253.846 38.218C253.846 34.114 252.298 31.72 249.004 31.72C245.71 31.72 244.162 34.114 244.162 38.218C244.162 42.322 245.71 44.716 249.004 44.716ZM249.004 42.43C247.564 42.43 247.096 41.314 247.096 39.406V37.03C247.096 35.122 247.564 34.006 249.004 34.006C250.444 34.006 250.912 35.122 250.912 37.03V39.406C250.912 41.314 250.444 42.43 249.004 42.43Z" fill="black"/>
</svg>
