<svg width="501" height="198" viewBox="0 0 501 198" fill="none" xmlns="http://www.w3.org/2000/svg">
<g id="17">
<g id="Component 52">
<path id="Union" d="M241.183 63.4295L241.619 62.5294C241.589 62.5147 241.557 62.5015 241.526 62.4899L241.183 63.4295ZM236.15 60.9924L236.674 60.1406C236.645 60.123 236.616 60.1069 236.585 60.0923L236.15 60.9924ZM236.015 60.9269L235.148 60.4269C235.01 60.6675 234.977 60.9551 235.059 61.2207C235.14 61.4862 235.329 61.7059 235.579 61.827L236.015 60.9269ZM236.022 60.9135L236.888 61.4135C237.158 60.9464 237.009 60.3496 236.551 60.0645L236.022 60.9135ZM263.511 13.3008L263.04 14.183C263.516 14.437 264.108 14.2679 264.377 13.8008L263.511 13.3008ZM263.519 13.2875L264.082 12.4611C263.852 12.3044 263.568 12.2506 263.297 12.3126C263.025 12.3745 262.792 12.5466 262.653 12.7875L263.519 13.2875ZM263.641 13.3701L263.077 14.1965C263.106 14.2158 263.135 14.2335 263.165 14.2498L263.641 13.3701ZM268.353 16.5815L267.707 17.3453C267.734 17.3675 267.761 17.3884 267.79 17.4078L268.353 16.5815ZM483.844 163.43L484.71 163.93C484.972 163.477 484.84 162.898 484.407 162.603L483.844 163.43ZM483.841 163.436L482.975 162.936C482.707 163.4 482.852 163.992 483.304 164.28L483.841 163.436ZM475.955 177.094L476.418 176.207C475.943 175.959 475.357 176.13 475.089 176.594L475.955 177.094ZM475.953 177.099L475.517 177.999C475.989 178.227 476.557 178.053 476.819 177.599L475.953 177.099ZM236.32 62.2577C237.788 63.1052 239.3 63.8076 240.841 64.369L241.526 62.4899C240.094 61.9681 238.687 61.3148 237.32 60.5257L236.32 62.2577ZM235.626 61.8441C235.854 61.9848 236.086 62.1227 236.32 62.2577L237.32 60.5257C237.102 60.3999 236.886 60.2715 236.674 60.1406L235.626 61.8441ZM235.579 61.827L235.714 61.8924L236.585 60.0923L236.45 60.0268L235.579 61.827ZM235.156 60.4135L235.148 60.4269L236.881 61.4269L236.888 61.4135L235.156 60.4135ZM225.886 23.3197C218.176 36.6742 222.5 53.6738 235.494 61.7624L236.551 60.0645C224.47 52.5441 220.449 36.7368 227.618 24.3197L225.886 23.3197ZM263.982 12.4187C250.481 5.21007 233.597 9.96523 225.886 23.3197L227.618 24.3197C234.787 11.9026 250.487 7.48071 263.04 14.183L263.982 12.4187ZM262.653 12.7875L262.645 12.8008L264.377 13.8008L264.385 13.7875L262.653 12.7875ZM264.204 12.5438L264.082 12.4611L262.956 14.1138L263.077 14.1965L264.204 12.5438ZM264.824 12.8863C264.589 12.7506 264.353 12.6187 264.116 12.4905L263.165 14.2498C263.386 14.3692 263.606 14.492 263.824 14.6183L264.824 12.8863ZM268.998 15.8177C267.718 14.736 266.325 13.7529 264.824 12.8863L263.824 14.6183C265.222 15.4253 266.518 16.3399 267.707 17.3453L268.998 15.8177ZM484.407 162.603L268.916 15.7551L267.79 17.4078L483.281 164.256L484.407 162.603ZM484.707 163.936L484.71 163.93L482.978 162.93L482.975 162.936L484.707 163.936ZM487.3 174.538C489.69 170.398 488.373 165.135 484.377 162.592L483.304 164.28C486.399 166.25 487.42 170.33 485.568 173.538L487.3 174.538ZM475.493 177.98C479.693 180.169 484.909 178.679 487.3 174.538L485.568 173.538C483.715 176.747 479.671 177.903 476.418 176.207L475.493 177.98ZM476.819 177.599L476.821 177.594L475.089 176.594L475.087 176.599L476.819 177.599ZM240.747 64.3295L475.517 177.999L476.388 176.199L241.619 62.5294L240.747 64.3295Z" fill="white"/>
</g>
<g id="Component 53">
<path id="Union_2" d="M232.041 16.5126L232.603 17.3401C232.631 17.3211 232.658 17.3007 232.684 17.2789L232.041 16.5126ZM236.669 13.372L237.144 14.2516C237.174 14.2357 237.203 14.2182 237.23 14.1994L236.669 13.372ZM236.793 13.2876L237.659 12.7876C237.52 12.547 237.287 12.3751 237.017 12.313C236.746 12.2508 236.461 12.3042 236.231 12.4602L236.793 13.2876ZM236.801 13.3011L235.935 13.8011C236.204 14.2682 236.796 14.4372 237.272 14.1832L236.801 13.3011ZM264.29 60.9138L263.762 60.0648C263.304 60.3498 263.154 60.9466 263.424 61.4138L264.29 60.9138ZM264.298 60.9271L264.732 61.828C264.982 61.7072 265.171 61.4876 265.253 61.2217C265.335 60.9559 265.303 60.668 265.164 60.4271L264.298 60.9271ZM264.165 60.9908L263.731 60.09C263.701 60.1048 263.671 60.1212 263.641 60.1391L264.165 60.9908ZM259.028 63.4663L258.689 62.5254C258.657 62.5371 258.625 62.5504 258.594 62.5654L259.028 63.4663ZM24.1081 176.663L23.2421 177.163C23.5038 177.616 24.0707 177.791 24.5422 177.564L24.1081 176.663ZM24.1044 176.657L24.9704 176.157C24.7027 175.693 24.1171 175.522 23.6422 175.77L24.1044 176.657ZM16.2192 162.999L16.756 163.843C17.2079 163.555 17.353 162.963 17.0852 162.499L16.2192 162.999ZM16.2164 162.994L15.6548 162.167C15.2212 162.461 15.0883 163.04 15.3504 163.494L16.2164 162.994ZM235.488 12.8865C234.02 13.734 232.655 14.6928 231.399 15.7463L232.684 17.2789C233.852 16.2997 235.121 15.4077 236.488 14.6186L235.488 12.8865ZM236.193 12.4924C235.957 12.6201 235.722 12.7515 235.488 12.8865L236.488 14.6186C236.706 14.4928 236.925 14.3705 237.144 14.2516L236.193 12.4924ZM236.231 12.4602L236.107 12.5446L237.23 14.1994L237.355 14.1151L236.231 12.4602ZM237.667 12.8011L237.659 12.7876L235.927 13.7876L235.935 13.8011L237.667 12.8011ZM274.426 23.3199C266.716 9.96548 249.832 5.21032 236.33 12.4189L237.272 14.1832C249.825 7.48097 265.525 11.9028 272.694 24.3199L274.426 23.3199ZM264.818 61.7627C277.812 53.6741 282.136 36.6744 274.426 23.3199L272.694 24.3199C279.863 36.7371 275.843 52.5443 263.762 60.0648L264.818 61.7627ZM265.164 60.4271L265.156 60.4138L263.424 61.4138L263.432 61.4271L265.164 60.4271ZM264.6 61.8917L264.732 61.828L263.864 60.0262L263.731 60.09L264.6 61.8917ZM263.993 62.258C264.228 62.1223 264.46 61.9838 264.689 61.8425L263.641 60.1391C263.428 60.2707 263.211 60.3996 262.993 60.5259L263.993 62.258ZM259.367 64.4072C260.944 63.8395 262.492 63.1246 263.993 62.258L262.993 60.5259C261.595 61.3329 260.155 61.9978 258.689 62.5254L259.367 64.4072ZM24.5422 177.564L259.462 64.3671L258.594 62.5654L23.674 175.762L24.5422 177.564ZM23.2384 177.157L23.2421 177.163L24.9741 176.163L24.9704 176.157L23.2384 177.157ZM12.7601 174.101C15.1505 178.242 20.3673 179.733 24.5667 177.544L23.6422 175.77C20.3884 177.466 16.3447 176.31 14.4921 173.101L12.7601 174.101ZM15.6824 162.156C11.687 164.698 10.3696 169.961 12.7601 174.101L14.4921 173.101C12.6395 169.893 13.6604 165.813 16.756 163.843L15.6824 162.156ZM15.3504 163.494L15.3532 163.499L17.0852 162.499L17.0824 162.494L15.3504 163.494ZM231.48 15.6852L15.6548 162.167L16.778 163.822L232.603 17.3401L231.48 15.6852Z" fill="white"/>
</g>
<path id="&#224;&#185;&#132;&#224;&#184;&#161;&#224;&#185;&#136;&#224;&#184;&#156;&#224;&#185;&#136;&#224;&#184;&#178;&#224;&#184;&#153; (&#224;&#184;&#130;&#224;&#184;&#177;&#224;&#184;&#148;)" d="M297.952 54.9562L293.354 52.3012L293.147 52.6598L292.924 53.4045L295.855 55.0965C294.683 55.002 293.816 55.3531 292.862 57.0055L288.085 65.2428C287.599 66.0845 287.91 66.95 288.736 67.427C289.032 67.598 289.262 67.6682 289.476 67.7294L289.989 67.2361L290.151 66.9555L289.59 66.6315C289.31 66.4695 289.235 66.2392 289.442 65.8806L294.099 57.8862C295.33 55.7907 296.192 55.6651 297.34 56.0163L297.952 54.9562ZM295.356 71.3318C296.93 72.2408 298.911 72.1581 299.937 70.381L302.331 66.2345C302.655 65.6733 302.798 65.569 303.246 65.7652L303.647 65.9345L304.097 65.1551L301.104 63.4271L300.654 64.2065L301.001 64.4692C301.395 64.759 301.376 64.9353 301.052 65.4965L298.694 69.5807C297.992 70.7966 296.936 70.7896 295.892 70.1866C294.302 69.2686 294.155 67.6873 294.155 67.6873L297.737 61.4831L295.617 60.2591L295.158 61.0541L295.521 61.3258C295.899 61.6066 295.883 61.7427 295.559 62.3039L292.652 67.339C292.301 67.9469 292.151 68.0266 291.805 67.8688L291.429 67.693L290.925 68.5659L292.718 69.6009C292.948 69.3809 293.227 69.0428 293.438 68.749C293.438 68.749 293.578 70.3058 295.356 71.3318ZM303.952 63.3878L305.212 61.2054L303.965 60.4854L302.705 62.6678L303.952 63.3878ZM302.724 75.3784L306.641 73.2748L306.777 77.7184L308.445 78.6814L312.306 71.9939C312.63 71.4327 312.774 71.3284 313.222 71.5247L313.623 71.6939L314.073 70.9145L311.08 69.1865L310.63 69.9659L310.977 70.2287C311.371 70.5184 311.352 70.6947 311.028 71.2559L308.112 76.3066L307.987 76.2346L307.88 72.2444L306.914 71.6864L303.404 73.5886L303.28 73.5166L306.295 68.2945C306.502 67.9359 306.739 67.8856 307.019 68.0476L307.58 68.3716L307.778 68.0287L307.946 67.3775L307.276 66.9905C306.512 66.5495 305.61 66.5276 305.061 67.4785L301.056 74.4154L302.724 75.3784ZM313.923 69.1447L315.183 66.9623L313.936 66.2423L312.676 68.4247L313.923 69.1447ZM316.546 83.3582L316.996 82.5788L316.649 82.316C316.255 82.0263 316.273 81.85 316.597 81.2888L319.045 77.0487C320.017 75.3652 319.729 73.993 317.609 72.769C316.346 72.04 315.018 72.0006 314.196 72.1287C313.977 72.543 313.765 72.9819 313.563 73.4052L314.576 73.9902C315.022 73.5412 315.828 73.154 316.981 73.82C317.948 74.378 318.379 75.2507 317.767 76.3107L315.319 80.5508C314.995 81.112 314.852 81.2163 314.404 81.02L314.003 80.8508L313.553 81.6302L316.546 83.3582ZM321.113 86.2026C322.547 87.0306 323.612 86.8769 324.299 86.5874C324.13 86.9886 324.059 87.3633 324.024 87.6758L325.739 88.6658L326.243 87.7928C325.608 87.3434 325.578 87.1803 325.938 86.5568L328.836 81.5373C329.16 80.9761 329.303 80.8718 329.751 81.0681L330.152 81.2373L330.602 80.4579L327.609 78.7299L327.159 79.5093L327.506 79.7721C327.9 80.0618 327.882 80.2381 327.558 80.7993L324.921 85.3667C324.082 85.776 322.99 85.8314 321.867 85.1834C320.792 84.5624 320.3 83.6136 320.975 82.4445L324.242 76.7859L322.122 75.5619L321.663 76.3569L322.026 76.6286C322.404 76.9094 322.388 77.0455 322.064 77.6067L319.625 81.8312C318.608 83.5927 319.476 85.2576 321.113 86.2026ZM333.796 97.017L334.246 96.2376L333.895 95.6198C333.79 93.7506 334.369 91.6322 335.845 89.0756C337.321 86.5191 338.866 84.9587 340.537 84.1155L341.248 84.1097L341.698 83.3303L340.45 82.6103C337.645 83.7968 335.625 86.2883 334.473 88.2836C333.321 90.279 332.173 93.2745 332.548 96.297L333.796 97.017ZM341.129 97.759C343.093 98.893 344.593 98.4911 345.727 96.5269L347.995 92.5987C348.319 92.0375 348.462 91.9332 348.91 92.1294L349.311 92.2986L349.761 91.5192L346.768 89.7912L346.318 90.5706L346.665 90.8334C347.059 91.1232 347.04 91.2995 346.716 91.8607L344.448 95.7889C343.737 97.0204 342.865 97.3068 341.759 96.6678C340.652 96.0288 340.464 95.1304 341.175 93.8989L342.678 91.2957C343.452 89.9551 344.252 89.7934 344.936 90.0845L345.521 89.0712L342.512 87.3342L341.927 88.3475L343.502 89.2565C342.62 89.3084 341.985 89.5444 341.337 90.6668L339.897 93.1609C338.763 95.1251 339.165 96.625 341.129 97.759ZM351.192 90.5997L351.855 90.1717L352.116 89.7197L348.094 87.3977C347.829 87.2447 347.786 87.0324 347.939 86.7674L348.245 86.2374L347.465 85.7874L346.876 85.6552L346.615 86.1073C346.174 86.8711 346.251 87.7467 347.093 88.2327L351.192 90.5997ZM354.616 104.216C354.222 103.926 354.241 103.75 354.565 103.189L356.689 99.5097C357.751 97.6702 357.166 95.5868 354.968 94.3178C352.77 93.0488 350.674 93.5842 349.612 95.4237L347.38 99.2896C347.155 99.6793 347.005 99.759 346.76 99.6798L346.499 99.5916L346.04 100.387L347.302 101.116C349.36 102.304 351.635 101.892 352.805 99.8652C353.057 99.4287 353.223 98.8177 353.099 98.4555L351.805 97.7085L351.121 98.8932C351.44 99.0978 351.459 99.3167 351.306 99.5817C350.703 100.626 349.549 100.896 348.424 100.433L350.89 96.1617C351.646 94.8522 352.935 94.599 354.338 95.409C355.741 96.219 356.167 97.4622 355.411 98.7717L353.287 102.451C352.963 103.012 352.819 103.116 352.371 102.92L351.97 102.751L351.511 103.546L354.504 105.274L354.963 104.479L354.616 104.216ZM356.335 110.03C359.14 108.844 361.161 106.352 362.313 104.357C363.465 102.362 364.612 99.3662 364.237 96.3438L362.99 95.6238L362.54 96.4032L362.89 97.0209C362.996 98.8901 362.417 101.009 360.941 103.565C359.465 106.122 357.92 107.682 356.248 108.525L355.538 108.531L355.088 109.31L356.335 110.03Z" fill="#FF8058"/>
<path id="&#224;&#184;&#156;&#224;&#185;&#136;&#224;&#184;&#178;&#224;&#184;&#153;(&#224;&#185;&#132;&#224;&#184;&#161;&#224;&#185;&#136;&#224;&#184;&#130;&#224;&#184;&#177;&#224;&#184;&#148;)" d="M151.508 99.9854L151.645 95.5419L155.561 97.6454L157.229 96.6824L153.368 89.995C153.044 89.4338 153.026 89.2575 153.42 88.9677L153.767 88.705L153.317 87.9255L150.324 89.6535L150.774 90.433L151.175 90.2637C151.623 90.0675 151.766 90.1718 152.09 90.733L155.006 95.7836L154.881 95.8556L151.372 93.9534L150.406 94.5114L150.298 98.5016L150.174 98.5736L147.159 93.3515C146.952 92.993 147.027 92.7627 147.307 92.6007L147.868 92.2767L147.67 91.9337L147.19 91.4625L146.52 91.8495C145.756 92.2905 145.286 93.0607 145.835 94.0116L149.84 100.948L151.508 99.9854ZM151.709 87.17L150.449 84.9877L149.202 85.7077L150.462 87.89L151.709 87.17ZM165.33 92.0056L164.88 91.2262L164.479 91.3954C164.031 91.5916 163.887 91.4873 163.563 90.9262L161.115 86.6861C160.143 85.0025 158.811 84.5664 156.691 85.7904C155.428 86.5194 154.73 87.65 154.43 88.4261C154.679 88.8224 154.953 89.2253 155.219 89.6126L156.232 89.0276C156.066 88.4166 156.134 87.5254 157.287 86.8594C158.254 86.3014 159.225 86.3641 159.837 87.4241L162.285 91.6642C162.609 92.2253 162.628 92.4016 162.234 92.6914L161.887 92.9542L162.337 93.7336L165.33 92.0056ZM170.076 89.4729C171.511 88.6449 171.91 87.6452 172.003 86.9057C172.266 87.2529 172.555 87.5016 172.808 87.6881L174.523 86.6981L174.019 85.8251C173.312 86.1497 173.156 86.0946 172.796 85.4711L169.898 80.4516C169.574 79.8904 169.555 79.7141 169.949 79.4244L170.296 79.1616L169.846 78.3822L166.853 80.1102L167.303 80.8896L167.704 80.7204C168.152 80.5241 168.296 80.6284 168.62 81.1896L171.257 85.757C171.192 86.6883 170.694 87.6617 169.571 88.3097C168.496 88.9307 167.428 88.8819 166.753 87.7128L163.486 82.0542L161.366 83.2782L161.825 84.0732L162.242 83.895C162.674 83.7077 162.784 83.7898 163.108 84.351L165.547 88.5755C166.564 90.337 168.44 90.4179 170.076 89.4729ZM181.886 86.1463L181.436 85.3669L180.726 85.3611C179.055 84.5179 177.51 82.9575 176.034 80.401C174.558 77.8445 173.979 75.726 174.084 73.8568L174.434 73.2391L173.984 72.4597L172.737 73.1797C172.362 76.2021 173.51 79.1977 174.662 81.193C175.814 83.1883 177.834 85.6799 180.639 86.8663L181.886 86.1463ZM178.658 66.6435L174.06 69.2985L174.267 69.6571L174.801 70.2218L177.731 68.5298C177.063 69.4972 176.934 70.4244 177.888 72.0767L182.633 80.332C183.119 81.1738 184.024 81.3372 184.85 80.8602C185.146 80.6892 185.322 80.5255 185.482 80.3707L185.312 79.6793L185.15 79.3988L184.588 79.7228C184.308 79.8848 184.071 79.8345 183.864 79.4759L179.269 71.4455C178.07 69.332 178.392 68.5224 179.27 67.7035L178.658 66.6435ZM191.542 77.0801C193.116 76.1711 194.035 74.4144 193.009 72.6373L190.615 68.4907C190.291 67.9296 190.272 67.7533 190.666 67.4635L191.013 67.2007L190.563 66.4213L187.57 68.1493L188.02 68.9287L188.421 68.7595C188.869 68.5633 189.012 68.6676 189.336 69.2287L191.694 73.3129C192.396 74.5288 191.862 75.4399 190.818 76.0429C189.228 76.9609 187.785 76.2975 187.785 76.2975L184.203 70.0933L182.083 71.3173L182.542 72.1123L182.959 71.9341C183.391 71.7469 183.501 71.829 183.825 72.3902L186.732 77.4252C187.083 78.0332 187.077 78.2029 186.767 78.4231L186.427 78.6612L186.931 79.5342L188.724 78.4992C188.649 78.1892 188.495 77.7791 188.346 77.4493C188.346 77.4493 189.764 78.1061 191.542 77.0801ZM188.96 65.6632L187.7 63.4808L186.453 64.2008L187.713 66.3832L188.96 65.6632ZM199.912 72.2476C201.876 71.1136 202.278 69.6137 201.144 67.6496L198.876 63.7213C198.552 63.1601 198.533 62.9838 198.927 62.6941L199.274 62.4313L198.824 61.6519L195.831 63.3799L196.281 64.1593L196.682 63.9901C197.13 63.7938 197.273 63.8981 197.597 64.4593L199.865 68.3876C200.576 69.6191 200.388 70.5175 199.282 71.1565C198.175 71.7955 197.303 71.5091 196.592 70.2776L195.089 67.6743C194.315 66.3337 194.575 65.5601 195.169 65.1131L194.584 64.0999L191.575 65.8369L192.16 66.8501L193.735 65.9411C193.339 66.731 193.226 67.3991 193.874 68.5214L195.314 71.0156C196.448 72.9797 197.947 73.3816 199.912 72.2476ZM198.743 59.9526L198.704 59.1646L198.443 58.7125L194.421 61.0345C194.156 61.1875 193.951 61.1193 193.798 60.8542L193.492 60.3242L192.712 60.7742L192.303 61.2181L192.564 61.6702C193.005 62.434 193.802 62.8056 194.644 62.3196L198.743 59.9526ZM212.247 63.7955C211.799 63.9918 211.656 63.8875 211.332 63.3263L209.208 59.6474C208.146 57.808 206.049 57.2725 203.851 58.5415C201.653 59.8105 201.069 61.894 202.131 63.7334L204.363 67.5993C204.588 67.989 204.582 68.1588 204.391 68.3315L204.184 68.5133L204.643 69.3083L205.905 68.5793C207.963 67.3913 208.744 65.2155 207.574 63.189C207.322 62.7525 206.875 62.3035 206.5 62.2292L205.206 62.9762L205.89 64.161C206.226 63.9875 206.426 64.0804 206.579 64.3454C207.182 65.3899 206.838 66.5233 205.875 67.2666L203.409 62.9954C202.653 61.686 203.078 60.4427 204.481 59.6327C205.884 58.8227 207.174 59.076 207.93 60.3854L210.054 64.0643C210.378 64.6255 210.396 64.8018 210.002 65.0915L209.655 65.3543L210.114 66.1493L213.107 64.4213L212.648 63.6263L212.247 63.7955ZM218.142 65.2139C218.517 62.1915 217.37 59.1959 216.218 57.2006C215.066 55.2053 213.045 52.7137 210.24 51.5273L208.993 52.2473L209.443 53.0267L210.153 53.0325C211.825 53.8757 213.37 55.4361 214.846 57.9926C216.322 60.5491 216.901 62.6675 216.795 64.5367L216.445 65.1545L216.895 65.9339L218.142 65.2139Z" fill="white"/>
<g id="Component 64">
<g id="Frame 756">
<rect x="235" y="23" width="30" height="30" rx="15" fill="white"/>
<path id="1" d="M240.899 44.5H249.647V42.322H246.983V31.936H242.843L239.837 35.896L241.565 37.246L244.121 33.898H244.283V42.322H240.899V44.5ZM252.988 44.5H255.832L259.882 34.276V31.936H250.99V36.418H253.276V34.132H257.2L252.988 44.5Z" fill="black"/>
</g>
</g>
</g>
</svg>
