<svg width="713" height="198" viewBox="0 0 713 198" fill="none" xmlns="http://www.w3.org/2000/svg">
<g id="02">
<g id="Component 6">
<path id="Union" d="M448.022 136.726L448.551 137.575C449.009 137.29 449.158 136.693 448.888 136.226L448.022 136.726ZM475.512 184.339L476.378 183.839C476.108 183.371 475.516 183.202 475.041 183.456L475.512 184.339ZM475.519 184.352L474.653 184.852C474.786 185.082 475.004 185.249 475.26 185.318C475.517 185.387 475.79 185.351 476.019 185.218L475.519 184.352ZM689.897 60.5811L690.397 61.4471C690.875 61.171 691.039 60.5594 690.763 60.0811L689.897 60.5811ZM689.873 60.5403L689.324 59.7048C688.881 59.9958 688.742 60.5816 689.007 61.0403L689.873 60.5403ZM662.416 12.9823L661.55 13.4823C661.814 13.9411 662.391 14.1137 662.865 13.8759L662.416 12.9823ZM662.392 12.9416L663.258 12.4416C662.982 11.9633 662.37 11.7995 661.892 12.0756L662.392 12.9416ZM660.988 13.7523L661.488 14.6183L660.988 13.7523ZM448.82 136.248L449.32 137.114L448.82 136.248ZM448.015 136.713L447.515 135.847C447.036 136.123 446.872 136.734 447.149 137.213L448.015 136.713ZM447.494 135.877C434.5 143.966 430.176 160.965 437.886 174.32L439.618 173.32C432.449 160.903 436.47 145.095 448.551 137.575L447.494 135.877ZM437.886 174.32C445.597 187.674 462.481 192.429 475.983 185.221L475.041 183.456C462.487 190.159 446.787 185.737 439.618 173.32L437.886 174.32ZM474.646 184.839L474.653 184.852L476.385 183.852L476.378 183.839L474.646 184.839ZM476.019 185.218L690.397 61.4471L689.397 59.7151L475.019 183.486L476.019 185.218ZM690.763 60.0811L690.739 60.0403L689.007 61.0403L689.031 61.0811L690.763 60.0811ZM697.694 24.3197C704.751 36.5421 700.966 52.0495 689.324 59.7048L690.423 61.3759C702.945 53.142 707.015 36.4651 699.426 23.3197L697.694 24.3197ZM662.865 13.8759C675.315 7.62122 690.637 12.0973 697.694 24.3197L699.426 23.3197C691.837 10.1744 675.359 5.36125 661.967 12.0887L662.865 13.8759ZM663.282 12.4823L663.258 12.4416L661.526 13.4416L661.55 13.4823L663.282 12.4823ZM661.892 12.0756L660.488 12.8863L661.488 14.6183L662.892 13.8077L661.892 12.0756ZM660.488 12.8863L448.32 135.382L449.32 137.114L661.488 14.6183L660.488 12.8863ZM448.32 135.382L447.515 135.847L448.515 137.579L449.32 137.114L448.32 135.382ZM447.149 137.213L447.156 137.226L448.888 136.226L448.881 136.213L447.149 137.213Z" fill="white"/>
</g>
<g id="Component 7">
<path id="Union_2" d="M263.512 13.3008L263.041 14.183C263.517 14.437 264.108 14.2679 264.378 13.8008L263.512 13.3008ZM236.023 60.9135L236.889 61.4135C237.158 60.9464 237.009 60.3496 236.551 60.0646L236.023 60.9135ZM236.015 60.9269L235.149 60.4269C234.873 60.9052 235.036 61.5168 235.515 61.7929L236.015 60.9269ZM450.392 184.698L449.892 185.564C450.371 185.84 450.982 185.676 451.258 185.198L450.392 184.698ZM450.416 184.657L450.865 183.764C450.391 183.526 449.815 183.698 449.55 184.157L450.416 184.657ZM477.873 137.099L477.007 136.599C476.743 137.058 476.881 137.644 477.324 137.935L477.873 137.099ZM477.897 137.058L478.763 137.558C479.039 137.08 478.875 136.469 478.397 136.192L477.897 137.058ZM263.519 13.2875L264.019 12.4214C263.541 12.1453 262.93 12.3092 262.653 12.7875L263.519 13.2875ZM263.983 12.4187C250.481 5.21006 233.597 9.96522 225.887 23.3197L227.619 24.3197C234.788 11.9026 250.487 7.48071 263.041 14.183L263.983 12.4187ZM225.887 23.3197C218.176 36.6742 222.5 53.6738 235.494 61.7625L236.551 60.0646C224.47 52.5441 220.45 36.7368 227.619 24.3197L225.887 23.3197ZM235.157 60.4135L235.149 60.4269L236.881 61.4269L236.889 61.4135L235.157 60.4135ZM235.515 61.7929L449.892 185.564L450.892 183.832L236.515 60.0609L235.515 61.7929ZM451.258 185.198L451.282 185.157L449.55 184.157L449.526 184.198L451.258 185.198ZM485.694 173.32C478.638 185.542 463.315 190.018 450.865 183.764L449.967 185.551C463.359 192.278 479.837 187.465 487.426 174.32L485.694 173.32ZM477.324 137.935C488.966 145.59 492.751 161.097 485.694 173.32L487.426 174.32C495.016 161.174 490.945 144.497 478.423 136.264L477.324 137.935ZM478.739 137.599L478.763 137.558L477.031 136.558L477.007 136.599L478.739 137.599ZM478.397 136.192L476.993 135.382L475.993 137.114L477.397 137.924L478.397 136.192ZM476.993 135.382L264.825 12.8863L263.825 14.6183L475.993 137.114L476.993 135.382ZM264.825 12.8863L264.019 12.4214L263.019 14.1535L263.825 14.6183L264.825 12.8863ZM262.653 12.7875L262.646 12.8008L264.378 13.8008L264.385 13.7875L262.653 12.7875Z" fill="white"/>
</g>
<g id="Component 4">
<path id="Union_3" d="M232.042 16.5126L232.603 17.3401C232.631 17.3211 232.658 17.3007 232.684 17.2789L232.042 16.5126ZM236.669 13.372L237.145 14.2516C237.174 14.2357 237.203 14.2182 237.231 14.1994L236.669 13.372ZM236.793 13.2876L237.659 12.7876C237.52 12.547 237.288 12.3751 237.017 12.313C236.746 12.2508 236.462 12.3042 236.232 12.4602L236.793 13.2876ZM236.801 13.3011L235.935 13.8011C236.205 14.2682 236.796 14.4372 237.272 14.1832L236.801 13.3011ZM264.29 60.9138L263.762 60.0648C263.304 60.3498 263.155 60.9466 263.424 61.4138L264.29 60.9138ZM264.298 60.9271L264.732 61.828C264.983 61.7072 265.172 61.4876 265.254 61.2217C265.336 60.9559 265.303 60.668 265.164 60.4271L264.298 60.9271ZM264.166 60.9908L263.732 60.09C263.701 60.1048 263.671 60.1212 263.642 60.1391L264.166 60.9908ZM259.028 63.4663L258.69 62.5254C258.657 62.5371 258.625 62.5504 258.594 62.5654L259.028 63.4663ZM24.1084 176.663L23.2424 177.163C23.5041 177.616 24.071 177.791 24.5425 177.564L24.1084 176.663ZM24.1047 176.657L24.9707 176.157C24.703 175.693 24.1174 175.522 23.6425 175.77L24.1047 176.657ZM16.2195 162.999L16.7564 163.843C17.2082 163.555 17.3533 162.963 17.0856 162.499L16.2195 162.999ZM16.2167 162.994L15.6551 162.167C15.2215 162.461 15.0886 163.04 15.3507 163.494L16.2167 162.994ZM235.488 12.8865C234.02 13.734 232.656 14.6928 231.399 15.7463L232.684 17.2789C233.852 16.2997 235.121 15.4077 236.488 14.6186L235.488 12.8865ZM236.193 12.4924C235.957 12.6201 235.722 12.7515 235.488 12.8865L236.488 14.6186C236.706 14.4928 236.925 14.3705 237.145 14.2516L236.193 12.4924ZM236.232 12.4602L236.107 12.5446L237.231 14.1994L237.355 14.1151L236.232 12.4602ZM237.667 12.8011L237.659 12.7876L235.927 13.7876L235.935 13.8011L237.667 12.8011ZM274.426 23.3199C266.716 9.96548 249.832 5.21032 236.33 12.4189L237.272 14.1832C249.825 7.48097 265.525 11.9028 272.694 24.3199L274.426 23.3199ZM264.819 61.7627C277.813 53.6741 282.136 36.6744 274.426 23.3199L272.694 24.3199C279.863 36.7371 275.843 52.5443 263.762 60.0648L264.819 61.7627ZM265.164 60.4271L265.156 60.4138L263.424 61.4138L263.432 61.4271L265.164 60.4271ZM264.6 61.8917L264.732 61.828L263.864 60.0262L263.732 60.09L264.6 61.8917ZM263.993 62.258C264.228 62.1223 264.46 61.9838 264.69 61.8425L263.642 60.1391C263.428 60.2707 263.212 60.3996 262.993 60.5259L263.993 62.258ZM259.367 64.4072C260.944 63.8395 262.492 63.1246 263.993 62.258L262.993 60.5259C261.595 61.3329 260.155 61.9978 258.69 62.5254L259.367 64.4072ZM24.5425 177.564L259.463 64.3671L258.594 62.5654L23.6743 175.762L24.5425 177.564ZM23.2387 177.157L23.2424 177.163L24.9744 176.163L24.9707 176.157L23.2387 177.157ZM12.7604 174.101C15.1509 178.242 20.3676 179.733 24.567 177.544L23.6425 175.77C20.3888 177.466 16.345 176.31 14.4924 173.101L12.7604 174.101ZM15.6827 162.156C11.6873 164.698 10.3699 169.961 12.7604 174.101L14.4924 173.101C12.6398 169.893 13.6607 165.813 16.7564 163.843L15.6827 162.156ZM15.3507 163.494L15.3535 163.499L17.0856 162.499L17.0827 162.494L15.3507 163.494ZM231.48 15.6852L15.6551 162.167L16.7783 163.822L232.603 17.3401L231.48 15.6852Z" fill="white"/>
</g>
<path id="&#224;&#185;&#132;&#224;&#184;&#161;&#224;&#185;&#136;&#224;&#185;&#128;&#224;&#184;&#155;&#224;&#185;&#135;&#224;&#184;&#153;&#224;&#185;&#132;&#224;&#184;&#155;&#224;&#184;&#149;&#224;&#184;&#178;&#224;&#184;&#161;" d="M297.952 54.9562L293.354 52.3012L293.147 52.6598L292.925 53.4045L295.855 55.0965C294.684 55.002 293.816 55.3531 292.862 57.0055L288.085 65.2428C287.599 66.0845 287.91 66.95 288.736 67.427C289.033 67.598 289.262 67.6682 289.476 67.7294L289.99 67.2361L290.152 66.9555L289.591 66.6315C289.31 66.4695 289.235 66.2392 289.442 65.8806L294.099 57.8862C295.33 55.7907 296.192 55.6651 297.34 56.0163L297.952 54.9562ZM295.356 71.3318C296.93 72.2408 298.911 72.1581 299.937 70.381L302.331 66.2345C302.655 65.6733 302.798 65.569 303.246 65.7652L303.647 65.9345L304.097 65.1551L301.104 63.4271L300.654 64.2065L301.001 64.4692C301.395 64.759 301.377 64.9353 301.053 65.4965L298.695 69.5807C297.993 70.7966 296.937 70.7896 295.892 70.1866C294.302 69.2686 294.155 67.6873 294.155 67.6873L297.737 61.4831L295.617 60.2591L295.158 61.0541L295.521 61.3258C295.899 61.6066 295.883 61.7427 295.559 62.3039L292.652 67.339C292.301 67.9469 292.151 68.0266 291.806 67.8688L291.429 67.693L290.925 68.5659L292.718 69.6009C292.949 69.3809 293.227 69.0428 293.438 68.749C293.438 68.749 293.579 70.3058 295.356 71.3318ZM303.952 63.3878L305.212 61.2054L303.965 60.4854L302.705 62.6678L303.952 63.3878ZM302.452 75.3459C302.78 75.5349 303.134 75.6771 303.348 75.7384L303.846 75.236L304.008 74.9554L303.4 74.6044C303.119 74.4424 303.064 74.2859 303.253 73.9585L306.367 68.5649C306.709 67.9726 306.813 67.8659 307.127 68.0057L307.528 68.1749L307.978 67.3955L305.297 65.8475L304.847 66.6269L305.194 66.8897C305.456 67.0829 305.431 67.2346 305.089 67.8269L301.858 73.4232C301.399 74.2182 301.564 74.8329 302.452 75.3459ZM308.793 79.0896C310.913 80.3136 312.874 80.012 313.936 78.1726L319.093 69.2404L318.719 69.0244L317.644 68.7986L312.658 77.4346C311.992 78.5881 310.748 78.7634 309.423 77.9984C308.098 77.2334 307.627 76.0681 308.293 74.9146L311.47 69.4118L309.35 68.1878L308.891 68.9829L309.254 69.2546C309.632 69.5354 309.616 69.6715 309.292 70.2327L307.015 74.1766C305.953 76.016 306.673 77.8656 308.793 79.0896ZM312.587 68.5808L313.991 68.5602L314.582 69.7328L315.627 70.3358L316.37 69.7675L316.523 69.5025L315.432 68.8725L314.743 67.7263L314.4 67.5283L313.172 67.5675L312.813 67.3605C312.611 67.2435 312.465 66.8477 312.69 66.458L312.753 66.3489C313.005 65.9124 313.378 65.8783 314.126 66.3103L317.072 68.0113L317.816 67.4431L317.969 67.1781L314.664 65.2701C313.293 64.4781 312.117 64.714 311.568 65.6649L311.433 65.8987C310.992 66.6625 311.231 67.7978 312.041 68.2658L312.587 68.5808ZM317.688 84.2251C319.122 85.0531 320.187 84.8993 320.874 84.6099C320.705 85.011 320.634 85.3858 320.599 85.6982L322.314 86.6882L322.818 85.8153C322.183 85.3659 322.153 85.2028 322.513 84.5792L325.411 79.5598C325.735 78.9986 325.878 78.8943 326.326 79.0905L326.727 79.2598L327.177 78.4803L324.184 76.7523L323.734 77.5318L324.081 77.7945C324.475 78.0843 324.457 78.2606 324.133 78.8218L321.496 83.3892C320.657 83.7985 319.565 83.8539 318.442 83.2059C317.367 82.5849 316.875 81.6361 317.55 80.4669L320.817 74.8083L318.697 73.5843L318.238 74.3793L318.601 74.6511C318.979 74.9319 318.963 75.068 318.639 75.6292L316.2 79.8536C315.183 81.6151 316.051 83.2801 317.688 84.2251ZM334.884 76.2785L330.285 73.6235L330.078 73.982L329.856 74.7268L332.787 76.4188C331.615 76.3242 330.747 76.6754 329.793 78.3277L325.016 86.565C324.53 87.4068 324.841 88.2722 325.668 88.7492C325.964 88.9202 326.193 88.9905 326.407 89.0517L326.921 88.5583L327.083 88.2777L326.522 87.9537C326.241 87.7917 326.166 87.5614 326.373 87.2029L331.03 79.2084C332.261 77.113 333.123 76.9874 334.272 77.3385L334.884 76.2785ZM332.069 92.5281C334.189 93.7521 336.15 93.4505 337.212 91.611L342.369 82.6789L341.995 82.4629L340.92 82.237L335.934 90.873C335.268 92.0266 334.024 92.2019 332.699 91.4369C331.374 90.6719 330.903 89.5066 331.569 88.353L334.746 82.8503L332.626 81.6263L332.167 82.4213L332.53 82.6931C332.908 82.9739 332.892 83.11 332.568 83.6712L330.291 87.615C329.229 89.4545 329.949 91.3041 332.069 92.5281ZM346.247 99.3839C345.854 99.0941 345.872 98.9179 346.196 98.3567L348.41 94.5219C349.31 92.9631 349.171 91.5112 347.846 90.351L347.534 90.171L345.946 90.4386L345.298 88.8595L344.987 88.6795C343.433 88.2394 342.041 88.8494 341.177 90.3459L338.855 94.3677C338.63 94.7574 338.48 94.8371 338.235 94.7579L337.974 94.6697L337.515 95.4647L338.778 96.1937C340.82 97.3727 343.174 97.1108 344.434 94.9284C344.686 94.4919 344.852 93.8809 344.729 93.5187L343.435 92.7717L342.751 93.9564C343.069 94.161 343.088 94.3799 342.935 94.6449C342.251 95.8296 341.031 95.9983 339.89 95.5266L342.455 91.0839C343.004 90.133 343.612 89.5485 344.595 89.9704L345.249 91.429L345.467 91.555L347.011 91.3654C347.948 92.0104 347.708 92.7862 347.132 93.7839L344.918 97.6187C344.594 98.1799 344.451 98.2841 344.003 98.0879L343.602 97.9187L343.143 98.7137L346.136 100.442L346.595 99.6467L346.247 99.3839ZM353.462 104.672L353.912 103.892L353.565 103.63C353.171 103.34 353.19 103.163 353.514 102.602L355.962 98.3622C356.934 96.6786 356.645 95.3065 354.525 94.0825C353.262 93.3535 351.934 93.3141 351.112 93.4422C350.894 93.8565 350.682 94.2954 350.479 94.7187L351.492 95.3037C351.938 94.8547 352.744 94.4675 353.898 95.1335C354.864 95.6915 355.295 96.5642 354.683 97.6242L352.235 101.864C351.911 102.425 351.768 102.53 351.32 102.334L350.919 102.164L350.469 102.944L353.462 104.672ZM358.699 107.903C360.274 108.812 362.254 108.729 363.28 106.952L365.674 102.806C365.998 102.245 366.142 102.14 366.589 102.337L366.991 102.506L367.441 101.726L364.448 99.9983L363.998 100.778L364.345 101.041C364.739 101.33 364.72 101.507 364.396 102.068L362.038 106.152C361.336 107.368 360.28 107.361 359.236 106.758C357.646 105.84 357.499 104.259 357.499 104.259L361.081 98.0543L358.96 96.8303L358.501 97.6254L358.864 97.8971C359.242 98.1779 359.226 98.314 358.902 98.8752L355.995 103.91C355.644 104.518 355.494 104.598 355.149 104.44L354.772 104.264L354.268 105.137L356.061 106.172C356.292 105.952 356.57 105.614 356.782 105.32C356.782 105.32 356.922 106.877 358.699 107.903Z" fill="#FF8058"/>
<path id="&#224;&#185;&#128;&#224;&#184;&#155;&#224;&#185;&#135;&#224;&#184;&#153;&#224;&#185;&#132;&#224;&#184;&#155;&#224;&#184;&#149;&#224;&#184;&#178;&#224;&#184;&#161;" d="M157.848 97.7763C158.175 97.5873 158.475 97.3515 158.635 97.1967L158.449 96.5144L158.287 96.2338L157.679 96.5848C157.399 96.7468 157.236 96.7162 157.047 96.3889L153.933 90.9953C153.591 90.4029 153.55 90.2602 153.828 90.058L154.175 89.7953L153.725 89.0158L151.044 90.5638L151.494 91.3433L151.895 91.174C152.194 91.0432 152.312 91.1409 152.654 91.7333L155.885 97.3295C156.344 98.1245 156.959 98.2893 157.848 97.7763ZM164.26 94.1573C166.38 92.9333 167.1 91.0836 166.038 89.2442L160.881 80.312L160.506 80.528L159.773 81.3462L164.759 89.9822C165.425 91.1358 164.955 92.3011 163.63 93.0661C162.305 93.8311 161.061 93.6558 160.395 92.5022L157.218 86.9995L155.098 88.2235L155.557 89.0185L155.973 88.8403C156.406 88.653 156.515 88.7351 156.839 89.2963L159.116 93.2402C160.178 95.0797 162.14 95.3813 164.26 94.1573ZM157.056 85.617L157.741 84.3905L159.051 84.465L160.096 83.862L159.976 82.9338L159.823 82.6688L158.731 83.2988L157.394 83.3226L157.051 83.5206L156.471 84.6038L156.113 84.8108C155.91 84.9278 155.494 84.8559 155.269 84.4662L155.206 84.3571C154.954 83.9206 155.111 83.5806 155.86 83.1486L158.806 81.4476L158.686 80.5193L158.533 80.2543L155.228 82.1623C153.856 82.9543 153.473 84.0902 154.022 85.0411L154.157 85.2749C154.598 86.0388 155.7 86.4 156.51 85.932L157.056 85.617ZM173.155 89.0218C174.589 88.1938 174.989 87.194 175.081 86.4546C175.344 86.8017 175.633 87.0505 175.886 87.2369L177.601 86.2469L177.097 85.3739C176.391 85.6986 176.234 85.6435 175.874 85.0199L172.976 80.0004C172.652 79.4393 172.634 79.263 173.028 78.9732L173.375 78.7104L172.925 77.931L169.932 79.659L170.382 80.4384L170.783 80.2692C171.231 80.073 171.374 80.1773 171.698 80.7384L174.335 85.3059C174.27 86.2372 173.772 87.2106 172.65 87.8586C171.574 88.4796 170.507 88.4307 169.832 87.2616L166.565 81.603L164.445 82.827L164.904 83.622L165.32 83.4438C165.753 83.2565 165.862 83.3387 166.186 83.8998L168.625 88.1243C169.642 89.8858 171.518 89.9668 173.155 89.0218ZM174.871 70.1562L170.272 72.8112L170.479 73.1697L171.013 73.7345L173.944 72.0425C173.276 73.0099 173.146 73.9371 174.1 75.5894L178.846 83.8447C179.332 84.6865 180.237 84.8499 181.063 84.3729C181.359 84.2019 181.535 84.0382 181.695 83.8834L181.524 83.192L181.362 82.9114L180.801 83.2354C180.52 83.3974 180.284 83.3472 180.077 82.9886L175.482 74.9581C174.282 72.8447 174.605 72.0351 175.483 71.2162L174.871 70.1562ZM187.536 80.7188C189.656 79.4948 190.376 77.6452 189.314 75.8057L184.157 66.8735L183.783 67.0895L183.049 67.9077L188.035 76.5437C188.701 77.6973 188.231 78.8626 186.906 79.6276C185.581 80.3926 184.337 80.2173 183.671 79.0637L180.494 73.561L178.374 74.785L178.833 75.58L179.249 75.4018C179.682 75.2146 179.791 75.2967 180.115 75.8579L182.392 79.8017C183.454 81.6412 185.416 81.9428 187.536 80.7188ZM200.563 71.8676C200.115 72.0639 199.971 71.9596 199.647 71.3984L197.433 67.5636C196.533 66.0048 195.207 65.3989 193.539 65.9668L193.228 66.1468L192.665 67.6563L190.974 67.4272L190.662 67.6072C189.504 68.7331 189.336 70.2431 190.2 71.7396L192.522 75.7614C192.747 76.1512 192.741 76.3209 192.55 76.4936L192.343 76.6754L192.802 77.4704L194.065 76.7414C196.107 75.5624 197.058 73.3925 195.798 71.2101C195.546 70.7736 195.099 70.3246 194.724 70.2504L193.43 70.9974L194.114 72.1821C194.45 72.0087 194.649 72.1016 194.802 72.3666C195.486 73.5513 195.023 74.692 194.044 75.4443L191.479 71.0016C190.93 70.0507 190.727 69.2322 191.584 68.5921L193.174 68.7547L193.393 68.6287L194 67.1971C195.027 66.7081 195.579 67.304 196.155 68.3016L198.369 72.1364C198.693 72.6976 198.712 72.8739 198.318 73.1636L197.971 73.4264L198.43 74.2214L201.423 72.4934L200.964 71.6984L200.563 71.8676ZM208.749 68.2634L208.299 67.484L207.898 67.6532C207.45 67.8495 207.307 67.7452 206.983 67.184L204.535 62.9439C203.563 61.2604 202.23 60.8242 200.11 62.0482C198.848 62.7772 198.149 63.9078 197.849 64.6839C198.099 65.0802 198.373 65.4831 198.638 65.8704L199.651 65.2854C199.486 64.6744 199.553 63.7832 200.707 63.1172C201.673 62.5592 202.645 62.6219 203.257 63.6819L205.705 67.922C206.029 68.4832 206.047 68.6595 205.654 68.9492L205.306 69.212L205.756 69.9914L208.749 68.2634ZM214.166 65.3438C215.741 64.4348 216.66 62.678 215.634 60.901L213.24 56.7544C212.916 56.1932 212.897 56.0169 213.291 55.7272L213.638 55.4644L213.188 54.685L210.195 56.413L210.645 57.1924L211.046 57.0232C211.494 56.8269 211.637 56.9312 211.961 57.4924L214.319 61.5766C215.021 62.7925 214.487 63.7036 213.443 64.3066C211.853 65.2246 210.41 64.5612 210.41 64.5612L206.828 58.357L204.708 59.581L205.167 60.376L205.584 60.1978C206.016 60.0105 206.126 60.0926 206.45 60.6538L209.357 65.6889C209.708 66.2969 209.702 66.4666 209.392 66.6867L209.052 66.9249L209.556 67.7979L211.348 66.7629C211.273 66.4529 211.12 66.0427 210.971 65.713C210.971 65.713 212.389 66.3698 214.166 65.3438Z" fill="white"/>
<g id="Component 64">
<g id="Frame 756">
<rect x="235" y="23" width="30" height="30" rx="15" fill="white"/>
<path id="1" d="M245.63 44.5H254.522V42.232H248.582L250.922 40.396C252.722 38.974 254.27 37.66 254.27 35.5C254.27 33.322 252.704 31.72 249.986 31.72C247.376 31.72 245.918 33.178 245.36 34.924L247.718 35.824C247.97 34.87 248.546 34.06 249.734 34.06C250.544 34.06 251.39 34.546 251.39 35.5V35.752C251.39 36.814 250.904 37.516 249.5 38.722L245.63 42.034V44.5Z" fill="black"/>
</g>
</g>
</g>
</svg>
