<svg width="501" height="198" viewBox="0 0 501 198" fill="none" xmlns="http://www.w3.org/2000/svg">
<g id="18">
<g id="Component 56">
<path id="Union" d="M241.183 63.4295L241.619 62.5294C241.589 62.5147 241.557 62.5015 241.526 62.4899L241.183 63.4295ZM236.15 60.9924L236.674 60.1406C236.645 60.123 236.616 60.1069 236.585 60.0923L236.15 60.9924ZM236.015 60.9269L235.148 60.4269C235.01 60.6675 234.977 60.9551 235.059 61.2207C235.14 61.4862 235.329 61.7059 235.579 61.827L236.015 60.9269ZM236.022 60.9135L236.888 61.4135C237.158 60.9464 237.009 60.3496 236.551 60.0645L236.022 60.9135ZM263.511 13.3008L263.04 14.183C263.516 14.437 264.108 14.2679 264.377 13.8008L263.511 13.3008ZM263.519 13.2875L264.082 12.4611C263.852 12.3044 263.568 12.2506 263.297 12.3126C263.025 12.3745 262.792 12.5466 262.653 12.7875L263.519 13.2875ZM263.641 13.3701L263.077 14.1965C263.106 14.2158 263.135 14.2335 263.165 14.2498L263.641 13.3701ZM268.353 16.5815L267.707 17.3453C267.734 17.3675 267.761 17.3884 267.79 17.4078L268.353 16.5815ZM483.844 163.43L484.71 163.93C484.972 163.477 484.84 162.898 484.407 162.603L483.844 163.43ZM483.841 163.436L482.975 162.936C482.707 163.4 482.852 163.992 483.304 164.28L483.841 163.436ZM475.955 177.094L476.418 176.207C475.943 175.959 475.357 176.13 475.089 176.594L475.955 177.094ZM475.953 177.099L475.517 177.999C475.989 178.227 476.557 178.053 476.819 177.599L475.953 177.099ZM236.32 62.2577C237.788 63.1052 239.3 63.8076 240.841 64.369L241.526 62.4899C240.094 61.9681 238.687 61.3148 237.32 60.5257L236.32 62.2577ZM235.626 61.8441C235.854 61.9848 236.086 62.1227 236.32 62.2577L237.32 60.5257C237.102 60.3999 236.886 60.2715 236.674 60.1406L235.626 61.8441ZM235.579 61.827L235.714 61.8924L236.585 60.0923L236.45 60.0268L235.579 61.827ZM235.156 60.4135L235.148 60.4269L236.881 61.4269L236.888 61.4135L235.156 60.4135ZM225.886 23.3197C218.176 36.6742 222.5 53.6738 235.494 61.7624L236.551 60.0645C224.47 52.5441 220.449 36.7368 227.618 24.3197L225.886 23.3197ZM263.982 12.4187C250.481 5.21007 233.597 9.96523 225.886 23.3197L227.618 24.3197C234.787 11.9026 250.487 7.48071 263.04 14.183L263.982 12.4187ZM262.653 12.7875L262.645 12.8008L264.377 13.8008L264.385 13.7875L262.653 12.7875ZM264.204 12.5438L264.082 12.4611L262.956 14.1138L263.077 14.1965L264.204 12.5438ZM264.824 12.8863C264.589 12.7506 264.353 12.6187 264.116 12.4905L263.165 14.2498C263.386 14.3692 263.606 14.492 263.824 14.6183L264.824 12.8863ZM268.998 15.8177C267.718 14.736 266.325 13.7529 264.824 12.8863L263.824 14.6183C265.222 15.4253 266.518 16.3399 267.707 17.3453L268.998 15.8177ZM484.407 162.603L268.916 15.7551L267.79 17.4078L483.281 164.256L484.407 162.603ZM484.707 163.936L484.71 163.93L482.978 162.93L482.975 162.936L484.707 163.936ZM487.3 174.538C489.69 170.398 488.373 165.135 484.377 162.592L483.304 164.28C486.399 166.25 487.42 170.33 485.568 173.538L487.3 174.538ZM475.493 177.98C479.693 180.169 484.909 178.679 487.3 174.538L485.568 173.538C483.715 176.747 479.671 177.903 476.418 176.207L475.493 177.98ZM476.819 177.599L476.821 177.594L475.089 176.594L475.087 176.599L476.819 177.599ZM240.747 64.3295L475.517 177.999L476.388 176.199L241.619 62.5294L240.747 64.3295Z" fill="white"/>
</g>
<g id="Component 57">
<path id="Union_2" d="M232.041 16.5126L232.603 17.3401C232.631 17.3211 232.658 17.3007 232.684 17.2789L232.041 16.5126ZM236.669 13.372L237.144 14.2516C237.174 14.2357 237.203 14.2182 237.23 14.1994L236.669 13.372ZM236.793 13.2876L237.659 12.7876C237.52 12.547 237.287 12.3751 237.017 12.313C236.746 12.2508 236.461 12.3042 236.231 12.4602L236.793 13.2876ZM236.801 13.3011L235.935 13.8011C236.204 14.2682 236.796 14.4372 237.272 14.1832L236.801 13.3011ZM264.29 60.9138L263.762 60.0648C263.304 60.3498 263.154 60.9466 263.424 61.4138L264.29 60.9138ZM264.298 60.9271L264.732 61.828C264.982 61.7072 265.171 61.4876 265.253 61.2217C265.335 60.9559 265.303 60.668 265.164 60.4271L264.298 60.9271ZM264.165 60.9908L263.731 60.09C263.701 60.1048 263.671 60.1212 263.641 60.1391L264.165 60.9908ZM259.028 63.4663L258.689 62.5254C258.657 62.5371 258.625 62.5504 258.594 62.5654L259.028 63.4663ZM24.1081 176.663L23.2421 177.163C23.5038 177.616 24.0707 177.791 24.5422 177.564L24.1081 176.663ZM24.1044 176.657L24.9704 176.157C24.7027 175.693 24.1171 175.522 23.6422 175.77L24.1044 176.657ZM16.2192 162.999L16.756 163.843C17.2079 163.555 17.353 162.963 17.0852 162.499L16.2192 162.999ZM16.2164 162.994L15.6548 162.167C15.2212 162.461 15.0883 163.04 15.3504 163.494L16.2164 162.994ZM235.488 12.8865C234.02 13.734 232.655 14.6928 231.399 15.7463L232.684 17.2789C233.852 16.2997 235.121 15.4077 236.488 14.6186L235.488 12.8865ZM236.193 12.4924C235.957 12.6201 235.722 12.7515 235.488 12.8865L236.488 14.6186C236.706 14.4928 236.925 14.3705 237.144 14.2516L236.193 12.4924ZM236.231 12.4602L236.107 12.5446L237.23 14.1994L237.355 14.1151L236.231 12.4602ZM237.667 12.8011L237.659 12.7876L235.927 13.7876L235.935 13.8011L237.667 12.8011ZM274.426 23.3199C266.716 9.96548 249.832 5.21032 236.33 12.4189L237.272 14.1832C249.825 7.48097 265.525 11.9028 272.694 24.3199L274.426 23.3199ZM264.818 61.7627C277.812 53.6741 282.136 36.6744 274.426 23.3199L272.694 24.3199C279.863 36.7371 275.843 52.5443 263.762 60.0648L264.818 61.7627ZM265.164 60.4271L265.156 60.4138L263.424 61.4138L263.432 61.4271L265.164 60.4271ZM264.6 61.8917L264.732 61.828L263.864 60.0262L263.731 60.09L264.6 61.8917ZM263.993 62.258C264.228 62.1223 264.46 61.9838 264.689 61.8425L263.641 60.1391C263.428 60.2707 263.211 60.3996 262.993 60.5259L263.993 62.258ZM259.367 64.4072C260.944 63.8395 262.492 63.1246 263.993 62.258L262.993 60.5259C261.595 61.3329 260.155 61.9978 258.689 62.5254L259.367 64.4072ZM24.5422 177.564L259.462 64.3671L258.594 62.5654L23.674 175.762L24.5422 177.564ZM23.2384 177.157L23.2421 177.163L24.9741 176.163L24.9704 176.157L23.2384 177.157ZM12.7601 174.101C15.1505 178.242 20.3673 179.733 24.5667 177.544L23.6422 175.77C20.3884 177.466 16.3447 176.31 14.4921 173.101L12.7601 174.101ZM15.6824 162.156C11.687 164.698 10.3696 169.961 12.7601 174.101L14.4921 173.101C12.6395 169.893 13.6604 165.813 16.756 163.843L15.6824 162.156ZM15.3504 163.494L15.3532 163.499L17.0852 162.499L17.0824 162.494L15.3504 163.494ZM231.48 15.6852L15.6548 162.167L16.778 163.822L232.603 17.3401L231.48 15.6852Z" fill="white"/>
</g>
<path id="&#224;&#185;&#132;&#224;&#184;&#161;&#224;&#185;&#136;&#224;&#185;&#128;&#224;&#184;&#139;&#224;&#185;&#135;&#224;&#184;&#153;" d="M297.952 54.9562L293.354 52.3012L293.147 52.6598L292.924 53.4045L295.855 55.0965C294.683 55.002 293.816 55.3531 292.862 57.0055L288.085 65.2428C287.599 66.0845 287.91 66.95 288.736 67.427C289.032 67.598 289.262 67.6682 289.476 67.7294L289.989 67.2361L290.151 66.9555L289.59 66.6315C289.31 66.4695 289.235 66.2392 289.442 65.8806L294.099 57.8862C295.33 55.7907 296.192 55.6651 297.34 56.0163L297.952 54.9562ZM295.356 71.3318C296.93 72.2408 298.911 72.1581 299.937 70.381L302.331 66.2345C302.655 65.6733 302.798 65.569 303.246 65.7652L303.647 65.9345L304.097 65.1551L301.104 63.4271L300.654 64.2065L301.001 64.4692C301.395 64.759 301.376 64.9353 301.052 65.4965L298.694 69.5807C297.992 70.7966 296.936 70.7896 295.892 70.1866C294.302 69.2686 294.155 67.6873 294.155 67.6873L297.737 61.4831L295.617 60.2591L295.158 61.0541L295.521 61.3258C295.899 61.6066 295.883 61.7427 295.559 62.3039L292.652 67.339C292.301 67.9469 292.151 68.0266 291.805 67.8688L291.429 67.693L290.925 68.5659L292.718 69.6009C292.948 69.3809 293.227 69.0428 293.438 68.749C293.438 68.749 293.578 70.3058 295.356 71.3318ZM303.952 63.3878L305.212 61.2054L303.965 60.4854L302.705 62.6678L303.952 63.3878ZM302.452 75.3459C302.779 75.5349 303.134 75.6771 303.348 75.7384L303.846 75.236L304.008 74.9554L303.4 74.6044C303.119 74.4424 303.064 74.2859 303.253 73.9585L306.367 68.5649C306.709 67.9726 306.812 67.8659 307.126 68.0057L307.528 68.1749L307.978 67.3955L305.296 65.8475L304.846 66.6269L305.193 66.8897C305.456 67.0829 305.431 67.2346 305.089 67.8269L301.858 73.4232C301.399 74.2182 301.564 74.8329 302.452 75.3459ZM308.403 78.8646C310.367 79.9986 312.023 79.6867 313.157 77.7226L314.327 75.6961C314.822 74.8387 314.551 73.8306 313.978 73.3123L315.748 72.8379C316.043 72.7589 316.3 72.7823 316.549 72.9263L316.981 72.1781L315.625 71.3951L312.83 72.4208L312.416 73.1379C313.11 73.6634 313.487 74.2344 313.028 75.0294L311.894 76.9936C311.183 78.2251 310.139 78.4124 309.033 77.7734C307.926 77.1344 307.582 76.1461 308.293 74.9146L308.887 73.8857C309.769 72.3581 311.367 72.4701 312.132 71.1451L312.303 70.8489C312.483 70.5371 312.579 70.1558 312.49 69.8763L311.929 69.5523L310.799 69.7103L310.397 68.7507L309.758 68.3817L309.146 69.4417L309.903 70.3984L310.043 70.4794L310.791 70.5162L310.755 70.5786C310.107 71.7009 308.653 71.3395 307.672 73.0386L307.015 74.1766C305.881 76.1407 306.439 77.7306 308.403 78.8646ZM313.135 68.8975L314.54 68.877L315.13 70.0495L316.175 70.6525L316.919 70.0843L317.072 69.8193L315.98 69.1893L315.291 68.0431L314.948 67.8451L313.72 67.8843L313.362 67.6773C313.159 67.5603 313.013 67.1644 313.238 66.7747L313.301 66.6656C313.553 66.2291 313.926 66.1951 314.675 66.6271L317.621 68.3281L318.365 67.7598L318.518 67.4948L315.213 65.5868C313.841 64.7948 312.666 65.0307 312.117 65.9816L311.982 66.2154C311.541 66.9793 311.779 68.1145 312.59 68.5825L313.135 68.8975ZM316.606 83.6011C318.041 84.4291 319.106 84.2753 319.793 83.9859C319.624 84.387 319.553 84.7618 319.518 85.0742L321.233 86.0642L321.737 85.1912C321.102 84.7419 321.072 84.5788 321.432 83.9552L324.33 78.9357C324.654 78.3746 324.797 78.2703 325.245 78.4665L325.646 78.6357L326.096 77.8563L323.103 76.1283L322.653 76.9077L323 77.1705C323.394 77.4603 323.376 77.6366 323.052 78.1977L320.415 82.7652C319.576 83.1745 318.484 83.2299 317.361 82.5819C316.286 81.9609 315.794 81.0121 316.469 79.8429L319.736 74.1843L317.616 72.9603L317.157 73.7553L317.52 74.0271C317.898 74.3078 317.882 74.444 317.558 75.0052L315.119 79.2296C314.102 80.9911 314.97 82.6561 316.606 83.6011Z" fill="#FF8058"/>
<path id="&#224;&#185;&#128;&#224;&#184;&#139;&#224;&#185;&#135;&#224;&#184;&#153;" d="M194.344 75.205C194.671 75.016 194.972 74.7802 195.132 74.6254L194.946 73.9431L194.784 73.6625L194.176 74.0135C193.895 74.1755 193.732 74.1449 193.543 73.8176L190.429 68.424C190.087 67.8316 190.046 67.6889 190.324 67.4867L190.672 67.224L190.222 66.4445L187.54 67.9925L187.99 68.772L188.391 68.6027C188.69 68.4719 188.809 68.5696 189.151 69.162L192.382 74.7582C192.841 75.5533 193.456 75.718 194.344 75.205ZM200.367 71.811C202.331 70.677 202.889 69.0871 201.755 67.1229L200.585 65.0964C200.09 64.2391 199.081 63.9689 198.346 64.2066L198.82 62.4363C198.899 62.1412 199.048 61.9307 199.297 61.7867L198.865 61.0384L197.509 61.8214L197 64.7552L197.414 65.4722C198.216 65.1338 198.899 65.0928 199.358 65.8878L200.492 67.8519C201.203 69.0834 200.843 70.0808 199.737 70.7198C198.63 71.3588 197.602 71.1624 196.891 69.9309L196.297 68.9021C195.415 67.3744 196.311 66.0465 195.546 64.7214L195.375 64.4253C195.195 64.1135 194.913 63.8401 194.626 63.7767L194.065 64.1007L193.637 65.1586L192.605 65.027L191.966 65.396L192.578 66.456L193.785 66.2787L193.925 66.1977L194.331 65.5686L194.367 65.6309C195.015 66.7533 193.975 67.8318 194.956 69.531L195.613 70.6689C196.747 72.6331 198.403 72.945 200.367 71.811ZM194.101 62.729L194.786 61.5024L196.096 61.577L197.141 60.974L197.021 60.0457L196.868 59.7807L195.776 60.4107L194.439 60.4345L194.096 60.6325L193.516 61.7157L193.158 61.9227C192.955 62.0397 192.539 61.9679 192.314 61.5782L192.251 61.4691C191.999 61.0326 192.156 60.6925 192.905 60.2605L195.851 58.5595L195.731 57.6313L195.578 57.3663L192.273 59.2743C190.901 60.0663 190.518 61.2022 191.067 62.1531L191.202 62.3869C191.643 63.1507 192.745 63.512 193.556 63.044L194.101 62.729ZM208.57 67.0745C210.005 66.2465 210.404 65.2467 210.497 64.5073C210.76 64.8544 211.049 65.1032 211.302 65.2896L213.017 64.2996L212.513 63.4267C211.806 63.7513 211.65 63.6962 211.29 63.0727L208.392 58.0532C208.068 57.492 208.049 57.3157 208.443 57.0259L208.79 56.7632L208.34 55.9837L205.347 57.7117L205.797 58.4912L206.198 58.3219C206.646 58.1257 206.79 58.23 207.114 58.7912L209.751 63.3586C209.686 64.2899 209.188 65.2633 208.065 65.9113C206.99 66.5323 205.922 66.4835 205.247 65.3143L201.98 59.6557L199.86 60.8797L200.319 61.6747L200.736 61.4965C201.168 61.3093 201.278 61.3914 201.602 61.9526L204.041 66.1771C205.058 67.9385 206.934 68.0195 208.57 67.0745Z" fill="white"/>
<g id="Component 64">
<g id="Frame 756">
<rect x="235" y="23" width="30" height="30" rx="15" fill="white"/>
<path id="1" d="M240.899 44.5H249.647V42.322H246.983V31.936H242.843L239.837 35.896L241.565 37.246L244.121 33.898H244.283V42.322H240.899V44.5ZM255.4 44.716C258.37 44.716 260.08 43.168 260.08 41.062C260.08 39.46 259.108 38.434 257.614 38.02V37.876C258.838 37.426 259.702 36.49 259.702 35.032C259.702 33.106 258.172 31.72 255.4 31.72C252.628 31.72 251.098 33.106 251.098 35.032C251.098 36.49 251.962 37.426 253.186 37.876V38.02C251.692 38.434 250.72 39.46 250.72 41.062C250.72 43.168 252.43 44.716 255.4 44.716ZM255.4 37.102C254.266 37.102 253.636 36.526 253.636 35.59V35.302C253.636 34.366 254.266 33.79 255.4 33.79C256.534 33.79 257.164 34.366 257.164 35.302V35.59C257.164 36.526 256.534 37.102 255.4 37.102ZM255.4 42.646C254.212 42.646 253.546 42.034 253.546 41.044V40.684C253.546 39.694 254.212 39.082 255.4 39.082C256.588 39.082 257.254 39.694 257.254 40.684V41.044C257.254 42.034 256.588 42.646 255.4 42.646Z" fill="black"/>
</g>
</g>
</g>
</svg>
