<svg width="949" height="198" viewBox="0 0 949 198" fill="none" xmlns="http://www.w3.org/2000/svg">
<g id="05">
<g id="Component 13">
<path id="Union" d="M684.022 136.726L684.551 137.575C685.008 137.29 685.158 136.693 684.888 136.226L684.022 136.726ZM711.511 184.339L712.377 183.839C712.108 183.371 711.516 183.202 711.04 183.456L711.511 184.339ZM711.519 184.352L710.653 184.852C710.929 185.33 711.541 185.494 712.019 185.218L711.519 184.352ZM925.896 60.5811L926.396 61.4471C926.875 61.171 927.039 60.5594 926.763 60.0811L925.896 60.5811ZM925.873 60.5403L925.324 59.7048C924.881 59.9958 924.742 60.5816 925.007 61.0403L925.873 60.5403ZM898.415 12.9823L897.549 13.4823C897.814 13.9411 898.391 14.1137 898.864 13.8759L898.415 12.9823ZM898.392 12.9416L899.258 12.4416C898.982 11.9633 898.37 11.7995 897.892 12.0756L898.392 12.9416ZM896.988 13.7523L897.488 14.6183L896.988 13.7523ZM684.819 136.248L685.319 137.114L684.819 136.248ZM684.014 136.713L683.514 135.847C683.285 135.979 683.117 136.198 683.048 136.454C682.98 136.71 683.016 136.983 683.148 137.213L684.014 136.713ZM683.494 135.877C670.5 143.966 666.176 160.965 673.886 174.32L675.618 173.32C668.449 160.903 672.469 145.095 684.551 137.575L683.494 135.877ZM673.886 174.32C681.596 187.674 698.48 192.429 711.982 185.221L711.04 183.456C698.487 190.159 682.787 185.737 675.618 173.32L673.886 174.32ZM710.645 184.839L710.653 184.852L712.385 183.852L712.377 183.839L710.645 184.839ZM712.019 185.218L926.396 61.4471L925.396 59.7151L711.019 183.486L712.019 185.218ZM926.763 60.0811L926.739 60.0403L925.007 61.0403L925.03 61.0811L926.763 60.0811ZM933.694 24.3197C940.75 36.5421 936.966 52.0495 925.324 59.7048L926.422 61.3759C938.944 53.142 943.015 36.4651 935.426 23.3197L933.694 24.3197ZM898.864 13.8759C911.315 7.62122 926.637 12.0973 933.694 24.3197L935.426 23.3197C927.836 10.1744 911.358 5.36125 897.966 12.0887L898.864 13.8759ZM899.281 12.4823L899.258 12.4416L897.526 13.4416L897.549 13.4823L899.281 12.4823ZM897.892 12.0756L896.488 12.8863L897.488 14.6183L898.892 13.8077L897.892 12.0756ZM896.488 12.8863L684.319 135.382L685.319 137.114L897.488 14.6183L896.488 12.8863ZM684.319 135.382L683.514 135.847L684.514 137.579L685.319 137.114L684.319 135.382ZM683.148 137.213L683.156 137.226L684.888 136.226L684.88 136.213L683.148 137.213Z" fill="white"/>
</g>
<g id="Component 16">
<path id="Union_2" d="M268.698 186.592L268.77 185.595C268.804 185.597 268.838 185.601 268.871 185.607L268.698 186.592ZM274.275 186.998L274.247 185.999C274.281 185.998 274.315 185.999 274.348 186.001L274.275 186.998ZM274.425 187.009L275.425 187.009C275.425 187.287 275.31 187.552 275.106 187.742C274.903 187.931 274.63 188.027 274.353 188.007L274.425 187.009ZM274.425 186.994L273.425 186.994C273.425 186.454 273.853 186.012 274.392 185.994L274.425 186.994ZM274.425 132.015L274.392 133.015C273.853 132.997 273.425 132.555 273.425 132.015L274.425 132.015ZM274.425 132L274.351 131.003C274.628 130.982 274.901 131.078 275.105 131.267C275.309 131.456 275.425 131.722 275.425 132L274.425 132ZM274.279 132.011L274.353 133.008C274.319 133.011 274.285 133.012 274.251 133.011L274.279 132.011ZM268.592 132.436L268.769 133.42C268.735 133.426 268.701 133.43 268.666 133.433L268.592 132.436ZM8.54682 151.864L7.54682 151.864C7.54682 151.341 7.95038 150.906 8.47232 150.867L8.54682 151.864ZM8.54682 151.872L9.54682 151.872C9.54682 152.407 9.12491 152.848 8.58988 152.871L8.54682 151.872ZM8.54682 167.642L8.58988 166.643C9.12491 166.666 9.54682 167.107 9.54682 167.642L8.54682 167.642ZM8.54682 167.648L8.47419 168.645C7.95148 168.607 7.54682 168.172 7.54682 167.648L8.54682 167.648ZM273.495 188.009C271.8 188.009 270.139 187.861 268.524 187.577L268.871 185.607C270.372 185.871 271.917 186.009 273.495 186.009L273.495 188.009ZM274.303 187.998C274.035 188.005 273.766 188.009 273.495 188.009L273.495 186.009C273.747 186.009 273.998 186.006 274.247 185.999L274.303 187.998ZM274.353 188.007L274.203 187.996L274.348 186.001L274.498 186.012L274.353 188.007ZM275.425 186.994L275.425 187.009L273.425 187.009L273.425 186.994L275.425 186.994ZM302 159.505C302 174.925 289.756 187.485 274.458 187.993L274.392 185.994C288.615 185.522 300 173.843 300 159.505L302 159.505ZM274.458 131.016C289.756 131.524 302 144.084 302 159.505L300 159.505C300 145.167 288.615 133.487 274.392 133.015L274.458 131.016ZM275.425 132L275.425 132.015L273.425 132.015L273.425 132L275.425 132ZM274.204 131.014L274.351 131.003L274.5 132.997L274.353 133.008L274.204 131.014ZM273.495 131C273.767 131 274.037 131.004 274.307 131.011L274.251 133.011C274 133.004 273.748 133 273.495 133L273.495 131ZM268.415 131.452C270.064 131.155 271.762 131 273.495 131L273.495 133C271.881 133 270.302 133.144 268.769 133.42L268.415 131.452ZM8.47232 150.867L268.517 131.439L268.666 133.433L8.62131 152.862L8.47232 150.867ZM7.54682 151.872L7.54682 151.864L9.54682 151.864L9.54682 151.872L7.54682 151.872ZM2.4266e-06 159.757C2.00863e-06 154.976 3.77249 151.077 8.50376 150.873L8.58988 152.871C4.92404 153.029 2 156.052 2 159.757L2.4266e-06 159.757ZM8.50376 168.641C3.77249 168.437 2.84456e-06 164.538 2.4266e-06 159.757L2 159.757C2 163.462 4.92404 166.485 8.58988 166.643L8.50376 168.641ZM7.54682 167.648L7.54682 167.642L9.54682 167.642L9.54682 167.648L7.54682 167.648ZM268.625 187.59L8.47419 168.645L8.61945 166.651L268.77 185.595L268.625 187.59Z" fill="white"/>
</g>
<g id="Component 14">
<path id="Union_3" d="M499.511 13.3008L499.041 14.183C499.516 14.437 500.108 14.2679 500.378 13.8008L499.511 13.3008ZM472.022 60.9135L472.888 61.4135C473.158 60.9464 473.009 60.3496 472.551 60.0646L472.022 60.9135ZM472.015 60.9269L471.149 60.4269C470.872 60.9052 471.036 61.5168 471.515 61.7929L472.015 60.9269ZM686.392 184.698L685.892 185.564C686.37 185.84 686.982 185.676 687.258 185.198L686.392 184.698ZM686.416 184.657L686.864 183.764C686.391 183.526 685.814 183.698 685.55 184.157L686.416 184.657ZM713.873 137.099L713.007 136.599C712.742 137.058 712.881 137.644 713.324 137.935L713.873 137.099ZM713.897 137.058L714.763 137.558C715.039 137.08 714.875 136.469 714.397 136.192L713.897 137.058ZM499.519 13.2875L500.019 12.4214C499.541 12.1453 498.929 12.3092 498.653 12.7875L499.519 13.2875ZM499.982 12.4187C486.481 5.21006 469.597 9.96522 461.886 23.3197L463.618 24.3197C470.787 11.9026 486.487 7.48071 499.041 14.183L499.982 12.4187ZM461.886 23.3197C454.176 36.6742 458.5 53.6738 471.494 61.7625L472.551 60.0646C460.47 52.5441 456.449 36.7368 463.618 24.3197L461.886 23.3197ZM471.156 60.4135L471.149 60.4269L472.881 61.4269L472.888 61.4135L471.156 60.4135ZM471.515 61.7929L685.892 185.564L686.892 183.832L472.515 60.0609L471.515 61.7929ZM687.258 185.198L687.282 185.157L685.55 184.157L685.526 184.198L687.258 185.198ZM721.694 173.32C714.637 185.542 699.315 190.018 686.864 183.764L685.967 185.551C699.358 192.278 715.836 187.465 723.426 174.32L721.694 173.32ZM713.324 137.935C724.966 145.59 728.751 161.097 721.694 173.32L723.426 174.32C731.015 161.174 726.945 144.497 714.423 136.264L713.324 137.935ZM714.739 137.599L714.763 137.558L713.031 136.558L713.007 136.599L714.739 137.599ZM714.397 136.192L712.993 135.382L711.993 137.114L713.397 137.924L714.397 136.192ZM712.993 135.382L500.824 12.8863L499.824 14.6183L711.993 137.114L712.993 135.382ZM500.824 12.8863L500.019 12.4214L499.019 14.1535L499.824 14.6183L500.824 12.8863ZM498.653 12.7875L498.645 12.8008L500.378 13.8008L500.385 13.7875L498.653 12.7875Z" fill="white"/>
</g>
<g id="Component 15">
<path id="Union_4" d="M500.29 60.9138L499.762 60.0648C499.304 60.3499 499.155 60.9467 499.424 61.4138L500.29 60.9138ZM472.801 13.3011L471.935 13.8011C472.205 14.2682 472.796 14.4372 473.272 14.1832L472.801 13.3011ZM472.793 13.2877L473.659 12.7877C473.527 12.558 473.308 12.3904 473.052 12.3217C472.796 12.2531 472.523 12.289 472.293 12.4216L472.793 13.2877ZM258.416 137.059L257.916 136.193C257.437 136.469 257.274 137.08 257.55 137.559L258.416 137.059ZM258.439 137.099L258.989 137.935C259.431 137.644 259.57 137.058 259.305 136.599L258.439 137.099ZM285.897 184.657L286.763 184.157C286.498 183.699 285.921 183.526 285.448 183.764L285.897 184.657ZM285.92 184.698L285.054 185.198C285.331 185.676 285.942 185.84 286.42 185.564L285.92 184.698ZM287.325 183.887L287.825 184.753L287.325 183.887ZM499.493 61.392L498.993 60.5259L499.493 61.392ZM500.298 60.9271L500.798 61.7931C501.276 61.517 501.44 60.9054 501.164 60.4271L500.298 60.9271ZM500.819 61.7627C513.812 53.6741 518.136 36.6744 510.426 23.32L508.694 24.32C515.863 36.7371 511.843 52.5444 499.762 60.0648L500.819 61.7627ZM510.426 23.32C502.716 9.96548 485.832 5.21032 472.33 12.4189L473.272 14.1832C485.825 7.48096 501.525 11.9028 508.694 24.32L510.426 23.32ZM473.667 12.8011L473.659 12.7877L471.927 13.7877L471.935 13.8011L473.667 12.8011ZM472.293 12.4216L257.916 136.193L258.916 137.925L473.293 14.1537L472.293 12.4216ZM257.55 137.559L257.573 137.599L259.305 136.599L259.282 136.559L257.55 137.559ZM250.619 173.32C243.562 161.098 247.347 145.59 258.989 137.935L257.89 136.264C245.368 144.498 241.297 161.175 248.887 174.32L250.619 173.32ZM285.448 183.764C272.997 190.018 257.675 185.542 250.619 173.32L248.887 174.32C256.476 187.465 272.954 192.278 286.346 185.551L285.448 183.764ZM285.031 185.157L285.054 185.198L286.786 184.198L286.763 184.157L285.031 185.157ZM286.42 185.564L287.825 184.753L286.825 183.021L285.42 183.832L286.42 185.564ZM287.825 184.753L499.993 62.258L498.993 60.5259L286.825 183.021L287.825 184.753ZM499.993 62.258L500.798 61.7931L499.798 60.0611L498.993 60.5259L499.993 62.258ZM501.164 60.4271L501.156 60.4138L499.424 61.4138L499.432 61.4271L501.164 60.4271Z" fill="white"/>
</g>
<path id="&#224;&#185;&#132;&#224;&#184;&#161;&#224;&#185;&#136;&#224;&#184;&#132;&#224;&#184;&#163;&#224;&#184;&#154;" d="M533.952 54.9562L529.354 52.3012L529.147 52.6598L528.924 53.4045L531.855 55.0965C530.683 55.002 529.816 55.3531 528.862 57.0055L524.085 65.2428C523.599 66.0845 523.91 66.95 524.736 67.427C525.032 67.598 525.262 67.6682 525.476 67.7294L525.989 67.2361L526.151 66.9555L525.59 66.6315C525.31 66.4695 525.235 66.2392 525.442 65.8806L530.099 57.8862C531.33 55.7907 532.192 55.6651 533.34 56.0163L533.952 54.9562ZM531.356 71.3318C532.93 72.2408 534.911 72.1581 535.937 70.381L538.331 66.2345C538.655 65.6733 538.798 65.569 539.246 65.7652L539.647 65.9345L540.097 65.1551L537.104 63.4271L536.654 64.2065L537.001 64.4692C537.395 64.759 537.376 64.9353 537.052 65.4965L534.694 69.5807C533.992 70.7966 532.936 70.7896 531.892 70.1866C530.302 69.2686 530.155 67.6873 530.155 67.6873L533.737 61.4831L531.617 60.2591L531.158 61.0541L531.521 61.3258C531.899 61.6066 531.883 61.7427 531.559 62.3039L528.652 67.339C528.301 67.9469 528.151 68.0266 527.805 67.8688L527.429 67.693L526.925 68.5659L528.718 69.6009C528.948 69.3809 529.227 69.0428 529.438 68.749C529.438 68.749 529.578 70.3058 531.356 71.3318ZM539.952 63.3878L541.212 61.2054L539.965 60.4854L538.705 62.6678L539.952 63.3878ZM544.782 77.7742C544.388 77.4844 544.407 77.3081 544.74 76.7314L546.909 72.9745C547.971 71.1351 547.419 69.1746 545.221 67.9056C543.023 66.6366 541.049 67.1391 539.987 68.9785L537.8 72.7665C537.467 73.3433 537.358 73.4254 536.925 73.2382L536.509 73.06L536.059 73.8394L538.179 75.0634L538.719 74.1281C539.79 72.273 541.186 71.9779 541.919 72.4009C542.137 72.5269 542.257 72.6792 542.248 72.8399L543.183 73.3799L543.846 72.4117C543.733 72.1388 543.342 71.8088 542.936 71.5748C542.219 71.1608 541.211 71.0358 540.159 71.6339L541.266 69.7165C542.022 68.4071 543.188 68.1868 544.591 68.9968C545.994 69.8068 546.387 70.9271 545.631 72.2365L543.462 75.9934C543.129 76.5701 542.985 76.6744 542.537 76.4782L542.136 76.309L541.686 77.0884L544.679 78.8164L545.129 78.037L544.782 77.7742ZM548.727 81.3615C550.645 82.4685 552.42 82.4541 553.428 80.7082C554.193 79.3831 553.473 78.0738 552.317 77.0528C550.333 75.3048 550.465 74.7159 550.879 73.9989C551.311 73.2506 552.115 73.1537 553.253 73.8107C553.955 74.2157 554.446 74.7694 554.646 75.4669L555.581 76.0069C555.581 76.0069 555.857 75.7089 556.316 74.9139C555.881 74.3717 554.84 73.4382 553.842 72.8622C552.128 71.8722 550.446 71.9407 549.609 73.3904C548.862 74.6842 549.35 75.9635 550.673 77.1638C552.585 78.8915 552.463 79.3196 551.977 80.1614C551.554 80.894 550.662 81.1066 549.415 80.3866C548.558 79.8916 548.026 79.3356 547.905 78.538L546.954 77.989C546.608 78.5166 546.538 78.6011 546.19 79.1689C546.507 79.5186 547.075 80.4075 548.727 81.3615ZM557.426 86.3835C559.702 87.6975 561.675 87.195 562.737 85.3556L564.924 81.5676C565.248 81.0064 565.392 80.9021 565.84 81.0983L566.241 81.2675L566.682 80.5037L563.689 78.7757L563.248 79.5395L563.595 79.8023C563.989 80.0921 563.97 80.2684 563.646 80.8296L561.459 84.6176C560.793 85.7711 559.537 86.1473 558.056 85.2923C556.575 84.4373 556.272 83.1611 556.938 82.0076L560.025 76.6607L557.905 75.4367L557.446 76.2317L557.809 76.5035C558.187 76.7843 558.171 76.9204 557.847 77.4816L555.66 81.2696C554.598 83.109 555.15 85.0695 557.426 86.3835Z" fill="#FF8058"/>
<path id="&#224;&#184;&#132;&#224;&#184;&#163;&#224;&#184;&#154;" d="M428.612 74.4372C428.164 74.6335 428.021 74.5292 427.688 73.9524L425.519 70.1956C424.457 68.3562 422.483 67.8537 420.285 69.1227C418.087 70.3917 417.535 72.3522 418.597 74.1916L420.784 77.9796C421.117 78.5564 421.134 78.6925 420.755 78.9732L420.393 79.245L420.843 80.0244L422.963 78.8004L422.423 77.8651C421.352 76.0101 421.794 74.6529 422.527 74.2299C422.745 74.1039 422.937 74.0763 423.072 74.165L424.007 73.625L423.5 72.5667C423.207 72.5278 422.726 72.7019 422.32 72.9359C421.603 73.3499 420.991 74.1608 420.983 75.371L419.876 73.4536C419.12 72.1442 419.512 71.0239 420.915 70.2139C422.318 69.4039 423.485 69.6242 424.241 70.9336L426.41 74.6904C426.743 75.2672 426.761 75.4435 426.367 75.7332L426.02 75.996L426.47 76.7754L429.463 75.0474L429.013 74.268L428.612 74.4372ZM433.691 72.8141C435.609 71.7071 436.484 70.1627 435.476 68.4168C434.711 67.0917 433.217 67.0604 431.755 67.5514C429.249 68.3954 428.805 67.9865 428.391 67.2695C427.959 66.5212 428.277 65.7763 429.415 65.1193C430.117 64.7143 430.842 64.566 431.546 64.7415L432.481 64.2015C432.481 64.2015 432.361 63.8135 431.902 63.0185C431.215 63.1243 429.886 63.5589 428.888 64.1349C427.174 65.1249 426.392 66.6153 427.229 68.065C427.976 69.3588 429.328 69.5761 431.029 69.0305C433.481 68.2381 433.791 68.5582 434.277 69.4C434.7 70.1327 434.438 71.0113 433.191 71.7313C432.334 72.2263 431.586 72.4082 430.835 72.1146L429.884 72.6636C430.168 73.2272 430.206 73.3297 430.524 73.9155C430.985 73.8152 432.039 73.7681 433.691 72.8141ZM442.39 67.7921C444.666 66.4781 445.217 64.5176 444.155 62.6782L441.968 58.8902C441.644 58.329 441.626 58.1527 442.02 57.8629L442.367 57.6002L441.926 56.8363L438.933 58.5643L439.374 59.3282L439.775 59.1589C440.223 58.9627 440.366 59.067 440.69 59.6282L442.877 63.4162C443.543 64.5697 443.241 65.8459 441.76 66.7009C440.279 67.5559 439.022 67.1797 438.356 66.0262L435.269 60.6793L433.149 61.9033L433.608 62.6983L434.025 62.5201C434.457 62.3329 434.567 62.415 434.891 62.9762L437.078 66.7642C438.14 68.6036 440.114 69.1061 442.39 67.7921Z" fill="white"/>
<g id="Component 64">
<g id="Frame 756">
<rect x="471" y="23" width="30" height="30" rx="15" fill="white"/>
<path id="1" d="M485.913 44.716C489.009 44.716 490.737 42.826 490.737 40.27C490.737 37.75 489.009 36.274 486.867 36.274C485.265 36.274 484.671 37.084 484.167 38.272H484.023L484.293 34.294H489.999V31.936H482.313L481.845 39.046L484.059 39.352C484.383 38.974 485.031 38.47 486.003 38.47C487.173 38.47 487.893 39.19 487.893 40.342V40.486C487.893 41.71 487.227 42.52 485.931 42.52C484.635 42.52 483.933 41.728 483.393 40.756L481.431 42.304C482.187 43.582 483.483 44.716 485.913 44.716Z" fill="black"/>
</g>
</g>
</g>
</svg>
