<svg width="60" height="60" viewBox="0 0 60 60" fill="none" xmlns="http://www.w3.org/2000/svg">
<circle cx="30" cy="30" r="30" fill="#F1501D"/>
<circle cx="30" cy="30" r="30" fill="url(#paint0_radial_617_7087)"/>
<path d="M31.68 38.408C31.68 37.064 31.968 35.528 32.448 34.28C33.744 30.92 40.08 28.472 40.08 22.856C40.08 17.144 36.384 14.024 30.048 14.024C25.056 14.024 21.84 15.704 19.728 17.096C19.776 19.064 19.92 20.984 20.16 22.952H24.768C25.728 20.456 27.168 19.544 29.568 19.544C32.064 19.544 33.36 20.6 33.36 22.856C33.36 27.08 25.92 28.568 25.92 34.04C25.92 35.768 26.4 37.448 26.88 38.408H31.68ZM32.736 47V41H25.776V47H32.736Z" fill="white"/>
<defs>
<radialGradient id="paint0_radial_617_7087" cx="0" cy="0" r="1" gradientUnits="userSpaceOnUse" gradientTransform="translate(40.6669 12.6482) rotate(126.647) scale(37.4065)">
<stop stop-color="white" stop-opacity="0.81"/>
<stop offset="1" stop-color="white" stop-opacity="0"/>
</radialGradient>
</defs>
</svg>
