<svg width="305" height="356" viewBox="0 0 305 356" fill="none" xmlns="http://www.w3.org/2000/svg">
<g id="rank03">
<g id="Mask group">
<mask id="mask0_340_1696114" style="mask-type:alpha" maskUnits="userSpaceOnUse" x="3" y="3" width="300" height="300">
<circle id="Ellipse 184" cx="153" cy="153" r="150" fill="white"/>
</mask>
<g mask="url(#mask0_340_1696114)">
<g id="main_diagram">
<path id="&#224;&#184;&#155;&#224;&#184;&#163;&#224;&#184;&#176;&#224;&#184;&#152;&#224;&#184;&#178;&#224;&#184;&#153;&#224;&#184;&#163;&#224;&#184;&#177;&#224;&#184;&#144;&#224;&#184;&#170;&#224;&#184;&#160;&#224;&#184;&#178;&#224;&#184;&#149;&#224;&#184;&#163;&#224;&#184;&#167;&#224;&#184;&#136;&#224;&#184;&#170;&#224;&#184;&#173;&#224;&#184;&#154; &#224;&#184;&#171;&#224;&#184;&#161;&#224;&#184;&#167;&#224;&#184;&#148; 3/5" d="M-96.3701 255.167C-94.4233 255.167 -93.3878 254.076 -93.3878 252.185V244.232H-94.5199V252.019C-94.5199 253.441 -95.1551 254.173 -96.3701 254.173C-97.5989 254.173 -98.2341 253.441 -98.2341 252.019V247.131H-99.3662V252.185C-99.3662 254.076 -98.3307 255.167 -96.3701 255.167ZM-88.6576 255.167C-87.0146 255.167 -85.9376 254.27 -85.9376 252.723C-85.9376 251.536 -86.6004 250.79 -88.1744 250.569L-88.7819 250.487C-89.6794 250.362 -90.2317 249.976 -90.2317 249.216C-90.2317 248.457 -89.6794 247.96 -88.7543 247.96C-87.843 247.96 -87.1665 248.471 -86.8351 248.954L-86.0067 248.236C-86.6556 247.435 -87.484 246.966 -88.6715 246.966C-90.1212 246.966 -91.3224 247.725 -91.3224 249.272C-91.3224 250.735 -90.2455 251.26 -88.9338 251.453L-88.3263 251.536C-87.3598 251.674 -87.0284 252.254 -87.0284 252.861C-87.0284 253.676 -87.6497 254.173 -88.5886 254.173C-89.5413 254.173 -90.2178 253.759 -90.8392 252.93L-91.6538 253.621C-90.9496 254.546 -90.0522 255.167 -88.6576 255.167ZM-83.2748 250.183L-80.8448 250.169V249.147L-83.3715 249.161V247.891L-84.4484 247.905V249.009C-84.4484 249.755 -83.9652 250.183 -83.2748 250.183ZM-83.2748 254.187L-80.8448 254.173V253.151L-83.3715 253.165V251.895L-84.4484 251.909V253.013C-84.4484 253.759 -83.9652 254.187 -83.2748 254.187ZM-76.4614 255.167C-74.6941 255.167 -73.5619 254.339 -73.5619 252.378C-73.5619 250.776 -74.3351 250.224 -76.2543 249.962L-78.3116 249.7V249.313C-78.3116 248.402 -77.7317 247.96 -76.5719 247.96C-75.4535 247.96 -74.777 248.471 -74.4456 248.954L-73.6172 248.236C-74.2661 247.435 -75.0945 246.966 -76.5305 246.966C-78.353 246.966 -79.43 247.863 -79.43 249.272V249.396C-79.43 250.224 -78.8501 250.638 -77.8007 250.79L-76.1301 251.011C-75.136 251.149 -74.6527 251.425 -74.6527 252.461C-74.6527 253.745 -75.3293 254.173 -76.3924 254.173C-77.069 254.173 -77.497 254.021 -78.0216 253.731V251.494H-79.1262V254.27C-78.353 254.863 -77.497 255.167 -76.4614 255.167ZM-68.6339 255.001H-67.5017V249.368C-67.5017 247.836 -68.4268 246.966 -70.0422 246.966C-71.2296 246.966 -72.1685 247.477 -72.6518 248.36L-71.8924 249.051C-71.4505 248.388 -70.9121 247.96 -70.0698 247.96C-69.1171 247.96 -68.6339 248.415 -68.6339 249.492V255.001ZM-62.5484 255.167C-61.2505 255.167 -60.6568 254.449 -60.3531 253.704H-60.2978V255.001H-59.1933V247.131H-60.3255V252.64C-60.3255 253.676 -61.2782 254.159 -62.2446 254.159C-63.4183 254.159 -64.0534 253.427 -64.0534 252.019V247.131H-65.1856V252.185C-65.1856 254.076 -64.15 255.167 -62.5484 255.167ZM-54.3826 255.167C-52.7395 255.167 -51.6626 254.27 -51.6626 252.723C-51.6626 251.536 -52.3253 250.79 -53.8993 250.569L-54.5068 250.487C-55.4043 250.362 -55.9566 249.976 -55.9566 249.216C-55.9566 248.457 -55.4043 247.96 -54.4792 247.96C-53.568 247.96 -52.8914 248.471 -52.56 248.954L-51.7316 248.236C-52.3806 247.435 -53.209 246.966 -54.3964 246.966C-55.8461 246.966 -57.0474 247.725 -57.0474 249.272C-57.0474 250.735 -55.9704 251.26 -54.6587 251.453L-54.0512 251.536C-53.0847 251.674 -52.7533 252.254 -52.7533 252.861C-52.7533 253.676 -53.3747 254.173 -54.3135 254.173C-55.2662 254.173 -55.9428 253.759 -56.5641 252.93L-57.3787 253.621C-56.6746 254.546 -55.7771 255.167 -54.3826 255.167ZM-53.1345 246.027H-50.3731V245.116H-53.6454V244.232H-54.6948V244.632C-54.6948 245.613 -54.2391 246.027 -53.1345 246.027ZM-43.6978 247.615V246.648H-44.9681C-45.4513 246.648 -45.7689 246.911 -45.7689 247.311V247.408C-46.2383 247.104 -46.8735 246.966 -47.619 246.966C-48.9307 246.966 -49.8558 247.449 -50.4495 248.36L-49.7177 249.064C-49.2897 248.36 -48.5855 247.96 -47.5914 247.96C-46.1555 247.96 -45.3547 248.816 -45.3547 250.321V251.646C-45.3547 253.234 -46.0588 254.007 -47.053 254.007H-47.2324L-47.8538 251.633C-48.1023 250.694 -48.3784 250.418 -49.0826 250.418H-49.9663V251.384H-49.0274L-48.0471 255.001H-47.053C-45.2304 255.001 -44.1673 253.676 -44.1673 250.956C-44.1673 249.589 -44.4572 248.554 -45.12 247.918V247.615H-43.6978ZM-45.3271 256.092C-45.3271 256.603 -45.5894 256.865 -46.0174 256.865C-46.5973 256.865 -46.9287 256.479 -46.9977 255.692H-48.1023L-48.406 256.658H-49.9524V257.597H-48.9445C-47.9918 257.597 -47.4672 257.238 -47.3153 256.41L-47.2739 256.175H-47.2463C-47.1496 257.169 -46.5421 257.735 -45.6722 257.735C-44.8852 257.735 -44.2777 257.28 -44.2777 256.286V255.692H-45.3271V256.092ZM-35.5174 247.615V246.648H-36.7877C-37.2709 246.648 -37.5885 246.911 -37.5885 247.311V247.408C-38.0441 247.104 -38.6516 246.966 -39.3558 246.966C-40.7227 246.966 -41.6754 247.587 -42.2415 248.498L-41.5097 249.202C-41.0817 248.498 -40.3775 247.96 -39.3834 247.96C-38.0579 247.96 -37.4228 248.554 -37.4228 249.948V250.362H-39.1073C-41.3302 250.362 -42.3934 251.149 -42.3934 252.723C-42.3934 254.242 -41.3855 255.001 -39.7976 255.001H-38.983V253.994H-39.6596C-40.6537 253.994 -41.206 253.635 -41.206 252.834V252.475C-41.206 251.784 -40.5846 251.37 -39.342 251.37H-37.4228V255.001H-36.2906V249.824C-36.2906 249.064 -36.4839 248.415 -36.9396 247.932V247.615H-35.5174ZM-30.7995 246.966C-32.7877 246.966 -33.9889 247.974 -33.9889 249.769V250.445H-31.9869V250.5C-32.7049 250.666 -33.4229 251.26 -33.4229 252.558V254.035H-34.3894V255.001H-33.7956C-32.6497 255.001 -32.3183 254.656 -32.3183 253.303V252.254C-32.3183 251.287 -31.9869 250.514 -30.9376 250.473V249.644H-32.8844C-32.7877 248.471 -32.1526 247.96 -30.7995 247.96C-29.4326 247.96 -28.6456 248.705 -28.6456 250.017V255.001H-27.5134V249.948C-27.5134 248.126 -28.5628 246.966 -30.7995 246.966ZM-22.1967 255.001H-21.0645V249.368C-21.0645 247.836 -21.9896 246.966 -23.605 246.966C-24.7924 246.966 -25.7313 247.477 -26.2146 248.36L-25.4552 249.051C-25.0134 248.388 -24.4749 247.96 -23.6326 247.96C-22.68 247.96 -22.1967 248.415 -22.1967 249.492V255.001ZM-16.1803 255.001H-15.338V253.994H-16.1112C-17.3953 253.994 -17.9476 253.4 -17.9476 251.895V250.307C-17.9476 248.968 -17.5196 248.056 -16.8016 248.056L-15.7522 249.161H-15.7246L-14.6753 248.056C-14.0125 248.126 -13.8469 248.457 -13.8469 249.838V255.001H-12.7147V249.051C-12.7147 247.477 -13.6812 246.966 -14.841 246.966L-15.7108 247.987H-15.7522L-16.6359 246.966C-18.2375 246.966 -19.135 248.305 -19.135 250.942C-19.135 253.786 -18.2651 255.001 -16.1803 255.001ZM-7.9454 255.167C-6.30235 255.167 -5.2254 254.27 -5.2254 252.723C-5.2254 251.536 -5.88814 250.79 -7.46215 250.569L-8.06966 250.487C-8.96712 250.362 -9.51941 249.976 -9.51941 249.216C-9.51941 248.457 -8.96712 247.96 -8.04205 247.96C-7.13078 247.96 -6.45423 248.471 -6.12286 248.954L-5.29443 248.236C-5.94337 247.435 -6.77179 246.966 -7.95921 246.966C-9.40895 246.966 -10.6102 247.725 -10.6102 249.272C-10.6102 250.735 -9.53322 251.26 -8.22154 251.453L-7.61403 251.536C-6.64753 251.674 -6.31616 252.254 -6.31616 252.861C-6.31616 253.676 -6.93748 254.173 -7.87636 254.173C-8.82905 254.173 -9.5056 253.759 -10.1269 252.93L-10.9415 253.621C-10.2374 254.546 -9.33992 255.167 -7.9454 255.167ZM-1.2647 255.167C0.847784 255.167 1.8557 253.759 1.8557 251.066C1.8557 248.374 0.847784 246.966 -1.2647 246.966C-2.68684 246.966 -3.5981 247.656 -4.03993 248.636L-3.04582 249.106C-2.75587 248.388 -2.10694 247.96 -1.2647 247.96C-0.118713 247.96 0.668292 248.816 0.668292 250.321V251.812C0.668292 253.317 -0.118713 254.173 -1.2647 254.173C-2.10694 254.173 -2.75587 253.745 -3.04582 253.027L-4.03993 253.496C-3.5981 254.477 -2.68684 255.167 -1.2647 255.167ZM5.9384 246.966C4.59911 246.966 3.66022 247.449 3.06652 248.36L3.79829 249.064C4.22631 248.36 4.93048 247.96 5.92459 247.96C7.36053 247.96 8.16134 248.816 8.16134 250.321V251.646C8.16134 253.234 7.45718 254.007 6.46307 254.007H6.28357L5.66225 251.633C5.41373 250.694 5.13758 250.418 4.43342 250.418H3.54977V251.384H4.48865L5.46895 255.001H6.46307C8.2856 255.001 9.34875 253.676 9.34875 250.956C9.34875 248.374 8.32703 246.966 5.9384 246.966ZM17.7694 247.615V246.648H16.4991C16.0159 246.648 15.6983 246.911 15.6983 247.311V247.408C15.2427 247.104 14.6352 246.966 13.931 246.966C12.5641 246.966 11.6114 247.587 11.0453 248.498L11.7771 249.202C12.2051 248.498 12.9093 247.96 13.9034 247.96C15.2289 247.96 15.864 248.554 15.864 249.948V250.362H14.1795C11.9566 250.362 10.8934 251.149 10.8934 252.723C10.8934 254.242 11.9013 255.001 13.4892 255.001H14.3038V253.994H13.6272C12.6331 253.994 12.0808 253.635 12.0808 252.834V252.475C12.0808 251.784 12.7022 251.37 13.9448 251.37H15.864V255.001H16.9962V249.824C16.9962 249.064 16.8029 248.415 16.3472 247.932V247.615H17.7694ZM22.1559 255.167C24.4065 255.167 25.442 253.842 25.442 251.066C25.442 248.374 24.3789 246.966 22.1145 246.966C20.7752 246.966 19.8225 247.449 19.2012 248.36L19.9606 249.037C20.4162 248.36 21.0928 247.96 22.0869 247.96C23.4676 247.96 24.2546 248.816 24.2546 250.321V251.84C24.2546 253.4 23.5504 254.173 22.1559 254.173C20.72 254.173 20.1125 253.496 20.1125 251.84V251.425H21.5484V250.459H20.4438C19.5326 250.459 19.0079 250.915 19.0079 251.853V251.964C19.0079 253.994 20.1539 255.167 22.1559 255.167ZM30.2939 255.167C32.2407 255.167 33.2763 254.076 33.2763 252.185V247.131H32.1441V252.019C32.1441 253.441 31.5089 254.173 30.2939 254.173C29.0651 254.173 28.43 253.441 28.43 252.019V247.131H27.2978V252.185C27.2978 254.076 28.3333 255.167 30.2939 255.167ZM-61.737 274.001H-59.666V270.329H-58.2714C-57.4706 270.329 -57.0702 270.784 -57.0702 271.696V274.001H-55.082V271.254C-55.082 269.818 -55.7309 268.989 -56.8907 268.824V268.755C-56.0209 268.575 -55.1786 267.968 -55.1786 266.739V266.062H-57.3049V267.333C-57.3049 268.313 -57.7468 268.796 -58.6442 268.796H-59.666V266.062H-61.737V274.001ZM-48.9195 274.167C-47.235 274.167 -46.448 273.118 -46.448 271.295V266.062H-48.5191V270.798C-48.5191 271.861 -48.8228 272.372 -49.6927 272.372C-50.4797 272.372 -51.2253 271.986 -51.2253 271.157V266.062H-53.2964V274.001H-51.2253V272.773H-51.1424C-50.8801 273.532 -50.2726 274.167 -48.9195 274.167ZM-41.9097 274.167C-39.811 274.167 -38.6374 272.8 -38.6374 270.025C-38.6374 267.264 -39.8386 265.897 -41.9373 265.897C-43.4285 265.897 -44.5607 266.656 -45.0301 267.954L-43.2214 268.755C-43.0833 268.147 -42.7795 267.664 -42.0063 267.664C-41.2055 267.664 -40.7637 268.23 -40.7637 269.224V270.84C-40.7637 271.834 -41.2055 272.4 -42.0063 272.4C-42.89 272.4 -43.1109 271.861 -43.3318 271.226L-45.0715 271.986C-44.5469 273.491 -43.3456 274.167 -41.9097 274.167ZM-34.2199 274.001H-33.709V272.207H-33.9299C-34.9793 272.207 -35.2969 271.737 -35.2969 270.439V269.238C-35.2969 268.216 -34.8136 267.692 -33.8885 267.692C-32.9773 267.692 -32.494 268.216 -32.494 269.238V274.001H-30.4229V269.321C-30.4229 267.153 -31.5827 265.897 -33.8195 265.897C-36.3186 265.897 -37.4231 267.457 -37.4231 270.205C-37.4231 272.828 -36.4566 274.001 -34.2199 274.001ZM-22.4623 274.167C-20.2808 274.167 -18.8034 273.049 -18.8034 271.323C-18.8034 269.997 -19.6594 269.21 -20.8054 269.003V268.92C-19.8113 268.741 -18.9691 267.982 -18.9691 266.753C-18.9691 265.206 -20.3084 264.198 -22.3794 264.198C-24.0363 264.198 -24.9752 264.861 -25.707 265.814L-24.4091 267.029C-23.9258 266.297 -23.2217 265.883 -22.4485 265.883C-21.6339 265.883 -21.1506 266.352 -21.1506 267.043V267.139C-21.1506 267.733 -21.6062 268.175 -22.628 268.175H-23.5254V269.901H-22.6556C-21.6062 269.901 -20.9711 270.301 -20.9711 271.088V271.171C-20.9711 271.972 -21.5234 272.483 -22.4623 272.483C-23.4978 272.483 -24.0777 271.917 -24.4919 271.13L-26.0245 272.317C-25.4032 273.297 -24.4229 274.167 -22.4623 274.167ZM-17.9251 276.086H-16.2407L-12.1261 263.784H-13.8106L-17.9251 276.086ZM-7.54273 274.167C-5.16791 274.167 -3.84243 272.717 -3.84243 270.757C-3.84243 268.824 -5.16791 267.692 -6.81096 267.692C-8.03979 267.692 -8.49542 268.313 -8.88202 269.224H-8.99248L-8.78537 266.173H-4.40852V264.364H-10.3042L-10.6631 269.818L-8.96487 270.053C-8.71634 269.763 -8.21928 269.376 -7.4737 269.376C-6.57624 269.376 -6.02395 269.928 -6.02395 270.812V270.922C-6.02395 271.861 -6.53481 272.483 -7.52893 272.483C-8.52304 272.483 -9.06151 271.875 -9.47573 271.13L-10.9807 272.317C-10.4008 273.297 -9.40669 274.167 -7.54273 274.167Z" fill="white"/>
<g id="02">
<g id="Component 6">
<path id="Union" d="M217.532 327.781L217.819 328.28C217.952 328.203 218.048 328.078 218.088 327.93C218.127 327.783 218.106 327.626 218.03 327.494L217.532 327.781ZM217.518 327.758L217.202 327.277C216.947 327.445 216.868 327.782 217.02 328.046L217.518 327.758ZM94.2013 398.986L93.703 399.274C93.8619 399.549 94.2137 399.643 94.4889 399.485L94.2013 398.986ZM94.1967 398.979L94.6949 398.691C94.5398 398.422 94.1995 398.325 93.9258 398.471L94.1967 398.979ZM78.3823 371.587L78.6863 372.076C78.9497 371.912 79.0356 371.568 78.8805 371.299L78.3823 371.587ZM78.3779 371.58L78.0903 371.081C77.8151 371.24 77.7209 371.592 77.8797 371.867L78.3779 371.58ZM78.7714 371.352L79.0591 371.851L79.0616 371.849L78.7714 371.352ZM78.9109 371.272L79.1961 371.772L79.1986 371.77L78.9109 371.272ZM200.829 300.882L201.117 301.38L201.12 301.379L200.829 300.882ZM200.972 300.8L201.257 301.3L201.26 301.298L200.972 300.8ZM201.708 300.375L202.207 300.087C202.048 299.812 201.696 299.718 201.421 299.876L201.708 300.375ZM201.722 300.398L201.224 300.686C201.376 300.95 201.708 301.049 201.98 300.912L201.722 300.398ZM218.03 327.494L218.016 327.47L217.02 328.046L217.034 328.069L218.03 327.494ZM94.4889 399.485L217.819 328.28L217.244 327.283L93.9136 398.488L94.4889 399.485ZM93.6985 399.266L93.703 399.274L94.6995 398.699L94.6949 398.691L93.6985 399.266ZM72.5511 393.215C76.9868 400.897 86.7001 403.633 94.4676 399.486L93.9258 398.471C86.7038 402.327 77.6719 399.783 73.5476 392.639L72.5511 393.215ZM78.0782 371.099C70.603 375.752 68.1155 385.532 72.5511 393.215L73.5476 392.639C69.4233 385.496 71.7362 376.402 78.6863 372.076L78.0782 371.099ZM77.8797 371.867L77.8841 371.875L78.8805 371.299L78.8762 371.292L77.8797 371.867ZM78.4838 370.854L78.0903 371.081L78.6656 372.078L79.0591 371.851L78.4838 370.854ZM78.5534 370.814C78.5293 370.828 78.5053 370.842 78.4813 370.856L79.0616 371.849C79.0839 371.836 79.1063 371.823 79.1287 371.81L78.5534 370.814ZM78.6258 370.772C78.6016 370.786 78.5775 370.8 78.5534 370.814L79.1287 371.81C79.1512 371.797 79.1736 371.784 79.1961 371.772L78.6258 370.772ZM200.542 300.384L78.6233 370.774L79.1986 371.77L201.117 301.38L200.542 300.384ZM201.12 301.379C201.142 301.366 201.165 301.352 201.188 301.339L200.613 300.343C200.588 300.357 200.564 300.371 200.539 300.386L201.12 301.379ZM201.188 301.339C201.211 301.326 201.234 301.313 201.257 301.3L200.687 300.3C200.662 300.314 200.638 300.328 200.613 300.343L201.188 301.339ZM201.421 299.876L200.684 300.302L201.26 301.298L201.996 300.873L201.421 299.876ZM202.22 300.11L202.207 300.087L201.21 300.662L201.224 300.686L202.22 300.11ZM201.98 300.912C209.143 297.314 217.958 299.889 222.017 306.92L223.014 306.345C218.648 298.782 209.168 296.014 201.464 299.884L201.98 300.912ZM222.017 306.92C226.077 313.952 223.9 322.873 217.202 327.277L217.834 328.239C225.038 323.502 227.38 313.907 223.014 306.345L222.017 306.92Z" fill="white"/>
</g>
<g id="Component 7">
<path id="Union_2" d="M95.5697 371.778L96.0679 372.066C96.2268 371.79 96.1325 371.438 95.8573 371.28L95.5697 371.778ZM-27.7608 300.573L-27.4732 300.075C-27.6053 299.998 -27.7624 299.978 -27.9097 300.017C-28.0571 300.057 -28.1828 300.153 -28.2591 300.285L-27.7608 300.573ZM95.5561 371.801L95.0579 371.514C94.9055 371.778 94.9854 372.115 95.24 372.282L95.5561 371.801ZM79.7598 399.161L80.0181 398.647C79.7457 398.51 79.414 398.61 79.2616 398.874L79.7598 399.161ZM79.7464 399.185L79.4587 399.683C79.7339 399.842 80.0857 399.747 80.2446 399.472L79.7464 399.185ZM78.9971 398.752L79.2848 398.254L79.2827 398.253L78.9971 398.752ZM78.8801 398.685L79.1698 398.187L79.1678 398.186L78.8801 398.685ZM-43.0575 328.284L-42.7698 327.786L-42.7721 327.784L-43.0575 328.284ZM-43.1844 328.211L-42.8944 327.714L-42.8967 327.712L-43.1844 328.211ZM-43.5842 327.98L-44.0824 327.692C-44.2412 327.967 -44.147 328.319 -43.8718 328.478L-43.5842 327.98ZM-43.5798 327.972L-43.0816 328.26C-42.9264 327.991 -43.0124 327.648 -43.2758 327.484L-43.5798 327.972ZM-27.7654 300.581L-28.0363 301.088C-27.7626 301.234 -27.4223 301.137 -27.2672 300.868L-27.7654 300.581ZM95.8573 371.28L-27.4732 300.075L-28.0485 301.071L95.282 372.276L95.8573 371.28ZM96.0543 372.089L96.0679 372.066L95.0715 371.49L95.0579 371.514L96.0543 372.089ZM95.24 372.282C101.938 376.686 104.115 385.608 100.055 392.639L101.052 393.214C105.418 385.652 103.076 376.058 95.8722 371.321L95.24 372.282ZM100.055 392.639C95.9957 399.671 87.1809 402.246 80.0181 398.647L79.5016 399.675C87.2058 403.546 96.6856 400.777 101.052 393.214L100.055 392.639ZM80.2446 399.472L80.258 399.449L79.2616 398.874L79.2482 398.897L80.2446 399.472ZM78.7095 399.25L79.4587 399.683L80.034 398.686L79.2848 398.254L78.7095 399.25ZM79.2827 398.253C79.2638 398.242 79.245 398.231 79.2262 398.22L78.6509 399.217C78.6711 399.228 78.6913 399.24 78.7115 399.251L79.2827 398.253ZM79.2262 398.22C79.2074 398.209 79.1886 398.198 79.1698 398.187L78.5904 399.182C78.6105 399.193 78.6307 399.205 78.6509 399.217L79.2262 398.22ZM-43.3451 328.782L78.5925 399.183L79.1678 398.186L-42.7698 327.786L-43.3451 328.782ZM-43.4087 328.746C-43.3867 328.758 -43.3648 328.771 -43.3429 328.783L-42.7721 327.784C-42.7925 327.773 -42.813 327.761 -42.8334 327.749L-43.4087 328.746ZM-43.4743 328.707C-43.4524 328.72 -43.4306 328.733 -43.4087 328.746L-42.8334 327.749C-42.8538 327.737 -42.8741 327.725 -42.8944 327.714L-43.4743 328.707ZM-43.8718 328.478L-43.472 328.709L-42.8967 327.712L-43.2965 327.481L-43.8718 328.478ZM-44.078 327.685L-44.0824 327.692L-43.0859 328.267L-43.0816 328.26L-44.078 327.685ZM-49.411 306.345C-53.8466 314.027 -51.3591 323.807 -43.8838 328.461L-43.2758 327.484C-50.2259 323.157 -52.5388 314.063 -48.4145 306.92L-49.411 306.345ZM-27.4944 300.073C-35.262 295.926 -44.9753 298.662 -49.411 306.345L-48.4145 306.92C-44.2902 299.776 -35.2583 297.233 -28.0363 301.088L-27.4944 300.073ZM-28.2591 300.285L-28.2636 300.293L-27.2672 300.868L-27.2626 300.861L-28.2591 300.285Z" fill="white"/>
</g>
</g>
<g id="21">
<g id="Component 6_2">
<path id="Union_3" d="M345.531 119.731L346.029 119.444C345.87 119.168 345.518 119.074 345.243 119.233L345.531 119.731ZM222.2 190.936L221.913 190.438C221.781 190.514 221.684 190.64 221.645 190.787C221.605 190.935 221.626 191.092 221.702 191.224L222.2 190.936ZM345.544 119.755L345.046 120.042C345.199 120.306 345.53 120.406 345.803 120.269L345.544 119.755ZM361.341 147.115L361.025 146.634C360.77 146.801 360.69 147.138 360.843 147.402L361.341 147.115ZM361.354 147.138L361.642 147.636C361.774 147.56 361.87 147.434 361.91 147.287C361.949 147.14 361.929 146.983 361.852 146.85L361.354 147.138ZM238.538 218.046L238.25 217.548L238.249 217.549L238.538 218.046ZM238.435 218.105L238.149 217.606L238.148 217.607L238.435 218.105ZM238.024 218.343L237.526 218.631C237.684 218.906 238.036 219 238.311 218.841L238.024 218.343ZM238.019 218.335L238.518 218.048C238.362 217.779 238.022 217.682 237.748 217.828L238.019 218.335ZM222.205 190.944L222.509 191.432C222.772 191.268 222.858 190.925 222.703 190.656L222.205 190.944ZM345.243 119.233L221.913 190.438L222.488 191.434L345.819 120.229L345.243 119.233ZM346.043 119.467L346.029 119.444L345.033 120.019L345.046 120.042L346.043 119.467ZM345.803 120.269C352.966 116.671 361.78 119.246 365.84 126.277L366.836 125.702C362.47 118.139 352.991 115.37 345.286 119.241L345.803 120.269ZM365.84 126.277C369.9 133.309 367.722 142.23 361.025 146.634L361.657 147.595C368.861 142.858 371.203 133.264 366.836 125.702L365.84 126.277ZM361.852 146.85L361.839 146.827L360.843 147.402L360.856 147.426L361.852 146.85ZM238.826 218.544L361.642 147.636L361.067 146.64L238.25 217.548L238.826 218.544ZM238.774 218.574C238.792 218.564 238.81 218.554 238.827 218.543L238.249 217.549C238.232 217.558 238.216 217.568 238.199 217.578L238.774 218.574ZM238.721 218.605C238.739 218.594 238.757 218.584 238.774 218.574L238.199 217.578C238.183 217.587 238.166 217.597 238.149 217.606L238.721 218.605ZM238.311 218.841L238.723 218.604L238.148 217.607L237.736 217.845L238.311 218.841ZM237.521 218.623L237.526 218.631L238.522 218.055L238.518 218.048L237.521 218.623ZM216.373 212.572C220.809 220.255 230.523 222.99 238.29 218.843L237.748 217.828C230.526 221.684 221.494 219.14 217.37 211.996L216.373 212.572ZM221.901 190.456C214.425 195.109 211.938 204.889 216.373 212.572L217.37 211.996C213.246 204.853 215.559 195.759 222.509 191.432L221.901 190.456ZM221.702 191.224L221.707 191.232L222.703 190.656L222.699 190.649L221.702 191.224Z" fill="white"/>
</g>
<g id="Component 7_2">
<path id="Union_4" d="M223.57 218.542L223.282 219.04C223.414 219.116 223.571 219.137 223.719 219.097C223.866 219.058 223.992 218.961 224.068 218.829L223.57 218.542ZM223.583 218.518L223.842 218.004C223.569 217.867 223.237 217.967 223.085 218.231L223.583 218.518ZM100.239 147.337L99.7409 147.049C99.5821 147.324 99.6764 147.676 99.9515 147.835L100.239 147.337ZM100.244 147.329L100.742 147.617C100.897 147.348 100.811 147.005 100.548 146.841L100.244 147.329ZM116.058 119.938L115.787 120.445C116.061 120.591 116.401 120.494 116.556 120.225L116.058 119.938ZM116.062 119.93L116.35 119.432C116.075 119.273 115.723 119.367 115.564 119.642L116.062 119.93ZM116.495 120.179L116.207 120.678L116.208 120.678L116.495 120.179ZM116.557 120.215L116.268 120.713L116.269 120.714L116.557 120.215ZM238.546 190.646L238.258 191.144L238.26 191.145L238.546 190.646ZM238.624 190.691L238.335 191.188L238.337 191.189L238.624 190.691ZM239.393 191.135L239.891 191.423C240.05 191.147 239.956 190.796 239.681 190.637L239.393 191.135ZM239.38 191.158L238.881 190.871C238.729 191.135 238.809 191.472 239.063 191.639L239.38 191.158ZM224.068 218.829L224.081 218.806L223.085 218.231L223.071 218.254L224.068 218.829ZM99.9515 147.835L223.282 219.04L223.857 218.043L100.527 146.839L99.9515 147.835ZM99.7454 147.041L99.7409 147.049L100.737 147.624L100.742 147.617L99.7454 147.041ZM94.4124 125.701C89.9767 133.384 92.4643 143.164 99.9396 147.817L100.548 146.841C93.5974 142.514 91.2845 133.42 95.4088 126.277L94.4124 125.701ZM116.329 119.43C108.561 115.283 98.848 118.019 94.4124 125.701L95.4088 126.277C99.5332 119.133 108.565 116.589 115.787 120.445L116.329 119.43ZM115.564 119.642L115.56 119.65L116.556 120.225L116.561 120.218L115.564 119.642ZM116.782 119.681L116.35 119.432L115.775 120.428L116.207 120.678L116.782 119.681ZM116.813 119.699C116.803 119.693 116.792 119.687 116.781 119.681L116.208 120.678C116.218 120.684 116.228 120.69 116.238 120.696L116.813 119.699ZM116.845 119.718C116.835 119.711 116.824 119.705 116.813 119.699L116.238 120.696C116.248 120.701 116.258 120.707 116.268 120.713L116.845 119.718ZM238.834 190.148L116.844 119.717L116.269 120.714L238.258 191.144L238.834 190.148ZM238.26 191.145C238.272 191.152 238.285 191.159 238.298 191.167L238.873 190.17C238.859 190.162 238.846 190.155 238.832 190.147L238.26 191.145ZM238.298 191.167C238.31 191.174 238.323 191.181 238.335 191.188L238.913 190.194C238.9 190.186 238.886 190.178 238.873 190.17L238.298 191.167ZM239.681 190.637L238.912 190.193L238.337 191.189L239.105 191.633L239.681 190.637ZM239.878 191.446L239.891 191.423L238.895 190.847L238.881 190.871L239.878 191.446ZM239.063 191.639C245.761 196.043 247.938 204.964 243.879 211.996L244.875 212.571C249.241 205.009 246.899 195.415 239.696 190.678L239.063 191.639ZM243.879 211.996C239.819 219.027 231.004 221.602 223.842 218.004L223.325 219.032C231.029 222.903 240.509 220.134 244.875 212.571L243.879 211.996Z" fill="white"/>
</g>
<g id="Component 4">
<path id="Union_5" d="M-21.6704 213.92L-22.1686 214.207C-22.0181 214.468 -21.6919 214.569 -21.4207 214.438L-21.6704 213.92ZM113.479 148.798L113.284 148.256C113.265 148.263 113.247 148.271 113.229 148.279L113.479 148.798ZM-21.6725 213.916L-21.1743 213.628C-21.3283 213.361 -21.6652 213.263 -21.9384 213.406L-21.6725 213.916ZM-26.2088 206.059L-25.9 206.544C-25.6401 206.379 -25.5566 206.038 -25.7106 205.771L-26.2088 206.059ZM-26.2105 206.056L-26.5335 205.58C-26.783 205.749 -26.8594 206.083 -26.7087 206.344L-26.2105 206.056ZM97.9528 121.786L98.2758 122.262C98.2919 122.251 98.3075 122.239 98.3224 122.227L97.9528 121.786ZM100.615 119.979L100.889 120.485C100.906 120.476 100.922 120.466 100.938 120.455L100.615 119.979ZM100.686 119.93L101.185 119.643C101.105 119.504 100.971 119.405 100.815 119.37C100.659 119.334 100.496 119.365 100.363 119.454L100.686 119.93ZM100.691 119.938L100.193 120.226C100.348 120.494 100.688 120.592 100.962 120.446L100.691 119.938ZM116.505 147.329L116.201 146.841C115.938 147.005 115.852 147.348 116.007 147.617L116.505 147.329ZM116.51 147.337L116.759 147.855C116.904 147.786 117.012 147.66 117.059 147.507C117.107 147.354 117.088 147.188 117.008 147.049L116.51 147.337ZM116.433 147.374L116.184 146.856C116.166 146.864 116.149 146.874 116.132 146.884L116.433 147.374ZM-21.4207 214.438L113.728 149.316L113.229 148.279L-21.9201 213.401L-21.4207 214.438ZM-22.1708 214.204L-22.1686 214.207L-21.1722 213.632L-21.1743 213.628L-22.1708 214.204ZM-28.1988 212.446C-26.8236 214.828 -23.8225 215.685 -21.4066 214.426L-21.9384 213.406C-23.8103 214.381 -26.1366 213.716 -27.2023 211.87L-28.1988 212.446ZM-26.5177 205.573C-28.8161 207.036 -29.574 210.064 -28.1988 212.446L-27.2023 211.87C-28.2681 210.024 -27.6809 207.677 -25.9 206.544L-26.5177 205.573ZM-26.7087 206.344L-26.7071 206.346L-25.7106 205.771L-25.7122 205.768L-26.7087 206.344ZM97.6297 121.31L-26.5335 205.58L-25.8874 206.532L98.2758 122.262L97.6297 121.31ZM99.9357 119.7C99.0912 120.187 98.3061 120.739 97.5832 121.345L98.3224 122.227C98.9943 121.663 99.7246 121.15 100.511 120.696L99.9357 119.7ZM100.341 119.473C100.206 119.546 100.07 119.622 99.9357 119.7L100.511 120.696C100.636 120.624 100.762 120.553 100.889 120.485L100.341 119.473ZM100.363 119.454L100.292 119.503L100.938 120.455L101.009 120.406L100.363 119.454ZM101.189 119.65L101.185 119.643L100.188 120.218L100.193 120.226L101.189 119.65ZM122.337 125.702C117.901 118.019 108.187 115.283 100.42 119.431L100.962 120.446C108.184 116.59 117.216 119.134 121.34 126.277L122.337 125.702ZM116.809 147.818C124.285 143.165 126.772 133.385 122.337 125.702L121.34 126.277C125.464 133.421 123.151 142.515 116.201 146.841L116.809 147.818ZM117.008 147.049L117.004 147.042L116.007 147.617L116.012 147.625L117.008 147.049ZM116.683 147.892L116.759 147.855L116.26 146.819L116.184 146.856L116.683 147.892ZM116.334 148.103C116.469 148.025 116.603 147.945 116.735 147.864L116.132 146.884C116.009 146.96 115.885 147.034 115.759 147.106L116.334 148.103ZM113.673 149.339C114.58 149.012 115.471 148.601 116.334 148.103L115.759 147.106C114.955 147.57 114.127 147.953 113.284 148.256L113.673 149.339Z" fill="white"/>
</g>
<path id="&#224;&#184;&#163;&#224;&#184;&#173;&#224;&#184;&#173;&#224;&#184;&#162;&#224;&#184;&#185;&#224;&#185;&#136;&#224;&#185;&#131;&#224;&#184;&#153;&#224;&#184;&#129;&#224;&#184;&#163;&#224;&#184;&#176;&#224;&#184;&#154;&#224;&#184;&#167;&#224;&#184;&#153;&#224;&#184;&#129;&#224;&#184;&#178;&#224;&#184;&#163;" d="M130.94 151.593C132.044 152.23 133.065 152.222 133.645 151.217C134.085 150.455 133.671 149.702 133.005 149.114C131.864 148.109 131.94 147.77 132.178 147.357C132.427 146.927 132.889 146.871 133.544 147.249C133.948 147.482 134.23 147.801 134.345 148.202L134.883 148.513C134.883 148.513 135.042 148.341 135.306 147.884C135.056 147.572 134.457 147.035 133.883 146.704C132.897 146.134 131.929 146.173 131.448 147.007C131.018 147.752 131.299 148.488 132.06 149.178C133.16 150.172 133.089 150.418 132.81 150.903C132.566 151.324 132.053 151.447 131.336 151.032C130.843 150.748 130.537 150.428 130.467 149.969L129.92 149.653C129.721 149.956 129.681 150.005 129.481 150.332C129.663 150.533 129.99 151.044 130.94 151.593ZM138.581 149.44C137.702 148.932 136.79 148.896 136.278 149.079C136.19 149.231 136.089 149.448 135.985 149.711L136.577 150.053C137.072 149.693 137.573 149.695 138.218 150.068C139.124 150.59 139.305 151.209 138.808 152.07L138.14 153.227C137.638 154.097 137.012 154.249 136.097 153.721C135.604 153.437 135.29 153.028 135.26 152.664L135.752 151.812L136.362 152.164L136.699 151.582L135.353 150.805L134.282 152.661L134.416 152.739C134.604 153.325 134.926 153.906 135.724 154.367C136.935 155.066 138.135 154.934 138.865 153.669L139.533 152.513C140.289 151.203 139.854 150.175 138.581 149.44ZM143.494 152.276C142.615 151.769 141.703 151.733 141.191 151.915C141.103 152.068 141.002 152.285 140.898 152.547L141.49 152.889C141.985 152.529 142.486 152.531 143.132 152.904C144.037 153.427 144.218 154.046 143.721 154.907L143.053 156.063C142.551 156.933 141.925 157.086 141.01 156.558C140.517 156.273 140.203 155.865 140.174 155.501L140.665 154.649L141.275 155.001L141.612 154.418L140.267 153.641L139.195 155.498L139.329 155.576C139.517 156.162 139.839 156.743 140.637 157.204C141.848 157.903 143.048 157.77 143.778 156.506L144.446 155.349C145.202 154.04 144.767 153.012 143.494 152.276ZM145.825 160.187C147.044 160.891 148.164 160.712 148.775 159.654L150.08 157.394C150.266 157.071 150.348 157.011 150.606 157.124L150.837 157.221L151.096 156.773L149.374 155.779L149.115 156.227L149.315 156.378C149.541 156.545 149.531 156.646 149.344 156.969L148.039 159.229C147.63 159.938 146.949 159.999 146.187 159.559C145.425 159.119 144.993 158.499 145.402 157.79C145.708 157.261 146.231 157.121 146.751 157.421L147.316 157.748L147.644 157.387L147.758 157.19L147.068 156.791C146.512 156.47 146.456 156.091 146.704 155.66L147.02 155.113L147.988 155.672L148.289 155.152L146.612 154.184L146.016 155.215C145.628 155.888 145.856 156.342 146.187 156.701L146.182 156.71C145.679 156.587 145.05 156.702 144.652 157.393C144.072 158.397 144.605 159.482 145.825 160.187ZM146.206 162.033C146.04 162.32 145.808 162.389 145.522 162.224C145.235 162.058 145.17 161.817 145.336 161.53L145.755 160.804L144.697 160.193L144.421 160.464L144.317 160.644L144.793 160.918L144.632 161.196C144.316 161.743 144.492 162.371 145.2 162.78C145.9 163.183 146.558 163.037 146.874 162.49L147.325 161.71L146.625 161.306L146.206 162.033ZM151.009 155.754L151.734 154.499L151.017 154.085L150.292 155.34L151.009 155.754ZM150.146 162.634C150.317 162.732 150.449 162.773 150.572 162.808L150.85 162.514L150.943 162.352L150.62 162.166C150.459 162.073 150.415 161.94 150.535 161.734L152.784 157.879C153.235 157.099 154.49 157.286 155.049 156.317C155.448 155.627 155.184 154.757 154.386 154.296C153.525 153.799 152.99 153.981 152.478 154.163C152.39 154.316 152.305 154.505 152.201 154.768L152.766 155.094C153.135 154.745 153.529 154.662 154.013 154.942C154.462 155.201 154.526 155.525 154.324 155.875C153.936 156.547 152.582 156.531 152.137 157.302L149.772 161.377C149.492 161.862 149.671 162.36 150.146 162.634ZM153.569 164.658C154.394 165.134 155.007 165.046 155.402 164.879C155.305 165.11 155.264 165.325 155.244 165.505L156.23 166.075L156.52 165.573C156.155 165.314 156.138 165.22 156.345 164.861L158.012 161.974C158.199 161.651 158.281 161.591 158.539 161.704L158.77 161.801L159.028 161.353L157.307 160.359L157.048 160.807L157.247 160.958C157.474 161.125 157.463 161.226 157.277 161.549L155.76 164.177C155.277 164.412 154.649 164.444 154.003 164.071C153.384 163.714 153.102 163.168 153.49 162.496L155.369 159.24L154.15 158.536L153.886 158.994L154.094 159.15C154.312 159.311 154.303 159.39 154.116 159.713L152.713 162.143C152.128 163.156 152.627 164.114 153.569 164.658ZM158.577 167.429L158.841 166.972L158.641 166.821C158.414 166.654 158.425 166.553 158.611 166.23L159.326 164.992C159.559 164.589 159.779 164.393 160.172 164.5L160.369 164.159L159.873 163.383C160.262 163.081 160.956 163.183 161.593 163.551C162.355 163.991 162.626 164.661 162.243 165.325L160.943 167.576C160.757 167.899 160.674 167.959 160.417 167.846L160.186 167.749L159.922 168.206L161.644 169.2L161.908 168.743L161.708 168.592C161.481 168.425 161.492 168.323 161.678 168.001L162.978 165.75C163.589 164.691 163.175 163.627 161.955 162.923C160.933 162.333 159.892 162.294 159.265 162.84L159.063 163.19L159.677 164.011C159.155 163.901 158.844 164.128 158.591 164.568L157.876 165.805C157.69 166.128 157.607 166.188 157.35 166.075L157.119 165.978L156.855 166.435L158.577 167.429ZM163.966 170.661C165.069 171.297 166.09 171.289 166.67 170.285C167.11 169.522 166.696 168.769 166.031 168.182C164.89 167.176 164.966 166.837 165.204 166.425C165.452 165.994 165.915 165.939 166.57 166.317C166.973 166.55 167.256 166.868 167.371 167.269L167.909 167.58C167.909 167.58 168.068 167.409 168.332 166.951C168.081 166.639 167.483 166.102 166.909 165.771C165.922 165.201 164.955 165.241 164.473 166.075C164.044 166.819 164.324 167.555 165.085 168.246C166.186 169.24 166.115 169.486 165.835 169.97C165.592 170.392 165.079 170.514 164.362 170.1C163.868 169.815 163.563 169.495 163.493 169.036L162.946 168.72C162.747 169.024 162.707 169.072 162.506 169.399C162.689 169.6 163.015 170.112 163.966 170.661ZM170.916 170.428L171.299 170.075L171.423 169.86L170.204 169.156C169.935 169.001 169.83 168.892 169.959 168.668L170.089 168.444L169.802 168.278L169.319 168.119L169.092 168.514C168.848 168.935 169.077 169.367 169.499 169.61L170.916 170.428ZM169.352 173.136L169.735 172.784L169.86 172.568L168.64 171.864C168.371 171.709 168.266 171.601 168.395 171.376L168.525 171.152L168.238 170.987L167.756 170.828L167.528 171.222C167.285 171.644 167.442 172.034 167.864 172.277L169.352 173.136ZM172.377 175.517C173.686 176.272 174.822 175.983 175.433 174.925L176.691 172.746C176.877 172.423 176.96 172.363 177.217 172.476L177.448 172.573L177.702 172.134L175.98 171.14L175.726 171.579L175.926 171.73C176.153 171.897 176.142 171.999 175.956 172.321L174.697 174.501C174.314 175.164 173.591 175.381 172.739 174.889C171.887 174.397 171.714 173.663 172.097 172.999L173.873 169.923L172.653 169.219L172.389 169.676L172.598 169.833C172.815 169.994 172.806 170.072 172.619 170.395L171.361 172.575C170.75 173.633 171.068 174.761 172.377 175.517ZM177.31 178.376C178.538 179.086 179.745 178.838 180.434 177.645L181.149 176.408C181.806 175.269 181.36 174.115 180.195 173.442C179.468 173.022 178.523 172.919 178.045 173.002C177.921 173.217 177.803 173.484 177.691 173.718L178.279 174.046C178.612 173.76 179.084 173.625 179.843 174.051C180.637 174.498 180.833 175.257 180.372 176.055L179.74 177.149C179.243 178.01 178.481 178.192 177.682 177.731C177.216 177.461 177.03 177.163 176.911 176.831L176.373 176.52C176.228 176.688 176.068 176.882 175.955 177.056C176.177 177.459 176.682 178.014 177.31 178.376ZM182.295 181.242C183.12 181.719 183.733 181.63 184.128 181.464C184.03 181.695 183.99 181.91 183.97 182.09L184.956 182.659L185.246 182.157C184.881 181.899 184.863 181.805 185.071 181.446L186.738 178.558C186.924 178.236 187.007 178.176 187.264 178.289L187.495 178.386L187.754 177.937L186.032 176.943L185.773 177.392L185.973 177.543C186.2 177.71 186.189 177.811 186.002 178.134L184.485 180.762C184.003 180.997 183.374 181.029 182.729 180.656C182.11 180.299 181.827 179.753 182.216 179.08L184.095 175.825L182.875 175.121L182.611 175.578L182.82 175.735C183.038 175.896 183.028 175.974 182.842 176.297L181.439 178.728C180.854 179.741 181.353 180.699 182.295 181.242ZM187.302 184.014L187.566 183.557L187.366 183.405C187.14 183.239 187.151 183.137 187.337 182.814L188.052 181.577C188.285 181.173 188.505 180.978 188.898 181.085L189.094 180.744L188.598 179.967C188.987 179.666 189.682 179.768 190.319 180.136C191.081 180.576 191.351 181.246 190.968 181.91L189.669 184.161C189.482 184.484 189.4 184.544 189.142 184.431L188.911 184.333L188.647 184.791L190.369 185.785L190.633 185.327L190.434 185.176C190.207 185.01 190.218 184.908 190.404 184.585L191.704 182.334C192.315 181.276 191.901 180.212 190.681 179.508C189.659 178.918 188.617 178.878 187.99 179.425L187.789 179.775L188.403 180.596C187.88 180.486 187.57 180.713 187.316 181.152L186.602 182.39C186.415 182.713 186.333 182.773 186.075 182.66L185.844 182.563L185.58 183.02L187.302 184.014ZM194.582 188.217L194.841 187.769L194.641 187.617C194.414 187.451 194.425 187.349 194.612 187.026L196.02 184.587C196.579 183.619 196.413 182.829 195.193 182.125C194.467 181.706 193.703 181.683 193.23 181.757C193.104 181.995 192.982 182.247 192.866 182.491L193.449 182.828C193.705 182.569 194.169 182.347 194.832 182.73C195.388 183.051 195.637 183.553 195.285 184.163L193.876 186.602C193.69 186.925 193.607 186.985 193.35 186.872L193.119 186.774L192.86 187.223L194.582 188.217ZM196.904 189.677C198.007 190.314 199.028 190.306 199.608 189.301C200.048 188.539 199.634 187.786 198.969 187.199C197.828 186.193 197.904 185.854 198.142 185.442C198.39 185.011 198.853 184.955 199.508 185.333C199.911 185.566 200.194 185.885 200.309 186.286L200.847 186.597C200.847 186.597 201.006 186.425 201.27 185.968C201.019 185.656 200.421 185.119 199.847 184.788C198.86 184.218 197.893 184.258 197.411 185.092C196.982 185.836 197.262 186.572 198.023 187.262C199.124 188.256 199.053 188.503 198.774 188.987C198.53 189.408 198.017 189.531 197.3 189.116C196.806 188.832 196.501 188.512 196.431 188.053L195.884 187.737C195.685 188.041 195.645 188.089 195.444 188.416C195.627 188.617 195.954 189.128 196.904 189.677Z" fill="white"/>
<path id="&#224;&#184;&#158;&#224;&#184;&#180;&#224;&#184;&#136;&#224;&#184;&#178;&#224;&#184;&#163;&#224;&#184;&#147;&#224;&#184;&#178;&#224;&#185;&#128;&#224;&#184;&#173;&#224;&#184;&#129;&#224;&#184;&#170;&#224;&#184;&#178;&#224;&#184;&#163;&#224;&#185;&#129;&#224;&#184;&#165;&#224;&#185;&#137;&#224;&#184;&#167;" d="M18.9053 189.713L17.8256 185.793L20.681 188.688L21.7571 188.067L20.0095 183.838C19.89 183.549 19.8934 183.451 20.1404 183.237L19.8918 182.806L18.9681 183.34L20.77 187.62L20.6982 187.662L17.4388 184.294L16.802 184.662L18.0886 189.168L18.0168 189.21L15.1836 185.525L14.0626 186.172L14.3112 186.602L14.6202 186.496C14.7703 186.445 14.8952 186.516 15.0101 186.653L17.9009 190.293L18.9053 189.713ZM18.3864 182.671L18.0343 182.061L14.4022 184.158L14.4403 184.638L14.575 184.872L18.3864 182.671ZM22.3635 181.248C21.5474 181.719 21.0305 182.46 20.863 182.915C20.9731 183.127 21.2071 183.47 21.3079 183.603L21.8856 183.257C21.7903 182.906 21.8726 182.344 22.7104 181.849C23.5392 181.358 24.2838 181.55 24.7187 182.303L25.3918 183.469C25.8785 184.312 25.7749 184.982 25.0305 185.412L24.9767 185.443L23.6038 183.748L22.4201 184.432L22.6997 184.916L22.9597 184.766C23.1391 184.662 23.2522 184.693 23.4279 184.914L24.6355 186.405L25.4964 185.908C26.4919 185.333 26.8055 184.219 26.1427 183.072L25.4541 181.879C24.7965 180.74 23.619 180.523 22.3635 181.248ZM31.5448 182.416L31.2859 181.967L31.0551 182.065C30.7975 182.178 30.715 182.118 30.5286 181.795L29.1203 179.356C28.5611 178.387 27.7944 178.136 26.5748 178.84C25.8484 179.26 25.4467 179.91 25.274 180.357C25.4176 180.585 25.5753 180.816 25.7279 181.039L26.3108 180.703C26.2154 180.351 26.2543 179.838 26.9179 179.455C27.4739 179.134 28.0328 179.17 28.3849 179.78L29.7932 182.219C29.9796 182.542 29.9903 182.644 29.7637 182.81L29.564 182.962L29.8229 183.41L31.5448 182.416ZM33.9706 181.135C35.0737 180.498 35.5771 179.61 34.9972 178.605C34.5571 177.843 33.6977 177.825 32.8564 178.107C31.4148 178.593 31.1595 178.358 30.9213 177.945C30.6728 177.515 30.8558 177.086 31.5105 176.708C31.914 176.475 32.3311 176.39 32.7361 176.491L33.2742 176.18C33.2742 176.18 33.2051 175.957 32.9411 175.5C32.5458 175.56 31.7813 175.81 31.2074 176.142C30.2209 176.711 29.7713 177.569 30.2528 178.403C30.6826 179.147 31.4602 179.272 32.4389 178.958C33.8497 178.502 34.0278 178.687 34.3074 179.171C34.5507 179.592 34.4001 180.098 33.6827 180.512C33.1894 180.797 32.7596 180.901 32.3273 180.732L31.7803 181.048C31.9435 181.373 31.9656 181.432 32.1482 181.769C32.4139 181.711 33.02 181.684 33.9706 181.135ZM41.5934 176.734C42.3108 176.32 42.5563 175.771 42.5979 175.305C42.7194 175.474 42.8729 175.636 43.0482 175.774L44.0526 175.194L43.7627 174.692C43.3602 174.865 43.2974 174.901 43.0592 174.489L41.392 171.601C41.2056 171.278 41.1949 171.177 41.4215 171.01L41.6212 170.859L41.3623 170.41L39.6404 171.404L39.8993 171.853L40.1301 171.756C40.3878 171.643 40.4702 171.703 40.6566 172.025L42.1944 174.689C42.1362 175.189 41.9663 175.682 41.2848 176.075C40.7018 176.412 40.1643 176.268 39.7863 175.613L38.844 173.981C38.233 172.923 37.1942 172.697 35.9746 173.401C35.015 173.955 34.4985 174.78 34.6588 175.596L34.8607 175.946L35.798 175.871C35.499 176.223 35.482 176.711 35.7408 177.159L36.5175 178.505C36.8333 179.052 37.3625 179.057 37.802 178.803L38.3669 178.477L38.2599 178.085L38.1356 177.869L37.6334 178.159C37.472 178.252 37.3357 178.224 37.2166 178.017L36.4762 176.735C36.2329 176.313 36.2031 175.972 36.5138 175.661L36.3171 175.32L35.4322 175.341C35.3658 174.853 35.7631 174.361 36.337 174.029C37.0993 173.589 37.7255 173.742 38.1086 174.405L39.0717 176.073C39.636 177.051 40.7056 177.246 41.5934 176.734ZM48.3597 172.708L48.1008 172.259L47.8701 172.357C47.6124 172.47 47.5299 172.41 47.3435 172.087L45.9352 169.647C45.376 168.679 44.6094 168.428 43.3897 169.132C42.6633 169.552 42.2616 170.202 42.0889 170.648C42.2325 170.876 42.3903 171.108 42.5428 171.331L43.1257 170.995C43.0304 170.643 43.0692 170.13 43.7329 169.747C44.2889 169.426 44.8478 169.462 45.1998 170.072L46.6082 172.511C46.7946 172.834 46.8053 172.936 46.5787 173.102L46.379 173.253L46.6379 173.702L48.3597 172.708ZM50.2626 171.681C50.451 171.572 50.6238 171.436 50.7159 171.347L50.6088 170.955L50.5156 170.793L50.1658 170.995C50.0044 171.089 49.9106 171.071 49.8018 170.883L48.0104 167.78C47.8136 167.439 47.7901 167.357 47.9502 167.241L48.1499 167.089L47.891 166.641L46.3485 167.532L46.6074 167.98L46.8381 167.883C47.0099 167.807 47.0782 167.864 47.275 168.204L49.1338 171.424C49.3978 171.881 49.7515 171.976 50.2626 171.681ZM50.858 164.82C49.9791 165.328 49.4919 166.099 49.3941 166.634C49.4821 166.787 49.6191 166.982 49.7948 167.204L50.3867 166.862C50.3223 166.254 50.5747 165.821 51.2204 165.448C52.1262 164.925 52.7524 165.078 53.2494 165.939L53.9173 167.096C54.4196 167.966 54.2387 168.584 53.3239 169.112C52.8307 169.397 52.3198 169.465 51.9903 169.308L51.4984 168.456L52.1082 168.104L51.7717 167.521L50.4265 168.298L51.4982 170.154L51.6328 170.077C52.2345 170.208 52.8986 170.219 53.6967 169.758C54.9074 169.059 55.3931 167.953 54.6631 166.689L53.9952 165.532C53.2392 164.223 52.1314 164.085 50.858 164.82ZM58.1314 167.066L57.8673 166.609L57.6366 166.706C57.3789 166.819 57.2964 166.759 57.11 166.436L56.3955 165.199C56.1625 164.795 56.1034 164.506 56.3924 164.22L56.1957 163.879L55.2749 163.92C55.2085 163.433 55.6441 162.882 56.2808 162.515C57.0431 162.074 57.759 162.175 58.1421 162.839L59.4417 165.09C59.6281 165.413 59.6388 165.514 59.4122 165.681L59.2125 165.832L59.4766 166.289L61.1984 165.295L60.9344 164.838L60.7036 164.935C60.4459 165.048 60.3635 164.988 60.1771 164.665L58.8775 162.414C58.2665 161.356 57.138 161.183 55.9184 161.887C54.896 162.477 54.3412 163.359 54.5016 164.176L54.7035 164.525L55.7215 164.404C55.3649 164.801 55.4064 165.184 55.6601 165.623L56.3747 166.861C56.5611 167.184 56.5718 167.285 56.3452 167.452L56.1455 167.603L56.4095 168.06L58.1314 167.066ZM63.2963 157.233L62.6327 157.616C62.7818 157.936 62.7702 158.206 62.5836 158.421C62.17 158.409 61.7056 158.557 61.1945 158.853C60.2618 159.391 59.7704 160.093 59.6336 160.519C59.772 160.738 59.9646 161.01 60.0964 161.196L60.6794 160.86C60.584 160.508 60.6049 160.006 61.5376 159.468C62.264 159.048 62.8319 159.079 63.1839 159.689L63.5774 160.37L61.8466 161.37C60.9319 161.898 60.6152 162.882 61.076 163.68C61.6403 164.658 62.6073 164.613 63.2171 164.261C63.5848 164.049 63.9956 163.704 64.1128 163.493C63.9862 163.315 63.8685 163.132 63.7418 162.954L63.2037 163.265C63.1517 163.402 63.052 163.52 62.9085 163.603C62.487 163.846 62.1065 163.767 61.7855 163.211C61.4593 162.646 61.6923 162.2 62.2304 161.89L63.8984 160.927L64.8304 162.541C64.9571 162.719 65.1362 162.843 65.3394 162.905L66.2003 162.407L65.9622 161.995C65.6338 162.089 65.5554 162.098 65.2966 161.65L63.9193 159.264C63.7381 158.95 63.5252 158.727 63.2664 158.589C63.4005 158.428 63.5636 158.13 63.5707 157.708L63.2963 157.233ZM70.5257 159.91L70.2668 159.462L70.036 159.559C69.7784 159.672 69.6959 159.612 69.5095 159.289L68.1012 156.85C67.542 155.881 66.7754 155.63 65.5557 156.335C64.8293 156.754 64.4276 157.404 64.2549 157.851C64.3985 158.079 64.5562 158.311 64.7088 158.534L65.2917 158.197C65.1964 157.845 65.2352 157.333 65.8988 156.95C66.4548 156.629 67.0137 156.665 67.3658 157.275L68.7741 159.714C68.9605 160.037 68.9713 160.138 68.7447 160.305L68.545 160.456L68.8038 160.904L70.5257 159.91ZM72.9515 158.629C74.0546 157.992 74.558 157.104 73.9781 156.099C73.538 155.337 72.6786 155.319 71.8373 155.602C70.3958 156.087 70.1404 155.852 69.9022 155.439C69.6537 155.009 69.8367 154.58 70.4914 154.202C70.895 153.969 71.312 153.884 71.7171 153.985L72.2551 153.674C72.2551 153.674 72.1861 153.451 71.922 152.994C71.5267 153.055 70.7623 153.305 70.1883 153.636C69.2018 154.206 68.7523 155.063 69.2338 155.897C69.6635 156.641 70.4412 156.766 71.4198 156.453C72.8306 155.997 73.0087 156.181 73.2883 156.665C73.5317 157.087 73.3811 157.592 72.6636 158.006C72.1704 158.291 71.7406 158.396 71.3082 158.227L70.7612 158.543C70.9245 158.867 70.9466 158.926 71.1292 159.263C71.3948 159.205 72.0009 159.178 72.9515 158.629ZM76.9126 156.294C77.1009 156.186 77.2737 156.05 77.3658 155.961L77.2587 155.569L77.1655 155.407L76.8158 155.609C76.6544 155.702 76.5605 155.685 76.4518 155.496L74.6603 152.393C74.4636 152.053 74.4401 151.971 74.6001 151.854L74.7998 151.703L74.5409 151.255L72.9984 152.145L73.2573 152.594L73.4881 152.496C73.6599 152.421 73.7282 152.477 73.9249 152.818L75.7837 156.037C76.0478 156.495 76.4014 156.59 76.9126 156.294ZM79.2353 154.953C79.4236 154.845 79.5964 154.709 79.6885 154.62L79.5814 154.228L79.4882 154.066L79.1385 154.268C78.9771 154.361 78.8832 154.344 78.7745 154.155L76.983 151.052C76.7863 150.712 76.7628 150.63 76.9228 150.513L77.1225 150.362L76.8636 149.914L75.3212 150.804L75.58 151.253L75.8108 151.155C75.9826 151.08 76.0509 151.136 76.2477 151.477L78.1064 154.696C78.3705 155.154 78.7241 155.249 79.2353 154.953ZM81.9413 153.451C82.309 153.239 82.7198 152.894 82.837 152.683C82.7103 152.505 82.5926 152.322 82.4659 152.144L81.9279 152.454C81.8758 152.592 81.7762 152.709 81.6327 152.792C81.2112 153.035 80.8306 152.956 80.5096 152.4C80.1834 151.835 80.4165 151.39 80.9546 151.079L82.6226 150.116L83.5546 151.73C83.6813 151.908 83.8603 152.032 84.0636 152.094L84.9245 151.597L84.6863 151.185C84.3579 151.278 84.2796 151.288 84.0207 150.839L82.6435 148.454C82.0843 147.485 81.1293 147.343 79.9186 148.042C78.986 148.581 78.4946 149.283 78.3578 149.709C78.4962 149.928 78.6888 150.199 78.8206 150.386L79.4035 150.05C79.3082 149.698 79.3291 149.196 80.2617 148.657C80.9882 148.238 81.556 148.269 81.9081 148.879L82.3016 149.56L80.5708 150.559C79.656 151.087 79.3393 152.071 79.8001 152.87C80.3645 153.847 81.3315 153.803 81.9413 153.451ZM80.7817 145.906C80.5152 145.486 80.0974 145.404 79.649 145.663L79.0302 146.02L79.0735 146.509L79.1719 146.68L79.7907 146.322C79.9073 146.255 80.0153 146.277 80.0878 146.402L80.3829 146.913L82.2213 145.852L82.1228 145.371L82.0193 145.191L80.7817 145.906ZM87.5491 150.213C88.7777 149.504 89.1668 148.335 88.4782 147.142L87.7637 145.904C87.1061 144.765 85.8838 144.574 84.7179 145.247C83.9915 145.667 83.4298 146.434 83.2623 146.889C83.3865 147.104 83.5584 147.34 83.7058 147.554L84.2835 147.208C84.202 146.777 84.3219 146.301 85.07 145.857C85.854 145.393 86.6089 145.603 87.0697 146.401L87.7014 147.495C88.1984 148.356 87.9744 149.107 87.1763 149.568C86.71 149.837 86.3581 149.849 86.011 149.786L85.4729 150.097C85.5458 150.306 85.6342 150.542 85.7288 150.726C86.1886 150.736 86.9213 150.576 87.5491 150.213Z" fill="white"/>
<g id="Component 64">
<g id="Frame 756">
<rect x="99.6543" y="125.518" width="17.2589" height="17.2589" rx="8.62944" fill="white"/>
<path id="1" d="M106.153 138.147H111.186V136.894H109.653V130.919H107.271L105.542 133.198L106.536 133.974L108.007 132.048H108.1V136.894H106.153V138.147Z" fill="black"/>
</g>
</g>
</g>
<g id="0AB">
<g id="Component 13">
<path id="Union_6" d="M-78.6742 73.0084L-78.3702 73.4968C-78.1067 73.3328 -78.0208 72.9895 -78.176 72.7207L-78.6742 73.0084ZM-62.8598 100.4L-62.3615 100.112C-62.5167 99.8434 -62.857 99.7462 -63.1307 99.8923L-62.8598 100.4ZM-62.8552 100.408L-63.3535 100.695C-63.1946 100.97 -62.8427 101.065 -62.5676 100.906L-62.8552 100.408ZM60.4753 29.2027L60.763 29.7009C60.8951 29.6247 60.9915 29.499 61.031 29.3516C61.0705 29.2043 61.0498 29.0472 60.9735 28.9151L60.4753 29.2027ZM60.4618 29.1793L60.1457 28.6986C59.8911 28.8661 59.8112 29.203 59.9636 29.467L60.4618 29.1793ZM44.6655 1.81938L44.1673 2.10703C44.3197 2.37096 44.6515 2.47026 44.9238 2.33346L44.6655 1.81938ZM44.652 1.79594L45.1502 1.50828C45.0739 1.37615 44.9483 1.27974 44.8009 1.24024C44.6535 1.20075 44.4965 1.22143 44.3643 1.29771L44.652 1.79594ZM-78.1548 72.6985L-77.8693 73.1979L-77.8671 73.1967L-78.1548 72.6985ZM-78.2762 72.7686L-77.9885 73.2668L-77.9864 73.2655L-78.2762 72.7686ZM-78.6786 73.0009L-78.9662 72.5026C-79.2414 72.6615 -79.3356 73.0133 -79.1768 73.2885L-78.6786 73.0009ZM-78.9782 72.52C-86.4536 77.1733 -88.9412 86.9532 -84.5055 94.636L-83.5091 94.0608C-87.6334 86.9172 -85.3204 77.8233 -78.3702 73.4968L-78.9782 72.52ZM-84.5055 94.636C-80.0698 102.319 -70.3564 105.054 -62.5888 100.907L-63.1307 99.8923C-70.3527 103.748 -79.3847 101.204 -83.5091 94.0608L-84.5055 94.636ZM-63.358 100.687L-63.3535 100.695L-62.357 100.12L-62.3615 100.112L-63.358 100.687ZM-62.5676 100.906L60.763 29.7009L60.1877 28.7045L-63.1429 99.9094L-62.5676 100.906ZM60.9735 28.9151L60.96 28.8917L59.9636 29.467L59.9771 29.4904L60.9735 28.9151ZM64.9609 8.34177C69.0206 15.3733 66.8433 24.2946 60.1457 28.6986L60.7779 29.66C67.9817 24.923 70.3236 15.3289 65.9574 7.76647L64.9609 8.34177ZM44.9238 2.33346C52.0866 -1.26478 60.9013 1.31029 64.9609 8.34177L65.9574 7.76647C61.5912 0.204038 52.1115 -2.56493 44.4073 1.30531L44.9238 2.33346ZM45.1638 1.53173L45.1502 1.50828L44.1538 2.08359L44.1673 2.10703L45.1638 1.53173ZM44.3643 1.29771L-78.4424 72.2002L-77.8671 73.1967L44.9396 2.29416L44.3643 1.29771ZM-78.4403 72.199C-78.4613 72.211 -78.4822 72.223 -78.5032 72.2351L-77.9279 73.2316C-77.9084 73.2203 -77.8888 73.2091 -77.8693 73.1979L-78.4403 72.199ZM-78.5032 72.2351C-78.5242 72.2473 -78.5451 72.2594 -78.566 72.2716L-77.9864 73.2655C-77.9669 73.2542 -77.9474 73.2429 -77.9279 73.2316L-78.5032 72.2351ZM-78.5638 72.2703L-78.9662 72.5026L-78.3909 73.4991L-77.9886 73.2668L-78.5638 72.2703ZM-79.1768 73.2885L-79.1724 73.296L-78.176 72.7207L-78.1803 72.7132L-79.1768 73.2885Z" fill="white"/>
</g>
</g>
<path id="&#224;&#184;&#149;&#224;&#184;&#163;&#224;&#184;&#167;&#224;&#184;&#136;&#224;&#184;&#170;&#224;&#184;&#173;&#224;&#184;&#154;&#224;&#185;&#128;&#224;&#184;&#173;&#224;&#184;&#129;&#224;&#184;&#170;&#224;&#184;&#178;&#224;&#184;&#163;" d="M60.2064 81.2622H60.9796V79.5501H60.5515C59.516 79.5501 59.1985 79.1359 59.1985 77.7828V76.5402C59.1985 75.5599 59.4884 74.9938 60.0407 74.9938L60.8001 75.9327H60.8277L61.6009 74.9938C62.0289 75.0214 62.1946 75.339 62.1946 76.0569V81.2622H64.2657V75.9327C64.2657 74.0825 63.1749 73.1574 61.6975 73.1574L60.8277 74.262H60.8001L59.944 73.1574C58.1353 73.1574 57.1274 74.3587 57.1274 77.1891C57.1274 80.1853 57.942 81.2622 60.2064 81.2622ZM69.0147 81.4279C70.8372 81.4279 72.0384 80.5028 72.0384 78.9012C72.0384 77.5343 71.3204 76.6506 69.5807 76.4297L69.0147 76.3607C68.421 76.2916 68.0205 76.0431 68.0205 75.5737C68.0205 75.1595 68.421 74.8695 69.0147 74.8695C69.5807 74.8695 70.0916 75.0904 70.6439 75.6565L71.9694 74.4691C71.3343 73.6269 70.3539 73.1574 69.0285 73.1574C67.4406 73.1574 66.1152 73.9306 66.1152 75.6979C66.1152 77.0096 66.8607 77.7552 68.5866 78.0313L69.0147 78.1004C69.8845 78.2385 70.133 78.5836 70.133 78.9564C70.133 79.4259 69.6774 79.7158 69.0699 79.7158C68.2415 79.7158 67.5925 79.343 67.0126 78.625L65.701 79.8677C66.4603 80.8342 67.4959 81.4279 69.0147 81.4279ZM76.2768 81.4279C78.3754 81.4279 79.5491 80.061 79.5491 77.2858C79.5491 74.5243 78.3478 73.1574 76.2492 73.1574C74.758 73.1574 73.6258 73.9168 73.1564 75.2147L74.9651 76.0155C75.1032 75.408 75.4069 74.9247 76.1801 74.9247C76.9809 74.9247 77.4228 75.4908 77.4228 76.4849V78.1004C77.4228 79.0945 76.9809 79.6606 76.1801 79.6606C75.2965 79.6606 75.0755 79.1221 74.8546 78.487L73.1149 79.2464C73.6396 80.7513 74.8408 81.4279 76.2768 81.4279ZM83.8837 73.1574C82.3926 73.1574 81.3846 73.7235 80.7633 74.6624L82.075 75.8222C82.4478 75.3528 82.9448 74.8971 83.8837 74.8971C84.864 74.8971 85.2782 75.4494 85.2782 76.3193V77.8657C85.2782 79.1221 84.8364 79.633 84.2151 79.633H84.1461L83.7042 77.7552C83.4833 76.8163 83.1934 76.5402 82.4892 76.5402H81.0533V78.2661H82.1026L82.7653 81.2622H83.8975C86.3276 81.2622 87.3493 80.0886 87.3493 77.1753C87.3493 74.4553 86.2033 73.1574 83.8837 73.1574ZM96.0675 74.4415V72.9365H94.9491C94.3278 72.9365 93.9688 73.1989 93.9274 73.834C93.4442 73.406 92.7124 73.2265 91.884 73.2265C90.3652 73.2265 89.2606 73.8616 88.6945 74.7867L89.9786 75.9189C90.3514 75.4356 90.8346 74.9662 91.7735 74.9662C92.74 74.9662 93.1404 75.4632 93.1404 76.2502V76.5954H91.3317C89.5368 76.5954 88.5979 77.4238 88.5979 78.8874C88.5979 80.42 89.5368 81.2622 91.1936 81.2622H92.2015V79.5777H91.4145C90.9037 79.5777 90.6137 79.343 90.6137 78.8874V78.7355C90.6137 78.2799 90.9175 78.0175 91.4283 78.0175H93.1404V81.2622H95.1839V76.5402C95.1839 75.5737 95.0044 74.9524 94.673 74.6072V74.4415H96.0675ZM100.462 81.4279C102.754 81.4279 103.983 79.8263 103.983 77.1891C103.983 74.69 102.74 73.1574 100.379 73.1574C98.7776 73.1574 97.604 73.8754 97.1346 75.1733L99.0399 75.9741C99.2194 75.3666 99.6474 74.8695 100.434 74.8695C101.332 74.8695 101.801 75.5185 101.801 76.5126V78.3213C101.801 79.2602 101.318 79.7987 100.462 79.7987C99.606 79.7987 99.1228 79.3016 99.1228 78.4318V78.2108H100.379V76.623H98.7638C97.7145 76.623 97.1207 77.2167 97.1207 78.3765V78.4732C97.1207 80.3233 98.4324 81.4279 100.462 81.4279ZM108.937 81.4279C111.409 81.4279 112.32 80.2957 112.32 77.7552V73.3231H110.249V78.1556C110.249 79.1773 109.876 79.6882 108.937 79.6882C107.998 79.6882 107.625 79.1773 107.625 78.1556V73.3231H105.554V77.7552C105.554 80.2957 106.466 81.4279 108.937 81.4279ZM116.337 81.2622H117.525V79.5363H116.379V73.3231H114.308V79.274C114.308 80.558 114.943 81.2622 116.337 81.2622ZM121.806 81.4279C124.098 81.4279 125.327 79.8263 125.327 77.1891C125.327 74.69 124.085 73.1574 121.724 73.1574C120.122 73.1574 118.948 73.8754 118.479 75.1733L120.384 75.9741C120.564 75.3666 120.992 74.8695 121.779 74.8695C122.676 74.8695 123.146 75.5185 123.146 76.5126V78.3213C123.146 79.2602 122.662 79.7987 121.806 79.7987C120.95 79.7987 120.467 79.3016 120.467 78.4318V78.2108H121.724V76.623H120.108C119.059 76.623 118.465 77.2167 118.465 78.3765V78.4732C118.465 80.3233 119.777 81.4279 121.806 81.4279ZM130.282 73.1574C128.045 73.1574 126.761 74.4001 126.761 76.5816V77.2029H128.68V77.272C127.81 77.4514 126.968 78.059 126.968 79.3016V81.2622H129.039V79.1773C129.039 77.7966 129.412 77.3134 130.24 77.2581V75.836H128.749C128.873 75.2147 129.384 74.8419 130.199 74.8419C131.151 74.8419 131.676 75.3804 131.676 76.4159V81.2622H133.747V76.5816C133.747 74.4139 132.587 73.1574 130.282 73.1574ZM142.734 74.4415V72.9365H141.616C140.994 72.9365 140.635 73.1989 140.594 73.834C140.111 73.406 139.379 73.2265 138.55 73.2265C137.032 73.2265 135.927 73.8616 135.361 74.7867L136.645 75.9189C137.018 75.4356 137.501 74.9662 138.44 74.9662C139.406 74.9662 139.807 75.4632 139.807 76.2502V76.5954H137.998C136.203 76.5954 135.264 77.4238 135.264 78.8874C135.264 80.42 136.203 81.2622 137.86 81.2622H138.868V79.5777H138.081C137.57 79.5777 137.28 79.343 137.28 78.8874V78.7355C137.28 78.2799 137.584 78.0175 138.095 78.0175H139.807V81.2622H141.85V76.5402C141.85 75.5737 141.671 74.9524 141.339 74.6072V74.4415H142.734ZM147.17 81.2622H149.241V76.1122C149.241 74.2068 148.15 73.1574 146.203 73.1574C144.671 73.1574 143.746 73.7373 143.124 74.69L144.422 75.8498C144.754 75.3528 145.292 74.8971 146.079 74.8971C146.825 74.8971 147.17 75.3942 147.17 76.1674V81.2622ZM153.988 81.4279C155.81 81.4279 157.011 80.5028 157.011 78.9012C157.011 77.5343 156.293 76.6506 154.554 76.4297L153.988 76.3607C153.394 76.2916 152.994 76.0431 152.994 75.5737C152.994 75.1595 153.394 74.8695 153.988 74.8695C154.554 74.8695 155.065 75.0904 155.617 75.6565L156.942 74.4691C156.307 73.6269 155.327 73.1574 154.001 73.1574C152.414 73.1574 151.088 73.9306 151.088 75.6979C151.088 77.0096 151.834 77.7552 153.56 78.0313L153.988 78.1004C154.858 78.2385 155.106 78.5836 155.106 78.9564C155.106 79.4259 154.65 79.7158 154.043 79.7158C153.214 79.7158 152.566 79.343 151.986 78.625L150.674 79.8677C151.433 80.8342 152.469 81.4279 153.988 81.4279Z" fill="white"/>
<g id="Component 608">
<circle id="Ellipse 120" cx="231.398" cy="176.719" r="6.90355" transform="rotate(14.3759 231.398 176.719)" fill="#0031DE"/>
<path id="Line 53" d="M237.339 173.203L225.457 180.236" stroke="white" stroke-width="0.460237"/>
<path id="Line 54" d="M227.881 170.778L234.914 182.66" stroke="white" stroke-width="0.460237"/>
<path id="Line 55" d="M233.111 170.032L229.683 183.407" stroke="white" stroke-width="0.460237"/>
<path id="Line 56" d="M224.71 175.005L238.085 178.433" stroke="white" stroke-width="0.460237"/>
</g>
<g id="Component 608_2">
<circle id="Ellipse 120_2" cx="244.054" cy="169.816" r="6.90355" transform="rotate(-15.8142 244.054 169.816)" fill="#9B8CCD"/>
<path id="Line 53_2" d="M247.421 163.789L240.688 175.843" stroke="black" stroke-width="0.460237"/>
<path id="Line 54_2" d="M238.027 166.449L250.082 173.182" stroke="black" stroke-width="0.460237"/>
<path id="Line 55_2" d="M242.173 163.173L245.936 176.458" stroke="black" stroke-width="0.460237"/>
<path id="Line 56_2" d="M237.412 171.697L250.697 167.935" stroke="black" stroke-width="0.460237"/>
</g>
<g id="Component 608_3">
<circle id="Ellipse 120_3" cx="230.247" cy="161.761" r="6.90355" transform="rotate(73.9028 230.247 161.761)" fill="#EFFF8B"/>
<path id="Line 53_3" d="M236.29 165.098L224.203 158.425" stroke="black" stroke-width="0.460237"/>
<path id="Line 54_3" d="M233.584 155.718L226.911 167.805" stroke="black" stroke-width="0.460237"/>
<path id="Line 55_3" d="M236.88 159.847L223.614 163.675" stroke="black" stroke-width="0.460237"/>
<path id="Line 56_3" d="M228.333 155.128L232.161 168.394" stroke="black" stroke-width="0.460237"/>
</g>
<g id="Component 608_4">
<circle id="Ellipse 120_4" cx="255.56" cy="161.761" r="6.90355" transform="rotate(-11.6219 255.56 161.761)" fill="#49AB93"/>
<path id="Line 53_4" d="M259.357 155.997L251.761 167.526" stroke="white" stroke-width="0.460237"/>
<path id="Line 54_4" d="M249.795 157.963L261.325 165.56" stroke="white" stroke-width="0.460237"/>
<path id="Line 55_4" d="M254.169 155L256.95 168.524" stroke="white" stroke-width="0.460237"/>
<path id="Line 56_4" d="M248.798 163.152L262.322 160.371" stroke="white" stroke-width="0.460237"/>
</g>
<g id="Component 602">
<circle id="Ellipse 120_5" cx="205.509" cy="147.954" r="6.90355" transform="rotate(16.5631 205.509 147.954)" fill="#9B8CCD"/>
<path id="Line 53_5" d="M211.58 144.667L199.439 151.242" stroke="black" stroke-width="0.460237"/>
<path id="Line 54_5" d="M202.222 141.884L208.796 154.025" stroke="black" stroke-width="0.460237"/>
<path id="Line 55_5" d="M207.478 141.337L203.542 154.572" stroke="black" stroke-width="0.460237"/>
<path id="Line 56_5" d="M198.893 145.986L212.127 149.922" stroke="black" stroke-width="0.460237"/>
</g>
<g id="Component 601">
<circle id="Ellipse 120_6" cx="193.428" cy="154.858" r="6.90355" transform="rotate(-25.5085 193.428 154.858)" fill="#EFFF8B"/>
<path id="Line 53_6" d="M195.731 148.35L191.124 161.365" stroke="black" stroke-width="0.460237"/>
<path id="Line 54_6" d="M186.92 152.554L199.936 157.161" stroke="black" stroke-width="0.460237"/>
<path id="Line 55_6" d="M190.455 148.627L196.401 161.088" stroke="black" stroke-width="0.460237"/>
<path id="Line 56_6" d="M187.197 157.831L199.658 151.885" stroke="black" stroke-width="0.460237"/>
</g>
<g id="Component 602_2">
<circle id="Ellipse 120_7" cx="255.56" cy="147.954" r="6.90355" transform="rotate(14.5431 255.56 147.954)" fill="#EFFF8B"/>
<path id="Line 53_7" d="M261.511 144.455L249.609 151.453" stroke="black" stroke-width="0.460237"/>
<path id="Line 54_7" d="M252.061 142.003L259.059 153.905" stroke="black" stroke-width="0.460237"/>
<path id="Line 55_7" d="M257.293 141.272L253.826 154.637" stroke="black" stroke-width="0.460237"/>
<path id="Line 56_7" d="M248.877 146.221L262.242 149.688" stroke="black" stroke-width="0.460237"/>
</g>
<g id="Component 601_2">
<circle id="Ellipse 120_8" cx="206.084" cy="161.761" r="6.90355" fill="#EFFF8B"/>
<path id="Line 53_8" d="M210.966 156.88L201.203 166.643" stroke="black" stroke-width="0.460237"/>
<path id="Line 54_8" d="M201.203 156.88L210.966 166.643" stroke="black" stroke-width="0.460237"/>
<path id="Line 55_8" d="M206.085 154.858L206.085 168.665" stroke="black" stroke-width="0.460237"/>
<path id="Line 56_8" d="M199.181 161.761L212.988 161.761" stroke="black" stroke-width="0.460237"/>
</g>
<g id="Component 602_3">
<circle id="Ellipse 120_9" cx="218.165" cy="169.816" r="6.90355" transform="rotate(17.8222 218.165 169.816)" fill="#EFFF8B"/>
<path id="Line 53_9" d="M224.307 166.663L212.024 172.969" stroke="black" stroke-width="0.460237"/>
<path id="Line 54_9" d="M215.013 163.674L221.319 175.957" stroke="black" stroke-width="0.460237"/>
<path id="Line 55_9" d="M220.278 163.244L216.052 176.388" stroke="black" stroke-width="0.460237"/>
<path id="Line 56_9" d="M211.593 167.703L224.737 171.929" stroke="black" stroke-width="0.460237"/>
</g>
<g id="Component 608_5">
<circle id="Ellipse 120_10" cx="230.247" cy="147.954" r="6.90355" transform="rotate(-22.4946 230.247 147.954)" fill="#EFFF8B"/>
<path id="Line 53_10" d="M232.89 141.576L227.605 154.332" stroke="black" stroke-width="0.460237"/>
<path id="Line 54_10" d="M223.869 145.312L236.625 150.596" stroke="black" stroke-width="0.460237"/>
<path id="Line 55_10" d="M227.605 141.576L232.888 154.332" stroke="black" stroke-width="0.460237"/>
<path id="Line 56_10" d="M223.869 150.595L236.626 145.313" stroke="black" stroke-width="0.460237"/>
</g>
<g id="Component 602_4">
<circle id="Ellipse 120_11" cx="242.904" cy="153.707" r="6.90355" fill="#EFFF8B"/>
<path id="Line 53_11" d="M247.785 148.826L238.022 158.589" stroke="black" stroke-width="0.575296"/>
<path id="Line 54_11" d="M238.021 148.826L247.785 158.589" stroke="black" stroke-width="0.575296"/>
</g>
<g id="Component 608_6">
<circle id="Ellipse 120_12" cx="268.216" cy="154.858" r="6.90355" transform="rotate(14.5838 268.216 154.858)" fill="#EFFF8B"/>
<path id="Line 53_12" d="M274.17 151.363L262.263 158.353" stroke="black" stroke-width="0.575296"/>
<path id="Line 54_12" d="M264.722 148.905L271.712 160.812" stroke="black" stroke-width="0.575296"/>
</g>
<g id="Component 608_7">
<circle id="Ellipse 120_13" cx="244.054" cy="139.9" r="6.90355" transform="rotate(-22.4096 244.054 139.9)" fill="#49AB93"/>
<path id="Line 53_13" d="M246.706 133.526L241.402 146.274" stroke="white" stroke-width="0.575296"/>
<path id="Line 54_13" d="M237.681 137.248L250.428 142.552" stroke="white" stroke-width="0.575296"/>
</g>
<g id="Component 605">
<circle id="Ellipse 120_14" cx="218.166" cy="154.858" r="6.90355" fill="#49AB93"/>
<path id="Line 53_14" d="M223.048 149.976L213.285 159.739" stroke="white" stroke-width="0.575296"/>
<path id="Line 54_14" d="M213.284 149.976L223.047 159.739" stroke="white" stroke-width="0.575296"/>
</g>
</g>
</g>
</g>
<circle id="Ellipse 185" cx="152.5" cy="152.5" r="151.5" stroke="white" stroke-width="2"/>
<g id="Group 19">
<path id="Star 2" d="M153.5 281L157.9 290.721L165.088 282.835L166.268 293.44L175.542 288.162L173.387 298.613L183.838 296.458L178.56 305.732L189.165 306.912L181.279 314.1L191 318.5L181.279 322.9L189.165 330.088L178.56 331.268L183.838 340.542L173.387 338.387L175.542 348.838L166.268 343.56L165.088 354.165L157.9 346.279L153.5 356L149.1 346.279L141.912 354.165L140.732 343.56L131.458 348.838L133.613 338.387L123.162 340.542L128.44 331.268L117.835 330.088L125.721 322.9L116 318.5L125.721 314.1L117.835 306.912L128.44 305.732L123.162 296.458L133.613 298.613L131.458 288.162L140.732 293.44L141.912 282.835L149.1 290.721L153.5 281Z" fill="#FF8058"/>
<path id="3" d="M153.255 329.36C158.763 329.36 162.363 326.336 162.363 321.944V321.044C162.363 318.38 160.671 316.724 158.799 316.292V316.256C160.635 315.752 161.859 314.06 161.859 311.9V311.288C161.823 306.5 157.863 304.628 153.435 304.628C150.051 304.628 146.523 305.924 144.543 307.148C144.543 308.732 144.759 310.748 145.011 312.08H150.735C150.843 310.82 151.815 310.208 152.859 310.208C154.191 310.208 154.839 310.892 154.839 311.864V312.404C154.839 313.844 154.299 314.384 153.219 314.384H150.303V319.208L153.435 319.46C154.767 319.568 155.307 320.216 155.307 321.368V321.944C155.307 322.844 154.371 323.78 153.039 323.78C151.563 323.78 150.771 323.276 150.483 322.268H144.723C144.507 323.708 144.327 325.544 144.363 327.272C145.731 328.136 149.511 329.36 153.255 329.36Z" fill="black"/>
</g>
</g>
</svg>
