<svg width="306" height="356" viewBox="0 0 306 356" fill="none" xmlns="http://www.w3.org/2000/svg">
<g id="rank01">
<g id="Mask group">
<mask id="mask0_170_34910" style="mask-type:alpha" maskUnits="userSpaceOnUse" x="3" y="3" width="301" height="300">
<circle id="Ellipse 184" cx="153.5" cy="153" r="150" fill="white"/>
</mask>
<g mask="url(#mask0_170_34910)">
<g id="main_diagram">
<path id="&#224;&#184;&#170;&#224;&#185;&#136;&#224;&#184;&#135;&#224;&#185;&#131;&#224;&#184;&#171;&#224;&#185;&#137; &#224;&#184;&#153;&#224;&#184;&#178;&#224;&#184;&#162;&#224;&#184;&#129;&#224;&#184;&#163;&#224;&#184;&#177;&#224;&#184;&#144;&#224;&#184;&#161;&#224;&#184;&#153;&#224;&#184;&#149;&#224;&#184;&#163;&#224;&#184;&#181; &#224;&#185;&#131;&#224;&#184;&#171;&#224;&#185;&#137;&#224;&#184;&#132;&#224;&#184;&#179;&#224;&#184;&#163;&#224;&#184;&#177;&#224;&#184;&#154;&#224;&#184;&#163;&#224;&#184;&#173;&#224;&#184;&#135;" d="M28.8036 115.752V114.786H27.5333C27.05 114.786 26.7325 115.048 26.7325 115.449V115.545C26.2769 115.241 25.6693 115.103 24.9652 115.103C23.5983 115.103 22.6456 115.725 22.0795 116.636L22.8113 117.34C23.2393 116.636 23.9435 116.098 24.9376 116.098C26.263 116.098 26.8982 116.691 26.8982 118.086V118.5H25.2137C22.9908 118.5 21.9276 119.287 21.9276 120.861C21.9276 122.38 22.9355 123.139 24.5233 123.139H25.338V122.131H24.6614C23.6673 122.131 23.115 121.772 23.115 120.971V120.612C23.115 119.922 23.7363 119.508 24.979 119.508H26.8982V123.139H28.0304V117.961C28.0304 117.202 27.8371 116.553 27.3814 116.07V115.752H28.8036ZM26.9394 114.165H28.0163V111.873H26.9394V114.165ZM32.2512 123.139H33.1211C34.9022 123.139 35.7997 122.325 35.7997 119.687V117.202C35.7997 115.959 35.2888 115.269 34.2256 115.269H33.2039V116.236H34.6675V120.171C34.6675 121.662 34.2118 122.145 33.1901 122.145H33.0658L30.8429 115.269H29.6969L32.2512 123.139ZM39.5981 123.139H40.9788V122.173H39.5291V114.675C40.3437 114.496 41.2826 113.861 41.2826 112.508C41.2826 111.237 40.4127 110.409 39.0596 110.409C37.8722 110.409 37.03 111.03 36.6848 112.08L37.6099 112.66C37.8584 111.831 38.3003 111.389 39.0182 111.389C39.7086 111.389 40.1228 111.804 40.1228 112.508V112.66C40.1228 113.516 39.4877 114.026 38.4245 114.068V121.966C38.4245 122.656 38.8387 123.139 39.5981 123.139ZM42.527 123.139H43.6591V118.942H45.9373C46.8486 118.942 47.2352 119.397 47.2352 120.447V123.139H48.395V120.253C48.395 119.066 47.8565 118.293 46.9038 118.031V117.975C47.6494 117.699 48.3397 117.161 48.3397 116.18V115.269H47.2076V116.539C47.2076 117.133 46.9176 117.934 45.7578 117.934H43.6591V115.269H42.527V123.139ZM45.6991 114.165H48.9162V113.253H46.6104V113.129C46.6104 112.342 46.3205 112.08 45.5473 112.08H44.7326V112.991H45.6991V114.165ZM56.1418 123.305C57.3845 123.305 58.0472 122.628 58.3372 121.814H58.42V123.139H60.4911V115.2H58.42V120.323C58.42 121.123 57.6606 121.51 56.9288 121.51C56.0728 121.51 55.769 120.999 55.769 119.964V115.2H53.698V120.24C53.698 122.186 54.554 123.305 56.1418 123.305ZM65.5554 123.139H67.6264V117.989C67.6264 116.084 66.5357 115.034 64.5889 115.034C63.0563 115.034 62.1312 115.614 61.5099 116.567L62.8078 117.727C63.1391 117.23 63.6776 116.774 64.4646 116.774C65.2102 116.774 65.5554 117.271 65.5554 118.044V123.139ZM72.6217 123.305C75.0932 123.305 76.0044 122.173 76.0044 119.632V115.2H73.9334V120.033C73.9334 121.054 73.5606 121.565 72.6217 121.565C71.7242 121.565 71.2686 121.04 71.2686 120.019V119.66H72.6631V118.113H72.456C71.7933 118.113 71.2824 117.603 71.2824 116.926V116.788H72.5527V115.2H71.0477C69.9569 115.2 69.377 115.794 69.377 116.595V116.636C69.377 117.52 70.0812 118.072 71.0753 118.169V118.251H70.9372C69.8879 118.251 69.1975 119.19 69.1975 120.336V120.461C69.1975 122.269 70.4402 123.305 72.6217 123.305ZM81.2701 115.034C79.0334 115.034 77.7493 116.277 77.7493 118.459V119.08H79.6685V119.149C78.7987 119.328 77.9564 119.936 77.9564 121.179V123.139H80.0275V121.054C80.0275 119.674 80.4003 119.19 81.2287 119.135V117.713H79.7375C79.8618 117.092 80.3727 116.719 81.1873 116.719C82.14 116.719 82.6646 117.257 82.6646 118.293V123.139H84.7357V118.459C84.7357 116.291 83.5759 115.034 81.2701 115.034ZM89.4837 123.305C91.3063 123.305 92.5075 122.38 92.5075 120.778C92.5075 119.411 91.7895 118.528 90.0498 118.307L89.4837 118.238C88.89 118.169 88.4896 117.92 88.4896 117.451C88.4896 117.036 88.89 116.746 89.4837 116.746C90.0498 116.746 90.5607 116.967 91.113 117.533L92.4385 116.346C91.8033 115.504 90.823 115.034 89.4975 115.034C87.9097 115.034 86.5842 115.808 86.5842 117.575C86.5842 118.887 87.3298 119.632 89.0557 119.908L89.4837 119.977C90.3536 120.115 90.6021 120.461 90.6021 120.833C90.6021 121.303 90.1465 121.593 89.539 121.593C88.7105 121.593 88.0616 121.22 87.4817 120.502L86.17 121.745C86.9294 122.711 87.9649 123.305 89.4837 123.305ZM91.0518 114.234H93.7166V112.715H90.8999V111.5H89.0636V112.204C89.0636 113.598 89.7678 114.234 91.0518 114.234ZM101.15 116.318V114.813H100.06C99.3278 114.813 99.0378 115.076 99.0102 115.808C99.0102 115.794 98.9964 115.794 98.9964 115.794C98.4441 115.297 97.7261 115.103 96.8287 115.103C95.3375 115.103 94.3434 115.67 93.7221 116.608L95.0338 117.768C95.4756 117.133 96.0831 116.843 96.7873 116.843C97.6847 116.843 98.237 117.368 98.237 118.403V119.743C98.237 120.999 97.7952 121.51 97.1739 121.51H97.1048L96.663 119.632C96.4421 118.693 96.1521 118.417 95.448 118.417H94.012V120.143H95.0614L95.7241 123.139H96.8563C99.1621 123.139 100.308 121.814 100.308 119.121C100.308 118.044 100.129 117.188 99.7558 116.567V116.318H101.15ZM98.5684 124.299C98.5684 124.741 98.3613 125.003 98.0161 125.003C97.5605 125.003 97.2291 124.63 97.16 123.83H95.6827L95.3789 124.768H94.012V126.425H95.5446C96.3316 126.425 96.6216 126.232 96.8701 125.376L96.9806 124.989H97.0496C97.2705 125.983 97.9609 126.563 98.8307 126.563C99.7558 126.563 100.308 125.928 100.308 124.837V123.83H98.5684V124.299ZM106.874 123.305C108.558 123.305 109.345 122.256 109.345 120.433V115.2H107.274V119.936C107.274 120.999 106.97 121.51 106.1 121.51C105.313 121.51 104.568 121.123 104.568 120.295V115.2H102.497V123.139H104.568V121.91H104.651C104.913 122.67 105.52 123.305 106.874 123.305ZM113.662 123.305C114.905 123.305 115.568 122.628 115.858 121.814H115.941V123.139H118.012V115.2H115.941V120.323C115.941 121.123 115.181 121.51 114.449 121.51C113.593 121.51 113.29 120.999 113.29 119.964V115.2H111.219V120.24C111.219 122.186 112.075 123.305 113.662 123.305ZM122.717 123.139H123.49V121.427H123.062C122.027 121.427 121.709 121.013 121.709 119.66V118.417C121.709 117.437 121.999 116.871 122.551 116.871L123.311 117.81H123.338L124.112 116.871C124.54 116.898 124.705 117.216 124.705 117.934V123.139H126.776V117.81C126.776 115.959 125.686 115.034 124.208 115.034L123.338 116.139H123.311L122.455 115.034C120.646 115.034 119.638 116.236 119.638 119.066C119.638 122.062 120.453 123.139 122.717 123.139ZM131.525 123.305C133.348 123.305 134.549 122.38 134.549 120.778C134.549 119.411 133.831 118.528 132.091 118.307L131.525 118.238C130.932 118.169 130.531 117.92 130.531 117.451C130.531 117.036 130.932 116.746 131.525 116.746C132.091 116.746 132.602 116.967 133.155 117.533L134.48 116.346C133.845 115.504 132.865 115.034 131.539 115.034C129.951 115.034 128.626 115.808 128.626 117.575C128.626 118.887 129.371 119.632 131.097 119.908L131.525 119.977C132.395 120.115 132.644 120.461 132.644 120.833C132.644 121.303 132.188 121.593 131.581 121.593C130.752 121.593 130.103 121.22 129.523 120.502L128.212 121.745C128.971 122.711 130.007 123.305 131.525 123.305ZM128.468 114.234H132.555C133.839 114.234 134.543 113.598 134.543 112.204V111.155H132.679V112.715H128.468V114.234ZM48.3691 142.139H49.7498V141.173H48.3001V133.675C49.1147 133.496 50.0536 132.861 50.0536 131.508C50.0536 130.237 49.1838 129.409 47.8307 129.409C46.6432 129.409 45.801 130.03 45.4558 131.08L46.3809 131.66C46.6294 130.831 47.0713 130.389 47.7892 130.389C48.4796 130.389 48.8938 130.804 48.8938 131.508V131.66C48.8938 132.516 48.2587 133.026 47.1955 133.068V140.966C47.1955 141.656 47.6097 142.139 48.3691 142.139ZM51.298 142.139H52.4302V137.942H54.7083C55.6196 137.942 56.0062 138.397 56.0062 139.447V142.139H57.166V139.253C57.166 138.066 56.6275 137.293 55.6748 137.031V136.975C56.4204 136.699 57.1108 136.161 57.1108 135.18V134.269H55.9786V135.539C55.9786 136.133 55.6886 136.934 54.5288 136.934H52.4302V134.269H51.298V142.139ZM54.4702 133.165H57.6872V132.253H55.3814V132.129C55.3814 131.342 55.0915 131.08 54.3183 131.08H53.5037V131.991H54.4702V133.165ZM59.3993 142.139H60.5315V140.22C60.5315 139.06 61.3323 138.77 62.0641 138.77H63.072V137.638H62.423C61.3737 137.638 60.8352 138.287 60.5867 138.991H60.5315V137.155C60.5315 135.829 61.2909 135.098 62.5335 135.098C63.7761 135.098 64.5355 135.829 64.5355 137.155V142.139H65.6677V137.086C65.6677 135.263 64.5908 134.103 62.5335 134.103C60.4762 134.103 59.3993 135.263 59.3993 137.086V142.139ZM64.8994 133.206C65.8797 133.206 66.3077 132.695 66.3077 132.005V131.646C66.3077 130.955 65.8797 130.445 64.8994 130.445C63.9191 130.445 63.491 130.955 63.491 131.646V132.005C63.491 132.695 63.9191 133.206 64.8994 133.206ZM64.8994 132.405C64.5542 132.405 64.3747 132.212 64.3747 131.825C64.3747 131.439 64.5542 131.245 64.8994 131.245C65.2446 131.245 65.424 131.439 65.424 131.825C65.424 132.212 65.2446 132.405 64.8994 132.405ZM70.9857 142.139H72.1179V136.506C72.1179 134.973 71.1928 134.103 69.5774 134.103C68.39 134.103 67.4511 134.614 66.9678 135.498L67.7272 136.188C68.1691 135.526 68.7075 135.098 69.5498 135.098C70.5025 135.098 70.9857 135.553 70.9857 136.63V142.139ZM76.8503 142.305C78.4933 142.305 79.5703 141.407 79.5703 139.861C79.5703 138.674 78.9075 137.928 77.3335 137.707L76.726 137.624C75.8286 137.5 75.2763 137.113 75.2763 136.354C75.2763 135.595 75.8286 135.098 76.7536 135.098C77.6649 135.098 78.3415 135.608 78.6728 136.092L79.5013 135.374C78.8523 134.573 78.0239 134.103 76.8365 134.103C75.3867 134.103 74.1855 134.863 74.1855 136.409C74.1855 137.873 75.2625 138.397 76.5741 138.591L77.1817 138.674C78.1482 138.812 78.4795 139.392 78.4795 139.999C78.4795 140.814 77.8582 141.311 76.9193 141.311C75.9666 141.311 75.2901 140.897 74.6688 140.068L73.8541 140.758C74.5583 141.684 75.4558 142.305 76.8503 142.305ZM78.0983 133.165H80.8597V132.253H77.5875V131.37H76.5381V131.77C76.5381 132.75 76.9938 133.165 78.0983 133.165ZM84.4146 142.305C86.3614 142.305 87.397 141.214 87.397 139.323V134.269H86.2648V139.157C86.2648 140.579 85.6297 141.311 84.4146 141.311C83.1858 141.311 82.5507 140.579 82.5507 139.157V134.269H81.4185V139.323C81.4185 141.214 82.454 142.305 84.4146 142.305ZM92.1271 142.305C93.7701 142.305 94.8471 141.407 94.8471 139.861C94.8471 138.674 94.1844 137.928 92.6103 137.707L92.0028 137.624C91.1054 137.5 90.5531 137.113 90.5531 136.354C90.5531 135.595 91.1054 135.098 92.0304 135.098C92.9417 135.098 93.6183 135.608 93.9496 136.092L94.7781 135.374C94.1291 134.573 93.3007 134.103 92.1133 134.103C90.6635 134.103 89.4623 134.863 89.4623 136.409C89.4623 137.873 90.5393 138.397 91.851 138.591L92.4585 138.674C93.425 138.812 93.7563 139.392 93.7563 139.999C93.7563 140.814 93.135 141.311 92.1961 141.311C91.2434 141.311 90.5669 140.897 89.9456 140.068L89.131 140.758C89.8351 141.684 90.7326 142.305 92.1271 142.305ZM99.3739 142.305C101.624 142.305 102.66 140.979 102.66 138.204C102.66 135.512 101.597 134.103 99.3325 134.103C97.9932 134.103 97.0405 134.587 96.4192 135.498L97.1786 136.174C97.6342 135.498 98.3107 135.098 99.3048 135.098C100.686 135.098 101.473 135.954 101.473 137.459V138.977C101.473 140.538 100.768 141.311 99.3739 141.311C97.9379 141.311 97.3304 140.634 97.3304 138.977V138.563H98.7664V137.597H97.6618C96.7505 137.597 96.2259 138.052 96.2259 138.991V139.102C96.2259 141.131 97.3719 142.305 99.3739 142.305ZM106.255 142.139H107.125C108.906 142.139 109.804 141.325 109.804 138.687V136.202C109.804 134.959 109.293 134.269 108.23 134.269H107.208V135.236H108.672V139.171C108.672 140.662 108.216 141.145 107.194 141.145H107.07L104.847 134.269H103.701L106.255 142.139Z" fill="white"/>
<g id="08">
<g id="Component 67">
<path id="Union" d="M63.4884 84.6355L64.0637 84.6355C64.0637 84.9366 63.8316 85.1868 63.5313 85.2092L63.4884 84.6355ZM-86.1154 95.8128L-86.2173 95.2466C-86.1977 95.2431 -86.178 95.2406 -86.1583 95.2391L-86.1154 95.8128ZM63.4884 84.6314L62.9131 84.6314C62.9131 84.3233 63.1559 84.0699 63.4637 84.0566L63.4884 84.6314ZM63.4884 75.5587L63.4637 76.1335C63.1558 76.1202 62.9131 75.8668 62.9131 75.5587L63.4884 75.5587ZM63.4884 75.5553L63.5302 74.9816C63.8309 75.0035 64.0637 75.2538 64.0637 75.5553L63.4884 75.5553ZM-86.1746 64.6568L-86.2163 65.2306C-86.2357 65.2292 -86.2551 65.2268 -86.2743 65.2234L-86.1746 64.6568ZM-89.3849 64.423L-89.3689 64.9981C-89.3882 64.9987 -89.4075 64.9982 -89.4267 64.9968L-89.3849 64.423ZM-89.4703 64.4168L-90.0456 64.4168C-90.0456 64.257 -89.9791 64.1044 -89.862 63.9955C-89.745 63.8867 -89.5879 63.8314 -89.4285 63.8431L-89.4703 64.4168ZM-89.4703 64.4257L-88.895 64.4257C-88.895 64.7359 -89.1411 64.9903 -89.4512 65.0006L-89.4703 64.4257ZM-89.4703 96.0545L-89.4512 95.4795C-89.1411 95.4898 -88.895 95.7442 -88.895 96.0545L-89.4703 96.0545ZM-89.4703 96.0635L-89.4274 96.6372C-89.587 96.6491 -89.7443 96.594 -89.8616 96.4852C-89.9789 96.3763 -90.0456 96.2235 -90.0456 96.0635L-89.4703 96.0635ZM-89.3852 96.0571L-89.4281 95.4834C-89.4085 95.482 -89.3888 95.4815 -89.3692 95.482L-89.3852 96.0571ZM63.5313 85.2092L-86.0725 96.3865L-86.1583 95.2391L63.4456 84.0618L63.5313 85.2092ZM64.0637 84.6314L64.0637 84.6355L62.9131 84.6355L62.9131 84.6314L64.0637 84.6314ZM68.4053 80.095C68.4053 82.8455 66.2351 85.0887 63.5132 85.2061L63.4637 84.0566C65.5726 83.9656 67.2547 82.2266 67.2547 80.095L68.4053 80.095ZM63.5132 74.984C66.2351 75.1014 68.4053 77.3446 68.4053 80.095L67.2547 80.095C67.2547 77.9635 65.5726 76.2244 63.4637 76.1335L63.5132 74.984ZM64.0637 75.5553L64.0637 75.5587L62.9131 75.5587L62.9131 75.5553L64.0637 75.5553ZM-86.1328 64.0831L63.5302 74.9816L63.4467 76.1291L-86.2163 65.2306L-86.1328 64.0831ZM-88.9355 63.8415C-87.9601 63.8415 -87.0042 63.9267 -86.0749 64.0902L-86.2743 65.2234C-87.138 65.0714 -88.0273 64.9921 -88.9355 64.9921L-88.9355 63.8415ZM-89.401 63.848C-89.2463 63.8437 -89.0912 63.8415 -88.9355 63.8415L-88.9355 64.9921C-89.0805 64.9921 -89.2249 64.9941 -89.3689 64.9981L-89.401 63.848ZM-89.4285 63.8431L-89.3432 63.8493L-89.4267 64.9968L-89.5121 64.9906L-89.4285 63.8431ZM-90.0456 64.4257L-90.0456 64.4168L-88.895 64.4168L-88.895 64.4257L-90.0456 64.4257ZM-105.334 80.2401C-105.334 71.3688 -98.2898 64.1429 -89.4894 63.8507L-89.4512 65.0006C-97.6335 65.2724 -104.183 71.9914 -104.183 80.2401L-105.334 80.2401ZM-89.4894 96.6295C-98.2898 96.3372 -105.334 89.1114 -105.334 80.2401L-104.183 80.2401C-104.183 88.4888 -97.6335 95.2078 -89.4512 95.4795L-89.4894 96.6295ZM-90.0456 96.0635L-90.0456 96.0545L-88.895 96.0545L-88.895 96.0635L-90.0456 96.0635ZM-89.3424 96.6308L-89.4274 96.6372L-89.5131 95.4898L-89.4281 95.4834L-89.3424 96.6308ZM-88.9355 96.6387C-89.0913 96.6387 -89.2465 96.6365 -89.4013 96.6322L-89.3692 95.482C-89.2251 95.4861 -89.0806 95.4881 -88.9355 95.4881L-88.9355 96.6387ZM-86.0135 96.379C-86.9621 96.5497 -87.9387 96.6387 -88.9355 96.6387L-88.9355 95.4881C-88.0073 95.4881 -87.0989 95.4052 -86.2173 95.2466L-86.0135 96.379Z" fill="white"/>
</g>
</g>
<g id="09">
<g id="Component 26">
<path id="Union_2" d="M206.993 244.517L207.491 244.805C207.65 244.53 207.555 244.178 207.28 244.019L206.993 244.517ZM83.662 173.312L83.9497 172.814C83.8175 172.738 83.6605 172.717 83.5131 172.756C83.3657 172.796 83.2401 172.892 83.1638 173.025L83.662 173.312ZM206.979 244.541L206.481 244.253C206.328 244.517 206.408 244.854 206.663 245.021L206.979 244.541ZM191.183 271.901L191.441 271.387C191.169 271.25 190.837 271.349 190.684 271.613L191.183 271.901ZM191.169 271.924L190.882 272.422C191.014 272.498 191.171 272.519 191.318 272.48C191.466 272.44 191.591 272.344 191.667 272.212L191.169 271.924ZM190.42 271.492L190.708 270.993L190.706 270.992L190.42 271.492ZM190.303 271.424L190.592 270.927L190.59 270.925L190.303 271.424ZM68.3654 201.023L68.653 200.525L68.6507 200.524L68.3654 201.023ZM68.2385 200.95L68.5284 200.453L68.5261 200.452L68.2385 200.95ZM67.8387 200.719L67.3405 200.431C67.2642 200.563 67.2435 200.72 67.283 200.868C67.3225 201.015 67.4189 201.141 67.551 201.217L67.8387 200.719ZM67.843 200.711L68.3413 200.999C68.4964 200.73 68.4105 200.387 68.1471 200.223L67.843 200.711ZM83.6575 173.32L83.3865 173.828C83.6602 173.974 84.0005 173.876 84.1557 173.608L83.6575 173.32ZM207.28 244.019L83.9497 172.814L83.3744 173.81L206.705 245.015L207.28 244.019ZM207.477 244.828L207.491 244.805L206.494 244.229L206.481 244.253L207.477 244.828ZM206.663 245.021C213.361 249.425 215.538 258.347 211.478 265.378L212.475 265.954C216.841 258.391 214.499 248.797 207.295 244.06L206.663 245.021ZM211.478 265.378C207.419 272.41 198.604 274.985 191.441 271.387L190.924 272.415C198.629 276.285 208.108 273.516 212.475 265.954L211.478 265.378ZM191.667 272.212L191.681 272.188L190.684 271.613L190.671 271.636L191.667 272.212ZM190.133 271.99L190.882 272.422L191.457 271.426L190.708 270.993L190.133 271.99ZM190.706 270.992C190.687 270.981 190.668 270.97 190.649 270.959L190.074 271.956C190.094 271.968 190.114 271.979 190.135 271.991L190.706 270.992ZM190.649 270.959C190.63 270.949 190.611 270.938 190.592 270.927L190.013 271.921C190.033 271.932 190.053 271.944 190.074 271.956L190.649 270.959ZM68.0777 201.521L190.015 271.922L190.59 270.925L68.653 200.525L68.0777 201.521ZM68.0142 201.485C68.0361 201.497 68.058 201.51 68.08 201.523L68.6507 200.524C68.6303 200.512 68.6099 200.5 68.5895 200.488L68.0142 201.485ZM67.9486 201.447C67.9704 201.459 67.9923 201.472 68.0142 201.485L68.5895 200.488C68.5691 200.477 68.5487 200.465 68.5284 200.453L67.9486 201.447ZM67.551 201.217L67.9509 201.448L68.5261 200.452L68.1263 200.221L67.551 201.217ZM67.3448 200.424L67.3405 200.431L68.3369 201.007L68.3413 200.999L67.3448 200.424ZM62.0119 179.084C57.5763 186.767 60.0638 196.546 67.539 201.2L68.1471 200.223C61.1969 195.897 58.884 186.803 63.0083 179.659L62.0119 179.084ZM83.9284 172.813C76.1609 168.665 66.4475 171.401 62.0119 179.084L63.0083 179.659C67.1327 172.516 76.1646 169.972 83.3865 173.828L83.9284 172.813ZM83.1638 173.025L83.1593 173.032L84.1557 173.608L84.1602 173.6L83.1638 173.025Z" fill="white"/>
</g>
<g id="Component 27">
<path id="Union_3" d="M-55.0453 244.517L-55.333 244.019C-55.6081 244.178 -55.7024 244.53 -55.5435 244.805L-55.0453 244.517ZM-55.0317 244.541L-54.7156 245.022C-54.461 244.854 -54.3811 244.517 -54.5334 244.253L-55.0317 244.541ZM68.2852 173.312L68.7835 173.025C68.6246 172.75 68.2728 172.655 67.9976 172.814L68.2852 173.312ZM68.2898 173.32L67.7915 173.608C67.9467 173.877 68.287 173.974 68.5607 173.828L68.2898 173.32ZM84.1042 200.712L83.8001 200.223C83.5367 200.387 83.4508 200.73 83.606 200.999L84.1042 200.712ZM84.1086 200.719L84.3962 201.217C84.5284 201.141 84.6248 201.015 84.6643 200.868C84.7038 200.721 84.6831 200.564 84.6068 200.431L84.1086 200.719ZM83.6958 200.957L83.4082 200.459L83.4064 200.46L83.6958 200.957ZM83.5945 201.016L83.3086 200.517L83.3068 200.518L83.5945 201.016ZM-38.3472 271.419L-38.6349 270.921L-38.6373 270.922L-38.3472 271.419ZM-38.4812 271.496L-38.7665 270.997L-38.7688 270.998L-38.4812 271.496ZM-39.222 271.924L-39.7202 272.212C-39.5613 272.487 -39.2095 272.581 -38.9343 272.422L-39.222 271.924ZM-39.2354 271.901L-38.7372 271.613C-38.8896 271.349 -39.2213 271.25 -39.4937 271.387L-39.2354 271.901ZM-55.5435 244.805L-55.5299 244.829L-54.5334 244.253L-54.5471 244.23L-55.5435 244.805ZM67.9976 172.814L-55.333 244.019L-54.7577 245.016L68.5729 173.811L67.9976 172.814ZM68.788 173.033L68.7835 173.025L67.787 173.6L67.7915 173.608L68.788 173.033ZM89.9352 179.084C85.4996 171.401 75.7863 168.666 68.0188 172.813L68.5607 173.828C75.7826 169.972 84.8144 172.516 88.9387 179.659L89.9352 179.084ZM84.4082 201.2C91.8833 196.547 94.3708 186.767 89.9352 179.084L88.9387 179.659C93.063 186.803 90.7502 195.897 83.8001 200.223L84.4082 201.2ZM84.6068 200.431L84.6024 200.424L83.606 200.999L83.6103 201.007L84.6068 200.431ZM83.9835 201.456L84.3962 201.217L83.8209 200.221L83.4082 200.459L83.9835 201.456ZM83.9329 201.485C83.9504 201.475 83.9678 201.465 83.9853 201.455L83.4064 200.46C83.3901 200.47 83.3739 200.479 83.3576 200.489L83.9329 201.485ZM83.8803 201.515C83.8978 201.505 83.9154 201.495 83.9329 201.485L83.3576 200.489C83.3413 200.498 83.325 200.507 83.3086 200.517L83.8803 201.515ZM-38.0596 271.917L83.8821 201.514L83.3068 200.518L-38.6349 270.921L-38.0596 271.917ZM-38.6373 270.922C-38.6587 270.935 -38.6802 270.947 -38.7018 270.96L-38.1265 271.956C-38.1034 271.943 -38.0803 271.929 -38.0572 271.916L-38.6373 270.922ZM-38.7018 270.96C-38.7233 270.972 -38.7449 270.984 -38.7665 270.997L-38.1959 271.996C-38.1728 271.983 -38.1496 271.969 -38.1265 271.956L-38.7018 270.96ZM-38.9343 272.422L-38.1935 271.995L-38.7688 270.998L-39.5096 271.426L-38.9343 272.422ZM-39.7336 272.188L-39.7202 272.212L-38.7238 271.636L-38.7372 271.613L-39.7336 272.188ZM-39.4937 271.387C-46.6565 274.985 -55.4713 272.41 -59.5309 265.379L-60.5274 265.954C-56.1612 273.516 -46.6814 276.285 -38.9772 272.415L-39.4937 271.387ZM-59.5309 265.379C-63.5906 258.347 -61.4133 249.426 -54.7156 245.022L-55.3478 244.06C-62.5517 248.797 -64.8936 258.391 -60.5274 265.954L-59.5309 265.379Z" fill="white"/>
</g>
<path id="&#224;&#184;&#162;&#224;&#184;&#177;&#224;&#184;&#135;&#224;&#185;&#132;&#224;&#184;&#161;&#224;&#185;&#136;&#224;&#184;&#163;&#224;&#184;&#177;&#224;&#184;&#154;&#224;&#184;&#163;&#224;&#184;&#173;&#224;&#184;&#135;" d="M96.8132 203.581C98.0329 204.285 99.1524 204.106 99.7634 203.048L101.068 200.788C101.255 200.465 101.337 200.405 101.595 200.518L101.825 200.615L102.084 200.167L100.362 199.173L100.104 199.621L100.303 199.773C100.53 199.939 100.519 200.041 100.333 200.364L99.028 202.623C98.619 203.332 97.938 203.393 97.1757 202.953C96.4134 202.513 95.982 201.893 96.3911 201.185C96.6965 200.656 97.2199 200.515 97.7401 200.816L98.3051 201.142L98.6329 200.781L98.7468 200.584L98.0563 200.185C97.5003 199.864 97.4442 199.485 97.6927 199.054L98.0085 198.507L98.9771 199.067L99.2774 198.546L97.6004 197.578L97.0049 198.61C96.6166 199.282 96.8445 199.737 97.1756 200.095L97.1704 200.104C96.6674 199.981 96.0388 200.097 95.6402 200.787C95.0603 201.791 95.5936 202.877 96.8132 203.581ZM102.902 199.635L103.283 199.388L103.433 199.128L101.12 197.793C100.967 197.705 100.942 197.582 101.03 197.43L101.206 197.125L100.758 196.866L100.419 196.79L100.269 197.05C100.015 197.49 100.059 197.993 100.543 198.273L102.902 199.635ZM102.314 206.637C103.067 207.072 103.866 206.911 104.327 206.113L106.341 202.624L104.888 201.786L104.588 202.306L105.027 202.56C105.269 202.699 105.253 202.81 105.067 203.133L103.633 205.617C103.337 206.128 102.888 206.203 102.457 205.954L102.08 205.737L102.845 201.802L102.056 201.347L101.808 201.777C101.928 201.942 101.928 202.169 101.895 202.33L101.175 205.98L102.314 206.637ZM111.096 201.544L108.451 200.016L108.332 200.223L108.204 200.651L109.89 201.624C109.216 201.57 108.716 201.772 108.168 202.723L105.42 207.462C105.14 207.946 105.319 208.444 105.794 208.718C105.965 208.816 106.097 208.857 106.22 208.892L106.515 208.608L106.608 208.447L106.286 208.26C106.124 208.167 106.081 208.035 106.2 207.829L108.879 203.229C109.587 202.024 110.084 201.952 110.744 202.154L111.096 201.544ZM109.602 210.965C110.508 211.488 111.648 211.44 112.238 210.418L113.615 208.032C113.802 207.709 113.884 207.649 114.142 207.762L114.372 207.859L114.631 207.411L112.909 206.417L112.651 206.865L112.85 207.017C113.077 207.183 113.066 207.285 112.88 207.608L111.523 209.957C111.119 210.657 110.512 210.653 109.911 210.306C108.996 209.778 108.912 208.868 108.912 208.868L110.972 205.299L109.753 204.594L109.489 205.052L109.697 205.208C109.915 205.37 109.906 205.448 109.719 205.771L108.047 208.667C107.845 209.017 107.759 209.063 107.56 208.972L107.343 208.871L107.053 209.373L108.085 209.969C108.218 209.842 108.378 209.648 108.499 209.479C108.499 209.479 108.58 210.374 109.602 210.965ZM114.548 206.394L115.273 205.139L114.555 204.725L113.831 205.98L114.548 206.394ZM114.166 213.6C115.27 214.237 116.291 214.228 116.871 213.224C117.311 212.462 116.897 211.708 116.231 211.121C115.09 210.115 115.166 209.777 115.404 209.364C115.653 208.934 116.115 208.878 116.77 209.256C117.174 209.489 117.456 209.807 117.571 210.209L118.109 210.519C118.109 210.519 118.268 210.348 118.532 209.89C118.282 209.578 117.683 209.041 117.109 208.71C116.123 208.141 115.155 208.18 114.674 209.014C114.244 209.758 114.525 210.494 115.286 211.185C116.386 212.179 116.315 212.425 116.036 212.909C115.792 213.331 115.279 213.453 114.562 213.039C114.069 212.754 113.763 212.434 113.693 211.975L113.146 211.659C112.947 211.963 112.907 212.012 112.707 212.338C112.889 212.539 113.216 213.051 114.166 213.6ZM120.128 209.58L120.51 209.334L120.66 209.074L118.346 207.738C118.194 207.65 118.168 207.528 118.257 207.376L118.433 207.071L117.984 206.812L117.645 206.736L117.495 206.996C117.242 207.435 117.286 207.939 117.77 208.219L120.128 209.58ZM119.171 216.489C120.48 217.245 121.615 216.956 122.226 215.897L123.485 213.718C123.671 213.395 123.753 213.335 124.011 213.448L124.242 213.546L124.496 213.106L122.774 212.112L122.52 212.552L122.72 212.703C122.946 212.869 122.936 212.971 122.749 213.294L121.491 215.473C121.108 216.137 120.385 216.353 119.533 215.861C118.681 215.369 118.507 214.635 118.89 213.971L120.666 210.895L119.447 210.191L119.182 210.649L119.391 210.805C119.609 210.966 119.599 211.045 119.413 211.368L118.155 213.547C117.544 214.605 117.861 215.733 119.171 216.489ZM124.028 219.293C125.131 219.93 126.152 219.922 126.732 218.917C127.172 218.155 126.758 217.402 126.093 216.814C124.951 215.809 125.027 215.47 125.266 215.057C125.514 214.627 125.977 214.571 126.631 214.949C127.035 215.182 127.317 215.501 127.432 215.902L127.971 216.213C127.971 216.213 128.129 216.041 128.393 215.584C128.143 215.272 127.544 214.735 126.97 214.404C125.984 213.834 125.017 213.873 124.535 214.707C124.105 215.452 124.386 216.188 125.147 216.878C126.247 217.872 126.177 218.118 125.897 218.603C125.654 219.024 125.141 219.146 124.423 218.732C123.93 218.447 123.625 218.128 123.555 217.669L123.008 217.353C122.808 217.656 122.768 217.705 122.568 218.032C122.751 218.233 123.077 218.744 124.028 219.293ZM131.668 217.14C130.789 216.632 129.878 216.596 129.366 216.779C129.277 216.931 129.176 217.148 129.072 217.411L129.664 217.752C130.159 217.392 130.66 217.395 131.306 217.767C132.212 218.29 132.392 218.909 131.895 219.77L131.227 220.927C130.725 221.797 130.099 221.949 129.184 221.421C128.691 221.136 128.377 220.728 128.348 220.364L128.84 219.512L129.449 219.864L129.786 219.281L128.441 218.505L127.369 220.361L127.503 220.439C127.691 221.025 128.013 221.606 128.811 222.067C130.022 222.766 131.222 222.634 131.952 221.369L132.62 220.212C133.376 218.903 132.942 217.875 131.668 217.14ZM134.122 225.002C134.876 225.437 135.674 225.276 136.135 224.478L138.149 220.989L136.696 220.15L136.396 220.67L136.835 220.924C137.077 221.064 137.061 221.174 136.875 221.497L135.441 223.981C135.146 224.492 134.696 224.567 134.265 224.319L133.889 224.101L134.654 220.167L133.865 219.711L133.616 220.142C133.736 220.307 133.736 220.534 133.704 220.694L132.983 224.344L134.122 225.002Z" fill="#FF8058"/>
<path id="&#224;&#184;&#163;&#224;&#184;&#177;&#224;&#184;&#154;&#224;&#184;&#163;&#224;&#184;&#173;&#224;&#184;&#135;" d="M37.3342 213.569C38.4372 212.932 38.9406 212.044 38.3607 211.039C37.9206 210.277 37.0613 210.259 36.2199 210.541C34.7784 211.027 34.523 210.792 34.2849 210.379C34.0363 209.949 34.2194 209.52 34.8741 209.142C35.2776 208.909 35.6947 208.824 36.0997 208.925L36.6378 208.614C36.6378 208.614 36.5687 208.391 36.3047 207.934C35.9093 207.995 35.1449 208.245 34.571 208.576C33.5845 209.145 33.1349 210.003 33.6164 210.837C34.0462 211.581 34.8238 211.706 35.8024 211.392C37.2133 210.936 37.3914 211.121 37.671 211.605C37.9143 212.026 37.7637 212.532 37.0463 212.946C36.553 213.231 36.1232 213.336 35.6909 213.167L35.1438 213.482C35.3071 213.807 35.3292 213.866 35.5118 214.203C35.7774 214.145 36.3836 214.118 37.3342 213.569ZM36.8344 206.396L36.8118 205.943L36.6616 205.683L34.3479 207.019C34.1954 207.107 34.0771 207.067 33.9891 206.915L33.813 206.61L33.3646 206.869L33.1294 207.124L33.2796 207.384C33.5333 207.824 33.9915 208.038 34.4758 207.758L36.8344 206.396ZM42.3383 210.68C43.6476 209.924 43.965 208.796 43.354 207.738L42.0959 205.559C41.9095 205.236 41.8988 205.134 42.1254 204.968L42.3251 204.817L42.0713 204.377L40.3495 205.371L40.6032 205.811L40.834 205.713C41.0916 205.6 41.1741 205.66 41.3605 205.983L42.6187 208.162C43.0018 208.826 42.8278 209.56 41.9759 210.052C41.1239 210.544 40.4011 210.328 40.018 209.664L38.242 206.588L37.0224 207.292L37.2864 207.749L37.5262 207.647C37.7749 207.539 37.838 207.586 38.0244 207.909L39.2826 210.089C39.8936 211.147 41.029 211.436 42.3383 210.68ZM47.1955 207.876C48.2985 207.239 48.8019 206.35 48.222 205.346C47.7819 204.584 46.9225 204.566 46.0812 204.848C44.6397 205.334 44.3843 205.098 44.1461 204.686C43.8976 204.255 44.0807 203.827 44.7353 203.449C45.1389 203.216 45.5559 203.131 45.961 203.231L46.4991 202.921C46.4991 202.921 46.43 202.698 46.1659 202.24C45.7706 202.301 45.0062 202.551 44.4322 202.882C43.4458 203.452 42.9962 204.309 43.4777 205.143C43.9074 205.888 44.6851 206.013 45.6637 205.699C47.0746 205.243 47.2526 205.427 47.5322 205.912C47.7756 206.333 47.625 206.838 46.9075 207.253C46.4143 207.537 45.9845 207.642 45.5522 207.473L45.0051 207.789C45.1684 208.113 45.1905 208.172 45.3731 208.509C45.6387 208.452 46.2449 208.424 47.1955 207.876ZM49.1508 200.182C48.2719 200.69 47.7847 201.461 47.6869 201.996C47.7749 202.148 47.9119 202.344 48.0876 202.566L48.6795 202.224C48.6151 201.615 48.8675 201.183 49.5132 200.81C50.419 200.287 51.0452 200.44 51.5422 201.301L52.2102 202.457C52.7124 203.327 52.5315 203.946 51.6167 204.474C51.1235 204.759 50.6126 204.827 50.2831 204.67L49.7912 203.818L50.401 203.466L50.0645 202.883L48.7193 203.66L49.7911 205.516L49.9256 205.438C50.5273 205.569 51.1914 205.581 51.9895 205.12C53.2002 204.421 53.6859 203.315 52.9559 202.051L52.288 200.894C51.532 199.585 50.4242 199.447 49.1508 200.182ZM57.1865 201.988C57.9398 201.553 58.1997 200.781 57.7389 199.983L55.7247 196.494L54.2719 197.333L54.5722 197.853L55.0117 197.6C55.2538 197.46 55.3415 197.529 55.5278 197.852L56.9621 200.336C57.2572 200.847 57.0973 201.274 56.6668 201.523L56.2901 201.74L53.2651 199.11L52.476 199.566L52.7245 199.996C52.9273 199.975 53.1244 200.088 53.2469 200.197L56.0476 202.645L57.1865 201.988Z" fill="white"/>
<g id="Component 64">
<g id="Frame 756">
<rect x="67.8301" y="178.9" width="17.2589" height="17.2589" rx="8.62944" fill="white"/>
<path id="1" d="M74.4013 191.53H76.5448C77.7771 190.691 79.1337 189.076 79.1337 187.046C79.1337 185.306 78.1395 184.178 76.4206 184.178C74.7741 184.178 73.7075 185.234 73.7075 186.715C73.7075 188.081 74.6291 188.962 75.82 188.962C76.7416 188.962 77.1661 188.423 77.4147 187.874L77.5079 187.905C77.2179 189.283 76.1617 190.266 74.4013 191.53ZM76.4206 187.771C75.7371 187.771 75.3229 187.377 75.3229 186.673V186.487C75.3229 185.783 75.7371 185.389 76.4206 185.389C77.104 185.389 77.5182 185.783 77.5182 186.487V186.673C77.5182 187.377 77.104 187.771 76.4206 187.771Z" fill="black"/>
</g>
</g>
<g id="Component 65">
<path id="Union_4" d="M328.956 200.52L329.243 201.018C329.375 200.942 329.472 200.817 329.511 200.669C329.551 200.522 329.53 200.365 329.454 200.233L328.956 200.52ZM328.942 200.497L328.626 200.016C328.371 200.183 328.291 200.52 328.444 200.784L328.942 200.497ZM205.625 271.725L205.127 272.013C205.286 272.288 205.638 272.382 205.913 272.223L205.625 271.725ZM205.621 271.717L206.119 271.43C205.964 271.161 205.623 271.064 205.35 271.21L205.621 271.717ZM189.806 244.326L190.11 244.814C190.374 244.65 190.459 244.307 190.304 244.038L189.806 244.326ZM189.802 244.318L189.514 243.82C189.239 243.979 189.145 244.331 189.304 244.606L189.802 244.318ZM190.195 244.091L190.483 244.589L190.485 244.588L190.195 244.091ZM190.335 244.011L190.62 244.51L190.622 244.509L190.335 244.011ZM312.253 173.621L312.541 174.119L312.543 174.118L312.253 173.621ZM312.396 173.539L312.681 174.038L312.684 174.037L312.396 173.539ZM313.132 173.113L313.631 172.826C313.472 172.551 313.12 172.456 312.845 172.615L313.132 173.113ZM313.146 173.137L312.648 173.424C312.8 173.688 313.132 173.788 313.404 173.651L313.146 173.137ZM329.454 200.233L329.44 200.209L328.444 200.784L328.457 200.808L329.454 200.233ZM205.913 272.223L329.243 201.018L328.668 200.022L205.337 271.227L205.913 272.223ZM205.122 272.005L205.127 272.013L206.123 271.438L206.119 271.43L205.122 272.005ZM183.975 265.953C188.411 273.636 198.124 276.372 205.891 272.225L205.35 271.21C198.128 275.066 189.096 272.522 184.971 265.378L183.975 265.953ZM189.502 243.838C182.027 248.491 179.539 258.271 183.975 265.953L184.971 265.378C180.847 258.235 183.16 249.141 190.11 244.814L189.502 243.838ZM189.304 244.606L189.308 244.614L190.304 244.038L190.3 244.031L189.304 244.606ZM189.908 243.593L189.514 243.82L190.089 244.817L190.483 244.589L189.908 243.593ZM189.977 243.553C189.953 243.566 189.929 243.58 189.905 243.594L190.485 244.588C190.508 244.575 190.53 244.562 190.553 244.549L189.977 243.553ZM190.05 243.511C190.025 243.525 190.001 243.539 189.977 243.553L190.553 244.549C190.575 244.536 190.597 244.523 190.62 244.51L190.05 243.511ZM311.965 173.123L190.047 243.512L190.622 244.509L312.541 174.119L311.965 173.123ZM312.543 174.118C312.566 174.104 312.589 174.091 312.612 174.078L312.037 173.081C312.012 173.096 311.987 173.11 311.963 173.124L312.543 174.118ZM312.612 174.078C312.635 174.065 312.658 174.051 312.681 174.038L312.111 173.039C312.086 173.053 312.062 173.067 312.037 173.081L312.612 174.078ZM312.845 172.615L312.108 173.04L312.684 174.037L313.42 173.612L312.845 172.615ZM313.644 172.849L313.631 172.826L312.634 173.401L312.648 173.424L313.644 172.849ZM313.404 173.651C320.567 170.052 329.382 172.627 333.441 179.659L334.438 179.084C330.072 171.521 320.592 168.752 312.887 172.623L313.404 173.651ZM333.441 179.659C337.501 186.691 335.324 195.612 328.626 200.016L329.258 200.977C336.462 196.24 338.804 186.646 334.438 179.084L333.441 179.659Z" fill="white"/>
</g>
</g>
<g id="Group 3">
<g id="Component 611">
<circle id="Ellipse 120" cx="258.253" cy="194.434" r="6.90355" transform="rotate(26.3206 258.253 194.434)" fill="#0031DE"/>
<path id="Line 53" d="M264.792 192.223L251.712 196.645" stroke="white" stroke-width="0.460237"/>
<path id="Line 54" d="M256.042 187.894L260.464 200.974" stroke="white" stroke-width="0.460237"/>
<path id="Line 55" d="M261.313 188.246L255.191 200.621" stroke="white" stroke-width="0.460237"/>
<path id="Line 56" d="M252.065 191.373L264.441 197.495" stroke="white" stroke-width="0.460237"/>
</g>
<g id="Component 592">
<circle id="Ellipse 120_2" cx="197.272" cy="230.102" r="6.90355" transform="rotate(26.2334 197.272 230.102)" fill="#9B8CCD"/>
<path id="Line 53_2" d="M203.808 227.881L190.735 232.323" stroke="black" stroke-width="0.460237"/>
<path id="Line 54_2" d="M195.051 223.565L199.493 236.639" stroke="black" stroke-width="0.460237"/>
<path id="Line 55_2" d="M200.323 223.91L194.22 236.295" stroke="black" stroke-width="0.460237"/>
<path id="Line 56_2" d="M191.079 227.05L203.464 233.153" stroke="black" stroke-width="0.460237"/>
</g>
<g id="Component 593">
<circle id="Ellipse 120_3" cx="222.009" cy="216.87" r="6.90355" fill="#9B8CCD"/>
<path id="Line 53_3" d="M226.891 211.989L217.128 221.752" stroke="black" stroke-width="0.460237"/>
<path id="Line 54_3" d="M217.128 211.989L226.891 221.752" stroke="black" stroke-width="0.460237"/>
<path id="Line 55_3" d="M222.01 209.967L222.01 223.774" stroke="black" stroke-width="0.460237"/>
<path id="Line 56_3" d="M215.105 216.87L228.913 216.87" stroke="black" stroke-width="0.460237"/>
</g>
<g id="Component 592_2">
<circle id="Ellipse 120_4" cx="258.253" cy="181.202" r="6.90355" transform="rotate(47.2515 258.253 181.202)" fill="#9B8CCD"/>
<path id="Line 53_4" d="M265.151 181.473L251.355 180.931" stroke="black" stroke-width="0.460237"/>
<path id="Line 54_4" d="M258.524 174.304L257.982 188.1" stroke="black" stroke-width="0.460237"/>
<path id="Line 55_4" d="M263.322 176.516L253.183 185.888" stroke="black" stroke-width="0.460237"/>
<path id="Line 56_4" d="M253.567 176.132L262.939 186.271" stroke="black" stroke-width="0.460237"/>
</g>
<g id="Component 593_2">
<circle id="Ellipse 120_5" cx="270.91" cy="188.681" r="6.90355" transform="rotate(-28.498 270.91 188.681)" fill="#9B8CCD"/>
<path id="Line 53_5" d="M272.87 182.062L268.948 195.3" stroke="black" stroke-width="0.460237"/>
<path id="Line 54_5" d="M264.29 186.72L277.528 190.642" stroke="black" stroke-width="0.460237"/>
<path id="Line 55_5" d="M267.615 182.614L274.203 194.748" stroke="black" stroke-width="0.460237"/>
<path id="Line 56_5" d="M264.843 191.975L276.977 185.387" stroke="black" stroke-width="0.460237"/>
</g>
<g id="Component 600">
<circle id="Ellipse 120_6" cx="221.434" cy="173.723" r="6.90355" fill="#9B8CCD"/>
<path id="Line 53_6" d="M226.315 168.841L216.552 178.604" stroke="black" stroke-width="0.460237"/>
<path id="Line 54_6" d="M216.553 168.841L226.316 178.604" stroke="black" stroke-width="0.460237"/>
<path id="Line 55_6" d="M221.434 166.819L221.434 180.626" stroke="black" stroke-width="0.460237"/>
<path id="Line 56_6" d="M214.53 173.723L228.337 173.723" stroke="black" stroke-width="0.460237"/>
</g>
<g id="Component 607">
<circle id="Ellipse 120_7" cx="233.515" cy="195.009" r="6.90355" transform="rotate(-20.201 233.515 195.009)" fill="#9B8CCD"/>
<path id="Line 53_7" d="M236.411 188.742L230.62 201.276" stroke="black" stroke-width="0.460237"/>
<path id="Line 54_7" d="M227.248 192.113L239.782 197.904" stroke="black" stroke-width="0.460237"/>
<path id="Line 55_7" d="M231.132 188.53L235.9 201.488" stroke="black" stroke-width="0.460237"/>
<path id="Line 56_7" d="M227.036 197.393L239.994 192.625" stroke="black" stroke-width="0.460237"/>
</g>
<g id="Component 604">
<circle id="Ellipse 120_8" cx="209.353" cy="195.009" r="6.90355" transform="rotate(14.5961 209.353 195.009)" fill="#9B8CCD"/>
<path id="Line 53_8" d="M215.307 191.515L203.398 198.503" stroke="black" stroke-width="0.460237"/>
<path id="Line 54_8" d="M205.858 189.055L212.846 200.963" stroke="black" stroke-width="0.460237"/>
<path id="Line 55_8" d="M211.092 188.328L207.612 201.69" stroke="black" stroke-width="0.460237"/>
<path id="Line 56_8" d="M202.672 193.269L216.033 196.748" stroke="black" stroke-width="0.460237"/>
</g>
<g id="Component 600_2">
<circle id="Ellipse 120_9" cx="221.434" cy="201.912" r="6.90355" fill="#EFFF8B"/>
<path id="Line 53_9" d="M226.315 197.031L216.552 206.794" stroke="black" stroke-width="0.460237"/>
<path id="Line 54_9" d="M216.553 197.031L226.316 206.794" stroke="black" stroke-width="0.460237"/>
<path id="Line 55_9" d="M221.434 195.009L221.434 208.816" stroke="black" stroke-width="0.460237"/>
<path id="Line 56_9" d="M214.53 201.913L228.337 201.913" stroke="black" stroke-width="0.460237"/>
</g>
<g id="Component 606">
<circle id="Ellipse 120_10" cx="245.596" cy="188.681" r="6.90355" transform="rotate(-29.598 245.596 188.681)" fill="#EFFF8B"/>
<path id="Line 53_10" d="M247.43 182.025L243.763 195.337" stroke="black" stroke-width="0.460237"/>
<path id="Line 54_10" d="M238.94 186.848L252.252 190.515" stroke="black" stroke-width="0.460237"/>
<path id="Line 55_10" d="M242.187 182.678L249.006 194.684" stroke="black" stroke-width="0.460237"/>
<path id="Line 56_10" d="M239.594 192.09L251.599 185.271" stroke="black" stroke-width="0.460237"/>
</g>
<g id="Component 602">
<circle id="Ellipse 120_11" cx="246.172" cy="202.488" r="6.90355" fill="#9B8CCD"/>
<path id="Line 53_11" d="M251.054 197.606L241.291 207.369" stroke="black" stroke-width="0.460237"/>
<path id="Line 54_11" d="M241.29 197.606L251.053 207.369" stroke="black" stroke-width="0.460237"/>
<path id="Line 55_11" d="M246.172 195.584L246.172 209.391" stroke="black" stroke-width="0.460237"/>
<path id="Line 56_11" d="M239.269 202.488L253.076 202.488" stroke="black" stroke-width="0.460237"/>
</g>
<g id="Component 600_3">
<circle id="Ellipse 120_12" cx="136.614" cy="180.375" r="6.90355" transform="rotate(21.4967 136.614 180.375)" fill="#EFFF8B"/>
<path id="Line 53_12" d="M142.945 177.622L130.284 183.128" stroke="black" stroke-width="0.460237"/>
<path id="Line 54_12" d="M133.861 174.044L139.368 186.706" stroke="black" stroke-width="0.460237"/>
<path id="Line 55_12" d="M139.144 173.952L134.084 186.798" stroke="black" stroke-width="0.460237"/>
<path id="Line 56_12" d="M130.19 177.845L143.037 182.904" stroke="black" stroke-width="0.460237"/>
</g>
<g id="Component 606_2">
<circle id="Ellipse 120_13" cx="185.765" cy="179.476" r="6.90355" transform="rotate(14.6749 185.765 179.476)" fill="#EFFF8B"/>
<path id="Line 53_13" d="M191.725 175.99L179.807 182.962" stroke="black" stroke-width="0.460237"/>
<path id="Line 54_13" d="M182.28 173.517L189.252 185.435" stroke="black" stroke-width="0.460237"/>
<path id="Line 55_13" d="M187.515 172.798L184.017 186.155" stroke="black" stroke-width="0.460237"/>
<path id="Line 56_13" d="M179.087 177.727L192.444 181.225" stroke="black" stroke-width="0.460237"/>
</g>
<g id="Component 607_2">
<circle id="Ellipse 120_14" cx="233.515" cy="180.627" r="6.90355" fill="#EFFF8B"/>
<path id="Line 53_14" d="M238.396 175.745L228.633 185.508" stroke="black" stroke-width="0.460237"/>
<path id="Line 54_14" d="M228.634 175.745L238.397 185.508" stroke="black" stroke-width="0.460237"/>
<path id="Line 55_14" d="M233.516 173.723L233.516 187.53" stroke="black" stroke-width="0.460237"/>
<path id="Line 56_14" d="M226.611 180.626L240.418 180.626" stroke="black" stroke-width="0.460237"/>
</g>
<g id="Component 600_4">
<circle id="Ellipse 120_15" cx="209.928" cy="223.774" r="6.90355" transform="rotate(-9.10791 209.928 223.774)" fill="#EFFF8B"/>
<path id="Line 53_15" d="M213.976 218.181L205.881 229.366" stroke="black" stroke-width="0.460237"/>
<path id="Line 54_15" d="M204.335 219.727L215.52 227.821" stroke="black" stroke-width="0.460237"/>
<path id="Line 55_15" d="M208.835 216.957L211.021 230.59" stroke="black" stroke-width="0.460237"/>
<path id="Line 56_15" d="M203.111 224.866L216.744 222.681" stroke="black" stroke-width="0.460237"/>
</g>
<g id="Component 606_3">
<circle id="Ellipse 120_16" cx="234.091" cy="209.391" r="6.90355" transform="rotate(18.5952 234.091 209.391)" fill="#EFFF8B"/>
<path id="Line 53_16" d="M240.273 206.321L227.907 212.461" stroke="black" stroke-width="0.460237"/>
<path id="Line 54_16" d="M231.021 203.208L237.161 215.575" stroke="black" stroke-width="0.460237"/>
<path id="Line 55_16" d="M236.292 202.848L231.889 215.934" stroke="black" stroke-width="0.460237"/>
<path id="Line 56_16" d="M227.548 207.189L240.634 211.592" stroke="black" stroke-width="0.460237"/>
</g>
<g id="Component 607_3">
<circle id="Ellipse 120_17" cx="197.272" cy="187.53" r="6.90355" transform="rotate(33.8794 197.272 187.53)" fill="#EFFF8B"/>
<path id="Line 53_17" d="M204.045 186.199L190.497 188.862" stroke="black" stroke-width="0.460237"/>
<path id="Line 54_17" d="M195.94 180.756L198.603 194.304" stroke="black" stroke-width="0.460237"/>
<path id="Line 55_17" d="M201.12 181.798L193.423 193.261" stroke="black" stroke-width="0.460237"/>
<path id="Line 56_17" d="M191.54 183.682L203.003 191.378" stroke="black" stroke-width="0.460237"/>
</g>
<g id="Component 592_3">
<circle id="Ellipse 120_18" cx="197.271" cy="216.87" r="6.90355" transform="rotate(18.6546 197.271 216.87)" fill="#EFFF8B"/>
<path id="Line 53_18" d="M203.458 213.807L191.085 219.934" stroke="black" stroke-width="0.460237"/>
<path id="Line 54_18" d="M194.208 210.684L200.335 223.057" stroke="black" stroke-width="0.460237"/>
<path id="Line 55_18" d="M199.48 210.329L195.064 223.411" stroke="black" stroke-width="0.460237"/>
<path id="Line 56_18" d="M190.73 214.662L203.812 219.078" stroke="black" stroke-width="0.460237"/>
</g>
<g id="Component 593_3">
<circle id="Ellipse 120_19" cx="197.847" cy="203.063" r="6.90355" fill="#EFFF8B"/>
<path id="Line 53_19" d="M202.729 198.182L192.965 207.945" stroke="black" stroke-width="0.460237"/>
<path id="Line 54_19" d="M192.965 198.182L202.728 207.945" stroke="black" stroke-width="0.460237"/>
<path id="Line 55_19" d="M197.847 196.16L197.847 209.967" stroke="black" stroke-width="0.460237"/>
<path id="Line 56_19" d="M190.943 203.063L204.75 203.063" stroke="black" stroke-width="0.460237"/>
</g>
<g id="Component 587">
<circle id="Ellipse 120_20" cx="125.36" cy="188.105" r="6.90355" fill="#9B8CCD"/>
<path id="Line 53_20" d="M130.241 183.224L120.478 192.987" stroke="black" stroke-width="0.575296"/>
<path id="Line 54_20" d="M120.478 183.224L130.241 192.987" stroke="black" stroke-width="0.575296"/>
</g>
<g id="Component 587_2">
<circle id="Ellipse 120_21" cx="209.353" cy="180.627" r="6.90355" fill="#9B8CCD"/>
<path id="Line 53_21" d="M214.234 175.745L204.471 185.508" stroke="black" stroke-width="0.575296"/>
<path id="Line 54_21" d="M204.472 175.745L214.235 185.508" stroke="black" stroke-width="0.575296"/>
</g>
<g id="Component 607_4">
<circle id="Ellipse 120_22" cx="148.947" cy="201.912" r="6.90355" transform="rotate(70.8197 148.947 201.912)" fill="#9B8CCD"/>
<path id="Line 53_22" d="M155.161 204.919L142.732 198.906" stroke="black" stroke-width="0.575296"/>
<path id="Line 54_22" d="M151.953 195.698L145.94 208.127" stroke="black" stroke-width="0.575296"/>
</g>
<g id="Component 604_2">
<circle id="Ellipse 120_23" cx="161.603" cy="180.627" r="6.90355" fill="#9B8CCD"/>
<path id="Line 53_23" d="M166.484 175.745L156.721 185.508" stroke="black" stroke-width="0.575296"/>
<path id="Line 54_23" d="M156.722 175.745L166.485 185.508" stroke="black" stroke-width="0.575296"/>
</g>
<g id="Component 605">
<circle id="Ellipse 120_24" cx="173.11" cy="216.295" r="6.90355" fill="#9B8CCD"/>
<path id="Line 53_24" d="M177.99 211.413L168.227 221.176" stroke="black" stroke-width="0.575296"/>
<path id="Line 54_24" d="M168.228 211.413L177.991 221.176" stroke="black" stroke-width="0.575296"/>
</g>
<g id="Component 604_3">
<circle id="Ellipse 120_25" cx="221.434" cy="188.105" r="6.90355" fill="#49AB93"/>
<path id="Line 53_25" d="M226.315 183.224L216.552 192.987" stroke="white" stroke-width="0.575296"/>
<path id="Line 54_25" d="M216.553 183.224L226.316 192.987" stroke="white" stroke-width="0.575296"/>
</g>
<g id="Component 606_4">
<circle id="Ellipse 120_26" cx="148.947" cy="186.955" r="6.90355" transform="rotate(31.8206 148.947 186.955)" fill="#49AB93"/>
<path id="Line 53_26" d="M155.669 185.38L142.226 188.528" stroke="white" stroke-width="0.575296"/>
<path id="Line 54_26" d="M147.373 180.233L150.521 193.677" stroke="white" stroke-width="0.575296"/>
</g>
<g id="Component 607_5">
<circle id="Ellipse 120_27" cx="185.191" cy="223.198" r="6.90355" fill="#49AB93"/>
<path id="Line 53_27" d="M190.072 218.317L180.309 228.08" stroke="white" stroke-width="0.575296"/>
<path id="Line 54_27" d="M180.309 218.317L190.072 228.08" stroke="white" stroke-width="0.575296"/>
</g>
<g id="Component 604_4">
<circle id="Ellipse 120_28" cx="185.586" cy="194.83" r="6.90355" transform="rotate(34.5372 185.586 194.83)" fill="#49AB93"/>
<path id="Line 53_28" d="M192.375 193.576L178.797 196.083" stroke="white" stroke-width="0.575296"/>
<path id="Line 54_28" d="M184.332 188.041L186.839 201.618" stroke="white" stroke-width="0.575296"/>
</g>
<g id="Component 604_5">
<circle id="Ellipse 120_29" cx="173.109" cy="201.337" r="6.90355" transform="rotate(25.2635 173.109 201.337)" fill="#EFFF8B"/>
<path id="Line 53_29" d="M179.607 199.005L166.611 203.668" stroke="black" stroke-width="0.575296"/>
<path id="Line 54_29" d="M170.778 194.839L175.441 207.835" stroke="black" stroke-width="0.575296"/>
</g>
<g id="Component 605_2">
<circle id="Ellipse 120_30" cx="137.441" cy="195.009" r="6.90355" fill="#EFFF8B"/>
<path id="Line 53_30" d="M142.322 190.127L132.559 199.891" stroke="black" stroke-width="0.575296"/>
<path id="Line 54_30" d="M132.56 190.127L142.323 199.891" stroke="black" stroke-width="0.575296"/>
</g>
<g id="Component 601">
<circle id="Ellipse 120_31" cx="209.928" cy="209.967" r="6.90355" fill="#EFFF8B"/>
<path id="Line 53_31" d="M214.81 205.085L205.046 214.848" stroke="black" stroke-width="0.575296"/>
<path id="Line 54_31" d="M205.047 205.085L214.81 214.848" stroke="black" stroke-width="0.575296"/>
</g>
<g id="Component 607_6">
<circle id="Ellipse 120_32" cx="173.685" cy="187.53" r="6.90355" fill="#EFFF8B"/>
<path id="Line 53_32" d="M178.566 182.648L168.803 192.412" stroke="black" stroke-width="0.575296"/>
<path id="Line 54_32" d="M168.803 182.648L178.566 192.412" stroke="black" stroke-width="0.575296"/>
</g>
<g id="Component 604_6">
<circle id="Ellipse 120_33" cx="161.028" cy="194.433" r="6.90355" fill="#EFFF8B"/>
<path id="Line 53_33" d="M165.909 189.552L156.146 199.315" stroke="black" stroke-width="0.575296"/>
<path id="Line 54_33" d="M156.146 189.552L165.91 199.315" stroke="black" stroke-width="0.575296"/>
</g>
<g id="Component 605_3">
<circle id="Ellipse 120_34" cx="161.028" cy="208.816" r="6.90355" fill="#EFFF8B"/>
<path id="Line 53_34" d="M165.909 203.935L156.146 213.698" stroke="black" stroke-width="0.575296"/>
<path id="Line 54_34" d="M156.146 203.935L165.91 213.698" stroke="black" stroke-width="0.575296"/>
</g>
<g id="Component 601_2">
<circle id="Ellipse 120_35" cx="185.19" cy="208.816" r="6.90355" transform="rotate(45.814 185.19 208.816)" fill="#EFFF8B"/>
<path id="Line 53_35" d="M192.094 208.914L178.288 208.718" stroke="black" stroke-width="0.575296"/>
<path id="Line 54_35" d="M185.289 201.913L185.093 215.719" stroke="black" stroke-width="0.575296"/>
</g>
</g>
</g>
</g>
</g>
<circle id="Ellipse 185" cx="153" cy="152.5" r="151.5" stroke="white" stroke-width="2"/>
<g id="Group 19">
<path id="Star 2" d="M154 281L158.4 290.721L165.588 282.835L166.768 293.44L176.042 288.162L173.887 298.613L184.338 296.458L179.06 305.732L189.665 306.912L181.779 314.1L191.5 318.5L181.779 322.9L189.665 330.088L179.06 331.268L184.338 340.542L173.887 338.387L176.042 348.838L166.768 343.56L165.588 354.165L158.4 346.279L154 356L149.6 346.279L142.412 354.165L141.232 343.56L131.958 348.838L134.113 338.387L123.662 340.542L128.94 331.268L118.335 330.088L126.221 322.9L116.5 318.5L126.221 314.1L118.335 306.912L128.94 305.732L123.662 296.458L134.113 298.613L131.958 288.162L141.232 293.44L142.412 282.835L149.6 290.721L154 281Z" fill="#FF8058"/>
<path id="1_2" d="M161.851 329V324.284L157.891 323.816V304.88H153.319C150.151 305.096 146.515 305.78 146.515 305.78V310.64H150.835V323.816L146.551 324.284V329H161.851Z" fill="black"/>
</g>
</g>
</svg>
