<svg width="30" height="30" viewBox="0 0 30 30" fill="none" xmlns="http://www.w3.org/2000/svg">
<g clip-path="url(#clip0_780_10384)">
<path fill-rule="evenodd" clip-rule="evenodd" d="M24.0561 12.5747C23.6947 11.225 23.0361 9.97317 22.1286 8.91074C21.2211 7.84832 20.0875 7.00219 18.8109 6.43424C17.5343 5.86628 16.1468 5.59088 14.7501 5.62816C13.3533 5.66545 11.9825 6.01448 10.738 6.64973C10.6282 6.70562 10.5084 6.73934 10.3856 6.74895C10.2627 6.75856 10.1392 6.74389 10.022 6.70576C9.90485 6.66763 9.79633 6.60679 9.70267 6.52672C9.609 6.44665 9.53202 6.34892 9.47613 6.2391C9.42024 6.12928 9.38652 6.00953 9.37691 5.88668C9.36729 5.76384 9.38197 5.6403 9.4201 5.52312C9.45823 5.40595 9.51907 5.29743 9.59914 5.20376C9.6792 5.1101 9.77694 5.03312 9.88675 4.97723C12.255 3.76879 14.9747 3.43818 17.5635 4.04403C20.1523 4.64988 22.4429 6.15303 24.029 8.28689C25.6151 10.4207 26.3941 13.0474 26.228 15.7009C26.0619 18.3545 24.9614 20.8635 23.1215 22.7829C21.2817 24.7023 18.8216 25.908 16.1774 26.1863C13.5333 26.4645 10.876 25.7973 8.67696 24.303C6.47789 22.8086 4.87915 20.5837 4.16428 18.0229C3.44941 15.462 3.66463 12.7308 4.77175 10.3135C4.82309 10.2014 4.896 10.1006 4.9863 10.0168C5.0766 9.9329 5.18254 9.86765 5.29806 9.82473C5.41359 9.78181 5.53643 9.76207 5.65958 9.76662C5.78273 9.77118 5.90378 9.79995 6.01582 9.85129C6.12785 9.90263 6.22868 9.97553 6.31254 10.0658C6.39639 10.1561 6.46165 10.2621 6.50456 10.3776C6.54748 10.4931 6.56723 10.616 6.56267 10.7391C6.55811 10.8623 6.52934 10.9833 6.478 11.0954C5.85118 12.4631 5.56273 13.9616 5.63704 15.4643C5.71135 16.9669 6.14622 18.4297 6.90492 19.7289C7.66362 21.0281 8.72387 22.1256 9.9961 22.9288C11.2683 23.7319 12.7152 24.217 14.2144 24.3432C15.7136 24.4694 17.2212 24.2329 18.6097 23.6537C19.9983 23.0745 21.2271 22.1696 22.1922 21.0155C23.1574 19.8613 23.8307 18.4919 24.1551 17.0227C24.4795 15.5536 24.4455 14.028 24.0561 12.5747V12.5747Z" fill="white"/>
<path fill-rule="evenodd" clip-rule="evenodd" d="M14.726 0.273473C14.6389 0.186167 14.5354 0.116899 14.4215 0.0696367C14.3076 0.0223746 14.1855 -0.00195312 14.0622 -0.00195312C13.9389 -0.00195312 13.8168 0.0223746 13.7029 0.0696367C13.589 0.116899 13.4856 0.186167 13.3985 0.273473L8.71097 4.96097C8.62367 5.04806 8.5544 5.15151 8.50714 5.26541C8.45987 5.37931 8.43555 5.50141 8.43555 5.62472C8.43555 5.74804 8.45987 5.87014 8.50714 5.98404C8.5544 6.09793 8.62367 6.20139 8.71097 6.28847L13.3985 10.976C13.5745 11.152 13.8133 11.2509 14.0622 11.2509C14.3112 11.2509 14.5499 11.152 14.726 10.976C14.902 10.7999 15.0009 10.5612 15.0009 10.3122C15.0009 10.0633 14.902 9.82451 14.726 9.64847L10.7003 5.62472L14.726 1.60097C14.8133 1.51389 14.8825 1.41043 14.9298 1.29654C14.9771 1.18264 15.0014 1.06054 15.0014 0.937223C15.0014 0.813909 14.9771 0.691807 14.9298 0.57791C14.8825 0.464013 14.8133 0.360558 14.726 0.273473Z" fill="white"/>
</g>
<defs>
<clipPath id="clip0_780_10384">
<rect width="30" height="30" fill="white"/>
</clipPath>
</defs>
</svg>
