<svg width="196" height="40" viewBox="0 0 196 40" fill="none" xmlns="http://www.w3.org/2000/svg">
<circle cx="8" cy="8" r="8" fill="#9B8CCD"/>
<path d="M13.6562 2.34277L2.34254 13.6565" stroke="black"/>
<circle cx="28" cy="8" r="8" fill="#49AB93"/>
<path d="M33.6562 2.34277L22.3425 13.6565" stroke="white"/>
<path d="M22.3438 2.34277L33.6575 13.6565" stroke="white"/>
<circle cx="48" cy="8" r="8" fill="#49AB93"/>
<path d="M53.6562 2.34277L42.3425 13.6565" stroke="white"/>
<path d="M42.3438 2.34277L53.6575 13.6565" stroke="white"/>
<circle cx="68" cy="8" r="8" fill="#9B8CCD"/>
<path d="M73.6562 2.34277L62.3425 13.6565" stroke="black"/>
<path d="M62.3438 2.34277L73.6575 13.6565" stroke="black"/>
<circle cx="88" cy="8" r="8" fill="#9B8CCD"/>
<path d="M93.6562 2.34277L82.3425 13.6565" stroke="black"/>
<path d="M82.3438 2.34277L93.6575 13.6565" stroke="black"/>
<circle cx="108" cy="8" r="8" fill="#9B8CCD"/>
<path d="M113.656 2.34277L102.343 13.6565" stroke="black"/>
<path d="M102.344 2.34277L113.657 13.6565" stroke="black"/>
<circle cx="128" cy="8" r="8" fill="#EFFF8B"/>
<path d="M133.656 2.34277L122.343 13.6565" stroke="black"/>
<path d="M122.344 2.34277L133.657 13.6565" stroke="black"/>
<circle cx="148" cy="8" r="8" fill="#9B8CCD"/>
<path d="M153.656 2.34277L142.343 13.6565" stroke="black"/>
<circle cx="168" cy="8" r="8" fill="#49AB93"/>
<path d="M173.656 2.34277L162.343 13.6565" stroke="white"/>
<path d="M162.344 2.34277L173.657 13.6565" stroke="white"/>
<circle cx="188" cy="8" r="8" fill="#49AB93"/>
<path d="M193.656 2.34277L182.343 13.6565" stroke="white"/>
<path d="M182.344 2.34277L193.657 13.6565" stroke="white"/>
<circle cx="8" cy="32" r="8" fill="#9B8CCD"/>
<path d="M13.6562 26.3428L2.34254 37.6565" stroke="black"/>
<circle cx="28" cy="32" r="8" fill="#49AB93"/>
<path d="M33.6562 26.3428L22.3425 37.6565" stroke="white"/>
<path d="M22.3438 26.3428L33.6575 37.6565" stroke="white"/>
<circle cx="48" cy="32" r="8" fill="#49AB93"/>
<path d="M53.6562 26.3428L42.3425 37.6565" stroke="white"/>
<path d="M42.3438 26.3428L53.6575 37.6565" stroke="white"/>
<circle cx="68" cy="32" r="8" fill="#9B8CCD"/>
<path d="M73.6562 26.3428L62.3425 37.6565" stroke="black"/>
<path d="M62.3438 26.3428L73.6575 37.6565" stroke="black"/>
<circle cx="88" cy="32" r="8" fill="#9B8CCD"/>
<path d="M93.6562 26.3428L82.3425 37.6565" stroke="black"/>
<path d="M82.3438 26.3428L93.6575 37.6565" stroke="black"/>
<circle cx="108" cy="32" r="8" fill="#EFFF8B"/>
<path d="M113.656 26.3428L102.343 37.6565" stroke="black"/>
<path d="M102.344 26.3428L113.657 37.6565" stroke="black"/>
</svg>
