<svg width="116" height="16" viewBox="0 0 116 16" fill="none" xmlns="http://www.w3.org/2000/svg">
<circle cx="8" cy="8" r="8" fill="#EFFF8B"/>
<path d="M13.6562 2.34277L2.34254 13.6565" stroke="black"/>
<circle cx="28" cy="8" r="8" fill="#49AB93"/>
<path d="M33.6562 2.34277L22.3425 13.6565" stroke="white"/>
<path d="M22.3438 2.34277L33.6575 13.6565" stroke="white"/>
<circle cx="48" cy="8" r="8" fill="#9B8CCD"/>
<path d="M53.6562 2.34277L42.3425 13.6565" stroke="black"/>
<path d="M42.3438 2.34277L53.6575 13.6565" stroke="black"/>
<circle cx="68" cy="8" r="8" fill="#EFFF8B"/>
<path d="M73.6562 2.34277L62.3425 13.6565" stroke="black"/>
<path d="M62.3438 2.34277L73.6575 13.6565" stroke="black"/>
<circle cx="88" cy="8" r="8" fill="#9B8CCD"/>
<path d="M93.6562 2.34277L82.3425 13.6565" stroke="black"/>
<circle cx="108" cy="8" r="8" fill="#49AB93"/>
<path d="M113.656 2.34277L102.343 13.6565" stroke="white"/>
<path d="M102.344 2.34277L113.657 13.6565" stroke="white"/>
</svg>
