<svg width="41" height="40" viewBox="0 0 41 40" fill="none" xmlns="http://www.w3.org/2000/svg">
<g clip-path="url(#clip0_780_14327)">
<path fill-rule="evenodd" clip-rule="evenodd" d="M20.1621 40C31.2078 40 40.1621 31.0457 40.1621 20C40.1621 8.9543 31.2078 0 20.1621 0C9.11641 0 0.162109 8.9543 0.162109 20C0.162109 31.0457 9.11641 40 20.1621 40ZM25.4875 21.1345L30.8827 23.4467C31.2492 23.6043 31.5548 23.8763 31.7538 24.2221C31.9528 24.5679 32.0345 24.9688 31.9867 25.3649C31.7866 26.9212 31.0267 28.3515 29.8491 29.3886C28.6714 30.4256 27.1564 30.9984 25.5873 31C16.441 31 9 23.5591 9 14.4128C9.00159 12.8436 9.57439 11.3287 10.6114 10.151C11.6484 8.97336 13.0787 8.21349 14.6351 8.01339C15.0311 7.96543 15.4321 8.04707 15.7779 8.24606C16.1237 8.44505 16.3957 8.7507 16.5532 9.11724L18.8676 14.5171C18.9876 14.7964 19.0366 15.1011 19.01 15.4039C18.9835 15.7068 18.8823 15.9984 18.7155 16.2525L16.7993 19.1804L16.7991 19.1806C17.6644 20.9399 19.0913 22.3605 20.8544 23.218L23.7391 21.2951C23.9939 21.1245 24.2874 21.0205 24.5928 20.9924C24.8982 20.9644 25.2058 21.0132 25.4875 21.1345Z" fill="white"/>
</g>
<defs>
<clipPath id="clip0_780_14327">
<rect width="40" height="40" fill="white" transform="translate(0.162109)"/>
</clipPath>
</defs>
</svg>
