<svg width="24" height="24" viewBox="0 0 24 24" fill="none" xmlns="http://www.w3.org/2000/svg">
<path fill-rule="evenodd" clip-rule="evenodd" d="M21.5311 17.031C21.601 16.9613 21.6564 16.8786 21.6942 16.7875C21.732 16.6963 21.7515 16.5987 21.7515 16.5C21.7515 16.4014 21.732 16.3037 21.6942 16.2126C21.6564 16.1214 21.601 16.0387 21.5311 15.969L12.5311 6.969C12.4615 6.89916 12.3787 6.84374 12.2876 6.80593C12.1965 6.76812 12.0988 6.74866 12.0001 6.74866C11.9015 6.74866 11.8038 6.76812 11.7127 6.80593C11.6216 6.84374 11.5388 6.89916 11.4691 6.969L2.46912 15.969C2.32829 16.1098 2.24918 16.3008 2.24918 16.5C2.24918 16.6992 2.32829 16.8902 2.46912 17.031C2.60995 17.1718 2.80096 17.251 3.00012 17.251C3.19929 17.251 3.3903 17.1718 3.53112 17.031L12.0001 8.5605L20.4691 17.031C20.5388 17.1008 20.6216 17.1563 20.7127 17.1941C20.8038 17.2319 20.9015 17.2513 21.0001 17.2513C21.0988 17.2513 21.1965 17.2319 21.2876 17.1941C21.3787 17.1563 21.4615 17.1008 21.5311 17.031Z" fill="white"/>
</svg>
